<?xml version="1.0" standalone="no"?>
<!DOCTYPE svg PUBLIC "-//W3C//DTD SVG 20010904//EN"
 "http://www.w3.org/TR/2001/REC-SVG-20010904/DTD/svg10.dtd">
<svg version="1.0" xmlns="http://www.w3.org/2000/svg"
 width="557.000000pt" height="384.000000pt" viewBox="0 0 557.000000 384.000000"
 preserveAspectRatio="xMidYMid meet">

<g transform="translate(0.000000,384.000000) scale(0.100000,-0.100000)"
fill="#000000" stroke="none">
<path d="M3192 3829 c-112 -22 -205 -90 -248 -183 -33 -71 -33 -180 0 -251 44
-96 161 -170 336 -215 119 -30 166 -53 190 -92 24 -40 25 -50 5 -92 -21 -45
-62 -66 -127 -66 -88 0 -150 54 -165 144 l-6 38 -121 -6 c-67 -4 -134 -9 -150
-12 -27 -6 -28 -8 -23 -49 16 -114 88 -229 173 -277 131 -73 389 -78 533 -10
154 72 236 257 187 423 -40 141 -128 200 -404 273 -136 37 -162 53 -162 102 0
49 37 74 111 74 70 0 110 -28 132 -93 12 -37 17 -42 43 -40 16 1 82 5 147 8
l118 7 -7 37 c-28 156 -117 247 -272 280 -61 13 -226 13 -290 0z"/>
<path d="M2070 3290 l0 -530 170 0 170 0 0 530 0 530 -170 0 -170 0 0 -530z"/>
<path d="M2460 3290 l0 -530 175 0 175 0 0 530 0 530 -175 0 -175 0 0 -530z"/>
<path d="M3840 3290 l0 -530 170 0 170 0 0 530 0 530 -170 0 -170 0 0 -530z"/>
<path d="M4350 3795 c0 -66 57 -135 128 -155 20 -5 79 -10 130 -10 51 0 102
-5 113 -10 33 -18 49 -64 49 -141 l0 -72 61 7 c34 3 84 6 112 6 l49 0 -4 98
c-5 113 -30 174 -97 235 -74 66 -77 67 -321 67 l-220 0 0 -25z"/>
<path d="M1618 3708 c-334 -28 -668 -169 -940 -394 -431 -360 -672 -876 -672
-1444 0 -193 13 -306 59 -485 89 -346 269 -647 541 -905 276 -261 621 -415
1026 -459 329 -36 677 30 977 185 162 83 288 173 422 302 363 348 537 738 569
1277 8 144 8 161 -7 173 -12 8 -69 12 -200 12 l-183 0 0 -68 c0 -272 -77 -565
-205 -781 -218 -366 -556 -602 -970 -677 -149 -27 -368 -25 -505 5 -173 38
-326 101 -465 192 -279 181 -480 440 -584 755 -51 151 -61 217 -68 414 -5 161
-3 201 16 307 76 438 321 791 705 1015 140 82 347 151 498 165 39 3 72 11 74
17 2 6 3 99 2 206 l-3 195 -87 -7z"/>
<path d="M4935 3274 c-27 -7 -76 -18 -107 -24 l-58 -11 0 -197 c0 -226 6 -251
75 -289 35 -20 55 -23 151 -23 98 0 115 3 138 21 35 28 33 61 -5 93 -25 21
-41 26 -85 26 l-54 0 -2 208 -3 208 -50 -12z"/>
<path d="M2090 2575 l0 -95 30 0 30 0 0 95 0 95 -30 0 -30 0 0 -95z"/>
<path d="M2190 2575 c0 -94 0 -95 24 -95 23 0 25 5 28 48 l3 47 33 -47 c27
-39 39 -48 62 -48 l30 0 0 95 0 95 -29 0 c-28 0 -30 -2 -33 -46 l-3 -46 -32
46 c-24 34 -39 46 -58 46 -25 0 -25 0 -25 -95z"/>
<path d="M2400 2575 l0 -95 59 0 c49 0 65 4 88 24 24 21 28 31 27 72 -1 68
-33 94 -115 94 l-59 0 0 -95z m105 0 c0 -34 -3 -40 -22 -43 -21 -3 -23 1 -23
43 0 42 2 46 23 43 19 -3 22 -9 22 -43z"/>
<path d="M2637 2659 c-27 -16 -48 -72 -41 -109 9 -42 47 -70 98 -70 53 0 84
22 92 65 14 76 -21 125 -88 125 -24 0 -51 -5 -61 -11z m89 -63 c12 -49 -21
-90 -52 -65 -14 12 -19 70 -7 82 3 4 17 7 29 7 17 0 25 -7 30 -24z"/>
<path d="M2820 2575 l0 -95 29 0 c28 0 30 3 33 42 l3 42 28 -42 c22 -34 33
-42 57 -42 l30 0 0 95 0 95 -29 0 c-28 0 -30 -2 -33 -47 l-3 -48 -30 47 c-24
38 -36 48 -57 48 l-28 0 0 -95z"/>
<path d="M3030 2575 l0 -95 80 0 c79 0 80 0 80 25 0 23 -3 25 -50 25 -38 0
-50 4 -50 15 0 11 12 15 45 15 38 0 45 3 45 20 0 17 -7 20 -45 20 -33 0 -45 4
-45 15 0 11 12 15 50 15 43 0 50 3 50 20 0 18 -7 20 -80 20 l-80 0 0 -95z"/>
<path d="M3236 2654 c-37 -36 -10 -83 57 -99 15 -4 27 -13 27 -21 0 -19 -39
-18 -46 1 -4 9 -19 15 -35 15 -35 0 -38 -21 -9 -50 14 -14 33 -20 65 -20 55 0
88 27 83 68 -3 26 -21 40 -83 64 -24 9 -26 12 -11 16 10 2 23 -1 29 -7 6 -6
21 -11 34 -11 29 0 32 35 4 50 -30 15 -97 12 -115 -6z"/>
<path d="M3410 2575 l0 -95 30 0 30 0 0 95 0 95 -30 0 -30 0 0 -95z"/>
<path d="M3556 2662 c-6 -10 -66 -171 -66 -178 0 -12 59 -2 64 11 3 9 18 15
36 15 18 0 33 -6 36 -15 6 -15 64 -22 63 -7 0 4 -15 45 -32 92 -30 80 -34 85
-64 88 -17 2 -34 -1 -37 -6z m44 -82 c0 -11 -6 -20 -14 -20 -9 0 -12 7 -9 20
3 11 9 20 14 20 5 0 9 -9 9 -20z"/>
<path d="M3707 2663 c-4 -3 -7 -46 -7 -95 l0 -88 29 0 c28 0 30 2 33 46 l3 47
33 -47 c27 -37 39 -46 63 -46 l30 0 -3 93 c-3 92 -3 92 -30 95 -25 3 -27 1
-30 -44 l-3 -47 -33 47 c-31 43 -65 59 -85 39z"/>
<path d="M2090 2344 l0 -95 28 3 27 3 3 93 3 92 -31 0 -30 0 0 -96z"/>
<path d="M2170 2345 l0 -95 30 0 c28 0 30 2 30 40 0 22 4 40 8 40 5 0 18 -18
31 -40 18 -32 28 -40 52 -40 35 0 36 7 6 51 -22 33 -22 35 -5 52 23 22 23 42
-2 67 -16 16 -33 20 -85 20 l-65 0 0 -95z m110 41 c0 -13 -20 -26 -41 -26 -5
0 -9 9 -9 20 0 15 7 20 25 20 15 0 25 -6 25 -14z"/>
<path d="M2373 2416 c-37 -32 -40 -103 -5 -138 33 -33 116 -33 143 1 29 35 26
105 -6 136 -33 34 -93 34 -132 1z m98 -40 c23 -50 -10 -98 -52 -76 -22 12 -27
68 -7 88 20 20 48 14 59 -12z"/>
<path d="M2550 2345 c0 -94 0 -95 24 -95 23 0 25 4 28 52 l3 53 34 -53 c25
-39 39 -52 57 -52 24 0 24 1 24 95 0 94 0 95 -24 95 -23 0 -25 -5 -28 -47 l-3
-48 -33 48 c-24 34 -40 47 -57 47 -25 0 -25 -1 -25 -95z"/>
<path d="M2856 2424 c-18 -17 -18 -20 -7 -48 5 -13 0 -26 -16 -42 -47 -47 15
-100 91 -77 19 6 40 7 49 2 21 -12 44 16 28 35 -6 7 -8 21 -4 31 5 16 2 17
-25 12 -37 -8 -50 7 -28 32 32 36 12 71 -40 71 -18 0 -40 -7 -48 -16z m62 -25
c-2 -6 -8 -10 -13 -10 -5 0 -11 4 -13 10 -2 6 4 11 13 11 9 0 15 -5 13 -11z
m-6 -111 c-11 -11 -42 1 -42 16 0 23 13 26 32 9 10 -9 15 -20 10 -25z"/>
<path d="M3118 2428 c-30 -24 -31 -54 -2 -77 15 -12 35 -21 44 -21 20 0 43
-23 33 -33 -12 -13 -44 -7 -49 8 -9 23 -54 19 -54 -5 0 -31 44 -53 91 -47 51
7 69 22 69 58 0 31 -25 53 -72 64 -29 7 -36 19 -18 30 6 4 18 1 27 -7 10 -8
35 -12 70 -10 l53 4 0 -72 0 -71 28 3 c26 3 27 5 30 69 3 65 4 67 32 71 l29 4
3 -70 3 -71 78 -3 c77 -3 77 -3 77 23 0 23 -3 25 -50 25 -38 0 -50 4 -50 15 0
11 12 15 45 15 38 0 45 3 45 20 0 17 -7 20 -45 20 -33 0 -45 4 -45 15 0 11 12
15 50 15 43 0 50 3 50 20 0 19 -7 20 -170 20 -163 0 -170 -1 -170 -20 l0 -20
-20 20 c-23 23 -87 27 -112 8z"/>
<path d="M3602 2348 l3 -93 78 -3 c77 -3 77 -3 77 23 0 23 -3 25 -50 25 -38 0
-50 4 -50 15 0 11 12 15 45 15 38 0 45 3 45 20 0 17 -7 20 -45 20 -33 0 -45 4
-45 15 0 11 12 15 50 15 43 0 50 3 50 20 0 18 -7 20 -80 20 l-81 0 3 -92z"/>
<path d="M3772 2348 l3 -93 73 -3 c71 -3 72 -3 72 23 0 23 -3 25 -45 25 l-45
0 0 70 0 70 -30 0 -31 0 3 -92z"/>
<path d="M4090 2335 l0 -95 30 0 30 0 0 95 0 95 -30 0 -30 0 0 -95z"/>
<path d="M4190 2335 c0 -94 0 -95 24 -95 23 0 25 5 28 48 l3 47 33 -47 c27
-39 39 -48 62 -48 l30 0 0 95 0 95 -29 0 c-28 0 -30 -2 -33 -47 l-3 -48 -30
47 c-24 38 -36 48 -57 48 l-28 0 0 -95z"/>
<path d="M4400 2335 l0 -95 59 0 c49 0 65 4 88 24 24 21 28 31 27 72 -1 68
-33 94 -115 94 l-59 0 0 -95z m105 0 c0 -34 -3 -40 -22 -43 -21 -3 -23 1 -23
43 0 42 2 46 23 43 19 -3 22 -9 22 -43z"/>
<path d="M4602 2354 c4 -91 23 -114 92 -114 66 0 86 28 86 118 l0 72 -30 0
-30 0 0 -71 0 -70 -27 3 c-27 3 -28 5 -31 71 l-3 67 -31 0 -30 0 4 -76z"/>
<path d="M4838 2418 c-40 -33 -25 -71 38 -99 25 -10 42 -23 39 -29 -9 -15 -35
-12 -41 5 -4 9 -19 15 -35 15 -22 0 -29 -5 -29 -19 0 -29 38 -51 87 -51 95 0
114 92 26 120 -48 15 -65 30 -35 30 12 0 22 -4 22 -10 0 -5 14 -10 30 -10 34
0 39 18 12 43 -22 20 -91 23 -114 5z"/>
<path d="M4990 2405 c0 -21 5 -25 30 -25 l30 0 0 -70 0 -70 30 0 30 0 0 70 0
70 30 0 c25 0 30 4 30 25 0 25 -1 25 -90 25 -89 0 -90 0 -90 -25z"/>
<path d="M5190 2335 l0 -95 30 0 c28 0 30 3 30 35 0 19 5 35 10 35 6 0 20 -16
31 -35 16 -27 27 -35 50 -35 34 0 36 11 9 55 -18 29 -18 34 -5 45 20 17 19 53
-3 73 -13 12 -37 17 -85 17 l-67 0 0 -95z m108 38 c2 -8 -6 -13 -22 -13 -17 0
-26 5 -26 16 0 19 41 16 48 -3z"/>
<path d="M5392 2383 c20 -30 35 -65 38 -93 5 -42 7 -45 35 -45 28 0 30 3 35
45 3 25 17 62 33 85 34 50 34 55 -2 55 -22 0 -34 -8 -49 -32 l-20 -31 -16 31
c-14 27 -22 32 -52 32 l-35 0 33 -47z"/>
<path d="M2322 2213 c-28 -6 -56 -46 -47 -71 5 -18 23 -28 78 -46 20 -6 23
-36 3 -36 -7 0 -19 7 -26 15 -19 23 -60 19 -60 -4 0 -51 102 -70 145 -27 24
24 25 24 35 6 11 -21 67 -35 104 -26 80 20 72 105 -12 122 -36 7 -48 19 -32
29 6 4 19 0 29 -9 22 -20 50 -21 58 0 10 26 -22 47 -71 47 -53 0 -76 -16 -76
-53 0 -32 11 -43 63 -59 39 -13 47 -28 21 -38 -10 -4 -22 1 -29 10 -7 10 -24
17 -38 17 -16 0 -30 8 -37 19 -5 11 -27 25 -47 31 -44 14 -59 25 -45 34 6 3
17 -1 25 -9 18 -18 53 -20 63 -4 16 26 -53 61 -104 52z"/>
<path d="M2685 2213 c-42 -10 -65 -44 -65 -94 0 -58 22 -88 72 -96 73 -11 118
28 118 103 0 37 -36 84 -64 84 -8 0 -20 2 -28 4 -7 2 -22 1 -33 -1z m53 -55
c14 -14 16 -57 3 -76 -4 -8 -19 -12 -32 -10 -19 2 -25 10 -27 36 -5 50 27 79
56 50z"/>
<path d="M2873 2205 c-38 -16 -53 -42 -53 -90 0 -50 44 -95 93 -95 36 0 87 32
87 55 0 22 -41 30 -55 11 -19 -25 -54 -20 -61 8 -13 53 19 93 52 65 14 -12 51
-14 62 -4 10 10 -22 44 -49 54 -39 13 -37 13 -76 -4z"/>
<path d="M3590 2207 c-97 -33 -69 -187 35 -187 49 0 74 15 91 55 36 86 -36
162 -126 132z m58 -46 c8 -5 12 -23 10 -47 -2 -32 -7 -40 -27 -42 -27 -4 -41
12 -41 49 0 40 28 60 58 40z"/>
<path d="M2103 2122 c-18 -49 -33 -92 -33 -96 0 -3 14 -6 30 -6 20 0 30 5 30
15 0 11 11 15 35 15 22 0 38 -6 41 -15 6 -15 64 -22 63 -7 0 4 -15 45 -32 92
-32 83 -33 85 -67 88 l-35 3 -32 -89z m77 -2 c0 -11 -6 -20 -14 -20 -9 0 -12
7 -9 20 3 11 9 20 14 20 5 0 9 -9 9 -20z"/>
<path d="M3020 2114 l0 -95 28 3 27 3 3 93 3 92 -31 0 -30 0 0 -96z"/>
<path d="M3122 2124 c-18 -47 -32 -90 -32 -95 0 -15 50 -10 56 6 4 9 19 15 39
15 20 0 35 -6 39 -15 5 -14 47 -21 58 -10 3 3 -9 45 -27 93 -32 85 -34 87 -67
90 l-35 3 -31 -87z m78 -11 c0 -7 -7 -13 -16 -13 -11 0 -14 5 -10 16 3 9 6 21
6 27 0 16 20 -14 20 -30z"/>
<path d="M3260 2185 c0 -21 5 -25 30 -25 l30 0 0 -70 0 -70 30 0 30 0 0 70 0
70 30 0 c25 0 30 4 30 25 0 25 -1 25 -90 25 -89 0 -90 0 -90 -25z"/>
<path d="M3452 2118 l3 -93 28 -3 27 -3 0 95 0 96 -30 0 -31 0 3 -92z"/>
<path d="M3740 2114 l0 -95 28 3 c24 3 28 8 32 46 l5 44 32 -46 c24 -34 39
-46 58 -46 25 0 25 0 25 95 l0 95 -29 0 c-28 0 -30 -3 -33 -42 l-3 -42 -28 42
c-22 34 -33 42 -57 42 l-30 0 0 -96z"/>
</g>
</svg>
