<?xml version="1.0" encoding="utf-8"?>
<!-- Generator: Adobe Illustrator 21.0.0, SVG Export Plug-In . SVG Version: 6.00 Build 0)  -->
<svg version="1.1" id="Layer_1" xmlns="http://www.w3.org/2000/svg" xmlns:xlink="http://www.w3.org/1999/xlink" x="0px" y="0px"
	 viewBox="0 0 1918.5 470.1" style="enable-background:new 0 0 1918.5 470.1;" xml:space="preserve">
<style type="text/css">
	.st0{fill:url(#Path_23_);}
	.st1{fill:url(#Path_24_);}
	.st2{fill:url(#Path_25_);}
	.st3{fill:url(#Path_26_);}
	.st4{fill:url(#Path_27_);}
	.st5{fill:url(#Path_28_);}
	.st6{fill:url(#Path_29_);}
	.st7{fill:url(#Path_30_);}
	.st8{fill:url(#Path_31_);}
	.st9{fill:url(#Path_32_);}
	.st10{fill:url(#Path_33_);}
	.st11{fill:url(#Path_34_);}
	.st12{fill:url(#Path_35_);}
	.st13{fill:url(#Path_36_);}
	.st14{fill:url(#Path_37_);}
	.st15{fill:url(#Path_38_);}
	.st16{fill:url(#Path_39_);}
	.st17{fill:url(#Path_40_);}
	.st18{fill:url(#Path_41_);}
	.st19{fill:url(#Path_42_);}
	.st20{fill:url(#Path_43_);}
	.st21{fill:url(#Path_44_);}
	.st22{fill:url(#Path_45_);}
</style>
<title>instant-on-waves</title>
<g id="instant-on-waves">
	<g id="Instant-On-waves-left" transform="translate(0.000000, 417.000000)">
		
			<linearGradient id="Path_23_" gradientUnits="userSpaceOnUse" x1="660.903" y1="124.8498" x2="661.903" y2="124.8498" gradientTransform="matrix(1918.467 0 0 -430.9963 -1267920.625 53608.3164)">
			<stop  offset="0" style="stop-color:#CC6900"/>
			<stop  offset="6.960000e-02" style="stop-color:#D56E00"/>
			<stop  offset="0.185" style="stop-color:#EF7B00"/>
			<stop  offset="0.2466" style="stop-color:#FF8300"/>
			<stop  offset="0.5996" style="stop-color:#FF8300"/>
			<stop  offset="0.9007" style="stop-color:#5C0F8B"/>
			<stop  offset="0.9944" style="stop-color:#490870"/>
		</linearGradient>
		<path id="Path" class="st0" d="M0.9-414.6c35.3-6.7,64.9,23.1,85.2,47.9c27.6,33.8,48.9,72.6,69.3,111.1
			c19.2,36.2,37.2,73.3,58.9,108.2c12.9,20.7,29.6,40.2,53.7,47.7c20.1,6.2,39.5,0.7,54.2-14.1c14.7-14.8,23.6-34.3,38.2-49.3
			c9.1-9.4,20.4-16,33.7-16.5c16.2-0.6,31.4,7.8,43.7,17.6c29.6,23.5,61.1,85.2,107.3,64c19.1-8.7,33.6-26.1,46.6-42
			c15.4-18.9,29.2-39.1,46.7-56.3c10.7-10.5,22.7-21.1,35.9-28.4c15.7-8.6,35.3-6.6,50,3.4c8.9,6.1,15.4,16,21.3,24.7
			c6,8.8,11.6,18,17,27.2c23.4,39.9,53.2,82.4,99.9,96.1c48.9,14.3,95.1-13.6,126.9-49c36.3-40.4,56.1-92,87-136.1
			c17-24.4,38.2-48.4,65.9-60.6c14.7-6.5,31.1-9.1,46.7-4.3c15.5,4.7,28.3,15.8,39.3,27.3c16.8,17.6,30.8,37.2,40,59.8
			c8.2,20.2,14,41.3,22.1,61.5c7.3,18.3,15.8,33.8,32.6,45c16.2,10.9,35.3,16.6,54,21.9c21.2,6,42.8,11,62.8,20.5
			c21.7,10.2,38.6,27.4,56.2,43.3c28.3,25.6,70.1,68.4,112.8,55.7c18.5-5.5,33.8-21.5,47.6-34.3c17.7-16.5,34.9-33.9,50.3-52.6
			c11.8-14.3,22.9-28.9,35.1-42.8c13-15,20.5-34,29.5-51.5c11-21.4,22.6-42.4,31-65c6.4-17.3,12.3-34.6,19.4-51.6
			c15.7-37.4,33.6-77.2,60.7-107.9c8.8-9.9,21-22,35.4-20.5c1,0.1,0.9-1.4,0-1.5c-11.5-1.2-21.7,6.2-29.6,13.8
			c-12.9,12.3-22.9,27.6-31.9,42.8c-19.6,33-35.5,68.6-48.4,104.7c-8.2,23-17.1,45.1-28.5,66.7c-10.9,20.8-20,43.8-33.8,62.9
			c-9.8,13.6-22.1,25.5-32.1,39c-14.3,19.1-31.1,36.4-48.1,53c-15.6,15.1-33.6,35.4-54.6,42.7c-23.5,8.2-47.6-3.1-66.9-16.2
			c-39.2-26.5-68.3-68.3-112.9-86.2c-38-15.2-86.5-17.1-117.4-46.4c-17.6-16.7-24.4-42.5-32-64.8c-6.2-18.1-11.9-36.4-21.4-53.1
			c-11.5-20.2-27.5-39.6-45.8-54c-20.6-16.2-44.9-20.3-69.4-10.4c-49.4,19.8-77.9,73.1-102.6,116.9
			c-26.9,47.9-56.6,99.8-108.7,123.9c-26.5,12.2-56.4,13.3-83.3,1.4c-25.5-11.3-46-31.7-62.5-53.7c-13.5-18-23.6-38-35.8-56.8
			c-10.5-16.3-21.2-32.6-40.3-39.1c-25.8-8.8-46.5,6.9-65.1,23.2c-18.6,16.2-33.1,35.9-48.2,55.2c-14.1,18-29.4,38.2-50,49.3
			c-25.8,14-49.3-0.6-68-19.4c-18.8-18.8-34.2-41.6-58.6-53.7c-18.6-9.3-39.3-9.1-55.8,4.2c-16.2,13.1-25.5,32.7-38.6,48.5
			c-7.4,8.9-16.2,17-27.3,20.8c-14.9,5-31.2,1.5-44.7-5.9c-26.9-14.7-41.1-43.5-55.7-69c-8.9-15.5-17.2-31.3-25.5-47.2
			c-19.8-38-39.4-76.3-63.2-112.1c-19-28.6-42-61-74.1-75.9c-11.5-5.4-23.9-7.5-36.5-5.1C-0.4-415.9,0-414.4,0.9-414.6L0.9-414.6z"
			/>
		
			<linearGradient id="Path_24_" gradientUnits="userSpaceOnUse" x1="660.903" y1="124.8681" x2="661.903" y2="124.8681" gradientTransform="matrix(1918.4702 0 0 -404.0246 -1267922.75 50248.7695)">
			<stop  offset="0" style="stop-color:#CC6900"/>
			<stop  offset="6.960000e-02" style="stop-color:#D56E00"/>
			<stop  offset="0.185" style="stop-color:#EF7B00"/>
			<stop  offset="0.2466" style="stop-color:#FF8300"/>
			<stop  offset="0.5996" style="stop-color:#FF8300"/>
			<stop  offset="0.9007" style="stop-color:#5C0F8B"/>
			<stop  offset="0.9944" style="stop-color:#490870"/>
		</linearGradient>
		<path id="Path_1_" class="st1" d="M0.9-400.8c46.9-7.9,83.9,41.2,107.4,74.6c29.8,42.4,53.2,88.7,79.1,133.5
			c20.2,34.8,42,82.2,85.2,91.9c41.3,9.3,58.4-28.8,81.1-54.4c16.9-19.1,39.3-25.6,63.3-14.4c23.4,11,38.9,31.8,57,49.3
			c12.5,12.2,28.7,25.6,47.1,26c18.2,0.4,34-11.9,46.5-23.9c18.4-17.8,33.1-39,50-58.2c7.5-8.5,15.5-16.6,24.2-23.8
			c10.8-9,24.3-20.3,38.4-23.4c32.4-7.1,51.9,20.9,66.8,44.5c11.5,18.2,21.5,37.2,34.8,54.3c23.9,30.8,57.1,58.3,97.8,59.5
			c44.1,1.3,82.3-27.8,109.2-60.1c32-38.4,51-85.4,79.1-126.4c27.6-40.2,79.4-91.5,130.9-58c39.3,25.5,59.1,68.2,75.2,110.2
			c6.9,18.1,13.4,38.8,26,53.8c10.7,12.8,25.7,20.8,41.1,26.6c19.3,7.2,39.7,11.1,59.6,16.3c25.5,6.6,47.1,16,67.7,32.7
			c19.7,16,38.7,32.8,59.6,47.2c17.9,12.3,38.8,24.4,61.2,24c18.4-0.4,32.7-10.5,46.6-21.5c15.7-12.4,30.6-25.8,44.9-39.8
			c14.1-13.7,26.2-28.7,39.2-43.5c8-9.1,17.7-16.8,24.7-26.8c12.3-17.6,21.3-37.8,31.7-56.5c10-18.1,19.2-36.4,27.5-55.3
			c16.5-37.7,35.3-75.2,59-108.8c12.2-17.2,31.2-43.1,54.9-42.5c1,0,1-1.5,0-1.5c-18-0.4-33.2,14.8-44,27.5
			c-14.2,16.6-25.7,35.6-36.4,54.5c-20,35.5-34.5,73.4-53.5,109.3c-10.4,19.5-21,38.9-31.7,58.2c-7.4,13.2-16,22.9-26.5,33.6
			C1712.8-99,1702-84,1689.2-70.9c-14.1,14.5-29.1,28.3-44.6,41.3c-17.3,14.5-35.7,30.5-59.7,29c-26.6-1.6-50.3-18.9-70.8-34.5
			c-20.4-15.5-39-34.1-60.3-48.3c-18.9-12.6-41.4-18.3-63.2-23.6c-19.6-4.8-39.7-9.1-58.3-17.4c-19.8-8.9-33.9-22.3-42.9-42.1
			c-16.9-36.6-26.3-75.8-51.9-107.8c-14-17.6-31.1-36.5-52.8-44.3c-18.9-6.9-39.1-2.9-56.6,6.2c-41.9,21.8-67.3,66.7-89.7,106.3
			c-25.2,44.5-50.7,91.3-94.9,119.8c-20.8,13.4-45,21.5-70,19.1c-23.4-2.2-44.8-13.5-62.5-28.6c-17.6-15-31.9-33.5-44.1-53.1
			c-12-19.2-22.4-39.7-37.1-57.1c-12-14.3-31.1-23.2-50-19c-20.8,4.6-41.1,24.2-55.4,39.1c-17.5,18.1-31.8,38.9-48.8,57.4
			c-15.4,16.7-37.1,37.5-61.9,31.8c-24-5.5-41.2-27.3-57.4-44.2c-14.7-15.4-32.2-30.9-53.7-35.2c-39.1-7.7-55.8,31.2-77.4,55.1
			c-18,19.9-42.5,25.4-67.1,13.5c-24.4-11.8-39-35.5-52.5-57.9c-25.1-41.8-47.6-85.1-73.1-126.6c-22.6-36.8-49.2-79.7-88-101.5
			c-13.6-7.6-28.4-11.2-43.9-8.6C-0.4-402,0-400.6,0.9-400.8L0.9-400.8z"/>
		
			<linearGradient id="Path_25_" gradientUnits="userSpaceOnUse" x1="660.903" y1="124.8888" x2="661.903" y2="124.8888" gradientTransform="matrix(1918.4702 0 0 -377.248 -1267922.75 46913.5508)">
			<stop  offset="0" style="stop-color:#CC6900"/>
			<stop  offset="6.960000e-02" style="stop-color:#D56E00"/>
			<stop  offset="0.185" style="stop-color:#EF7B00"/>
			<stop  offset="0.2466" style="stop-color:#FF8300"/>
			<stop  offset="0.5996" style="stop-color:#FF8300"/>
			<stop  offset="0.9007" style="stop-color:#5C0F8B"/>
			<stop  offset="0.9944" style="stop-color:#490870"/>
		</linearGradient>
		<path id="Path_2_" class="st2" d="M0.9-386.9c47.3-7.3,84.6,39.6,109.2,73.3c28.9,39.5,52.2,82.5,78.1,124
			c21.3,34.2,44.4,80.8,88.9,87.2c38.7,5.6,54.2-30.1,77.3-53c19.2-19,43.7-19.8,66.9-6.6c20.7,11.9,35.2,30.6,52.9,46
			c13.2,11.5,30.3,23.1,48.7,20.5c18-2.5,33-15.7,45.3-28.2c17-17.2,31.3-36.8,48.1-54.2c8.6-8.9,18-17.1,28.1-24.3
			c11.3-8,23.4-16.6,37.7-16.9c31-0.5,47.4,27.6,61.7,50.7c10.1,16.4,19.5,33.1,31.4,48.4c24.1,30.9,57.7,58,98.6,58.4
			c41.8,0.5,78.2-26,104.6-56.3c32.2-37,51.4-82.7,78-123.4c25.9-39.5,75.7-95.3,128.4-67.3c21.2,11.3,38.9,31.9,52.6,51.3
			c11.2,15.9,19,33.5,26.5,51.4c7.9,18.8,15,40.1,27.7,56.3c9.6,12.2,23,20.4,37.2,26.1c38.9,15.5,85,13.5,120.8,36.9
			c20.4,13.3,38.9,29.6,59.1,43.3c19.4,13.2,40.8,27.2,64.5,30.6c19.4,2.8,35.5-4.1,51.1-15c15.2-10.5,29.6-22.2,43.6-34.3
			c13.1-11.4,25.7-23.3,37.3-36.3c9.4-10.5,20.6-18.9,30-29.2c13.1-14.3,21.4-33.2,31-49.9c10-17.1,20.1-34.1,29.8-51.4
			c20.6-36.4,40.7-73.5,66.8-106.4c13.1-16.5,32.1-37.5,54.8-38.2c1,0,1-1.5,0-1.5c-17.8,0.6-33.1,13.6-44.8,25.8
			c-15.4,16.1-27.9,35.2-39.9,54c-20.7,32.6-38.7,66.8-58.3,100.1c-11.3,19.2-21.4,39.4-33.9,57.7c-7.5,10.9-18,18-27,27.3
			c-12.6,13-24.3,26.4-37.8,38.6c-14.9,13.5-30.5,26.4-46.8,38.2c-19.9,14.4-40,23.6-65.1,16.9c-26-7-49.4-24.2-70.9-39.9
			c-18.2-13.3-35.6-29.7-56.2-39.2c-19-8.7-40-12.4-60.3-16.7c-19.6-4.2-39.7-8.4-57.7-17.6c-20.6-10.6-31.2-26.8-40.8-47.2
			c-8.2-17.5-14.9-35.6-23.2-53c-8.3-17.4-19.1-33.2-31.9-47.7c-14.4-16.2-31.5-33.4-53.3-38.4c-19.4-4.4-39.2,1.7-55.9,11.8
			c-39.5,23.9-63.2,67.4-85.2,106.3c-24.8,43.9-50.9,89.7-95.1,116.8c-19.8,12.1-42.5,19.4-65.9,17.7c-23.6-1.7-45.3-12.8-63.2-27.8
			c-34.2-28.8-50.5-69.3-76.9-104c-12.4-16.3-30.5-28.5-51.9-24.9c-19.1,3.2-37.4,19.3-51.3,32c-18.1,16.6-32.8,36.6-49.3,54.7
			c-14.6,16-33.9,36.3-57.3,36.5c-24.3,0.2-44.1-21.3-59.9-37.2c-15.2-15.3-31.8-31-53.1-37.1c-38.5-11.1-56.5,22.5-78.5,46.6
			c-16.9,18.5-38.8,25.9-63.1,16.7c-25.9-9.8-41.8-32.9-56.1-55.3c-25.3-39.7-48.4-80.8-74.2-120.2c-23.3-35.6-50.2-76.9-89-97.3
			c-13.6-7.1-28.3-10.3-43.5-8C-0.4-388.2,0-386.8,0.9-386.9L0.9-386.9z"/>
		
			<linearGradient id="Path_26_" gradientUnits="userSpaceOnUse" x1="660.903" y1="124.913" x2="661.903" y2="124.913" gradientTransform="matrix(1918.4655 0 0 -350.2293 -1267919.625 43548.1094)">
			<stop  offset="0" style="stop-color:#CC6900"/>
			<stop  offset="6.960000e-02" style="stop-color:#D56E00"/>
			<stop  offset="0.185" style="stop-color:#EF7B00"/>
			<stop  offset="0.2466" style="stop-color:#FF8300"/>
			<stop  offset="0.5996" style="stop-color:#FF8300"/>
			<stop  offset="0.9007" style="stop-color:#5C0F8B"/>
			<stop  offset="0.9944" style="stop-color:#490870"/>
		</linearGradient>
		<path id="Path_3_" class="st3" d="M0.9-373.1c45.3-6.4,81.3,33.9,106.6,65.9c30.2,38.2,54.6,80.3,81.7,120.6
			c21.9,32.5,44.6,75.3,87.3,81.8c39,6,53.7-29.2,78.9-50.5c20.6-17.5,45.8-13.7,67.7-0.1c19.4,12,33.7,29.8,51.7,43.6
			c12.8,9.8,28.5,18.4,45.1,15.5c19.2-3.3,35-18.2,48-31.6c16.6-17.1,31.2-36.1,48.8-52.2c17.8-16.2,43.7-37.7,69.4-32
			c26.2,5.8,39.7,30.7,52.7,51.8c10,16.4,19.7,32.9,31.8,47.9c23.5,29.1,55.6,54.2,94.6,55.1c40.5,0.9,76.6-23.6,102.8-52.5
			c32.7-35.9,52.2-81.1,78-121.7c23.9-37.7,66.9-91.3,118.4-76.9c24.2,6.8,43.4,28.1,58.7,47.1c12.7,15.8,22.4,33.2,31,51.5
			c8.9,19,16.9,39.9,29.3,57c8.9,12.3,21.7,20.7,35.6,26.5c37.4,15.6,80.5,12.4,117.1,29.8c20.8,9.9,39.1,25.8,58.6,38.1
			c20.5,12.9,42.3,26.7,66.2,32c37.8,8.4,69-18.5,97-40.2c13.6-10.5,27-21.5,39.1-33.7c6.5-6.6,12.9-13.4,20.3-19
			c3.9-3,8.1-5.6,11.7-8.9c13.3-12.5,21.2-30.3,31.5-45.1c11.2-16.1,22.8-31.6,32.4-48.8c3.6-6.4,8.3-11.3,12.8-17.2
			c5.7-7.5,11-15.3,16.3-23c12.5-18.4,24.9-37.1,39.5-53.9c14.1-16.3,33.8-34,56.2-36c0.9-0.1,1-1.6,0-1.5
			c-38.4,3.4-65.5,44.8-85.3,73.5c-10.8,15.5-20.6,32.2-33.1,46.4c-5.2,5.9-8.2,12.1-12.2,18.9c-5,8.6-10.7,16.8-16.5,24.8
			c-12.8,17.7-23.3,37.4-36.9,54.4c-7.5,9.4-18.1,15.1-26.8,23.3c-27.7,26.2-55.6,51.1-88,71.6c-8.7,5.5-17.5,10.8-27.6,13.2
			c-13.8,3.2-28.1,1.1-41.3-3.5c-24.9-8.6-48-23.9-69.7-38.5c-17.6-11.8-34.4-25.7-54.6-32.7c-19.4-6.8-40-9.2-60.1-13
			c-18.8-3.5-38.2-7.6-55.2-16.7c-19.9-10.6-30-27.3-40-46.8c-9-17.9-16.6-36.5-26.3-54c-10.3-18.4-23.4-35-38.3-49.9
			c-13.8-13.9-30.4-26.8-50.6-28.9c-20.1-2.1-39.8,6-56,17.4c-36.5,25.7-58.4,67.4-79.9,105.3c-24.3,42.9-50.5,87-94.1,113
			c-19.9,11.9-42.8,18.9-66.1,16.9c-22.7-2-43.5-12.5-60.8-26.9c-34.1-28.3-50.7-68.4-76.9-102.9c-11-14.5-25.6-25.6-44.6-25.8
			c-19.5-0.2-38.1,14.5-52.6,26.3c-18.5,15-33.4,33.5-49.3,51c-14.7,16.1-32.7,36-55.4,39.7c-24.3,4.1-45.6-15.7-61.9-31
			c-14.8-13.9-29.8-28-49-35.7c-16.4-6.6-34-6.1-48.7,4c-12.8,8.8-21.7,22-32.2,33.2c-17.1,18.4-38.1,26.6-62.9,18
			c-26-9-42.3-31.1-57.1-53c-25.6-38-49.5-77.2-75.9-114.6c-23.3-33.1-49.6-70.4-86.5-89.4c-14-7.2-29.1-10.4-44.8-8.2
			C-0.4-374.4,0-372.9,0.9-373.1L0.9-373.1z"/>
		
			<linearGradient id="Path_27_" gradientUnits="userSpaceOnUse" x1="660.903" y1="124.9406" x2="661.903" y2="124.9406" gradientTransform="matrix(1918.4562 0 0 -323.6689 -1267913.375 40239.9297)">
			<stop  offset="0" style="stop-color:#CC6900"/>
			<stop  offset="6.960000e-02" style="stop-color:#D56E00"/>
			<stop  offset="0.185" style="stop-color:#EF7B00"/>
			<stop  offset="0.2466" style="stop-color:#FF8300"/>
			<stop  offset="0.5996" style="stop-color:#FF8300"/>
			<stop  offset="0.9007" style="stop-color:#5C0F8B"/>
			<stop  offset="0.9944" style="stop-color:#490870"/>
		</linearGradient>
		<path id="Path_4_" class="st4" d="M0.7-359.2c44.7-5.7,80.2,30.6,106.6,61.8c30.4,36,55.3,75.8,83,113.8c23,31.5,46,72.3,89,76.9
			c38,4.1,51.4-31,78.6-48.9c44.8-29.4,84.5,25.9,117.9,47.6c14.5,9.4,31,14.9,47.9,8.8c17-6.1,30.9-19.7,43.3-32.3
			c16.7-17.1,31.9-35.6,50.8-50.4c20.5-16.2,45.5-32.8,72-21c22,9.8,34.6,34.8,46.5,54.5c10.1,16.8,20.7,33.2,33.7,47.9
			c24.4,27.6,57.3,49.3,95.5,47.1c39.5-2.3,73.8-27.3,99-56.2c30.7-35.3,49.8-78.6,74.7-117.9c23.4-36.8,63.7-87.3,113.7-76.8
			c24.8,5.2,44.3,26,60,44.6c13.1,15.4,23.6,32.4,32.9,50.3c9.6,18.4,18.3,38.1,30.6,55c9,12.4,22,20.8,36.1,26.4
			c36.7,14.6,77.8,10.8,114.5,24.6c21.2,8,40.1,23,59.8,34c20.4,11.4,41.8,23.7,64.7,29.4c19.6,4.9,38,2.5,55.7-7
			c15.5-8.3,30.3-18,44.8-28c13.5-9.4,26.9-19.3,39.2-30.4c6.5-5.9,12.9-12.2,20.3-16.9c3.8-2.4,7.7-4.4,11.3-7.2
			c14.8-11.6,23.4-30.6,34.9-45.1c11.1-14.2,22.2-28,32.3-43c3.8-5.6,10-9.4,14.7-14.2c6.4-6.5,12.1-13.7,17.8-20.9
			c13.5-16.9,26.4-34.5,42.1-49.5c14.4-13.8,33.3-26.5,53.5-29.4c0.9-0.1,0.5-1.6-0.4-1.4c-39,5.7-66.1,41.2-88.8,70
			c-5.9,7.4-11.7,14.9-17.9,22.1c-5.7,6.6-12,11.6-18.3,17.5c-5.2,4.8-8.5,12.5-12.7,18.4c-5.7,7.9-11.9,15.3-18,22.8
			c-12.6,15.6-22.2,34.8-36.6,48.6c-8.3,8-19.3,13-28.1,20.8c-27.5,24.4-57.3,46.6-89.8,64c-23.8,12.8-47.4,11.7-72.1,1.9
			c-23.9-9.4-46.7-22.7-68.6-36c-17.6-10.6-34-21.5-54.2-26.4c-19.5-4.7-39.8-6.3-59.6-9.7c-18.4-3.2-37.2-7.4-53.5-16.9
			c-19.1-11.2-29-29.9-39.1-48.8c-9-16.7-16.9-33.9-27.1-49.9c-11-17.3-24.3-33.2-39.3-47.2c-13.9-13-30.5-24.1-50.1-25.1
			c-19.5-1-38.5,7.5-54,18.8c-35.1,25.6-56.5,66-77.4,103c-23.7,41.7-49,84.4-90.4,110.7c-39.1,24.8-85.2,26-123.3-1.5
			c-36.4-26.3-54.3-66.2-79.6-101.7c-10.6-14.9-22.5-27.3-41.3-30.7c-19.7-3.6-37.8,8.6-53.2,19.4c-17.8,12.6-32.6,28.6-47.4,44.5
			c-15.3,16.5-32.1,36-53.8,43.8c-22.8,8.3-44-5.2-61.1-19.4c-17-14.1-32.4-29.9-53-39c-14.8-6.5-31.2-8.6-46.1-1.3
			c-14.3,7-24.1,20.1-35,31.2c-16.2,16.6-35,25.3-58.6,19.1c-25.8-6.8-43.2-26.4-58.2-47.2c-25.9-35.8-50.1-72.9-76.7-108.2
			c-24.1-31.9-50.7-67.9-87.2-86.5c-14.6-7.4-30.3-10.9-46.7-8.8C-0.2-360.6-0.2-359.1,0.7-359.2L0.7-359.2z"/>
		
			<linearGradient id="Path_28_" gradientUnits="userSpaceOnUse" x1="660.903" y1="124.972" x2="661.903" y2="124.972" gradientTransform="matrix(1918.47 0 0 -297.9865 -1267922.5 37041.625)">
			<stop  offset="0" style="stop-color:#CC6900"/>
			<stop  offset="6.960000e-02" style="stop-color:#D56E00"/>
			<stop  offset="0.185" style="stop-color:#EF7B00"/>
			<stop  offset="0.2466" style="stop-color:#FF8300"/>
			<stop  offset="0.5996" style="stop-color:#FF8300"/>
			<stop  offset="0.9007" style="stop-color:#5C0F8B"/>
			<stop  offset="0.9944" style="stop-color:#490870"/>
		</linearGradient>
		<path id="Path_5_" class="st5" d="M0.7-345.4c44.2-5,79.5,27.8,107,58.1c29.9,32.9,54.9,69.4,82.2,104.3
			c23.8,30.4,46.9,69,89.1,73.8c16.3,1.9,30.7-3.5,43.1-13.8c12.6-10.4,22.6-24.2,37.4-31.7c46.3-23.4,83.4,33.6,120.1,51.2
			c14.4,6.9,28.7,8.4,43.5,1.9c18.4-8.1,33.1-23.6,46.9-37.8c16.2-16.6,32.2-33.3,51.9-45.8c9-5.7,19-11.9,29.2-15
			c14.1-4.3,29.5-0.3,41.4,8c18,12.7,29.4,36.7,40.6,55.2c9.9,16.3,21,31.9,34.1,45.8c24.9,26.3,57.8,45.1,95.1,41.4
			c38.4-3.9,71.5-28.7,96-57.2c30.1-35,49-77.8,73.6-116.6c23.2-36.5,62.9-85.6,112.3-75.8c23.9,4.8,42.5,23.8,58.1,41.3
			c13.5,15.1,24.7,31.7,34.8,49.2c17.5,30.3,31.9,64.4,66.2,78.4c35.8,14.6,75.2,10.5,112,20.1c20.3,5.3,38.5,17.9,57.2,27.2
			c20.7,10.4,42,21.2,64.2,28c19.4,6,39.4,7.3,58.4-0.7c16-6.7,31.2-15.7,46-24.7c14-8.5,28-17.4,41-27.5
			c6.6-5.2,12.9-10.9,20.1-15.4c4.9-3,10.3-4.8,15.1-8.1c14.2-9.8,22.8-27,33.8-39.8c11.3-13.1,23.3-25.4,34-39.1
			c4.5-5.8,11.1-7.6,16.9-12.1c6.3-4.8,11.9-10.4,17.4-16.1c14.5-15,27.8-31.3,43.7-44.8c15.5-13.1,34.8-23.6,54.8-27.6
			c0.9-0.2,0.5-1.6-0.4-1.4c-38.7,7.7-65.3,36.4-91,64c-6.4,6.9-12.8,13.8-19.9,20c-3.4,3-6.9,5.9-10.7,8.2
			c-2.5,1.5-6.3,2.1-8.4,3.7c-1.9,1.5-3.8,5.5-5.3,7.5c-3.2,4.3-6.6,8.4-10.1,12.4c-5.9,6.7-12.2,13-18.1,19.7
			c-12.5,14-21.9,33.2-37.4,44c-4.2,2.9-9.1,4.6-13.5,7.1c-6.8,3.9-12.8,9.3-18.9,14.1c-13.8,11-28.7,20.6-43.7,29.7
			c-15.6,9.5-31.9,19.5-49,25.9c-25.4,9.5-51.8,1.5-75.6-8.7c-21.3-9.1-42.2-19.4-62.6-30.3c-17.4-9.3-33.1-16.9-52.8-20
			c-19.2-3-38.6-4-57.7-7c-18-2.8-36.5-7.1-52.3-16.7c-18.4-11.2-28.7-30.6-39.2-48.7c-19.8-34-39.1-67.2-69.3-93.3
			c-14-12.1-30.6-21.4-49.5-21.3c-19,0.1-37,8.7-51.9,19.9c-33.9,25.4-54.5,64.7-75,100.7c-23.2,40.9-48,82.7-88.1,109.2
			c-37.1,24.5-82.1,28.9-120.3,4.2c-36.2-23.4-55.6-60.8-78.6-95.6c-10.6-15.9-21.4-31.2-40.2-37.5c-18.6-6.2-34.4,1.3-50.4,10.5
			c-18.2,10.5-33.6,24.4-48.3,39.3c-15.5,15.7-30.5,33.2-49.7,44.5c-45.1,26.5-78.9-24.5-114.7-44c-15.9-8.6-34.4-14.1-52-7.2
			c-13.4,5.3-23.3,16.2-33.4,26c-16.3,15.7-33.9,25.3-57.3,20.3c-24-5.1-41.8-21.4-56.6-40c-26.8-33.7-51.2-69.3-78.3-102.8
			c-25-30.9-52.4-65.4-88.8-83.4c-15.1-7.5-31.3-10.9-48.2-8.9C-0.2-346.7-0.2-345.2,0.7-345.4L0.7-345.4z"/>
		
			<linearGradient id="Path_29_" gradientUnits="userSpaceOnUse" x1="660.903" y1="124.9856" x2="661.903" y2="124.9856" gradientTransform="matrix(1918.4561 0 0 -288.1072 -1267913.375 35819.8477)">
			<stop  offset="0" style="stop-color:#CC6900"/>
			<stop  offset="6.960000e-02" style="stop-color:#D56E00"/>
			<stop  offset="0.185" style="stop-color:#EF7B00"/>
			<stop  offset="0.2466" style="stop-color:#FF8300"/>
			<stop  offset="0.5996" style="stop-color:#FF8300"/>
			<stop  offset="0.9007" style="stop-color:#5C0F8B"/>
			<stop  offset="0.9944" style="stop-color:#490870"/>
		</linearGradient>
		<path id="Path_6_" class="st6" d="M0.7-331.5c43.6-4.4,78.7,25.1,107.4,54.3c30.7,31.2,56.5,66.1,84.9,99.3
			c24.6,28.8,47.2,63.7,88.7,66.8c15.8,1.2,29.6-4.6,41.8-14.3c13.4-10.7,25.1-24.7,42.5-28.9c24.6-6.1,49.6,9.5,68.6,23.4
			c15,11,29.3,23.7,47.1,30c37.3,13,66.7-21.2,90.7-44.6c16.1-15.7,33.2-30.3,53.4-40.6c12.4-6.3,24.9-12.1,39.2-9.4
			c12.5,2.4,23.3,9.4,31.4,18.9c14,16.3,24,35.7,35.8,53.6c10.2,15.5,21.6,30.4,35.1,43.2c25.1,23.9,57.5,38.7,92.6,33.5
			c39-5.8,71.8-32.1,96-61.9c28.4-34.9,46.8-76.5,71.1-114.1c22.8-35.2,61.5-81.2,109.1-72c23.3,4.5,41.5,22.4,57.1,39.3
			c13.7,14.8,25.5,31,36.2,48c18.3,28.9,33.9,62,67.6,75.2c35.8,14,74.5,9.1,111.5,16.3c19.3,3.8,36.9,14.1,54.8,21.9
			c20.4,8.8,41.2,17.8,62.4,24.5c18.9,6,39,9.2,58.4,3.4c15.6-4.7,30.6-12.6,45-20.1c15.5-8,30.9-16.5,45.4-26.1
			c6.6-4.4,12.8-9.3,19.7-13.3c4.9-2.9,10.5-4.2,15.5-6.7c15-7.5,23.8-24.2,35-36c12.1-12.8,25-25.1,37.5-37.4
			c4.3-4.2,10.9-4.3,16.3-6.9c7-3.4,13.2-8.3,19.1-13.2c16.6-13.8,31.2-30.2,49.2-42.2c15.5-10.3,33.2-17.8,51.3-22.3
			c0.9-0.2,0.5-1.7-0.4-1.4c-17.2,4.4-34,11.4-49.1,20.8c-15.9,10.1-29.3,23.8-43.2,36.3c-7.4,6.6-15,13.4-23.6,18.5
			c-3.1,1.8-6.4,3.6-9.9,4.6c-2.4,0.7-6,0.2-8.1,1.5c-3,1.8-5.7,6.8-8.1,9.4c-2.7,2.9-5.5,5.6-8.3,8.4c-6.5,6.2-13.3,12.2-19.6,18.6
			c-12.6,12.7-22.5,31.9-38.9,40c-4.4,2.2-9.3,3.3-13.7,5.7c-7.6,4.1-14.4,9.6-21.6,14.4c-14.6,9.6-29.9,18.1-45.4,26.1
			c-15.6,8.1-32.3,17.4-49.6,21.2c-24.7,5.5-49.6-3-72.5-12c-21.3-8.4-42.4-17-63.1-26.6c-15.9-7.3-30.6-12.8-48.1-14.7
			c-19.3-2.1-38.8-2.4-58.1-4.9c-18.2-2.4-37-6.4-53-15.9c-18.1-10.8-29-29.8-40.1-47.2c-20.7-32.5-41.1-65.1-71.2-90
			c-13.8-11.4-30-19.9-48.2-19.6c-18.3,0.3-35.8,8.4-50.4,19.1c-33.1,24.4-53.4,62.3-73.3,97.2c-22.9,40.2-46.6,81.7-85.1,109
			C880.3-46.6,836-38,797.1-59.5c-36-19.9-57.5-55-78.7-88.7c-9.9-15.7-20.4-34-37.2-43.1c-17.3-9.4-33.1-7.2-50.3,0.9
			c-17.8,8.4-33.5,19.7-48,32.9c-16.9,15.3-32,33.1-50.9,46c-19.8,13.6-39.4,15.3-60.8,4.1c-18.9-9.8-34.2-25.3-52.5-36.1
			c-15-8.8-32.7-16.4-50.4-13c-15,2.9-26.2,13-37.3,22.8c-16.2,14.3-32.9,24-55.4,20.2c-23.7-4.1-42.1-18.7-57.4-36.6
			c-27.7-32.4-52.9-67-81.3-98.8c-25.5-28.6-53.3-60.4-89-76.4c-15-6.7-30.8-9.5-47.1-7.8C-0.2-332.9-0.2-331.4,0.7-331.5L0.7-331.5
			z"/>
		
			<linearGradient id="Path_30_" gradientUnits="userSpaceOnUse" x1="660.903" y1="125.0001" x2="661.903" y2="125.0001" gradientTransform="matrix(1918.4479 0 0 -278.243 -1267907.875 34599.9375)">
			<stop  offset="0" style="stop-color:#CC6900"/>
			<stop  offset="6.960000e-02" style="stop-color:#D56E00"/>
			<stop  offset="0.185" style="stop-color:#EF7B00"/>
			<stop  offset="0.2466" style="stop-color:#FF8300"/>
			<stop  offset="0.5996" style="stop-color:#FF8300"/>
			<stop  offset="0.9007" style="stop-color:#5C0F8B"/>
			<stop  offset="0.9944" style="stop-color:#490870"/>
		</linearGradient>
		<path id="Path_7_" class="st7" d="M0.7-317.7c43-3.8,77.9,22.5,107.9,50.2c30.7,28.4,56.8,60.4,85.1,91.1
			c26.5,28.7,52.2,65.4,96.3,63c34.6-1.9,52.4-41.6,88.4-38.3c42.4,3.9,68,46.7,109.2,52.8c36.1,5.4,65.2-33.4,89.2-54.2
			c16.7-14.5,35-26.3,55.7-34.1c25.9-9.8,48.2,3.2,63.7,24c22.8,30.7,38.9,65.3,67.9,91.1C789.7-49.1,822-36.6,856.4-43
			c38.7-7.1,70.8-33.9,94.6-64c26.9-34,44.8-73.8,68.1-110.1c22.1-34.5,57.1-76.6,102.7-73.2c24.2,1.8,43.4,19,59.6,35.6
			c14.1,14.4,26.6,30.3,38.1,46.8c19.1,27.4,36.2,60.3,68.2,74.1c15.7,6.8,32.8,9.8,49.8,11.1c18.8,1.4,37.7-1.2,56.4,0.4
			c18.7,1.6,35.4,9.3,52.8,15.7c20.4,7.6,41.1,14.5,61.8,21.4c19.3,6.4,39.7,11.7,60.3,9c16.7-2.2,32.9-9.9,48.3-16.5
			c16-6.9,31.7-14.3,47-22.6c6.7-3.6,13.1-7.7,19.7-11.4c6.1-3.4,12.3-4.7,18.8-7c14.3-5.1,22.9-19.2,33.1-29.5
			c12.8-12.7,27.4-23.9,41.3-35.3c5.4-4.5,11-2.7,17.5-4.4c7.9-2,15.1-6.2,21.8-10.6c16.8-11,31.5-25.2,49-35.1
			c16.4-9.3,34.5-15.4,52.4-20.9c0.9-0.3,0.5-1.7-0.4-1.4c-16.2,5-32.4,10.4-47.5,18.2c-18,9.2-32.9,23-49.3,34.6
			c-7.4,5.2-15.3,10.4-24.1,13.1c-5.4,1.7-10.7,0.1-15.8,1.3c-1.7,0.4,0.3,0.1-2.7,2.2c-6.5,4.5-12.3,11-18.6,15.9
			c-7.7,6.1-15.3,12.2-22.4,19c-12.5,12-21.8,27.9-39.3,32.7c-13.3,3.7-24.4,11.9-36.5,18.4c-15.5,8.3-31.4,15.7-47.6,22.6
			c-18.7,8-38.1,16.5-58.8,15.9c-23.6-0.6-46-9.7-68.1-17.3c-19-6.6-38-13-56.8-20.2c-16.7-6.4-32.8-10.2-50.8-9.7
			c-19.1,0.5-37.9,1.2-56.9-1.7c-17.5-2.6-35.2-7.8-49.8-18c-16.7-11.6-28-30.4-39.4-46.9c-20.9-30.3-42.3-61.5-71.8-84.2
			c-14.5-11.2-31.5-18.4-50-16.6c-17.2,1.6-33.3,9.6-46.9,20c-31.8,24.2-51.5,60.9-70.8,94.9c-22.5,39.6-45.9,80.4-83.4,107.8
			c-34.5,25.2-78.8,35.4-118,14.9c-35.3-18.4-57.5-52.2-78-85c-9.1-14.5-18.8-32.3-32.9-42.5c-14.8-10.8-32-13.5-49.1-7
			c-16.8,6.4-32.2,15.1-46.3,26.2c-16.5,12.9-30.7,28.4-46.9,41.7c-17.7,14.5-37.2,25.4-60.5,18.2c-20.3-6.3-36.3-20.9-54-32
			c-15.4-9.6-33.5-19.4-52.3-18.8c-14.2,0.4-26,7.4-37,15.9c-15.3,11.8-29.7,23.4-50.3,22.6c-25.7-0.9-47.4-15.2-64.4-33.5
			c-28.5-30.6-54.1-63.9-83.4-93.8c-25.5-26-53.6-54.6-87.7-69.2c-15.5-6.6-31.8-9.4-48.7-7.9C-0.2-319.1-0.2-317.6,0.7-317.7
			L0.7-317.7z"/>
		
			<linearGradient id="Path_31_" gradientUnits="userSpaceOnUse" x1="660.903" y1="125.0157" x2="661.903" y2="125.0157" gradientTransform="matrix(1918.4414 0 0 -268.3594 -1267903.625 33377.6797)">
			<stop  offset="0" style="stop-color:#CC6900"/>
			<stop  offset="6.960000e-02" style="stop-color:#D56E00"/>
			<stop  offset="0.185" style="stop-color:#EF7B00"/>
			<stop  offset="0.2466" style="stop-color:#FF8300"/>
			<stop  offset="0.5996" style="stop-color:#FF8300"/>
			<stop  offset="0.9007" style="stop-color:#5C0F8B"/>
			<stop  offset="0.9944" style="stop-color:#490870"/>
		</linearGradient>
		<path id="Path_8_" class="st8" d="M0.7-303.8c41.5-3.1,75.7,19,106.5,44.4c30.9,25.4,57.2,54.3,85.2,82.7
			c26.4,26.7,49.4,58,90.1,61.1c16.6,1.3,30.6-4.8,44.1-13.9c14.5-9.8,28.5-19.6,47-18.3c42.4,2.9,70,45.2,111.8,48.9
			c16.3,1.4,31.3-7,44-16.4c17.2-12.8,32-28.5,49.1-41.4c16.7-12.5,37-24.4,57.8-28c25.4-4.4,44,14,57.4,33
			c21.3,30.4,38.1,63.4,67.2,87.6c25.8,21.5,57.9,31.8,91.2,24.7c36.9-7.9,67.6-33.3,90.8-62.1c26.4-33,44.3-71.7,66.6-107.3
			c21.7-34.6,54.5-76.2,99.5-76.4c23.8-0.1,43,14.5,59.3,30.2c15,14.4,28.5,30.3,41,46.7c20.4,26.7,39.3,59.7,71.5,73.3
			c32.5,13.6,65.6,9.4,99.6,8.3c18.8-0.6,35.5,4.7,53.2,10c19.4,5.8,39,10.6,58.4,16.5c19.5,5.9,39.4,12.2,60,12.4
			c18.3,0.2,35.6-6,52.6-12c15.9-5.6,31.7-11.6,47.2-18.4c14.2-6.2,27.1-13.8,42.3-16.8c14.9-2.9,23.7-15.1,34.3-24.9
			c13.1-12.1,29.1-23.4,44.5-32.5c6.3-3.7,12.6-0.6,19.7-1.2c7.6-0.6,14.9-3.3,21.8-6.6c17.8-8.5,33.2-21.2,51.1-29.5
			c16.9-7.8,34.9-12.5,52.3-18.9c0.9-0.3,0.5-1.8-0.4-1.4c-16.1,5.9-32.8,10.4-48.6,17.2c-17.6,7.6-32.8,19.5-49.7,28.5
			c-8.9,4.8-18.8,9.2-29.1,9.3c-4.1,0-9.3-2.5-13.1-2.2c-2.5,0.2-4.8,3.5-6.9,5c-13.3,9.7-27.7,17.9-40.1,28.8
			c-7.9,7-14.5,15.6-23.2,21.5c-5.7,3.9-11.5,4.8-18.1,6.1c-13.6,2.5-26.2,11.3-38.8,16.7C1614.8-104,1574.2-85,1535.1-91
			c-22.1-3.4-43.1-11.5-64.6-17.2c-17.3-4.6-34.4-9.5-51.5-14.7c-35-10.8-71.2,0.1-107-5.4c-17.2-2.6-34.5-8-48.7-18.4
			c-16.6-12.1-29-31.1-41.2-47.3c-21.5-28.7-44.1-60.1-74.4-80.3c-30.6-20.4-65.1-13-92.8,8.7c-31.5,24.7-50.7,61.6-70.1,95.7
			c-22,38.6-45.2,78.2-81.8,104.9c-33.4,24.4-76.6,35.1-115.3,16.5c-34.3-16.5-57.5-48.6-77.1-80c-16.6-26.5-38.5-65.4-76.2-57.6
			c-39.5,8.2-67.5,37.9-97.2,62.5c-17.1,14.1-36.5,27-59.6,21.8c-21.1-4.7-38-18.7-56.3-29.3c-15.3-9-32.9-18.4-51.2-18.4
			c-15.4,0-28.1,7.4-40.4,15.9c-16.8,11.5-33.1,19.2-54.1,15.6c-23.8-4-42.4-17.5-58.6-34.6c-27.1-28.5-53.1-59-82.5-85.3
			c-25.4-22.7-52.8-47.3-84.9-59.9c-15.8-6.2-32.3-8.7-49.2-7.4C-0.2-305.3-0.2-303.8,0.7-303.8L0.7-303.8z"/>
		
			<linearGradient id="Path_32_" gradientUnits="userSpaceOnUse" x1="660.903" y1="125.0325" x2="661.903" y2="125.0325" gradientTransform="matrix(1918.4113 0 0 -258.5178 -1267883.75 32160.6172)">
			<stop  offset="0" style="stop-color:#CC6900"/>
			<stop  offset="6.960000e-02" style="stop-color:#D56E00"/>
			<stop  offset="0.185" style="stop-color:#EF7B00"/>
			<stop  offset="0.2466" style="stop-color:#FF8300"/>
			<stop  offset="0.5996" style="stop-color:#FF8300"/>
			<stop  offset="0.9007" style="stop-color:#5C0F8B"/>
			<stop  offset="0.9944" style="stop-color:#490870"/>
		</linearGradient>
		<path id="Path_9_" class="st9" d="M0.7-290c40.4-2.5,74.2,16.3,105.9,39.3c15.7,11.3,31.1,22.8,45.3,35.9
			c14.7,13.7,28.9,28,43.5,41.7c13.9,13.1,26.2,28.2,42.1,39c14.7,10,33.1,16.4,51,16.4c15.1,0,28-6.4,40.7-13.8
			c18.3-10.7,35.5-15.9,56.6-9.3c20.3,6.4,38,18.4,56.5,28.4c13.9,7.6,30.2,14.5,46.4,12.8c15.7-1.6,29.5-11,41.7-20.4
			c16.6-12.8,31.5-27.6,49.3-39c16-10.3,37.9-21.4,57.4-21.1c25.4,0.3,41.3,20.5,54.2,39.6c20.2,29.9,37.7,61.3,66.7,83.8
			c25.9,20.1,57.8,28.2,90,20.4C884.3-45,914.3-70.2,937-99c26.2-33.2,44-71.8,66.4-107.4c21.1-33.4,52.6-72.3,95.8-73.9
			c23.6-0.9,43,12.8,59.6,28.2c14.4,13.4,27.5,28.1,40,43.2c21.3,25.6,41.9,58.9,74.2,71.3c32.4,12.5,68.2,8.8,102.1,7.3
			c17.3-0.8,32.9,1.5,49.7,5.2c19.2,4.2,38.5,7.4,57.6,12.2c19.8,5,39.5,11,60,12.2c17.8,1,34.5-3.3,51.5-8
			c17.3-4.7,34.4-10,51.3-15.8c14.6-5.1,28-11.4,43.5-13c13.6-1.4,22.2-11,32.1-19.5c14.1-12,30.3-19.9,46.4-28.8
			c8-4.4,12.9,0,21.3,1.1c9.2,1.2,18.4-0.6,27.1-3.6c18.4-6.3,34.7-17.2,53-23.6c16.3-5.7,33.4-9.4,49.4-16.1
			c0.9-0.4,0.5-1.8-0.4-1.4c-16.5,6.8-34.1,10.6-50.8,16.6c-18.3,6.6-34.6,17.6-53.1,23.6c-10,3.3-20.7,4.7-31,1.9
			c-2.9-0.8-6.8-4.1-9.5-3.6c-2.7,0.5-6.7,3.8-9,5.1c-14.5,7.8-29,15.1-41.8,25.6c-7.4,6.1-13.9,13.7-22.6,18.1
			c-6.2,3.1-12.1,2.8-18.7,3.6c-14.3,1.8-28.9,10.1-42.6,14.7c-36.9,12.4-75.6,26.3-114.9,19.2c-21.2-3.8-41.8-10.6-62.9-14.8
			c-16.8-3.3-33.4-7-50.1-10.6c-16-3.4-32.5-2.1-48.7-1.2c-17.4,1-34.8,1.5-52.1-0.1c-18.2-1.7-37.1-5.8-52.5-16.1
			c-16.1-10.7-28.8-28-41-42.7c-23.3-28.2-46.7-60.7-78.1-80.4c-29.8-18.7-63.1-11.3-89.9,9.2c-31.7,24.3-50.9,61.4-70.2,95.3
			c-21.5,37.7-44.1,76.6-79.4,103.2C867.2-39,826.2-26.3,788-41c-36.3-14-61.7-47-81.8-78.9c-16.8-26.6-37.5-65.8-75-61.3
			c-36.2,4.3-65.3,29.8-91.9,52.1c-15.3,12.8-33.6,28-54.6,28.3c-21.4,0.2-40.3-12.1-58.1-22.3c-15.9-9.2-33.3-19-51.7-21.9
			c-14.3-2.2-27.6,1.6-40,8.5c-16.1,8.8-30.5,18.2-49.7,17.2c-24.3-1.2-45.8-13.1-63.2-29.5c-28.7-27-55.1-57-85.9-81.8
			c-25.5-20.5-53.7-42.2-84.6-53.6c-16.4-6-33.4-8.4-50.8-7.3C-0.2-291.4-0.2-289.9,0.7-290L0.7-290z"/>
		
			<linearGradient id="Path_33_" gradientUnits="userSpaceOnUse" x1="660.903" y1="125.0507" x2="661.903" y2="125.0507" gradientTransform="matrix(1918.457 0 0 -248.6171 -1267914 30936.2207)">
			<stop  offset="0" style="stop-color:#CC6900"/>
			<stop  offset="6.960000e-02" style="stop-color:#D56E00"/>
			<stop  offset="0.185" style="stop-color:#EF7B00"/>
			<stop  offset="0.2466" style="stop-color:#FF8300"/>
			<stop  offset="0.5996" style="stop-color:#FF8300"/>
			<stop  offset="0.9007" style="stop-color:#5C0F8B"/>
			<stop  offset="0.9944" style="stop-color:#490870"/>
		</linearGradient>
		<path id="Path_10_" class="st10" d="M0.7-276.1c38.9-2,72.1,13.5,104.4,33.5c16.1,10,32,19.8,46.6,31.9
			c15.2,12.7,29.9,26.1,44.7,39.2c13.6,12,25.8,25.8,41.1,35.7c14.7,9.5,32.6,15.5,50.1,16c15.4,0.4,28.7-5.5,42.3-11.9
			c20.4-9.6,38.9-10.7,60.2-2.5c31.7,12.2,67,43.4,103.3,32.2c15.7-4.9,29.1-15.5,41.8-25.7c16.3-13,32.2-26.4,51.3-35.2
			c20.9-9.7,45.2-16.6,66.7-5.1c19.1,10.3,30.6,31.6,41.9,49.3C713-90.9,732.7-62.9,761.2-45c28.6,18,62.8,20.3,94.2,8.4
			c33.9-12.9,60.9-38.9,81.9-68c24.6-34.1,41.9-72.7,65.5-107.5c21.8-32.2,57.1-69,100-62.5c22.5,3.4,40.2,19.2,55.9,34.5
			c13.9,13.5,26.8,28,39.6,42.5c22.3,25.1,44.3,53.3,78.2,61.9c34.4,8.7,69.2,2.5,103.9,0.4c14.8-0.9,28.9,1.4,43.5,3.4
			c19.7,2.6,39.4,4.7,58.8,9c19.3,4.2,38.6,9.2,58.5,9.9c17.5,0.6,34.7-3.4,51.7-7.1c16.9-3.6,33.8-7.5,50.5-12
			c7-1.9,13.9-4.1,20.9-5.9c7.2-1.9,13.5-1.3,20.8-1.8c15.6-1,26.5-14.4,38.8-22.3c8.3-5.3,17.3-9.6,26.4-13.4
			c3.3-1.3,6.6-2.6,10-3.9c6.3-2.4,8.7-2.9,15.2-0.2c15.4,6.3,29.4,7.4,45.5,3.1c17.5-4.6,33.9-12.4,51.4-17
			c15.3-4,31.2-7,45.6-13.8c0.9-0.4,0.1-1.7-0.8-1.3c-16,7.5-33.9,10.4-50.9,15.2c-17.5,4.8-33.8,13.3-51.7,16.9
			c-10.3,2.1-20.9,2.1-31-1.3c-3.8-1.3-9.9-6.1-13.9-6.7c-1.9-0.3-5.8,2.1-7.5,2.8c-15.1,5.8-30,11.9-43.3,21.1
			c-7.5,5.2-14.2,12.1-22.5,16.2c-7.5,3.7-14.3,2.5-22.2,2.9c-13.3,0.7-27.2,7-40.1,10.2c-37.5,9.5-76.4,20.7-115.3,14.3
			c-20.4-3.3-40.3-9.3-60.8-12.1c-16-2.2-32-4-48-6.3c-32.6-4.8-65.1,3.7-97.9,2.7c-18.5-0.5-37.5-3.1-54.3-11.3
			c-17.2-8.4-30.5-24-43.3-37.8c-25.1-27.1-48.1-58-78.3-79.8c-29-20.9-62.2-18.4-91,1.6c-30.6,21.3-49.9,55.1-68,86.8
			c-21,37-41.8,75.4-73.6,104.3c-29.6,26.9-70.6,45.5-111,35.7c-37.2-9-64.7-39.3-85.4-69.8c-18.2-26.6-34.5-66.3-70-72.6
			c-15.9-2.9-33.9,3.5-48.3,9.7c-16.4,7.1-30.8,17.5-44.7,28.7c-15.6,12.6-31.7,27.3-51.2,33.5c-20.9,6.6-42.4-2.6-60.8-12
			c-30.9-15.9-62.5-35.3-97.3-20.2c-16.7,7.3-31.5,15.6-50.5,14.2c-23.2-1.7-44-12.1-61.2-27.2c-28.5-24.9-54.9-52.8-85.7-75
			c-26.1-18.8-56-37.8-86.7-47.6c-16.3-5.2-33.1-7.2-50.2-6.3C-0.2-277.6-0.2-276.1,0.7-276.1L0.7-276.1z"/>
		
			<linearGradient id="Path_34_" gradientUnits="userSpaceOnUse" x1="660.903" y1="125.0532" x2="661.903" y2="125.0532" gradientTransform="matrix(1918.4623 0 0 -247.2813 -1267917.5 30775.1133)">
			<stop  offset="0" style="stop-color:#CC6900"/>
			<stop  offset="6.960000e-02" style="stop-color:#D56E00"/>
			<stop  offset="0.185" style="stop-color:#EF7B00"/>
			<stop  offset="0.2466" style="stop-color:#FF8300"/>
			<stop  offset="0.5996" style="stop-color:#FF8300"/>
			<stop  offset="0.9007" style="stop-color:#5C0F8B"/>
			<stop  offset="0.9944" style="stop-color:#490870"/>
		</linearGradient>
		<path id="Path_11_" class="st11" d="M0.7-262.3c38.5-1.5,71.8,11.8,105.4,29.1c15,7.7,29.8,14.9,43.4,24.9
			c16.1,11.8,31.5,24.7,47,37.3c14.6,11.8,27.6,25.7,44,35.1c15.1,8.7,33.6,14.1,51,14c15.9,0,29.6-6.7,44.5-11.4
			c23-7.2,43.7-0.7,64.9,8.8c30.2,13.4,62.9,34,96.3,18.7c16.9-7.8,31.1-20.3,45.9-31.5c16.4-12.4,33.9-22.7,54-27.9
			c23.2-6,44.7-5.2,62.8,12.4c14.4,14,24.4,32.9,35.4,49.6c17.9,27.1,39.9,54.1,69.7,68.6c68.6,33.2,135.8-21.4,172.3-75.8
			c22.1-32.9,38.6-69.3,61.4-101.7c23.5-33.3,63.8-70.2,108.1-54.5c20.1,7.1,36.2,23.1,51,37.8c13.1,13,25.7,26.6,38.6,39.9
			c12.6,12.9,25.6,26,39.9,36.9c12.6,9.5,27.8,14.6,43.3,17c34.6,5.4,67.9-2.7,102.3-5.6c13.9-1.2,28.4-0.9,42.4-1.1
			c20-0.2,38.9,7.5,58.4,11.4c19.5,3.9,39.4,6.2,59.3,5.4c17.3-0.6,34.6-3.6,51.7-6.2c17.3-2.6,34.5-5.3,51.7-8.6
			c7.8-1.5,16-4,24-3.4c6,0.4,11.3,1.8,17.3,0.6c6.7-1.4,12.5-5.2,18.1-9c9.3-6.4,18.9-12,29.5-16.1c8-3.1,16.2-5.4,24.6-7.3
			c9.7-2.2,16.3,5.2,24.9,8.7c29.9,12.3,61.8-1.9,91.5-7.8c14.6-2.9,29.8-5.5,43.1-12.4c0.8-0.4,0.1-1.7-0.8-1.3
			c-15.2,8-33.1,10.3-49.8,13.7c-16,3.2-31.6,8.7-47.9,10.7c-9.1,1.1-18.3,0.9-27.2-1.4c-4.9-1.3-9.7-3.2-14.2-5.6
			c-3.7-1.9-8.3-6.8-12.1-7.7c-4.2-1-13.3,2.9-17.3,4c-7.8,2.1-15.4,4.8-22.7,8.1c-15.8,7.2-30.3,23.8-48.7,22.5
			c-6-0.4-11.2-1.4-17.2-0.5c-8.5,1.2-17,3.2-25.5,4.7c-36.6,6.5-75,14.6-112.4,12.7c-21.2-1.1-42.2-5.1-62.7-10.6
			c-16.5-4.5-30.9-6.4-48-5.4c-14.5,0.9-28.5,0-43,1.9c-17.9,2.4-35.6,5.3-53.7,5.9c-18.3,0.6-37-0.5-54.5-6.3
			c-18.8-6.2-32.9-19.4-47-32.8c-27.2-25.8-50.8-56-80.4-79.2c-12.2-9.5-26.2-17.2-41.9-18.5c-16.9-1.4-33.7,4.2-48,12.9
			c-31.1,18.9-51,51.3-68.6,82.1c-20.4,35.6-39.6,72.8-68.3,102.5c-27.1,28-64.3,50.1-104.5,47.6c-39.7-2.4-70.4-30-93.3-60.3
			c-11.1-14.8-20.4-30.8-30.9-45.9c-9.6-13.8-19.6-26.6-35.3-33.7c-15-6.7-30.2-4.3-45.7-0.3c-17.9,4.7-34.2,13.3-49.2,24.2
			c-14.7,10.7-28.4,23.1-44.4,31.9c-19.9,11.1-40.2,10.5-61.3,2.7c-33.5-12.3-66.3-38.4-103.7-27.7c-17.5,5-32.9,13.2-51.7,11.9
			c-22.6-1.5-43.7-10.8-61.2-24.8c-29-23.2-55.8-50-87.4-69.8c-13.7-8.6-28.8-15.4-43.2-22.6c-13.8-6.9-28-13.1-42.9-17.3
			c-16.6-4.7-33.6-6.4-50.9-5.7C-0.2-263.8-0.2-262.3,0.7-262.3L0.7-262.3z"/>
		
			<linearGradient id="Path_35_" gradientUnits="userSpaceOnUse" x1="660.903" y1="125.0549" x2="661.903" y2="125.0549" gradientTransform="matrix(1918.4681 0 0 -246.4328 -1267921.375 30674.1406)">
			<stop  offset="0" style="stop-color:#CC6900"/>
			<stop  offset="6.960000e-02" style="stop-color:#D56E00"/>
			<stop  offset="0.185" style="stop-color:#EF7B00"/>
			<stop  offset="0.2466" style="stop-color:#FF8300"/>
			<stop  offset="0.5996" style="stop-color:#FF8300"/>
			<stop  offset="0.9007" style="stop-color:#5C0F8B"/>
			<stop  offset="0.9944" style="stop-color:#490870"/>
		</linearGradient>
		<path id="Path_12_" class="st12" d="M0.7-248.5c37.4-1,70.6,9.9,104.8,23.7c16.7,6.7,32.7,13,47.8,23.1c17.3,11.5,34.4,24,50.6,37
			c14.4,11.5,28,23.7,45.1,31.1c16.1,7,35.1,11.1,52.7,9.3c16.3-1.6,31.6-8.7,48-9.1c21.2-0.5,40.8,9.6,59.8,17.6
			c16.3,6.8,32.7,14,50.6,15.3c17.1,1.2,31.7-4.4,46-13.5c16.2-10.2,30.6-23.2,47.2-32.8c17.9-10.3,39.2-17.4,60.1-17.5
			c43.6-0.4,63.3,51.3,85.3,80.9c18.8,25.2,42.5,49.4,73.4,58.7c74,22.3,134.7-42.8,169.2-99.3c21.1-34.6,38.1-72.8,65.3-103.2
			c13.4-14.9,29.8-27.9,49.1-34.3c21.6-7.1,43-3.1,61.8,9.5c31.9,21.3,56.4,53.2,85.2,78.3c12.9,11.2,26.4,23.4,42.4,30
			c13.9,5.8,29.2,8.1,44.2,8.5c34.9,1.1,68.5-8.6,102.9-12c14.5-1.4,28.4-4.7,43.1-2.9c19.5,2.4,38.5,7.8,58.1,10.3
			c21.1,2.6,41.9,2.7,63.1,1.7c17.1-0.9,34.1-0.1,51.2-0.9c6.9-0.3,13.8-0.8,20.6-2c8.2-1.4,16.3-6.2,24.5-6.6
			c7.4-0.3,14.3,3.1,21.6,3.8c5.7,0.5,11.1-0.6,16.3-2.8c9.3-4,17.5-10.1,26.9-14c8.9-3.7,18.1-6.4,27.6-7.9
			c4.1-0.6,10.2-2.1,14.6-1.5c4.1,0.6,7.4,4.1,10.6,6.4c6.7,4.7,13.8,8.8,21.5,11.6c26.9,9.9,56.8,2,84.1-2
			c14.3-2.1,29.4-4.3,42-11.7c0.8-0.5,0.1-1.8-0.8-1.3c-15.2,8.9-34.1,10.6-51.2,12.8c-13.8,1.8-27.7,4.8-41.7,5.3
			c-18.2,0.7-35.4-4.1-50.5-14.2c-7.1-4.7-8.7-8.9-16.7-8.4c-7.5,0.5-15,1.6-22.3,3.4c-8.3,2-16.4,5-24.1,8.7
			c-9.2,4.5-17.8,11.7-28,13.7c-13.8,2.7-25.7-6.3-39.6-1.1c-16.6,6.2-34.2,6.6-51.7,6.7c-17.1,0.2-34,0.9-51.1,1.4
			c-22.7,0.6-45.5-1.8-67.9-5.7c-17-3-34-8.4-51.4-7.8c-13.3,0.5-26.8,3.1-40,4.7c-16.1,2-31.9,5.6-47.9,8
			c-37.9,5.6-77.8,5.4-109.4-18.9c-30.1-23.1-55.3-51.3-83.2-76.8c-12.4-11.3-25.7-22.5-41.8-28c-15.7-5.4-32.4-4-47.7,2
			c-32.9,12.9-55.4,42.4-73.2,71.6C938-124.6,900.5-34.5,814.3-23.1c-39.4,5.2-73.3-14.1-99-42.6c-12.4-13.7-22.7-29-32.7-44.4
			c-9.3-14.2-18.6-30.6-31.9-41.5c-26.8-22.1-63.6-14.4-92.2,0.4c-34.7,18-61.5,54.6-104.4,48.4c-37.4-5.4-69.7-35.1-108.5-31.9
			c-15.9,1.3-30.7,8.1-46.7,9.1c-22,1.3-45.9-5.8-64.4-17.6c-15.9-10.2-29.8-23.3-45.1-34.4c-15.9-11.6-31.4-24-48.5-33.7
			c-13-7.3-27.5-12-41.3-17.6C84-235.1,68.3-241.1,51.9-245c-16.8-4-33.9-5.4-51.2-5C-0.2-249.9-0.2-248.4,0.7-248.5L0.7-248.5z"/>
		
			<linearGradient id="Path_36_" gradientUnits="userSpaceOnUse" x1="660.903" y1="125.0571" x2="661.903" y2="125.0571" gradientTransform="matrix(1918.4467 0 0 -245.2884 -1267907.125 30536.0938)">
			<stop  offset="0" style="stop-color:#CC6900"/>
			<stop  offset="6.960000e-02" style="stop-color:#D56E00"/>
			<stop  offset="0.185" style="stop-color:#EF7B00"/>
			<stop  offset="0.2466" style="stop-color:#FF8300"/>
			<stop  offset="0.5996" style="stop-color:#FF8300"/>
			<stop  offset="0.9007" style="stop-color:#5C0F8B"/>
			<stop  offset="0.9944" style="stop-color:#490870"/>
		</linearGradient>
		<path id="Path_13_" class="st13" d="M0.7-234.6c35.7-0.5,68.5,7.8,102.4,17.7c17.2,5,33.4,9.2,49.1,18.2
			c16.1,9.3,31.8,19.8,47,30.6c15.8,11.2,30.4,24.1,48.4,31.8c16.5,7.1,35.9,11.2,53.9,10.6c17.6-0.6,34.6-6,52.4-4
			c20.1,2.2,38.8,12.2,57.5,19.1c17.8,6.5,36.2,11.9,55.4,9.9c15-1.6,28.3-9.3,40.7-17.5c17.4-11.6,33.6-25,53.3-32.8
			c17.7-7,41.1-11.8,59.8-6.3c22.7,6.7,36,26.3,48.5,44.9c9.4,14,18.3,28.2,28.8,41.4c20.1,25.2,46,47.7,78.8,53.2
			C852.3-5.2,907-73.1,940.8-130.6c20.1-34.1,37.2-71.7,65.9-99.7c14.5-14.1,32.7-25.7,52.9-29.1c23-3.8,43.4,6,60.9,20.1
			c28.5,23,52.9,50.5,82.2,72.6c13.4,10.1,27,19.9,43.3,24.7c15.9,4.7,32.8,5.6,49.3,4.7c32-1.7,62.6-11.8,94.1-16.7
			c14.7-2.3,27.9-7,43.1-5.8c20.1,1.6,40,5.1,60.1,6.7c20.3,1.6,40.7,2.5,61,3.9c18,1.2,36,3,54.1,2.6c7-0.1,14-0.6,20.9-1.8
			c10.5-1.9,17.9-4.6,28.6-1.1c14.5,4.8,24.4,4.2,38.3-2.6c9.9-4.8,20.1-8.7,30.9-10.9c8.5-1.7,21-4,29.6-1.4
			c8,2.4,15.3,11.6,22.4,16.4c6.6,4.4,13.7,8.1,21.2,10.8c25.4,9.3,55.2,5.8,81.5,2.8c12.8-1.5,26-3.7,37.1-10.7
			c0.8-0.5,0.1-1.8-0.8-1.3c-14.2,9-32.4,10.5-48.8,11.7c-13.6,1-27.5,2.3-41.2,1.6c-15.8-0.8-30.9-5.5-44.4-13.7
			c-5-3-9.7-6.4-14.2-10c-2.9-2.4-6.3-6.6-9.6-8.4c-4.9-2.6-15.3-1.2-20.6-0.8c-17.7,1.4-32.8,8.1-48.7,15.2
			c-9.9,4.4-18.6,4.6-28.7,1.3c-6.8-2.2-13.1-4.7-20.4-3.4c-7.8,1.4-14.9,3.8-23,4.5c-8.9,0.7-17.9,0.6-26.9,0.2
			c-17.7-0.7-35.4-2.3-53.1-3.3c-21-1.1-42-2.5-62.9-4.6c-18.7-1.8-38.1-6.8-56.9-5.1c-12,1.1-23.7,4.9-35.7,6.6
			c-15,2.1-29.6,6.5-44.4,9.8c-35,7.7-77,12.2-109.6-6.1c-32.8-18.3-60-46.7-87.2-72.2c-24.6-23-52.2-45.5-87.9-36.5
			c-33.6,8.4-58,36.2-76.2,64C934.8-131,903.7-43,820.5-21.5c-39.4,10.2-76.3-3.7-104.5-31.6c-25.8-25.5-40.7-58.7-64.5-85.7
			c-23.7-26.8-59.9-26-91.1-13.7c-34.6,13.6-61.4,49.9-100.6,50.6c-39.7,0.8-72.1-27.7-110.9-29.8c-17.1-0.9-33.6,4.4-50.7,4.5
			c-21.8,0.1-45.4-6.5-64-17.7c-16.7-10.1-31.8-22.9-48-33.8c-15.1-10.1-30.1-20.7-46.6-28.4c-13.4-6.2-28.3-9-42.4-13.2
			c-15.1-4.5-30.1-8.9-45.6-11.8c-16.8-3.1-33.8-4.3-50.8-4.1C-0.2-236.1-0.2-234.6,0.7-234.6L0.7-234.6z"/>
		
			<linearGradient id="Path_37_" gradientUnits="userSpaceOnUse" x1="660.903" y1="125.0586" x2="661.903" y2="125.0586" gradientTransform="matrix(1918.4492 0 0 -244.5184 -1267908.875 30444.6191)">
			<stop  offset="0" style="stop-color:#CC6900"/>
			<stop  offset="6.960000e-02" style="stop-color:#D56E00"/>
			<stop  offset="0.185" style="stop-color:#EF7B00"/>
			<stop  offset="0.2466" style="stop-color:#FF8300"/>
			<stop  offset="0.5996" style="stop-color:#FF8300"/>
			<stop  offset="0.9007" style="stop-color:#5C0F8B"/>
			<stop  offset="0.9944" style="stop-color:#490870"/>
		</linearGradient>
		<path id="Path_14_" class="st14" d="M0.7-220.8c35.3-0.1,68.8,6.6,103.3,12.7c17.8,3.1,33.2,5.5,49.6,13.8
			c17.5,8.9,34.7,19.1,50.9,30.1c14.9,10.1,29.3,20.8,46.3,27.1c17.7,6.6,37.4,10.2,56.3,10.1c18.6-0.1,36.5-2,54.8,3
			c19.6,5.4,37.9,14.6,57.6,19.8c16,4.2,33.4,6.1,49.6,2c16.1-4,30.2-14,43.7-23.1c17.7-11.9,35.4-23.2,56.6-27.3
			c21.6-4.3,44.3-3.2,62.6,9.9c17.1,12.3,28.1,32.3,39.6,49.6c9.3,13.9,19.1,27.5,30.5,39.7c21.7,23.3,49.4,40.6,82.1,41.2
			c76.2,1.2,124.1-69.3,157.4-128c19.4-34.1,37.8-72.2,70.1-96.2c16.4-12.1,36.8-20.7,57.5-18.5c21.6,2.3,39.2,16.3,54.9,30.2
			c27.2,24,53.2,48.7,84.3,67.8c29.3,18,61.3,21,95,16.2c30.3-4.4,59.5-15,89.3-21.7c16.4-3.6,33-6.8,49.8-7.6
			c19.9-0.9,39.7,1.7,59.4,4.3c19.4,2.5,38.9,4.4,58.3,7c17.6,2.3,35.3,5.1,53.1,4.9c8.1-0.1,16.7-2.6,24.7-2.3
			c9.1,0.4,16.7,6.3,25.4,8.3c15.9,3.6,30.2-6.1,45.2-9.8c9.9-2.4,20.1-3.7,30.3-2.9c6.7,0.5,12.7,1.2,18.2,5.5
			c4.1,3.2,7.6,7.2,11.5,10.5c10.9,9.1,23,16.9,36.3,22c23.4,9,52,12.1,76.8,9.6c12.6-1.3,25.7-4,36.2-11.3c0.8-0.5,0-1.8-0.8-1.3
			c-24.6,17.1-61,12.9-88.9,7.8c-13.5-2.5-26.5-6.8-38.5-13.6c-8.1-4.7-15.7-10.2-22.7-16.4c-6.8-5.9-10.1-11.2-19.1-13
			c-16.7-3.3-34-0.7-50,4.6c-9,3-17.4,7.7-27.1,7.7c-9,0-16.1-4.7-24.4-7.4c-6.2-2-11.2-1.7-17.5-0.8c-9.2,1.4-18.4,1.5-27.7,0.9
			c-18.6-1.1-36.9-4.2-55.4-6.3c-38.4-4.3-78.1-12.9-116.7-8.4c-27,3.2-53.6,9.7-79.7,17.3c-35.5,10.3-74.2,18.8-110.8,8.8
			c-18.2-5-34.3-16.1-49.4-26.9c-15.7-11.2-30.3-23.8-44.6-36.7c-24.3-21.9-50.6-50.8-86.3-48.7c-33.2,2-60.3,26.1-79.3,51.6
			c-46.3,62-69.6,146.9-146,180.7c-36.3,16-76.2,13.4-108.4-10.4c-30.4-22.5-48.3-55.7-70.1-85.7c-9.7-13.4-20.8-25.3-36.4-31.6
			c-15.2-6.2-33.6-5.2-49.4-2.1c-18,3.5-33.7,12-48.9,22c-15.8,10.5-31.6,22.9-50.1,28.1c-42.2,11.7-78.2-16.9-118-23.6
			c-16.6-2.8-33-0.4-49.6-0.8c-21.4-0.5-44.7-5.8-63.8-15.5c-16.7-8.5-31.3-20.7-47.4-30.3c-15.3-9.2-30.6-18.9-47-26
			c-14.8-6.4-30.6-7.5-46.3-10.4c-15.2-2.8-30.4-6-45.8-8.2c-17.1-2.4-34.2-3.4-51.5-3.4C-0.2-222.3-0.2-220.8,0.7-220.8L0.7-220.8z
			"/>
		
			<linearGradient id="Path_38_" gradientUnits="userSpaceOnUse" x1="660.903" y1="125.0602" x2="661.903" y2="125.0602" gradientTransform="matrix(1918.4309 0 0 -243.7213 -1267896.75 30349.8711)">
			<stop  offset="0" style="stop-color:#CC6900"/>
			<stop  offset="6.960000e-02" style="stop-color:#D56E00"/>
			<stop  offset="0.185" style="stop-color:#EF7B00"/>
			<stop  offset="0.2466" style="stop-color:#FF8300"/>
			<stop  offset="0.5996" style="stop-color:#FF8300"/>
			<stop  offset="0.9007" style="stop-color:#5C0F8B"/>
			<stop  offset="0.9944" style="stop-color:#490870"/>
		</linearGradient>
		<path id="Path_15_" class="st15" d="M0.7-206.9c34.1,0.2,68.5-0.5,102.4,4.4c37,5.4,71.8,19.9,103.5,39.6
			c16.2,10,32,20.4,50.5,25.7c17.2,4.9,34.8,8.4,52.6,9.8c20,1.6,39.2,3.4,58.2,10.3c18.9,6.8,37.4,14.5,57.4,17
			c16.4,2.1,33.5,0.8,48.8-5.7c16.4-6.9,30.8-18,46-27.2c36.3-22,87-27.7,117.6,7c24.5,27.8,39.9,61.8,67.6,87.2
			c23.5,21.6,53,33.8,85.2,30.2c76-8.5,118.3-81.1,152-141.3c18.9-33.8,39.4-70.8,74.7-89.9c19.2-10.4,41.1-13.9,61.8-5.6
			c19.1,7.6,34.4,22.5,49.6,35.9c26.2,23.2,54.6,45.9,86.8,60.3c29.6,13.2,64.5,10.7,95.4,3.5c28.5-6.6,55.8-18.3,83.8-26.6
			c16.6-4.9,34.1-8.8,51.5-9c19.6-0.2,39,3,58.4,5.4c38.8,4.9,77.6,7.2,116.1,14.3c7.5,1.4,15.3,2.5,22.5,5.3
			c7.3,2.8,13.4,6.9,21.3,7.9c8.4,1.1,16-1.5,23.9-3.8c11-3.2,22.5-5.3,34-5.2c12.9,0.1,24,2.7,33.7,11.5
			c7.2,6.6,13.8,13.8,21.3,20.1c10.3,8.5,21.4,16,33.7,21.5c22,9.8,47.9,12.7,71.8,11.3c12.3-0.7,25.2-2.9,35.3-10.4
			c0.8-0.6,0-1.9-0.8-1.3c-13.1,9.8-31,10.7-46.7,10.4c-13-0.2-26.3-1.5-39-4.6c-30.9-7.4-55.7-27.9-77.1-50.7
			c-9.9-10.5-30.7-10.1-43.9-8.6c-8.9,1-17.6,3.2-26.3,5.7c-12.5,3.7-22.8,3.4-34.5-2.3c-14.3-6.9-30.6-8.7-46.2-11.3
			c-17.2-2.8-34.6-5.2-51.9-6.9c-19.3-1.9-38.6-3.3-57.8-5.8c-19.5-2.6-39.4-5.3-59.1-3.5c-26.2,2.5-52.3,11.5-77.1,20.2
			c-34.2,12.1-69.3,23.2-106.2,20c-38.6-3.4-72.7-27.7-101.9-51.5c-25.5-20.8-50.8-52.3-85.2-57.5c-32.8-4.9-63.2,15.9-83.5,39.6
			c-24.6,28.5-40.3,63.4-59.5,95.5c-20.8,34.6-45.6,68.4-81.2,88.9C806.5-7.9,765.7-2.7,731-22c-32.3-17.9-52.9-49.8-73.1-79.5
			c-9.9-14.6-19.9-29.6-34.9-39.5c-14.4-9.5-30.7-11.8-47.8-11.4c-17.2,0.5-33.7,5.5-48.8,13.8c-16.1,8.9-30.7,20.5-47.2,28.6
			c-20.4,10-43.1,10.9-65.1,6.2c-19.2-4.2-36.8-12.7-55.6-18.2c-17-5.1-34.3-5.8-51.9-7.3c-19.5-1.7-40.2-5.6-58.6-12.6
			c-19.4-7.4-35.9-20.4-54-30.3c-16.5-9-33.8-17-51.7-23.1c-28-9.6-58.4-11.9-87.8-12.7c-17.9-0.5-35.9-0.4-53.8-0.5
			C-0.2-208.4-0.2-206.9,0.7-206.9L0.7-206.9z"/>
		
			<linearGradient id="Path_39_" gradientUnits="userSpaceOnUse" x1="660.903" y1="125.0623" x2="661.903" y2="125.0623" gradientTransform="matrix(1918.5151 0 0 -242.6858 -1267952.375 30225.541)">
			<stop  offset="0" style="stop-color:#CC6900"/>
			<stop  offset="6.960000e-02" style="stop-color:#D56E00"/>
			<stop  offset="0.185" style="stop-color:#EF7B00"/>
			<stop  offset="0.2466" style="stop-color:#FF8300"/>
			<stop  offset="0.5996" style="stop-color:#FF8300"/>
			<stop  offset="0.9007" style="stop-color:#5C0F8B"/>
			<stop  offset="0.9944" style="stop-color:#490870"/>
		</linearGradient>
		<path id="Path_16_" class="st16" d="M0.7-193.1c32.8,0.6,65.8,3.7,98.6,1.7c7.7-0.5,15.3-1.6,22.9-2.1c10-0.7,19.8,1.9,29.2,5.1
			c19.5,6.7,38.7,16.1,56.7,26.2c16.3,9.2,32.2,18.5,50.4,23.2c18.5,4.7,37,8.8,55.7,12.3c18.8,3.4,36.8,8.2,54.7,15
			c17.4,6.6,35,12.6,53.7,13.6c17.1,0.9,34.5-2.1,50-9.5c17.4-8.3,32.7-20.3,49.9-28.9c21.1-10.7,43.7-12.9,66.7-8.6
			c21.7,4,37.8,18.2,50.5,35.5c21.2,28.6,38.7,60.2,67.1,82.7c25,19.7,55.8,27.5,87,21c76.9-16,114.3-92.5,149.8-154.3
			c19.7-34.2,44.8-71.4,85.2-82.3c44.5-12,75.5,25,106.8,49.8c26.1,20.7,57.3,41.9,90.3,48.8c34.6,7.3,71.2-0.1,103.7-12.4
			c26-9.8,51.1-22.8,78-30.3c40.6-11.3,80.9-2.3,121.9,2.5c20.3,2.4,40.5,6.2,60.4,10.9c18.7,4.4,37.7,8.6,54.5,18
			c31.4,17.4,67.1-12.9,98.5,7.3c15.6,10.1,29.1,24.9,43.3,36.8c10,8.3,20.2,16.6,31.3,23.5c20.4,12.6,45,16.9,68.8,15.4
			c11.4-0.7,22.9-3.1,32-10.4c0.7-0.6-0.3-1.7-1.1-1.1c-13.1,10.6-32.2,10.9-48.3,9.8c-13.4-1-26.9-3.2-39.2-8.8
			c-26.1-12-47.7-33.8-69.1-52.3c-11.9-10.3-21.8-19.3-38.1-21.2c-16.6-1.9-32.2,2.9-48.4,5.4c-19.5,3-34.4-10.2-52.2-15.5
			c-18-5.3-36.4-9.7-54.9-13.3c-18.2-3.5-36.5-5.6-54.8-8c-20.2-2.6-40.4-6.1-60.9-6.4c-30.4-0.5-57.5,10.2-85.1,21.3
			c-33.6,13.5-66.1,27.9-102.8,29.9c-39.8,2.2-74.2-13.9-106.4-35.9c-16.1-11-30.8-23.7-45.6-36.3c-12.3-10.4-25.1-21-40.3-26.9
			c-31.7-12.3-65.1,2.8-88.2,25.2c-27.3,26.5-43.5,62-62.3,94.4c-20.4,35.3-43.9,70.8-78.3,93.9c-31.1,20.9-71.2,31-107.1,16.6
			c-35.9-14.4-59.3-47.7-80.2-78.4c-9.9-14.6-19.7-30.4-33.8-41.4c-12.6-9.9-26.3-14.5-42.1-16.3c-17.7-2-35.3,0.3-51.6,7.5
			c-17.2,7.6-32.1,19.2-48.6,28.1c-18.9,10.3-39.8,14.6-61.3,12.5c-21.1-2.1-39.9-10.4-59.6-17.4c-35.2-12.3-73.2-13.8-108.5-25.8
			c-19.9-6.8-37.1-19-55.8-28.2c-16.4-8.1-33.3-16.5-51.1-21.1c-15.1-3.9-29.4-1-44.7-0.2c-14.7,0.8-29.4,0.5-44.1,0
			c-17.7-0.6-35.4-1.4-53.2-1.8C-0.2-194.6-0.2-193.1,0.7-193.1L0.7-193.1z"/>
		
			<linearGradient id="Path_40_" gradientUnits="userSpaceOnUse" x1="660.903" y1="125.0645" x2="661.903" y2="125.0645" gradientTransform="matrix(1918.4756 0 0 -241.5967 -1267926.25 30094.627)">
			<stop  offset="0" style="stop-color:#CC6900"/>
			<stop  offset="6.960000e-02" style="stop-color:#D56E00"/>
			<stop  offset="0.185" style="stop-color:#EF7B00"/>
			<stop  offset="0.2466" style="stop-color:#FF8300"/>
			<stop  offset="0.5996" style="stop-color:#FF8300"/>
			<stop  offset="0.9007" style="stop-color:#5C0F8B"/>
			<stop  offset="0.9944" style="stop-color:#490870"/>
		</linearGradient>
		<path id="Path_17_" class="st17" d="M0.7-179.3c31.1,1,62.4,2.4,93.2-2.7c18.5-3.1,34.4-8.7,53.3-4.3
			c20.8,4.9,41.3,13.9,60.3,23.5c17.1,8.6,33.6,17.2,52.3,21.7c19.3,4.6,38.5,10,57.4,15.8c35.6,10.9,70.6,31.7,108.9,28.6
			c16.5-1.3,32.3-6.3,46.8-14.1c18-9.6,34.5-22.4,53.9-29.1c20.3-7.1,43.3-5.9,63.5,1.1c21.7,7.5,36.1,24.8,48.9,43
			c19.6,27.7,37.9,57.5,66.2,77.3c27.1,19,60.1,23.4,91.6,13.9C873.4-27.5,905.6-105.7,943.4-168c20.4-33.6,50.7-70.5,93.4-72.3
			c23.3-0.9,42.6,11.7,60,25.7c14.6,11.8,28.7,24.1,44.3,34.6c28.4,19.1,61.5,35.6,96.2,37.1c36.4,1.6,71.3-9.8,103.8-25.2
			c25.3-12.1,49.2-26.7,76.7-33.5c20.1-5,41.3-3.6,61.7-1c21.4,2.6,43,5.8,64.1,10.4c20,4.4,39.7,10.1,59,17
			c8.7,3.1,17.6,6.2,25.8,10.6c7.1,3.7,13.3,9,20.9,11.9c16.1,6.1,33.4,0.5,50,0c8.5-0.2,17.1,0.3,25.3,2.8
			c11.8,3.7,19.6,11.7,28.2,20.1c21,20.5,41.6,42.8,65.9,59.4c19.6,13.4,43.3,19.5,67,18.7c11.6-0.4,23.5-2.7,32.5-10.5
			c0.7-0.6-0.3-1.7-1.1-1.1c-12.7,11-31.6,11.2-47.4,9.5c-13.4-1.4-26.8-4.6-38.8-10.8c-24.5-12.7-44.4-34.2-63.9-53.2
			c-11.3-11-22.2-25.2-36.9-31.5c-15.3-6.6-32.8-5.2-49-3.4c-8.8,1-17.4,2.4-26.2,0.3c-9.8-2.4-17.1-8.8-25.8-13.4
			c-15.5-8.1-33-13.4-49.8-18.5c-37.3-11.3-76.8-18.5-115.6-21.4c-33-2.5-63,5.3-92.1,20.5c-28.4,14.9-57.4,29.7-89,36.6
			c-20.4,4.4-41.8,6-62.5,2.4c-19-3.3-37.2-11.5-54.1-20.5c-17-9-32.8-20-47.8-32c-14.8-11.9-28.8-25.5-45.8-34.5
			c-29.4-15.5-61.5-7.8-86.9,11.9c-29.3,22.7-46.4,57.1-64.1,88.8c-20,35.8-41.7,72.4-73.8,98.7c-30.1,24.7-71.1,40-109.9,29.2
			c-37.4-10.4-63.1-42.7-84.2-73.3c-20.2-29.2-38.6-58-75.6-65.8c-17.1-3.6-34.9-3.5-51.5,2.3c-17,5.9-31.9,16.4-47.3,25.4
			c-18.4,10.7-38.1,17.7-59.6,18.1c-20.3,0.4-38.9-5.8-57.5-13.2c-36.3-14.4-73.8-22.5-111-33.9c-38.6-11.8-71.7-38.8-112.5-44.5
			c-14.3-2-27.4,2.8-41.4,5.4c-14.8,2.7-29.7,3.9-44.7,4.2c-17.3,0.3-34.5-0.3-51.8-0.9C-0.2-180.8-0.2-179.3,0.7-179.3L0.7-179.3z"
			/>
		
			<linearGradient id="Path_41_" gradientUnits="userSpaceOnUse" x1="660.903" y1="125.0649" x2="661.903" y2="125.0649" gradientTransform="matrix(1918.4784 0 0 -241.3666 -1267928.125 30070.3457)">
			<stop  offset="0" style="stop-color:#CC6900"/>
			<stop  offset="6.960000e-02" style="stop-color:#D56E00"/>
			<stop  offset="0.185" style="stop-color:#EF7B00"/>
			<stop  offset="0.2466" style="stop-color:#FF8300"/>
			<stop  offset="0.5996" style="stop-color:#FF8300"/>
			<stop  offset="0.9007" style="stop-color:#5C0F8B"/>
			<stop  offset="0.9944" style="stop-color:#490870"/>
		</linearGradient>
		<path id="Path_18_" class="st18" d="M0.7-165.4c30.9,1.3,61.6,1.5,91.6-7.1c16-4.6,30.8-12.7,47.9-11.2
			c22.5,1.9,45.2,11.1,65.6,20c17.8,7.8,34.9,15.9,53.8,20.3c20.3,4.7,39.8,11.7,58.9,20c32.3,14,65,33.2,101.5,28.6
			c18.2-2.3,35.3-9.1,51.2-18.1c17.4-9.9,34.5-22.2,54.3-26.9c22.1-5.3,46.5-1.5,66.4,9.4c20.3,11.1,33.4,29.6,46.3,48.1
			c19.1,27.4,38.8,56.5,68.4,73.6c29.3,17,63.9,16.8,94.8,4.3c75-30.2,101.2-110.3,142.9-172.2c22.3-33.1,60.2-68.1,103.7-56.6
			c21.2,5.6,38.1,21.1,54.7,34.5c14,11.3,28.7,21.6,44.6,30.2c31.9,17.1,66.3,27.6,102.8,24c35.2-3.5,67.9-17.4,98-35.3
			c26.6-15.8,52.2-33,83.9-36.2c21.3-2.1,42.9,0.8,63.9,4.5c20.6,3.6,40.8,8.2,60.6,14.7c19.2,6.3,38,13.9,56,23.2
			c15.6,8,27.4,19.2,45.1,22.4c16.1,2.9,32.4,1.8,48.7,3.7c9.8,1.1,19.2,3.7,27.2,9.6c9,6.6,16.1,16.1,23.7,24.3
			c35.4,38.3,72,84.2,129.2,82.9c11.5-0.3,23.2-2.7,31.9-10.7c0.7-0.7-0.3-1.7-1.1-1.1c-21.5,19.8-63,9.7-85.5-3.5
			c-23.7-13.9-42.8-35.7-61.4-55.6c-6.4-6.9-12.8-13.8-19.2-20.7c-5.9-6.4-11.6-13.7-19-18.5c-12.2-7.8-26.9-8.7-41-9.1
			c-18.2-0.6-38.7-0.5-54.8-10.3c-7.8-4.8-14.8-10.4-23-14.6c-8.1-4.2-16.4-7.9-24.7-11.5c-36.3-15.3-74.6-25-113.7-29.9
			c-18.5-2.3-37.6-3.2-55.9,0.7c-15.2,3.3-30.5,9.8-44,17.5c-26,14.7-49.9,31.5-78.4,41.5c-38.5,13.6-78.3,15.1-116.8,0.9
			c-18.9-7-36.8-16.3-53.5-27.5c-15.7-10.6-29.7-23.4-45-34.6c-14.3-10.4-30.2-18.7-48.3-19.1c-15.9-0.3-31.6,5.3-45,13.6
			c-31,19.1-49.7,51.9-66.9,82.9c-20.2,36.5-40.8,74.1-71.6,103C820.8-10.5,780.9,8.5,740.8,2c-39-6.3-66.7-36.7-88.7-67.2
			c-20.7-28.7-38.4-60.8-74-72.7c-16.9-5.7-33.8-7.4-51.4-3.7c-17.9,3.8-33.6,14.2-49.1,23.3c-18.9,11.1-38.9,20.4-61.1,22.4
			c-21.1,1.9-40.5-4.1-59.6-12.3c-16.9-7.3-33.7-15.2-50.8-22c-18.6-7.4-37.5-11.7-56.6-17.3c-37.4-11-71-35.1-110.9-37.9
			c-15.5-1.1-28.7,5.9-43.3,10.3c-14,4.3-28.4,7-43,8.1c-17.2,1.3-34.5,0.7-51.7,0C-0.2-167-0.2-165.5,0.7-165.4L0.7-165.4z"/>
		
			<linearGradient id="Path_42_" gradientUnits="userSpaceOnUse" x1="660.903" y1="125.0662" x2="661.903" y2="125.0662" gradientTransform="matrix(1918.4841 0 0 -240.7488 -1267931.875 29998.1445)">
			<stop  offset="0" style="stop-color:#CC6900"/>
			<stop  offset="6.960000e-02" style="stop-color:#D56E00"/>
			<stop  offset="0.185" style="stop-color:#EF7B00"/>
			<stop  offset="0.2466" style="stop-color:#FF8300"/>
			<stop  offset="0.5996" style="stop-color:#FF8300"/>
			<stop  offset="0.9007" style="stop-color:#5C0F8B"/>
			<stop  offset="0.9944" style="stop-color:#490870"/>
		</linearGradient>
		<path id="Path_19_" class="st19" d="M0.7-151.6c31.1,1.7,60.9,0.7,90-11.3c16-6.6,30.5-17.1,48.3-17.1c21.5,0,43.6,7.5,63.6,15
			c20.1,7.5,39.4,15.2,60.4,20c20.3,4.7,39,14.1,57,24.3c31.9,17.9,64.2,35.9,101.9,26.6c17.8-4.4,34-12.8,49.7-22.1
			c18.4-10.7,37.1-22.4,58.9-23.8c21.4-1.4,44,6.2,61.5,18.5c18.9,13.4,31.6,32.9,44.8,51.6c19.7,28.1,41.9,57.6,74.5,71.4
			c30.7,13,65.6,7.9,94.7-6.9C839.7-22.5,864.7-52,885-83.3c22.2-34.3,38.1-73.4,64.1-105.1c27.6-33.6,70.8-55,111.8-31.1
			c17.4,10.1,32,24.3,48.6,35.7c15.2,10.5,31.5,19.2,48.7,25.8c35.2,13.6,71.4,16.9,108.2,7.9c31.5-7.8,60.3-23.6,86.3-42.8
			c26.9-19.9,55.6-35.6,90.1-36c43.2-0.5,88,12.9,126.9,30.9c19.2,8.9,38,19,54.5,32.2c12.2,9.8,24.4,15.2,40.1,16.2
			c18.1,1.2,37.3,0.8,53.9,9.2c18.1,9.1,30.3,28.9,43.2,43.9c32.8,38.5,68.6,86.4,124.4,86.5c11.8,0,23.8-2.4,32.5-10.9
			c0.7-0.7-0.4-1.7-1.1-1.1c-21.8,21.3-64.1,8.4-86.1-6.3c-21.9-14.6-39.5-35.7-56.6-55.4c-13.1-15.1-25.4-31.3-39.1-45.8
			c-10.7-11.3-24.8-17-40-19.3c-16-2.4-33.2-0.3-48.7-5.5c-10.4-3.5-17.9-10.2-26.5-16.8c-7.2-5.5-15-10.1-22.8-14.6
			c-35.4-20-73.7-33.9-113.7-41c-18.3-3.2-37-5.1-55.5-3c-16.5,1.9-31.9,8-46.5,15.7c-23.5,12.2-43,30.5-66.4,43
			c-36.1,19.3-78.8,29.9-119.6,22.2c-41.3-7.8-76.5-28.9-109-54.5c-13.6-10.7-27.8-21.7-44.8-26.4c-15.5-4.3-31.8-2.5-46.6,3.5
			c-33.7,13.7-55.3,44.5-72.9,74.9c-20.8,36.2-39.3,74.1-67.6,105.4C827.8-15.9,791,7.3,749.9,7.6c-41.6,0.3-72.8-26.6-96.9-57.8
			c-22.8-29.4-40.6-65.6-76.2-81.7c-16.4-7.4-34.6-11.6-52.6-8.9c-16.8,2.5-31.8,10.8-46.3,19.2c-17.5,10.2-34.9,20.4-54.7,25.6
			c-22.6,6-44.3,2.7-65.4-6.7c-18.1-8.2-34.9-18.8-52.6-27.8c-17.4-8.9-35-13.7-53.8-18.6c-38.1-9.8-74.6-34-115.2-32.3
			c-15.3,0.6-27.7,9.3-41.3,15.3c-13.6,5.9-27.7,10.4-42.4,12.3c-17.1,2.3-34.4,1.7-51.6,0.8C-0.2-153.1-0.2-151.6,0.7-151.6
			L0.7-151.6z"/>
		
			<linearGradient id="Path_43_" gradientUnits="userSpaceOnUse" x1="660.903" y1="125.038" x2="661.903" y2="125.038" gradientTransform="matrix(1918.4659 0 0 -255.4393 -1267919.875 31825.2305)">
			<stop  offset="0" style="stop-color:#CC6900"/>
			<stop  offset="6.960000e-02" style="stop-color:#D56E00"/>
			<stop  offset="0.185" style="stop-color:#EF7B00"/>
			<stop  offset="0.2466" style="stop-color:#FF8300"/>
			<stop  offset="0.5996" style="stop-color:#FF8300"/>
			<stop  offset="0.9007" style="stop-color:#5C0F8B"/>
			<stop  offset="0.9944" style="stop-color:#490870"/>
		</linearGradient>
		<path id="Path_20_" class="st20" d="M0.7-137.7c29.8,2,58,0.2,85-13.5c14.9-7.6,29.2-21,45.8-24.2c21.1-4,44.1,2.4,64.2,8.4
			c20.1,5.9,39.6,14.1,60.2,18.4c21.8,4.5,40.1,14,58.4,26.5c31.6,21.5,63.3,42.1,102.8,29.9c38.1-11.8,70.3-47.8,112-46
			c48.9,2.1,77.7,41.3,103.6,77.5C652.1-34,674-6,705.6,6.6c31.2,12.5,66.3,6.6,95.4-8.7c34.9-18.4,60.2-50.2,80.8-83.1
			c21.8-34.9,37.6-74.8,65.8-105.4c13.8-15,31.2-27.4,51.2-32.5c23.2-5.9,44.5,1.3,63.7,14.4c17,11.6,32.4,25.3,50.4,35.6
			c16.1,9.2,33.4,16.3,51.3,21.1c36.5,9.8,74.1,8.3,109.8-4.2c29.7-10.5,55.2-28,78.9-48.4c28.4-24.5,62.6-38.6,100.4-35.9
			c44.2,3.2,87.3,20.3,125,43c8.2,4.9,16.3,10.2,24,15.9c9.2,6.8,17.1,15.3,26.5,21.6c13.2,8.8,28.1,10.9,43.5,13
			c18.6,2.5,37.5,5.8,52,18.7c14.9,13.2,26.2,31.7,38.5,47.2c31.4,39.5,67.4,92,123.7,92.5c11.7,0.1,23.5-2.5,31.8-11.1
			c0.7-0.7-0.4-1.8-1.1-1.1c-21.6,22.4-64.2,7.6-85.6-8c-21.7-15.8-39-37.6-55.7-58.3c-12.3-15.1-24.3-30.5-36.3-45.8
			c-10.4-13.2-20.8-23.9-37.1-29.4c-15.4-5.3-31.8-5.6-47.6-8.6c-21.2-4-33.9-18.5-50.4-30.8c-32.6-24.2-70.4-42.9-109.8-53
			c-36.9-9.4-73.7-11.5-108.4,6.1c-23.9,12.1-41.5,31.3-63.5,46.1c-34.5,23.1-74.9,37.3-116.7,35.9c-41.2-1.4-81.7-17.9-114.7-42.1
			c-29.2-21.4-57.2-46.1-95.8-34.7c-34.7,10.2-58.2,39.7-76,69.5c-22,36.9-40,76-68.3,108.8C824.9-14.9,789,9.5,747.8,11.8
			C707,14,675.3-9.5,650.7-39.8c-24.1-29.6-42-66.2-76.2-85.9c-15.6-9-33.5-15-51.6-14.1c-17.8,0.8-34,8.7-49.2,17.4
			c-18.5,10.6-36.3,22.3-56.8,28.6c-23.4,7.3-45.7,3.5-67.1-7.8c-17.4-9.2-32.7-21.5-49.5-31.6c-7.2-4.3-14.6-8.1-22.4-11.1
			c-10.3-4-21.1-5.4-31.8-8.2c-35.9-9.4-73.9-30.3-112.1-24.8c-15.7,2.3-28,13.2-41.4,20.8c-12.6,7.1-25.8,12.8-40,15.6
			c-17,3.4-34.5,2.8-51.8,1.7C-0.2-139.3-0.2-137.8,0.7-137.7L0.7-137.7z"/>
		
			<linearGradient id="Path_44_" gradientUnits="userSpaceOnUse" x1="660.903" y1="124.9871" x2="661.903" y2="124.9871" gradientTransform="matrix(1918.4545 0 0 -287.0314 -1267912.25 35763.8242)">
			<stop  offset="0" style="stop-color:#CC6900"/>
			<stop  offset="6.960000e-02" style="stop-color:#D56E00"/>
			<stop  offset="0.185" style="stop-color:#EF7B00"/>
			<stop  offset="0.2466" style="stop-color:#FF8300"/>
			<stop  offset="0.5996" style="stop-color:#FF8300"/>
			<stop  offset="0.9007" style="stop-color:#5C0F8B"/>
			<stop  offset="0.9944" style="stop-color:#490870"/>
		</linearGradient>
		<path id="Path_21_" class="st21" d="M0.7-123.9c28.9,2.2,55.9,0,81.1-15.4c14-8.5,26.2-21.5,40.8-28.9c19.4-9.7,44.4-4.9,64.5-0.5
			c20.9,4.6,41.1,11.8,62,16.3c11.1,2.4,21.6,4.1,32,9.2c10.1,5,19.2,11.7,27.9,18.7c29.3,23.3,58.9,48.5,98.7,35.9
			c39-12.3,70.5-50.5,113.7-48.2c47.8,2.6,78.2,44.4,103.6,79.6c19.7,27.3,41.9,56.1,74.5,68.6c32.5,12.4,68.9,5.2,98.4-11.6
			c34.5-19.6,59.4-52.3,79.6-85.7c22-36.2,38.3-78.5,69.9-107.8c16.3-15,37.6-26.6,60.2-26.9c23.6-0.3,43,13.2,61.2,26.7
			c32.9,24.5,67.8,41.7,109,46.6c37.4,4.5,76-3,109.5-20.1c15.4-7.9,30.1-17.7,43.1-29.1c8.8-7.7,16.6-16.6,25.5-24.2
			c14.2-12.1,32-23,49.9-28.3c21.2-6.4,44-5.2,65.5-0.8c43.5,9,84.2,31.1,118.8,58.5c15,11.9,27.3,27.7,44.6,36.2
			c13.7,6.7,29.1,8.5,43.8,11.8c20.3,4.6,37.3,13.1,50.3,29.9c12.7,16.6,24.7,33.7,37.3,50.4c29.8,39.7,65.1,94.1,120.8,94.9
			c11.6,0.2,23.2-2.6,31.2-11.3c0.6-0.7-0.4-1.8-1.1-1.1c-22.4,24.4-66.6,5.9-87.5-11.5c-21-17.4-37.8-39.8-54.3-61.4
			c-11.6-15.2-22.9-30.6-34.2-45.9c-10.8-14.7-20.6-29.1-37.5-37.4c-13.3-6.5-28.1-8.7-42.5-11.8c-20.7-4.4-35.9-12.8-51.1-27.5
			c-28.3-27.6-63.8-49.6-100.5-64c-34.5-13.4-75.8-22-111.5-8c-27,10.6-45.5,29.3-66.3,48.3c-30.1,27.4-68.9,45.7-109.3,50.8
			c-42.1,5.2-85.8-4.4-122.4-25.5c-32.5-18.7-60.5-53-101.7-46.9c-36.4,5.3-63,34.2-81.7,63.8c-23.2,36.7-40.4,76.8-68.1,110.8
			c-26.4,32.4-62.4,59-105.2,62.6c-42.3,3.6-75-20.5-100.4-51.8c-25-30.8-44-67.2-79-88.1c-14.8-8.8-31.6-14.9-49-14.3
			c-18,0.6-34.5,8.6-49.8,17.6c-18.8,11-37,24.1-57.9,30.7c-23.2,7.3-45.1,2-65.2-10.9c-17.3-11.1-31.8-26-49.1-37.1
			c-17.1-11-34.8-13.3-54.1-18.3c-20.6-5.3-40.7-12.1-61.6-15.8c-16.4-3-34.4-5.1-50.5,0.6c-14.6,5.2-26.2,18-39,26.6
			c-11.7,7.9-24.3,14.4-38.1,17.6c-16.1,3.7-32.7,3.2-49.1,2C-0.2-125.5-0.2-124,0.7-123.9L0.7-123.9z"/>
		
			<linearGradient id="Path_45_" gradientUnits="userSpaceOnUse" x1="660.903" y1="124.9446" x2="661.903" y2="124.9446" gradientTransform="matrix(1918.4268 0 0 -320.1511 -1267894 39894.1641)">
			<stop  offset="0" style="stop-color:#CC6900"/>
			<stop  offset="6.960000e-02" style="stop-color:#D56E00"/>
			<stop  offset="0.185" style="stop-color:#EF7B00"/>
			<stop  offset="0.2466" style="stop-color:#FF8300"/>
			<stop  offset="0.5996" style="stop-color:#FF8300"/>
			<stop  offset="0.9007" style="stop-color:#5C0F8B"/>
			<stop  offset="0.9944" style="stop-color:#490870"/>
		</linearGradient>
		<path id="Path_22_" class="st22" d="M0.7-110c16.6,1.5,33.7,1.9,49.8-2.9c13.2-3.9,24.9-11.3,35.6-19.8
			c14.5-11.5,27.3-28.7,45.3-34.7c18-6,38.4-3.3,56.7-0.1c18.5,3.2,36.6,8.2,54.9,12c17.2,3.6,32.3,5.9,46.9,16.6
			c25.5,18.5,45.6,50.2,78.3,56.6c33.5,6.6,62.2-18.5,88.7-34.8c16.4-10.1,34.3-18.8,54-18.3c23.7,0.6,44.9,13.5,62,28.9
			c31.2,28.1,49.9,66.8,79.9,96c28.1,27.4,64.4,38.7,102.9,29.1c40.3-10.1,71.9-38.7,96-71.5c27.7-37.9,44.1-83.2,73.5-119.8
			c14.8-18.4,34.1-34.1,57.3-40.2c24.7-6.4,46.6,1.6,67,15.4c17.6,11.9,33.9,25,53.5,33.9c17.5,8,36.3,13.3,55.3,15.9
			c38.2,5.2,77.9-0.5,112.9-17c17.4-8.2,33.9-19.2,48.2-32c10.2-9.1,18.4-20,28.1-29.6c29.3-28.9,67-43.9,107.9-37.4
			c41.3,6.6,79.9,28.3,112.5,53.9c15.7,12.3,28.8,26.6,43.1,40.3c12.5,12,28,19.1,44.5,23.9c17.1,5,35,8.4,50,18.7
			c20,13.9,32.3,38.3,46,57.9c19.6,28,39,56.7,61.9,82.1c18.3,20.3,39.7,36.7,67.9,39.7c13.3,1.4,27.7-0.6,36.9-11.2
			c0.6-0.7-0.4-1.8-1.1-1.1c-12.9,14.9-35.9,12.5-52.9,7.1c-15.2-4.8-27.8-13.5-39.1-24.5c-23.3-22.5-42-49.8-60.6-76.2
			c-13.4-18.9-25.9-38.5-39.8-57c-9.9-13.2-23-22.5-38.5-28.1c-16.9-6.2-35-8.6-51.3-16.6c-18.5-9-30.5-24.9-45.3-38.5
			c-28-25.9-60.7-47.9-96.4-61.6c-31.8-12.2-68.7-17.8-100.9-3.8c-15.8,6.9-31.1,17.4-43.6,29.2c-9.5,9-17.4,19.5-26.9,28.6
			c-31.8,30.2-74,48.9-117.6,52.7c-42.1,3.7-85.3-5.6-121.3-27.8c-18.1-11.2-33.9-26.1-53.4-34.7c-17-7.5-35.5-7.8-53-1.9
			c-40.6,13.8-63.8,52.3-83.2,88c-21.7,39.9-44,81-79.1,110.8c-35.2,29.9-87,46.4-130.4,24.2c-37.3-19.1-58.5-57.8-83.5-89.6
			c-22.9-29.2-56.3-60.8-96.5-57.6c-34.2,2.7-60,29.2-89.2,44.1c-17.1,8.8-36,13.1-54.7,6.3c-17.1-6.2-30.6-19.4-43.5-31.6
			c-11.5-10.9-23.2-22.4-37.4-29.7c-13.6-7-29.4-7.9-44.1-11.3c-31.8-7.2-69.1-20-101.7-10.7c-15.9,4.5-26.4,17.3-38.5,27.8
			c-12.5,10.8-25.8,21.1-41.6,26.5c-16.9,5.7-34.9,5.4-52.4,3.8C-0.2-111.6-0.2-110.1,0.7-110L0.7-110z"/>
	</g>
</g>
</svg>
