<?xml version="1.0" encoding="utf-8"?>
<!-- Generator: Adobe Illustrator 21.0.0, SVG Export Plug-In . SVG Version: 6.00 Build 0)  -->
<svg version="1.1" id="Layer_1" xmlns="http://www.w3.org/2000/svg" xmlns:xlink="http://www.w3.org/1999/xlink" x="0px" y="0px"
	 viewBox="0 0 290 100" style="enable-background:new 0 0 290 100;" xml:space="preserve">
<style type="text/css">
	.st0{fill:#555555;}
</style>
<g>
	<path class="st0" d="M58.6,46.1c-0.3-0.8-0.6-1.5-0.9-2.2c-6.5-16.5,3.6-23.9,4-24.2H54c-0.6,0.9-1.3,1.9-1.8,3.1
		c-1.9,4-3.5,10.4-1.2,19.1c2,3.8,4.2,9.1,6.5,15.7c3.6,10.6,6.3,21.3,6.7,22.7h0.9C67.8,69.1,62.2,54.9,58.6,46.1z"/>
	<path class="st0" d="M56.8,57.6c-2.3-6.6-4.4-11.9-6.5-15.7c0,0,0,0,0-0.1c-2-3.7-5.1-8.5-9.4-8.2c-4.3,0.3-7.1,5.5-9,17.1
		c1.3,2.7,2.5,6.3,3.6,11.1h0.8c0.7-7.3,1.6-13,2.6-17c1.1-3.9,2.1-5.1,2.4-5.4c0.8,0.4,4.3,3.1,10.3,21.1c2.8,8.3,5,16.5,5.8,19.8
		h0.8h5.1C63.2,78.9,60.4,68.2,56.8,57.6z"/>
	<path class="st0" d="M31.3,50.7c-1.9-3.7-4-5.5-6.6-5.6c0,0-0.1,0-0.1,0c-3.3,0-6.2,2.9-8.9,8.9c-1.7,3.8-2.7,7.6-2.8,7.7h6
		c0.4-1.2,1-3.1,1.8-4.9c2-4.7,3.5-5.8,3.8-6c0.4,0.3,2.3,2,4.5,10.9H30h5C33.8,57.1,32.6,53.4,31.3,50.7z"/>
	<g>
		<path class="st0" d="M75.9,37.5H72V37c0.4-0.2,0.8-0.3,1.3-0.4L77.7,25h0.5l4.4,11.6c0.2,0,0.5,0.1,0.7,0.2
			c0.2,0.1,0.4,0.1,0.6,0.3v0.5h-4.5V37c0.2-0.1,0.5-0.2,0.7-0.2c0.2-0.1,0.5-0.1,0.7-0.2l-1.2-3.2h-4.2l-1.2,3.2
			c0.5,0.1,1,0.2,1.5,0.4V37.5z M75.9,32.4h3.5l-1.4-3.7l-0.3-1.5h0l-0.4,1.5L75.9,32.4z"/>
		<path class="st0" d="M84.5,37.5V37c0.4-0.2,0.9-0.3,1.4-0.4V26.2c-0.3-0.1-0.5-0.1-0.8-0.2c-0.2-0.1-0.5-0.2-0.7-0.2v-0.5h1.8
			c0.2,0,0.4,0,0.7,0c0.3,0,0.5,0,0.8,0c0.3,0,0.6,0,0.8-0.1s0.5,0,0.7,0c2,0,3.5,0.5,4.6,1.6c1.1,1.1,1.6,2.6,1.6,4.5
			c0,0.9-0.1,1.8-0.4,2.6c-0.3,0.8-0.7,1.5-1.2,2c-0.5,0.6-1.2,1-2,1.4c-0.8,0.3-1.8,0.5-2.9,0.5c-0.2,0-0.4,0-0.6,0
			c-0.2,0-0.5,0-0.7-0.1c-0.2,0-0.5,0-0.7-0.1c-0.3,0-0.5,0-0.7,0H84.5z M89.1,26c-0.3,0-0.6,0-0.9,0c-0.3,0-0.5,0-0.7,0.1v10.6
			c0.1,0,0.2,0,0.3,0c0.2,0,0.3,0,0.5,0c0.2,0,0.3,0,0.5,0c0.2,0,0.3,0,0.3,0c0.8,0,1.5-0.2,2.1-0.5c0.6-0.3,1-0.7,1.4-1.2
			c0.4-0.5,0.6-1.1,0.8-1.8c0.2-0.7,0.2-1.4,0.2-2.1c0-0.6-0.1-1.2-0.2-1.8c-0.2-0.6-0.4-1.2-0.8-1.7c-0.4-0.5-0.8-0.9-1.4-1.3
			C90.7,26.1,90,26,89.1,26z"/>
		<path class="st0" d="M101.8,37.5h-4.5V37c0.5-0.2,0.9-0.4,1.4-0.4V26.2c-0.2,0-0.5-0.1-0.7-0.2c-0.2-0.1-0.5-0.2-0.7-0.3v-0.5h4.5
			v0.5c-0.2,0.1-0.4,0.2-0.7,0.3c-0.2,0.1-0.5,0.1-0.7,0.2v10.4c0.2,0,0.5,0.1,0.7,0.2c0.2,0.1,0.5,0.2,0.7,0.2V37.5z"/>
		<path class="st0" d="M110.6,37.5h-4.9V37c0.3-0.1,0.5-0.2,0.8-0.2c0.3-0.1,0.5-0.1,0.9-0.2V26.1h-2.7l-0.9,2.5h-0.4
			c0-0.2-0.1-0.5-0.1-0.8c0-0.3,0-0.6-0.1-0.9c0-0.3,0-0.6,0-0.9c0-0.3,0-0.6,0-0.8h10.2c0,0.2,0,0.5,0,0.8c0,0.3,0,0.6,0,0.9
			c0,0.3,0,0.6-0.1,0.9c0,0.3,0,0.6-0.1,0.8h-0.5l-0.9-2.5H109v10.5c0.3,0.1,0.6,0.1,0.9,0.2c0.3,0.1,0.5,0.1,0.8,0.2V37.5z"/>
		<path class="st0" d="M121,25.2h3.9v0.5c-0.4,0.2-0.9,0.4-1.3,0.4l-3.3,6.1v4.3c0.5,0.1,0.9,0.2,1.3,0.4v0.5h-4.5V37
			c0.4-0.2,0.9-0.4,1.4-0.4v-4.3l-3.5-6.1c-0.3,0-0.5-0.1-0.7-0.2c-0.2-0.1-0.5-0.2-0.7-0.3v-0.5h4.7v0.5c-0.2,0.1-0.4,0.1-0.6,0.2
			c-0.2,0.1-0.5,0.1-0.8,0.2l2.9,5.2l2.7-5.2c-0.3-0.1-0.5-0.1-0.8-0.2c-0.2-0.1-0.5-0.2-0.7-0.2V25.2z"/>
		<path class="st0" d="M127.2,37.5h-3.9V37c0.4-0.2,0.8-0.3,1.3-0.4L129,25h0.5l4.4,11.6c0.2,0,0.5,0.1,0.7,0.2
			c0.2,0.1,0.4,0.1,0.6,0.3v0.5h-4.5V37c0.2-0.1,0.5-0.2,0.7-0.2c0.2-0.1,0.5-0.1,0.7-0.2l-1.2-3.2h-4.2l-1.2,3.2
			c0.5,0.1,1,0.2,1.5,0.4V37.5z M127.1,32.4h3.5l-1.4-3.7l-0.3-1.5h0l-0.4,1.5L127.1,32.4z"/>
		<path class="st0" d="M86.7,55.1h-4.3v-0.5c0.2-0.1,0.5-0.2,0.7-0.2c0.2-0.1,0.5-0.1,0.7-0.2v-7.9l0.1-2.1h-0.1l-0.6,1.9l-3.6,9
			h-0.5l-3.4-9L75,44h-0.2l0,2.2v7.9c0.2,0,0.4,0.1,0.7,0.2c0.2,0.1,0.4,0.2,0.7,0.2v0.5h-3.7v-0.5c0.2-0.1,0.5-0.2,0.7-0.3
			c0.2-0.1,0.5-0.1,0.7-0.2V43.7c-0.2,0-0.5-0.1-0.7-0.2c-0.2-0.1-0.5-0.2-0.7-0.3v-0.5h3.6l3.1,8l0.6,1.8h0l0.6-1.8l3.2-8h3.1v0.5
			c-0.2,0.1-0.4,0.2-0.7,0.3c-0.2,0.1-0.5,0.1-0.7,0.2v10.4c0.2,0,0.5,0.1,0.7,0.2c0.2,0.1,0.4,0.1,0.6,0.2V55.1z"/>
		<path class="st0" d="M91.2,55.1h-3.9v-0.5c0.4-0.2,0.8-0.3,1.3-0.4L93,42.6h0.5l4.4,11.6c0.2,0,0.5,0.1,0.7,0.2
			c0.2,0.1,0.4,0.1,0.6,0.3v0.5h-4.5v-0.5c0.2-0.1,0.5-0.2,0.7-0.2c0.2-0.1,0.5-0.1,0.7-0.2L95,50.9h-4.2l-1.2,3.2
			c0.5,0.1,1,0.2,1.5,0.4V55.1z M91.2,50h3.5l-1.4-3.7L93,44.8h0l-0.4,1.5L91.2,50z"/>
		<path class="st0" d="M107.8,42.8h3.8v0.5c-0.5,0.3-1,0.6-1.4,0.7v11.3h-1l-6.4-9.7l-0.7-1.4h-0.1l0.2,1.4V54
			c0.5,0.1,0.9,0.3,1.4,0.6v0.5h-3.8v-0.5c0.2-0.1,0.4-0.2,0.7-0.3c0.2-0.1,0.5-0.2,0.8-0.3V43.9c-0.2-0.1-0.5-0.2-0.7-0.3
			c-0.2-0.1-0.4-0.2-0.6-0.3v-0.5h3l5.5,8.3l0.8,1.5h0.1l-0.1-1.5V44c-0.2-0.1-0.5-0.2-0.7-0.3c-0.2-0.1-0.4-0.2-0.6-0.4V42.8z"/>
		<path class="st0" d="M112.6,55.1v-0.5c0.4-0.2,0.9-0.3,1.4-0.4V43.7c-0.3-0.1-0.5-0.1-0.8-0.2c-0.2-0.1-0.5-0.2-0.7-0.2v-0.5h1.8
			c0.2,0,0.4,0,0.7,0c0.3,0,0.5,0,0.8,0c0.3,0,0.6,0,0.8-0.1c0.3,0,0.5,0,0.7,0c2,0,3.5,0.5,4.6,1.6c1.1,1.1,1.6,2.6,1.6,4.5
			c0,0.9-0.1,1.8-0.4,2.6s-0.7,1.5-1.2,2c-0.5,0.6-1.2,1-2,1.4c-0.8,0.3-1.8,0.5-2.9,0.5c-0.2,0-0.4,0-0.6,0c-0.2,0-0.5,0-0.7-0.1
			c-0.2,0-0.5,0-0.7-0.1c-0.3,0-0.5,0-0.7,0H112.6z M117.2,43.6c-0.3,0-0.6,0-0.9,0c-0.3,0-0.5,0-0.7,0.1v10.6c0.1,0,0.2,0,0.3,0
			c0.2,0,0.3,0,0.5,0c0.2,0,0.3,0,0.5,0c0.2,0,0.3,0,0.3,0c0.8,0,1.5-0.2,2.1-0.5c0.6-0.3,1-0.7,1.4-1.2c0.4-0.5,0.6-1.1,0.8-1.8
			c0.2-0.7,0.2-1.4,0.2-2.1c0-0.6-0.1-1.2-0.2-1.8c-0.2-0.6-0.4-1.2-0.8-1.7c-0.4-0.5-0.8-0.9-1.4-1.3
			C118.8,43.7,118.1,43.6,117.2,43.6z"/>
		<path class="st0" d="M129.9,55.1h-4.5v-0.5c0.5-0.2,0.9-0.4,1.4-0.4V43.7c-0.2,0-0.5-0.1-0.7-0.2c-0.2-0.1-0.5-0.2-0.7-0.3v-0.5
			h4.5v0.5c-0.2,0.1-0.4,0.2-0.7,0.3c-0.2,0.1-0.5,0.1-0.7,0.2v10.4c0.2,0,0.5,0.1,0.7,0.2c0.2,0.1,0.5,0.2,0.7,0.2V55.1z"/>
		<path class="st0" d="M134.4,54.1c0.3,0.1,0.5,0.1,0.8,0.2c0.2,0.1,0.5,0.1,0.7,0.2v0.5h-4.6v-0.5c0.3-0.1,0.5-0.2,0.7-0.3
			c0.2-0.1,0.5-0.1,0.7-0.2V43.7c-0.3-0.1-0.6-0.1-0.8-0.2c-0.2-0.1-0.4-0.2-0.6-0.2v-0.5h1.5c0.5,0,1,0,1.5-0.1
			c0.6,0,1.1-0.1,1.6-0.1c0.6,0,1.1,0.1,1.6,0.2c0.5,0.1,0.9,0.3,1.3,0.6c0.4,0.3,0.6,0.6,0.9,1.1c0.2,0.4,0.3,1,0.3,1.6
			c0,0.9-0.2,1.6-0.7,2.1s-1.1,1-1.8,1.2c0.5,0.8,1,1.6,1.6,2.4c0.6,0.8,1.1,1.6,1.7,2.3l1,0.5v0.4h-2.1l-0.7-0.5
			c-0.3-0.4-0.6-0.8-0.9-1.2c-0.3-0.4-0.5-0.8-0.8-1.2c-0.2-0.4-0.5-0.8-0.7-1.2c-0.2-0.4-0.4-0.9-0.6-1.3h-1.7V54.1z M135.6,43.6
			c-0.3,0-0.5,0-0.7,0c-0.2,0-0.3,0-0.5,0.1v5.2h1.3c0.8,0,1.4-0.3,1.9-0.8c0.5-0.5,0.7-1.2,0.7-2c0-0.9-0.3-1.5-0.8-1.9
			C137,43.8,136.4,43.6,135.6,43.6z"/>
		<path class="st0" d="M147.3,55.1h-4.5v-0.5c0.5-0.2,0.9-0.4,1.4-0.4V43.7c-0.2,0-0.5-0.1-0.7-0.2c-0.2-0.1-0.5-0.2-0.7-0.3v-0.5
			h4.5v0.5c-0.2,0.1-0.4,0.2-0.7,0.3c-0.2,0.1-0.5,0.1-0.7,0.2v10.4c0.2,0,0.5,0.1,0.7,0.2c0.2,0.1,0.5,0.2,0.7,0.2V55.1z"/>
		<path class="st0" d="M74.7,71.4c0.1,0.1,0.3,0.3,0.5,0.4c0.2,0.1,0.6,0.1,1,0.1c0.4,0,0.7,0,1.1-0.1c0.3-0.1,0.6-0.2,0.9-0.4
			c0.2-0.2,0.4-0.4,0.6-0.7c0.1-0.3,0.2-0.6,0.2-0.9c0-0.5-0.1-0.9-0.4-1.2c-0.3-0.3-0.6-0.6-1.1-0.8C77,67.4,76.5,67.2,76,67
			c-0.5-0.2-1-0.5-1.4-0.8c-0.4-0.3-0.8-0.7-1.1-1.2c-0.3-0.5-0.4-1-0.4-1.7c0-0.5,0.1-0.9,0.3-1.3c0.2-0.4,0.4-0.7,0.7-1
			c0.3-0.3,0.7-0.5,1.2-0.6c0.4-0.1,0.9-0.2,1.5-0.2c0.7,0,1.4,0.1,2,0.2c0.6,0.1,1.1,0.2,1.4,0.4c0,0.2,0,0.4,0,0.7
			c0,0.3-0.1,0.5-0.1,0.8c0,0.3-0.1,0.6-0.1,0.8c0,0.3-0.1,0.5-0.1,0.7h-0.5l-0.7-2.4c-0.2-0.1-0.5-0.2-0.8-0.2
			c-0.3,0-0.7-0.1-1-0.1c-0.6,0-1.1,0.2-1.5,0.5c-0.4,0.3-0.5,0.8-0.5,1.4c0,0.5,0.1,0.9,0.4,1.2c0.3,0.3,0.7,0.6,1.1,0.9
			c0.4,0.3,0.9,0.5,1.4,0.7c0.5,0.2,1,0.5,1.4,0.8s0.8,0.7,1.1,1.1c0.3,0.4,0.4,1,0.4,1.6c0,0.5-0.1,1-0.3,1.4
			c-0.2,0.4-0.5,0.8-0.8,1.1c-0.4,0.3-0.8,0.5-1.3,0.7c-0.5,0.2-1.1,0.2-1.8,0.2c-0.7,0-1.4-0.1-2-0.3c-0.6-0.2-1-0.4-1.2-0.6
			c0-0.2,0-0.4,0.1-0.7c0-0.3,0.1-0.6,0.1-0.9c0-0.3,0.1-0.6,0.1-0.9c0-0.3,0.1-0.5,0.1-0.7H74L74.7,71.4z"/>
		<path class="st0" d="M90.3,60.3c0,0.5,0,0.9-0.1,1.4c0,0.5-0.1,1-0.1,1.4h-0.5l-0.7-1.9h-3.8v4.7H88l0.7-1.3h0.4
			c0.1,1.2,0.1,2.3,0,3.5h-0.4L88,66.8h-2.9v4.9h4l0.9-2.1h0.4c0.1,0.5,0.1,1,0.2,1.5c0,0.5,0,1,0,1.5H82v-0.5
			c0.4-0.2,0.9-0.3,1.4-0.4V61.3c-0.2,0-0.5-0.1-0.7-0.2C82.4,61,82.2,61,82,60.9v-0.5H90.3z"/>
		<path class="st0" d="M92.4,60.3h4.5v0.5c-0.2,0.1-0.4,0.2-0.7,0.3c-0.2,0.1-0.5,0.1-0.7,0.2v9.8c0,0.8-0.1,1.5-0.3,2
			c-0.2,0.5-0.4,1-0.7,1.3c-0.3,0.3-0.6,0.6-0.9,0.7c-0.3,0.2-0.6,0.3-0.9,0.3l-0.2-0.3c0.2-0.2,0.3-0.3,0.5-0.5
			c0.1-0.2,0.3-0.4,0.4-0.7c0.1-0.3,0.2-0.7,0.3-1.1c0.1-0.4,0.1-0.9,0.1-1.5v-10c-0.3-0.1-0.5-0.1-0.8-0.2
			c-0.2-0.1-0.5-0.2-0.7-0.2V60.3z"/>
		<path class="st0" d="M101.6,72.6h-3.9v-0.5c0.4-0.2,0.8-0.3,1.3-0.4l4.4-11.6h0.5l4.4,11.6c0.2,0,0.5,0.1,0.7,0.2
			c0.2,0.1,0.4,0.1,0.6,0.3v0.5h-4.5v-0.5c0.2-0.1,0.5-0.2,0.7-0.2c0.2-0.1,0.5-0.1,0.7-0.2l-1.2-3.2h-4.2l-1.2,3.2
			c0.5,0.1,1,0.2,1.5,0.4V72.6z M101.6,67.6h3.5l-1.4-3.7l-0.3-1.5h0l-0.4,1.5L101.6,67.6z"/>
		<path class="st0" d="M114.6,72.6h-4.4v-0.5c0.5-0.2,0.9-0.3,1.4-0.4V61.3c-0.6-0.1-1-0.2-1.4-0.4v-0.5h4.4v0.5
			c-0.2,0.1-0.4,0.2-0.6,0.3c-0.2,0.1-0.5,0.1-0.7,0.2v4.6h5.5v-4.6c-0.2-0.1-0.5-0.1-0.7-0.2c-0.2-0.1-0.4-0.2-0.6-0.2v-0.5h4.4
			v0.5c-0.2,0.1-0.4,0.2-0.7,0.3c-0.3,0.1-0.5,0.1-0.7,0.2v10.4c0.3,0,0.5,0.1,0.8,0.2c0.2,0.1,0.5,0.2,0.7,0.2v0.5h-4.4v-0.5
			c0.4-0.2,0.9-0.3,1.3-0.4v-4.9h-5.5v4.9c0.2,0,0.5,0.1,0.7,0.2c0.2,0.1,0.4,0.2,0.6,0.2V72.6z"/>
		<path class="st0" d="M130.4,72.6h-4.9v-0.5c0.3-0.1,0.5-0.2,0.8-0.2c0.3-0.1,0.5-0.1,0.9-0.2V61.3h-2.7l-0.9,2.5H123
			c0-0.2-0.1-0.5-0.1-0.8c0-0.3,0-0.6-0.1-0.9c0-0.3,0-0.6,0-0.9c0-0.3,0-0.6,0-0.8H133c0,0.2,0,0.5,0,0.8c0,0.3,0,0.6,0,0.9
			c0,0.3,0,0.6-0.1,0.9c0,0.3,0,0.6-0.1,0.8h-0.5l-0.9-2.5h-2.7v10.5c0.3,0.1,0.6,0.1,0.9,0.2c0.3,0.1,0.5,0.1,0.8,0.2V72.6z"/>
		<path class="st0" d="M142.2,60.3c0,0.5,0,0.9-0.1,1.4c0,0.5-0.1,1-0.1,1.4h-0.5l-0.7-1.9H137v4.7h2.9l0.7-1.3h0.4
			c0.1,1.2,0.1,2.3,0,3.5h-0.4l-0.7-1.3H137v4.9h4l0.9-2.1h0.4c0.1,0.5,0.1,1,0.2,1.5c0,0.5,0,1,0,1.5h-8.7v-0.5
			c0.4-0.2,0.9-0.3,1.4-0.4V61.3c-0.2,0-0.5-0.1-0.7-0.2c-0.2-0.1-0.5-0.2-0.7-0.3v-0.5H142.2z"/>
		<path class="st0" d="M147.2,71.7c0.3,0.1,0.5,0.1,0.8,0.2c0.2,0.1,0.5,0.1,0.7,0.2v0.5h-4.6v-0.5c0.3-0.1,0.5-0.2,0.7-0.3
			c0.2-0.1,0.5-0.1,0.7-0.2V61.3c-0.3-0.1-0.6-0.1-0.8-0.2c-0.2-0.1-0.4-0.2-0.6-0.2v-0.5h1.5c0.5,0,1,0,1.5-0.1
			c0.6,0,1.1-0.1,1.6-0.1c0.6,0,1.1,0.1,1.6,0.2c0.5,0.1,0.9,0.3,1.3,0.6c0.4,0.3,0.6,0.6,0.9,1.1c0.2,0.4,0.3,1,0.3,1.6
			c0,0.9-0.2,1.6-0.7,2.1c-0.5,0.6-1.1,1-1.8,1.2c0.5,0.8,1,1.6,1.6,2.4c0.6,0.8,1.1,1.6,1.7,2.3l1,0.5v0.4h-2.1l-0.7-0.5
			c-0.3-0.4-0.6-0.8-0.9-1.2c-0.3-0.4-0.5-0.8-0.8-1.2c-0.2-0.4-0.5-0.8-0.7-1.2c-0.2-0.4-0.4-0.9-0.6-1.3h-1.7V71.7z M148.4,61.1
			c-0.3,0-0.5,0-0.7,0c-0.2,0-0.3,0-0.5,0.1v5.2h1.3c0.8,0,1.4-0.3,1.9-0.8s0.7-1.2,0.7-2c0-0.9-0.3-1.5-0.8-1.9
			C149.8,61.3,149.2,61.1,148.4,61.1z"/>
		<path class="st0" d="M158.7,72.6h-3.9v-0.5c0.4-0.2,0.8-0.3,1.3-0.4l4.4-11.6h0.5l4.4,11.6c0.2,0,0.5,0.1,0.7,0.2
			c0.2,0.1,0.4,0.1,0.6,0.3v0.5h-4.5v-0.5c0.2-0.1,0.5-0.2,0.7-0.2c0.2-0.1,0.5-0.1,0.7-0.2l-1.2-3.2h-4.2l-1.2,3.2
			c0.5,0.1,1,0.2,1.5,0.4V72.6z M158.6,67.6h3.5l-1.4-3.7l-0.3-1.5h0l-0.4,1.5L158.6,67.6z"/>
	</g>
</g>
</svg>
