<?xml version="1.0" encoding="utf-8"?>
<!-- Generator: Adobe Illustrator 21.0.0, SVG Export Plug-In . SVG Version: 6.00 Build 0)  -->
<svg version="1.1" id="Layer_1" xmlns="http://www.w3.org/2000/svg" xmlns:xlink="http://www.w3.org/1999/xlink" x="0px" y="0px"
	 viewBox="0 0 260 80" style="enable-background:new 0 0 260 80;" xml:space="preserve">
<style type="text/css">
	.st0{fill:#231F20;}
	.st1{fill:#2DC712;}
</style>
<path class="st0" d="M64.7,22.7l0.4-0.2l-0.4-0.8l-3.2-5.6c-0.4-0.6-0.9-1.2-1.6-1.6c-0.7-0.4-1.4-0.6-2.1-0.6h-25
	c-0.7,0-1.5,0.2-2.2,0.6c-0.7,0.4-1.2,0.9-1.5,1.5L16.5,37.9C16.2,38.5,16,39.2,16,40s0.2,1.5,0.6,2.1l2.8,5l21.4-22.3l9.5,11.7
	l9.8-10.1l-1.7-1.7L64.7,22.7z"/>
<path class="st1" d="M73.9,37.9l-8.6-14.8L65,22.6l-2.2,6.6l-1.7-1.7L50.2,38.6l-9.5-11.7L20.1,48.4l5.1,8.8v-5.7l2.9-3v13.7
	l0.9,1.5c0.4,0.6,0.9,1.2,1.6,1.6c0.3,0.2,0.5,0.3,0.8,0.4V45.1l2.9-3v23.8h3.3V38.7l2.9-3v30.2h3.3V39.8l2.9,3.5v22.6H50V47.4
	l2.9-3v21.5h3.3V41l2.9-3v27.7c0.3-0.1,0.5-0.2,0.8-0.4c0.7-0.4,1.2-0.9,1.6-1.6l0.9-1.5V34.6l2.9-3v25.6l8.7-15
	c0.4-0.6,0.6-1.4,0.6-2.2C74.4,39.2,74.2,38.5,73.9,37.9z"/>
<g>
	<path class="st0" d="M87.4,56.6l-0.8-2h-4.5l-0.8,2H80l3.6-9H85l3.6,9H87.4z M84.4,48.7l-1.9,4.9h3.8L84.4,48.7z"/>
	<path class="st0" d="M90.8,55.6v3.5h-1v-9h1v1c0.5-0.7,1.3-1.1,2.2-1.1c1.7,0,2.9,1.3,2.9,3.4c0,2.1-1.2,3.4-2.9,3.4
		C92.1,56.7,91.4,56.3,90.8,55.6z M94.9,53.3c0-1.4-0.8-2.5-2.1-2.5c-0.8,0-1.6,0.5-1.9,1v2.9c0.4,0.6,1.1,1.1,1.9,1.1
		C94.1,55.8,94.9,54.8,94.9,53.3z"/>
	<path class="st0" d="M97.6,56.6v-9h1v9H97.6z"/>
	<path class="st0" d="M100.4,48.4c0-0.4,0.3-0.7,0.7-0.7s0.7,0.3,0.7,0.7s-0.3,0.7-0.7,0.7S100.4,48.8,100.4,48.4z M100.6,56.6V50h1
		v6.5L100.6,56.6L100.6,56.6z"/>
	<path class="st0" d="M108.1,56.6l-2.3-2.9l-1.1,1.1v1.9h-1v-9h1v6l3.4-3.5h1.3l-2.9,3l2.9,3.6h-1.3V56.6z"/>
	<path class="st0" d="M114.7,56.6v-0.7c-0.5,0.6-1.3,0.9-2.2,0.9c-1.1,0-2.3-0.7-2.3-2.2s1.2-2.2,2.3-2.2c0.9,0,1.6,0.3,2.2,0.9
		v-1.2c0-0.9-0.7-1.4-1.6-1.4c-0.8,0-1.4,0.3-2,0.9l-0.5-0.7c0.7-0.7,1.5-1.1,2.6-1.1c1.4,0,2.5,0.6,2.5,2.2v4.5L114.7,56.6
		L114.7,56.6z M114.7,55.2V54c-0.4-0.5-1.1-0.8-1.8-0.8c-1,0-1.6,0.6-1.6,1.4c0,0.8,0.7,1.4,1.6,1.4C113.6,56,114.3,55.7,114.7,55.2
		z"/>
	<path class="st0" d="M117.2,55.7l0.5-0.7c0.4,0.5,1.3,0.9,2.2,0.9c1,0,1.6-0.5,1.6-1.1c0-1.6-4-0.6-4-3c0-1,0.9-1.9,2.4-1.9
		c1.1,0,1.9,0.4,2.4,0.9l-0.5,0.7c-0.4-0.5-1.1-0.8-1.9-0.8c-0.9,0-1.4,0.4-1.4,1c0,1.4,4,0.5,4,3c0,1.1-0.9,2-2.6,2
		C118.7,56.7,117.8,56.4,117.2,55.7z"/>
	<path class="st0" d="M123.9,48.4c0-0.4,0.3-0.7,0.7-0.7c0.4,0,0.7,0.3,0.7,0.7s-0.3,0.7-0.7,0.7C124.2,49.1,123.9,48.8,123.9,48.4z
		 M124,56.6V50h1v6.5L124,56.6L124,56.6z"/>
</g>
<g>
	<path class="st0" d="M80,40.9V20.6h9c4.3,0,6.6,2.9,6.6,6.4c0,3.4-2.4,6.3-6.6,6.3h-5.4v7.6C83.6,40.9,80,40.9,80,40.9z M91.9,26.9
		c0-2-1.4-3.2-3.4-3.2h-4.9v6.4h4.9C90.5,30.1,91.9,28.9,91.9,26.9z"/>
	<path class="st0" d="M98.5,40.9V26.2h3.2v2.1c1.1-1.4,2.9-2.5,4.8-2.5V29c-0.3-0.1-0.6-0.1-1-0.1c-1.4,0-3.2,0.9-3.8,2v10H98.5z"/>
	<path class="st0" d="M108.2,33.5c0-4.2,2.9-7.7,7.6-7.7s7.6,3.5,7.6,7.7s-2.9,7.7-7.6,7.7S108.2,37.7,108.2,33.5z M120,33.5
		c0-2.6-1.5-4.9-4.2-4.9s-4.2,2.3-4.2,4.9s1.5,4.9,4.2,4.9S120,36.1,120,33.5z"/>
</g>
<g>
	<path class="st0" d="M137.8,56.8l-3.4-4.1l-0.9,1v3h-1.1v-9h1.1v4.7l4-4.7h1.4l-3.8,4.3l4.1,4.7L137.8,56.8L137.8,56.8z"/>
	<path class="st0" d="M139.6,53.5c0-1.9,1.4-3.4,3.2-3.4c2,0,3.1,1.5,3.1,3.5v0.3h-5.3c0.1,1.2,0.9,2.3,2.3,2.3c0.8,0,1.5-0.3,2-0.8
		l0.5,0.7c-0.7,0.6-1.5,1-2.6,1C141,56.9,139.6,55.5,139.6,53.5z M142.8,50.9c-1.4,0-2.1,1.2-2.1,2.2h4.3
		C145,52.1,144.3,50.9,142.8,50.9z"/>
	<path class="st0" d="M152,56.8v-0.9c-0.5,0.6-1.4,1.1-2.3,1.1c-1.4,0-2.1-0.7-2.1-2.1v-4.6h1v4.3c0,1.1,0.6,1.5,1.5,1.5
		c0.8,0,1.5-0.5,1.9-1v-4.8h1v6.5H152z"/>
	<path class="st0" d="M159.1,56.8V56c-0.5,0.6-1.3,0.9-2.2,0.9c-1.1,0-2.3-0.7-2.3-2.2s1.2-2.2,2.3-2.2c0.9,0,1.6,0.3,2.2,0.9v-1.2
		c0-0.9-0.7-1.4-1.7-1.4c-0.8,0-1.4,0.3-2,0.9l-0.5-0.7c0.7-0.7,1.5-1.1,2.6-1.1c1.4,0,2.5,0.6,2.5,2.2v4.5h-0.9L159.1,56.8
		L159.1,56.8z M159.1,55.4v-1.2c-0.4-0.5-1.1-0.8-1.8-0.8c-1,0-1.6,0.6-1.6,1.4c0,0.8,0.7,1.4,1.6,1.4
		C158.1,56.2,158.8,55.9,159.1,55.4z"/>
	<path class="st0" d="M166.6,56.8v-4.3c0-1.2-0.6-1.5-1.5-1.5c-0.8,0-1.5,0.5-1.9,1v4.8h-1v-6.5h1v0.9c0.5-0.6,1.4-1.1,2.3-1.1
		c1.4,0,2.1,0.7,2.1,2.1v4.6H166.6z"/>
	<path class="st0" d="M169.7,58.4l0.5-0.7c0.5,0.6,1.2,0.9,2.1,0.9c1.1,0,2.1-0.5,2.1-1.9v-1c-0.5,0.7-1.3,1.2-2.2,1.2
		c-1.7,0-2.9-1.3-2.9-3.4c0-2.1,1.2-3.4,2.9-3.4c0.9,0,1.7,0.4,2.2,1.1v-1h1v6.4c0,2.1-1.5,2.7-3.1,2.7
		C171.2,59.4,170.4,59.2,169.7,58.4z M174.4,54.9V52c-0.4-0.6-1.2-1-1.9-1c-1.3,0-2.1,1-2.1,2.5c0,1.4,0.8,2.5,2.1,2.5
		C173.3,56,174,55.5,174.4,54.9z"/>
	<path class="st0" d="M181.5,56.8V56c-0.5,0.6-1.3,0.9-2.2,0.9c-1.1,0-2.3-0.7-2.3-2.2s1.2-2.2,2.3-2.2c0.9,0,1.6,0.3,2.2,0.9v-1.2
		c0-0.9-0.7-1.4-1.7-1.4c-0.8,0-1.4,0.3-2,0.9l-0.5-0.7c0.7-0.7,1.5-1.1,2.6-1.1c1.4,0,2.5,0.6,2.5,2.2v4.5h-0.9L181.5,56.8
		L181.5,56.8z M181.5,55.4v-1.2c-0.4-0.5-1.1-0.8-1.8-0.8c-1,0-1.6,0.6-1.6,1.4c0,0.8,0.7,1.4,1.6,1.4
		C180.5,56.2,181.1,55.9,181.5,55.4z"/>
	<path class="st0" d="M189,56.8v-4.3c0-1.2-0.6-1.5-1.5-1.5c-0.8,0-1.5,0.5-1.9,1v4.8h-1v-6.5h1v0.9c0.5-0.6,1.4-1.1,2.3-1.1
		c1.4,0,2.1,0.7,2.1,2.1v4.6H189z"/>
</g>
<g>
	<path class="st0" d="M229.9,53.5c0-1.9,1.4-3.4,3.2-3.4c2,0,3.1,1.5,3.1,3.5v0.3H231c0.1,1.2,0.9,2.3,2.3,2.3c0.8,0,1.5-0.3,2-0.8
		l0.5,0.7c-0.7,0.6-1.5,1-2.6,1C231.3,56.9,229.9,55.5,229.9,53.5z M233.1,50.9c-1.4,0-2.1,1.2-2.1,2.2h4.3
		C235.2,52.1,234.6,50.9,233.1,50.9z"/>
	<path class="st0" d="M237.3,55.9l0.5-0.7c0.4,0.5,1.3,0.9,2.2,0.9c1,0,1.6-0.5,1.6-1.1c0-1.6-4-0.6-4-3c0-1,0.9-1.9,2.4-1.9
		c1.1,0,1.9,0.4,2.4,0.9l-0.5,0.7c-0.4-0.5-1.1-0.8-1.9-0.8c-0.9,0-1.4,0.4-1.4,1c0,1.4,4,0.5,4,3c0,1.1-0.9,2-2.6,2
		C238.9,56.9,238,56.6,237.3,55.9z"/>
	<path class="st0" d="M195.6,56.8v-9h4c1.6,0,2.5,0.9,2.5,2.3c0,1.1-0.8,1.9-1.6,2.1c1,0.2,1.8,1.1,1.8,2.2c0,1.4-1,2.4-2.6,2.4
		H195.6z M201,50.2c0-0.8-0.5-1.5-1.6-1.5h-2.7v2.9h2.7C200.5,51.7,201,51,201,50.2z M201.2,54.2c0-0.8-0.6-1.6-1.7-1.6h-2.8v3.1
		h2.8C200.6,55.8,201.2,55.2,201.2,54.2z"/>
	<path class="st0" d="M208.5,56.8v-0.9c-0.5,0.6-1.4,1.1-2.3,1.1c-1.4,0-2.1-0.7-2.1-2.1v-4.6h1v4.3c0,1.1,0.6,1.5,1.5,1.5
		c0.8,0,1.5-0.5,1.9-1v-4.8h1v6.5H208.5z"/>
	<path class="st0" d="M219.4,56.8v-4.4c0-0.8-0.4-1.4-1.2-1.4c-0.7,0-1.4,0.5-1.7,1v4.8h-1v-4.4c0-0.8-0.3-1.4-1.2-1.4
		c-0.7,0-1.4,0.5-1.7,1v4.8h-1v-6.5h1v0.9c0.3-0.4,1.2-1.1,2.1-1.1c1,0,1.6,0.5,1.7,1.2c0.4-0.6,1.2-1.2,2.2-1.2
		c1.2,0,1.8,0.7,1.8,2v4.7C220.4,56.8,219.4,56.8,219.4,56.8z"/>
	<path class="st0" d="M227.2,56.8v-1c-0.5,0.7-1.3,1.1-2.2,1.1c-1.7,0-2.9-1.3-2.9-3.4c0-2.1,1.2-3.4,2.9-3.4c0.9,0,1.7,0.4,2.2,1.1
		v-3.5h1v9h-1V56.8z M227.2,55v-3c-0.4-0.6-1.2-1.1-1.9-1.1c-1.3,0-2.1,1.1-2.1,2.5s0.8,2.5,2.1,2.5C226.1,56,226.9,55.6,227.2,55z"
		/>
</g>
<g>
	<path class="st1" d="M145.1,32.9v-12h4.3v11.9c0,2.8,1.6,4.7,4.7,4.7c3.1,0,4.7-1.9,4.7-4.7V20.9h4.4v12c0,5-2.9,8.4-9,8.4
		C148,41.3,145.1,37.8,145.1,32.9z"/>
	<path class="st1" d="M183.8,40.9V26.5l-5.6,14.4h-1.9l-5.6-14.4v14.4h-4.3v-20h6l4.9,12.5l4.9-12.5h6v20H183.8z"/>
	<path class="st1" d="M227.5,38.1l2.3-3.3c1.4,1.5,3.6,2.7,6.4,2.7c2.4,0,3.5-1.1,3.5-2.2c0-3.5-11.5-1.1-11.5-8.6
		c0-3.3,2.9-6.1,7.6-6.1c3.2,0,5.8,1,7.8,2.8l-2.4,3.2c-1.6-1.5-3.8-2.2-5.8-2.2c-1.8,0-2.8,0.8-2.8,2c0,3.2,11.5,1,11.5,8.5
		c0,3.7-2.6,6.4-8,6.4C232.1,41.3,229.4,40,227.5,38.1z"/>
	<g>
		<polygon class="st1" points="216.4,32.6 226.1,32.6 226.1,28.8 212.1,28.8 212.1,40.9 226.3,40.9 226.3,37.1 216.4,37.1 		"/>
		<rect x="212.1" y="20.9" class="st1" width="14.2" height="3.8"/>
	</g>
	<path class="st1" d="M199.2,20.9h-7.9v11.7h4.3v-8h3.7c4.1,0,6.2,2.7,6.2,6.2c0,3.4-2.3,6.3-6.3,6.3h-7.9v3.8h7.9
		c6.2,0,10.6-4,10.6-10S205.5,20.9,199.2,20.9z"/>
	<path class="st1" d="M138.8,30.6c1.9-0.4,3.5-2.1,3.5-4.6c0-2.7-2-5.1-5.8-5.1H126v3.8h9.6c1.4,0,2.3,0.9,2.3,2.1
		c0,1.3-0.9,2.1-2.3,2.1H126v3.8h9.8c1.7,0,2.6,1,2.6,2.3c0,1.4-1,2.3-2.6,2.3H126v3.8h10.9c3.8,0,5.8-2.4,5.8-5.4
		C142.6,33,140.9,30.9,138.8,30.6z"/>
</g>
</svg>
