<?xml version="1.0" encoding="utf-8"?>
<!-- Generator: Adobe Illustrator 21.0.0, SVG Export Plug-In . SVG Version: 6.00 Build 0)  -->
<svg version="1.1" id="Layer_1" xmlns="http://www.w3.org/2000/svg" xmlns:xlink="http://www.w3.org/1999/xlink" x="0px" y="0px"
	 viewBox="0 0 24 24" style="enable-background:new 0 0 24 24;" xml:space="preserve">
<style type="text/css">
	.st0{fill:#0982F9;}
</style>
<g>
	<g>
		<g>
			<path class="st0" d="M12.2,15.2c-3.9,0-7-3.1-7-7s3.1-7,7-7s7,3.2,7,7S16.1,15.2,12.2,15.2z M12.2,3.2c-2.7,0-5,2.2-5,5
				c0,2.7,2.2,5,5,5c2.7,0,5-2.2,5-5C17.2,5.4,14.9,3.2,12.2,3.2z"/>
		</g>
	</g>
	<g>
		<path class="st0" d="M22.4,21.6c-0.9-4.8-5.1-8.4-10.2-8.4c-3.5,0-6.7,1.8-8.5,4.5c-0.5,0.7,0,1.6,0.9,1.6h0
			c0.3,0,0.6-0.2,0.8-0.4c1.5-2.2,4-3.6,6.8-3.6c4,0,7.4,2.9,8.1,6.8c0.1,0.6,0.6,1,1.2,0.8C22.1,22.7,22.5,22.1,22.4,21.6z"/>
	</g>
	<g>
		<circle class="st0" cx="2.8" cy="21" r="1.2"/>
	</g>
	<g>
		<g>
			<path class="st0" d="M12.2,22.8L12.2,22.8c-0.6,0-1-0.5-1-1v-2.9c0-0.6,0.5-1,1-1h0c0.6,0,1,0.5,1,1v2.9
				C13.2,22.4,12.8,22.8,12.2,22.8z"/>
		</g>
	</g>
</g>
</svg>
