<?xml version="1.0" encoding="utf-8"?>
<!-- Generator: Adobe Illustrator 21.0.0, SVG Export Plug-In . SVG Version: 6.00 Build 0)  -->
<svg version="1.1" id="Layer_1" xmlns="http://www.w3.org/2000/svg" xmlns:xlink="http://www.w3.org/1999/xlink" x="0px" y="0px"
	 viewBox="0 0 249.3 43.9" style="enable-background:new 0 0 249.3 43.9;" xml:space="preserve">
<style type="text/css">
	.st0{fill:#663203;stroke:#555555;stroke-width:0.5;stroke-miterlimit:10;}
	.st1{fill:#663203;}
</style>
<g>
	<path class="st0" d="M80.4,22"/>
	<path class="st0" d="M80.4,22"/>
	<g>
		<path class="st1" d="M2.5,32c1.8,0.4,3.6,0.8,5.3,1.1c14.5,2.4,28.8,2.5,43-1.9c3.3-1,6.5-2.7,9.6-4c-1.5,3.1-3.8,6.1-6.4,8.9
			c-0.2,0.2-0.6,0.3-0.9,0.4c-8,1.6-16,3.3-24.2,2.6c-4-0.4-8.1-1-12.1-1.4c-2.9-0.3-5.8-0.3-8.6-0.6c-0.7-0.1-1.5-0.3-2-0.7
			c-1.4-1.2-2.7-2.6-4-3.9C2.4,32.2,2.4,32.1,2.5,32z"/>
		<path class="st1" d="M55.9,28c-4.9-0.9-9.2-0.4-13.6,1.6c-0.2-10.1-1-20-4.6-29.6C44.3,9,50.8,17.9,55.9,28z"/>
		<path class="st1" d="M33.6,6.2c-1.4,8.8-4.8,16.9-8.5,25.1c-5.4-2.1-10.6-1.9-16-0.1C18.7,24.1,26.8,15.9,33.6,6.2z"/>
		<path class="st1" d="M40.8,31.7c-4.7-1.7-9-2.3-13.3,0.3c4.4-9.2,8.4-18.4,8.6-28.8C39.4,12.3,40.5,21.8,40.8,31.7z"/>
		<path class="st1" d="M31.6,41.2c6.2,0.2,12.1-1.5,18.1-2.5c4.9-0.8,9.8-1.1,14.6,0c-7.3-0.3-14.4,1.6-21.6,2.5
			C39,41.7,35.3,42,31.6,41.2z"/>
		<path class="st1" d="M36.8,43.2c-7.3,1.9-14.4-0.4-21.6-1.3C22.5,40.9,29.5,43.9,36.8,43.2z"/>
		<path class="st1" d="M0,40.8c6.7-1.6,13.5-2.8,19.6-1.1C13.5,40,6.7,40.4,0,40.8z"/>
	</g>
	<g>
		<path class="st1" d="M90.2,20.7c0,5.2-3.5,8.7-9.5,8.7c-0.7,0-2.4-0.1-3.5-0.1c-1.4,0-2.9,0-3.7,0.1v-0.5c1.5-0.1,1.8-0.3,1.8-2.1
			V14.9c0-1.7-0.3-2-1.8-2.1v-0.5c0.7,0,1.8,0.1,2.9,0.1c0.2,0,0.5,0,0.7,0c1.1,0,2.8-0.1,3.8-0.1C87.1,12.4,90.2,15.3,90.2,20.7z
			 M79,14.9v12c0,1.7,0.3,2.1,1.8,2.1c4,0,5.3-2.9,5.3-8.1c0-5.4-1.5-7.9-5.4-7.9C79.4,12.8,79,13.2,79,14.9z"/>
		<path class="st1" d="M100.9,17.7c0.7,0.7,0.9,1.7,0.9,3.4v6.5c0,0.8,0.1,1.1,0.5,1.1c0.3,0,0.6-0.2,0.9-0.4l0.2,0.4
			c-0.7,0.6-1.5,0.9-2.7,0.9c-1.8,0-2.3-0.9-2.3-1.9c-0.8,1.3-2.2,1.9-3.5,1.9c-1.8,0-3-1-3-2.7s1.1-2.7,3.4-3.5
			c1.8-0.7,3.1-1.1,3.1-2.2v-1.9c0-1.3-0.5-2.1-2-2.1c-0.6,0-1.3,0.2-1.7,0.6c0.9,0.3,1.4,0.9,1.4,1.9s-0.8,1.7-2,1.7
			c-1,0-1.7-0.8-1.7-1.8c0-0.9,0.6-1.5,1.3-2c0.9-0.5,2-0.8,3.6-0.8C98.9,16.6,100.1,16.9,100.9,17.7z M98.3,22.1
			c-0.2,0.4-0.7,0.7-1.5,1.2c-0.8,0.6-1.6,1.4-1.6,2.8c0,1.3,0.6,1.9,1.5,1.9c0.6,0,1.1-0.3,1.6-1V22.1z"/>
		<path class="st1" d="M114.4,18.8c0,1.2-0.7,2-1.9,2s-1.8-0.6-1.8-1.5s0.5-1.4,1.1-1.8c-0.1,0-0.2-0.1-0.3-0.1
			c-0.1,0-0.2,0-0.3,0.1c-1.3,0.2-2.2,1.8-2.2,3.1v6.3c0,1.5,0.7,2,2.2,2v0.5c-0.7,0-2.3-0.1-3.8-0.1c-1.3,0-2.8,0.1-3.4,0.1v-0.5
			c1.1,0,1.5-0.4,1.5-1.7v-7.6c0-1.4-0.4-2.1-1.5-2.1V17c0.5,0,1,0.1,1.5,0.1c1.3,0,2.5-0.1,3.5-0.3V19c0.6-1.3,1.7-2.3,3.2-2.3
			C113.8,16.6,114.4,17.7,114.4,18.8z"/>
		<path class="st1" d="M134.5,27.1c0,1.3,0.4,1.7,1.5,1.7v0.5c-0.6,0-2-0.1-3.2-0.1s-2.4,0.1-3,0.1v-0.5c0.8,0,1.1-0.4,1.1-1.7v-7.4
			c0-1.2-0.2-2-1.4-2s-2.2,1.1-2.3,2.5v0.5v6.5c0,1.3,0.4,1.7,1.4,1.7v0.5c-0.6,0-1.9-0.1-3-0.1c-1.2,0-2.4,0.1-3,0.1v-0.5
			c0.8,0,1.2-0.4,1.2-1.7v-7.4c0-1.2-0.2-2-1.3-2c-1.3,0-2.3,1.2-2.3,2.8v6.7c0,1.3,0.3,1.7,1.1,1.7v0.5c-0.5,0-1.7-0.1-2.8-0.1
			c-1.2,0-2.7,0.1-3.3,0.1V29c1.1,0,1.5-0.4,1.5-1.7v-7.6c0-1.4-0.4-2.1-1.5-2.1v-0.5c0.5,0,1,0.1,1.5,0.1c1.3,0,2.5-0.1,3.5-0.3
			v2.2c0.7-1.6,2.1-2.2,3.7-2.2c1.3,0,2.1,0.4,2.6,0.9c0.3,0.4,0.5,0.8,0.6,1.4c0.9-1.8,2.4-2.4,4-2.4c1.3,0,2.1,0.4,2.6,0.9
			c0.5,0.6,0.7,1.5,0.7,3.1L134.5,27.1L134.5,27.1z"/>
		<path class="st1" d="M146.1,17.7c0.7,0.7,0.9,1.7,0.9,3.4v6.5c0,0.8,0.1,1.1,0.5,1.1c0.3,0,0.6-0.2,0.9-0.4l0.2,0.4
			c-0.7,0.6-1.5,0.9-2.7,0.9c-1.8,0-2.3-0.9-2.3-1.9c-0.8,1.3-2.2,1.9-3.5,1.9c-1.8,0-3-1-3-2.7s1.1-2.7,3.4-3.5
			c1.8-0.7,3.1-1.1,3.1-2.2v-1.9c0-1.3-0.5-2.1-2-2.1c-0.6,0-1.3,0.2-1.7,0.6c0.9,0.3,1.4,0.9,1.4,1.9s-0.8,1.7-2,1.7
			c-1,0-1.7-0.8-1.7-1.8c0-0.9,0.6-1.5,1.3-2c0.9-0.5,2-0.8,3.6-0.8C144.1,16.6,145.3,16.9,146.1,17.7z M143.5,22.1
			c-0.2,0.4-0.7,0.7-1.5,1.2c-0.8,0.6-1.6,1.4-1.6,2.8c0,1.3,0.6,1.9,1.5,1.9c0.6,0,1.1-0.3,1.6-1V22.1z"/>
		<path class="st1" d="M158.2,26.3c1.7,0,3.2,0.6,3.2,2.6c0,2.3-2.2,5-6.9,5c-3.6,0-5.3-0.9-5.3-2.1c0-1.5,2.3-1.4,3.6-2.3h-0.6
			c-0.9,0-2.7-0.3-2.7-2.2c0-1.4,0.8-2.3,3.1-3.4c-1.6-0.5-2.6-1.6-2.6-3.4c0-2.6,2.2-3.8,5.1-3.8c0.6,0,1.2,0.1,1.8,0.2
			c0-0.4,0-0.8,0.1-1.2c0.2-1.3,0.8-2.2,2.3-2.2c1,0,1.7,0.6,1.7,1.5c0,0.8-0.7,1.4-1.6,1.4c-1,0-1.5-0.5-1.8-1.3
			c-0.2,0.3-0.3,0.7-0.4,1.2c0,0.1,0,0.2,0,0.4c0,0.1,0,0.3,0,0.4c1.8,0.5,3.1,1.6,3.1,3.6c0,2.6-2.2,3.8-5.2,3.8
			c-0.7,0-1.5-0.1-2.1-0.2c-0.8,0.5-1.4,0.9-1.4,1.5c0,0.5,0.3,0.8,1,0.8h5.6V26.3z M158.7,30.4c0-0.6-0.3-1-1.4-1h-4.1
			c-0.6,0.5-0.8,1.4-0.8,1.9c0,1.4,1.2,2.1,2.7,2.1C157,33.4,158.7,32.3,158.7,30.4z M153.5,20.4c0,2.6,0.6,3.4,1.6,3.4
			s1.6-0.8,1.6-3.4c0-2.6-0.6-3.4-1.6-3.4S153.5,17.8,153.5,20.4z"/>
		<path class="st1" d="M171.5,17.7c0.7,0.7,0.9,1.7,0.9,3.4v6.5c0,0.8,0.1,1.1,0.5,1.1c0.3,0,0.6-0.2,0.9-0.4l0.2,0.4
			c-0.7,0.6-1.5,0.9-2.7,0.9c-1.8,0-2.3-0.9-2.3-1.9c-0.8,1.3-2.2,1.9-3.5,1.9c-1.8,0-3-1-3-2.7s1.1-2.7,3.4-3.5
			c1.8-0.7,3.1-1.1,3.1-2.2v-1.9c0-1.3-0.5-2.1-2-2.1c-0.6,0-1.3,0.2-1.7,0.6c0.9,0.3,1.4,0.9,1.4,1.9s-0.8,1.7-2,1.7
			c-1,0-1.7-0.8-1.7-1.8c0-0.9,0.6-1.5,1.3-2c0.9-0.5,2-0.8,3.6-0.8C169.5,16.6,170.7,16.9,171.5,17.7z M168.9,22.1
			c-0.2,0.4-0.7,0.7-1.5,1.2c-0.8,0.6-1.6,1.4-1.6,2.8c0,1.3,0.6,1.9,1.5,1.9c0.6,0,1.1-0.3,1.6-1V22.1z"/>
		<path class="st1" d="M189.8,13c0.4,0.2,0.6,0.3,0.8,0.3c0.3,0,0.4-0.4,0.5-1.1h0.5c-0.1,0.9-0.1,2.1-0.1,5.5H191
			c-0.2-2.5-1.5-5.1-4.1-5.1c-1.5,0-2.6,0.9-2.6,2.4c0,1.9,1.5,2.7,4.1,4.5c2.3,1.5,4,2.8,4,5.4c0,3.2-2.7,4.7-5.9,4.7
			c-2,0-3-0.5-3.8-0.9c-0.4-0.2-0.6-0.3-0.8-0.3c-0.3,0-0.4,0.4-0.5,1.1h-0.5c0.1-1.1,0.1-2.7,0.1-6.5h0.5c0.2,3.2,1.3,6,4.4,6
			c1.7,0,3-0.9,3-2.7c0-2-1.5-3.1-3.6-4.5c-2.3-1.4-4.3-2.8-4.3-5.5c0-3,2.6-4.4,5.4-4.4C188.2,12.1,189.1,12.5,189.8,13z"/>
		<path class="st1" d="M206,26.7c0,1.4,0.4,2.1,1.5,2.1v0.5c-0.5,0-1-0.1-1.5-0.1c-1.3,0-2.5,0.1-3.5,0.3v-2.2
			c-0.8,1.6-2.2,2.2-3.9,2.2c-1.3,0-2.1-0.4-2.6-0.9c-0.5-0.6-0.7-1.5-0.7-3.1v-6.1c0-1.4-0.4-2.1-1.5-2.1v-0.5c0.5,0,1,0.1,1.5,0.1
			c1.3,0,2.5-0.1,3.5-0.3v9.9c0,1.2,0.2,2,1.4,2c1.3,0,2.3-1.2,2.3-2.8v-6.3c0-1.4-0.4-2.1-1.5-2.1v-0.5c0.5,0,1,0.1,1.5,0.1
			c1.3,0,2.5-0.1,3.5-0.3V26.7z"/>
		<path class="st1" d="M220.1,17.5c0.5,0.6,0.7,1.5,0.7,3.1v6.5c0,1.3,0.4,1.7,1.5,1.7v0.5c-0.6,0-2-0.1-3.2-0.1s-2.5,0.1-3.1,0.1
			v-0.5c0.9,0,1.3-0.4,1.3-1.7v-7.4c0-1.2-0.3-2-1.5-2c-1.3,0-2.4,1.2-2.4,2.8v6.7c0,1.3,0.3,1.7,1.3,1.7v0.5c-0.6,0-1.8-0.1-3-0.1
			s-2.7,0.1-3.3,0.1v-0.5c1.1,0,1.5-0.4,1.5-1.7v-7.6c0-1.4-0.4-2.1-1.5-2.1V17c0.5,0,1,0.1,1.5,0.1c1.3,0,2.5-0.1,3.5-0.3V19
			c0.8-1.6,2.2-2.2,3.9-2.2C218.9,16.6,219.7,17,220.1,17.5z"/>
		<path class="st1" d="M235.1,26.7c0,1.4,0.4,2.1,1.5,2.1v0.5c-0.5,0-1-0.1-1.5-0.1c-1.3,0-2.5,0.1-3.5,0.3v-2
			c-0.5,1.4-1.6,2.1-3.1,2.1c-2.9,0-4.9-2-4.9-6.6c0-4.3,2.3-6.5,5.4-6.5c1.1,0,2,0.3,2.6,0.9v-4c0-1.4-0.4-2.1-1.5-2.1v-0.5
			c0.5,0,1,0.1,1.5,0.1c1.3,0,2.5-0.1,3.5-0.3V26.7z M231.6,26.6v-8.5c-0.4-0.6-1.1-0.8-1.7-0.8c-1.6,0-2.6,1.9-2.6,5.8
			c0,4.1,0.9,5.5,2.3,5.5C230.5,28.6,231.4,27.9,231.6,26.6z"/>
		<path class="st1" d="M246.8,17.7c0.7,0.7,0.9,1.7,0.9,3.4v6.5c0,0.8,0.1,1.1,0.5,1.1c0.3,0,0.6-0.2,0.9-0.4l0.2,0.4
			c-0.7,0.6-1.5,0.9-2.7,0.9c-1.8,0-2.3-0.9-2.3-1.9c-0.8,1.3-2.2,1.9-3.5,1.9c-1.8,0-3-1-3-2.7s1.1-2.7,3.4-3.5
			c1.8-0.7,3.1-1.1,3.1-2.2v-1.9c0-1.3-0.5-2.1-2-2.1c-0.6,0-1.3,0.2-1.7,0.6c0.9,0.3,1.4,0.9,1.4,1.9s-0.8,1.7-2,1.7
			c-1,0-1.7-0.8-1.7-1.8c0-0.9,0.6-1.5,1.3-2c0.9-0.5,2-0.8,3.6-0.8C244.9,16.6,246.1,16.9,246.8,17.7z M244.2,22.1
			c-0.2,0.4-0.7,0.7-1.5,1.2c-0.8,0.6-1.6,1.4-1.6,2.8c0,1.3,0.6,1.9,1.5,1.9c0.6,0,1.1-0.3,1.6-1V22.1z"/>
	</g>
</g>
</svg>
