<?xml version="1.0" encoding="utf-8"?>
<!-- Generator: Adobe Illustrator 21.0.0, SVG Export Plug-In . SVG Version: 6.00 Build 0)  -->
<svg version="1.1" id="Layer_1" xmlns="http://www.w3.org/2000/svg" xmlns:xlink="http://www.w3.org/1999/xlink" x="0px" y="0px"
	 viewBox="0 0 194.2 43.3" style="enable-background:new 0 0 194.2 43.3;" xml:space="preserve">
<style type="text/css">
	.st0{fill:#069E32;}
	.st1{fill:#364C9A;}
</style>
<g>
	<path class="st0" d="M18.1,43.3c0-14.5,0-28.9,0-43.3c5.5,0,11,0,16.5,0c0,0.1,0,0.3,0,0.4c0,8,0,16,0,24c0,2.4-0.3,4.7-1.1,7
		c-0.8,2.3-1.9,4.4-3.4,6.2c-1.5,1.8-3.3,3.3-5.5,4.3c-1.5,0.7-3.1,1.2-4.8,1.3C19.2,43.3,18.7,43.3,18.1,43.3z"/>
	<path class="st1" d="M16.5,43.3c-1.6,0-3.1-0.2-4.5-0.6c-4.1-1.2-7.1-3.9-9.2-7.5C0.9,32,0.1,28.5,0,24.8c0-1.2,0.5-1.6,1.6-1.1
		c1,0.5,2,1.1,2.9,1.7c0.8,0.4,1.5,0.9,2.3,1.3c0.9,0.4,1.8,0.5,2.7,0c1-0.5,2-1.1,2.9-1.6c0.6-0.3,1.2-0.7,1.8-1.1
		c0.2-0.1,0.5-0.3,0.8-0.3c0.9-0.3,1.3,0,1.4,0.9c0,0.1,0,0.3,0,0.4c0,6,0,11.9,0,17.9C16.5,43,16.5,43.2,16.5,43.3z"/>
	<path class="st1" d="M101,35.2c0.6-1.2,1.1-2.4,1.7-3.6c1.4-2.9,2.7-5.9,4.1-8.8c0.1-0.2,0.2-0.3,0.4-0.3c1,0,1,0,1.1,0.9
		c0.5,4.8,1.1,9.5,1.6,14.3c0,0.1,0,0.2,0,0.4c-0.7,0-1.3,0-2,0c-0.4-3.9-0.8-7.8-1.3-11.7h-0.1c-0.5,1-0.9,2-1.4,3
		c-1.3,2.8-2.6,5.6-3.9,8.4c-0.1,0.2-0.2,0.4-0.5,0.4c-0.3-0.1-0.6,0.1-0.8-0.3c-1.8-3.7-3.7-7.3-5.5-11c-0.1-0.1-0.1-0.3-0.3-0.4
		c-0.3,3.9-0.7,7.8-1,11.7c-0.5,0-0.9,0-1.4,0c0.5-5.2,1.1-10.4,1.6-15.6c0.4,0,0.8,0,1.1,0c0.1,0,0.2,0.1,0.3,0.3
		c1.1,2.3,2.3,4.6,3.4,6.9c0.9,1.7,1.7,3.5,2.6,5.2C100.9,34.9,100.9,35,101,35.2z"/>
	<path class="st0" d="M41,8.3c0-2.4,0-4.8,0-7.2c0-0.3,0.1-0.4,0.4-0.4c1.9-0.1,3.8-0.2,5.7-0.2c1.7,0,3.3,0.5,4.7,1.6
		c1.3,1.1,2,2.5,2.2,4.2c0.3,2,0.1,3.9-0.7,5.7c-1.1,2.4-3,3.7-5.5,4.1c-1.7,0.3-3.4,0.1-5.1,0c-0.5,0-1-0.1-1.4-0.1
		c-0.3,0-0.4-0.1-0.4-0.4C41,13.1,41,10.7,41,8.3z M43.2,14.9c1.7,0.2,3.3,0.3,5-0.1c1.6-0.3,2.8-1.1,3.3-2.7
		c0.7-2.1,0.8-4.2,0.4-6.4c-0.4-1.7-1.4-3-3.1-3.7c-1.8-0.7-3.7-0.6-5.5-0.4C43.2,6.1,43.2,10.5,43.2,14.9z"/>
	<path class="st1" d="M127.1,22.6c0.8,0,1.7-0.1,2.5-0.1c1.3,0,2.6-0.1,3.9,0.2c1.5,0.4,2.6,1.1,3,2.7c0.6,2.2-0.1,4.7-2.7,5.8
		c-0.1,0.1-0.2,0.1-0.4,0.2c0.2,0.3,0.4,0.6,0.5,0.9c0.8,1.3,1.5,2.6,2.5,3.7c0.3,0.3,0.5,0.5,0.8,0.8c0.5,0.4,1,0.6,1.6,0.6
		c0.1,0.6,0.1,0.7-0.5,0.8c-0.5,0.1-1,0.1-1.5,0.1c-1.1,0-1.9-0.4-2.5-1.3c-0.7-1.1-1.4-2.2-2-3.3c-0.3-0.6-0.6-1.2-1-1.8
		c-0.1-0.1-0.2-0.2-0.3-0.2c-0.6,0-1.3,0-2,0c0,1.1,0,2.2,0,3.2c0,1.1,0,2.2,0,3.3c-0.7,0-1.4,0-2.1,0
		C127.1,32.9,127.1,27.8,127.1,22.6z M129.1,30.4c1.2,0,2.4,0,3.6-0.3c0.9-0.2,1.4-0.8,1.5-1.7c0.1-0.8,0.1-1.5,0.1-2.3
		c0-0.9-0.5-1.7-1.3-2.2c-1.2-0.7-2.6-0.6-3.9-0.4C129.1,25.9,129.1,28.1,129.1,30.4z"/>
	<path class="st0" d="M132,4.1c0,4,0.1,8,0.1,12c-0.5,0-0.9,0-1.4,0c0-5.2,0-10.3,0-15.5c0.5,0,0.9-0.1,1.3,0.3
		c3.2,3.5,6.4,7.1,9.6,10.6c0.3,0.3,0.6,0.7,1,1.1c0-4,0-7.9,0-11.9c0.4,0,0.9,0,1.3,0c0,5.2,0,10.3,0,15.5c-0.5,0-0.9,0.1-1.4-0.4
		c-3.4-3.8-6.8-7.5-10.2-11.3C132.4,4.3,132.2,4.2,132,4.1z"/>
	<path class="st0" d="M182.4,4.1c0,4,0.1,8,0.1,12c-0.5,0-0.9,0-1.4,0c0-5.2,0-10.3,0-15.5c0.4,0,0.8-0.1,1.2,0.3
		c3.4,3.8,6.9,7.6,10.3,11.4c0.1,0.1,0.2,0.2,0.3,0.3c0-4,0-7.9,0-11.9c0.4,0,0.9,0,1.3,0c0,5.2,0,10.3,0,15.5c-0.6,0.1-1,0-1.4-0.4
		c-3.4-3.8-6.8-7.5-10.2-11.3C182.5,4.3,182.5,4.2,182.4,4.1z"/>
	<path class="st0" d="M83.3,12.5c0-4,0-7.9,0-11.9c0.4,0,0.9,0,1.3,0c0,5.2,0,10.3,0,15.5c-0.5,0-0.9,0.1-1.3-0.4
		C79.9,11.9,76.5,8.1,73,4.3c-0.1-0.1-0.2-0.2-0.3-0.3c0,4,0.1,8,0.1,12c-0.5,0-0.9,0-1.4,0c0-5.2,0-10.3,0-15.5
		c0.5-0.1,0.9-0.1,1.3,0.4c3.4,3.8,6.8,7.5,10.3,11.3C83.1,12.2,83.2,12.3,83.3,12.5z"/>
	<path class="st0" d="M175.2,0.6c0.7,0,1.3,0,2,0c0,0.1,0,0.3,0,0.4c0,3.2,0,6.3,0,9.5c0,3.7-2.6,5.5-5.3,5.8
		c-1.2,0.1-2.3,0.1-3.4-0.2c-1.9-0.5-3-1.8-3.3-3.8c-0.1-0.5-0.1-1-0.1-1.4c0-3.3,0-6.5,0-9.8c0-0.1,0-0.3,0-0.4c0.7,0,1.3,0,2,0
		c0,0.2,0,0.3,0,0.5c0,3.4,0,6.8,0,10.2c0,0.5,0,0.9,0.1,1.4c0.3,1.4,1.1,2.2,2.7,2.3c0.9,0.1,1.9,0,2.8-0.1c1.5-0.3,2.1-1,2.2-2.6
		c0.1-0.5,0.1-0.9,0.1-1.4c0-3.3,0-6.6,0-9.8C175.2,0.9,175.2,0.8,175.2,0.6z"/>
	<path class="st1" d="M152,22.8c-0.2,0.6-0.3,1.2-0.5,1.7c-0.7-0.1-1.4-0.3-2.2-0.4c-1.4-0.2-2.8-0.4-4.1-0.1
		c-1.1,0.2-1.8,0.8-2.1,1.9c-0.4,1.8-0.5,3.5-0.4,5.3c0,1.2,0.2,2.3,0.6,3.4c0.6,1.5,1.7,2.5,3.5,2.4c1.2-0.1,2.4-0.2,3.6-0.3
		c0.1,0,0.2-0.1,0.3-0.1c0-1.7,0-3.3,0-5c-1.1-0.1-2.3-0.1-3.4-0.2c0-0.2,0.1-0.4,0.1-0.6c0-0.1,0.2-0.2,0.3-0.2c1.6,0,3.2,0,4.8,0
		c0.2,0,0.3,0.1,0.3,0.3c0,2,0,3.9,0,5.9c0,0.1-0.1,0.2-0.2,0.3c-2.2,0.9-4.5,1.4-6.9,1.2c-2.1-0.2-3.7-1.4-4.4-3.4
		c-1-2.7-1.1-5.4-0.2-8.2c0.8-2.3,2.5-3.6,4.9-4.1c1.8-0.3,3.6-0.1,5.4,0.1C151.5,22.7,151.7,22.7,152,22.8z"/>
	<path class="st0" d="M86.7,16.1c0.3-0.8,0.7-1.7,1-2.5c1.7-4.2,3.3-8.3,5-12.5c0.1-0.3,0.3-0.4,0.6-0.5c0.5-0.1,0.9-0.3,1.4-0.4
		c1.9,5.3,3.8,10.6,5.7,15.9c-0.7,0-1.3,0-2,0c-0.1,0-0.2-0.2-0.3-0.3c-0.6-1.6-1.1-3.3-1.7-4.9c-0.1-0.4-0.3-0.4-0.6-0.4
		c-1.7,0-3.4,0.1-5.1,0.1c-0.3,0-0.4,0.1-0.5,0.3c-0.6,1.6-1.2,3.3-1.8,4.9c-0.1,0.3-0.2,0.4-0.5,0.4C87.5,16,87.1,16.1,86.7,16.1z
		 M95.9,9.3c-0.8-2.4-1.7-4.7-2.5-7.1h-0.1c-0.9,2.3-1.7,4.7-2.6,7.1C92.5,9.3,94.2,9.3,95.9,9.3z"/>
	<path class="st0" d="M63.7,0.2c1.9,5.3,3.8,10.6,5.7,15.9c-0.7,0-1.4,0-2.1,0c-0.1,0-0.2-0.2-0.2-0.3c-0.6-1.7-1.2-3.4-1.7-5
		c-0.1-0.2-0.2-0.3-0.4-0.3c-1.8,0-3.5,0.1-5.3,0.1c-0.3,0-0.4,0.1-0.5,0.3c-0.6,1.7-1.2,3.3-1.8,5c-0.1,0.3-0.2,0.3-0.5,0.3
		c-0.4,0-0.8,0-1.2,0c0.2-0.6,0.4-1.1,0.6-1.6c1.8-4.5,3.6-8.9,5.4-13.4c0.1-0.3,0.2-0.4,0.5-0.5C62.7,0.5,63.2,0.3,63.7,0.2z
		 M59.8,9.3c1.8,0,3.5,0,5.2,0c-0.9-2.4-1.7-4.7-2.6-7.2C61.5,4.6,60.6,6.9,59.8,9.3z"/>
	<path class="st0" d="M107.1,0.6c1.9-0.1,3.8-0.3,5.7-0.1c0.6,0.1,1.3,0.3,1.9,0.6c1.6,0.7,2.1,2.2,2,3.9c-0.2,2.5-1.8,3.8-4,4.4
		c-0.5,0.1-0.9,0.2-1.4,0.2c-0.4,0-0.8,0-1.2,0c0-0.2-0.1-0.4-0.1-0.6c0.6-0.1,1.2-0.3,1.8-0.4c1.7-0.5,2.6-1.6,2.7-3.3
		c0-0.5,0-1-0.1-1.5c-0.3-1.3-1.3-2.1-2.7-2.3c-0.7-0.1-1.5,0-2.2,0c-0.1,0-0.2,0.1-0.2,0.2s0,0.2,0,0.3c0,4.5,0,8.9,0,13.4
		c0,0.2,0,0.3,0,0.5c-0.7,0-1.4,0-2.1,0C107.1,10.9,107.1,5.8,107.1,0.6z"/>
	<path class="st1" d="M111.3,38c0.5-1.3,1.1-2.6,1.6-3.9c1.5-3.7,2.9-7.3,4.4-11c0.1-0.3,0.3-0.5,0.7-0.6s0.8-0.2,1.3-0.4
		c1.9,5.3,3.8,10.6,5.7,15.9c-0.7,0-1.3,0-2,0c-0.1,0-0.2-0.2-0.3-0.3c-0.6-1.6-1.1-3.3-1.7-4.9c-0.1-0.3-0.2-0.4-0.6-0.4
		c-1.8,0-3.5,0.1-5.3,0.1c-0.3,0-0.3,0.1-0.4,0.3c-0.6,1.6-1.2,3.3-1.8,4.9c-0.1,0.3-0.2,0.4-0.5,0.4C112.1,38,111.7,38,111.3,38z
		 M120.6,31.3c-0.9-2.4-1.7-4.8-2.5-7.1H118c-0.9,2.4-1.8,4.7-2.6,7.1C117.1,31.3,118.8,31.3,120.6,31.3z"/>
	<path class="st1" d="M85.8,38c-0.7,0-1.3,0-2,0c-0.1,0-0.2-0.2-0.3-0.3c-0.6-1.6-1.1-3.3-1.7-4.9c-0.1-0.3-0.2-0.4-0.6-0.4
		c-1.8,0-3.5,0.1-5.3,0.1c-0.2,0-0.3,0.1-0.4,0.3c-0.6,1.7-1.2,3.3-1.8,5c-0.1,0.3-0.2,0.4-0.5,0.4c-0.4,0-0.7,0-1.1,0
		c0.2-0.6,0.5-1.2,0.7-1.7c1.8-4.4,3.6-8.9,5.3-13.3c0.1-0.2,0.2-0.4,0.5-0.4c0.5-0.1,0.9-0.3,1.5-0.4C81.9,27.5,83.8,32.7,85.8,38z
		 M76.1,31.3c1.8,0,3.5,0,5.3,0c-0.9-2.4-1.7-4.7-2.5-7.1h-0.1C77.8,26.6,77,29,76.1,31.3z"/>
	<path class="st1" d="M162.4,22.2c1.9,5.3,3.8,10.6,5.7,15.9c-0.7,0-1.3,0-2,0c-0.1,0-0.2-0.2-0.3-0.3c-0.6-1.6-1.1-3.3-1.7-4.9
		c-0.1-0.3-0.3-0.5-0.6-0.5c-1.7,0-3.5,0.1-5.2,0.1c-0.2,0-0.3,0.1-0.4,0.3c-0.6,1.7-1.2,3.3-1.9,5c-0.1,0.3-0.2,0.3-0.5,0.3
		c-0.4,0-0.7,0-1.1,0c0.1-0.2,0.1-0.3,0.2-0.4c1.9-4.8,3.9-9.7,5.8-14.5c0.1-0.3,0.2-0.4,0.5-0.5C161.4,22.5,161.9,22.3,162.4,22.2z
		 M163.7,31.3c-0.9-2.4-1.7-4.8-2.5-7.1h-0.1c-0.9,2.4-1.8,4.7-2.6,7.1C160.2,31.3,161.9,31.3,163.7,31.3z"/>
	<path class="st1" d="M46.8,38c0.5-1.2,0.9-2.3,1.4-3.4c1.5-3.8,3.1-7.7,4.6-11.5c0.1-0.3,0.2-0.4,0.5-0.5c0.5-0.1,0.9-0.3,1.4-0.4
		c1.9,5.3,3.8,10.5,5.7,15.9c-0.7,0-1.4,0-2,0c-0.1,0-0.2-0.2-0.2-0.3c-0.6-1.6-1.1-3.3-1.7-4.9c-0.1-0.3-0.2-0.4-0.6-0.4
		c-1.8,0-3.5,0.1-5.3,0.1c-0.2,0-0.3,0.1-0.4,0.3c-0.6,1.7-1.2,3.3-1.8,5c-0.1,0.3-0.2,0.4-0.5,0.4C47.6,38,47.2,38,46.8,38z
		 M53.5,24.2C53.5,24.2,53.4,24.2,53.5,24.2c-1,2.4-1.8,4.7-2.7,7.1c1.8,0,3.5,0,5.3,0C55.2,28.9,54.3,26.6,53.5,24.2z"/>
	<path class="st0" d="M155.6,0.7c-0.2,0.7-0.3,1.3-0.5,1.9c-0.7-0.2-1.4-0.4-2.2-0.6c-0.8-0.2-1.7-0.2-2.6-0.1
		c-0.8,0.1-1.2,0.6-1.3,1.4c-0.2,1.2,0.1,2,1.2,2.6c0.7,0.4,1.5,0.7,2.2,1c0.5,0.2,1,0.4,1.5,0.7c3,1.5,2.9,5.1,1.2,6.9
		c-1,1.1-2.2,1.6-3.6,1.7c-1.6,0.1-3.1-0.2-4.6-1c-0.1,0-0.1-0.1-0.2-0.1c0.2-0.6,0.5-1.2,0.7-1.8c0.6,0.3,1.2,0.6,1.8,0.9
		c1.2,0.5,2.4,0.7,3.7,0.3c0.9-0.3,1.4-0.8,1.5-1.7c0.2-1.6-0.3-2.6-1.8-3.3c-1-0.5-2-0.8-3-1.3c-1.6-0.8-2.4-2.1-2.4-3.9
		c0.1-1.7,1.1-2.8,2.5-3.5c0.9-0.5,1.9-0.5,2.9-0.5C153.6,0.5,154.6,0.6,155.6,0.7z"/>
	<path class="st1" d="M70.2,22.7c-0.2,0.6-0.3,1.2-0.5,1.8c-0.8-0.2-1.5-0.4-2.2-0.6c-0.8-0.2-1.7-0.2-2.5,0
		c-0.8,0.1-1.2,0.6-1.3,1.4c-0.2,1.3,0.1,2.1,1.3,2.7c0.8,0.4,1.6,0.7,2.4,1.1c0.7,0.4,1.5,0.7,2.1,1.2c1.7,1.4,1.7,3.9,0.7,5.5
		c-1,1.6-2.6,2.3-4.4,2.3c-1.4,0-2.8-0.3-4.1-0.9c-0.1-0.1-0.2-0.1-0.3-0.2c0.2-0.6,0.5-1.2,0.7-1.7c0.7,0.3,1.3,0.6,1.9,0.9
		c1.2,0.5,2.4,0.6,3.6,0.3c0.9-0.3,1.4-0.9,1.5-1.8c0.2-1.5-0.2-2.4-1.6-3.1c-1.1-0.5-2.2-0.9-3.3-1.5c-1.3-0.6-2.1-1.6-2.3-3.1
		c-0.3-2.2,1.2-3.8,2.9-4.4c1.3-0.5,2.6-0.3,3.9-0.2C69.2,22.6,69.7,22.7,70.2,22.7z"/>
	<path class="st1" d="M12.3,18.6c0,2.3-1.9,4.1-4.2,4.1c-2.2,0-4.1-1.9-4.1-4.1c0-2.3,1.9-4.1,4.2-4.1
		C10.5,14.5,12.3,16.4,12.3,18.6z"/>
	<path class="st0" d="M127.9,15c-0.1,0.4-0.1,0.7-0.2,1.1c-2.8,0-5.5,0-8.2,0c0-5.1,0-10.3,0-15.5c2.6,0,5.2,0,7.9,0
		c0,0.3-0.1,0.7-0.1,1.1c-1.9,0-3.8,0-5.7,0c0,0.2,0,0.3,0,0.4c0,1.6,0,3.2,0,4.8c0,0.3,0.1,0.4,0.4,0.4c1.5,0,3,0,4.5,0
		c0.2,0,0.3,0,0.5,0c-0.1,0.3-0.1,0.7-0.2,1.1c-1.3,0-2.7,0-4,0c-0.3,0-0.6,0-0.9,0c-0.2,0-0.3,0.1-0.3,0.3c0,2,0,4,0,6
		c0,0,0,0.1,0,0.2C123.7,14.9,125.9,14.9,127.9,15z"/>
	<path class="st1" d="M41.5,42.7c-0.1-0.2-0.3-0.4-0.4-0.7c1.5-1.1,1.6-2.8,1.6-4.4c0-4.9,0-9.7,0-14.6c0-0.1,0-0.3,0-0.4
		c0.7,0,1.4,0,2.1,0c0,0.1,0,0.3,0,0.4c0,5,0,10,0,15C44.8,40,44,41.6,41.5,42.7z"/>
	<path class="st0" d="M159.4,0.6c0.7,0,1.4,0,2.1,0c0,5.1,0,10.3,0,15.4c-0.7,0-1.4,0-2.1,0C159.4,10.9,159.4,5.7,159.4,0.6z"/>
</g>
</svg>
