<?xml version="1.0" encoding="utf-8"?>
<!-- Generator: Adobe Illustrator 21.0.0, SVG Export Plug-In . SVG Version: 6.00 Build 0)  -->
<svg version="1.1" id="Layer_1" xmlns="http://www.w3.org/2000/svg" xmlns:xlink="http://www.w3.org/1999/xlink" x="0px" y="0px"
	 viewBox="0 0 358 150" style="enable-background:new 0 0 358 150;" xml:space="preserve">
<style type="text/css">
	.st0{fill:#2EA39A;}
</style>
<g>
	<g>
		<g>
			<path class="st0" d="M33.8,104.3c-8.1,0.2-15-2.7-20.7-8.3c-5.9-5.7-8.8-12.7-8.8-20.9c0-8.6,3.1-15.8,9.3-21.6
				c5.7-5.3,12.6-8,20.7-8c8.2,0,15.2,2.9,20.8,8.9c5.5,5.9,8.3,13.2,8.2,22c0,0.3,0,0.5,0,0.8H16c0.4,4.2,2.2,7.8,5.3,10.8
				c3.5,3.4,7.6,5.1,12.5,5.1c4.7,0,8.9-1.7,12.4-5.1c0.8-0.8,1.5-1.5,2.1-2.4h13.4C57.9,96.4,47.7,104,33.8,104.3L33.8,104.3z
				 M50.5,68.7c-0.9-2.4-2.3-4.6-4.3-6.5c-3.5-3.4-7.7-5.1-12.9-5.1c-4.6,0-8.6,1.7-12,5.1c-2,2-3.4,4.1-4.3,6.5H50.5z"/>
		</g>
		<g>
			<g>
				<path class="st0" d="M350.6,50.1c-0.1-0.1-0.2-0.2-0.4-0.2c0.5-0.1,0.8-0.2,1.1-0.5c0.2-0.2,0.3-0.5,0.3-0.9
					c0-0.3-0.1-0.5-0.2-0.7s-0.3-0.4-0.5-0.5s-0.6-0.1-1-0.1h-2.2v4.9h0.7v-2.2h0.8c0.2,0,0.3,0,0.4,0s0.2,0.1,0.3,0.1
					c0.1,0.1,0.2,0.2,0.3,0.3c0.1,0.2,0.3,0.4,0.5,0.7l0.7,1h0.8l-0.9-1.3C351,50.5,350.8,50.3,350.6,50.1z M349.7,49.3h-1.4v-1.6
					h1.6c0.4,0,0.6,0.1,0.8,0.2c0.2,0.2,0.3,0.3,0.3,0.6c0,0.1,0,0.3-0.1,0.4c-0.1,0.1-0.2,0.2-0.4,0.3
					C350.3,49.3,350,49.3,349.7,49.3z"/>
			</g>
			<g>
				<path class="st0" d="M352.5,46.7L352.5,46.7c-0.7-0.7-1.8-1.2-2.9-1.2s-2.1,0.5-2.9,1.2c-0.7,0.7-1.2,1.8-1.2,2.9
					c0,1.1,0.5,2.1,1.2,2.9c0.7,0.7,1.8,1.2,2.9,1.2s2.2-0.5,2.9-1.2c0.8-0.7,1.2-1.8,1.2-2.9S353.2,47.5,352.5,46.7z M352.1,52.2
					c-0.6,0.6-1.5,1-2.5,1s-1.9-0.4-2.5-1c-0.7-0.7-1.1-1.5-1.1-2.5s0.4-1.9,1.1-2.5c0.6-0.6,1.5-1,2.5-1s1.9,0.4,2.5,1l0,0
					c0.7,0.7,1.1,1.6,1.1,2.5C353.2,50.6,352.8,51.5,352.1,52.2z"/>
			</g>
		</g>
		<g>
			<path class="st0" d="M156.6,54.2c3.3-3,6.3-5.1,8.9-6.2c3.8-1.6,7.6-2.4,11.6-2.4c8.1,0,15.1,2.8,20.8,8.5
				c5.8,5.7,8.8,12.6,8.8,20.9c0,8.6-3.1,15.8-9.2,21.5c-5.7,5.3-12.6,8-20.6,8c-8.2,0-15.1-2.9-20.8-8.8
				c-5.5-5.8-8.2-13.2-8.2-21.9C148.2,65.8,151.4,59.5,156.6,54.2L156.6,54.2z M177.6,92.9c4.6,0,8.6-1.7,12-5.1
				c3.6-3.6,5.4-7.9,5.4-12.9c0-5.1-1.8-9.3-5.4-12.8c-3.4-3.4-7.6-5.1-12.4-5.1c-4.7,0-8.9,1.7-12.4,5.1c-3.6,3.5-5.4,7.6-5.4,12.6
				c0,5.2,1.8,9.6,5.4,13.1C168.2,91.2,172.5,92.9,177.6,92.9z"/>
		</g>
		<g>
			<path class="st0" d="M255.9,98.1c2.2,1.7,4.3,3,6.1,3.9c3.8,1.6,7.6,2.4,11.6,2.4c8.1,0,15.1-2.8,20.8-8.5
				c5.9-5.7,8.8-12.6,8.8-20.9c0-8.6-3.1-15.8-9.2-21.5c-5.7-5.3-12.6-8-20.6-8c-6.6,0-12.4,1.9-17.3,5.7v-5.7h-11.6v30.8v44.9h11.6
				V98.1H255.9z M274.1,57c4.6,0,8.6,1.7,12,5.1c3.6,3.6,5.4,7.9,5.4,12.9c0,5.1-1.8,9.3-5.4,12.8c-3.4,3.4-7.6,5.1-12.4,5.1
				c-4.7,0-8.9-1.7-12.4-5.1c-3.6-3.5-5.4-7.6-5.4-12.6c0-5.3,1.8-9.6,5.4-13.1C264.8,58.7,269,57,274.1,57z"/>
		</g>
		<g>
			<path class="st0" d="M77.8,25.8V69c0,7,1.1,12,3.1,15c3.3,4.7,8.1,7.7,14.5,9c7.6,1.3,15.1,2,17.4,11.3H95.4
				c-10.5-1.2-18.4-5.7-23.7-13.5c-2.9-4.4-4.6-9.3-5-14.9c-0.1-0.9-0.2-3.1-0.2-6.5V25.8c0.1-7.9-0.3-14.4-4-17.6
				C72.7,8.3,77.9,16.2,77.8,25.8z"/>
		</g>
		<g>
			<path class="st0" d="M134.6,45.6L134.6,45.6c-8.1,0-15,2.9-20.7,8.5c-5.8,5.7-8.8,12.6-8.8,20.9l0,0l0,0c0,8.2,2.9,15.2,8.8,20.9
				c5.7,5.6,12.6,8.4,20.7,8.5l0,0h12.6V93h-12.6l0,0l0,0c-4.8,0-9-1.7-12.4-5.1c-3.6-3.5-5.4-7.8-5.4-12.8V75v-0.1
				c0-5.1,1.8-9.3,5.4-12.8c3.4-3.4,7.6-5.1,12.4-5.1l0,0l0,0h12.6V45.6H134.6z"/>
		</g>
		<g>
			<path class="st0" d="M210.4,104.4V75v-0.1V45.6H222v5.9c5.1-3.9,11-5.9,17.8-5.9V57l0,0c-4.8,0-9,1.7-12.4,5.1
				c-3.2,3.1-5,6.8-5.3,11.1v31.2C222.1,104.4,210.4,104.4,210.4,104.4z"/>
		</g>
		<g>
			<path class="st0" d="M304.4,62.2c0-9.2,7.4-16.6,16.6-16.6h21V57h-21l0,0c-2.9,0-5.2,2.3-5.2,5.2v0.6V64c0,2.9,2.3,5.2,5.2,5.2
				l0,0h7.4c9.2,0,16.6,7.4,16.6,16.6l0,0l0,0V87v0.6c0,9.2-7.4,16.6-16.6,16.6h-21v-3.9V93h21l0,0c2.9,0,5.2-2.4,5.2-5.2v-1.9l0,0
				l0,0c0-2.9-2.3-5.2-5.2-5.2l0,0H321c-9.2,0-16.6-7.4-16.6-16.6l0,0V62.2z"/>
		</g>
	</g>
	<g>
		<path d="M17.5,139.8c-0.1,0.1-0.1,0.3-0.2,0.4c-0.1-0.1-0.1-0.3-0.2-0.4l-5.4-12.1H9.1v16.6h2.4v-11.2l5.1,11.2h1.3l5.1-11.2v11.2
			h2.4v-16.6H23L17.5,139.8z"/>
		<path d="M48.1,137.8c0,3.1-1.1,4.5-3.6,4.5c-1.3,0-2.2-0.4-2.8-1.1c-0.6-0.8-0.9-1.9-0.9-3.5v-10h-2.4v10.1c0,5.6,3.3,6.8,6,6.8
			c2.9,0,6.3-1.2,6.3-7.1v-9.9h-2.4v10.2H48.1z"/>
		<path d="M71.6,137.1c-0.4-0.4-0.8-0.8-1.3-1.1s-1.1-0.7-1.8-1c-0.6-0.3-1.1-0.6-1.6-0.9c-0.4-0.2-0.7-0.5-1-0.7
			c-0.2-0.2-0.4-0.4-0.5-0.7c-0.1-0.2-0.1-0.5-0.1-0.9c0-0.3,0.1-0.6,0.2-0.9c0.1-0.3,0.3-0.5,0.6-0.6c0.3-0.2,0.6-0.3,0.9-0.4
			c0.4-0.1,0.8-0.2,1.2-0.2c1.2,0,2.2,0.2,3,0.7l0.8,0.4V128l-0.3-0.1c-0.9-0.4-2-0.5-3.3-0.5c-0.7,0-1.5,0.1-2.1,0.3
			c-0.7,0.2-1.3,0.5-1.8,0.9c-0.5,0.4-0.9,0.9-1.2,1.4c-0.3,0.6-0.5,1.2-0.5,1.9c0,0.6,0.1,1.1,0.2,1.5c0.2,0.5,0.4,0.9,0.8,1.3
			c0.3,0.4,0.7,0.7,1.3,1.1c0.5,0.4,1.1,0.7,1.8,1.1c0.6,0.3,1.1,0.6,1.6,0.9c0.4,0.2,0.7,0.5,1,0.7c0.2,0.2,0.4,0.5,0.5,0.7
			s0.2,0.5,0.2,0.9c0,0.7-0.2,1.2-0.7,1.6c-0.5,0.4-1.3,0.6-2.4,0.6c-0.3,0-0.6,0-0.9-0.1c-0.3,0-0.6-0.1-0.9-0.2
			c-0.3-0.1-0.6-0.2-0.9-0.4c-0.3-0.1-0.5-0.3-0.8-0.5l-0.8-0.6v3l0.2,0.1c0.2,0.1,0.5,0.3,0.9,0.4c0.3,0.1,0.7,0.2,1,0.3
			c0.4,0.1,0.7,0.1,1.1,0.2c0.4,0,0.7,0.1,0.9,0.1c0.8,0,1.5-0.1,2.2-0.3s1.3-0.5,1.8-0.9s0.9-0.9,1.2-1.5c0.3-0.6,0.4-1.3,0.4-2
			c0-0.6-0.1-1.1-0.3-1.5C72.2,138,72,137.5,71.6,137.1z"/>
		<polygon points="87.4,127.7 85,127.7 85,144.3 93.7,144.3 93.7,142 87.4,142 		"/>
		<rect x="105.4" y="127.7" width="2.4" height="16.6"/>
		<path d="M129.3,139.8c-0.1,0.1-0.1,0.3-0.2,0.4c-0.1-0.1-0.1-0.3-0.2-0.4l-5.4-12.1H121v16.6h2.4v-11.2l5.1,11.2h1.3l5.1-11.2
			v11.2h2.4v-16.6h-2.4L129.3,139.8z"/>
		<polygon points="169,127.7 166.5,127.7 166.5,144.3 175.2,144.3 175.2,142 169,142 		"/>
		<rect x="186.9" y="127.7" width="2.5" height="16.6"/>
		<polygon points="202.5,144.3 205,144.3 205,137.2 210.7,137.2 210.7,134.9 205,134.9 205,130 211.1,130 211.1,127.7 202.5,127.7 
					"/>
		<polygon points="225.6,137.1 231.4,137.1 231.4,134.8 225.6,134.8 225.6,130 231.8,130 231.8,127.7 223.2,127.7 223.2,144.3 
			232.2,144.3 232.2,142 225.6,142 		"/>
		<path d="M252.6,137.1c-0.3-0.4-0.8-0.8-1.3-1.1s-1.1-0.7-1.8-1c-0.6-0.3-1.1-0.6-1.6-0.9c-0.4-0.2-0.7-0.5-0.9-0.7
			s-0.4-0.4-0.5-0.7c-0.1-0.2-0.1-0.5-0.1-0.9c0-0.3,0.1-0.6,0.2-0.9c0.2-0.3,0.3-0.5,0.6-0.6c0.3-0.2,0.6-0.3,0.9-0.4
			c0.4-0.1,0.8-0.2,1.2-0.2c1.2,0,2.2,0.2,3,0.7l0.8,0.4V128l-0.3-0.1c-0.9-0.4-2-0.5-3.3-0.5c-0.7,0-1.5,0.1-2.1,0.3
			c-0.7,0.2-1.3,0.5-1.8,0.9c-0.5,0.4-0.9,0.9-1.2,1.4c-0.3,0.6-0.5,1.2-0.5,1.9c0,0.6,0.1,1.1,0.2,1.5c0.2,0.5,0.4,0.9,0.8,1.3
			c0.3,0.4,0.8,0.7,1.3,1.1c0.5,0.3,1.1,0.7,1.8,1.1c0.6,0.3,1.1,0.6,1.6,0.9c0.4,0.3,0.8,0.5,1,0.7s0.4,0.5,0.5,0.7
			s0.2,0.5,0.2,0.9c0,0.7-0.2,1.2-0.7,1.6c-0.5,0.4-1.3,0.6-2.4,0.6c-0.3,0-0.6,0-0.9-0.1c-0.3,0-0.6-0.1-0.9-0.2
			c-0.3-0.1-0.6-0.2-0.9-0.4c-0.3-0.1-0.6-0.3-0.8-0.5l-0.8-0.6v3l0.2,0.1c0.2,0.1,0.5,0.3,0.9,0.4c0.3,0.1,0.7,0.2,1,0.3
			c0.4,0.1,0.7,0.1,1.1,0.2c0.4,0,0.7,0.1,0.9,0.1c0.8,0,1.5-0.1,2.2-0.3s1.3-0.5,1.8-0.9s0.9-0.9,1.2-1.5s0.4-1.3,0.4-2
			c0-0.6-0.1-1.1-0.3-1.5C253.3,138,253,137.5,252.6,137.1z"/>
		<polygon points="264.5,130 269,130 269,144.3 271.5,144.3 271.5,130 276,130 276,127.7 264.5,127.7 		"/>
		<path d="M292.5,135.3L292.5,135.3L292.5,135.3l-3.8-7.6H286l5.2,10.4v6.2h2.5v-6.2l5.4-10.4h-2.7L292.5,135.3z"/>
		<polygon points="312.6,127.7 310.2,127.7 310.2,144.3 318.9,144.3 318.9,142 312.6,142 		"/>
		<polygon points="333,142 333,137.1 338.8,137.1 338.8,134.8 333,134.8 333,130 339.2,130 339.2,127.7 330.6,127.7 330.6,144.3 
			339.6,144.3 339.6,142 		"/>
	</g>
</g>
</svg>
