<?xml version="1.0" encoding="utf-8"?>
<!-- Generator: Adobe Illustrator 21.0.0, SVG Export Plug-In . SVG Version: 6.00 Build 0)  -->
<svg version="1.1" id="Layer_1" xmlns="http://www.w3.org/2000/svg" xmlns:xlink="http://www.w3.org/1999/xlink" x="0px" y="0px"
	 viewBox="0 0 290.2 45.4" style="enable-background:new 0 0 290.2 45.4;" xml:space="preserve">
<style type="text/css">
	.st0{fill:#231F20;}
	.st1{fill:#D63F27;}
	.st2{fill:none;stroke:#231F20;stroke-width:0.25;stroke-miterlimit:10;}
</style>
<g>
	<g>
		<g>
			<path class="st0" d="M94.5,16.7c0,0.4,0,0.7,0,1c0,0.3,0,0.6,0,0.8c0,0.2,0.1,0.3,0.2,0.4l1,0.3l0,0.5c-0.7,0-1.6,0-2.6,0
				c-1.1,0-2.1,0-2.9,0l0-0.5l1.3-0.3c0.2,0,0.2-0.1,0.3-0.3c0-0.2,0-0.5,0-0.8c0-0.3,0-0.7,0-1V9.3c0-0.3,0-0.6,0-0.9s0-0.5,0-0.7
				c0-0.2-0.1-0.3-0.2-0.3l-1.3-0.4l0-0.5c0.9,0,1.8,0,2.7,0c0.2,0,0.4,0,0.7,0s0.6,0,1,0c0.4,0,0.7,0,0.9,0c0.3,0,0.5,0,0.6,0
				c1.6,0,2.8,0.3,3.6,0.8c0.8,0.5,1.2,1.3,1.2,2.3c0,0.9-0.2,1.7-0.7,2.3c-0.5,0.6-1.2,1-2.2,1.3c0.5,0.8,0.9,1.4,1.2,1.9
				c0.3,0.5,0.6,1,0.9,1.4s0.5,0.9,0.8,1.2c0.2,0.4,0.5,0.6,0.7,0.8c0.1,0.1,0.2,0.2,0.3,0.2c0.1,0.1,0.2,0.1,0.3,0.2
				s0.2,0.1,0.4,0.1c0.1,0,0.3,0.1,0.4,0.1l0,0.5c-0.6,0.1-1.3,0.1-2.1,0.1c-0.6,0-1.1,0-1.3-0.1c-0.2-0.1-0.5-0.2-0.7-0.3
				c-0.3-0.2-0.6-0.5-0.8-0.9s-0.5-0.8-0.8-1.2s-0.5-0.9-0.8-1.5c-0.3-0.5-0.6-1-0.9-1.5c-0.1-0.1-0.2-0.3-0.2-0.4s-0.1-0.2-0.2-0.2
				s-0.1-0.1-0.2-0.1s-0.1,0-0.2,0l-0.4,0V16.7z M94.5,12.8c0.3,0,0.6,0,0.9,0c0.9,0,1.5-0.2,1.9-0.7c0.4-0.4,0.6-1.1,0.6-2.1
				c0-0.9-0.2-1.6-0.6-2c-0.4-0.4-1-0.6-1.8-0.6c-0.1,0-0.3,0-0.5,0c-0.2,0-0.4,0-0.6,0.1V12.8z"/>
			<path class="st0" d="M106.4,15.5l-0.7,1.8c-0.1,0.3-0.2,0.6-0.3,0.8c-0.1,0.2-0.1,0.4-0.1,0.5c0,0.1,0,0.2,0.1,0.2
				c0.1,0.1,0.1,0.1,0.3,0.1l0.9,0.3l0,0.5c-0.9,0-1.6,0-2.2,0c-0.6,0-1.3,0-2,0l0-0.5l1-0.3c0.2-0.1,0.4-0.2,0.5-0.3
				c0.1-0.2,0.2-0.4,0.4-0.7l4.7-11.4l1-0.1l4,11.4c0.2,0.4,0.3,0.7,0.4,0.9c0.1,0.2,0.3,0.3,0.5,0.3l0.9,0.3l0,0.5
				c-0.8,0-1.7,0-2.5,0c-1.1,0-2.2,0-3.3,0l0-0.5l0.9-0.3c0.1,0,0.2-0.1,0.3-0.1c0.1-0.1,0.1-0.1,0.1-0.3c0-0.1,0-0.3-0.1-0.5
				c-0.1-0.2-0.2-0.5-0.3-0.8l-0.6-1.8H106.4z M108.5,10.1c-0.1,0.3-0.2,0.7-0.4,1l-1.3,3.4h3.1l-1.2-3.4
				C108.7,10.8,108.6,10.5,108.5,10.1z"/>
			<path class="st0" d="M120.9,13.3v3.5c0,0.7,0,1.4,0,1.8c0,0.2,0.1,0.3,0.2,0.3l1.1,0.3l0,0.5c-0.8,0-1.7,0-2.7,0
				c-1.1,0-2.1,0-2.9,0l0-0.5l1.3-0.3c0.2,0,0.2-0.1,0.3-0.3c0-0.5,0-1.1,0-1.9V9.3c0-0.6,0-1.1,0-1.6c0-0.2-0.1-0.3-0.2-0.3
				l-1.3-0.4l0-0.5c0.9,0,1.8,0,2.9,0c1.1,0,2,0,2.8,0l0.1,0.5l-1.1,0.3c-0.2,0-0.2,0.1-0.2,0.3c0,0.4,0,1,0,1.6v3h5.6v-3
				c0-0.6,0-1.1,0-1.6c0-0.1-0.1-0.2-0.2-0.3l-1.1-0.3l0-0.5c0.8,0,1.7,0,2.8,0c1.1,0,2,0,2.9,0l0,0.5l-1.3,0.4
				c-0.1,0-0.2,0.1-0.2,0.3c0,0.4,0,0.9,0,1.6v7.5c0,0.7,0,1.4,0,1.9c0,0.1,0.1,0.2,0.3,0.3l1.2,0.3l0,0.5c-0.9,0-1.9,0-3,0
				c-1.1,0-2,0-2.7,0l0-0.5l1.1-0.3c0.2,0,0.2-0.2,0.2-0.3c0-0.5,0-1.1,0-1.8v-3.5H120.9z"/>
			<path class="st0" d="M135.1,15.5l-0.7,1.8c-0.1,0.3-0.2,0.6-0.3,0.8c-0.1,0.2-0.1,0.4-0.1,0.5c0,0.1,0,0.2,0.1,0.2
				c0.1,0.1,0.1,0.1,0.3,0.1l0.9,0.3l0,0.5c-0.9,0-1.6,0-2.2,0c-0.6,0-1.3,0-2,0l0-0.5l1-0.3c0.2-0.1,0.4-0.2,0.5-0.3
				c0.1-0.2,0.2-0.4,0.4-0.7l4.7-11.4l1-0.1l4,11.4c0.2,0.4,0.3,0.7,0.4,0.9c0.1,0.2,0.3,0.3,0.5,0.3l0.9,0.3l0,0.5
				c-0.8,0-1.7,0-2.5,0c-1.1,0-2.2,0-3.3,0l0-0.5l0.9-0.3c0.1,0,0.2-0.1,0.3-0.1c0.1-0.1,0.1-0.1,0.1-0.3c0-0.1,0-0.3-0.1-0.5
				c-0.1-0.2-0.2-0.5-0.3-0.8l-0.6-1.8H135.1z M137.2,10.1c-0.1,0.3-0.2,0.7-0.4,1l-1.3,3.4h3.1l-1.2-3.4
				C137.4,10.8,137.3,10.5,137.2,10.1z"/>
			<path class="st0" d="M150,12.6l1.8-3.6c0.2-0.3,0.3-0.6,0.4-0.8c0.1-0.2,0.1-0.4,0.1-0.5c0-0.2-0.1-0.3-0.4-0.4l-0.8-0.2l0-0.5
				c0.7,0,1.4,0,2.2,0c0.7,0,1.4,0,2,0l0,0.5l-1,0.3c-0.2,0.1-0.4,0.2-0.5,0.3c-0.1,0.1-0.2,0.3-0.4,0.6l-3,5.5v3c0,0.4,0,0.7,0,1
				s0,0.6,0,0.8c0,0.2,0.1,0.3,0.3,0.3l1,0.3l0,0.5c-0.8,0-1.7,0-2.8,0c-1.1,0-2,0-2.8,0l0-0.5l1.2-0.3c0.2,0,0.2-0.1,0.3-0.3
				c0-0.2,0-0.5,0-0.8c0-0.3,0-0.7,0-1v-2.8l-3-5.4c-0.2-0.4-0.4-0.7-0.6-0.8s-0.3-0.3-0.6-0.4l-0.9-0.3l0-0.5c0.6,0,1.5,0,2.6,0
				c1.2,0,2.4,0,3.5,0l0,0.5l-1,0.2c-0.1,0-0.3,0.1-0.3,0.1c-0.1,0.1-0.1,0.1-0.1,0.2c0,0.1,0,0.3,0.1,0.5c0.1,0.2,0.2,0.4,0.4,0.7
				L150,12.6z"/>
			<path class="st0" d="M155.3,6.6c0.9,0,1.8,0,2.9,0c1.1,0,2,0,2.9,0l0,0.5l-1.2,0.3c-0.1,0-0.2,0.1-0.2,0.3c0,0.2,0,0.5,0,0.7
				c0,0.3,0,0.5,0,0.8v5.2c0,1.7,0.3,2.9,0.8,3.5s1.3,1,2.5,1c1.1,0,2-0.3,2.5-1c0.6-0.7,0.8-1.8,0.8-3.4V9.2c0-0.3,0-0.6,0-0.8
				c0-0.3,0-0.5,0-0.7c0-0.1-0.1-0.2-0.2-0.3l-1.2-0.3l0-0.5c0.8,0,1.5,0,2.2,0c0.6,0,1.3,0,2.1,0l0,0.5l-1.3,0.4
				c-0.1,0-0.2,0.1-0.2,0.3c0,0.2,0,0.4,0,0.7s0,0.5,0,0.9V14c0,2.1-0.4,3.7-1.3,4.6c-0.9,0.9-2.2,1.4-3.9,1.4
				c-1.9,0-3.3-0.4-4.2-1.3c-0.9-0.9-1.4-2.3-1.4-4.3V9.3c0-0.3,0-0.6,0-0.9s0-0.5,0-0.7c0-0.2-0.1-0.3-0.2-0.3l-1.3-0.4L155.3,6.6z
				"/>
			<path class="st0" d="M183.1,12.4c0.4,0,0.7,0,1.1,0c0.4,0,0.8,0,1.2,0c0.4,0,0.7,0,1,0c0.3,0,0.6,0,0.8,0l0,0.5l-1.2,0.3
				c-0.1,0-0.2,0.1-0.2,0.2c0,0.2,0.1,0.5,0.1,0.8c0,1.1-0.3,2.2-1,3.2c0.5,0.6,0.9,1.1,1.3,1.4c0.2,0.1,0.4,0.2,0.6,0.3
				s0.4,0.1,0.7,0.1c0.2,0,0.4,0,0.6-0.1l0.1,0.5c-0.7,0.3-1.4,0.4-2.1,0.4c-1.1,0-2-0.3-2.8-1c-1,0.6-2.2,0.9-3.4,0.9
				c-1.3,0-2.4-0.3-3.3-1c-0.9-0.6-1.4-1.5-1.4-2.6c0-1.5,0.9-2.7,2.7-3.6c-0.6-0.6-1-1.2-1.2-1.7c-0.2-0.5-0.4-1-0.4-1.6
				c0-0.9,0.4-1.6,1.1-2.1c0.7-0.5,1.6-0.8,2.7-0.8c1,0,1.8,0.2,2.4,0.7s1,1.1,1,1.9c0,1.2-0.9,2.3-2.8,3.2l3.5,4.1
				c0.4-0.7,0.6-1.4,0.6-2.2c0-0.4,0-0.7,0-0.9c0-0.1-0.1-0.2-0.1-0.3s-0.1-0.1-0.3-0.1l-1.2-0.2L183.1,12.4z M178.2,13.5
				c-0.4,0.6-0.6,1.3-0.6,2.1c0,0.9,0.2,1.6,0.7,2.2c0.5,0.6,1.2,0.9,2,0.9c0.7,0,1.3-0.2,2-0.5L178.2,13.5z M180,11.8
				c0.6-0.6,1-1.4,1-2.5c0-0.6-0.1-1-0.3-1.3c-0.2-0.3-0.5-0.5-0.9-0.5c-0.4,0-0.7,0.1-0.9,0.4c-0.2,0.3-0.3,0.6-0.3,1.1
				c0,0.7,0.3,1.5,1,2.2L180,11.8z"/>
			<path class="st0" d="M197.8,16.7c0,0.4,0,0.7,0,1c0,0.3,0,0.6,0,0.8c0,0.1,0.1,0.2,0.2,0.3l1.4,0.4l0,0.5c-1,0-2,0-3,0
				c-1.1,0-2.1,0-2.9,0l0-0.5l1.3-0.3c0.2,0,0.2-0.1,0.3-0.3c0-0.2,0-0.5,0-0.8c0-0.3,0-0.7,0-1V9.3c0-0.3,0-0.6,0-0.9s0-0.5,0-0.7
				c0-0.2-0.1-0.3-0.2-0.3l-1.3-0.4l0-0.5c0.9,0,1.7,0,2.6,0c0.6,0,1.2,0,1.7,0s1.1,0,1.5,0c1.7,0,3,0.3,3.8,0.9
				c0.9,0.6,1.3,1.4,1.3,2.6c0,1.4-0.5,2.4-1.4,3.2c-0.9,0.8-2.2,1.1-3.8,1.1c-0.4,0-0.9,0-1.4-0.1V16.7z M197.8,13.3
				c0.4,0.1,0.7,0.1,1.1,0.1c0.8,0,1.4-0.3,1.9-0.8c0.4-0.5,0.6-1.3,0.6-2.3c0-1-0.2-1.7-0.6-2.2c-0.4-0.5-1-0.7-1.9-0.7
				c-0.3,0-0.7,0-1,0.1V13.3z"/>
			<path class="st0" d="M207.1,15.5l-0.7,1.8c-0.1,0.3-0.2,0.6-0.3,0.8c-0.1,0.2-0.1,0.4-0.1,0.5c0,0.1,0,0.2,0.1,0.2
				c0.1,0.1,0.1,0.1,0.3,0.1l0.9,0.3l0,0.5c-0.9,0-1.6,0-2.2,0c-0.6,0-1.3,0-2,0l0-0.5l1-0.3c0.2-0.1,0.4-0.2,0.5-0.3
				c0.1-0.2,0.2-0.4,0.4-0.7l4.7-11.4l1-0.1l4,11.4c0.2,0.4,0.3,0.7,0.4,0.9c0.1,0.2,0.3,0.3,0.5,0.3l0.9,0.3l0,0.5
				c-0.8,0-1.7,0-2.5,0c-1.1,0-2.2,0-3.3,0l0-0.5l0.9-0.3c0.1,0,0.2-0.1,0.3-0.1c0.1-0.1,0.1-0.1,0.1-0.3c0-0.1,0-0.3-0.1-0.5
				c-0.1-0.2-0.2-0.5-0.3-0.8l-0.6-1.8H207.1z M209.1,10.1c-0.1,0.3-0.2,0.7-0.4,1l-1.3,3.4h3.1l-1.2-3.4
				C209.3,10.8,209.2,10.5,209.1,10.1z"/>
			<path class="st0" d="M221.5,16.7c0,0.4,0,0.7,0,1c0,0.3,0,0.6,0,0.8c0,0.2,0.1,0.3,0.2,0.4l1,0.3l0,0.5c-0.7,0-1.6,0-2.6,0
				c-1.1,0-2.1,0-2.9,0l0-0.5l1.3-0.3c0.2,0,0.2-0.1,0.3-0.3c0-0.2,0-0.5,0-0.8c0-0.3,0-0.7,0-1V9.3c0-0.3,0-0.6,0-0.9s0-0.5,0-0.7
				c0-0.2-0.1-0.3-0.2-0.3l-1.3-0.4l0-0.5c0.9,0,1.8,0,2.7,0c0.2,0,0.4,0,0.7,0s0.6,0,1,0c0.4,0,0.7,0,0.9,0c0.3,0,0.5,0,0.6,0
				c1.6,0,2.8,0.3,3.6,0.8c0.8,0.5,1.2,1.3,1.2,2.3c0,0.9-0.2,1.7-0.7,2.3c-0.5,0.6-1.2,1-2.2,1.3c0.5,0.8,0.9,1.4,1.2,1.9
				c0.3,0.5,0.6,1,0.9,1.4s0.5,0.9,0.8,1.2c0.2,0.4,0.5,0.6,0.7,0.8c0.1,0.1,0.2,0.2,0.3,0.2c0.1,0.1,0.2,0.1,0.3,0.2
				s0.2,0.1,0.4,0.1c0.1,0,0.3,0.1,0.4,0.1l0,0.5c-0.6,0.1-1.3,0.1-2.1,0.1c-0.6,0-1.1,0-1.3-0.1c-0.2-0.1-0.5-0.2-0.7-0.3
				c-0.3-0.2-0.6-0.5-0.8-0.9s-0.5-0.8-0.8-1.2s-0.5-0.9-0.8-1.5c-0.3-0.5-0.6-1-0.9-1.5c-0.1-0.1-0.2-0.3-0.2-0.4s-0.1-0.2-0.2-0.2
				s-0.1-0.1-0.2-0.1s-0.1,0-0.2,0l-0.4,0V16.7z M221.5,12.8c0.3,0,0.6,0,0.9,0c0.9,0,1.5-0.2,1.9-0.7c0.4-0.4,0.6-1.1,0.6-2.1
				c0-0.9-0.2-1.6-0.6-2c-0.4-0.4-1-0.6-1.8-0.6c-0.1,0-0.3,0-0.5,0c-0.2,0-0.4,0-0.6,0.1V12.8z"/>
			<path class="st0" d="M235.3,19.7c-1.1,0-2.1,0-3.1,0l0-0.5l1.5-0.4c0.2,0,0.2-0.1,0.2-0.3c0-0.5,0-1.1,0-1.8V7.6h-2.7l-0.9,2.5
				l-0.5,0.1l-0.2-3.5l0.1-0.1c1.5,0,3,0,4.4,0h2.6c1.4,0,2.9,0,4.4,0l0.1,0.1l-0.6,3.4l-0.5,0.1l-0.6-2.6h-2.7v9.1
				c0,0.7,0,1.3,0,1.8c0,0.1,0.1,0.2,0.3,0.3l1.5,0.4l0,0.5C237.4,19.7,236.4,19.7,235.3,19.7z"/>
			<path class="st0" d="M244.6,18.6c0,0.2,0.1,0.3,0.2,0.3l1.2,0.3l0,0.5c-0.8,0-1.5,0-2.1,0c-0.5,0-1.2,0-2.1,0l0-0.5l1.3-0.3
				c0.2,0,0.2-0.1,0.3-0.3c0-0.5,0-1.1,0-1.9V9.3c0-0.6,0-1.1,0-1.6c0-0.2-0.1-0.3-0.2-0.3l-1.3-0.4l0-0.5c0.9,0,1.5,0,2,0
				c0.6,0,1.2,0,1.7,0l6.2,7.8c0.3,0.3,0.5,0.6,0.8,1c0-0.4,0-0.8,0-1.2V9.2c0-0.6,0-1.1,0-1.6c0-0.1-0.1-0.2-0.2-0.3L251,7.1l0-0.5
				c0.9,0,1.6,0,2.1,0c0.5,0,1.2,0,2.1,0l0,0.5L254,7.4c-0.1,0-0.2,0.1-0.2,0.3c0,0.4,0,0.9,0,1.6v10.4l-1.1,0.1l-7.4-9.2
				c-0.2-0.3-0.5-0.6-0.8-1c0,0.5,0,0.9,0,1.3v5.9C244.5,17.5,244.5,18.1,244.6,18.6z"/>
			<path class="st0" d="M259,6.6h2.4c1.5,0,3.1,0,4.7,0l0.1,0.1l-0.6,3.1l-0.5,0.1l-0.6-2.3h-3.6v5h0.5c0.5,0,1.1,0,1.8,0
				c0.2,0,0.3-0.1,0.3-0.3l0.3-1.3l0.6,0c0,0.9,0,1.6,0,2c0,0.4,0,1.1,0,2l-0.6,0l-0.3-1.3c0-0.2-0.1-0.3-0.3-0.3
				c-0.6,0-1.2,0-1.8,0h-0.5v3.2c0,0.7,0,1.4,0,2h3.7l1.2-2.5l0.6-0.1l-0.2,3.5l-0.1,0.1c-1.6,0-3.1,0-4.5,0H259c-0.8,0-1.6,0-2.5,0
				l0-0.5l1.3-0.3c0.2,0,0.2-0.1,0.3-0.3c0-0.2,0-0.5,0-0.8c0-0.3,0-0.7,0-1V9.3c0-0.3,0-0.6,0-0.9s0-0.5,0-0.7
				c0-0.2-0.1-0.3-0.2-0.3l-1.3-0.4l0-0.5C257.4,6.6,258.2,6.6,259,6.6z"/>
			<path class="st0" d="M272.3,16.7c0,0.4,0,0.7,0,1c0,0.3,0,0.6,0,0.8c0,0.2,0.1,0.3,0.2,0.4l1,0.3l0,0.5c-0.7,0-1.6,0-2.6,0
				c-1.1,0-2.1,0-2.9,0l0-0.5l1.3-0.3c0.2,0,0.2-0.1,0.3-0.3c0-0.2,0-0.5,0-0.8c0-0.3,0-0.7,0-1V9.3c0-0.3,0-0.6,0-0.9s0-0.5,0-0.7
				c0-0.2-0.1-0.3-0.2-0.3l-1.3-0.4l0-0.5c0.9,0,1.8,0,2.7,0c0.2,0,0.4,0,0.7,0s0.6,0,1,0c0.4,0,0.7,0,0.9,0c0.3,0,0.5,0,0.6,0
				c1.6,0,2.8,0.3,3.6,0.8c0.8,0.5,1.2,1.3,1.2,2.3c0,0.9-0.2,1.7-0.7,2.3c-0.5,0.6-1.2,1-2.2,1.3c0.5,0.8,0.9,1.4,1.2,1.9
				c0.3,0.5,0.6,1,0.9,1.4s0.5,0.9,0.8,1.2c0.2,0.4,0.5,0.6,0.7,0.8c0.1,0.1,0.2,0.2,0.3,0.2c0.1,0.1,0.2,0.1,0.3,0.2
				s0.2,0.1,0.4,0.1c0.1,0,0.3,0.1,0.4,0.1l0,0.5c-0.6,0.1-1.3,0.1-2.1,0.1c-0.6,0-1.1,0-1.3-0.1c-0.2-0.1-0.5-0.2-0.7-0.3
				c-0.3-0.2-0.6-0.5-0.8-0.9s-0.5-0.8-0.8-1.2s-0.5-0.9-0.8-1.5c-0.3-0.5-0.6-1-0.9-1.5c-0.1-0.1-0.2-0.3-0.2-0.4s-0.1-0.2-0.2-0.2
				s-0.1-0.1-0.2-0.1s-0.1,0-0.2,0l-0.4,0V16.7z M272.3,12.8c0.3,0,0.6,0,0.9,0c0.9,0,1.5-0.2,1.9-0.7c0.4-0.4,0.6-1.1,0.6-2.1
				c0-0.9-0.2-1.6-0.6-2c-0.4-0.4-1-0.6-1.8-0.6c-0.1,0-0.3,0-0.5,0c-0.2,0-0.4,0-0.6,0.1V12.8z"/>
			<path class="st0" d="M288,7.5c-0.4-0.2-0.8-0.2-1.3-0.2c-0.7,0-1.2,0.2-1.7,0.6c-0.5,0.4-0.7,0.9-0.7,1.5c0,0.4,0.1,0.7,0.2,0.9
				c0.2,0.3,0.3,0.5,0.6,0.7c0.2,0.2,0.5,0.4,0.9,0.6c0.3,0.2,0.7,0.3,1,0.5c0.4,0.2,0.8,0.4,1.2,0.6s0.7,0.5,1,0.8
				c0.3,0.3,0.6,0.7,0.7,1.1s0.3,0.9,0.3,1.5c0,1.3-0.5,2.3-1.4,3c-1,0.7-2.2,1.1-3.8,1.1c-1.1,0-2.2-0.2-3.3-0.5l-0.1-0.1l0.5-3.4
				l0.6-0.1l0.7,2.9c0.4,0.2,0.9,0.3,1.5,0.3c0.8,0,1.4-0.2,1.9-0.6s0.7-0.9,0.7-1.6c0-0.4-0.1-0.7-0.2-1c-0.2-0.3-0.4-0.5-0.6-0.7
				s-0.5-0.4-0.9-0.6c-0.3-0.2-0.7-0.3-1-0.5c-0.4-0.2-0.8-0.4-1.1-0.6c-0.4-0.2-0.7-0.5-1-0.7c-0.3-0.3-0.5-0.6-0.7-1.1
				c-0.2-0.4-0.3-0.9-0.3-1.5c0-1.2,0.5-2.1,1.4-2.8s2.1-1.1,3.5-1.1c0.9,0,2,0.1,3.2,0.4l0.1,0.1l-0.6,3l-0.5,0.1L288,7.5z"/>
		</g>
		<g>
			<path class="st0" d="M94.2,27.6l2.6,7.3c0.1,0.3,0.2,0.5,0.3,0.6c0.1,0.1,0.2,0.2,0.3,0.2l0.6,0.2l0,0.3c-0.5,0-1,0-1.4,0
				c-0.5,0-1,0-1.6,0l0-0.3l0.6-0.2c0.1,0,0.1-0.1,0.2-0.1c0,0,0.1-0.1,0.1-0.2c0-0.1,0-0.2-0.1-0.3c0-0.1-0.1-0.3-0.2-0.5L95,33
				h-2.9l-0.6,1.6c-0.1,0.2-0.1,0.4-0.2,0.5c0,0.1-0.1,0.2-0.1,0.3c0,0.1,0,0.1,0.1,0.2c0,0,0.1,0.1,0.2,0.1l0.6,0.2l0,0.3
				c-0.6,0-1,0-1.4,0s-0.8,0-1.2,0l0-0.3l0.6-0.2c0.2,0,0.3-0.1,0.3-0.2s0.2-0.3,0.2-0.5l3-7.3L94.2,27.6z M92.3,32.5h2.5l-1.2-3.3
				L92.3,32.5z"/>
			<path class="st0" d="M102.8,27.5c0.7-0.1,1.4-0.3,1.9-0.4l0.1,0c0,0.8,0,1.8,0,2.7v3.2c0,0.5,0,1.1,0,1.6c0,0.2,0,0.4,0,0.5
				s0,0.2,0.1,0.3s0.1,0.1,0.2,0.1s0.3,0,0.5,0l0,0.2c-0.2,0.1-0.4,0.1-0.6,0.2s-0.4,0.1-0.5,0.1c-0.4,0-0.7-0.2-0.8-0.7
				c-0.6,0.5-1.2,0.7-1.8,0.7c-0.7,0-1.3-0.3-1.8-0.8s-0.7-1.2-0.7-1.9c0-1,0.3-1.7,0.9-2.3s1.4-0.8,2.4-0.8c0.3,0,0.5,0,0.9,0.1
				c0-0.9,0-1.7,0-2.6l-0.8-0.2L102.8,27.5z M103.7,31.1c-0.3-0.1-0.6-0.1-0.9-0.1c-0.7,0-1.2,0.2-1.5,0.6c-0.4,0.4-0.5,1-0.5,1.8
				c0,0.7,0.2,1.2,0.5,1.6c0.3,0.4,0.8,0.6,1.3,0.6c0.4,0,0.8-0.1,1.2-0.3V31.1z"/>
			<path class="st0" d="M106.9,30.6c0.5,0,0.9,0,1.3,0c0.4,0,0.8,0,1.3,0l0,0.2l-0.7,0.2c0.3,0.9,0.7,1.9,1.1,2.9
				c0.1,0.3,0.2,0.5,0.3,0.8c0.1-0.3,0.2-0.5,0.3-0.8c0.4-0.9,0.7-1.9,1.1-3l-0.7-0.2l0-0.2c0.3,0,0.7,0,1,0c0.4,0,0.7,0,1,0l0,0.2
				l-0.6,0.2c-0.1,0-0.2,0.1-0.2,0.2c-0.3,0.7-0.7,1.6-1.1,2.6s-0.7,1.8-0.9,2.3l-0.5,0.1c-0.2-0.6-0.5-1.4-0.9-2.4
				s-0.8-1.9-1.1-2.6c-0.1-0.1-0.2-0.2-0.3-0.3l-0.5-0.2L106.9,30.6z"/>
			<path class="st0" d="M120,33.2c0,0.9-0.3,1.6-0.8,2.2c-0.5,0.6-1.2,0.8-2.1,0.8c-0.8,0-1.5-0.3-2-0.8c-0.5-0.5-0.8-1.2-0.8-2.1
				c0-0.9,0.3-1.6,0.8-2.1c0.5-0.6,1.2-0.8,2.1-0.8c0.8,0,1.5,0.3,2,0.8C119.8,31.7,120,32.4,120,33.2z M115.6,33.3
				c0,0.7,0.1,1.3,0.4,1.8c0.3,0.5,0.7,0.7,1.2,0.7c0.5,0,0.9-0.2,1.2-0.6c0.3-0.4,0.4-1,0.4-1.8c0-0.8-0.1-1.4-0.4-1.8
				c-0.3-0.4-0.7-0.7-1.2-0.7c-0.5,0-0.9,0.2-1.2,0.6S115.6,32.5,115.6,33.3z"/>
			<path class="st0" d="M127,35.7c-0.2,0.2-0.6,0.3-0.9,0.4s-0.7,0.2-1.1,0.2c-0.9,0-1.5-0.3-2.1-0.8c-0.5-0.5-0.8-1.2-0.8-2
				c0-0.9,0.3-1.6,0.9-2.2c0.6-0.6,1.3-0.8,2.2-0.8c0.6,0,1.1,0.1,1.7,0.4c-0.1,0.5-0.2,1.1-0.4,1.6l-0.2,0l-0.5-1.4
				c-0.2-0.1-0.4-0.1-0.6-0.1c-0.6,0-1.1,0.2-1.4,0.6c-0.3,0.4-0.5,1-0.5,1.6c0,0.8,0.2,1.4,0.6,1.8c0.4,0.4,1,0.6,1.8,0.6
				c0.4,0,0.8,0,1.2-0.1L127,35.7z"/>
			<path class="st0" d="M129.3,30.9c0.8-0.3,1.5-0.5,2.1-0.5c0.6,0,1.1,0.2,1.4,0.5c0.4,0.3,0.5,0.8,0.5,1.4l0,2.5
				c0,0.2,0,0.4,0,0.5s0,0.2,0.1,0.3c0.1,0.1,0.1,0.1,0.3,0.1s0.3,0,0.5,0l0,0.2c-0.2,0.1-0.4,0.1-0.6,0.2c-0.2,0.1-0.4,0.1-0.5,0.1
				c-0.4,0-0.7-0.2-0.8-0.6c-0.6,0.4-1.1,0.6-1.6,0.6c-0.6,0-1-0.1-1.3-0.4c-0.3-0.3-0.5-0.7-0.5-1.2c0-0.6,0.3-1.1,0.8-1.4
				c0.5-0.3,1.4-0.4,2.6-0.4l0-0.5c0-0.4-0.1-0.8-0.3-1s-0.6-0.3-1.1-0.3c-0.4,0-0.8,0.1-1.4,0.2L129.3,30.9z M132.2,33.4
				c-0.8,0-1.4,0.1-1.7,0.3c-0.3,0.2-0.5,0.5-0.5,0.9c0,0.4,0.1,0.6,0.3,0.8c0.2,0.2,0.5,0.2,0.8,0.2c0.4,0,0.7-0.1,1-0.2
				L132.2,33.4z"/>
			<path class="st0" d="M137.8,31.2c0,1.3,0,2.4,0,3.2c0,0.4,0.1,0.7,0.2,0.9c0.1,0.2,0.4,0.2,0.7,0.2c0.3,0,0.6,0,1.1-0.1l0,0.3
				c-0.7,0.3-1.3,0.5-1.8,0.5c-0.4,0-0.8-0.1-1-0.3c-0.2-0.2-0.3-0.6-0.3-1.1c0-0.8,0-2,0-3.7l-0.8-0.2l0-0.2l0.9-0.1l0.4-1.4
				c0.2-0.1,0.4-0.1,0.6-0.2l0.1,0c0,0.5,0,0.9,0,1.3v0.2h1.8v0.6H137.8z"/>
			<path class="st0" d="M146.4,35.7c-0.3,0.2-0.7,0.4-1,0.5s-0.7,0.1-1,0.1c-0.9,0-1.6-0.2-2.1-0.7s-0.8-1.2-0.8-2.1
				c0-0.9,0.3-1.6,0.8-2.2c0.5-0.6,1.2-0.8,2-0.8c0.7,0,1.3,0.2,1.6,0.6s0.6,1,0.6,1.7c0,0.1,0,0.2,0,0.3h-3.8
				c0,0.9,0.2,1.5,0.6,1.8c0.4,0.4,1,0.6,1.9,0.6c0.4,0,0.8,0,1.2-0.1L146.4,35.7z M145.2,32.6v-0.2c0-0.6-0.1-1-0.3-1.2
				s-0.4-0.4-0.8-0.4c-0.5,0-0.8,0.2-1.1,0.5c-0.2,0.3-0.4,0.8-0.4,1.2H145.2z"/>
			<path class="st0" d="M148.7,37.4l3-9.8h0.7l-3,9.8H148.7z"/>
			<path class="st0" d="M156.8,29.4v4.8c0,0.4,0,0.9,0,1.3h2.9l0.8-1.6l0.3,0l-0.1,2.1l0,0c-1,0-2,0-2.9,0h-1.5c-0.5,0-1,0-1.5,0
				l0-0.3l0.7-0.2c0.1,0,0.2-0.1,0.2-0.2c0-0.2,0-0.3,0-0.5c0-0.2,0-0.4,0-0.7v-4.8c0-0.2,0-0.4,0-0.5c0-0.2,0-0.3,0-0.4
				c0-0.1-0.1-0.2-0.1-0.2l-0.7-0.2l0-0.3c0.5,0,1,0,1.5,0c0.5,0,1,0,1.5,0l0,0.3l-0.7,0.2c-0.1,0-0.1,0.1-0.2,0.2
				c0,0.1,0,0.3,0,0.6S156.8,29.4,156.8,29.4z"/>
			<path class="st0" d="M167.7,35.7c-0.3,0.2-0.7,0.4-1,0.5s-0.7,0.1-1,0.1c-0.9,0-1.6-0.2-2.1-0.7s-0.8-1.2-0.8-2.1
				c0-0.9,0.3-1.6,0.8-2.2c0.5-0.6,1.2-0.8,2-0.8c0.7,0,1.3,0.2,1.6,0.6s0.6,1,0.6,1.7c0,0.1,0,0.2,0,0.3H164c0,0.9,0.2,1.5,0.6,1.8
				c0.4,0.4,1,0.6,1.9,0.6c0.4,0,0.8,0,1.2-0.1L167.7,35.7z M166.6,32.6v-0.2c0-0.6-0.1-1-0.3-1.2s-0.4-0.4-0.8-0.4
				c-0.5,0-0.8,0.2-1.1,0.5c-0.2,0.3-0.4,0.8-0.4,1.2H166.6z"/>
			<path class="st0" d="M174.2,31.2c0.3,0.3,0.5,0.7,0.5,1.2c0,0.6-0.2,1.1-0.7,1.5c-0.4,0.4-1,0.6-1.7,0.6c-0.4,0-0.7-0.1-1-0.2
				c-0.2,0.3-0.3,0.6-0.3,0.8c0,0.1,0.1,0.2,0.2,0.2c0.1,0,0.3,0.1,0.6,0.1c0.2,0,0.5,0,0.8,0c0.3,0,0.6,0,0.8,0
				c0.6,0,1.2,0.1,1.6,0.4c0.4,0.2,0.6,0.6,0.6,1.1c0,0.7-0.4,1.3-1.1,1.7c-0.7,0.4-1.5,0.6-2.4,0.6c-0.7,0-1.3-0.1-1.8-0.4
				c-0.4-0.2-0.7-0.5-0.7-0.9c0-0.5,0.3-1,1-1.5c-0.4-0.2-0.6-0.4-0.6-0.6c0-0.4,0.3-0.9,0.9-1.5c-0.6-0.4-0.9-0.9-0.9-1.6
				c0-0.6,0.2-1.1,0.7-1.5c0.5-0.4,1-0.6,1.7-0.6c0.2,0,0.4,0,0.8,0.1c0.3,0.1,0.5,0.1,0.7,0.1c0.6,0,1.2,0,1.7,0l0,0.2L174.2,31.2z
				 M171,36.3c-0.3,0.4-0.4,0.8-0.4,1.1c0,0.3,0.1,0.6,0.4,0.8c0.3,0.2,0.7,0.3,1.1,0.3c0.6,0,1.1-0.1,1.5-0.4
				c0.4-0.3,0.6-0.6,0.6-1.1c0-0.3-0.1-0.4-0.3-0.6c-0.2-0.1-0.6-0.2-1.2-0.2c-0.2,0-0.4,0-0.7,0c-0.2,0-0.5,0-0.7,0
				C171.3,36.3,171.2,36.3,171,36.3z M171.2,32.4c0,0.5,0.1,0.9,0.3,1.2c0.2,0.3,0.5,0.4,0.9,0.4c0.4,0,0.6-0.1,0.8-0.4
				c0.2-0.3,0.3-0.6,0.3-1.2c0-0.5-0.1-0.9-0.3-1.2c-0.2-0.3-0.5-0.4-0.9-0.4c-0.4,0-0.6,0.1-0.8,0.4
				C171.3,31.5,171.2,31.9,171.2,32.4z"/>
			<path class="st0" d="M177.6,30.9c0.8-0.3,1.5-0.5,2.1-0.5c0.6,0,1.1,0.2,1.4,0.5c0.4,0.3,0.5,0.8,0.5,1.4l0,2.5
				c0,0.2,0,0.4,0,0.5s0,0.2,0.1,0.3c0.1,0.1,0.1,0.1,0.3,0.1s0.3,0,0.5,0l0,0.2c-0.2,0.1-0.4,0.1-0.6,0.2c-0.2,0.1-0.4,0.1-0.5,0.1
				c-0.4,0-0.7-0.2-0.8-0.6c-0.6,0.4-1.1,0.6-1.6,0.6c-0.6,0-1-0.1-1.3-0.4c-0.3-0.3-0.5-0.7-0.5-1.2c0-0.6,0.3-1.1,0.8-1.4
				c0.5-0.3,1.4-0.4,2.6-0.4l0-0.5c0-0.4-0.1-0.8-0.3-1s-0.6-0.3-1.1-0.3c-0.4,0-0.8,0.1-1.4,0.2L177.6,30.9z M180.5,33.4
				c-0.8,0-1.4,0.1-1.7,0.3c-0.3,0.2-0.5,0.5-0.5,0.9c0,0.4,0.1,0.6,0.3,0.8c0.2,0.2,0.5,0.2,0.8,0.2c0.4,0,0.7-0.1,1-0.2
				L180.5,33.4z"/>
			<path class="st0" d="M184.2,27.7l0-0.2c0.7-0.1,1.4-0.3,1.9-0.4l0.1,0c0,0.6,0,1.5,0,2.7v3.9c0,0.7,0,1.3,0,1.7
				c0,0.1,0.1,0.2,0.2,0.2l0.6,0.2l0,0.2c-0.5,0-1,0-1.4,0c-0.4,0-0.9,0-1.4,0l0-0.2l0.7-0.2c0.1,0,0.2-0.1,0.2-0.2
				c0-0.4,0-0.9,0-1.5v-2.4c0-1.5,0-2.7,0-3.6L184.2,27.7z"/>
			<path class="st0" d="M199.8,29.8l-0.2,0l-0.4-1.6c-0.5-0.1-0.9-0.2-1.3-0.2c-1,0-1.7,0.3-2.3,1c-0.6,0.7-0.8,1.6-0.8,2.6
				c0,1.2,0.3,2.1,1,2.8c0.6,0.7,1.5,1,2.6,1c0.6,0,1.3-0.1,2-0.4l0.1,0.3c-0.8,0.5-1.7,0.8-2.7,0.8c-1.3,0-2.3-0.4-3.1-1.2
				c-0.8-0.8-1.2-1.8-1.2-3.1c0-1.4,0.4-2.4,1.3-3.2c0.9-0.8,2-1.2,3.4-1.2c0.7,0,1.4,0.1,2.1,0.2l0,0L199.8,29.8z"/>
			<path class="st0" d="M207.9,33.2c0,0.9-0.3,1.6-0.8,2.2c-0.5,0.6-1.2,0.8-2.1,0.8c-0.8,0-1.5-0.3-2-0.8c-0.5-0.5-0.8-1.2-0.8-2.1
				c0-0.9,0.3-1.6,0.8-2.1c0.5-0.6,1.2-0.8,2.1-0.8c0.8,0,1.5,0.3,2,0.8C207.7,31.7,207.9,32.4,207.9,33.2z M203.5,33.3
				c0,0.7,0.1,1.3,0.4,1.8c0.3,0.5,0.7,0.7,1.2,0.7c0.5,0,0.9-0.2,1.2-0.6c0.3-0.4,0.4-1,0.4-1.8c0-0.8-0.1-1.4-0.4-1.8
				c-0.3-0.4-0.7-0.7-1.2-0.7c-0.5,0-0.9,0.2-1.2,0.6S203.5,32.5,203.5,33.3z"/>
			<path class="st0" d="M210,30.8c0.7-0.1,1.3-0.3,1.9-0.4l0.1,0v0.7c0.7-0.5,1.3-0.7,1.9-0.7c0.6,0,1,0.2,1.3,0.5
				c0.3,0.3,0.5,0.8,0.5,1.3v2.1c0,0.5,0,0.9,0,1.1c0,0.1,0.1,0.2,0.2,0.2l0.7,0.2l0,0.2c-0.5,0-1,0-1.4,0c-0.4,0-0.8,0-1.3,0l0-0.2
				l0.6-0.2c0.1,0,0.1-0.1,0.1-0.2c0-0.1,0-0.2,0-0.4v-2.6c0-0.5-0.1-0.8-0.4-1.1c-0.2-0.2-0.6-0.3-1-0.3c-0.4,0-0.8,0.1-1.2,0.3
				v2.6c0,0.5,0,1,0,1.4c0,0.1,0,0.2,0.1,0.2l0.6,0.2l0,0.2c-0.5,0-0.9,0-1.3,0c-0.4,0-0.9,0-1.4,0l0-0.2l0.7-0.2
				c0.1,0,0.1-0.1,0.1-0.2c0-0.3,0-0.5,0-0.7v-2c0-0.5,0-1,0-1.4L210,31L210,30.8z"/>
			<path class="st0" d="M221.3,31c-0.2-0.1-0.5-0.1-0.8-0.1c-0.4,0-0.7,0.1-0.9,0.2c-0.2,0.1-0.3,0.3-0.3,0.6c0,0.2,0.1,0.4,0.2,0.6
				c0.1,0.1,0.4,0.3,0.8,0.4l0.5,0.2c0.5,0.2,0.9,0.4,1.2,0.6c0.3,0.2,0.4,0.6,0.4,0.9c0,0.6-0.2,1-0.6,1.3c-0.4,0.3-1,0.5-1.6,0.5
				c-0.6,0-1.2-0.1-1.9-0.4c0.1-0.5,0.2-1,0.3-1.5l0.2,0l0.4,1.3c0.2,0.1,0.5,0.1,0.9,0.1c0.4,0,0.7-0.1,0.9-0.2s0.3-0.4,0.3-0.6
				c0-0.3-0.1-0.5-0.2-0.6c-0.1-0.1-0.4-0.3-0.7-0.4l-0.6-0.2c-0.5-0.2-0.9-0.4-1.1-0.6c-0.2-0.3-0.3-0.6-0.3-0.9
				c0-0.5,0.2-0.9,0.6-1.2c0.4-0.3,0.9-0.4,1.6-0.4c0.6,0,1.2,0.1,1.6,0.3c-0.1,0.5-0.2,0.9-0.3,1.4l-0.2,0L221.3,31z"/>
			<path class="st0" d="M228.8,35.6c-0.6,0.5-1.2,0.7-1.9,0.7c-0.6,0-1.1-0.2-1.4-0.5c-0.3-0.3-0.5-0.8-0.5-1.3v-1.3
				c0-0.8,0-1.5,0-1.9l-0.8-0.2l0-0.2c0.7-0.1,1.3-0.3,1.9-0.4l0.1,0c0,0.5,0,1.1,0,1.8v1.9c0,0.5,0.1,0.8,0.3,1s0.5,0.3,1,0.3
				s0.8-0.1,1.3-0.3v-2.5c0-0.6,0-1,0-1.4L228,31l0-0.2c0.7-0.1,1.3-0.3,1.9-0.4l0.1,0c0,0.5,0,1.1,0,1.8c0,1.4,0,2.3,0,2.6
				c0,0.2,0,0.3,0,0.4s0.1,0.2,0.1,0.2c0.1,0.1,0.1,0.1,0.2,0.1c0.1,0,0.3,0,0.4,0l0,0.2c-0.2,0.1-0.4,0.1-0.6,0.2s-0.4,0.1-0.5,0.1
				C229.2,36.2,229,36,228.8,35.6z"/>
			<path class="st0" d="M232.6,27.7l0-0.2c0.7-0.1,1.4-0.3,1.9-0.4l0.1,0c0,0.6,0,1.5,0,2.7v3.9c0,0.7,0,1.3,0,1.7
				c0,0.1,0.1,0.2,0.2,0.2l0.6,0.2l0,0.2c-0.5,0-1,0-1.4,0c-0.4,0-0.9,0-1.4,0l0-0.2l0.7-0.2c0.1,0,0.2-0.1,0.2-0.2
				c0-0.4,0-0.9,0-1.5v-2.4c0-1.5,0-2.7,0-3.6L232.6,27.7z"/>
			<path class="st0" d="M239.1,31.2c0,1.3,0,2.4,0,3.2c0,0.4,0.1,0.7,0.2,0.9c0.1,0.2,0.4,0.2,0.7,0.2c0.3,0,0.6,0,1.1-0.1l0,0.3
				c-0.7,0.3-1.3,0.5-1.8,0.5c-0.4,0-0.8-0.1-1-0.3c-0.2-0.2-0.3-0.6-0.3-1.1c0-0.8,0-2,0-3.7l-0.8-0.2l0-0.2l0.9-0.1l0.4-1.4
				c0.2-0.1,0.4-0.1,0.6-0.2l0.1,0c0,0.5,0,0.9,0,1.3v0.2h1.8v0.6H239.1z"/>
			<path class="st0" d="M243.2,30.9c0.8-0.3,1.5-0.5,2.1-0.5c0.6,0,1.1,0.2,1.4,0.5c0.4,0.3,0.5,0.8,0.5,1.4l0,2.5
				c0,0.2,0,0.4,0,0.5s0,0.2,0.1,0.3c0.1,0.1,0.1,0.1,0.3,0.1s0.3,0,0.5,0l0,0.2c-0.2,0.1-0.4,0.1-0.6,0.2c-0.2,0.1-0.4,0.1-0.5,0.1
				c-0.4,0-0.7-0.2-0.8-0.6c-0.6,0.4-1.1,0.6-1.6,0.6c-0.6,0-1-0.1-1.3-0.4c-0.3-0.3-0.5-0.7-0.5-1.2c0-0.6,0.3-1.1,0.8-1.4
				c0.5-0.3,1.4-0.4,2.6-0.4l0-0.5c0-0.4-0.1-0.8-0.3-1s-0.6-0.3-1.1-0.3c-0.4,0-0.8,0.1-1.4,0.2L243.2,30.9z M246.1,33.4
				c-0.8,0-1.4,0.1-1.7,0.3c-0.3,0.2-0.5,0.5-0.5,0.9c0,0.4,0.1,0.6,0.3,0.8c0.2,0.2,0.5,0.2,0.8,0.2c0.4,0,0.7-0.1,1-0.2
				L246.1,33.4z"/>
			<path class="st0" d="M249.8,30.8c0.7-0.1,1.3-0.3,1.9-0.4l0.1,0v0.7c0.7-0.5,1.3-0.7,1.9-0.7c0.6,0,1,0.2,1.3,0.5
				c0.3,0.3,0.5,0.8,0.5,1.3v2.1c0,0.5,0,0.9,0,1.1c0,0.1,0.1,0.2,0.2,0.2l0.7,0.2l0,0.2c-0.5,0-1,0-1.4,0c-0.4,0-0.8,0-1.3,0l0-0.2
				l0.6-0.2c0.1,0,0.1-0.1,0.1-0.2c0-0.1,0-0.2,0-0.4v-2.6c0-0.5-0.1-0.8-0.4-1.1c-0.2-0.2-0.6-0.3-1-0.3c-0.4,0-0.8,0.1-1.2,0.3
				v2.6c0,0.5,0,1,0,1.4c0,0.1,0,0.2,0.1,0.2l0.6,0.2l0,0.2c-0.5,0-0.9,0-1.3,0c-0.4,0-0.9,0-1.4,0l0-0.2l0.7-0.2
				c0.1,0,0.1-0.1,0.1-0.2c0-0.3,0-0.5,0-0.7v-2c0-0.5,0-1,0-1.4l-0.8-0.2L249.8,30.8z"/>
			<path class="st0" d="M260,31.2c0,1.3,0,2.4,0,3.2c0,0.4,0.1,0.7,0.2,0.9c0.1,0.2,0.4,0.2,0.7,0.2c0.3,0,0.6,0,1.1-0.1l0,0.3
				c-0.7,0.3-1.3,0.5-1.8,0.5c-0.4,0-0.8-0.1-1-0.3c-0.2-0.2-0.3-0.6-0.3-1.1c0-0.8,0-2,0-3.7L258,31l0-0.2l0.9-0.1l0.4-1.4
				c0.2-0.1,0.4-0.1,0.6-0.2l0.1,0c0,0.5,0,0.9,0,1.3v0.2h1.8v0.6H260z"/>
		</g>
	</g>
	<g>
		<path class="st1" d="M44.1,9.2c0,0,0,0.1,0.1,0.1L44.1,9.2C44.2,9.2,44.1,9.2,44.1,9.2z"/>
		<path class="st1" d="M55.8,25.8c4.7-2.4,7-6.3,7-11.6c0-5.5-2.3-9.3-7-11.6c2.5,3.4,3.8,7.4,3.8,12C59.6,18.9,58.3,22.7,55.8,25.8
			z"/>
		<path class="st1" d="M66.2,41.6c-0.5,0.4-1,0.6-1.5,0.5c-2.4-0.1-5.3-2.7-8.9-7.7c-2.3-3.3-4.1-5.4-5.3-6.6
			c-0.3-0.3-0.7-0.6-1.1-0.9c1.7-0.6,3.2-1.6,4.4-3.1c2.1-2.4,3.2-5.6,3.2-9.6c0-3.9-1-7.2-2.9-9.8c-1.9-2.6-5-3.9-9.1-3.9
			c-1,0-7.9,0-7.9,0l0,3.5c1.3-0.3,2.8-0.3,4.3,0.2c0.8-0.5,1.9-0.7,3.4-0.7c3.1,0,5.4,1,6.9,3c1.5,2,2.2,4.6,2.2,7.6
			c0,2.9-0.7,5.4-2.2,7.4c-1.5,2-3.7,2.9-6.6,2.9c-1.8,0-3.5-0.4-5.1-1.2l0-14.5c-0.3-0.1-0.6-0.1-0.9-0.1c-1.1,0-1.7,0.4-1.9,0.6
			l0,36.2h8.2v-0.8c-1.9-0.3-3.3-0.9-4.1-2.7c-0.9-1.7-1.3-4.4-1.3-8.1v-7.4c0.7,0.4,1.4,0.9,2,1.6c1.1,1.2,2.7,3.4,4.9,6.6
			c1.5,2.2,2.8,4,3.8,5.4c1.1,1.4,2,2.5,2.7,3.2c1.3,1.3,2.9,2,4.8,2.1c0.6,0,1.3-0.1,2-0.3l0-0.3c-1.4-0.1-2.9-0.9-4.3-2.5
			c-1.5-1.6-3.4-4.1-5.8-7.5c-2.8-4.1-4.4-6.1-6.1-7.3c-0.3-0.2-0.6-0.4-1-0.5c1.1,0.1,2,0.3,2.9,0.6c2,0.8,3.8,2.6,6.1,5.9
			c2.8,4,5,6.7,6.4,8.1c1.5,1.5,3,2.3,4.5,2.3c1.4,0.1,2.5-0.5,3.3-1.7L66.2,41.6z"/>
		<path class="st1" d="M10.5,25.8C8,22.7,6.7,18.9,6.7,14.6C6.7,10,8,6,10.5,2.6c-4.7,2.3-7,6.1-7,11.6C3.5,19.5,5.8,23.4,10.5,25.8
			z"/>
		<path class="st1" d="M22.2,9.2L22.2,9.2C22.2,9.2,22.2,9.2,22.2,9.2C22.2,9.2,22.2,9.2,22.2,9.2z"/>
		<path class="st1" d="M26.3,9l0,14.2c-1.6,0.8-3.3,1.2-5.1,1.2c-2.9,0-5.1-1-6.6-2.9c-1.5-2-2.2-4.5-2.2-7.4c0-3.1,0.7-5.6,2.2-7.6
			c1.5-2,3.7-3,6.9-3c1.6,0,2.8,0.3,3.6,0.8C25.8,4.1,26.6,4,27.4,4c0.6,0,1.1,0.1,1.7,0.2l0-3.6c0,0-6.9,0-7.9,0
			c-4.1,0-7.2,1.3-9.1,3.9c-1.9,2.6-2.9,5.9-2.9,9.8c0,4,1.1,7.2,3.2,9.6c1.3,1.5,2.7,2.5,4.4,3.1c-0.4,0.3-0.8,0.5-1.1,0.9
			c-1.2,1.1-2.9,3.3-5.3,6.6c-3.6,5-6.5,7.6-8.9,7.7c-0.5,0-1-0.1-1.5-0.5L0,42.3c0.8,1.2,1.9,1.8,3.3,1.7c1.5-0.1,3-0.9,4.5-2.3
			c1.4-1.4,3.6-4.1,6.4-8.1c2.3-3.3,4.1-5.1,6.1-5.9c0.9-0.4,1.8-0.6,2.9-0.6c-0.3,0.2-0.6,0.3-1,0.5c-1.7,1.1-3.2,3.1-6.1,7.3
			c-2.4,3.4-4.3,5.9-5.8,7.5c-1.5,1.6-2.9,2.4-4.3,2.5l0,0.3c0.7,0.2,1.3,0.4,2,0.3c1.9-0.1,3.5-0.8,4.8-2.1
			c0.7-0.7,1.6-1.7,2.7-3.2c1.1-1.4,2.4-3.2,3.8-5.4c2.2-3.2,3.8-5.4,4.9-6.6c0.7-0.7,1.4-1.2,2-1.6v7.4c0,3.7-0.4,6.4-1.3,8.1
			c-0.8,1.8-2.2,2.4-4.1,2.7v0.8h8.2l0-35.9C28.9,9.4,28.3,9,27.3,9C26.9,9,26.7,8.9,26.3,9z"/>
		<path class="st1" d="M44.4,9.2c0.2,0.8,1,1.4,1.8,1.4c1.1,0,1.9-0.9,1.9-1.9c0-1.1-0.9-1.9-1.9-1.9c-0.6,0-1.2,0.3-1.5,0.8
			c-0.9-0.6-5.9-3.7-9.3-0.8c0,0,0,0,0,0C35,6.3,34.5,6,34,5.9c0-0.3,0.2-0.5,0.4-0.7c0,0,0,0,0,0c0.1,0,0.1-0.1,0.2-0.2
			c0,0,0.1-0.1,0.1-0.1c0-0.1,0.1-0.1,0.1-0.2c0,0,0.1-0.1,0.1-0.1c0,0,0-0.1,0-0.1c0,0,0,0,0-0.1C35,4.4,35,4.3,35,4.2c0,0,0,0,0,0
			c0-0.1,0-0.2,0.1-0.3c0,0,0,0,0-0.1c0-0.1,0-0.2,0-0.3c0,0,0,0,0-0.1c0-0.1,0-0.2-0.1-0.3c0,0,0-0.1,0-0.1c0-0.1-0.1-0.2-0.1-0.3
			l-1.5-2.7c0,0-0.1-0.1-0.1-0.1c0,0-0.1,0-0.1,0.1l-1.5,2.7c-0.1,0.1-0.1,0.2-0.1,0.3c0,0,0,0.1,0,0.1c0,0.1-0.1,0.2-0.1,0.3
			c0,0,0,0,0,0.1c0,0.1,0,0.2,0,0.3c0,0,0,0,0,0.1c0,0.1,0,0.2,0.1,0.3c0,0,0,0,0,0c0,0.1,0.1,0.2,0.1,0.3c0,0,0,0,0,0.1
			c0,0,0,0.1,0,0.1c0,0,0,0.1,0.1,0.1c0,0.1,0.1,0.1,0.1,0.2c0,0,0.1,0.1,0.1,0.1C31.9,5.1,32,5.1,32,5.2c0,0,0,0,0,0
			c0.2,0.2,0.4,0.4,0.4,0.7C31.9,6,31.4,6.3,31,6.8c0,0,0,0,0,0c-3.4-3-8.4,0.1-9.3,0.8c-0.3-0.5-0.9-0.8-1.5-0.8
			c-1.1,0-1.9,0.9-1.9,1.9c0,1.1,0.9,1.9,1.9,1.9c0.9,0,1.6-0.6,1.8-1.4c5-3.7,8-1.4,8.4-1.1c0,0.2-0.1,0.4-0.1,0.6c0,1.6,1.3,3,3,3
			c1.6,0,3-1.3,3-3c0-0.2,0-0.4-0.1-0.7C36.6,7.7,39.5,5.5,44.4,9.2z"/>
		<path class="st1" d="M20.2,11c-0.1,0-0.3,0.1-0.3,0.2L17,18.8h-1c0.5,1.8,2.2,3.2,4.2,3.2s3.6-1.3,4.2-3.2h-1c0,0,0,0,0,0
			l-2.8-7.6C20.4,11,20.3,11,20.2,11z M17.5,18.8l2.6-6.9l2.5,6.9H17.5z"/>
		<path class="st1" d="M42.1,18.8c0.5,1.8,2.2,3.2,4.2,3.2c2,0,3.6-1.3,4.2-3.2h-1c0,0,0,0,0,0l-2.8-7.6c0-0.1-0.2-0.2-0.3-0.2
			C46.2,11,46,11,46,11.2l-2.9,7.6H42.1z M46.3,11.9l2.5,6.9h-5.2L46.3,11.9z"/>
		<path class="st1" d="M31.8,16v29.4l2.8,0V16c0.9-0.5,1.6-1.5,1.6-2.6h-6C30.2,14.5,30.8,15.5,31.8,16z"/>
	</g>
	<line class="st2" x1="78.2" y1="0" x2="78.2" y2="45.4"/>
</g>
</svg>
