<?xml version="1.0" encoding="utf-8"?>
<!-- Generator: Adobe Illustrator 21.0.0, SVG Export Plug-In . SVG Version: 6.00 Build 0)  -->
<svg version="1.1" id="Layer_1" xmlns="http://www.w3.org/2000/svg" xmlns:xlink="http://www.w3.org/1999/xlink" x="0px" y="0px"
	 viewBox="0 0 24 24" style="enable-background:new 0 0 24 24;" xml:space="preserve">
<style type="text/css">
	.st0{fill:#0084FF;}
</style>
<g>
	<path class="st0" d="M12.4,1c1,0,1.9,0.2,2.8,0.5c0.9,0.3,1.8,0.7,2.6,1.1c0.8,0.5,1.5,1,2.1,1.7c0.6,0.7,1.2,1.4,1.6,2.2
		c0.5,0.8,0.8,1.7,1.1,2.6C22.9,10.1,23,11,23,12c0,1-0.1,1.9-0.4,2.9c-0.3,0.9-0.6,1.8-1.1,2.6c-0.5,0.8-1,1.5-1.6,2.2
		c-0.7,0.7-1.4,1.3-2.1,1.7c-0.8,0.5-1.6,0.9-2.5,1.1c-0.9,0.3-1.9,0.4-2.8,0.5c-0.1,0-0.2,0-0.4,0s-0.3,0-0.4,0
		c-1,0-1.9-0.2-2.8-0.5c-0.9-0.3-1.8-0.7-2.6-1.1c-0.8-0.5-1.5-1.1-2.1-1.7c-0.6-0.7-1.2-1.4-1.6-2.2c-0.5-0.8-0.8-1.6-1.1-2.6
		C1.1,13.9,1,13,1,12c0-1,0.1-1.9,0.4-2.9C1.6,8.2,2,7.3,2.4,6.6c0.5-0.8,1-1.5,1.6-2.2c0.7-0.7,1.4-1.2,2.1-1.7
		C7,2.2,7.8,1.8,8.7,1.5C9.7,1.2,10.6,1,11.6,1c0.1,0,0.2,0,0.4,0S12.3,1,12.4,1z M5.2,6.1C4,7.5,3.3,9.1,3,11h4
		c0.2-2.7,1.1-5.3,2.7-7.7C7.9,3.8,6.4,4.7,5.2,6.1z M3,13c0.2,1.9,0.9,3.5,2.2,4.9s2.7,2.3,4.5,2.8c-0.7-1-1.3-2.2-1.8-3.5
		S7.1,14.5,7,13H3z M11.3,4.5c-0.2,0.3-0.5,0.7-0.7,1.2s-0.5,1-0.7,1.5S9.5,8.3,9.4,9C9.2,9.7,9.1,10.3,9,11H15c0-0.7-0.2-1.3-0.3-2
		c-0.2-0.7-0.3-1.2-0.5-1.8s-0.4-1-0.7-1.5s-0.5-0.9-0.7-1.2c-0.2-0.3-0.4-0.6-0.7-0.9C11.8,3.8,11.5,4.2,11.3,4.5z M9,13
		c0,0.7,0.1,1.3,0.3,2c0.2,0.7,0.4,1.3,0.6,1.8s0.4,1,0.7,1.5s0.5,0.9,0.7,1.2c0.2,0.3,0.4,0.6,0.7,0.9c0.2-0.3,0.5-0.6,0.7-0.9
		c0.2-0.3,0.5-0.7,0.7-1.2s0.5-1,0.7-1.5c0.2-0.5,0.4-1.1,0.5-1.8c0.2-0.7,0.3-1.3,0.3-2H9z M14.3,3.3c1.6,2.4,2.5,5,2.7,7.7h4
		c-0.2-1.9-0.9-3.5-2.2-4.9S16.1,3.8,14.3,3.3z M21,13h-4c-0.2,2.7-1.1,5.3-2.7,7.7c1.8-0.5,3.3-1.4,4.5-2.8S20.7,14.9,21,13z"/>
</g>
</svg>
