<?xml version="1.0" encoding="utf-8"?>
<!-- Generator: Adobe Illustrator 21.0.0, SVG Export Plug-In . SVG Version: 6.00 Build 0)  -->
<svg version="1.1" id="Layer_1" xmlns="http://www.w3.org/2000/svg" xmlns:xlink="http://www.w3.org/1999/xlink" x="0px" y="0px"
	 viewBox="0 0 260 80" style="enable-background:new 0 0 260 80;" xml:space="preserve">
<g>
	<circle cx="167.5" cy="54.9" r="5"/>
	<g>
		<path d="M51.6,30.5v-6.1h6.6v6.1H51.6z M51.6,58.2V33.4h6.6v24.8H51.6z"/>
		<path d="M82.2,49.3c-0.2,1.4-0.6,2.8-1.2,3.9c-0.7,1.2-1.5,2.2-2.5,3s-2.2,1.5-3.5,2s-2.7,0.7-4.2,0.7c-1.7,0-3.2-0.3-4.6-0.8
			c-1.4-0.6-2.6-1.4-3.6-2.5s-1.8-2.5-2.3-4.2c-0.6-1.7-0.8-3.6-0.8-5.8s0.3-4.1,0.8-5.7c0.6-1.6,1.3-2.9,2.3-4c1-1,2.2-1.8,3.7-2.3
			c1.4-0.5,3-0.8,4.8-0.8c1.6,0,3.1,0.2,4.4,0.7c1.3,0.4,2.5,1.1,3.5,1.9c1,0.8,1.8,1.8,2.3,3c0.6,1.2,0.9,2.5,1,3.9h-6.6
			c-0.2-1.3-0.7-2.3-1.5-3c-0.9-0.7-1.9-1.1-3.2-1.1c-0.7,0-1.4,0.1-2,0.4c-0.6,0.2-1.1,0.6-1.6,1.2c-0.5,0.6-0.8,1.3-1.1,2.2
			c-0.3,0.9-0.4,2.1-0.4,3.4c0,2.7,0.5,4.7,1.5,6.1c1,1.3,2.1,2,3.4,2s2.4-0.4,3.3-1.1c0.9-0.7,1.4-1.7,1.6-3.1L82.2,49.3L82.2,49.3
			z"/>
		<path d="M98.4,58.2c-0.2-0.6-0.3-1.4-0.4-2.2c-0.8,0.9-1.8,1.6-3.1,2.1c-1.3,0.5-2.8,0.8-4.4,0.8c-2.9,0-5-0.6-6.3-1.9
			c-1.3-1.3-2-2.9-2-4.9c0-1.8,0.3-3.2,0.9-4.3s1.4-1.9,2.4-2.5s2.2-1.1,3.6-1.3c1.4-0.3,2.9-0.5,4.6-0.8c1.6-0.2,2.8-0.5,3.3-0.9
			c0.6-0.4,0.9-1,0.9-1.9c0-0.8-0.4-1.4-1.1-1.9C96,38,95,37.8,93.7,37.8c-1.5,0-2.6,0.3-3.3,1c-0.7,0.7-1.1,1.6-1.2,2.7H83
			c0-1.3,0.2-2.5,0.6-3.5c0.4-1.1,1-2,1.9-2.8s2-1.4,3.4-1.8c1.4-0.4,3.1-0.6,5-0.6s3.6,0.2,5,0.7s2.5,1.1,3.3,1.9
			c0.8,0.8,1.4,1.8,1.8,3.1c0.4,1.2,0.6,2.6,0.6,4.2v15.7h-6.2V58.2z M97.9,46.1c-0.3,0.3-0.8,0.6-1.5,0.8c-0.6,0.2-1.6,0.4-2.8,0.7
			c-1.9,0.4-3.2,0.8-3.9,1.4c-0.7,0.6-1.1,1.4-1.1,2.5c0,1.8,1.1,2.8,3.2,2.8c0.8,0,1.6-0.1,2.3-0.4c0.7-0.3,1.3-0.7,1.9-1.2
			c0.5-0.5,0.9-1.1,1.3-1.7c0.3-0.7,0.5-1.4,0.5-2.1L97.9,46.1z"/>
		<path d="M106.1,58.2V24.4h6.6v33.9h-6.6V58.2z"/>
		<path d="M129.7,58.2c-0.2-0.6-0.3-1.4-0.4-2.2c-0.8,0.9-1.8,1.6-3.1,2.1c-1.3,0.5-2.8,0.8-4.4,0.8c-2.9,0-5-0.6-6.3-1.9
			c-1.3-1.3-2-2.9-2-4.9c0-1.8,0.3-3.2,0.9-4.3s1.4-1.9,2.4-2.5s2.2-1.1,3.6-1.3c1.4-0.3,2.9-0.5,4.6-0.8c1.6-0.2,2.8-0.5,3.3-0.9
			c0.6-0.4,0.9-1,0.9-1.9c0-0.8-0.4-1.4-1.1-1.9c-0.8-0.5-1.8-0.7-3.1-0.7c-1.5,0-2.6,0.3-3.3,1c-0.7,0.7-1.1,1.6-1.2,2.7h-6.1
			c0-1.3,0.2-2.5,0.6-3.5c0.4-1.1,1-2,1.9-2.8s2-1.4,3.4-1.8c1.4-0.4,3.1-0.6,5-0.6s3.6,0.2,5,0.7c1.4,0.4,2.5,1.1,3.3,1.9
			c0.8,0.8,1.4,1.8,1.8,3.1c0.4,1.2,0.6,2.6,0.6,4.2v15.7h-6.3V58.2z M129.2,46.1c-0.3,0.3-0.8,0.6-1.5,0.8
			c-0.6,0.2-1.6,0.4-2.8,0.7c-1.9,0.4-3.2,0.8-3.9,1.4c-0.7,0.6-1.1,1.4-1.1,2.5c0,1.8,1.1,2.8,3.2,2.8c0.8,0,1.6-0.1,2.3-0.4
			c0.7-0.3,1.3-0.7,1.9-1.2c0.5-0.5,0.9-1.1,1.3-1.7c0.3-0.7,0.5-1.4,0.5-2.1L129.2,46.1z"/>
		<path d="M153.3,58.2v-15c0-1.9-0.3-3.2-1-3.9c-0.6-0.7-1.7-1-3.3-1c-3.4,0-5.1,1.9-5.1,5.7v14.2h-6.6V33.4h6.3V37
			c0.8-1.4,1.8-2.5,3.1-3.2s2.9-1.1,4.9-1.1c1.2,0,2.3,0.2,3.3,0.5c1,0.4,1.9,0.9,2.6,1.6c0.7,0.7,1.3,1.6,1.7,2.6s0.6,2.2,0.6,3.6
			v17.2C159.8,58.2,153.3,58.2,153.3,58.2z"/>
	</g>
	<g>
		<path d="M204.8,46.2c0.4-4,3.7-14.5,3.7-14.5c0-0.2-0.1-0.3-0.3-0.4l-6.1-1.2l0.3-1.7c1-5.4-2.5-10.6-7.9-11.6s-10.6,2.5-11.6,7.9
			l-0.3,1.7l-6.1-1.2c-0.2,0-0.3,0.1-0.4,0.2c0,0-1.1,12.3-2,15.7c-0.4,1.6-1.4,4.1-2.5,6.6c2.5,1.4,4.2,4.1,4.2,7.1
			c0,1-0.2,2-0.6,2.9l29.3,5.6c0.1,0,0.2,0,0.3-0.1s0.1-0.1,0.1-0.2C204.9,63.1,204.3,50.1,204.8,46.2z M184.8,54.5h-3.9V39.8h3.9
			V54.5z M184.8,38h-3.9v-3.6h3.9V38z M199.7,54.5H196v-1.8c-0.9,1.5-2.3,2.2-4.1,2.2c-0.9,0-1.8-0.2-2.6-0.5
			c-0.8-0.4-1.4-0.9-2-1.6s-1-1.5-1.3-2.5s-0.5-2.1-0.5-3.3c0-1.1,0.1-2.1,0.4-3.1c0.3-0.9,0.7-1.7,1.2-2.4s1.2-1.2,1.9-1.6
			c0.7-0.4,1.6-0.6,2.6-0.6c1.8,0,3.3,0.8,4.4,2.3v-7.3h3.8L199.7,54.5L199.7,54.5z M199.7,27.9l-0.3,1.7l-14.2-2.7l0.3-1.7
			c0.7-3.9,4.5-6.5,8.4-5.7C197.9,20.2,200.4,24,199.7,27.9z"/>
		<path d="M192.8,42.7c-2.2,0-3.3,1.5-3.3,4.5c0,1.3,0.3,2.4,0.9,3.2c0.6,0.8,1.4,1.2,2.4,1.2c0.9,0,1.7-0.4,2.3-1.2s0.9-1.8,0.9-3
			C196.1,44.3,195,42.7,192.8,42.7z"/>
	</g>
</g>
</svg>
