<?xml version="1.0" encoding="utf-8"?>
<!-- Generator: Adobe Illustrator 21.0.0, SVG Export Plug-In . SVG Version: 6.00 Build 0)  -->
<svg version="1.1" id="Layer_1" xmlns="http://www.w3.org/2000/svg" xmlns:xlink="http://www.w3.org/1999/xlink" x="0px" y="0px"
	 viewBox="0 0 62.6 62.6" style="enable-background:new 0 0 62.6 62.6;" xml:space="preserve">
<style type="text/css">
	.st0{fill:#FFFFFF;}
</style>
<g>
	<path class="st0" d="M13.6,29.1v4.4H2.5v-4.4H13.6z M20.4,17.2l-3.2,3.2l-7.8-7.9l3.1-3.1L20.4,17.2z M20.4,45.4l-7.9,7.8l-3.1-3.1
		l7.8-7.9L20.4,45.4z M39.1,17.9c2.4,1.4,4.3,3.3,5.6,5.6c1.4,2.4,2.1,5,2.1,7.8c0,2.8-0.7,5.4-2.1,7.8c-1.4,2.4-3.3,4.3-5.6,5.6
		c-2.4,1.4-5,2.1-7.8,2.1c-2.8,0-5.4-0.7-7.8-2.1c-2.4-1.4-4.3-3.3-5.6-5.6c-1.4-2.4-2.1-5-2.1-7.8c0-2.8,0.7-5.4,2.1-7.8
		c1.4-2.4,3.3-4.3,5.6-5.6c2.4-1.4,5-2.1,7.8-2.1C34.1,15.8,36.7,16.5,39.1,17.9z M25.7,21.7c-1.7,1-3,2.3-4,4
		c-1,1.7-1.5,3.5-1.5,5.6c0,2,0.5,3.9,1.5,5.6c1,1.7,2.3,3,4,4c1.7,1,3.5,1.5,5.6,1.5c2,0,3.9-0.5,5.6-1.5c1.7-1,3-2.3,4-4
		c1-1.7,1.5-3.5,1.5-5.6c0-2-0.5-3.9-1.5-5.6c-1-1.7-2.3-3-4-4c-1.7-1-3.5-1.5-5.6-1.5C29.3,20.2,27.4,20.7,25.7,21.7z M33.5,2.5
		v11.1h-4.4V2.5H33.5z M33.5,49V60h-4.4V49H33.5z M53.2,12.5l-7.8,7.9l-3.2-3.2l7.9-7.8L53.2,12.5z M53.2,50.1l-3.1,3.1l-7.9-7.8
		l3.2-3.2L53.2,50.1z M60,29.1v4.4H49v-4.4H60z"/>
</g>
</svg>
