<?xml version="1.0" encoding="utf-8"?>
<!-- Generator: Adobe Illustrator 21.0.0, SVG Export Plug-In . SVG Version: 6.00 Build 0)  -->
<svg version="1.1" id="Layer_1" xmlns="http://www.w3.org/2000/svg" xmlns:xlink="http://www.w3.org/1999/xlink" x="0px" y="0px"
	 viewBox="0 0 83 71" style="enable-background:new 0 0 83 71;" xml:space="preserve">
<style type="text/css">
	.st0{fill:none;}
	.st1{fill:#FB474D;}
	.st2{fill:#0982F9;}
</style>
<g>
	<path class="st0" d="M46.2,47.5l-10.3,5c-0.3,0.1-0.6,0.3-0.9,0.4c-0.1,0-0.2,0.1-0.3,0.1c-0.2,0.1-0.4,0.1-0.6,0.2
		c-0.1,0-0.3,0-0.4,0.1c-0.2,0-0.4,0.1-0.6,0.1c-0.1,0-0.3,0-0.4,0c-0.2,0-0.4,0-0.5,0c-0.2,0-0.4,0-0.6,0c-0.1,0-0.3,0-0.4,0
		c-0.2,0-0.4-0.1-0.6-0.1c-0.1,0-0.2,0-0.4-0.1c-0.2-0.1-0.4-0.1-0.7-0.2c-0.1,0-0.2-0.1-0.3-0.1c-0.3-0.1-0.6-0.3-0.9-0.4
		l-14.6-7.6L4,49.4c-0.5,0.3-0.6,0.7-0.6,0.9c0,0.2,0,0.7,0.6,1l25.8,13.4c1.4,0.7,3.2,0.8,4.6,0.1L46.2,59"/>
	<path d="M34.3,64.7c-1.5,0.7-3.2,0.7-4.6-0.1L4,51.2c-0.5-0.3-0.6-0.8-0.6-1c0-0.2,0.1-0.7,0.6-0.9l9.5-4.6l14.6,7.6L9.7,42.8
		l-7,3.4c-1.4,0.7-2.5,2-2.7,3.6c-0.2,1.9,0.7,3.6,2.4,4.5l25.8,13.4c1.2,0.6,2.6,1,4,1c1.3,0,2.5-0.3,3.7-0.8l9.4-4.5
		c0.6-0.3,1-0.9,1-1.5v0c0-1.3-1.3-2.1-2.5-1.5L34.3,64.7z"/>
	<polygon points="46.2,47.5 46.2,47.5 35.8,52.5 	"/>
	<path d="M58,29.8l-3.3-1.7l-18.9,9.1L50.9,30l5.5,2.9c0.4,0.2,0.8,0.2,1.2,0.1l0,0C59.1,32.7,59.4,30.6,58,29.8z"/>
	<path d="M29.1,52.8c0.1,0,0.2,0.1,0.3,0.1c0.2,0.1,0.4,0.1,0.7,0.2c0.1,0,0.2,0,0.4,0.1c0.2,0,0.4,0.1,0.6,0.1c0.1,0,0.3,0,0.4,0
		c0.2,0,0.4,0,0.6,0c0.2,0,0.4,0,0.5,0c0.1,0,0.3,0,0.4,0c0.2,0,0.4-0.1,0.6-0.1c0.1,0,0.3,0,0.4-0.1c0.2,0,0.4-0.1,0.6-0.2
		c0.1,0,0.2-0.1,0.3-0.1c0.3-0.1,0.6-0.2,0.9-0.4l9.4-4.5c0.6-0.3,1-0.9,1-1.5v0c0-1.3-1.3-2.1-2.5-1.5l-9.4,4.5
		C33.6,49.8,32.8,50,32,50c-0.8,0-1.6-0.2-2.3-0.6L4,36c-0.5-0.3-0.6-0.8-0.6-1c0-0.2,0.1-0.7,0.6-0.9l9.5-4.6L28,37.1L9.7,27.6
		l-7,3.4c-1.4,0.7-2.5,2-2.7,3.6c-0.2,1.9,0.7,3.6,2.4,4.5l7.3,3.8l18.4,9.6C28.5,52.6,28.8,52.7,29.1,52.8z"/>
	<path d="M62,16.7L36.4,3.3C34,2.1,31.1,2,28.7,3.2l-5.9,2.9c-1.3,0.6-1.3,2.4,0,3.1l0,0c0.5,0.2,1,0.3,1.5,0l5.9-2.9
		c0.7-0.3,1.5-0.5,2.2-0.5c0.8,0,1.6,0.2,2.4,0.6l25.7,13.4c0.5,0.3,0.6,0.8,0.6,1c0,0.2-0.1,0.7-0.6,0.9l-9.5,4.6l-16.6,8
		c-1.5,0.7-3.2,0.7-4.6-0.1L4,20.7c-0.5-0.3-0.6-0.8-0.6-1c0-0.2,0.1-0.7,0.6-0.9L14,14c1.3-0.6,1.3-2.4,0-3.1l0,0
		c-0.5-0.2-1-0.3-1.5,0l-10,4.8C1,16.5,0,18,0,19.7c0,1.7,0.9,3.3,2.4,4l7.3,3.8L28,37.1l0.1,0.1c0.3,0.2,0.6,0.3,0.9,0.4
		c0.1,0,0.2,0.1,0.4,0.1c0.2,0.1,0.4,0.1,0.6,0.2c0.1,0,0.3,0.1,0.4,0.1c0.2,0,0.4,0.1,0.5,0.1c0.2,0,0.3,0,0.5,0c0.2,0,0.4,0,0.5,0
		c0.2,0,0.4,0,0.6,0c0.1,0,0.3,0,0.4,0c0.2,0,0.4-0.1,0.6-0.1c0.1,0,0.2,0,0.4-0.1c0.2,0,0.4-0.1,0.6-0.2c0.1,0,0.2-0.1,0.3-0.1
		c0.3-0.1,0.6-0.2,0.9-0.4l18.9-9.1l7-3.4c1.4-0.7,2.5-2,2.6-3.6C64.6,19.3,63.7,17.5,62,16.7z"/>
	<circle class="st1" cx="18.7" cy="10.1" r="2"/>
	<g>
		<g>
			<path class="st2" d="M62.2,54.4c-5,0-9.1-4.1-9.1-9.1s4.1-9.1,9.1-9.1s9.1,4.1,9.1,9.1S67.2,54.4,62.2,54.4z M62.2,38.9
				c-3.5,0-6.4,2.9-6.4,6.4c0,3.5,2.9,6.4,6.4,6.4c3.5,0,6.4-2.9,6.4-6.4C68.6,41.8,65.8,38.9,62.2,38.9z"/>
		</g>
		<path class="st2" d="M75.4,62.6c-1.2-6.2-6.6-10.9-13.1-10.9c-4.6,0-8.6,2.3-11,5.8c-0.6,0.9,0,2.1,1.1,2.1h0
			c0.4,0,0.8-0.2,1.1-0.6c1.9-2.8,5.2-4.7,8.8-4.7c5.2,0,9.6,3.8,10.5,8.7c0.1,0.7,0.8,1.3,1.6,1.1C75.1,64,75.5,63.3,75.4,62.6z"/>
		<circle class="st2" cx="50.2" cy="61.9" r="1.6"/>
		<g>
			<path class="st2" d="M62.2,64.2L62.2,64.2c-0.7,0-1.3-0.6-1.3-1.3v-3.8c0-0.7,0.6-1.3,1.3-1.3l0,0c0.7,0,1.3,0.6,1.3,1.3v3.8
				C63.6,63.6,63,64.2,62.2,64.2z"/>
		</g>
	</g>
</g>
</svg>
