<?xml version="1.0" encoding="utf-8"?>
<!-- Generator: Adobe Illustrator 21.0.0, SVG Export Plug-In . SVG Version: 6.00 Build 0)  -->
<svg version="1.1" id="Layer_1" xmlns="http://www.w3.org/2000/svg" xmlns:xlink="http://www.w3.org/1999/xlink" x="0px" y="0px"
	 viewBox="0 0 100 100" style="enable-background:new 0 0 100 100;" xml:space="preserve">
<style type="text/css">
	.st0{fill:url(#SVGID_1_);}
	.st1{fill:url(#SVGID_2_);}
	.st2{fill:url(#SVGID_3_);}
	.st3{fill:url(#SVGID_4_);}
	.st4{fill:url(#SVGID_5_);}
	.st5{fill:url(#SVGID_6_);}
	.st6{fill:url(#SVGID_7_);}
</style>
<g>
	<path d="M93.2,94.6H6.8c-1.5,0-2.7,1.2-2.7,2.7s1.2,2.7,2.7,2.7h86.4c1.5,0,2.7-1.2,2.7-2.7S94.7,94.6,93.2,94.6z"/>
</g>
<path d="M88.6,2.6C88.6,1.2,87.4,0,86,0l0,0l-8.6,0.1c-1.5,0-2.8,1.3-2.8,2.8c0,0.7,0.3,1.4,0.8,2c0.5,0.5,1.3,0.8,2,0.8h1.7
	C55,29.1,24.5,38.9,15.6,41.4c-1.4,0.4-2.3,1.9-2,3.3c0.2,0.7,0.6,1.4,1.3,1.8c0.4,0.3,0.9,0.4,1.4,0.4c0.2,0,0.5,0,0.7-0.1
	c11.7-3.2,41.3-13.2,65.9-37.2V11c0,1.5,1.3,2.8,2.8,2.8l0,0c0.7,0,1.4-0.3,2-0.8c0.5-0.5,0.8-1.2,0.8-2L88.6,2.6z"/>
<linearGradient id="SVGID_1_" gradientUnits="userSpaceOnUse" x1="4.962" y1="49.1413" x2="9.638" y2="46.0587">
	<stop  offset="0" style="stop-color:#0EB3E9"/>
	<stop  offset="0.4946" style="stop-color:#4979FD"/>
	<stop  offset="1" style="stop-color:#4254F7"/>
</linearGradient>
<circle class="st0" cx="7.3" cy="47.6" r="2.8"/>
<g>
	<linearGradient id="SVGID_2_" gradientUnits="userSpaceOnUse" x1="17.7765" y1="93.9594" x2="141.0265" y2="12.7094">
		<stop  offset="0" style="stop-color:#0EB3E9"/>
		<stop  offset="0.4946" style="stop-color:#4979FD"/>
		<stop  offset="1" style="stop-color:#4254F7"/>
	</linearGradient>
	<path class="st1" d="M85.1,64.3L85.1,64.3c1.5,0,2.7-1.2,2.7-2.7V35.3c0-2.7-2.2-4.9-4.9-4.9H71c-2.7,0-4.9,2.2-4.9,4.9v51.2
		c0,1.6,1.4,2.8,3,2.7c1.4-0.1,2.4-1.4,2.4-2.8V35.8h10.9v25.8C82.4,63.1,83.6,64.3,85.1,64.3z"/>
	<linearGradient id="SVGID_3_" gradientUnits="userSpaceOnUse" x1="31.4303" y1="114.6712" x2="154.6803" y2="33.4212">
		<stop  offset="0" style="stop-color:#0EB3E9"/>
		<stop  offset="0.4946" style="stop-color:#4979FD"/>
		<stop  offset="1" style="stop-color:#4254F7"/>
	</linearGradient>
	<path class="st2" d="M82.4,72v14.4c0,1.4,1,2.7,2.4,2.8c1.6,0.2,3-1.1,3-2.7V72c0-1.5-1.2-2.7-2.7-2.7l0,0
		C83.6,69.4,82.4,70.6,82.4,72z"/>
</g>
<g>
	<linearGradient id="SVGID_4_" gradientUnits="userSpaceOnUse" x1="20.0305" y1="97.3786" x2="143.2805" y2="16.1286">
		<stop  offset="0" style="stop-color:#0EB3E9"/>
		<stop  offset="0.4946" style="stop-color:#4979FD"/>
		<stop  offset="1" style="stop-color:#4254F7"/>
	</linearGradient>
	<path class="st3" d="M41.9,76.7c-1.5,0-2.7,1.2-2.7,2.7v7.1c0,1.6,1.4,2.8,3,2.7c1.4-0.1,2.4-1.4,2.4-2.8v-7
		C44.6,77.9,43.4,76.7,41.9,76.7L41.9,76.7z"/>
	<linearGradient id="SVGID_5_" gradientUnits="userSpaceOnUse" x1="15.7549" y1="90.8929" x2="139.0049" y2="9.6429">
		<stop  offset="0" style="stop-color:#0EB3E9"/>
		<stop  offset="0.4946" style="stop-color:#4979FD"/>
		<stop  offset="1" style="stop-color:#4254F7"/>
	</linearGradient>
	<path class="st4" d="M55.9,46.4H44.1c-2.7,0-4.9,2.2-4.9,4.9v19.6c0,1.5,1.2,2.7,2.7,2.7l0,0c1.5,0,2.7-1.2,2.7-2.7V51.8h10.8v34.6
		c0,1.4,1,2.7,2.4,2.8c1.6,0.2,3-1.1,3-2.7V51.3C60.8,48.6,58.6,46.4,55.9,46.4z"/>
</g>
<linearGradient id="SVGID_6_" gradientUnits="userSpaceOnUse" x1="13.2758" y1="87.1323" x2="136.5258" y2="5.8823">
	<stop  offset="0" style="stop-color:#0EB3E9"/>
	<stop  offset="0.4946" style="stop-color:#4979FD"/>
	<stop  offset="1" style="stop-color:#4254F7"/>
</linearGradient>
<path class="st5" d="M14.9,82.8c-1.5,0-2.7,1.2-2.7,2.7v1.1c0,1.6,1.4,2.8,3,2.7c1.4-0.1,2.4-1.4,2.4-2.8v-0.9
	C17.6,84,16.4,82.8,14.9,82.8L14.9,82.8z"/>
<linearGradient id="SVGID_7_" gradientUnits="userSpaceOnUse" x1="10.0158" y1="82.1871" x2="133.2658" y2="0.9371">
	<stop  offset="0" style="stop-color:#0EB3E9"/>
	<stop  offset="0.4946" style="stop-color:#4979FD"/>
	<stop  offset="1" style="stop-color:#4254F7"/>
</linearGradient>
<path class="st6" d="M29,56.8H17.1c-2.7,0-4.9,2.2-4.9,4.9V77c0,1.5,1.2,2.7,2.7,2.7l0,0c1.5,0,2.7-1.2,2.7-2.7V62.2h10.8v24.4
	c0,1.5,1.2,2.7,2.7,2.7h0.2c1.5,0,2.7-1.2,2.7-2.7V61.7C33.9,59,31.7,56.8,29,56.8z"/>
</svg>
