<?xml version="1.0" encoding="utf-8"?>
<!-- Generator: Adobe Illustrator 21.0.0, SVG Export Plug-In . SVG Version: 6.00 Build 0)  -->
<svg version="1.1" id="Layer_1" xmlns="http://www.w3.org/2000/svg" xmlns:xlink="http://www.w3.org/1999/xlink" x="0px" y="0px"
	 viewBox="0 0 100 100" style="enable-background:new 0 0 100 100;" xml:space="preserve">
<style type="text/css">
	.st0{fill:url(#SVGID_1_);}
	.st1{fill:url(#SVGID_2_);}
	.st2{fill:url(#SVGID_3_);}
	.st3{fill:url(#SVGID_4_);}
</style>
<g>
	<path d="M87.3,69.4H59.2c-1.2,0-2.1,0.9-2.1,2.1s0.9,2.1,2.1,2.1h2.2v13.5c0,1.2,0.8,2.1,2,2.3c0.6,0.1,1.2-0.1,1.6-0.5
		c0.5-0.4,0.7-1,0.7-1.6V73.7h4.6l8.5,13c0.6,0.9,1.8,1.4,2.8,0.8c0.5-0.3,0.9-0.7,1.1-1.3c0.2-0.6,0.1-1.2-0.3-1.7l-7-10.9h12
		c0.6,0,1.2-0.3,1.6-0.7c0.4-0.4,0.6-1,0.5-1.6C89.4,70.2,88.5,69.4,87.3,69.4z"/>
	
		<linearGradient id="SVGID_1_" gradientUnits="userSpaceOnUse" x1="21.1086" y1="35.9775" x2="66.7752" y2="37.8109" gradientTransform="matrix(1 0 0 -1 0 100)">
		<stop  offset="0" style="stop-color:#0EB3E9"/>
		<stop  offset="0.4946" style="stop-color:#4979FD"/>
		<stop  offset="1" style="stop-color:#4254F7"/>
	</linearGradient>
	<path class="st0" d="M50.5,87c-1.6-8.3-7.1-15.1-14.9-18.3l-0.9-0.4l0.8-0.5c4.6-3.1,7.3-8.3,7.3-13.8c0-9.2-7.5-16.7-16.7-16.7
		c-9.2,0-16.7,7.5-16.7,16.7c0,5.6,2.6,10.5,7.2,13.7l0.8,0.5l-0.9,0.4c-4.5,1.9-8.3,5-11.1,9C5,78.2,5,79,5.3,79.7
		c0.4,0.7,1,1,1.8,1c0.7,0,1.3-0.3,1.7-0.9c3.9-5.7,10.3-9.1,17.2-9.1c10,0,18.6,7.2,20.5,17c0.3,1.2,1.3,1.9,2.5,1.7
		c0.5-0.1,1-0.4,1.2-0.9C50.5,88.1,50.6,87.5,50.5,87L50.5,87z M13.4,54c0-7,5.7-12.7,12.7-12.7c7,0,12.7,5.7,12.7,12.7
		s-5.7,12.7-12.7,12.7C19.1,66.7,13.4,61,13.4,54z"/>
	
		<linearGradient id="SVGID_2_" gradientUnits="userSpaceOnUse" x1="21.9404" y1="15.2563" x2="67.6071" y2="17.0896" gradientTransform="matrix(1 0 0 -1 0 100)">
		<stop  offset="0" style="stop-color:#0EB3E9"/>
		<stop  offset="0.4946" style="stop-color:#4979FD"/>
		<stop  offset="1" style="stop-color:#4254F7"/>
	</linearGradient>
	<circle class="st1" cx="3.1" cy="85.5" r="2.5"/>
	
		<linearGradient id="SVGID_3_" gradientUnits="userSpaceOnUse" x1="21.9133" y1="15.932" x2="67.58" y2="17.7654" gradientTransform="matrix(1 0 0 -1 0 100)">
		<stop  offset="0" style="stop-color:#0EB3E9"/>
		<stop  offset="0.4946" style="stop-color:#4979FD"/>
		<stop  offset="1" style="stop-color:#4254F7"/>
	</linearGradient>
	<path class="st2" d="M26.1,78.3c-1.1,0-2,0.9-2,2v7.2c0,1.1,0.9,2,2,2s2-0.9,2-2v-7.2C28.1,79.2,27.2,78.3,26.1,78.3z"/>
	<path d="M95.4,11H62.3V2.7c0-1.2-0.8-2.1-2-2.3c-0.6-0.1-1.2,0.1-1.6,0.5c-0.5,0.4-0.7,1-0.7,1.6v8.4H24.9c-2.2,0-4,1.8-4,4v11.6
		c0,1.2,0.9,2.1,2.1,2.1s2.1-0.9,2.1-2.1V15.3H95v23.4c0.1,1.2,1.1,2.2,2.3,2.2c1.2,0,2.1-0.9,2.1-2.1V15C99.4,12.8,97.6,11,95.4,11
		z"/>
	<path d="M97.3,53.7c-1.2,0-2.2,1-2.2,2.1v2.9H52.5c-1.2,0-2.1,0.9-2.1,2.1s0.9,2.1,2.1,2.1h42.9c2.2,0,4-1.8,4-4v-3.1
		C99.4,54.6,98.5,53.7,97.3,53.7z"/>
	
		<linearGradient id="SVGID_4_" gradientUnits="userSpaceOnUse" x1="20.5689" y1="49.4199" x2="66.2356" y2="51.2532" gradientTransform="matrix(1 0 0 -1 0 100)">
		<stop  offset="0" style="stop-color:#0EB3E9"/>
		<stop  offset="0.4946" style="stop-color:#4979FD"/>
		<stop  offset="1" style="stop-color:#4254F7"/>
	</linearGradient>
	<circle class="st3" cx="97.3" cy="47.5" r="2.1"/>
	<path d="M82.7,36.4c0-1.1-0.9-2-2-2c-1.1,0-2,0.9-2,2v10.7c0,1.1,0.9,2,2,2s2-0.9,2-2V36.4z"/>
	<path d="M70.7,25.2c0-1.1-0.9-2-2-2c0,0-0.1,0-0.1,0c-0.5,0-0.9,0.2-1.2,0.5c-0.4,0.4-0.7,0.9-0.7,1.5v22c0,1.1,0.9,2,2,2
		s2-0.9,2-2V25.2z"/>
	<path d="M58.6,47.2V28.6c0-1.1-0.9-2-2-2c0,0-0.1,0-0.1,0c-0.5,0-0.9,0.2-1.2,0.5c-0.4,0.4-0.7,0.9-0.7,1.5v18.6c0,1.1,0.9,2,2,2
		S58.6,48.3,58.6,47.2z"/>
</g>
</svg>
