<?xml version="1.0" encoding="utf-8"?>
<!-- Generator: Adobe Illustrator 21.0.0, SVG Export Plug-In . SVG Version: 6.00 Build 0)  -->
<svg version="1.1" id="Layer_1" xmlns="http://www.w3.org/2000/svg" xmlns:xlink="http://www.w3.org/1999/xlink" x="0px" y="0px"
	 viewBox="0 0 100 100" style="enable-background:new 0 0 100 100;" xml:space="preserve">
<style type="text/css">
	.st0{fill:#0982F9;}
	.st1{fill:#FB474D;}
</style>
<g>
	<g>
		<g>
			<path d="M54.6,29.5H37.5c-1.5,0-2.7-1.2-2.7-2.7v0c0-1.5,1.2-2.7,2.7-2.7h17.1c1.5,0,2.7,1.2,2.7,2.7v0
				C57.3,28.3,56.1,29.5,54.6,29.5z"/>
		</g>
		<g>
			<path d="M66.4,41.6H37.5c-1.5,0-2.7-1.2-2.7-2.7v0c0-1.5,1.2-2.7,2.7-2.7h28.9c1.5,0,2.7,1.2,2.7,2.7v0
				C69.1,40.4,67.9,41.6,66.4,41.6z"/>
		</g>
	</g>
	<path class="st0" d="M62.9,54.4h-37c-3.4,0-6.2,2.8-6.2,6.2v8L12,63.1c-2.3-1.6-5.3,0.1-5.3,2.8v22.5c0,2.7,3.1,4.4,5.3,2.8
		l7.8-5.4v8c0,3.4,2.8,6.2,6.2,6.2h3.8c1.5,0,2.8-1.2,2.8-2.8l0,0c0-1.5-1.2-2.8-2.8-2.8h-3.8c-0.3,0-0.6-0.3-0.6-0.6V82v-9.6V60.5
		c0-0.3,0.3-0.6,0.6-0.6h37c0.3,0,0.6,0.3,0.6,0.6v5c0,0.3-0.3,0.6-0.6,0.6h-5.1c-1.3,0-2.3,1-2.3,2.3v25.3c0,0.3-0.3,0.6-0.6,0.6
		H42c-1.5,0-2.8,1.2-2.8,2.8l0,0c0,1.5,1.2,2.8,2.8,2.8h12.9c3.4,0,6.2-2.8,6.2-6.2V71.7h1.9c3.4,0,6.2-2.8,6.2-6.2v-5
		C69.1,57.1,66.3,54.4,62.9,54.4z M19.8,79.1l-7.6,5.2V70l7.6,5.2V79.1z"/>
	<circle class="st1" cx="90.2" cy="73" r="3.2"/>
	<g>
		<path d="M77.1,28.5h10.7v33.4c0,1.5,1.2,2.8,2.8,2.8h0c1.5,0,2.8-1.2,2.8-2.8V28.5c0-2.5-1-4.9-2.8-6.7l-5.4-5.4L71.6,2.8
			C69.8,1,67.4,0,64.9,0h0H32c-6.7,0-12.2,5.5-12.2,12.2V44c0,1.5,1,2.8,2.5,2.9c1.7,0.2,3.1-1.1,3.1-2.8v-32c0-3.7,3-6.7,6.7-6.7
			h32.9v10.7C64.9,23,70.4,28.5,77.1,28.5z M70.4,9.5l13.4,13.4h-6.8c-3.7,0-6.7-3-6.7-6.7V9.5z"/>
		<path d="M87.8,83.7v4c0,3.7-3,6.7-6.7,6.7H70c-1.5,0-2.8,1-2.9,2.5c-0.2,1.7,1.1,3.1,2.8,3.1h11.3c6.7,0,12.2-5.5,12.2-12.2v-4
			c0-1.5-1.2-2.8-2.8-2.8h0C89.1,81,87.8,82.2,87.8,83.7z"/>
	</g>
</g>
</svg>
