<?xml version="1.0" encoding="utf-8"?>
<!-- Generator: Adobe Illustrator 21.0.0, SVG Export Plug-In . SVG Version: 6.00 Build 0)  -->
<svg version="1.1" id="Layer_1" xmlns="http://www.w3.org/2000/svg" xmlns:xlink="http://www.w3.org/1999/xlink" x="0px" y="0px"
	 viewBox="0 0 100 100" style="enable-background:new 0 0 100 100;" xml:space="preserve">
<style type="text/css">
	.st0{fill:url(#SVGID_1_);}
	.st1{fill:url(#SVGID_2_);}
	.st2{fill:url(#SVGID_3_);}
	.st3{fill:url(#SVGID_4_);}
	.st4{fill:url(#SVGID_5_);}
</style>
<g>
	<linearGradient id="SVGID_1_" gradientUnits="userSpaceOnUse" x1="29.65" y1="51.95" x2="68.15" y2="51.95">
		<stop  offset="0" style="stop-color:#0EB3E9"/>
		<stop  offset="0.4946" style="stop-color:#4979FD"/>
		<stop  offset="1" style="stop-color:#4254F7"/>
	</linearGradient>
	<path class="st0" d="M60.3,22H37.5c-4.3,0-7.8,3.5-7.8,7.8v44.3c0,4.3,3.5,7.9,7.8,7.9h22.8c4.3,0,7.9-3.5,7.9-7.9V29.8
		C68.2,25.5,64.6,22,60.3,22z M34.2,29.8c0-1.8,1.5-3.3,3.3-3.3h22.8c1.8,0,3.4,1.5,3.4,3.3v44.3c0,1.8-1.5,3.4-3.4,3.4H37.5
		c-1.8,0-3.3-1.5-3.3-3.4V29.8z"/>
	<linearGradient id="SVGID_2_" gradientUnits="userSpaceOnUse" x1="51.95" y1="36.8" x2="59.15" y2="36.8">
		<stop  offset="0" style="stop-color:#0EB3E9"/>
		<stop  offset="0.4946" style="stop-color:#4979FD"/>
		<stop  offset="1" style="stop-color:#4254F7"/>
	</linearGradient>
	<path class="st1" d="M54.2,39h2.7c1.2,0,2.3-1,2.3-2.3s-1-2.3-2.3-2.3h-2.7c-1.2,0-2.3,1-2.3,2.3S53,39,54.2,39z"/>
	<linearGradient id="SVGID_3_" gradientUnits="userSpaceOnUse" x1="38.65" y1="56.9" x2="59.25" y2="56.9">
		<stop  offset="0" style="stop-color:#0EB3E9"/>
		<stop  offset="0.4946" style="stop-color:#4979FD"/>
		<stop  offset="1" style="stop-color:#4254F7"/>
	</linearGradient>
	<path class="st2" d="M40.9,59.2H57c1.2,0,2.3-1,2.3-2.3c0-1.2-1-2.3-2.3-2.3H40.9c-1.2,0-2.3,1-2.3,2.3
		C38.7,58.1,39.7,59.2,40.9,59.2z"/>
	<linearGradient id="SVGID_4_" gradientUnits="userSpaceOnUse" x1="38.65" y1="67.2" x2="59.25" y2="67.2">
		<stop  offset="0" style="stop-color:#0EB3E9"/>
		<stop  offset="0.4946" style="stop-color:#4979FD"/>
		<stop  offset="1" style="stop-color:#4254F7"/>
	</linearGradient>
	<path class="st3" d="M40.9,69.5H57c1.2,0,2.3-1,2.3-2.3S58.2,65,57,65H40.9c-1.2,0-2.3,1-2.3,2.3S39.7,69.5,40.9,69.5z"/>
</g>
<linearGradient id="SVGID_5_" gradientUnits="userSpaceOnUse" x1="28.5" y1="66.9" x2="98.7611" y2="66.9" gradientTransform="matrix(1 0 0 -1 0 100)">
	<stop  offset="0" style="stop-color:#0EB3E9"/>
	<stop  offset="0.4946" style="stop-color:#4979FD"/>
	<stop  offset="1" style="stop-color:#4254F7"/>
</linearGradient>
<circle class="st4" cx="97" cy="33.1" r="2.5"/>
<path d="M94.9,39.6c-1.1-0.4-2.3,0-2.9,1.1c-1,1.7-1.9,2.8-2.9,3.8c-1.7,1.8-3.7,3.2-6.3,4.2c-2.1,1.1-5.2,1.4-6.5,1.4
	C75,50.2,74,51.3,74,52.6v0.1c0,0.7,0.3,1.3,0.8,1.8s1.2,0.7,1.9,0.7c3.2-0.3,5.9-1,8-2c3-1.3,5.5-3.1,7.9-5.3
	c1.2-1.1,2.7-3.1,3.5-4.8c0.4-0.7,0.4-1.5,0.1-2.3C96.1,40.3,95.6,39.8,94.9,39.6z"/>
<path d="M83.1,12.4c2.4,1,4.5,2.5,6.3,4.2c1.8,1.9,3.2,4,4.2,6.2c0.1,0.1,0.1,0.2,0.1,0.3l0.1,0.1v0.1c0.2,0.9,1.1,1.5,2,1.5
	c0.8,0,1.6-0.4,2.1-1.1s0.6-1.5,0.2-2.3c0-0.1-0.1-0.2-0.1-0.3c0-0.1,0-0.1-0.1-0.2c-1.3-3-3-5.6-5.3-7.8s-4.9-3.9-7.9-5.2
	c-3.1-1.3-6.3-2-9.5-2c-0.9,0-1.8,0-2.4,0.1C72,6.1,68.7,7,68,7.3c-0.7,0.2-1.6,0.6-2.5,1l-0.3,0.2l-0.3-0.3
	c-1.2-1.2-2.6-2.4-4.3-3.6c-1.3-0.9-2.8-1.7-4.5-2.3C54.5,1.5,52.9,1,51,0.6C49.2,0.2,47.5,0,45.7,0c-3,0-5.7,0.4-8.1,1.3
	c-2.6,0.9-4.9,2-7.3,3.5C28,6.5,26,8.3,24.4,10.3c-1.8,2.2-3.2,4.6-4.1,7.3l-0.1,0.3h-0.4c-0.3,0-0.5,0-0.8,0
	c-2.3,0-4.5,0.4-6.5,1.3c-2.2,0.9-4.3,2.2-6.3,4c-1.7,1.6-3.1,3.5-4.2,5.9c-1.1,2.3-1.6,4.7-1.6,7.4c0,2.6,0.5,5,1.5,7.2
	c1,2.3,2.4,4.3,4,5.9c1.9,1.8,3.9,3.1,6,4c2.6,1.1,4.8,1.6,7.2,1.6h1.2c1.4,0,2.5-1,2.7-2.3c0.1-0.7-0.2-1.5-0.6-2
	c-0.5-0.5-1.1-0.8-1.9-0.8h-1.3c-2,0-3.8-0.4-5.4-1c-1.7-0.8-3.2-1.7-4.4-2.9s-2.1-2.6-2.9-4.4c-0.8-1.7-1.1-3.5-1.1-5.3
	s0.4-3.7,1.1-5.4c0.7-1.5,1.6-3,2.9-4.3c1-1.1,2.5-2.1,4.4-2.9c1.7-0.7,3.6-1.1,5.4-1.1h1.1c0.2,0,3.3,0.5,3.3,0.5l0.7-2.1
	c0.7-2.3,1.7-4.5,3.1-6.6c1.2-1.8,2.7-3.4,4.9-5.1C34,8,36.2,7,38.7,6.2c4.2-1.3,7.8-1.5,12-0.6c1.6,0.3,3.2,0.9,4.5,1.5
	c1.4,0.6,2.8,1.4,4,2.5c1.4,1.1,2.5,2.2,3.4,3.2l1.3,1.5l1.9-1c0.4-0.2,0.8-0.4,1.2-0.6c0.4-0.2,0.7-0.3,1.1-0.5
	c0.9-0.4,1.7-0.7,2.4-0.8c0.8-0.2,1.7-0.3,2.5-0.4c0.8-0.1,1.7-0.1,2.5-0.1C78.2,10.9,80.7,11.4,83.1,12.4z"/>
</svg>
