<?xml version="1.0" encoding="utf-8"?>
<!-- Generator: Adobe Illustrator 21.0.0, SVG Export Plug-In . SVG Version: 6.00 Build 0)  -->
<svg version="1.1" id="Layer_1" xmlns="http://www.w3.org/2000/svg" xmlns:xlink="http://www.w3.org/1999/xlink" x="0px" y="0px"
	 viewBox="0 0 100 100" style="enable-background:new 0 0 100 100;" xml:space="preserve">
<style type="text/css">
	.st0{fill:url(#SVGID_1_);}
	.st1{fill:url(#SVGID_2_);}
	.st2{fill:url(#SVGID_3_);}
	.st3{fill:url(#SVGID_4_);}
</style>
<path d="M87.3,68.9H59.2c-1.5,0-2.6,1.2-2.6,2.6l0,0c0,1.5,1.2,2.6,2.6,2.6h1.7v13c0,1.4,1,2.6,2.4,2.8c1.6,0.2,2.9-1.1,2.9-2.6
	V74.2H70L78.4,87c0.7,1.1,2.2,1.7,3.5,1c1.4-0.7,1.8-2.5,1-3.7l-6.5-10.1h11.1c1.5,0,2.8-1.3,2.6-2.9C89.9,69.9,88.7,68.9,87.3,68.9
	z"/>
<g>
	<linearGradient id="SVGID_1_" gradientUnits="userSpaceOnUse" x1="21.1086" y1="64.0221" x2="66.7752" y2="62.1887">
		<stop  offset="0" style="stop-color:#0EB3E9"/>
		<stop  offset="0.4946" style="stop-color:#4979FD"/>
		<stop  offset="1" style="stop-color:#4254F7"/>
	</linearGradient>
	<path class="st0" d="M51,86.9c-1.6-8.5-7.4-15.5-15.2-18.7c4.5-3.1,7.5-8.3,7.5-14.2c0-9.5-7.7-17.2-17.2-17.2S8.9,44.5,8.9,54
		c0,5.9,2.9,11,7.4,14.1C11.7,70,7.8,73.2,5,77.3c-1.1,1.7,0.1,3.9,2.1,3.9c0.8,0,1.6-0.4,2.1-1.1c3.7-5.4,9.8-8.9,16.8-8.9
		c9.9,0,18.2,7.2,20,16.6c0.3,1.4,1.6,2.4,3.1,2.1C50.5,89.6,51.3,88.2,51,86.9z M13.9,54c0-6.7,5.5-12.2,12.2-12.2
		c6.7,0,12.2,5.5,12.2,12.2s-5.5,12.2-12.2,12.2C19.4,66.2,13.9,60.7,13.9,54z"/>
	<linearGradient id="SVGID_2_" gradientUnits="userSpaceOnUse" x1="21.9404" y1="84.7436" x2="67.6071" y2="82.9103">
		<stop  offset="0" style="stop-color:#0EB3E9"/>
		<stop  offset="0.4946" style="stop-color:#4979FD"/>
		<stop  offset="1" style="stop-color:#4254F7"/>
	</linearGradient>
	<circle class="st1" cx="3.1" cy="85.5" r="3"/>
	<linearGradient id="SVGID_3_" gradientUnits="userSpaceOnUse" x1="21.9133" y1="84.0681" x2="67.58" y2="82.2347">
		<stop  offset="0" style="stop-color:#0EB3E9"/>
		<stop  offset="0.4946" style="stop-color:#4979FD"/>
		<stop  offset="1" style="stop-color:#4254F7"/>
	</linearGradient>
	<path class="st2" d="M26.1,77.8c-1.4,0-2.5,1.1-2.5,2.5v7.2c0,1.4,1.1,2.5,2.5,2.5c1.4,0,2.5-1.1,2.5-2.5v-7.2
		C28.6,78.9,27.5,77.8,26.1,77.8z"/>
</g>
<g>
	<path d="M97.3,41.4L97.3,41.4c1.5,0,2.6-1.2,2.6-2.6V15c0-2.5-2-4.5-4.5-4.5H62.8V2.7c0-1.4-1-2.6-2.4-2.8
		c-1.6-0.2-2.9,1.1-2.9,2.6v7.9H24.9c-2.5,0-4.5,2-4.5,4.5v11.6c0,1.5,1.2,2.6,2.6,2.6l0,0c1.5,0,2.6-1.2,2.6-2.6V15.8h68.9v22.9
		C94.6,40.2,95.8,41.4,97.3,41.4z"/>
	<path d="M94.6,55.8v2.4H52.5c-1.5,0-2.6,1.2-2.6,2.6l0,0c0,1.5,1.2,2.6,2.6,2.6h42.9c2.5,0,4.5-2,4.5-4.5v-3.1
		c0-1.5-1.2-2.6-2.6-2.6l0,0C95.8,53.2,94.6,54.4,94.6,55.8z"/>
</g>
<linearGradient id="SVGID_4_" gradientUnits="userSpaceOnUse" x1="20.5689" y1="50.5804" x2="66.2356" y2="48.7471">
	<stop  offset="0" style="stop-color:#0EB3E9"/>
	<stop  offset="0.4946" style="stop-color:#4979FD"/>
	<stop  offset="1" style="stop-color:#4254F7"/>
</linearGradient>
<circle class="st3" cx="97.3" cy="47.5" r="2.6"/>
<g>
	<path d="M78.2,36.4v10.7c0,1.4,1.1,2.5,2.5,2.5l0,0c1.4,0,2.5-1.1,2.5-2.5V36.4c0-1.4-1.1-2.5-2.5-2.5l0,0
		C79.4,33.9,78.2,35,78.2,36.4z"/>
</g>
<g>
	<path d="M66.2,25.2v22c0,1.4,1.1,2.5,2.5,2.5l0,0c1.4,0,2.5-1.1,2.5-2.5v-22c0-1.4-1.1-2.5-2.5-2.5l0,0
		C67.3,22.6,66.2,23.8,66.2,25.2z"/>
</g>
<g>
	<path d="M54.1,28.6v18.6c0,1.4,1.1,2.5,2.5,2.5l0,0c1.4,0,2.5-1.1,2.5-2.5V28.6c0-1.4-1.1-2.5-2.5-2.5l0,0
		C55.2,26,54.1,27.2,54.1,28.6z"/>
</g>
</svg>
