<?xml version="1.0" encoding="utf-8"?>
<!-- Generator: Adobe Illustrator 21.0.0, SVG Export Plug-In . SVG Version: 6.00 Build 0)  -->
<svg version="1.1" id="Layer_1" xmlns="http://www.w3.org/2000/svg" xmlns:xlink="http://www.w3.org/1999/xlink" x="0px" y="0px"
	 viewBox="0 0 100 100" style="enable-background:new 0 0 100 100;" xml:space="preserve">
<style type="text/css">
	.st0{fill:url(#SVGID_1_);}
	.st1{fill:url(#SVGID_2_);}
	.st2{fill:url(#SVGID_3_);}
</style>
<g>
	
		<linearGradient id="SVGID_1_" gradientUnits="userSpaceOnUse" x1="33.3727" y1="6.3696" x2="55.3727" y2="54.203" gradientTransform="matrix(1 0 0 -1 0 100)">
		<stop  offset="0" style="stop-color:#0EB3E9"/>
		<stop  offset="0.4946" style="stop-color:#4979FD"/>
		<stop  offset="1" style="stop-color:#4254F7"/>
	</linearGradient>
	<path class="st0" d="M72.5,16.1c4.2,0,7.7-3.5,7.7-7.7c0-4.2-3.5-7.7-7.7-7.7s-7.7,3.5-7.7,7.7C64.8,12.7,68.3,16.1,72.5,16.1z
		 M72.5,4.5c2.2,0,3.9,1.7,3.9,3.9s-1.7,3.9-3.9,3.9s-3.9-1.7-3.9-3.9C68.6,6.3,70.4,4.5,72.5,4.5z"/>
	<path d="M97.8,37.8h-9.4l-0.1-0.1c-6.5-5-14.3-7.7-22.3-7.7c-3.8,0-7.5,0.6-11.1,1.8l-3.2,1.1l2.4-2.4l4.2-4.1
		c0.9-0.9,1-2.3,0.3-3.2c-0.5-0.7-1.3-0.8-1.8-0.8c-0.6,0-1.2,0.2-1.7,0.7L44,33.8l-0.3-0.7c-1.2-0.5-2.2-0.7-3.2-0.7
		c-0.6,0-1.1,0.1-1.7,0.2c-3.1,0.7-5.6,3.2-6.3,6.3c-0.4,1.7-0.2,3.5,0.6,5.1l0.3,0.5l-8.1,8.1c-0.4,0.4-0.7,1-0.7,1.6
		c0,0.6,0.2,1.2,0.7,1.7c0.7,0.7,2.2,0.9,3.3-0.1l4-4l-1.1,3.2c-1.2,3.6-1.8,7.4-1.8,11.1c0,7.9,2.4,15.3,7,21.4l0.1,0.1v9.8
		c0,0.9,0.8,1.7,1.7,1.7h11.4c0.9,0,1.7-0.8,1.7-1.7V86.1c0-0.9-0.8-1.7-1.7-1.7h-10l-0.1-0.2c-3.7-5.3-5.6-11.5-5.6-17.9
		c0-6.1,1.7-12,5-17.1l0.2-0.4h1.1c2.2,0,4.3-0.9,5.7-2.4c1.5-1.5,2.4-3.6,2.4-5.7v-1l0.5-0.2c5-3.2,10.9-5,16.9-5
		c6.5-0.1,12.9,2,18.5,6l0.2,0.1v10.2c0,0.9,0.8,1.7,1.7,1.7h11.4c0.9,0,1.7-0.8,1.7-1.7V39.4C99.5,38.5,98.7,37.8,97.8,37.8z
		 M40.8,88.3h6.9v6.9h-6.9V88.3z M40.4,44.8c-1.5,0-2.9-0.8-3.7-2.2c-0.4-0.8-0.6-1.4-0.6-2.1c0-2.3,1.9-4.2,4.2-4.2
		c0.6,0,1.3,0.2,2,0.6c1.4,0.8,2.3,2.2,2.3,3.7C44.6,43,42.8,44.8,40.4,44.8z M95.5,48.6h-6.9v-6.9h6.9V48.6z"/>
	
		<linearGradient id="SVGID_2_" gradientUnits="userSpaceOnUse" x1="4.9616" y1="19.4368" x2="26.9616" y2="67.2701" gradientTransform="matrix(1 0 0 -1 0 100)">
		<stop  offset="0" style="stop-color:#0EB3E9"/>
		<stop  offset="0.4946" style="stop-color:#4979FD"/>
		<stop  offset="1" style="stop-color:#4254F7"/>
	</linearGradient>
	<path class="st1" d="M18.8,59l-7,6.9l-0.3-0.2c-0.8-0.4-1.9-0.6-3.2-0.6c-4.2,0-7.7,3.5-7.7,7.7s3.5,7.7,7.7,7.7
		c4.2,0,7.7-3.5,7.7-7.7c0-1.2-0.3-2.3-0.8-3.4l-0.2-0.3l7.1-7c0.4-0.4,0.7-1,0.7-1.6c0.1-0.6-0.1-1.1-0.6-1.5
		C21.3,58.2,19.9,58.1,18.8,59z M8.3,76.8c-2.2,0-3.9-1.7-3.9-3.9c0-2.2,1.7-3.9,3.9-3.9s3.9,1.7,3.9,3.9
		C12.1,75,10.4,76.8,8.3,76.8z"/>
	
		<linearGradient id="SVGID_3_" gradientUnits="userSpaceOnUse" x1="28.9399" y1="8.4084" x2="50.9399" y2="56.2417" gradientTransform="matrix(1 0 0 -1 0 100)">
		<stop  offset="0" style="stop-color:#0EB3E9"/>
		<stop  offset="0.4946" style="stop-color:#4979FD"/>
		<stop  offset="1" style="stop-color:#4254F7"/>
	</linearGradient>
	<circle class="st2" cx="62.3" cy="18.9" r="2.9"/>
</g>
</svg>
