<?xml version="1.0" encoding="utf-8"?>
<!-- Generator: Adobe Illustrator 21.0.0, SVG Export Plug-In . SVG Version: 6.00 Build 0)  -->
<svg version="1.1" id="Layer_1" xmlns="http://www.w3.org/2000/svg" xmlns:xlink="http://www.w3.org/1999/xlink" x="0px" y="0px"
	 viewBox="0 0 100 100" style="enable-background:new 0 0 100 100;" xml:space="preserve">
<style type="text/css">
	.st0{fill:url(#SVGID_1_);}
	.st1{fill:url(#SVGID_2_);}
	.st2{fill:url(#SVGID_3_);}
	.st3{fill:url(#SVGID_4_);}
	.st4{fill:url(#SVGID_5_);}
</style>
<g>
	<g>
		<circle cx="50.3" cy="59.6" r="2.4"/>
	</g>
	<g>
		<g>
			<linearGradient id="SVGID_1_" gradientUnits="userSpaceOnUse" x1="25.6134" y1="26.7191" x2="79.5563" y2="26.7191">
				<stop  offset="0" style="stop-color:#0EB3E9"/>
				<stop  offset="0.4946" style="stop-color:#4979FD"/>
				<stop  offset="1" style="stop-color:#4254F7"/>
			</linearGradient>
			<path class="st0" d="M69.7,28.6c1-1,1-2.7,0-3.7l-1.8-1.8l-4.3-4.3c-1-1-2.7-1-3.7,0l0,0c-1,1-1,2.7,0,3.7l4.3,4.3L59.9,31
				c-1,1-1,2.7,0,3.7l0,0c1,1,2.7,1,3.7,0l4.3-4.3l0,0L69.7,28.6z"/>
		</g>
		<g>
			<linearGradient id="SVGID_2_" gradientUnits="userSpaceOnUse" x1="25.6134" y1="26.769" x2="79.5563" y2="26.769">
				<stop  offset="0" style="stop-color:#0EB3E9"/>
				<stop  offset="0.4946" style="stop-color:#4979FD"/>
				<stop  offset="1" style="stop-color:#4254F7"/>
			</linearGradient>
			<path class="st1" d="M30.9,28.6c-1-1-1-2.7,0-3.7l1.8-1.8l4.3-4.3c1-1,2.7-1,3.7,0l0,0c1,1,1,2.7,0,3.7l-4.3,4.3l4.3,4.3
				c1,1,1,2.7,0,3.7l0,0c-1,1-2.7,1-3.7,0l-4.3-4.3l0,0L30.9,28.6z"/>
		</g>
		<g>
			<linearGradient id="SVGID_3_" gradientUnits="userSpaceOnUse" x1="25.6134" y1="26.739" x2="79.5563" y2="26.739">
				<stop  offset="0" style="stop-color:#0EB3E9"/>
				<stop  offset="0.4946" style="stop-color:#4979FD"/>
				<stop  offset="1" style="stop-color:#4254F7"/>
			</linearGradient>
			<path class="st2" d="M52.5,20.2l1.3,0.6c0.9,0.4,1.3,1.6,0.9,2.5l-4.3,9.2c-0.4,0.9-1.6,1.3-2.5,0.9l-1.3-0.6
				c-0.9-0.4-1.3-1.6-0.9-2.5l4.3-9.2C50.5,20.1,51.6,19.7,52.5,20.2z"/>
		</g>
	</g>
	<linearGradient id="SVGID_4_" gradientUnits="userSpaceOnUse" x1="0.1223" y1="31.5641" x2="6.7147" y2="31.5641">
		<stop  offset="0" style="stop-color:#0EB3E9"/>
		<stop  offset="0.4946" style="stop-color:#4979FD"/>
		<stop  offset="1" style="stop-color:#4254F7"/>
	</linearGradient>
	<circle class="st3" cx="3.4" cy="31.6" r="3.3"/>
	<path d="M92.3,0h-84C4.2,0,0.8,3.4,0.8,7.5v13.3c0,1.5,1.2,2.7,2.7,2.7c1.5,0,2.7-1.2,2.7-2.7V7.5c0-1.2,0.9-2.1,2.1-2.1h84
		c1.2,0,2.1,0.9,2.1,2.1v39.8h0v16.1h0c0,0,0,0.1,0,0.1c0,1.2-0.9,2.1-2.1,2.1H58.2H42.3H8.3c-1.2,0-2.1-0.9-2.1-2.1v-9.9h0v-5.4
		l0-3.9c0-1.5-1.2-2.7-2.7-2.7c-1.5,0-2.7,1.2-2.7,2.7v19.2c0,4.1,3.4,7.5,7.5,7.5h31.1l-0.7,6.5c-0.6,2.1-2.5,3.6-4.7,3.6
		c-1.3,0-2.6,1-2.7,2.4c-0.2,1.6,1.1,3,2.7,3h32.7c1.4,0,2.7-1,2.8-2.4c0.2-1.6-1.1-3-2.7-3c-2.2,0-4.1-1.5-4.7-3.6L61.3,71h31.1
		c4.1,0,7.5-3.4,7.5-7.5v-56C99.8,3.4,96.4,0,92.3,0z M42.9,81.1c0.4-0.8,0.7-1.6,0.9-2.5c0-0.1,0-0.2,0.1-0.3l0.8-7.3h11.1l0.8,7.3
		c0,0.1,0,0.2,0.1,0.3c0.2,0.9,0.5,1.7,0.9,2.5H42.9z"/>
	<linearGradient id="SVGID_5_" gradientUnits="userSpaceOnUse" x1="9.6207" y1="50.5411" x2="91.0491" y2="50.5411">
		<stop  offset="0" style="stop-color:#0EB3E9"/>
		<stop  offset="0.4946" style="stop-color:#4979FD"/>
		<stop  offset="1" style="stop-color:#4254F7"/>
	</linearGradient>
	<path class="st4" d="M88.6,53.2H12.1c-1.4,0-2.5-1.2-2.5-2.7v0c0-1.5,1.1-2.7,2.5-2.7h76.4c1.4,0,2.5,1.2,2.5,2.7v0
		C91,52,89.9,53.2,88.6,53.2z"/>
</g>
</svg>
