<?xml version="1.0" encoding="utf-8"?>
<!-- Generator: Adobe Illustrator 21.0.0, SVG Export Plug-In . SVG Version: 6.00 Build 0)  -->
<svg version="1.1" id="Layer_1" xmlns="http://www.w3.org/2000/svg" xmlns:xlink="http://www.w3.org/1999/xlink" x="0px" y="0px"
	 viewBox="0 0 100 100" style="enable-background:new 0 0 100 100;" xml:space="preserve">
<style type="text/css">
	.st0{fill:url(#SVGID_1_);}
	.st1{fill:url(#SVGID_2_);}
	.st2{fill:url(#SVGID_3_);}
	.st3{fill:url(#SVGID_4_);}
	.st4{fill:url(#SVGID_5_);}
</style>
<g>
	<circle cx="50.3" cy="59.1" r="1.9"/>
	
		<linearGradient id="SVGID_1_" gradientUnits="userSpaceOnUse" x1="25.6132" y1="73.7502" x2="79.5561" y2="73.7502" gradientTransform="matrix(1 0 0 -1 0 100)">
		<stop  offset="0" style="stop-color:#0EB3E9"/>
		<stop  offset="0.4946" style="stop-color:#4979FD"/>
		<stop  offset="1" style="stop-color:#4254F7"/>
	</linearGradient>
	<path class="st0" d="M60.3,33.8c0.8,0.8,2.2,0.8,3,0l6.1-6.1c0.8-0.8,0.8-2.2,0-3l-6.1-6.1c-0.4-0.4-1-0.6-1.5-0.6
		s-1.1,0.2-1.5,0.6c-0.8,0.8-0.8,2.2,0,3l4.7,4.7l-4.7,4.6C59.4,31.7,59.4,33,60.3,33.8z"/>
	
		<linearGradient id="SVGID_2_" gradientUnits="userSpaceOnUse" x1="25.6132" y1="73.7001" x2="79.5561" y2="73.7001" gradientTransform="matrix(1 0 0 -1 0 100)">
		<stop  offset="0" style="stop-color:#0EB3E9"/>
		<stop  offset="0.4946" style="stop-color:#4979FD"/>
		<stop  offset="1" style="stop-color:#4254F7"/>
	</linearGradient>
	<path class="st1" d="M40.3,18.7c-0.4-0.4-1-0.6-1.5-0.6s-1.1,0.2-1.5,0.6l-6.1,6.1c-0.8,0.8-0.8,2.2,0,3l0,0l1.8,1.9l4.3,4.3
		c0.8,0.8,2.2,0.8,3,0c0.8-0.8,0.8-2.2,0-3l-4.7-4.7l4.7-4.7C41.2,20.8,41.2,19.5,40.3,18.7z"/>
	
		<linearGradient id="SVGID_3_" gradientUnits="userSpaceOnUse" x1="25.6132" y1="73.7298" x2="79.5561" y2="73.7298" gradientTransform="matrix(1 0 0 -1 0 100)">
		<stop  offset="0" style="stop-color:#0EB3E9"/>
		<stop  offset="0.4946" style="stop-color:#4979FD"/>
		<stop  offset="1" style="stop-color:#4254F7"/>
	</linearGradient>
	<path class="st2" d="M46.8,31.8l1.3,0.6c0.7,0.3,1.6,0,1.8-0.6l4.3-9.2c0.3-0.7,0-1.6-0.7-1.8l-1.3-0.6C52.1,20,51.9,20,51.7,20
		c-0.1,0-0.2,0-0.4,0.1c-0.4,0.1-0.7,0.4-0.9,0.8L46.2,30c-0.1,0.3-0.1,0.7,0,1.1C46.3,31.4,46.5,31.7,46.8,31.8z"/>
	
		<linearGradient id="SVGID_4_" gradientUnits="userSpaceOnUse" x1="0.1221" y1="68.9001" x2="6.7145" y2="68.9001" gradientTransform="matrix(1 0 0 -1 0 100)">
		<stop  offset="0" style="stop-color:#0EB3E9"/>
		<stop  offset="0.4946" style="stop-color:#4979FD"/>
		<stop  offset="1" style="stop-color:#4254F7"/>
	</linearGradient>
	<circle class="st3" cx="3.4" cy="31.1" r="2.8"/>
	<path d="M92.3,0h-84c-3.8,0-7,3.2-7,7v13.3c0,1.2,1,2.2,2.2,2.2s2.2-1,2.2-2.2V7c0-1.5,1.1-2.6,2.6-2.6h84c1.5,0,2.6,1.1,2.6,2.6
		v55.9c0,1.6-1.1,2.7-2.6,2.7h-84c-1.5,0-2.6-1.1-2.6-2.6V43.8c0-1.2-1-2.2-2.2-2.2s-2.2,1-2.2,2.2V63c0,3.8,3.2,7,7,7H40l-0.8,7.1
		c-0.7,2.4-2.8,4-5.2,4c-1,0-2.1,0.8-2.2,1.9c-0.1,0.6,0.1,1.2,0.5,1.7c0.4,0.5,1,0.8,1.7,0.8h32.7c1.2,0,2.2-0.9,2.3-1.9
		c0.1-0.6-0.1-1.2-0.5-1.7c-0.4-0.5-1-0.8-1.7-0.8c-2.4,0-4.5-1.6-5.2-4L60.7,70h31.7c3.8,0,7-3.2,7-7V7C99.3,3.1,96.1,0,92.3,0z
		 M42.1,81.1l0.4-0.7c0.4-0.8,0.7-1.5,0.8-2.3c0-0.1,0-0.3,0.1-0.4l0.8-7.6h12l0.8,7.7c0,0,0,0,0,0l0.1,0.1l0,0.1
		c0.2,0.8,0.5,1.6,0.9,2.4l0.4,0.7H42.1z"/>
	
		<linearGradient id="SVGID_5_" gradientUnits="userSpaceOnUse" x1="9.5998" y1="50" x2="90.9998" y2="50" gradientTransform="matrix(1 0 0 -1 0 100)">
		<stop  offset="0" style="stop-color:#0EB3E9"/>
		<stop  offset="0.4946" style="stop-color:#4979FD"/>
		<stop  offset="1" style="stop-color:#4254F7"/>
	</linearGradient>
	<path class="st4" d="M10.1,50c0,1.2,0.9,2.2,2,2.2h76.5c1,0,1.9-1,1.9-2.2c0-1.2-0.9-2.2-2-2.2H12.1C11,47.8,10.1,48.8,10.1,50z"/>
</g>
</svg>
