<?xml version="1.0" encoding="utf-8"?>
<!-- Generator: Adobe Illustrator 21.0.0, SVG Export Plug-In . SVG Version: 6.00 Build 0)  -->
<svg version="1.1" id="Layer_1" xmlns="http://www.w3.org/2000/svg" xmlns:xlink="http://www.w3.org/1999/xlink" x="0px" y="0px"
	 viewBox="0 0 100 100" style="enable-background:new 0 0 100 100;" xml:space="preserve">
<style type="text/css">
	.st0{fill:url(#SVGID_1_);}
	.st1{fill:url(#SVGID_2_);}
	.st2{fill:url(#SVGID_3_);}
</style>
<linearGradient id="SVGID_1_" gradientUnits="userSpaceOnUse" x1="68.078" y1="95.3761" x2="81.4114" y2="84.0428" gradientTransform="matrix(1 0 0 -1 0 100)">
	<stop  offset="0" style="stop-color:#0EB3E9"/>
	<stop  offset="0.4946" style="stop-color:#4979FD"/>
	<stop  offset="1" style="stop-color:#4254F7"/>
</linearGradient>
<path class="st0" d="M72.5,0.2c-4.5,0-8.2,3.7-8.2,8.2s3.7,8.2,8.2,8.2s8.2-3.7,8.2-8.2S77.1,0.2,72.5,0.2z M72.5,11.8
	c-1.9,0-3.4-1.5-3.4-3.4S70.7,5,72.5,5c1.9,0,3.4,1.5,3.4,3.4S74.4,11.8,72.5,11.8z"/>
<path d="M97.7,37.2h-9.2c-6.5-5-14.3-7.8-22.6-7.8c-3.8,0-7.6,0.6-11.3,1.8l-1.2,0.4l0.9-0.9l4.2-4.1c1.1-1.1,1.2-2.8,0.3-3.9
	c-0.5-0.7-1.3-1-2.2-1c-0.7,0-1.4,0.3-2,0.8L44.3,32.7l-0.2,0.2L44,32.7c-1.2-0.5-2.4-0.8-3.6-0.8c-0.6,0-1.2,0.1-1.8,0.2
	c-3.3,0.7-6,3.4-6.7,6.7c-0.4,1.8-0.2,3.7,0.6,5.4l0.1,0.2l-0.2,0.2l-7.6,7.6c-0.5,0.5-0.8,1.2-0.8,2c0,0.7,0.3,1.4,0.8,2
	c0.5,0.5,1.2,0.8,2,0.8c0.7,0,1.4-0.3,2-0.8l1.6-1.6l0.9-0.9l-0.4,1.2c-1.2,3.7-1.8,7.5-1.8,11.3c0,7.9,2.4,15.4,7.1,21.7v9.6
	c0,1.2,1,2.2,2.2,2.2h11.4c1.2,0,2.2-1,2.2-2.2V86.1c0-1.2-1-2.2-2.2-2.2h-9.7c-3.6-5.2-5.5-11.3-5.5-17.6c0-6,1.7-11.8,4.9-16.8
	l0.1-0.2h0.2H40c0.1,0,0.2,0,0.4,0c2.3,0,4.5-0.9,6.1-2.5S49,43,49,40.7c0-0.1,0-0.2,0-0.3v-0.2V40l0.2-0.1c5-3.2,10.8-4.9,16.7-4.9
	c6.6-0.1,12.8,2,18.2,5.9v9.9c0,1.2,1,2.2,2.2,2.2h11.4c1.2,0,2.2-1,2.2-2.2V39.4C99.9,38.2,98.9,37.2,97.7,37.2z M41.2,88.8h5.9
	v5.9h-5.9V88.8z M40.4,44.3c-1.4,0-2.6-0.8-3.3-2c-0.3-0.6-0.5-1.2-0.5-1.8c0-2.1,1.7-3.7,3.7-3.7c0.6,0,1.2,0.2,1.8,0.5
	c1.2,0.7,2,1.9,2,3.3C44.1,42.7,42.4,44.3,40.4,44.3z M95,48.1h-5.9v-5.9H95V48.1z"/>
<linearGradient id="SVGID_2_" gradientUnits="userSpaceOnUse" x1="13.1534" y1="30.7589" x2="26.4868" y2="19.4256" gradientTransform="matrix(1 0 0 -1 0 100)">
	<stop  offset="0" style="stop-color:#0EB3E9"/>
	<stop  offset="0.4946" style="stop-color:#4979FD"/>
	<stop  offset="1" style="stop-color:#4254F7"/>
</linearGradient>
<path class="st1" d="M22.4,58.6c-0.5-0.5-1.2-0.8-2-0.8c-0.7,0-1.4,0.3-2,0.8l-6.8,6.7c-1-0.5-2.2-0.7-3.4-0.7
	c-4.5,0-8.2,3.7-8.2,8.2S3.7,81,8.2,81s8.2-3.7,8.2-8.2c0-1.3-0.3-2.5-0.9-3.6l6.8-6.7c0.5-0.5,0.8-1.2,0.8-2
	C23.2,59.8,22.9,59.1,22.4,58.6z M8.2,76.2c-1.9,0-3.4-1.5-3.4-3.4s1.5-3.4,3.4-3.4s3.4,1.5,3.4,3.4S10,76.2,8.2,76.2z"/>
<linearGradient id="SVGID_3_" gradientUnits="userSpaceOnUse" x1="58.6096" y1="84.2368" x2="71.943" y2="72.9035" gradientTransform="matrix(1 0 0 -1 0 100)">
	<stop  offset="0" style="stop-color:#0EB3E9"/>
	<stop  offset="0.4946" style="stop-color:#4979FD"/>
	<stop  offset="1" style="stop-color:#4254F7"/>
</linearGradient>
<circle class="st2" cx="62.3" cy="18.9" r="3.4"/>
</svg>
