<?xml version="1.0" encoding="utf-8"?>
<!-- Generator: Adobe Illustrator 21.0.0, SVG Export Plug-In . SVG Version: 6.00 Build 0)  -->
<svg version="1.1" id="Layer_1" xmlns="http://www.w3.org/2000/svg" xmlns:xlink="http://www.w3.org/1999/xlink" x="0px" y="0px"
	 viewBox="0 0 100 100" style="enable-background:new 0 0 100 100;" xml:space="preserve">
<style type="text/css">
	.st0{fill:url(#SVGID_1_);}
	.st1{fill:url(#SVGID_2_);}
	.st2{fill:url(#SVGID_3_);}
</style>
<g>
	
		<linearGradient id="SVGID_1_" gradientUnits="userSpaceOnUse" x1="29.3162" y1="55.9573" x2="70.4828" y2="54.6239" gradientTransform="matrix(1 0 0 -1 0 100)">
		<stop  offset="0" style="stop-color:#0EB3E9"/>
		<stop  offset="0.4946" style="stop-color:#4979FD"/>
		<stop  offset="1" style="stop-color:#4254F7"/>
	</linearGradient>
	<path class="st0" d="M35.5,52.8c0.9,0.9,2.5,0.9,3.4,0l4.8-4.8l2.1-2c0.9-0.9,0.9-2.5,0-3.4l-6.9-6.9c-0.5-0.5-1.1-0.7-1.7-0.7
		c-0.6,0-1.2,0.2-1.7,0.7c-0.9,0.9-0.9,2.5,0,3.4l5.2,5.2l-5.2,5.2C34.6,50.4,34.6,51.9,35.5,52.8z"/>
	
		<linearGradient id="SVGID_2_" gradientUnits="userSpaceOnUse" x1="29.1159" y1="49.7758" x2="70.2826" y2="48.4425" gradientTransform="matrix(1 0 0 -1 0 100)">
		<stop  offset="0" style="stop-color:#0EB3E9"/>
		<stop  offset="0.4946" style="stop-color:#4979FD"/>
		<stop  offset="1" style="stop-color:#4254F7"/>
	</linearGradient>
	<path class="st1" d="M65,52.2v-2.1c0-0.7-0.7-1.3-1.4-1.4l-11.8,0c-0.9,0-1.4,0.7-1.4,1.4v2.1c0,0.9,0.7,1.4,1.4,1.4h11.8
		C64.5,53.6,65,52.9,65,52.2z"/>
	
		<linearGradient id="SVGID_3_" gradientUnits="userSpaceOnUse" x1="28.7679" y1="39.0287" x2="69.9345" y2="37.6953" gradientTransform="matrix(1 0 0 -1 0 100)">
		<stop  offset="0" style="stop-color:#0EB3E9"/>
		<stop  offset="0.4946" style="stop-color:#4979FD"/>
		<stop  offset="1" style="stop-color:#4254F7"/>
	</linearGradient>
	<circle class="st2" cx="20.4" cy="60.7" r="2.5"/>
	<circle cx="49.9" cy="84.9" r="2.5"/>
	<path d="M81.7,8.3c0.1-1.1-0.1-2.1-0.6-3.2c-0.5-1.1-1.1-2-1.9-2.6L79,2.2c-0.7-0.6-1.4-1.2-2.2-1.5c-1-0.4-2.1-0.7-3.2-0.7H26.4
		c-1.2,0-2.2,0.2-3.2,0.7c-0.9,0.3-1.9,0.9-2.8,1.7C19.7,3,19.2,3.8,18.5,5c-0.5,1-0.6,2-0.5,3.1l-0.1,42.4c0,1.4,1.1,2.5,2.4,2.5
		c0.7,0,1.3-0.3,1.8-0.8c0.4-0.5,0.7-1.1,0.6-1.7l-0.1-28.3h54.3l-0.2,48.1H18v20.2c0.1,1,0.3,2,0.8,3.2c0.4,1.2,1,2,1.8,2.6
		c0.9,0.8,1.9,1.4,2.8,1.9c0.9,0.4,2,0.6,3.4,0.6h46.7c1.4,0,2.5-0.2,3.4-0.6c1-0.5,1.8-1.1,2.7-1.8c0.9-0.8,1.5-1.7,1.9-2.6
		c0.4-1.1,0.6-2.1,0.8-3.3L81.7,8.3L81.7,8.3z M76.9,90.4c0,2-1.6,3.6-3.6,3.6H26.5c-2,0-3.6-1.6-3.6-3.6V75.6h54V90.4z M77.2,17.6
		H22.7V8.4c0-2,1.6-3.6,3.6-3.6h47.3c2,0,3.6,1.6,3.6,3.6V17.6z"/>
</g>
</svg>
