<?xml version="1.0" encoding="utf-8"?>
<!-- Generator: Adobe Illustrator 21.0.0, SVG Export Plug-In . SVG Version: 6.00 Build 0)  -->
<svg version="1.1" id="Layer_1" xmlns="http://www.w3.org/2000/svg" xmlns:xlink="http://www.w3.org/1999/xlink" x="0px" y="0px"
	 viewBox="0 0 22 20" style="enable-background:new 0 0 22 20;" xml:space="preserve">
<style type="text/css">
	.trnlst-f{fill:#D9D9E1;}
</style>
<path class="trnlst-f" d="M11.9,13.1l-2.5-2.5l0,0c1.7-1.9,3-4.1,3.7-6.5H16V2H9V0H7v2H0v2h11.2C10.5,5.9,9.4,7.8,8,9.4
	C7.1,8.3,6.3,7.2,5.7,6h-2c0.7,1.6,1.7,3.2,3,4.6l-5.1,5L3,17l5-5l3.1,3.1L11.9,13.1z M17.5,8h-2L11,20h2l1.1-3h4.7l1.1,3h2L17.5,8z
	 M14.9,15l1.6-4.3l1.6,4.3H14.9z"/>
</svg>
