<?xml version="1.0" encoding="utf-8"?>
<!-- Generator: Adobe Illustrator 21.0.0, SVG Export Plug-In . SVG Version: 6.00 Build 0)  -->
<svg version="1.1" id="Layer_1" xmlns="http://www.w3.org/2000/svg" xmlns:xlink="http://www.w3.org/1999/xlink" x="0px" y="0px"
	 viewBox="0 0 100 100" style="enable-background:new 0 0 100 100;" xml:space="preserve">
<style type="text/css">
	.st0{fill:url(#SVGID_1_);}
	.st1{fill:url(#SVGID_2_);}
	.st2{fill:url(#SVGID_3_);}
	.st3{fill:url(#SVGID_4_);}
	.st4{fill:url(#SVGID_5_);}
	.st5{fill:url(#SVGID_6_);}
	.st6{fill:url(#SVGID_7_);}
</style>
<path d="M93.2,94.6H6.8c-1.2,0-2.2,1-2.2,2.2s1,2.2,2.2,2.2h86.4c1.2,0,2.2-1,2.2-2.2S94.4,94.6,93.2,94.6z"/>
<path d="M15.1,45.6c0.3,0.2,0.7,0.3,1.2,0.3c0.1,0,0.4,0,0.5,0C28.4,42.7,58,32.7,82.6,8.7l0.8-0.8v2.6c0,1.2,1.1,2.3,2.3,2.3
	c0.6,0,1.2-0.2,1.7-0.7c0.4-0.4,0.6-1,0.6-1.6l0.1-8.4C88.1,1,87.1,0,86,0l-8.6,0.1c-1.2,0-2.3,1.1-2.3,2.3c0,0.6,0.2,1.1,0.7,1.7
	c0.4,0.4,1,0.6,1.6,0.6h2.9l-0.9,0.9C55.3,29,24.6,38.9,15.7,41.4c-1.1,0.3-1.9,1.6-1.6,2.7C14.2,44.5,14.5,45.2,15.1,45.6z"/>
<linearGradient id="SVGID_1_" gradientUnits="userSpaceOnUse" x1="4.9621" y1="51.3587" x2="9.638" y2="54.4412" gradientTransform="matrix(1 0 0 -1 0 100)">
	<stop  offset="0" style="stop-color:#0EB3E9"/>
	<stop  offset="0.4946" style="stop-color:#4979FD"/>
	<stop  offset="1" style="stop-color:#4254F7"/>
</linearGradient>
<circle class="st0" cx="7.3" cy="47.1" r="2.3"/>
<g>
	<linearGradient id="SVGID_2_" gradientUnits="userSpaceOnUse" x1="12.125" y1="59.3025" x2="88.5009" y2="59.3025">
		<stop  offset="0" style="stop-color:#0EB3E9"/>
		<stop  offset="0.4946" style="stop-color:#4979FD"/>
		<stop  offset="1" style="stop-color:#4254F7"/>
	</linearGradient>
	<path class="st1" d="M82.9,30.1H71c-2.6,0-4.7,2.1-4.7,4.6V86c0,0.7,0.3,1.3,0.8,1.8c0.5,0.5,1.1,0.7,1.8,0.7c0.1,0,0.1,0,0.2,0
		c1.2-0.1,2.2-1.2,2.2-2.6V35h11.4v26c0,1.4,1.1,2.5,2.4,2.5c1.4,0,2.5-1.1,2.5-2.5V34.8C87.5,32.2,85.5,30.1,82.9,30.1z"/>
	<linearGradient id="SVGID_3_" gradientUnits="userSpaceOnUse" x1="12.125" y1="78.7589" x2="88.5009" y2="78.7589">
		<stop  offset="0" style="stop-color:#0EB3E9"/>
		<stop  offset="0.4946" style="stop-color:#4979FD"/>
		<stop  offset="1" style="stop-color:#4254F7"/>
	</linearGradient>
	<path class="st2" d="M85.1,69L85.1,69L85.1,69c-1.4,0.1-2.4,1.2-2.4,2.5v14.4c0,1.3,1,2.5,2.2,2.6c0.1,0,0.2,0,0.3,0
		c0.6,0,1.1-0.2,1.6-0.6c0.5-0.5,0.8-1.2,0.8-1.9V71.5C87.5,70.1,86.5,69,85.1,69z"/>
	<linearGradient id="SVGID_4_" gradientUnits="userSpaceOnUse" x1="12.125" y1="82.4527" x2="88.5009" y2="82.4527">
		<stop  offset="0" style="stop-color:#0EB3E9"/>
		<stop  offset="0.4946" style="stop-color:#4979FD"/>
		<stop  offset="1" style="stop-color:#4254F7"/>
	</linearGradient>
	<path class="st3" d="M41.9,76.5c-1.4,0-2.4,1.1-2.4,2.5V86c0,0.7,0.3,1.3,0.8,1.8c0.5,0.5,1.1,0.7,1.8,0.7c0.1,0,0.1,0,0.2,0
		c1.2-0.1,2.2-1.2,2.2-2.6v-7C44.4,77.5,43.3,76.5,41.9,76.5z"/>
	<linearGradient id="SVGID_5_" gradientUnits="userSpaceOnUse" x1="12.125" y1="67.309" x2="88.5009" y2="67.309">
		<stop  offset="0" style="stop-color:#0EB3E9"/>
		<stop  offset="0.4946" style="stop-color:#4979FD"/>
		<stop  offset="1" style="stop-color:#4254F7"/>
	</linearGradient>
	<path class="st4" d="M55.9,46.1H44.1c-2.6,0-4.6,2.1-4.6,4.6v19.6c0,1.4,1.1,2.4,2.4,2.4c1.4,0,2.5-1.1,2.5-2.4V51h11.3v34.9
		c0,1.3,1,2.5,2.2,2.6c0.1,0,0.2,0,0.3,0c0.6,0,1.1-0.2,1.6-0.6c0.5-0.5,0.8-1.2,0.8-1.9V50.8C60.5,48.2,58.5,46.1,55.9,46.1z"/>
	<linearGradient id="SVGID_6_" gradientUnits="userSpaceOnUse" x1="12.125" y1="85.5519" x2="88.5009" y2="85.5519">
		<stop  offset="0" style="stop-color:#0EB3E9"/>
		<stop  offset="0.4946" style="stop-color:#4979FD"/>
		<stop  offset="1" style="stop-color:#4254F7"/>
	</linearGradient>
	<path class="st5" d="M14.9,82.5c-1.4,0-2.4,1.1-2.4,2.5v1.1c0,0.7,0.3,1.3,0.8,1.8c0.5,0.5,1.1,0.7,1.8,0.7c0,0,0.1,0,0.1,0
		c1.2-0.1,2.2-1.2,2.2-2.6v-0.9C17.4,83.6,16.3,82.5,14.9,82.5z"/>
	<linearGradient id="SVGID_7_" gradientUnits="userSpaceOnUse" x1="12.125" y1="72.5498" x2="88.5009" y2="72.5498">
		<stop  offset="0" style="stop-color:#0EB3E9"/>
		<stop  offset="0.4946" style="stop-color:#4979FD"/>
		<stop  offset="1" style="stop-color:#4254F7"/>
	</linearGradient>
	<path class="st6" d="M29,56.5H17.1c-2.6,0-4.6,2.1-4.6,4.7v15.3c0,1.4,1.1,2.5,2.4,2.5c1.4,0,2.5-1.1,2.5-2.5v-15h11.3v24.6
		c0,1.4,1.1,2.5,2.5,2.5h0.2c1.4,0,2.5-1.1,2.5-2.5V61.2C33.7,58.6,31.5,56.5,29,56.5z"/>
</g>
</svg>
