<?xml version="1.0" encoding="utf-8"?>
<!-- Generator: Adobe Illustrator 21.0.0, SVG Export Plug-In . SVG Version: 6.00 Build 0)  -->
<svg version="1.1" id="Layer_1" xmlns="http://www.w3.org/2000/svg" xmlns:xlink="http://www.w3.org/1999/xlink" x="0px" y="0px"
	 viewBox="0 0 83 71" style="enable-background:new 0 0 83 71;" xml:space="preserve">
<style type="text/css">
	.st0{fill:none;}
	.st1{fill:#FB474D;}
	.st2{fill:#0982F9;}
</style>
<g>
	<path class="st0" d="M46.2,47.5l-10.3,5c-0.3,0.1-0.6,0.3-0.9,0.4c-0.1,0-0.2,0.1-0.3,0.1c-0.2,0.1-0.4,0.1-0.6,0.2
		c-0.1,0-0.3,0-0.4,0.1c-0.2,0-0.4,0.1-0.6,0.1c-0.1,0-0.3,0-0.4,0c-0.2,0-0.4,0-0.5,0c-0.2,0-0.4,0-0.6,0c-0.1,0-0.3,0-0.4,0
		c-0.2,0-0.4-0.1-0.6-0.1c-0.1,0-0.2,0-0.4-0.1c-0.2-0.1-0.4-0.1-0.7-0.2c-0.1,0-0.2-0.1-0.3-0.1c-0.3-0.1-0.6-0.3-0.9-0.4
		l-14.6-7.6L4,49.4c-0.5,0.3-0.6,0.7-0.6,0.9c0,0.2,0,0.7,0.6,1l25.8,13.4c1.4,0.7,3.2,0.8,4.6,0.1L46.2,59"/>
	<path d="M34.3,64.7c-1.5,0.7-3.2,0.7-4.6-0.1L4,51.2c-0.5-0.3-0.6-0.8-0.6-1c0-0.2,0.1-0.7,0.6-0.9l9.5-4.6l14.6,7.6L9.7,42.8
		l-7,3.4c-1.4,0.7-2.5,2-2.7,3.6c-0.2,1.9,0.7,3.6,2.4,4.5l25.8,13.4c1.2,0.6,2.6,1,4,1c1.3,0,2.5-0.3,3.7-0.8l9.4-4.5
		c0.6-0.3,1-0.9,1-1.5v0c0-1.3-1.3-2.1-2.5-1.5L34.3,64.7z"/>
	<polygon points="46.2,47.5 46.2,47.5 35.8,52.5 	"/>
	<path d="M58,29.8l-3.3-1.7l-18.9,9.1L50.9,30l5.5,2.9c0.4,0.2,0.8,0.2,1.2,0.1l0,0C59.1,32.7,59.4,30.6,58,29.8z"/>
	<path d="M29.1,52.8c0.1,0,0.2,0.1,0.3,0.1c0.2,0.1,0.4,0.1,0.7,0.2c0.1,0,0.2,0,0.4,0.1c0.2,0,0.4,0.1,0.6,0.1c0.1,0,0.3,0,0.4,0
		c0.2,0,0.4,0,0.6,0c0.2,0,0.4,0,0.5,0c0.1,0,0.3,0,0.4,0c0.2,0,0.4-0.1,0.6-0.1c0.1,0,0.3,0,0.4-0.1c0.2,0,0.4-0.1,0.6-0.2
		c0.1,0,0.2-0.1,0.3-0.1c0.3-0.1,0.6-0.2,0.9-0.4l9.4-4.5c0.6-0.3,1-0.9,1-1.5v0c0-1.3-1.3-2.1-2.5-1.5l-9.4,4.5
		C33.6,49.8,32.8,50,32,50c-0.8,0-1.6-0.2-2.3-0.6L4,36c-0.5-0.3-0.6-0.8-0.6-1c0-0.2,0.1-0.7,0.6-0.9l9.5-4.6L28,37.1L9.7,27.6
		l-7,3.4c-1.4,0.7-2.5,2-2.7,3.6c-0.2,1.9,0.7,3.6,2.4,4.5l7.3,3.8l18.4,9.6C28.5,52.6,28.8,52.7,29.1,52.8z"/>
	<path d="M62,16.7L36.4,3.3C34,2.1,31.1,2,28.7,3.2l-5.9,2.9c-1.3,0.6-1.3,2.4,0,3.1l0,0c0.5,0.2,1,0.3,1.5,0l5.9-2.9
		c0.7-0.3,1.5-0.5,2.2-0.5c0.8,0,1.6,0.2,2.4,0.6l25.7,13.4c0.5,0.3,0.6,0.8,0.6,1c0,0.2-0.1,0.7-0.6,0.9l-9.5,4.6l-16.6,8
		c-1.5,0.7-3.2,0.7-4.6-0.1L4,20.7c-0.5-0.3-0.6-0.8-0.6-1c0-0.2,0.1-0.7,0.6-0.9L14,14c1.3-0.6,1.3-2.4,0-3.1l0,0
		c-0.5-0.2-1-0.3-1.5,0l-10,4.8C1,16.5,0,18,0,19.7c0,1.7,0.9,3.3,2.4,4l7.3,3.8L28,37.1l0.1,0.1c0.3,0.2,0.6,0.3,0.9,0.4
		c0.1,0,0.2,0.1,0.4,0.1c0.2,0.1,0.4,0.1,0.6,0.2c0.1,0,0.3,0.1,0.4,0.1c0.2,0,0.4,0.1,0.5,0.1c0.2,0,0.3,0,0.5,0c0.2,0,0.4,0,0.5,0
		c0.2,0,0.4,0,0.6,0c0.1,0,0.3,0,0.4,0c0.2,0,0.4-0.1,0.6-0.1c0.1,0,0.2,0,0.4-0.1c0.2,0,0.4-0.1,0.6-0.2c0.1,0,0.2-0.1,0.3-0.1
		c0.3-0.1,0.6-0.2,0.9-0.4l18.9-9.1l7-3.4c1.4-0.7,2.5-2,2.6-3.6C64.6,19.3,63.7,17.5,62,16.7z"/>
	<circle class="st1" cx="18.7" cy="10.1" r="2"/>
	<path class="st2" d="M64.5,37.2c-6.3,0-11.8,4.5-13.2,10.6c-0.1,0.3,0,0.7,0.2,1c0.2,0.3,0.5,0.5,0.8,0.6c0.7,0.2,1.4-0.3,1.6-1
		c1.1-4.9,5.5-8.5,10.6-8.5c3.2,0,6.2,1.4,8.3,3.9c0.5,0.6,1.3,0.6,1.9,0.2c0.3-0.2,0.4-0.5,0.5-0.9c0-0.4-0.1-0.7-0.3-1
		C72.3,38.9,68.5,37.2,64.5,37.2z"/>
	<path class="st2" d="M76.7,49.3c-0.7,0-1.3,0.6-1.3,1.3v6.1c0,0.7,0.6,1.3,1.3,1.3s1.3-0.6,1.3-1.3v-6.1
		C78,49.9,77.4,49.3,76.7,49.3z"/>
	<path class="st2" d="M64.5,43.3c-2,0-3.8,0.8-5.2,2.1c-0.5,0.5-0.5,1.4,0,1.9c0.5,0.5,1.4,0.5,1.9,0c0.9-0.9,2.1-1.4,3.3-1.4
		c2.6,0,4.8,2.1,4.8,4.8v9.6c0,0.7,0.6,1.3,1.3,1.3s1.3-0.6,1.3-1.3v-9.6C71.9,46.6,68.6,43.3,64.5,43.3z"/>
	<path class="st2" d="M58.4,49.3c-0.7,0-1.3,0.6-1.3,1.3v9.6c0,0.7,0.6,1.3,1.3,1.3s1.3-0.6,1.3-1.3v-9.6
		C59.8,49.9,59.2,49.3,58.4,49.3z"/>
	<path class="st2" d="M52.3,51.9c-0.7,0-1.3,0.6-1.3,1.3v3.5c0,0.7,0.6,1.3,1.3,1.3c0.7,0,1.3-0.6,1.3-1.3v-3.5
		C53.7,52.5,53.1,51.9,52.3,51.9z"/>
	<path class="st2" d="M64.5,58c-0.7,0-1.3,0.6-1.3,1.3v3.5c0,0.7,0.6,1.3,1.3,1.3s1.3-0.6,1.3-1.3v-3.5C65.8,58.6,65.2,58,64.5,58z"
		/>
	<path class="st2" d="M64.5,49.3c-0.7,0-1.3,0.6-1.3,1.3v3.5c0,0.7,0.6,1.3,1.3,1.3s1.3-0.6,1.3-1.3v-3.5
		C65.8,49.9,65.2,49.3,64.5,49.3z"/>
</g>
</svg>
