<?xml version="1.0" encoding="utf-8"?>
<!-- Generator: Adobe Illustrator 21.0.0, SVG Export Plug-In . SVG Version: 6.00 Build 0)  -->
<svg version="1.1" id="Layer_1" xmlns="http://www.w3.org/2000/svg" xmlns:xlink="http://www.w3.org/1999/xlink" x="0px" y="0px"
	 viewBox="0 0 62.6 62.6" style="enable-background:new 0 0 62.6 62.6;" xml:space="preserve">
<g>
	<path d="M33,6.5c-1.2,2.4-1.7,4.9-1.7,7.4c0,3.2,0.8,6.1,2.4,8.7c1.6,2.7,3.7,4.8,6.4,6.4c2.7,1.6,5.6,2.4,8.7,2.4
		c2.7,0,5.2-0.5,7.5-1.6l4.3-2l-0.2,4.7c-0.2,5.1-1.6,9.8-4.2,14.1c-2.6,4.3-6.1,7.7-10.4,10.1c-4.4,2.5-9.3,3.8-14.5,3.8
		c-5.2,0-10.1-1.3-14.6-4c-4.4-2.5-7.9-6-10.5-10.5c-2.7-4.5-4-9.3-4-14.6c0-5.2,1.3-10,3.8-14.5c2.4-4.3,5.8-7.8,10.1-10.4
		c4.3-2.6,9-4,14.1-4.2L35,2.1L33,6.5z M17,13.3c-2.8,2.1-5,4.7-6.6,7.7C8.8,24.3,8,27.7,8,31.3c0,4.2,1,8.1,3.1,11.7
		c2.1,3.5,4.9,6.4,8.5,8.5s7.4,3.1,11.7,3.1c3.6,0,7.1-0.8,10.3-2.5c3.1-1.6,5.7-3.8,7.8-6.6c2.1-2.8,3.5-6,4.3-9.5l-1.5,0.5
		c-1.5,0.4-2.6,0.6-3.4,0.6c-4.2,0-8.1-1-11.6-3.1c-3.6-2.1-6.4-4.9-8.5-8.5c-2.1-3.6-3.1-7.5-3.1-11.6c0-0.8,0.2-1.9,0.6-3.2
		c0.2-0.7,0.4-1.3,0.5-1.6C23,9.8,19.8,11.2,17,13.3z"/>
</g>
</svg>
