<?xml version="1.0" encoding="utf-8"?>
<!-- Generator: Adobe Illustrator 21.0.0, SVG Export Plug-In . SVG Version: 6.00 Build 0)  -->
<svg version="1.1" id="Layer_1" xmlns="http://www.w3.org/2000/svg" xmlns:xlink="http://www.w3.org/1999/xlink" x="0px" y="0px"
	 viewBox="0 0 100 100" style="enable-background:new 0 0 100 100;" xml:space="preserve">
<style type="text/css">
	.st0{fill:#FFFFFF;}
</style>
<g>
	<path class="st0" d="M27.5,64.3l0.6,5.9L10.9,87.4c-1.5,1.5-1.5,3.8,0,5.3s3.8,1.5,5.3,0l17.2-17.2l5.9,0.6l1.4-2.6L30.1,62.8
		L27.5,64.3z"/>
	<path class="st0" d="M49.9,42.4l-3.8,3.8c-1.1,1.1-1.1,3,0,4.1l0,0c1.1,1.1,3,1.1,4.1,0l3.8-3.8L49.9,42.4z"/>
	<path class="st0" d="M41,65.5l-3-3l4-4c1.1-1.1,1.1-3,0-4.1l0,0c-1.1-1.1-3-1.1-4.1,0l-4,4l0,0l-2.8-2.8L21.4,61l0.7,7l-15,15
		C3.6,86.5,3,92,6,95.8c3.6,4.6,10.3,5,14.3,0.9l15.3-15.3l7,0.7l5.4-9.8l-2.8-2.8l6-6l-4.2-4L41,65.5z M39.3,76.1l-5.9-0.6
		L16.2,92.7c-1.5,1.5-3.8,1.5-5.3,0s-1.5-3.8,0-5.3l17.2-17.2l-0.6-5.9l2.6-1.4l10.6,10.6L39.3,76.1z"/>
	<polygon class="st0" points="51.1,55.4 55.2,59.5 61.1,53.6 57,49.5 	"/>
	<path class="st0" d="M73.9,26.7l0.8-6l12.6-8.2l1.9,1.9l1.9,1.9l-8.2,12.6l-6,0.8L61.1,45.4l4.1,4.1l14.4-14.4l4.1-0.5
		c1.7-0.2,3.2-1.2,4.1-2.6l0,0L96,19.5l0.9-1.4c1-1.5,0.8-3.5-0.5-4.7l-1.2-1.2l-1.9-1.9l-1.9-1.9l-1.2-1.2
		c-1.3-1.3-3.2-1.5-4.7-0.5l-1.4,0.9l-12.6,8.2l0,0c-1.4,0.9-2.3,2.4-2.6,4.1l0,0L68.4,24L54,38.4l4.1,4.1L73.9,26.7z"/>
	<path class="st0" d="M95.1,79.4L75.4,59.8c-1.1-1.1-3-1.1-4.1,0l0,0c-1.1,1.1-1.1,3,0,4.1L91,83.6c1.8,1.8,1.6,4.9-0.6,6.4
		c-1.7,1.1-3.9,0.8-5.3-0.6L60.8,65.1c-1.1-1.1-3-1.1-4.1,0l0,0c-1.1,1.1-1.1,3,0,4.1l24.1,24.1c3.6,3.6,9.3,4.2,13.3,1.1
		C98.9,90.6,99.3,83.6,95.1,79.4z"/>
	<path class="st0" d="M32.9,37.2L31.1,38c-6.3,2.8-13.5,1.4-18.4-3.4c-3.8-3.8-5.4-9-4.7-14.1l8.4,8.4c1.9,1.9,4.9,1.9,6.8,0
		l7.3-7.3c1.9-1.9,1.9-4.9,0-6.8L22,6.4c5.1-0.8,10.3,0.9,14.1,4.7c4.9,4.9,6.2,12.1,3.4,18.4l-0.8,1.8l5,5c1.1,1.1,3,1.1,4.1,0l0,0
		c1.1-1.1,1.1-3,0-4.1L45.6,30c2.7-8,0.7-16.9-5.4-23c-6.6-6.6-16.4-8.4-24.9-4.6c-1.9,0.8-2.2,3.3-0.8,4.7l11.1,11.1l-5.9,5.9
		l-11-11.2c-1.4-1.4-3.9-1-4.7,0.8C0.2,22.2,2,32,8.6,38.6c6.1,6.1,14.9,8.1,23,5.4l2.2,2.2c1.1,1.1,3,1.1,4.1,0l0,0
		c1.1-1.1,1.1-3,0-4.1L32.9,37.2z"/>
	<polygon class="st0" points="54,46.6 58.1,42.5 54,38.4 49.9,42.4 	"/>
	<polygon class="st0" points="51.1,55.4 47,59.5 51.1,63.6 55.2,59.5 	"/>
	<polygon class="st0" points="57,49.5 61.1,53.6 65.2,49.5 61.1,45.4 	"/>
	<circle class="st0" cx="66.5" cy="56.2" r="3"/>
</g>
</svg>
