<?xml version="1.0" encoding="utf-8"?>
<!-- Generator: Adobe Illustrator 21.0.0, SVG Export Plug-In . SVG Version: 6.00 Build 0)  -->
<svg version="1.1" id="Layer_1" xmlns="http://www.w3.org/2000/svg" xmlns:xlink="http://www.w3.org/1999/xlink" x="0px" y="0px"
	 viewBox="0 0 290 100" style="enable-background:new 0 0 290 100;" xml:space="preserve">
<style type="text/css">
	.st0{fill:#FFFFFF;}
	.st1{clip-path:url(#SVGID_3_);}
</style>
<g>
	<path class="st0" d="M102.2,50"/>
	<path class="st0" d="M102.2,50"/>
	<g>
		<g>
			<g>
				<path id="SVGID_1_" class="st0" d="M44.8,36.6c1.2,0,2.1,0.6,2.8,1.4c0.7,0.7,1.1,2,0.8,3.1c-0.8-0.7-1.8-0.7-2.7-0.4l0.4,0.6
					l0.8-0.5c0.2,0.3,0.5,0.5,0.4,0.8c0.5-0.2,1.1,0.3,0.9,0.7c0.6-0.2,0.8,0.3,0.7,0.5c0.3,0,0.7,0.2,0.6,0.6
					c0.4-0.1,0.5,0.3,0.4,0.7c-0.4,0.9-0.8,1.7-2.1,2l0.7,0.3c-0.4,1.1-1.1,2-1.9,2.3c1.6,1.5,2.6,3.4,2.7,6.6
					c0,1.1-0.3,3.2-1.4,4.1c1.3,0.3,2.6,1.7,2.5,3.4c0,0.6-0.2,1.2-0.4,1.8c-0.7,1.7-2.6,1.9-4.1,1.6c-1.6-0.3-2.9-1.1-4.4-0.5
					c-0.6,0.3-1.2,0.9-2,0.5c-0.7-0.5-0.8-0.8-1.1-1.5c-0.3,0.7-0.5,0.9-1.1,1.4c-0.7,0.5-1.6,0-2.1-0.4c-1.7-1.2-3.4,0.5-5,0.6
					c-3,0.4-4-1.5-4-3.4c0-1.7,0.8-3.4,2.5-3.4c-0.6-0.5-1.2-1.3-1.4-2.5c-0.6-3.3-0.2-5.4,2.8-8.4c-0.7-0.3-1.5-0.9-2.1-2.2
					c1.1-0.6,1.2-1,1.2-1c-1-0.9-1.5-2.2-1.2-3.6c0.1-0.4,0.3-0.6,0.5-0.8c0.2-0.1,0.5-0.2,0.7,0.1c0.3-0.3,0.8-0.3,1,0
					c0.3-0.3,0.7-0.3,1,0.1c0.1-0.4,0.9-0.5,0.9,0.4c0.2-0.5,0.9-0.6,1.3-0.6c-0.1,0.2-0.2,0.3-0.2,0.6c0,0.6,0,1.1,0,1.6h0.4
					c0.1-1.6,0.5-3,2.7-4c0.6-0.3,1.2-0.4,1.9-0.8c0.6,0.4,1.3,0.5,1.8,0.8c2.4,1.3,2.7,2.2,2.8,4l1.5,0.1c-0.1-0.5,0.1-0.6,0.7-1.1
					l-2.4-2.9l1.1-0.9l0.9,0.9c0.4-0.4,0.6-1.3,0.5-2C45.1,37.2,45.1,36.9,44.8,36.6L44.8,36.6z M33.9,53.5c0.3,0,0.5-0.2,0.5-0.5
					s-0.2-0.5-0.5-0.5s-0.5,0.2-0.5,0.5S33.6,53.5,33.9,53.5L33.9,53.5z M36.9,45c-0.2-0.1-1,0-1.4,0c0,0.2,0.2,0.6,0.4,0.7
					c0.4,0.2,1,0.2,1.5,0.1C37.5,45.6,37.3,45.1,36.9,45L36.9,45z M39.8,45c-0.3,0.1-0.5,0.5-0.5,0.8c0.5,0,1.2,0,1.5-0.1
					c0.2-0.2,0.4-0.5,0.4-0.7C40.8,45,40,44.9,39.8,45L39.8,45z M42.4,52.3c-0.3,0-0.7-0.1-0.9-0.3c-0.2,0.4-0.6,0.8-1.1,1
					c0.3,0.2,0.5,0.2,0.9,0.3C41.6,53.1,42.3,52.6,42.4,52.3L42.4,52.3z M41.2,51.9c-0.5-0.3-1.1-0.9-1.6-1.7c0,0.3-0.5,2.2,0.4,2.7
					C40.4,52.7,40.9,52.3,41.2,51.9L41.2,51.9z M40.5,49.1c-0.3,0-0.7,0.4-0.6,0.6c0.3,0.7,1.4,2.2,2.4,2.3
					C41.6,51.1,41,50.1,40.5,49.1L40.5,49.1z M36.3,49.6c0-0.4-0.3-0.7-0.5-0.8l-0.9,1.5l0.5,0.3L36.3,49.6L36.3,49.6z M48.7,54.3
					c-0.1-2.3-1.3-4.7-4.1-6.1c0,1.6-1.6,4.7-2.6,5.2c1,0.2,2.1,0.9,2.4,2.1l0.1-4c0.6,0.7,0.5,2.7,0.5,4.4h2.5
					c-0.1,0.3,0,1-0.4,1.2c0.6,0.4,0.3,1.3-0.2,1.5c-0.4,0.2-0.8,0.1-1.1-0.1c-0.2,0.2-0.7,0.4-1.3,0c-0.4,0.4-0.8,0.4-1.2-0.1
					c-0.1,0.2-0.4,0.2-0.6,0.2c0.3,0.9,1.8,1.8,3,1.4C48.3,59.2,48.8,57.1,48.7,54.3L48.7,54.3z M44,48.1l-0.6-0.2
					c-0.1,1.2-0.6,2.5-1.2,3.3c0.1,0.3,0.4,0.7,0.5,0.8C43.1,51.4,44.2,49.6,44,48.1L44,48.1z M42.1,47.7L42.1,47.7l-1.2,1.1
					c0.2,0.7,0.7,1.5,1,2.1c0.5-0.6,0.9-2.2,0.9-3L42.1,47.7L42.1,47.7z M34.5,47.6c-1.3,0.2-2.2,0.5-3.4,1.2
					c-1.9,1.3-3.1,3.4-3.3,5.4c0,1.7,0.1,3.3,1.1,4.6c-0.1-0.2-0.3-0.7,0.2-0.8c-0.3-0.1-0.5-0.8,0-1c-0.3-0.2-0.4-0.6-0.1-1
					c0.2-0.3,0.5-0.2,0.7-0.3v-1h1.8c0-0.7-0.1-2.2,0.6-3.2L32,54.9c0.2-0.3,0.7-0.4,1-0.3v3c1.1-1.3,2.7-2.6,4.3-3.3
					c-0.7-0.6-1-1.2-1-4.1l-0.9,0.9l-1.2-0.7l1.1-2.1C35,48.1,34.8,48,34.5,47.6L34.5,47.6z M44.9,44.5c-0.5-0.6-1.2-0.6-1.9-0.6
					c0.1,1.1,0,2.2-0.4,3.1c1.4,0.4,2.2,0.7,3.4,1.3c1.1-0.4,2.2-1.3,1.6-1.7C46.9,46.2,45.7,45.4,44.9,44.5L44.9,44.5z M33.7,43.9
					c-0.7,0-1.2,0-2.1,0.5s-1.8,1.6-2.7,2c-0.5,0.3,1.2,1.8,1.9,1.8c0.9-0.7,2-0.9,3.4-1.3C33.6,45.9,33.8,44.8,33.7,43.9L33.7,43.9
					z M38.3,43l-0.5,0.5l0.5,0.5l0.5-0.5L38.3,43L38.3,43z M49.3,44.4c0.3-0.4,0.1-0.6-0.2-0.4l-0.8,0.6c-0.2,0.2,0,0.5,0.4,0.4
					C49,44.8,49.2,44.7,49.3,44.4L49.3,44.4z M48.9,43.7c0.3-0.3,0-0.6-0.3-0.4L47.7,44c-0.3,0.2,0.1,0.6,0.3,0.4L48.9,43.7
					L48.9,43.7z M47.7,42.5c0.3-0.3,0-0.6-0.3-0.4l-0.9,0.7c-0.3,0.2,0.1,0.6,0.3,0.4L47.7,42.5L47.7,42.5z M48.3,43.1
					c0.3-0.3,0-0.6-0.3-0.4l-0.9,0.7c-0.3,0.2,0.1,0.6,0.3,0.4L48.3,43.1L48.3,43.1z M46,43c0.1-0.5,0.9-0.6,0.7-1.3
					c-0.6,0.3-1,0.8-1.5,1.3c-0.1,0.3-0.1,0.7,0.1,1c0.5,0.4,1.1,1.3,1.8,1.7c0.3,0.1,1.1-0.1,1.3-0.3c-0.3-0.1-0.6,0-0.5-0.5
					c-0.4,0.2-0.7-0.3-0.6-0.6c-0.2,0.1-0.9-0.2-0.6-0.7C46.2,43.7,45.9,43.3,46,43L46,43z M32.6,41.7L32.6,41.7
					c-0.4,0.3-0.4,0.6-0.5,1c0,0.2-0.3,0.3-0.4,0.4c-0.3,0-0.4-0.1-0.5-0.4c-0.1,0.3-0.3,0.3-0.4,0.4c-0.3,0-0.3-0.1-0.4-0.3
					c-0.2,0.2-0.5,0.2-0.6,0.3c-0.3,0-0.3-0.1-0.4-0.4c-0.1,0.2-0.2,0.3-0.4,0.4c-0.1,0-0.2,0.1-0.3-0.2c0,0.5,0.4,1.6,1.2,2
					c0.6-0.5,2-1.7,2.9-1.7L32.6,41.7L32.6,41.7z M31.9,41.6c-0.1-0.4-0.6-0.4-0.6,0v0.8c0.1,0.5,0.5,0.4,0.6,0V41.6L31.9,41.6z
					 M31,41.6c0-0.4-0.6-0.4-0.6,0v0.8c0.1,0.5,0.5,0.4,0.6,0V41.6L31,41.6z M30.1,41.6c-0.1-0.4-0.6-0.4-0.6,0v0.8
					c0.1,0.5,0.5,0.4,0.6,0V41.6L30.1,41.6z M29.1,41.6c-0.1-0.4-0.4-0.3-0.5,0.1c-0.1,0.4-0.1,0.4-0.1,0.8c0.1,0.3,0.4,0.4,0.5,0
					v-0.9H29.1z M40.2,39.9c0.9,1,0.9,1.8,0.9,3.3h1.2C42.2,41.3,41.9,40.7,40.2,39.9L40.2,39.9z M36.6,39.9c-1.8,0.8-2,1.4-2.1,3.3
					h1.2C35.6,41.7,35.7,40.9,36.6,39.9L36.6,39.9z M38.7,39.3c0,1.8-0.1,2.9,0.3,3.6c0.2,0.2,0.3,0.3,0.6,0.3h0.7
					C40.3,40.7,39.9,40,38.7,39.3L38.7,39.3z M38,39.3c-1.1,0.7-1.6,1.4-1.6,3.9h0.7c0.3-0.1,0.4-0.1,0.6-0.3
					C38.1,42.2,38,41.1,38,39.3L38,39.3z M48.1,40.3c-0.2-1.9-1.6-2.6-2.4-2.8c0.1,1.1-0.1,1.9-1.1,2.7l-0.9-1l-0.3,0.3l2,2.5
					l0.3-0.3l-0.8-1C46.1,39.7,47.5,39.9,48.1,40.3L48.1,40.3z M38.3,70.4c-0.6-0.7-1.1-1-2.7-1.1c-1.5-0.1-4.2-0.1-6-0.1
					c-1.3,0-2.1-0.5-2.3-1.8c1,0.8,3.2,0.4,5.3,0.4c2.5,0,5-0.2,5.6,1c0.6-1.2,3.1-1.1,5.6-1c2.1,0,4.4,0.4,5.4-0.4
					c-0.1,1.3-1,1.8-2.3,1.8c-1.8,0.1-4.5,0-6,0.1C39.4,69.5,38.9,69.7,38.3,70.4L38.3,70.4z M38.3,71.4c0.8-2.4,7-1.2,8.9-1.4
					c2.6-0.4,2.5-2.4,2.6-3.8c-1.9,1.7-4,0.8-6.5,0.8c-1.8,0-4.2-0.3-5.1,0.7c-0.8-1-3.2-0.7-5.1-0.7c-2.5,0-5,0.9-6.6-0.8
					c0.4,1.6,0.1,3.1,2.8,3.8C31.3,70.5,37.5,69,38.3,71.4L38.3,71.4z M39.3,60.9c-0.6,0.6-0.6,2-0.6,2.3c0,0.4,0,1.6,0.6,2.4
					c0-0.2,0-0.4,0.2-0.6c-0.4-0.4-0.3-0.9,0-1.1c-0.3-0.3-0.3-0.9,0-1.2c-0.3-0.3-0.4-0.8,0-1.1C39.2,61.4,39.2,61.1,39.3,60.9
					L39.3,60.9z M37.2,60.9c0.1,0.2,0.1,0.5-0.1,0.7c0.3,0.3,0.2,0.8,0,1.1c0.3,0.3,0.3,0.9,0,1.2c0.3,0.3,0.3,0.8,0,1.1
					c0.2,0.2,0.3,0.4,0.3,0.6c0.6-0.7,0.6-1.9,0.6-2.4C37.8,62.9,37.8,61.5,37.2,60.9L37.2,60.9z M46.4,58.5c0.3,0,0.5-0.2,0.5-0.5
					s-0.2-0.5-0.5-0.5s-0.5,0.2-0.5,0.5C45.9,58.2,46.2,58.5,46.4,58.5L46.4,58.5z M45.1,58.5c0.3,0,0.5-0.2,0.5-0.5
					s-0.2-0.5-0.5-0.5s-0.5,0.2-0.5,0.5C44.7,58.2,44.9,58.5,45.1,58.5L45.1,58.5z M43.9,58.5c0.3,0,0.5-0.2,0.5-0.5
					s-0.2-0.5-0.5-0.5s-0.5,0.2-0.5,0.5C43.4,58.2,43.6,58.5,43.9,58.5L43.9,58.5z M42.5,58.5c0.3,0,0.5-0.2,0.5-0.5
					s-0.2-0.5-0.5-0.5S42,57.7,42,58C42,58.2,42.3,58.5,42.5,58.5L42.5,58.5z M38.3,58.8c0.3,0,0.5-0.2,0.5-0.5s-0.2-0.5-0.5-0.5
					s-0.5,0.2-0.5,0.5C37.8,58.5,38.1,58.8,38.3,58.8L38.3,58.8z M36.4,61.4c0.3,0,0.5-0.2,0.5-0.5s-0.2-0.5-0.5-0.5
					s-0.5,0.2-0.5,0.5S36.1,61.4,36.4,61.4L36.4,61.4z M40.2,61.5c0.3,0,0.5-0.2,0.5-0.5s-0.2-0.5-0.5-0.5s-0.5,0.2-0.5,0.5
					C39.7,61.2,39.9,61.5,40.2,61.5L40.2,61.5z M36.4,62.5c0.3,0,0.5-0.2,0.5-0.5s-0.2-0.5-0.5-0.5s-0.5,0.2-0.5,0.5
					S36.1,62.5,36.4,62.5L36.4,62.5z M40.2,62.6c0.3,0,0.5-0.2,0.5-0.5s-0.2-0.5-0.5-0.5s-0.5,0.2-0.5,0.5
					C39.7,62.4,39.9,62.6,40.2,62.6L40.2,62.6z M36.4,63.7c0.3,0,0.5-0.2,0.5-0.5s-0.2-0.5-0.5-0.5s-0.5,0.2-0.5,0.5
					S36.1,63.7,36.4,63.7L36.4,63.7z M40.2,63.7c0.3,0,0.5-0.2,0.5-0.5s-0.2-0.5-0.5-0.5s-0.5,0.2-0.5,0.5S39.9,63.7,40.2,63.7
					L40.2,63.7z M36.4,64.9c0.3,0,0.5-0.2,0.5-0.5s-0.2-0.5-0.5-0.5s-0.5,0.2-0.5,0.5C35.9,64.7,36.1,64.9,36.4,64.9L36.4,64.9z
					 M40.2,64.9c0.3,0,0.5-0.2,0.5-0.5s-0.2-0.5-0.5-0.5s-0.5,0.2-0.5,0.5C39.7,64.7,39.9,64.9,40.2,64.9L40.2,64.9z M36.4,66
					c0.2,0,0.4-0.2,0.4-0.4c0-0.2-0.2-0.4-0.4-0.4c-0.2,0-0.4,0.2-0.4,0.4S36.2,66,36.4,66L36.4,66z M40.2,65.9
					c0.2,0,0.4-0.2,0.4-0.4c0-0.2-0.2-0.4-0.4-0.4c-0.2,0-0.4,0.2-0.4,0.4C39.7,65.7,39.9,65.9,40.2,65.9L40.2,65.9z M33.4,40.7
					c0.3,0,0.5-0.2,0.5-0.5s-0.2-0.5-0.5-0.5s-0.5,0.2-0.5,0.5S33.1,40.7,33.4,40.7L33.4,40.7z M33.4,39.5c0.3,0,0.5-0.2,0.5-0.5
					s-0.2-0.5-0.5-0.5s-0.5,0.2-0.5,0.5C32.8,39.3,33.1,39.5,33.4,39.5L33.4,39.5z M32.7,38.3c0.3,0,0.5-0.2,0.5-0.5
					s-0.2-0.5-0.5-0.5s-0.5,0.2-0.5,0.5S32.4,38.3,32.7,38.3L32.7,38.3z M31.5,37.8c0.3,0,0.5-0.2,0.5-0.5s-0.2-0.5-0.5-0.5
					c-0.3,0-0.5,0.2-0.5,0.5C31,37.5,31.3,37.8,31.5,37.8L31.5,37.8z M30.1,37.7c0.3,0,0.5-0.2,0.5-0.5s-0.2-0.5-0.5-0.5
					c-0.3,0-0.5,0.2-0.5,0.5S29.8,37.7,30.1,37.7L30.1,37.7z M28.9,38.5c0.3,0,0.5-0.2,0.5-0.5s-0.2-0.5-0.5-0.5
					c-0.3,0-0.5,0.2-0.5,0.5C28.4,38.2,28.6,38.5,28.9,38.5L28.9,38.5z M28.2,39.6c0.3,0,0.5-0.2,0.5-0.5s-0.2-0.5-0.5-0.5
					c-0.3,0-0.5,0.2-0.5,0.5C27.7,39.3,27.9,39.6,28.2,39.6L28.2,39.6z M28.2,40.9c0.3,0,0.5-0.2,0.5-0.5s-0.2-0.5-0.5-0.5
					c-0.3,0-0.5,0.2-0.5,0.5C27.7,40.6,28,40.9,28.2,40.9L28.2,40.9z M31.1,60.3h-0.7c0.1,0.5,0.2,0.7,0.7,1.1V60.3L31.1,60.3z
					 M47.4,59.8c-0.4,0.5-1.3,1-2.4,1c-1.6,1.1-3.3,1.1-3.9,0.4c0,0.2-0.2,0.3-0.3,0.3c0.3,0.3,0.3,0.8,0,1.1c0.4,0.3,0.3,1,0,1.2
					c0.3,0.3,0.3,0.8,0,1.2c0.1,0.1,0.3,0.2,0.2,0.4c2.3-1.4,4.3,0.7,6.4,0.4C50.6,65.1,50.3,60.2,47.4,59.8L47.4,59.8z M29.8,60.3
					c-3-1.2-4,4-1.8,5.2c2.5,1,5.1-2.2,7.5-0.1c0-0.3,0.1-0.4,0.3-0.4c-0.5-0.3-0.4-0.9,0-1.2c-0.3-0.2-0.4-0.9,0-1.2
					c-0.3-0.3-0.4-0.8,0-1.1c-0.2-0.1-0.3-0.2-0.3-0.4c-1.1,0.7-2.8,0.3-3.8-0.2v1.3C30.8,61.9,30,61.2,29.8,60.3L29.8,60.3z M31,59
					h-1.3c-0.7,0-0.5,0.7,0,0.6H31C31.5,59.8,31.6,59,31,59L31,59z M31,58.1h-1.3c-0.7,0-0.5,0.7,0,0.7H31
					C31.5,58.8,31.7,58,31,58.1L31,58.1z M31,57.1h-1.3c-0.7,0-0.5,0.7,0,0.7H31C31.5,57.9,31.7,57.1,31,57.1L31,57.1z M31,56.2
					h-1.3c-0.7,0-0.5,0.7,0,0.7H31C31.5,56.9,31.7,56.1,31,56.2L31,56.2z M46.6,56.6h-4.1c0,0.1,0,0.3,0.2,0.4
					c0.2,0,0.4,0.1,0.6,0.3c0.3-0.5,0.9-0.4,1.2-0.1c0.3-0.3,1.1-0.3,1.3,0c0.2-0.3,0.4-0.3,0.8-0.3C46.6,56.9,46.7,56.7,46.6,56.6
					L46.6,56.6z M39.4,55.1c-1.8,0.9-4.1,2-5.2,3.8c-0.3,0.4-0.4,1.6-0.5,2.1c0.5,0.1,0.9,0.2,1.4-0.3c0.7-0.6,1.5-0.7,1.9-0.4
					c0.7,0.1,1,1,1.2,1.6c0.2-0.8,0.4-1,1.2-1.6c0.5-0.4,1.5-0.1,2,0.5c0.6,0.7,1.8,0.4,2.3,0c-0.9-0.5-2-1.5-2.2-2.7
					c0-0.4,0.2-0.7,0.4-0.9l-0.1-0.9C41.7,55.6,39.9,55.3,39.4,55.1L39.4,55.1z M32.6,55.4L32.6,55.4c-0.2,0-0.3,0.1-0.4,0.3
					c-0.4,0.3-0.1,0.9-0.5,1.3c0.3,0.2,0.3,0.8,0,1c0.4,0.3,0.3,0.7-0.1,1c0.3,0.1,0.4,0.4,0.2,0.8C33.1,58.1,32.4,56.8,32.6,55.4
					L32.6,55.4z M37.8,54.6c-0.7,0.2-1.2,0.5-1.8,0.9c-1.4,0.8-3.6,2.9-3.7,5.1c0.2,0.2,0.4,0.3,0.7,0.3c0.2-0.8,1.2-3.1,2.5-4.1
					c0.9-0.8,2-1.3,3.1-1.9L37.8,54.6L37.8,54.6z M30.3,55.1v0.5h0.8v-0.5H30.3L30.3,55.1z M36.6,43.9h-2.2c-0.1,1,0,1.9,0.3,2.5
					c0.8,1.7,1.4,1.4,2,2.5c0.5,1.3-0.2,2.9,0.5,4.2c1.5,1.9,4.8,1.5,5.2,2.8h1.5c0-1.6-1.7-2.1-2.4-2.1c-0.8,0-2-0.4-2.3-1.3
					c-0.2-0.6-0.4-2.7,0.4-3.8c0.8-0.9,1.9-1.3,2.4-2.4c0.3-0.9,0.4-1.8,0.2-2.5h-2.1c-1.3,0-1.8,0.6-1.8,1
					C38.3,44.6,37.9,43.9,36.6,43.9z"/>
			</g>
			<g>
				<defs>
					<path id="SVGID_2_" d="M44.8,36.6c1.2,0,2.1,0.6,2.8,1.4c0.7,0.7,1.1,2,0.8,3.1c-0.8-0.7-1.8-0.7-2.7-0.4l0.4,0.6l0.8-0.5
						c0.2,0.3,0.5,0.5,0.4,0.8c0.5-0.2,1.1,0.3,0.9,0.7c0.6-0.2,0.8,0.3,0.7,0.5c0.3,0,0.7,0.2,0.6,0.6c0.4-0.1,0.5,0.3,0.4,0.7
						c-0.4,0.9-0.8,1.7-2.1,2l0.7,0.3c-0.4,1.1-1.1,2-1.9,2.3c1.6,1.5,2.6,3.4,2.7,6.6c0,1.1-0.3,3.2-1.4,4.1
						c1.3,0.3,2.6,1.7,2.5,3.4c0,0.6-0.2,1.2-0.4,1.8c-0.7,1.7-2.6,1.9-4.1,1.6c-1.6-0.3-2.9-1.1-4.4-0.5c-0.6,0.3-1.2,0.9-2,0.5
						c-0.7-0.5-0.8-0.8-1.1-1.5c-0.3,0.7-0.5,0.9-1.1,1.4c-0.7,0.5-1.6,0-2.1-0.4c-1.7-1.2-3.4,0.5-5,0.6c-3,0.4-4-1.5-4-3.4
						c0-1.7,0.8-3.4,2.5-3.4c-0.6-0.5-1.2-1.3-1.4-2.5c-0.6-3.3-0.2-5.4,2.8-8.4c-0.7-0.3-1.5-0.9-2.1-2.2c1.1-0.6,1.2-1,1.2-1
						c-1-0.9-1.5-2.2-1.2-3.6c0.1-0.4,0.3-0.6,0.5-0.8c0.2-0.1,0.5-0.2,0.7,0.1c0.3-0.3,0.8-0.3,1,0c0.3-0.3,0.7-0.3,1,0.1
						c0.1-0.4,0.9-0.5,0.9,0.4c0.2-0.5,0.9-0.6,1.3-0.6c-0.1,0.2-0.2,0.3-0.2,0.6c0,0.6,0,1.1,0,1.6h0.4c0.1-1.6,0.5-3,2.7-4
						c0.6-0.3,1.2-0.4,1.9-0.8c0.6,0.4,1.3,0.5,1.8,0.8c2.4,1.3,2.7,2.2,2.8,4l1.5,0.1c-0.1-0.5,0.1-0.6,0.7-1.1l-2.4-2.9l1.1-0.9
						l0.9,0.9c0.4-0.4,0.6-1.3,0.5-2C45.1,37.2,45.1,36.9,44.8,36.6L44.8,36.6z M33.9,53.5c0.3,0,0.5-0.2,0.5-0.5s-0.2-0.5-0.5-0.5
						s-0.5,0.2-0.5,0.5S33.6,53.5,33.9,53.5L33.9,53.5z M36.9,45c-0.2-0.1-1,0-1.4,0c0,0.2,0.2,0.6,0.4,0.7c0.4,0.2,1,0.2,1.5,0.1
						C37.5,45.6,37.3,45.1,36.9,45L36.9,45z M39.8,45c-0.3,0.1-0.5,0.5-0.5,0.8c0.5,0,1.2,0,1.5-0.1c0.2-0.2,0.4-0.5,0.4-0.7
						C40.8,45,40,44.9,39.8,45L39.8,45z M42.4,52.3c-0.3,0-0.7-0.1-0.9-0.3c-0.2,0.4-0.6,0.8-1.1,1c0.3,0.2,0.5,0.2,0.9,0.3
						C41.6,53.1,42.3,52.6,42.4,52.3L42.4,52.3z M41.2,51.9c-0.5-0.3-1.1-0.9-1.6-1.7c0,0.3-0.5,2.2,0.4,2.7
						C40.4,52.7,40.9,52.3,41.2,51.9L41.2,51.9z M40.5,49.1c-0.3,0-0.7,0.4-0.6,0.6c0.3,0.7,1.4,2.2,2.4,2.3
						C41.6,51.1,41,50.1,40.5,49.1L40.5,49.1z M36.3,49.6c0-0.4-0.3-0.7-0.5-0.8l-0.9,1.5l0.5,0.3L36.3,49.6L36.3,49.6z M48.7,54.3
						c-0.1-2.3-1.3-4.7-4.1-6.1c0,1.6-1.6,4.7-2.6,5.2c1,0.2,2.1,0.9,2.4,2.1l0.1-4c0.6,0.7,0.5,2.7,0.5,4.4h2.5
						c-0.1,0.3,0,1-0.4,1.2c0.6,0.4,0.3,1.3-0.2,1.5c-0.4,0.2-0.8,0.1-1.1-0.1c-0.2,0.2-0.7,0.4-1.3,0c-0.4,0.4-0.8,0.4-1.2-0.1
						c-0.1,0.2-0.4,0.2-0.6,0.2c0.3,0.9,1.8,1.8,3,1.4C48.3,59.2,48.8,57.1,48.7,54.3L48.7,54.3z M44,48.1l-0.6-0.2
						c-0.1,1.2-0.6,2.5-1.2,3.3c0.1,0.3,0.4,0.7,0.5,0.8C43.1,51.4,44.2,49.6,44,48.1L44,48.1z M42.1,47.7L42.1,47.7l-1.2,1.1
						c0.2,0.7,0.7,1.5,1,2.1c0.5-0.6,0.9-2.2,0.9-3L42.1,47.7L42.1,47.7z M34.5,47.6c-1.3,0.2-2.2,0.5-3.4,1.2
						c-1.9,1.3-3.1,3.4-3.3,5.4c0,1.7,0.1,3.3,1.1,4.6c-0.1-0.2-0.3-0.7,0.2-0.8c-0.3-0.1-0.5-0.8,0-1c-0.3-0.2-0.4-0.6-0.1-1
						c0.2-0.3,0.5-0.2,0.7-0.3v-1h1.8c0-0.7-0.1-2.2,0.6-3.2L32,54.9c0.2-0.3,0.7-0.4,1-0.3v3c1.1-1.3,2.7-2.6,4.3-3.3
						c-0.7-0.6-1-1.2-1-4.1l-0.9,0.9l-1.2-0.7l1.1-2.1C35,48.1,34.8,48,34.5,47.6L34.5,47.6z M44.9,44.5c-0.5-0.6-1.2-0.6-1.9-0.6
						c0.1,1.1,0,2.2-0.4,3.1c1.4,0.4,2.2,0.7,3.4,1.3c1.1-0.4,2.2-1.3,1.6-1.7C46.9,46.2,45.7,45.4,44.9,44.5L44.9,44.5z M33.7,43.9
						c-0.7,0-1.2,0-2.1,0.5s-1.8,1.6-2.7,2c-0.5,0.3,1.2,1.8,1.9,1.8c0.9-0.7,2-0.9,3.4-1.3C33.6,45.9,33.8,44.8,33.7,43.9
						L33.7,43.9z M38.3,43l-0.5,0.5l0.5,0.5l0.5-0.5L38.3,43L38.3,43z M49.3,44.4c0.3-0.4,0.1-0.6-0.2-0.4l-0.8,0.6
						c-0.2,0.2,0,0.5,0.4,0.4C49,44.8,49.2,44.7,49.3,44.4L49.3,44.4z M48.9,43.7c0.3-0.3,0-0.6-0.3-0.4L47.7,44
						c-0.3,0.2,0.1,0.6,0.3,0.4L48.9,43.7L48.9,43.7z M47.7,42.5c0.3-0.3,0-0.6-0.3-0.4l-0.9,0.7c-0.3,0.2,0.1,0.6,0.3,0.4
						L47.7,42.5L47.7,42.5z M48.3,43.1c0.3-0.3,0-0.6-0.3-0.4l-0.9,0.7c-0.3,0.2,0.1,0.6,0.3,0.4L48.3,43.1L48.3,43.1z M46,43
						c0.1-0.5,0.9-0.6,0.7-1.3c-0.6,0.3-1,0.8-1.5,1.3c-0.1,0.3-0.1,0.7,0.1,1c0.5,0.4,1.1,1.3,1.8,1.7c0.3,0.1,1.1-0.1,1.3-0.3
						c-0.3-0.1-0.6,0-0.5-0.5c-0.4,0.2-0.7-0.3-0.6-0.6c-0.2,0.1-0.9-0.2-0.6-0.7C46.2,43.7,45.9,43.3,46,43L46,43z M32.6,41.7
						L32.6,41.7c-0.4,0.3-0.4,0.6-0.5,1c0,0.2-0.3,0.3-0.4,0.4c-0.3,0-0.4-0.1-0.5-0.4c-0.1,0.3-0.3,0.3-0.4,0.4
						c-0.3,0-0.3-0.1-0.4-0.3c-0.2,0.2-0.5,0.2-0.6,0.3c-0.3,0-0.3-0.1-0.4-0.4c-0.1,0.2-0.2,0.3-0.4,0.4c-0.1,0-0.2,0.1-0.3-0.2
						c0,0.5,0.4,1.6,1.2,2c0.6-0.5,2-1.7,2.9-1.7L32.6,41.7L32.6,41.7z M31.9,41.6c-0.1-0.4-0.6-0.4-0.6,0v0.8
						c0.1,0.5,0.5,0.4,0.6,0V41.6L31.9,41.6z M31,41.6c0-0.4-0.6-0.4-0.6,0v0.8c0.1,0.5,0.5,0.4,0.6,0V41.6L31,41.6z M30.1,41.6
						c-0.1-0.4-0.6-0.4-0.6,0v0.8c0.1,0.5,0.5,0.4,0.6,0V41.6L30.1,41.6z M29.1,41.6c-0.1-0.4-0.4-0.3-0.5,0.1
						c-0.1,0.4-0.1,0.4-0.1,0.8c0.1,0.3,0.4,0.4,0.5,0v-0.9H29.1z M40.2,39.9c0.9,1,0.9,1.8,0.9,3.3h1.2
						C42.2,41.3,41.9,40.7,40.2,39.9L40.2,39.9z M36.6,39.9c-1.8,0.8-2,1.4-2.1,3.3h1.2C35.6,41.7,35.7,40.9,36.6,39.9L36.6,39.9z
						 M38.7,39.3c0,1.8-0.1,2.9,0.3,3.6c0.2,0.2,0.3,0.3,0.6,0.3h0.7C40.3,40.7,39.9,40,38.7,39.3L38.7,39.3z M38,39.3
						c-1.1,0.7-1.6,1.4-1.6,3.9h0.7c0.3-0.1,0.4-0.1,0.6-0.3C38.1,42.2,38,41.1,38,39.3L38,39.3z M48.1,40.3
						c-0.2-1.9-1.6-2.6-2.4-2.8c0.1,1.1-0.1,1.9-1.1,2.7l-0.9-1l-0.3,0.3l2,2.5l0.3-0.3l-0.8-1C46.1,39.7,47.5,39.9,48.1,40.3
						L48.1,40.3z M38.3,70.4c-0.6-0.7-1.1-1-2.7-1.1c-1.5-0.1-4.2-0.1-6-0.1c-1.3,0-2.1-0.5-2.3-1.8c1,0.8,3.2,0.4,5.3,0.4
						c2.5,0,5-0.2,5.6,1c0.6-1.2,3.1-1.1,5.6-1c2.1,0,4.4,0.4,5.4-0.4c-0.1,1.3-1,1.8-2.3,1.8c-1.8,0.1-4.5,0-6,0.1
						C39.4,69.5,38.9,69.7,38.3,70.4L38.3,70.4z M38.3,71.4c0.8-2.4,7-1.2,8.9-1.4c2.6-0.4,2.5-2.4,2.6-3.8c-1.9,1.7-4,0.8-6.5,0.8
						c-1.8,0-4.2-0.3-5.1,0.7c-0.8-1-3.2-0.7-5.1-0.7c-2.5,0-5,0.9-6.6-0.8c0.4,1.6,0.1,3.1,2.8,3.8C31.3,70.5,37.5,69,38.3,71.4
						L38.3,71.4z M39.3,60.9c-0.6,0.6-0.6,2-0.6,2.3c0,0.4,0,1.6,0.6,2.4c0-0.2,0-0.4,0.2-0.6c-0.4-0.4-0.3-0.9,0-1.1
						c-0.3-0.3-0.3-0.9,0-1.2c-0.3-0.3-0.4-0.8,0-1.1C39.2,61.4,39.2,61.1,39.3,60.9L39.3,60.9z M37.2,60.9c0.1,0.2,0.1,0.5-0.1,0.7
						c0.3,0.3,0.2,0.8,0,1.1c0.3,0.3,0.3,0.9,0,1.2c0.3,0.3,0.3,0.8,0,1.1c0.2,0.2,0.3,0.4,0.3,0.6c0.6-0.7,0.6-1.9,0.6-2.4
						C37.8,62.9,37.8,61.5,37.2,60.9L37.2,60.9z M46.4,58.5c0.3,0,0.5-0.2,0.5-0.5s-0.2-0.5-0.5-0.5s-0.5,0.2-0.5,0.5
						C45.9,58.2,46.2,58.5,46.4,58.5L46.4,58.5z M45.1,58.5c0.3,0,0.5-0.2,0.5-0.5s-0.2-0.5-0.5-0.5s-0.5,0.2-0.5,0.5
						C44.7,58.2,44.9,58.5,45.1,58.5L45.1,58.5z M43.9,58.5c0.3,0,0.5-0.2,0.5-0.5s-0.2-0.5-0.5-0.5s-0.5,0.2-0.5,0.5
						C43.4,58.2,43.6,58.5,43.9,58.5L43.9,58.5z M42.5,58.5c0.3,0,0.5-0.2,0.5-0.5s-0.2-0.5-0.5-0.5S42,57.7,42,58
						C42,58.2,42.3,58.5,42.5,58.5L42.5,58.5z M38.3,58.8c0.3,0,0.5-0.2,0.5-0.5s-0.2-0.5-0.5-0.5s-0.5,0.2-0.5,0.5
						C37.8,58.5,38.1,58.8,38.3,58.8L38.3,58.8z M36.4,61.4c0.3,0,0.5-0.2,0.5-0.5s-0.2-0.5-0.5-0.5s-0.5,0.2-0.5,0.5
						S36.1,61.4,36.4,61.4L36.4,61.4z M40.2,61.5c0.3,0,0.5-0.2,0.5-0.5s-0.2-0.5-0.5-0.5s-0.5,0.2-0.5,0.5
						C39.7,61.2,39.9,61.5,40.2,61.5L40.2,61.5z M36.4,62.5c0.3,0,0.5-0.2,0.5-0.5s-0.2-0.5-0.5-0.5s-0.5,0.2-0.5,0.5
						S36.1,62.5,36.4,62.5L36.4,62.5z M40.2,62.6c0.3,0,0.5-0.2,0.5-0.5s-0.2-0.5-0.5-0.5s-0.5,0.2-0.5,0.5
						C39.7,62.4,39.9,62.6,40.2,62.6L40.2,62.6z M36.4,63.7c0.3,0,0.5-0.2,0.5-0.5s-0.2-0.5-0.5-0.5s-0.5,0.2-0.5,0.5
						S36.1,63.7,36.4,63.7L36.4,63.7z M40.2,63.7c0.3,0,0.5-0.2,0.5-0.5s-0.2-0.5-0.5-0.5s-0.5,0.2-0.5,0.5S39.9,63.7,40.2,63.7
						L40.2,63.7z M36.4,64.9c0.3,0,0.5-0.2,0.5-0.5s-0.2-0.5-0.5-0.5s-0.5,0.2-0.5,0.5C35.9,64.7,36.1,64.9,36.4,64.9L36.4,64.9z
						 M40.2,64.9c0.3,0,0.5-0.2,0.5-0.5s-0.2-0.5-0.5-0.5s-0.5,0.2-0.5,0.5C39.7,64.7,39.9,64.9,40.2,64.9L40.2,64.9z M36.4,66
						c0.2,0,0.4-0.2,0.4-0.4c0-0.2-0.2-0.4-0.4-0.4c-0.2,0-0.4,0.2-0.4,0.4S36.2,66,36.4,66L36.4,66z M40.2,65.9
						c0.2,0,0.4-0.2,0.4-0.4c0-0.2-0.2-0.4-0.4-0.4c-0.2,0-0.4,0.2-0.4,0.4C39.7,65.7,39.9,65.9,40.2,65.9L40.2,65.9z M33.4,40.7
						c0.3,0,0.5-0.2,0.5-0.5s-0.2-0.5-0.5-0.5s-0.5,0.2-0.5,0.5S33.1,40.7,33.4,40.7L33.4,40.7z M33.4,39.5c0.3,0,0.5-0.2,0.5-0.5
						s-0.2-0.5-0.5-0.5s-0.5,0.2-0.5,0.5C32.8,39.3,33.1,39.5,33.4,39.5L33.4,39.5z M32.7,38.3c0.3,0,0.5-0.2,0.5-0.5
						s-0.2-0.5-0.5-0.5s-0.5,0.2-0.5,0.5S32.4,38.3,32.7,38.3L32.7,38.3z M31.5,37.8c0.3,0,0.5-0.2,0.5-0.5s-0.2-0.5-0.5-0.5
						c-0.3,0-0.5,0.2-0.5,0.5C31,37.5,31.3,37.8,31.5,37.8L31.5,37.8z M30.1,37.7c0.3,0,0.5-0.2,0.5-0.5s-0.2-0.5-0.5-0.5
						c-0.3,0-0.5,0.2-0.5,0.5S29.8,37.7,30.1,37.7L30.1,37.7z M28.9,38.5c0.3,0,0.5-0.2,0.5-0.5s-0.2-0.5-0.5-0.5
						c-0.3,0-0.5,0.2-0.5,0.5C28.4,38.2,28.6,38.5,28.9,38.5L28.9,38.5z M28.2,39.6c0.3,0,0.5-0.2,0.5-0.5s-0.2-0.5-0.5-0.5
						c-0.3,0-0.5,0.2-0.5,0.5C27.7,39.3,27.9,39.6,28.2,39.6L28.2,39.6z M28.2,40.9c0.3,0,0.5-0.2,0.5-0.5s-0.2-0.5-0.5-0.5
						c-0.3,0-0.5,0.2-0.5,0.5C27.7,40.6,28,40.9,28.2,40.9L28.2,40.9z M31.1,60.3h-0.7c0.1,0.5,0.2,0.7,0.7,1.1V60.3L31.1,60.3z
						 M47.4,59.8c-0.4,0.5-1.3,1-2.4,1c-1.6,1.1-3.3,1.1-3.9,0.4c0,0.2-0.2,0.3-0.3,0.3c0.3,0.3,0.3,0.8,0,1.1c0.4,0.3,0.3,1,0,1.2
						c0.3,0.3,0.3,0.8,0,1.2c0.1,0.1,0.3,0.2,0.2,0.4c2.3-1.4,4.3,0.7,6.4,0.4C50.6,65.1,50.3,60.2,47.4,59.8L47.4,59.8z M29.8,60.3
						c-3-1.2-4,4-1.8,5.2c2.5,1,5.1-2.2,7.5-0.1c0-0.3,0.1-0.4,0.3-0.4c-0.5-0.3-0.4-0.9,0-1.2c-0.3-0.2-0.4-0.9,0-1.2
						c-0.3-0.3-0.4-0.8,0-1.1c-0.2-0.1-0.3-0.2-0.3-0.4c-1.1,0.7-2.8,0.3-3.8-0.2v1.3C30.8,61.9,30,61.2,29.8,60.3L29.8,60.3z
						 M31,59h-1.3c-0.7,0-0.5,0.7,0,0.6H31C31.5,59.8,31.6,59,31,59L31,59z M31,58.1h-1.3c-0.7,0-0.5,0.7,0,0.7H31
						C31.5,58.8,31.7,58,31,58.1L31,58.1z M31,57.1h-1.3c-0.7,0-0.5,0.7,0,0.7H31C31.5,57.9,31.7,57.1,31,57.1L31,57.1z M31,56.2
						h-1.3c-0.7,0-0.5,0.7,0,0.7H31C31.5,56.9,31.7,56.1,31,56.2L31,56.2z M46.6,56.6h-4.1c0,0.1,0,0.3,0.2,0.4
						c0.2,0,0.4,0.1,0.6,0.3c0.3-0.5,0.9-0.4,1.2-0.1c0.3-0.3,1.1-0.3,1.3,0c0.2-0.3,0.4-0.3,0.8-0.3C46.6,56.9,46.7,56.7,46.6,56.6
						L46.6,56.6z M39.4,55.1c-1.8,0.9-4.1,2-5.2,3.8c-0.3,0.4-0.4,1.6-0.5,2.1c0.5,0.1,0.9,0.2,1.4-0.3c0.7-0.6,1.5-0.7,1.9-0.4
						c0.7,0.1,1,1,1.2,1.6c0.2-0.8,0.4-1,1.2-1.6c0.5-0.4,1.5-0.1,2,0.5c0.6,0.7,1.8,0.4,2.3,0c-0.9-0.5-2-1.5-2.2-2.7
						c0-0.4,0.2-0.7,0.4-0.9l-0.1-0.9C41.7,55.6,39.9,55.3,39.4,55.1L39.4,55.1z M32.6,55.4L32.6,55.4c-0.2,0-0.3,0.1-0.4,0.3
						c-0.4,0.3-0.1,0.9-0.5,1.3c0.3,0.2,0.3,0.8,0,1c0.4,0.3,0.3,0.7-0.1,1c0.3,0.1,0.4,0.4,0.2,0.8C33.1,58.1,32.4,56.8,32.6,55.4
						L32.6,55.4z M37.8,54.6c-0.7,0.2-1.2,0.5-1.8,0.9c-1.4,0.8-3.6,2.9-3.7,5.1c0.2,0.2,0.4,0.3,0.7,0.3c0.2-0.8,1.2-3.1,2.5-4.1
						c0.9-0.8,2-1.3,3.1-1.9L37.8,54.6L37.8,54.6z M30.3,55.1v0.5h0.8v-0.5H30.3L30.3,55.1z M36.6,43.9h-2.2c-0.1,1,0,1.9,0.3,2.5
						c0.8,1.7,1.4,1.4,2,2.5c0.5,1.3-0.2,2.9,0.5,4.2c1.5,1.9,4.8,1.5,5.2,2.8h1.5c0-1.6-1.7-2.1-2.4-2.1c-0.8,0-2-0.4-2.3-1.3
						c-0.2-0.6-0.4-2.7,0.4-3.8c0.8-0.9,1.9-1.3,2.4-2.4c0.3-0.9,0.4-1.8,0.2-2.5h-2.1c-1.3,0-1.8,0.6-1.8,1
						C38.3,44.6,37.9,43.9,36.6,43.9z"/>
				</defs>
				<use xlink:href="#SVGID_2_"  style="overflow:visible;fill:#FFFFFF;"/>
				<clipPath id="SVGID_3_">
					<use xlink:href="#SVGID_2_"  style="overflow:visible;"/>
				</clipPath>
				<g class="st1">
					<path class="st0" d="M-0.4,141.6v-6.5h0.8v2.3c0.4-0.4,0.8-0.6,1.4-0.6c0.3,0,0.6,0.1,0.9,0.2c0.3,0.1,0.4,0.3,0.6,0.6
						c0.1,0.2,0.2,0.6,0.2,1.1v3H2.7v-3c0-0.4-0.1-0.7-0.3-0.9s-0.4-0.3-0.7-0.3c-0.2,0-0.5,0.1-0.7,0.2c-0.2,0.1-0.4,0.3-0.4,0.5
						c-0.1,0.2-0.1,0.5-0.1,0.9v2.6h-0.9V141.6z M6.4,140.9l0.1,0.7c-0.2,0-0.4,0.1-0.6,0.1c-0.3,0-0.5,0-0.7-0.1s-0.3-0.2-0.3-0.4
						c-0.1-0.1-0.1-0.5-0.1-0.9v-2.7H4.2V137h0.6v-1.2l0.8-0.5v1.6h0.8v0.6H5.6v2.7c0,0.2,0,0.4,0,0.4c0,0.1,0.1,0.1,0.1,0.2
						c0.1,0,0.2,0.1,0.3,0.1C6.1,140.9,6.3,140.9,6.4,140.9L6.4,140.9z M8.9,140.9l0.1,0.7c-0.2,0-0.4,0.1-0.6,0.1
						c-0.3,0-0.5,0-0.7-0.1s-0.3-0.2-0.3-0.4c-0.1-0.1-0.1-0.5-0.1-0.9v-2.7H6.7V137h0.6v-1.2l0.8-0.5v1.6h0.8v0.6H8.1v2.7
						c0,0.2,0,0.4,0,0.4c0,0.1,0.1,0.1,0.1,0.2c0.1,0,0.2,0.1,0.3,0.1C8.6,140.9,8.8,140.9,8.9,140.9L8.9,140.9z M9.7,143.4v-6.5
						h0.7v0.6c0.2-0.2,0.4-0.4,0.6-0.5s0.5-0.2,0.8-0.2c0.4,0,0.8,0.1,1.1,0.3c0.3,0.2,0.5,0.5,0.7,0.9s0.2,0.8,0.2,1.2
						c0,0.5-0.1,0.9-0.3,1.3c-0.2,0.4-0.4,0.7-0.8,0.9c-0.3,0.2-0.7,0.3-1,0.3s-0.5-0.1-0.7-0.2c-0.2-0.1-0.4-0.3-0.5-0.4v2.3
						L9.7,143.4L9.7,143.4z M10.4,139.3c0,0.6,0.1,1,0.4,1.3c0.2,0.3,0.5,0.4,0.9,0.4c0.4,0,0.7-0.1,0.9-0.4
						c0.3-0.3,0.4-0.8,0.4-1.4c0-0.6-0.1-1-0.4-1.3c-0.2-0.3-0.5-0.4-0.9-0.4c-0.3,0-0.6,0.2-0.9,0.5
						C10.5,138.2,10.4,138.7,10.4,139.3L10.4,139.3z M14.9,137.8v-0.9h0.9v0.9H14.9L14.9,137.8z M14.9,141.6v-0.9h0.9v0.9H14.9
						L14.9,141.6z M16.6,141.7l1.9-6.7h0.6l-1.9,6.7H16.6L16.6,141.7z M19.1,141.7h0.7l1.9-6.7H21L19.1,141.7L19.1,141.7z
						 M22.2,141.6v-6.5H23v6.5H22.2L22.2,141.6z M24,139.3c0-0.9,0.2-1.5,0.7-1.9c0.4-0.3,0.9-0.5,1.5-0.5s1.2,0.2,1.6,0.6
						c0.4,0.4,0.6,1,0.6,1.7c0,0.6-0.1,1.1-0.3,1.4c-0.2,0.3-0.4,0.6-0.8,0.8c-0.3,0.2-0.7,0.3-1.1,0.3c-0.7,0-1.2-0.2-1.6-0.6
						S24,140.1,24,139.3L24,139.3z M24.8,139.3c0,0.6,0.1,1.1,0.4,1.3c0.3,0.3,0.6,0.4,1,0.4s0.7-0.2,1-0.5c0.3-0.3,0.4-0.8,0.4-1.4
						c0-0.6-0.1-1-0.4-1.3c-0.3-0.3-0.6-0.4-1-0.4c-0.4,0-0.7,0.1-1,0.4C24.9,138.2,24.8,138.7,24.8,139.3L24.8,139.3z M29.1,142
						l0.8,0.1c0,0.2,0.1,0.4,0.3,0.5c0.2,0.1,0.5,0.2,0.8,0.2c0.4,0,0.7-0.1,0.9-0.2c0.2-0.1,0.3-0.4,0.4-0.6c0-0.2,0.1-0.5,0.1-1
						c-0.3,0.4-0.8,0.6-1.3,0.6c-0.6,0-1.1-0.2-1.5-0.7s-0.5-1-0.5-1.7c0-0.4,0.1-0.9,0.2-1.2c0.2-0.4,0.4-0.7,0.7-0.9
						c0.3-0.2,0.7-0.3,1.1-0.3c0.6,0,1,0.2,1.4,0.7v-0.6h0.7v4.1c0,0.7-0.1,1.2-0.2,1.6c-0.1,0.3-0.4,0.5-0.7,0.7
						c-0.3,0.2-0.7,0.3-1.2,0.3c-0.6,0-1-0.1-1.4-0.4C29.3,142.9,29.1,142.5,29.1,142L29.1,142z M29.8,139.2c0,0.6,0.1,1.1,0.4,1.3
						c0.2,0.3,0.6,0.4,0.9,0.4c0.4,0,0.7-0.1,0.9-0.4c0.2-0.3,0.4-0.7,0.4-1.3s-0.1-1-0.4-1.3c-0.3-0.3-0.6-0.4-0.9-0.4
						c-0.4,0-0.7,0.1-0.9,0.4C29.9,138.2,29.8,138.6,29.8,139.2L29.8,139.2z M34,139.3c0-0.9,0.2-1.5,0.7-1.9
						c0.4-0.3,0.9-0.5,1.5-0.5c0.6,0,1.2,0.2,1.6,0.6c0.4,0.4,0.6,1,0.6,1.7c0,0.6-0.1,1.1-0.3,1.4c-0.2,0.3-0.4,0.6-0.8,0.8
						c-0.3,0.2-0.7,0.3-1.1,0.3c-0.7,0-1.2-0.2-1.6-0.6S34,140.1,34,139.3L34,139.3z M34.8,139.3c0,0.6,0.1,1.1,0.4,1.3
						c0.3,0.3,0.6,0.4,1,0.4c0.4,0,0.7-0.2,1-0.5s0.4-0.8,0.4-1.4c0-0.6-0.1-1-0.4-1.3s-0.6-0.4-1-0.4c-0.4,0-0.7,0.1-1,0.4
						C35,138.2,34.8,138.7,34.8,139.3L34.8,139.3z M39,139.7v-0.8h2.4v0.8H39L39,139.7z M43.7,141.6l-1.8-4.7h0.8l1,2.8
						c0.1,0.3,0.2,0.6,0.3,0.9c0.1-0.2,0.2-0.5,0.3-0.9l1-2.9h0.8l-1.8,4.7L43.7,141.6L43.7,141.6z M50.1,140.1l0.8,0.1
						c-0.1,0.5-0.4,0.9-0.7,1.1c-0.4,0.3-0.8,0.4-1.3,0.4c-0.7,0-1.2-0.2-1.6-0.6c-0.4-0.4-0.6-1-0.6-1.8s0.2-1.4,0.6-1.8
						c0.4-0.4,0.9-0.7,1.6-0.7c0.6,0,1.1,0.2,1.5,0.6c0.4,0.4,0.6,1,0.6,1.8c0,0,0,0.1,0,0.2h-3.5c0,0.5,0.2,0.9,0.4,1.2
						c0.3,0.3,0.6,0.4,1,0.4c0.3,0,0.5-0.1,0.7-0.2C49.8,140.7,50,140.4,50.1,140.1L50.1,140.1z M47.5,138.8h2.6
						c0-0.4-0.1-0.7-0.3-0.9c-0.3-0.3-0.6-0.5-1-0.5c-0.4,0-0.7,0.1-0.9,0.4C47.6,138.1,47.5,138.4,47.5,138.8L47.5,138.8z
						 M55,139.9l0.8,0.1c-0.1,0.5-0.3,1-0.7,1.3s-0.8,0.5-1.3,0.5c-0.6,0-1.2-0.2-1.5-0.6c-0.4-0.4-0.6-1-0.6-1.8
						c0-0.5,0.1-0.9,0.3-1.3c0.2-0.4,0.4-0.7,0.8-0.9c0.3-0.2,0.7-0.3,1.1-0.3c0.5,0,0.9,0.1,1.2,0.4c0.3,0.3,0.5,0.6,0.6,1.1
						l-0.8,0.1c-0.1-0.3-0.2-0.6-0.4-0.7c-0.2-0.2-0.4-0.2-0.7-0.2c-0.4,0-0.7,0.1-1,0.4c-0.3,0.3-0.4,0.7-0.4,1.4
						c0,0.6,0.1,1.1,0.4,1.4c0.2,0.3,0.6,0.4,0.9,0.4c0.3,0,0.6-0.1,0.8-0.3C54.8,140.6,54.9,140.3,55,139.9L55,139.9z M58.2,140.9
						l0.1,0.7c-0.2,0-0.4,0.1-0.6,0.1c-0.3,0-0.5,0-0.7-0.1s-0.3-0.2-0.3-0.4c-0.1-0.1-0.1-0.5-0.1-0.9v-2.7H56V137h0.6v-1.2
						l0.8-0.5v1.6h0.8v0.6h-0.8v2.7c0,0.2,0,0.4,0,0.4c0,0.1,0.1,0.1,0.1,0.2c0.1,0,0.2,0.1,0.3,0.1C57.9,140.9,58,140.9,58.2,140.9
						L58.2,140.9z M58.6,139.3c0-0.9,0.2-1.5,0.7-1.9c0.4-0.3,0.9-0.5,1.5-0.5s1.2,0.2,1.6,0.6c0.4,0.4,0.6,1,0.6,1.7
						c0,0.6-0.1,1.1-0.3,1.4c-0.2,0.3-0.4,0.6-0.8,0.8c-0.3,0.2-0.7,0.3-1.1,0.3c-0.7,0-1.2-0.2-1.6-0.6
						C58.9,140.7,58.6,140.1,58.6,139.3L58.6,139.3z M59.5,139.3c0,0.6,0.1,1.1,0.4,1.3c0.3,0.3,0.6,0.4,1,0.4s0.7-0.2,1-0.5
						s0.4-0.8,0.4-1.4c0-0.6-0.1-1-0.4-1.3c-0.3-0.3-0.6-0.4-1-0.4s-0.7,0.1-1,0.4C59.6,138.2,59.5,138.7,59.5,139.3L59.5,139.3z
						 M64,141.6v-4.7h0.7v0.7c0.2-0.3,0.4-0.6,0.5-0.7c0.2-0.1,0.3-0.2,0.5-0.2c0.3,0,0.5,0.1,0.8,0.3l-0.3,0.7
						c-0.2-0.1-0.4-0.2-0.6-0.2s-0.3,0.1-0.5,0.2c-0.1,0.1-0.2,0.3-0.3,0.4c-0.1,0.3-0.1,0.6-0.1,0.9v2.5H64V141.6z M70,139.9
						l0.8,0.1c-0.1,0.5-0.3,1-0.7,1.3s-0.8,0.5-1.3,0.5c-0.6,0-1.2-0.2-1.5-0.6c-0.4-0.4-0.6-1-0.6-1.8c0-0.5,0.1-0.9,0.3-1.3
						c0.2-0.4,0.4-0.7,0.8-0.9c0.3-0.2,0.7-0.3,1.1-0.3c0.5,0,0.9,0.1,1.2,0.4c0.3,0.3,0.5,0.6,0.6,1.1l-0.8,0.1
						c-0.1-0.3-0.2-0.6-0.4-0.7c-0.2-0.2-0.4-0.2-0.7-0.2c-0.4,0-0.7,0.1-1,0.4c-0.3,0.3-0.4,0.7-0.4,1.4c0,0.6,0.1,1.1,0.4,1.4
						c0.2,0.3,0.6,0.4,0.9,0.4c0.3,0,0.6-0.1,0.8-0.3C69.9,140.6,70,140.3,70,139.9L70,139.9z M74.5,141.6V141
						c-0.3,0.5-0.7,0.7-1.3,0.7c-0.4,0-0.7-0.1-1-0.3c-0.3-0.2-0.6-0.5-0.7-0.9c-0.2-0.4-0.3-0.8-0.3-1.3s0.1-0.9,0.2-1.3
						c0.2-0.4,0.4-0.7,0.7-0.9c0.3-0.2,0.7-0.3,1-0.3c0.3,0,0.5,0.1,0.8,0.2c0.2,0.1,0.4,0.3,0.5,0.5v-2.3h0.8v6.5L74.5,141.6
						L74.5,141.6z M72,139.3c0,0.6,0.1,1.1,0.4,1.3c0.3,0.3,0.6,0.4,0.9,0.4c0.3,0,0.6-0.1,0.9-0.4c0.2-0.3,0.4-0.7,0.4-1.3
						s-0.1-1.1-0.4-1.4c-0.2-0.3-0.6-0.5-0.9-0.5c-0.4,0-0.6,0.1-0.9,0.4C72.2,138.2,72,138.7,72,139.3L72,139.3z M76.5,141.6v-4.7
						h0.7v0.7c0.2-0.3,0.4-0.6,0.5-0.7c0.2-0.1,0.3-0.2,0.5-0.2c0.3,0,0.5,0.1,0.8,0.3l-0.3,0.7c-0.2-0.1-0.4-0.2-0.6-0.2
						s-0.3,0.1-0.5,0.2c-0.1,0.1-0.2,0.3-0.3,0.4c-0.1,0.3-0.1,0.6-0.1,0.9v2.5h-0.7V141.6z M79.3,141.6v-0.9h0.9v0.9H79.3
						L79.3,141.6z M82.3,141.6h-0.7v-6.5h0.8v2.3c0.3-0.4,0.8-0.6,1.3-0.6c0.3,0,0.6,0.1,0.8,0.2c0.3,0.1,0.5,0.3,0.6,0.5
						c0.2,0.2,0.3,0.5,0.4,0.8s0.1,0.6,0.1,1c0,0.8-0.2,1.4-0.6,1.9c-0.4,0.4-0.9,0.7-1.4,0.7c-0.6,0-1-0.2-1.3-0.7V141.6
						L82.3,141.6z M82.3,139.2c0,0.6,0.1,1,0.2,1.2c0.3,0.4,0.6,0.6,1,0.6c0.3,0,0.6-0.2,0.9-0.5s0.4-0.8,0.4-1.3
						c0-0.6-0.1-1.1-0.4-1.4c-0.2-0.3-0.5-0.4-0.9-0.4c-0.3,0-0.6,0.2-0.9,0.5C82.4,138.2,82.3,138.7,82.3,139.2L82.3,139.2z
						 M86.6,141.6v-6.5h0.8v6.5H86.6L86.6,141.6z M88.3,139.3c0-0.9,0.2-1.5,0.7-1.9c0.4-0.3,0.9-0.5,1.5-0.5s1.2,0.2,1.6,0.6
						c0.4,0.4,0.6,1,0.6,1.7c0,0.6-0.1,1.1-0.3,1.4c-0.2,0.3-0.4,0.6-0.8,0.8c-0.3,0.2-0.7,0.3-1.1,0.3c-0.7,0-1.2-0.2-1.6-0.6
						C88.5,140.7,88.3,140.1,88.3,139.3L88.3,139.3z M89.1,139.3c0,0.6,0.1,1.1,0.4,1.3c0.3,0.3,0.6,0.4,1,0.4s0.7-0.2,1-0.5
						s0.4-0.8,0.4-1.4c0-0.6-0.1-1-0.4-1.3s-0.6-0.4-1-0.4s-0.7,0.1-1,0.4C89.3,138.2,89.1,138.7,89.1,139.3L89.1,139.3z M93.5,142
						l0.8,0.1c0,0.2,0.1,0.4,0.3,0.5c0.2,0.1,0.5,0.2,0.8,0.2c0.4,0,0.7-0.1,0.9-0.2c0.2-0.1,0.3-0.4,0.4-0.6c0-0.2,0.1-0.5,0.1-1
						c-0.3,0.4-0.8,0.6-1.3,0.6c-0.6,0-1.1-0.2-1.5-0.7s-0.5-1-0.5-1.7c0-0.4,0.1-0.9,0.2-1.2c0.2-0.4,0.4-0.7,0.7-0.9
						c0.3-0.2,0.7-0.3,1.1-0.3c0.6,0,1,0.2,1.4,0.7v-0.6h0.7v4.1c0,0.7-0.1,1.2-0.2,1.6c-0.1,0.3-0.4,0.5-0.7,0.7
						c-0.3,0.2-0.7,0.3-1.2,0.3c-0.6,0-1-0.1-1.4-0.4C93.6,142.9,93.5,142.5,93.5,142L93.5,142z M94.1,139.2c0,0.6,0.1,1.1,0.4,1.3
						c0.2,0.3,0.6,0.4,0.9,0.4c0.4,0,0.7-0.1,0.9-0.4c0.2-0.3,0.4-0.7,0.4-1.3s-0.1-1-0.4-1.3s-0.6-0.4-0.9-0.4
						c-0.4,0-0.7,0.1-0.9,0.4C94.3,138.2,94.1,138.6,94.1,139.2L94.1,139.2z M98.3,140.2l0.8-0.1c0,0.3,0.2,0.6,0.4,0.7
						c0.2,0.2,0.5,0.3,0.8,0.3c0.4,0,0.6-0.1,0.8-0.2c0.2-0.1,0.3-0.3,0.3-0.5s-0.1-0.3-0.2-0.4c-0.1-0.1-0.4-0.2-0.8-0.3
						c-0.6-0.1-1-0.3-1.2-0.4c-0.2-0.1-0.4-0.3-0.5-0.4c-0.1-0.2-0.2-0.4-0.2-0.6c0-0.2,0-0.4,0.1-0.6c0.1-0.2,0.2-0.3,0.4-0.4
						c0.1-0.1,0.3-0.2,0.5-0.2c0.2-0.1,0.4-0.1,0.7-0.1c0.4,0,0.7,0.1,1,0.2c0.3,0.1,0.5,0.2,0.6,0.4s0.2,0.4,0.3,0.7l-0.8,0.1
						c0-0.2-0.1-0.4-0.3-0.6c-0.2-0.1-0.4-0.2-0.7-0.2c-0.4,0-0.6,0.1-0.8,0.2c-0.2,0.1-0.2,0.3-0.2,0.4c0,0.1,0,0.2,0.1,0.3
						s0.2,0.2,0.3,0.2c0.1,0,0.3,0.1,0.7,0.2c0.6,0.2,1,0.3,1.2,0.4c0.2,0.1,0.4,0.2,0.5,0.4s0.2,0.4,0.2,0.7s-0.1,0.5-0.2,0.7
						c-0.2,0.2-0.4,0.4-0.7,0.5c-0.3,0.1-0.6,0.2-1,0.2c-0.6,0-1.1-0.1-1.4-0.4C98.6,141.1,98.4,140.7,98.3,140.2L98.3,140.2z
						 M103.2,143.4v-6.5h0.7v0.6c0.2-0.2,0.4-0.4,0.6-0.5s0.5-0.2,0.8-0.2c0.4,0,0.8,0.1,1.1,0.3c0.3,0.2,0.5,0.5,0.7,0.9
						s0.2,0.8,0.2,1.2c0,0.5-0.1,0.9-0.3,1.3c-0.2,0.4-0.4,0.7-0.8,0.9c-0.3,0.2-0.7,0.3-1,0.3s-0.5-0.1-0.7-0.2
						c-0.2-0.1-0.4-0.3-0.5-0.4v2.3L103.2,143.4L103.2,143.4z M103.9,139.3c0,0.6,0.1,1,0.4,1.3c0.2,0.3,0.5,0.4,0.9,0.4
						s0.7-0.1,0.9-0.4c0.3-0.3,0.4-0.8,0.4-1.4c0-0.6-0.1-1-0.4-1.3c-0.2-0.3-0.5-0.4-0.9-0.4c-0.3,0-0.6,0.2-0.9,0.5
						C104,138.2,103.9,138.7,103.9,139.3L103.9,139.3z M107.9,139.3c0-0.9,0.2-1.5,0.7-1.9c0.4-0.3,0.9-0.5,1.5-0.5s1.2,0.2,1.6,0.6
						c0.4,0.4,0.6,1,0.6,1.7c0,0.6-0.1,1.1-0.3,1.4c-0.2,0.3-0.4,0.6-0.8,0.8c-0.3,0.2-0.7,0.3-1.1,0.3c-0.7,0-1.2-0.2-1.6-0.6
						C108.1,140.7,107.9,140.1,107.9,139.3L107.9,139.3z M108.7,139.3c0,0.6,0.1,1.1,0.4,1.3c0.3,0.3,0.6,0.4,1,0.4s0.7-0.2,1-0.5
						s0.4-0.8,0.4-1.4c0-0.6-0.1-1-0.4-1.3s-0.6-0.4-1-0.4s-0.7,0.1-1,0.4C108.9,138.2,108.7,138.7,108.7,139.3L108.7,139.3z
						 M115,140.9l0.1,0.7c-0.2,0-0.4,0.1-0.6,0.1c-0.3,0-0.5,0-0.7-0.1s-0.3-0.2-0.3-0.4c-0.1-0.1-0.1-0.5-0.1-0.9v-2.7h-0.6V137
						h0.6v-1.2l0.8-0.5v1.6h0.8v0.6h-0.8v2.7c0,0.2,0,0.4,0,0.4c0,0.1,0.1,0.1,0.1,0.2c0.1,0,0.2,0.1,0.3,0.1
						C114.7,140.9,114.8,140.9,115,140.9L115,140.9z M116,141.6v-0.9h0.9v0.9H116L116,141.6z M121.3,139.9l0.8,0.1
						c-0.1,0.5-0.3,1-0.7,1.3c-0.4,0.3-0.8,0.5-1.3,0.5c-0.6,0-1.2-0.2-1.5-0.6c-0.4-0.4-0.6-1-0.6-1.8c0-0.5,0.1-0.9,0.3-1.3
						c0.2-0.4,0.4-0.7,0.8-0.9c0.3-0.2,0.7-0.3,1.1-0.3c0.5,0,0.9,0.1,1.2,0.4c0.3,0.3,0.5,0.6,0.6,1.1l-0.8,0.1
						c-0.1-0.3-0.2-0.6-0.4-0.7c-0.2-0.2-0.4-0.2-0.7-0.2c-0.4,0-0.7,0.1-1,0.4c-0.3,0.3-0.4,0.7-0.4,1.4c0,0.6,0.1,1.1,0.4,1.4
						c0.2,0.3,0.6,0.4,0.9,0.4s0.6-0.1,0.8-0.3C121.1,140.6,121.3,140.3,121.3,139.9L121.3,139.9z M122.5,139.3
						c0-0.9,0.2-1.5,0.7-1.9c0.4-0.3,0.9-0.5,1.5-0.5s1.2,0.2,1.6,0.6c0.4,0.4,0.6,1,0.6,1.7c0,0.6-0.1,1.1-0.3,1.4
						c-0.2,0.3-0.4,0.6-0.8,0.8c-0.3,0.2-0.7,0.3-1.1,0.3c-0.7,0-1.2-0.2-1.6-0.6C122.7,140.7,122.5,140.1,122.5,139.3L122.5,139.3z
						 M123.3,139.3c0,0.6,0.1,1.1,0.4,1.3c0.3,0.3,0.6,0.4,1,0.4s0.7-0.2,1-0.5s0.4-0.8,0.4-1.4c0-0.6-0.1-1-0.4-1.3s-0.6-0.4-1-0.4
						s-0.7,0.1-1,0.4C123.4,138.2,123.3,138.7,123.3,139.3L123.3,139.3z M127.8,141.6v-4.7h0.7v0.7c0.1-0.2,0.3-0.4,0.6-0.6
						c0.2-0.1,0.5-0.2,0.8-0.2s0.6,0.1,0.9,0.2c0.2,0.1,0.4,0.3,0.5,0.6c0.4-0.5,0.9-0.8,1.4-0.8s0.8,0.1,1.1,0.4
						c0.3,0.3,0.4,0.7,0.4,1.2v3.2h-0.8v-3c0-0.3,0-0.5-0.1-0.7c-0.1-0.1-0.1-0.3-0.3-0.3c-0.1-0.1-0.3-0.1-0.5-0.1
						c-0.3,0-0.6,0.1-0.8,0.3s-0.3,0.6-0.3,1.1v2.7h-0.8v-3c0-0.4-0.1-0.6-0.2-0.8c-0.1-0.2-0.3-0.3-0.6-0.3c-0.2,0-0.4,0.1-0.6,0.2
						c-0.2,0.1-0.3,0.3-0.4,0.5c-0.1,0.2-0.1,0.6-0.1,1v2.4L127.8,141.6L127.8,141.6z M134.8,141.7l1.9-6.7h0.6l-1.9,6.7H134.8z"/>
				</g>
			</g>
		</g>
		<path class="st0" d="M86.3,43.4c-0.8-0.6-1.8-1-3-1.3s-3-0.4-5.2-0.4c-3.3,0-6.6,0-10,0c-1.4,8.2-2.9,16.3-4.3,24.5
			c2.6,0,5.2,0,7.7,0c0.4-2.5,0.9-5,1.3-7.5c1.9,0,2.8,0,4.6,0c2.6,0,5.2-0.6,7.3-2.2c2-1.5,3.1-3.9,3.5-6.3c0.3-1.5,0.2-2.9-0.1-4
			C88,45.1,87.3,44.2,86.3,43.4z M81.1,50.3c-0.2,0.9-0.6,1.6-1.2,1.9c-0.6,0.4-1.7,0.5-3.3,0.5c-1,0-1.5,0-2.5,0c0.4-2,0.5-3,0.9-5
			c1,0,1.5,0,2.5,0c1.7,0,2.7,0.2,3.2,0.5C81.1,48.7,81.2,49.3,81.1,50.3z"/>
		<path class="st0" d="M112.9,41.8c-7.2,0-14.5,0-21.7,0c-0.5,2.6-0.7,3.9-1.2,6.4c2.3,0,4.6,0,7,0c-1.1,6-2.2,12-3.2,18
			c2.6,0,5.2,0,7.7,0c1.1-6,2.2-12,3.3-18c2.3,0,4.6,0,7,0C112.2,45.6,112.4,44.4,112.9,41.8z"/>
		<path class="st0" d="M126.6,59.7c1.1-6,2.2-12,3.3-18c-2.6,0-5.2,0-7.8,0c-1.5,8.2-3,16.3-4.5,24.5c6.1,0,12.2,0,18.3,0
			c0.5-2.6,0.7-3.9,1.2-6.5C133.6,59.7,130.1,59.7,126.6,59.7z"/>
		<path class="st0" d="M149.7,41.8c-4.4,8.1-8.7,16.3-13.1,24.5c2.5,0,5.1,0,7.6,0c0.6-1.3,0.9-1.9,1.5-3.2c2.6,0,5.1,0,7.7,0
			c0.1,1.3,0.2,1.9,0.3,3.2c2.6,0,5.1,0,7.7,0c-1.3-8.2-2.5-16.3-3.8-24.5C155,41.8,152.4,41.8,149.7,41.8z M148.2,57.9
			c1.4-2.8,2.7-5.6,4.1-8.5c0.3,2.8,0.5,5.6,0.8,8.5C151.1,57.9,150.1,57.9,148.2,57.9z"/>
		<path class="st0" d="M188.4,46.3c-0.3-1.1-1-2.1-1.9-2.8c-0.7-0.6-1.7-1-3-1.3c-1.2-0.3-3-0.4-5.2-0.4c-3.3,0-6.6,0-10,0
			c-1.6,8.2-3.1,16.3-4.7,24.5c2.6,0,5.2,0,7.7,0c0.5-2.5,1-5,1.4-7.5c1.9,0,2.8,0,4.6,0c2.6,0,5.3-0.6,7.3-2.2
			c2-1.5,3.2-3.9,3.6-6.3C188.7,48.7,188.7,47.4,188.4,46.3z M181,50.3c-0.2,0.9-0.6,1.6-1.2,1.9c-0.6,0.4-1.7,0.5-3.4,0.5
			c-1,0-1.5,0-2.5,0c0.4-2,0.6-3,1-5c1,0,1.5,0,2.5,0c1.7,0,2.7,0.2,3.2,0.5C181.1,48.7,181.2,49.3,181,50.3z"/>
		<path class="st0" d="M188.5,66.2c2.6,0,5.3,0,7.9,0c1.6-8.2,3.2-16.3,4.8-24.5c-2.6,0-5.3,0-7.9,0
			C191.7,49.9,190.1,58.1,188.5,66.2z"/>
		<path class="st0" d="M204.3,66.2c2.6,0,5.3,0,7.9,0c1.6-8.2,3.2-16.3,4.9-24.5c-2.6,0-5.3,0-7.9,0
			C207.5,49.9,205.9,58.1,204.3,66.2z"/>
		<path class="st0" d="M241.6,41.8c-7.2,0-14.5,0-21.7,0c-0.5,2.6-0.8,3.9-1.3,6.4c2.3,0,4.6,0,7,0c-1.2,6-2.4,12-3.6,18
			c2.6,0,5.2,0,7.7,0c1.2-6,2.4-12,3.6-18c2.3,0,4.6,0,7,0C240.8,45.6,241,44.4,241.6,41.8z"/>
		<path class="st0" d="M262.3,51.2c0.7-0.8,1.1-1.8,1.3-2.9c0.3-1.4,0.2-2.6-0.2-3.6s-1.2-1.7-2.4-2.2c-0.6-0.3-1.4-0.4-2.4-0.5
			s-2.5-0.2-4.6-0.2c-3.3,0-6.6,0-9.9,0c-1.7,8.2-3.3,16.3-5,24.5c3.6,0,7.1,0,10.7,0c2.3,0,3.9-0.1,4.9-0.2c1-0.2,1.9-0.5,2.8-0.8
			c1.2-0.6,2.3-1.4,3.1-2.5c0.8-1.1,1.4-2.3,1.7-3.8c0.3-1.5,0.2-2.7-0.2-3.6c-0.4-0.9-1.2-1.6-2.4-2.1
			C260.8,52.7,261.6,52,262.3,51.2z M255.1,58.3c-0.2,0.8-0.5,1.4-1.1,1.7c-0.6,0.4-1.5,0.5-2.6,0.5c-1.4,0-2.2,0-3.6,0
			c0.4-1.8,0.6-2.7,0.9-4.5c1.4,0,2.1,0,3.5,0c1.2,0,2,0.2,2.5,0.5C255.2,56.9,255.3,57.4,255.1,58.3z M256.2,49.4
			c-0.2,0.8-0.5,1.3-1,1.6s-1.3,0.5-2.4,0.5c-1.3,0-1.9,0-3.2,0c0.3-1.7,0.5-2.5,0.9-4.2c0.9,0,1.3,0,2.1,0c1.7,0,2.8,0.1,3.2,0.4
			C256.2,48.1,256.3,48.6,256.2,49.4z"/>
		<path class="st0" d="M57.4,74c-0.6-13.3-0.5-26.7,0-40C58.4,47.3,57.9,60.7,57.4,74z"/>
		<path class="st0" d="M110.2,62.4c1.1,0,1.9,0.9,1.9,2s-0.9,1.9-2,1.8c-1.1,0-1.9-0.9-1.9-2C108.3,63.2,109.1,62.4,110.2,62.4z"/>
		<polygon class="st0" points="220.1,26 212.2,26 210.7,33.9 202.8,33.9 201.2,41.8 209.1,41.8 210.7,33.9 218.6,33.9 		"/>
	</g>
</g>
</svg>
