<?xml version="1.0" encoding="utf-8"?>
<!-- Generator: Adobe Illustrator 21.0.0, SVG Export Plug-In . SVG Version: 6.00 Build 0)  -->
<svg version="1.1" id="Layer_1" xmlns="http://www.w3.org/2000/svg" xmlns:xlink="http://www.w3.org/1999/xlink" x="0px" y="0px"
	 viewBox="0 0 150.7 72.1" style="enable-background:new 0 0 150.7 72.1;" xml:space="preserve">
<style type="text/css">
	.st0{fill:#FFFFFF;}
	.st1{fill:#FF0000;}
</style>
<path class="st0" d="M74.1,36.1"/>
<path class="st0" d="M74.1,36.1"/>
<g>
	<path class="st1" d="M64,40.1c-0.6,0.4-0.9,1.2-0.9,2.2c0,0.8,0.3,1.4,0.8,1.9c0.6,0.5,1.3,0.7,2.2,0.7c1.3,0,2.3-0.4,3.1-1.3
		c0.8-0.9,1.2-2,1.2-3.4v-1.6l-3.8,0.6C65.4,39.4,64.6,39.6,64,40.1z"/>
	<path class="st1" d="M32.2,0v38h0.1l6.7-7.3h3.3l-7.4,7.6l7.9,8.2h-3.6l-7-7.6h-0.1v7.6h-2.5V0H0v72.1h75.1V0H32.2z M24.9,46.6
		h-2.5v-9.1c0-1.8-0.3-3-0.8-3.8c-0.5-0.8-1.5-1.2-2.7-1.2c-1.1,0-2,0.5-2.8,1.5S15,36.2,15,37.6v9h-2.5v-9.4c0-3.1-1.2-4.7-3.6-4.7
		c-1.1,0-2,0.5-2.8,1.4C5.4,34.8,5,36,5,37.5v9H2.5V30.9H5v2.5h0.1c1.1-1.9,2.8-2.9,4.9-2.9c1.1,0,2,0.3,2.8,0.9
		c0.8,0.6,1.4,1.4,1.7,2.4c1.2-2.2,2.9-3.3,5.3-3.3c3.5,0,5.2,2.2,5.2,6.5L24.9,46.6L24.9,46.6z M56.8,46.6h-2.5v-2.5h-0.1
		c-1.1,1.9-2.7,2.8-4.9,2.8c-1.6,0-2.8-0.4-3.7-1.3c-0.9-0.8-1.3-1.9-1.3-3.3c0-3,1.7-4.7,5.2-5.2l4.8-0.7c0-2.7-1.1-4-3.3-4
		c-1.9,0-3.6,0.7-5.2,2v-2.6c1.6-1,3.4-1.5,5.4-1.5c3.7,0,5.6,2,5.6,5.9V46.6z M73,46.6h-2.5v-2.5h-0.1c-1.1,1.9-2.7,2.8-4.9,2.8
		c-1.6,0-2.8-0.4-3.7-1.3c-0.9-0.8-1.3-1.9-1.3-3.3c0-3,1.7-4.7,5.2-5.2l4.8-0.7c0-2.7-1.1-4-3.3-4c-1.9,0-3.6,0.7-5.2,2v-2.6
		c1.6-1,3.4-1.5,5.4-1.5c3.7,0,5.6,2,5.6,5.9V46.6z"/>
	<path class="st1" d="M47.7,40.1c-0.6,0.4-0.9,1.2-0.9,2.2c0,0.8,0.3,1.4,0.8,1.9c0.6,0.5,1.3,0.7,2.2,0.7c1.3,0,2.3-0.4,3.1-1.3
		c0.8-0.9,1.2-2,1.2-3.4v-1.6l-3.7,0.6C49.2,39.4,48.4,39.6,47.7,40.1z"/>
</g>
<path d="M86.2,20.4c0-0.8,0-1.4-0.1-1.8l0,0c0.1,0.4,0.2,0.7,0.3,0.9l3.1,6.9H90l3.1-7c0.1-0.2,0.2-0.5,0.3-0.9l0,0
	c-0.1,0.7-0.1,1.3-0.1,1.8v6.1h1.1v-9.1h-1.3l-2.8,6.3c-0.1,0.2-0.3,0.6-0.4,1.1l0,0c-0.1-0.2-0.2-0.6-0.4-1.1l-2.8-6.3h-1.4v9.1h1
	L86.2,20.4L86.2,20.4z"/>
<path d="M99.2,26.6c0.9,0,1.6-0.4,2-1.2l0,0v1h1v-6.5h-1v3.7c0,0.6-0.2,1.1-0.5,1.5s-0.7,0.6-1.3,0.6c-1,0-1.6-0.7-1.6-2.1v-3.7h-1
	v3.9C96.9,25.6,97.7,26.6,99.2,26.6z"/>
<path d="M107.1,26.4c0.3-0.1,0.6-0.2,0.8-0.3c0.2-0.2,0.4-0.4,0.6-0.6s0.2-0.5,0.2-0.8s0-0.5-0.1-0.7s-0.2-0.4-0.4-0.5
	s-0.4-0.3-0.6-0.4c-0.2-0.1-0.5-0.2-0.8-0.3c-0.2-0.1-0.4-0.2-0.6-0.2c-0.2-0.1-0.3-0.2-0.4-0.2c-0.1-0.1-0.2-0.2-0.3-0.3
	s-0.1-0.3-0.1-0.4c0-0.1,0-0.3,0.1-0.4c0.1-0.1,0.1-0.2,0.3-0.3c0.1-0.1,0.2-0.1,0.4-0.2c0.2,0,0.3-0.1,0.5-0.1
	c0.6,0,1.2,0.2,1.6,0.5v-1.1c-0.4-0.2-0.9-0.3-1.5-0.3c-0.3,0-0.6,0-0.9,0.1s-0.6,0.2-0.8,0.4s-0.4,0.4-0.6,0.6
	c-0.1,0.2-0.2,0.5-0.2,0.8c0,0.2,0,0.5,0.1,0.7s0.2,0.4,0.3,0.5s0.3,0.3,0.5,0.4s0.5,0.2,0.8,0.3c0.2,0.1,0.4,0.2,0.6,0.2
	c0.2,0.1,0.3,0.2,0.5,0.3c0.1,0.1,0.2,0.2,0.3,0.3s0.1,0.3,0.1,0.4c0,0.6-0.5,0.9-1.4,0.9c-0.7,0-1.3-0.2-1.9-0.6v1.1
	c0.5,0.3,1.1,0.4,1.7,0.4C106.4,26.6,106.7,26.6,107.1,26.4z"/>
<path d="M113.1,26.6c0.9,0,1.7-0.2,2.3-0.6v-1c-0.6,0.5-1.3,0.7-2,0.7s-1.2-0.2-1.5-0.6c-0.4-0.4-0.6-1-0.6-1.7h4.6v-0.5
	c0-1-0.2-1.7-0.7-2.3c-0.5-0.5-1.1-0.8-2-0.8s-1.6,0.3-2.1,1c-0.6,0.6-0.9,1.5-0.9,2.5c0,1.1,0.3,1.9,0.8,2.5
	C111.5,26.2,112.2,26.6,113.1,26.6z M111.2,22.6c0.1-0.6,0.3-1,0.6-1.4s0.8-0.5,1.2-0.5c0.5,0,0.9,0.2,1.2,0.5s0.4,0.8,0.4,1.4
	H111.2z"/>
<path d="M120,26.6c0.9,0,1.6-0.4,2-1.2l0,0v1h1v-6.5h-1v3.7c0,0.6-0.2,1.1-0.5,1.5s-0.7,0.6-1.3,0.6c-1,0-1.6-0.7-1.6-2.1v-3.7h-1
	v3.9C117.7,25.6,118.4,26.6,120,26.6z"/>
<path d="M126.5,22.7c0-0.6,0.1-1.1,0.4-1.5c0.3-0.4,0.7-0.6,1.1-0.6c1,0,1.5,0.6,1.5,1.9v3.9h1v-3.7c0-0.6,0.2-1.1,0.5-1.5
	s0.7-0.6,1.1-0.6c0.5,0,0.9,0.2,1.1,0.5c0.2,0.3,0.3,0.8,0.3,1.6v3.7h1v-4c0-1.8-0.7-2.6-2.1-2.6c-1,0-1.7,0.4-2.2,1.3
	c-0.1-0.4-0.3-0.7-0.7-1c-0.3-0.2-0.7-0.4-1.2-0.4c-0.9,0-1.6,0.4-2,1.2l0,0v-1h-1v6.5h1v-3.7C126.3,22.7,126.5,22.7,126.5,22.7z"/>
<polygon points="86.6,36.4 89.7,40.1 92.4,40.1 87.7,35.1 92.1,30.2 89.7,30.2 86.6,33.9 86.6,30.2 84.7,30.2 84.7,40.1 86.6,40.1 
	"/>
<path d="M98.2,33.7c-0.6-0.7-1.5-1-2.6-1s-2,0.4-2.7,1c-0.7,0.7-1,1.6-1,2.8c0,1.1,0.3,2,1,2.7c0.6,0.7,1.5,1,2.6,1s2-0.4,2.6-1.1
	c0.7-0.7,1-1.6,1-2.8C99.2,35.4,99,34.4,98.2,33.7z M97.4,36.6c0,0.7-0.2,1.2-0.5,1.6c-0.3,0.3-0.7,0.5-1.2,0.5s-1-0.2-1.3-0.5
	c-0.3-0.4-0.5-0.9-0.5-1.6s0.2-1.2,0.5-1.6s0.7-0.5,1.3-0.5s1,0.2,1.2,0.5C97.2,35.2,97.4,35.9,97.4,36.6z"/>
<path d="M102,32.9h-1.8v7.2h1.8v-4c0-0.5,0.1-0.9,0.4-1.2c0.3-0.3,0.6-0.4,1-0.4c0.3,0,1.1,0,1.1,1.7v4h1.8v-4.4
	c0-1-0.2-1.7-0.7-2.2c-0.5-0.6-1.1-0.8-1.9-0.8c-0.7,0-1.3,0.2-1.8,0.6L102,32.9C101.9,32.9,102,32.9,102,32.9z"/>
<path d="M113.7,33.7c-0.5-0.7-1.3-1-2.3-1c-0.7,0-1.4,0.2-1.9,0.6v-0.5h-1.8v10.3h1.8v-3.3c0.4,0.3,1,0.5,1.6,0.5
	c1,0,1.9-0.4,2.5-1.1c0.6-0.7,0.9-1.7,0.9-2.9C114.6,35.2,114.4,34.4,113.7,33.7z M111.2,34.4c0.4,0,0.8,0.2,1,0.5
	c0.3,0.3,0.4,0.8,0.4,1.4c0,0.8-0.2,1.4-0.5,1.8c-0.3,0.4-0.7,0.6-1.2,0.6c-0.4,0-0.8-0.1-1-0.4c-0.3-0.3-0.4-0.7-0.4-1.1v-0.9
	c0-0.5,0.1-1,0.5-1.3C110.4,34.6,110.7,34.4,111.2,34.4z"/>
<path d="M116.2,39.2c0.6,0.7,1.4,1,2.5,1c1,0,1.9-0.2,2.5-0.7l0.2-0.1v-2l-0.6,0.5c-0.5,0.4-1.1,0.6-1.8,0.6c-0.5,0-0.9-0.2-1.2-0.5
	c-0.2-0.2-0.4-0.6-0.4-1h4.6v-0.9c0-1.1-0.3-1.9-0.8-2.5s-1.3-1-2.3-1s-1.8,0.4-2.4,1.1c-0.6,0.7-1,1.6-1,2.7
	C115.4,37.7,115.7,38.6,116.2,39.2z M117.4,35.4c0.1-0.3,0.2-0.5,0.4-0.7c0.3-0.3,0.6-0.4,1-0.4s0.7,0.1,0.9,0.4
	c0.2,0.2,0.3,0.4,0.3,0.7H117.4z"/>
<path d="M123,32.9v7.2h1.8v-3.7c0-0.6,0.1-1.1,0.4-1.5c0.2-0.3,0.5-0.5,0.8-0.5c0.2,0,0.4,0,0.5,0.1l0.6,0.5v-2.2l-0.2-0.1
	c-0.2-0.1-0.4-0.1-0.8-0.1c-0.5,0-0.9,0.2-1.3,0.5l0,0v-0.4H123V32.9z"/>
<path d="M133.9,36.2c0-1.1-0.3-1.9-0.8-2.5s-1.3-1-2.3-1s-1.8,0.4-2.4,1.1c-0.6,0.7-1,1.6-1,2.7c0,1.2,0.3,2.1,0.9,2.8
	c0.6,0.7,1.4,1,2.5,1c1,0,1.9-0.2,2.5-0.7l0.2-0.1v-2l-0.6,0.5c-0.5,0.4-1.1,0.6-1.8,0.6c-0.5,0-0.9-0.2-1.2-0.5
	c-0.2-0.2-0.4-0.6-0.4-1h4.6v-0.9C134.1,36.2,133.9,36.2,133.9,36.2z M132,35.4h-2.6c0.1-0.3,0.2-0.5,0.4-0.7c0.3-0.3,0.6-0.4,1-0.4
	s0.7,0.1,0.9,0.4C131.9,34.9,132,35.1,132,35.4z"/>
<path d="M136.9,36.1c0-0.5,0.1-0.9,0.4-1.2c0.3-0.3,0.6-0.4,1-0.4c0.3,0,1.1,0,1.1,1.7v4h1.8v-4.4c0-1-0.2-1.7-0.7-2.2
	c-0.5-0.6-1.1-0.8-1.9-0.8c-0.7,0-1.3,0.2-1.8,0.6V33H135v7.1h1.8L136.9,36.1L136.9,36.1z"/>
<path d="M144.5,40.4c0.4,0,0.7,0,1.1-0.1c0.4-0.1,0.7-0.2,0.9-0.4c0.3-0.2,0.5-0.4,0.7-0.7c0.2-0.3,0.3-0.6,0.3-1
	c0-0.3-0.1-0.6-0.2-0.8c-0.1-0.2-0.3-0.5-0.5-0.6c-0.2-0.2-0.4-0.3-0.7-0.5c-0.2-0.1-0.5-0.2-0.8-0.4c-0.2-0.1-0.4-0.2-0.6-0.2
	c-0.1-0.1-0.3-0.1-0.3-0.2c-0.1-0.1-0.1-0.1-0.2-0.2c0-0.1,0-0.1,0-0.2s0-0.1,0-0.2c0-0.1,0.1-0.1,0.1-0.2c0.1-0.1,0.2-0.1,0.3-0.1
	s0.3-0.1,0.4-0.1c0.5,0,1,0.1,1.4,0.4l0.6,0.4v-2.2l-0.2-0.1c-0.8-0.3-1.8-0.4-2.7-0.2c-0.3,0.1-0.6,0.2-0.9,0.4
	c-0.3,0.2-0.5,0.4-0.7,0.7c-0.2,0.3-0.3,0.6-0.3,1c0,0.3,0,0.6,0.1,0.8c0.1,0.2,0.2,0.4,0.4,0.6s0.4,0.3,0.6,0.5
	c0.2,0.1,0.5,0.2,0.8,0.4c0.2,0.1,0.4,0.2,0.6,0.2c0.2,0.1,0.3,0.1,0.4,0.2c0.1,0.1,0.2,0.1,0.2,0.2s0.1,0.1,0.1,0.2
	c0,0.2,0,0.5-1,0.5c-0.6,0-1.1-0.2-1.6-0.6l-0.6-0.5v2.1l0.2,0.1C143.1,40.1,143.8,40.4,144.5,40.4z"/>
<path d="M149.6,32.1c0.3,0,0.6-0.1,0.8-0.3c0.2-0.2,0.3-0.5,0.3-0.8s-0.1-0.6-0.3-0.8c-0.4-0.4-1.1-0.4-1.5,0
	c-0.2,0.2-0.3,0.5-0.3,0.8s0.1,0.6,0.3,0.8C149,31.9,149.3,32.1,149.6,32.1z"/>
<rect x="148.6" y="32.9" width="1.8" height="7.3"/>
<path d="M87.2,44.9l-3.8,9.9h2l0.9-2.6h3.3l1,2.6h2l-3.8-9.9C88.9,44.9,87.2,44.9,87.2,44.9z M89.1,50.5h-2l1-2.7L89.1,50.5z"/>
<path d="M97.4,51.2c-0.2-0.2-0.4-0.3-0.7-0.5c-0.2-0.1-0.5-0.2-0.8-0.4c-0.2-0.1-0.4-0.2-0.6-0.2C95.2,50,95,50,95,49.9
	c-0.1-0.1-0.1-0.1-0.2-0.2c0-0.1,0-0.1,0-0.2c0-0.1,0-0.1,0-0.2s0.1-0.1,0.1-0.2C95,49,95.1,49,95.2,49s0.3-0.1,0.4-0.1
	c0.5,0,1,0.1,1.4,0.4l0.6,0.4v-2.1l-0.2-0.1c-0.8-0.3-1.8-0.4-2.7-0.2c-0.3,0.1-0.6,0.2-0.9,0.4c-0.3,0.2-0.5,0.4-0.7,0.7
	c-0.2,0.3-0.3,0.6-0.3,1c0,0.3,0,0.6,0.1,0.8c0.1,0.2,0.2,0.4,0.4,0.6s0.4,0.3,0.6,0.5c0.2,0.1,0.5,0.2,0.8,0.4
	c0.2,0.1,0.4,0.2,0.6,0.2c0.2,0.1,0.3,0.1,0.4,0.2c0.1,0.1,0.2,0.1,0.2,0.2s0.1,0.1,0.1,0.2c0,0.2,0,0.5-1,0.5
	c-0.6,0-1.1-0.2-1.6-0.6l-0.6-0.5V54l0.2,0.1c0.5,0.3,1.2,0.4,1.9,0.4c0.4,0,0.7,0,1.1-0.1c0.4-0.1,0.7-0.2,0.9-0.4
	c0.3-0.2,0.5-0.4,0.7-0.7c0.2-0.3,0.3-0.6,0.3-1c0-0.3-0.1-0.6-0.2-0.8C97.7,51.6,97.6,51.4,97.4,51.2z"/>
<path d="M99.1,44.9c-0.2,0.2-0.3,0.5-0.3,0.8c0,0.3,0.1,0.6,0.3,0.8c0.2,0.2,0.5,0.3,0.8,0.3s0.6-0.1,0.8-0.3
	c0.2-0.2,0.3-0.5,0.3-0.8c0-0.3-0.1-0.6-0.3-0.8C100.2,44.4,99.5,44.4,99.1,44.9z"/>
<rect x="98.9" y="47.6" width="1.8" height="7.3"/>
<path d="M105.1,47.4c-0.9,0-1.7,0.2-2.4,0.7l-0.2,0.1v2.1l0.7-0.6c0.6-0.5,1.2-0.7,1.9-0.7c0.4,0,0.8,0.1,0.9,0.9l-1.6,0.2
	c-2.1,0.3-2.5,1.5-2.5,2.5c0,0.7,0.2,1.2,0.7,1.7c0.4,0.4,1,0.6,1.8,0.6c0.6,0,1.2-0.2,1.6-0.5v0.4h1.8v-4.6
	C107.7,48.4,106.9,47.4,105.1,47.4z M104.6,53.3c-0.3,0-0.5-0.1-0.6-0.2s-0.2-0.3-0.2-0.5c0-0.3,0.1-0.5,0.2-0.6
	c0.1-0.1,0.4-0.2,0.9-0.3l1.1-0.2v0.2c0,0.5-0.1,0.8-0.4,1.1C105.2,53.2,105,53.3,104.6,53.3z"/>
<rect x="109.2" y="49.9" width="4.3" height="1.6"/>
<path d="M117.6,44.9l-3.8,9.9h2l0.9-2.6h3.3l1,2.6h2l-3.8-9.9C119.2,44.9,117.6,44.9,117.6,44.9z M119.4,50.5h-2l1-2.7L119.4,50.5z"
	/>
<path d="M126.5,44.2c-0.7,0-1.3,0.2-1.8,0.7S124,46,124,46.8v0.7h-1.1v1.6h1.1v5.6h1.8v-5.6h1.5v-1.7h-1.5v-0.6c0-1,0.5-1,0.7-1
	s0.4,0,0.5,0.1l0.6,0.3v-1.9l-0.2-0.1C127.2,44.2,126.9,44.2,126.5,44.2z"/>
<path d="M131.2,47.4c-0.5,0-0.9,0.2-1.3,0.5l0,0v-0.4h-1.8v7.3h1.8v-3.7c0-0.6,0.1-1.1,0.4-1.5c0.2-0.3,0.5-0.5,0.8-0.5
	c0.2,0,0.4,0,0.5,0.1l0.6,0.5v-2.2l-0.2-0.1C131.8,47.4,131.6,47.4,131.2,47.4z"/>
<path d="M133.1,44.9c-0.2,0.2-0.3,0.5-0.3,0.8c0,0.3,0.1,0.6,0.3,0.8c0.2,0.2,0.5,0.3,0.8,0.3s0.6-0.1,0.8-0.3
	c0.2-0.2,0.3-0.5,0.3-0.8c0-0.3-0.1-0.6-0.3-0.8C134.2,44.4,133.5,44.4,133.1,44.9z"/>
<rect x="133" y="47.6" width="1.8" height="7.3"/>
<polygon points="143,47.6 140.5,47.6 138.3,49.9 138.3,44.4 136.5,44.4 136.5,54.9 138.3,54.9 138.3,52.3 140.6,54.9 143.2,54.9 
	139.6,51.1 "/>
<path d="M146,47.4c-0.9,0-1.7,0.2-2.4,0.7l-0.2,0.1v2.1l0.7-0.6c0.6-0.5,1.2-0.7,1.9-0.7c0.4,0,0.8,0.1,0.9,0.9l-1.6,0.2
	c-2.1,0.3-2.5,1.5-2.5,2.5c0,0.7,0.2,1.2,0.7,1.7c0.4,0.4,1,0.6,1.8,0.6c0.6,0,1.2-0.2,1.6-0.5v0.4h1.8v-4.6
	C148.7,48.4,147.8,47.4,146,47.4z M145.5,53.3c-0.3,0-0.5-0.1-0.6-0.2s-0.2-0.3-0.2-0.5c0-0.3,0.1-0.5,0.2-0.6
	c0.2-0.1,0.5-0.2,0.9-0.3l1.1-0.2v0.2c0,0.5-0.1,0.8-0.4,1.1C146.2,53.2,145.9,53.3,145.5,53.3z"/>
</svg>
