<?xml version="1.0" encoding="utf-8"?>
<!-- Generator: Adobe Illustrator 21.0.0, SVG Export Plug-In . SVG Version: 6.00 Build 0)  -->
<svg version="1.1" id="Layer_1" xmlns="http://www.w3.org/2000/svg" xmlns:xlink="http://www.w3.org/1999/xlink" x="0px" y="0px"
	 viewBox="0 0 290 100" style="enable-background:new 0 0 290 100;" xml:space="preserve">
<style type="text/css">
	.st0{fill:#212E4D;}
	.st1{fill:#FEFEFE;}
</style>
<g>
	<path d="M85.8,43v-9.9h1.8v4.2l3.8-4.2h2.4l-4,4.4l4.4,5.6H92l-3.3-4.3l-1,1.1V43H85.8z"/>
	<path d="M95.3,43v-9.9h6.6v1.6h-4.8v2.5h4.2v1.7h-4.2v2.5h4.8V43H95.3z"/>
	<path d="M103.6,43v-9.9h2l2.9,4.2l2.9-4.2h2V43h-1.8v-7.3l-3.1,4.4l-3.1-4.4V43H103.6z"/>
	<path d="M115.5,43v-9.9h6.6v1.6h-4.8v2.5h4.2v1.7h-4.2v2.5h4.8V43H115.5z"/>
	<path d="M123.7,43v-9.9h2l5.1,7.4v-7.4h1.8V43h-2l-5.1-7.4V43H123.7z"/>
	<path d="M134.1,34.9v-1.8h8.1v1.8H139V43h-1.8v-8.1H134.1z"/>
	<path d="M143.5,43v-9.9h3.8c1.2,0,2.1,0.3,2.7,0.8c0.6,0.6,1,1.3,1,2.4c0,1.5-0.7,2.5-2.2,2.9l2.6,3.8h-2.2l-2.4-3.5h-1.6V43H143.5
		z M145.3,37.9h2c0.6,0,1.1-0.1,1.4-0.3c0.3-0.2,0.5-0.6,0.5-1.2c0-0.6-0.2-1-0.5-1.2s-0.8-0.3-1.4-0.3h-2V37.9z"/>
	<path d="M153,43v-9.9h1.8V43H153z"/>
	<path d="M156.1,43l4-9.9h2L166,43h-1.9l-0.9-2.4H159l-0.9,2.4H156.1z M159.5,39h3l-1.5-3.9L159.5,39z"/>
	<path d="M167.2,43v-9.9h2l5.1,7.4v-7.4h1.8V43h-2l-5.1-7.4V43H167.2z"/>
	<path d="M183,43v-9.9h3.7c1.2,0,2.1,0.3,2.7,0.9c0.6,0.6,1,1.4,1,2.5s-0.3,1.9-1,2.5c-0.6,0.6-1.6,0.9-2.7,0.9h-1.9V43H183z
		 M184.8,38.1h1.8c0.8,0,1.3-0.1,1.6-0.4c0.3-0.3,0.4-0.7,0.4-1.3s-0.1-1-0.4-1.3c-0.3-0.3-0.8-0.4-1.6-0.4h-1.8V38.1z"/>
	<path d="M191.9,43v-9.9h6.6v1.6h-4.8v2.5h4.2v1.7h-4.2v2.5h4.8V43H191.9z"/>
	<path d="M200.2,43v-9.9h3.8c1.2,0,2.1,0.3,2.7,0.8c0.6,0.6,1,1.3,1,2.4c0,1.5-0.7,2.5-2.2,2.9l2.6,3.8h-2.2l-2.4-3.5h-1.6V43H200.2
		z M202,37.9h2c0.6,0,1.1-0.1,1.4-0.3c0.3-0.2,0.5-0.6,0.5-1.2c0-0.6-0.2-1-0.5-1.2s-0.8-0.3-1.4-0.3h-2V37.9z"/>
	<path d="M209.6,43v-9.9h3.4c1.5,0,2.7,0.4,3.5,1.3c0.8,0.8,1.2,2.1,1.2,3.7c0,1.6-0.4,2.9-1.2,3.7s-2,1.3-3.5,1.3L209.6,43
		L209.6,43z M211.3,41.4h1.6c1,0,1.8-0.3,2.2-0.8c0.5-0.5,0.7-1.4,0.7-2.6c0-1.2-0.2-2.1-0.7-2.6s-1.2-0.8-2.2-0.8h-1.6V41.4z"/>
	<path d="M218.3,43l4-9.9h2l3.9,9.9h-1.9l-0.9-2.4h-4.2l-0.9,2.4H218.3z M221.7,39h3l-1.5-3.9L221.7,39z"/>
	<path d="M228.7,38.1c0-0.8,0.1-1.5,0.3-2.1s0.4-1.1,0.7-1.5s0.7-0.7,1.1-0.9c0.4-0.2,0.8-0.4,1.2-0.5s0.8-0.1,1.3-0.1
		c1.1,0,2.2,0.2,3.4,0.7v1.6c-1.1-0.5-2.2-0.7-3.2-0.7c-0.3,0-0.7,0-0.9,0.1c-0.3,0-0.5,0.1-0.8,0.3c-0.3,0.1-0.5,0.3-0.7,0.6
		c-0.2,0.2-0.3,0.6-0.4,1c-0.1,0.4-0.2,0.9-0.2,1.5s0.1,1.1,0.2,1.5c0.1,0.4,0.3,0.8,0.4,1c0.2,0.2,0.4,0.4,0.7,0.6
		c0.3,0.1,0.5,0.2,0.8,0.3c0.3,0,0.6,0.1,0.9,0.1c0.5,0,1.1-0.1,1.8-0.3v-2.4h-2.2v-1.6h4v5c-1.2,0.6-2.4,0.9-3.6,0.9l0,0
		c-0.5,0-0.9,0-1.3-0.1c-0.4-0.1-0.8-0.2-1.3-0.5c-0.4-0.2-0.8-0.5-1.1-0.9s-0.6-0.9-0.7-1.5C228.8,39.6,228.7,38.9,228.7,38.1z"/>
	<path d="M238.2,43l4-9.9h2l3.9,9.9h-1.9l-0.9-2.4h-4.2l-0.9,2.4H238.2z M241.6,39h3l-1.5-3.9L241.6,39z"/>
	<path d="M249.3,43v-9.9h2l5.1,7.4v-7.4h1.8V43h-2l-5.1-7.4V43H249.3z"/>
	<path d="M260,38.1c0-0.8,0.1-1.5,0.3-2.1c0.2-0.6,0.4-1.1,0.7-1.5s0.7-0.7,1.1-0.9s0.8-0.4,1.2-0.5c0.4-0.1,0.8-0.1,1.3-0.1
		c1.1,0,2.2,0.2,3.4,0.7v1.6c-1.1-0.5-2.2-0.7-3.2-0.7c-0.3,0-0.7,0-0.9,0.1s-0.5,0.1-0.8,0.3c-0.3,0.1-0.5,0.3-0.7,0.6
		c-0.2,0.2-0.3,0.6-0.4,1s-0.2,0.9-0.2,1.5s0.1,1.1,0.2,1.5s0.3,0.8,0.4,1c0.2,0.2,0.4,0.4,0.7,0.6c0.3,0.1,0.5,0.2,0.8,0.3
		c0.3,0,0.6,0.1,0.9,0.1c0.5,0,1.1-0.1,1.8-0.3v-2.4h-2.2v-1.6h4v5c-1.2,0.6-2.4,0.9-3.6,0.9l0,0c-0.5,0-0.9,0-1.3-0.1
		s-0.8-0.2-1.3-0.5c-0.4-0.2-0.8-0.5-1.1-0.9c-0.3-0.4-0.6-0.9-0.7-1.5C260.1,39.6,260,38.9,260,38.1z"/>
	<path d="M269.5,43l4-9.9h2l3.9,9.9h-1.9l-0.9-2.4h-4.2l-0.9,2.4H269.5z M272.9,39h3l-1.5-3.9L272.9,39z"/>
	<path d="M280.6,43v-9.9h2l5.1,7.4v-7.4h1.8V43h-2l-5.1-7.4V43H280.6z"/>
	<path d="M85.8,60.9V51h3.8c1.2,0,2.1,0.3,2.7,0.8c0.6,0.6,1,1.3,1,2.4c0,1.5-0.7,2.5-2.2,2.9l2.6,3.8h-2.2l-2.4-3.5h-1.6v3.5H85.8z
		 M87.6,55.8h2c0.6,0,1.1-0.1,1.4-0.3s0.5-0.6,0.5-1.2c0-0.6-0.2-1-0.5-1.2s-0.8-0.3-1.4-0.3h-2V55.8z"/>
	<path d="M95.1,60.9V51h6.6v1.6h-4.8v2.5h4.2v1.7h-4.2v2.5h4.8v1.6C101.7,60.9,95.1,60.9,95.1,60.9z"/>
	<path d="M103.4,60.9V51h3.7c1.2,0,2.1,0.3,2.7,0.9c0.6,0.6,1,1.4,1,2.5s-0.3,1.9-1,2.5c-0.6,0.6-1.6,0.9-2.7,0.9h-1.9v3.3h-1.8
		C103.4,61.1,103.4,60.9,103.4,60.9z M105.2,56h1.8c0.8,0,1.3-0.1,1.6-0.4c0.3-0.3,0.4-0.7,0.4-1.3s-0.1-1-0.4-1.3s-0.8-0.4-1.6-0.4
		h-1.8V56z"/>
	<path d="M112.2,56.7V51h1.8v5.9c0,0.9,0.2,1.5,0.6,1.9s1,0.6,1.8,0.6s1.4-0.2,1.8-0.6c0.4-0.4,0.6-1,0.6-1.9V51h1.8v5.7
		c0,1.4-0.4,2.4-1.1,3.2s-1.8,1.1-3.1,1.1c-1.3,0-2.3-0.4-3.1-1.1C112.6,59.1,112.2,58.1,112.2,56.7z"/>
	<path d="M122.6,60.9V51h3.6c0.5,0,0.9,0,1.3,0.1s0.8,0.2,1.1,0.4c0.3,0.2,0.6,0.5,0.8,0.9s0.3,0.8,0.3,1.3c0,0.9-0.4,1.5-1.2,1.9
		c1.2,0.4,1.7,1.2,1.7,2.3c0,0.3,0,0.5-0.1,0.8c0,0.2-0.1,0.5-0.3,0.8c-0.2,0.3-0.4,0.5-0.6,0.7c-0.3,0.2-0.6,0.4-1.1,0.5
		c-0.5,0.1-1,0.2-1.6,0.2H122.6z M124.4,55h1.9c1,0,1.5-0.4,1.5-1.2c0-0.9-0.6-1.3-1.7-1.3h-1.8L124.4,55L124.4,55z M124.4,59.3h2.1
		c1.3,0,1.9-0.5,1.9-1.4s-0.7-1.3-2-1.3h-2V59.3z"/>
	<path d="M131.7,60.9V51h1.8v8.2h4.8v1.7H131.7z"/>
	<path d="M139.9,60.9V51h1.8v9.9H139.9z"/>
	<path d="M143.7,60.9V51h1.8v4.2l3.8-4.2h2.4l-4,4.4l4.4,5.6h-2.2l-3.3-4.3l-1,1.1V61L143.7,60.9L143.7,60.9z"/>
	<path d="M158.3,60.9V51h1.8v9.9H158.3z"/>
	<path d="M162.3,60.9V51h2l5.1,7.4V51h1.8v9.9h-2l-5.1-7.4v7.4H162.3z"/>
	<path d="M173.3,60.9V51h3.4c1.5,0,2.7,0.4,3.5,1.3c0.8,0.8,1.2,2.1,1.2,3.7c0,1.6-0.4,2.9-1.2,3.7s-2,1.3-3.5,1.3L173.3,60.9
		L173.3,60.9z M175.1,59.3h1.6c1,0,1.8-0.3,2.2-0.8s0.7-1.4,0.7-2.6c0-1.2-0.2-2.1-0.7-2.6s-1.2-0.8-2.2-0.8h-1.6V59.3z"/>
	<path d="M182.9,55.9c0-0.8,0.1-1.5,0.3-2.1s0.4-1.1,0.7-1.5s0.7-0.7,1.1-0.9c0.4-0.2,0.8-0.4,1.2-0.5s0.8-0.1,1.3-0.1
		s0.9,0,1.3,0.1s0.8,0.2,1.2,0.5c0.4,0.2,0.8,0.5,1.1,0.9s0.5,0.9,0.7,1.5s0.3,1.3,0.3,2.1s-0.1,1.5-0.3,2.1s-0.4,1.1-0.7,1.5
		s-0.7,0.7-1.1,0.9c-0.4,0.2-0.8,0.4-1.2,0.5S188,61,187.5,61s-0.9,0-1.3-0.1c-0.4-0.1-0.8-0.2-1.2-0.5c-0.4-0.2-0.8-0.5-1.1-0.9
		s-0.5-0.9-0.7-1.5C183,57.5,182.9,56.7,182.9,55.9z M184.6,55.9c0,0.7,0.1,1.4,0.2,1.9c0.1,0.5,0.4,0.8,0.7,1.1
		c0.3,0.2,0.6,0.4,0.9,0.5c0.3,0.1,0.7,0.1,1.1,0.1c0.3,0,0.6,0,0.9-0.1c0.2,0,0.5-0.1,0.8-0.3s0.5-0.3,0.6-0.6
		c0.2-0.3,0.3-0.6,0.4-1c0.1-0.4,0.2-1,0.2-1.5c0-0.7-0.1-1.3-0.2-1.8c-0.1-0.5-0.4-0.8-0.7-1.1c-0.3-0.2-0.6-0.4-0.9-0.5
		c-0.3-0.1-0.7-0.1-1.1-0.1c-0.3,0-0.6,0-0.9,0.1c-0.2,0-0.5,0.1-0.8,0.3c-0.3,0.1-0.5,0.3-0.6,0.6c-0.2,0.2-0.3,0.6-0.4,1
		C184.7,54.8,184.6,55.3,184.6,55.9z"/>
	<path d="M193.9,60.9V51h2l5.1,7.4V51h1.8v9.9h-2l-5.1-7.4v7.4H193.9z"/>
	<path d="M205,60.9V51h6.6v1.6h-4.8v2.5h4.2v1.7h-4.2v2.5h4.8v1.6C211.6,60.9,205,60.9,205,60.9z"/>
	<path d="M212.9,53.8c0-1,0.3-1.7,1-2.2s1.5-0.7,2.5-0.7c0.9,0,1.8,0.2,2.7,0.7v1.8c-0.8-0.5-1.6-0.8-2.5-0.8c-0.5,0-1,0.1-1.4,0.3
		s-0.6,0.5-0.6,0.9c0,0.3,0.2,0.6,0.5,0.8s0.8,0.3,1.3,0.5c0.5,0.1,1,0.3,1.5,0.5s0.9,0.5,1.3,1c0.3,0.5,0.5,1.1,0.5,1.9
		c0,0.8-0.3,1.5-1,2s-1.5,0.8-2.4,0.8c-1.3,0-2.4-0.3-3.3-0.8v-1.8c0.9,0.6,1.8,1,2.9,1c1.4,0,2.1-0.4,2.1-1.1
		c0-0.3-0.1-0.6-0.4-0.9c-0.2-0.2-0.6-0.4-0.9-0.5c-0.4-0.1-0.8-0.2-1.2-0.4c-0.4-0.1-0.8-0.3-1.2-0.5s-0.7-0.4-0.9-0.8
		C213.1,54.8,212.9,54.3,212.9,53.8z"/>
	<path d="M221.6,60.9V51h1.8v9.9H221.6z"/>
	<path d="M224.7,60.9l4-9.9h2l3.9,9.9h-1.9l-0.9-2.4h-4.3l-0.9,2.4H224.7z M228.1,56.9h3l-1.5-3.9L228.1,56.9z"/>
</g>
<g>
	<path class="st0" d="M57.1,38.2h0.8v-6.6c0.1,0.2,0.6,1.4,0.7,1.7l1.7,4.2c0.3,0.8,0.1,0.7,1.1,0.7v-8.8h-0.8v6.5
		c-0.2-0.2-0.6-1.3-0.7-1.6L58.5,31c-0.8-1.8-0.3-1.6-1.4-1.6V38.2z M0,9h77.7v10.9h-0.8v6.6c-0.3-0.3-0.6-1.2-0.8-1.7
		c-0.1-0.3-0.2-0.5-0.3-0.8l-1.5-3.4c-0.3-0.6-0.2-0.8-0.6-0.8H73v8.8h0.9v-6.6c0.1,0.1,0,0,0.1,0.2l1.4,3.1
		c0.2,0.6,0.5,1.1,0.7,1.6c0.2,0.3,0.7,1.4,0.7,1.7h0.9v0.7H77v6.5c-0.2-0.2-0.6-1.2-0.7-1.5c-0.2-0.6-0.5-1.1-0.7-1.6
		c-0.2-0.3-1.3-3-1.4-3.3h-0.8V38c0,0.3,0.2,0.2,0.8,0.2v-6.6l0.2,0.3l1.2,2.9c0.2,0.5,0.4,1.1,0.6,1.6l0.7,1.7h0.8v11
		c-0.2-0.7-1.5-5-1.5-5.5h-0.6c-0.2,0.7-1.4,5-1.4,5.5h0.6l0.4-1.7h1.6c0.1,0.3,0.2,0.6,0.2,0.8c0.1,0.3,0.1,0.6,0.2,0.8h0.6v36.6H0
		V9z M48.9,49.2h0.5v-5.5h-0.5V49.2z M41,49.2h0.5v-5.5H41V49.2z M73.1,49.2h0.6v-5.5h-0.6V49.2z M37.9,49.2h2.4v-0.6h-1.8v-4.8
		h-0.6V49.2z M75.9,44.5c0.1,0.4,0.5,2.3,0.6,2.5h-1.3L75.9,44.5z M30.5,47.3c0,1.3,0.6,1.9,1.3,2h0.5c0.4-0.1,0.8-0.3,1-0.7
		c0.5-0.8,0.3-3.7,0.3-4.9H33c0,1,0.2,4-0.2,4.6c-0.1,0-0.2,0.2-0.3,0.2c-0.7,0.3-1.4-0.2-1.4-1v-3.8h-0.5V47.3z M28.6,46.3h-1.1
		v-1.9c1.2,0,1.8-0.2,1.8,1C29.3,45.9,29.1,46.3,28.6,46.3z M27,49.2h0.6V47c1.2,0,2.4,0.2,2.4-1.7c0-1.8-1.4-1.5-2.9-1.5V49.2z
		 M66,49.2h2.8v-0.6h-2.1c-0.4,0-0.2-0.6-0.2-1.6c0-0.2,0-0.3,0.2-0.3h1.9v-0.6h-2.1v-1.7h2.3v-0.6H66V49.2z M42.3,49.2h0.5
		c0-1.9-0.2-1.8,0.6-2.8c0.1,0.3,1.2,2.4,1.3,2.8h0.7L44,46.4c0,0-0.1-0.2-0.1-0.2c-0.1-0.2,0-0.1-0.2-0.2l0.8-1.1
		c0.3-0.4,0.5-0.8,0.8-1.1h-0.7l-1.8,2.6v-2.6h-0.5V49.2z M23.4,49.2h2.8v-0.6H24v-1.9H26v-0.6H24v-1.7h2.2v-0.6h-2.7V49.2z
		 M69.5,45.1c0,1.3,1,1.4,1.8,1.7c1,0.5,0.6,1.8-0.3,1.8c-0.7,0-1.1-0.5-1.1-1.3c-0.6,0-0.8,0.2-0.2,1.2c0.2,0.4,0.6,0.6,1,0.7h0.5
		c0.7-0.1,1.3-0.6,1.3-1.6c0-2.1-2.4-1.4-2.4-2.5c0-0.6,0.1-0.9,0.9-0.9c0.5,0,0.8,0.5,0.8,1c0.4,0,0.5,0,0.5-0.3
		c0-1.3-1.5-1.9-2.4-1C69.7,44.2,69.5,44.7,69.5,45.1z M59.8,48.6c-1.8,0-1.4-3.2-1.1-3.7c0.5-0.8,2.3-1.4,2.3,1.7
		C60.9,47.5,60.6,48.6,59.8,48.6z M59.8,49.3h-0.2c-0.9-0.1-1.7-0.9-1.7-2.4v-0.6c0-1.7,1.1-3.4,2.7-2.4c0.6,0.4,0.9,1.6,0.9,2.4
		C61.5,48.3,60.7,49.2,59.8,49.3z M21.5,46.1h-1.4v-1.8c0.6,0,1.4-0.1,1.8,0.2c0.3,0.3,0.3,0.9,0.1,1.3
		C21.9,45.9,21.7,46.1,21.5,46.1z M19.6,49.2h0.5v-2.5c1.4,0,1.1,0.2,1.9,1.7c0.2,0.3,0.2,0.5,0.4,0.8h0.6c-0.1-0.3-0.2-0.4-0.3-0.7
		c-0.1-0.3-0.2-0.4-0.3-0.6s-0.2-0.4-0.3-0.6c-0.2-0.2-0.3-0.3-0.5-0.6c1.5-0.1,1.3-2.9,0.1-2.9h-2.1V49.2z M62.1,49.2h0.5v-4.1
		c0.3,0.2,1.4,3,1.7,3.5c0.1,0.2,0.2,0.3,0.3,0.6h0.5v-5.5h-0.5V48c-0.2-0.2-0.2-0.3-0.3-0.5c-0.3-0.8-1.3-2.5-1.5-3.2
		c-0.2-0.5-0.1-0.5-0.8-0.5V49.2z M55.2,48.6h-0.5v-4.2c1.6,0,2.1,0,2.1,2.4C56.8,47.9,56.4,48.6,55.2,48.6z M54.1,49.2
		c1.3,0,2.2,0.2,2.8-0.8c0.7-1.3,0.6-4.7-1.1-4.7h-1.7V49.2z M35.6,48.6h-0.7v-1.9c0.9,0,1.8-0.2,1.8,0.9
		C36.7,48.4,36.3,48.6,35.6,48.6z M35.5,46.1h-0.6v-1.7h0.9c0.5,0,0.7,0.3,0.7,0.8C36.5,45.9,36.2,46.1,35.5,46.1z M34.3,49.2
		c1.3,0,2.9,0.3,2.9-1.6c0-0.8-0.3-0.9-0.6-1.3c0.9-1.3,0.2-2.5-0.5-2.5h-1.7V49.2z M50.3,49.2h0.6v-4.1c0.2,0.3,0.3,0.7,0.5,1
		l1.3,2.7c0.2,0.5,0.1,0.4,0.8,0.4v-5.5h-0.5v4.1c-0.3-0.3-0.3-0.6-0.5-1c-0.2-0.5-1.3-2.7-1.4-3.1h-0.6V49.2z M65.5,28.7h0.8v-8.8
		h-0.8V28.7z M48.7,21h1.9v7.7h0.9V21h1.9v-1.1h-4.7V21z M69.6,21.1c0.1,0.2,0.9,3.8,0.9,3.9h-1.8C68.9,24.2,69.6,21.9,69.6,21.1z
		 M69.4,19.9h0.5c0.2,0,0.2,0.1,0.3,0.5l0.4,1.7c0.2,0.8,1.7,6.4,1.9,6.7h-1c0-0.3-0.2-1-0.3-1.3c-0.1-0.4-0.2-0.8-0.3-1.3h-2.4
		c-0.1,0.2-0.6,2.4-0.6,2.6h-0.9c0.2-0.4,1.5-5.9,1.7-6.8c0.1-0.3,0.2-0.8,0.3-1.1C69.1,20.3,69.1,19.9,69.4,19.9z M20.2,19.9v8.8
		H21c0-0.8,0-1.7,0-2.5c0-1.2,0.6-1,0.8-1.8H22c0.1,0.3,1.7,3.8,2,4.3h1.1c-0.4-0.8-2.4-4.9-2.5-5.3c0.3-0.5,2.3-3.3,2.4-3.6h-1.1
		c-0.3,0.6-1.6,2.4-2.1,3.2c-0.2,0.2-0.2,0.3-0.3,0.5L21,24.1v-4.2H20.2z M25.6,28.7H30v-1.1h-3.5v-2.9h3.2v-1.1h-3.2V21h3.4v-1.1
		h-4.3V28.7z M37.8,28.7h4.4v-1.1h-3.6v-2.9h3.2v-1.1h-3.2V21h3.5v-1.1h-4.4V28.7z M54.1,28.7h4.4v-1.1h-3.5v-2.9h3.2v-1.1h-3.2V21
		h3.5v-1.1h-4.3V28.7z M62.1,23.8h-1.7v-2.8c1.2,0,3-0.4,3,1.4C63.4,23.1,63,23.8,62.1,23.8z M59.5,28.7h0.9v-3.9
		c1.8,0,1.6-0.2,2.8,2.7c0.1,0.3,0.4,0.8,0.5,1.1h1.1c-0.2-0.3-0.3-0.7-0.5-1.1c-0.2-0.4-0.3-0.6-0.5-1c-0.6-1.5-0.7-1.3-1.1-1.9
		c2.3-0.5,2-4.8-0.2-4.8h-3V28.7z M43.2,28.7H44V22l1.5,3.4c0.3,0.6,0.5,1.1,0.7,1.7c0.2,0.3,0.3,0.6,0.4,0.9c0.4,0.8,0,0.8,1.2,0.8
		v-8.8H47v6.6c-0.2-0.2-0.6-1.3-0.8-1.6c-0.5-1-0.9-2.2-1.5-3.3c-0.1-0.3-0.6-1.4-0.7-1.7h-0.9V28.7z M31,28.7h0.9l0.1-6.9
		c0,0.4,0.6,2.9,0.7,3.5c0.3,1.1,0.5,2.3,0.8,3.4h0.8c0-0.1,1.3-6,1.5-6.6l0.1-0.2c0,0,0,0,0-0.1v6.8h0.9v-8.8h-1.2
		c0,0.3-0.1,0.6-0.2,0.9l-1.2,5.4c0,0.2,0,0.2-0.1,0.5l-0.2,0.5c0-0.3-0.1-0.6-0.2-0.9l-1.4-6.3H31V28.7z M43.2,30.9
		c0,0.8,0.7,2.9,0.8,3.7h-1.7c0-0.3,0.3-1.5,0.4-1.9l0.3-1.4C43.1,30.9,42.9,31.1,43.2,30.9z M40.6,38.2h0.8
		c0.1-0.5,0.5-2.2,0.6-2.6c2.7,0,2.1-0.3,2.5,1.2c0.1,0.4,0.3,1.1,0.3,1.4h0.9c0-0.5-0.1-0.8-0.2-1.1c-0.1-0.4-0.2-0.7-0.3-1.1
		c-0.2-0.6-1.6-6.2-1.6-6.6h-0.9l-1.8,7.6C40.8,37.4,40.6,37.8,40.6,38.2z M53.9,30.8c0,0.1,0,0,0.1,0.2c0.1,0.3,0.1,0.5,0.2,0.8
		l0.7,2.9h-1.7c0.2-0.6,0.3-1.2,0.4-1.9C53.7,32.1,53.9,31.5,53.9,30.8z M51.4,38.2h0.9c0-0.6,0.5-2,0.6-2.6h2.2
		c0.2,0.9,0.4,1.7,0.6,2.6h0.8c0-0.3-0.4-1.7-0.5-2.2c-0.6-2.2-1.2-4.4-1.7-6.6h-0.9c0,0.3-0.4,1.8-0.5,2.2L51.4,38.2z M70.4,30.9
		c0,0.5,0.3,1.4,0.3,1.9c0.2,0.6,0.4,1.3,0.4,1.9h-1.6c0-0.5,0.5-2.5,0.7-3.3C70.2,30.9,70.1,31.1,70.4,30.9z M67.8,38.2h0.8
		c0.1-0.5,0.5-2.2,0.5-2.6c2.7,0,2.2-0.3,2.5,1.2c0.1,0.4,0.3,1.1,0.3,1.4h0.9c0-0.5-0.2-0.8-0.2-1.1L71,30.6
		c-0.1-0.4-0.3-0.8-0.3-1.2h-0.9C69.6,30.5,67.8,37.7,67.8,38.2z M22.6,33.6h-1.4v-3c1.9,0,2.5-0.3,2.5,1.7
		C23.7,33,23.3,33.6,22.6,33.6z M20.2,38c0,0.3,0.9,0.3,0.9,0v-3.3c1.6,0,2.8,0.3,3.3-1.6c0-0.1,0.2-0.9,0.2-1.1
		c0-0.1-0.1-0.8-0.2-0.9c-0.5-1.9-1.8-1.6-4.1-1.6V38z M25.3,38.2h4.1v-1.1h-3.3v-2.7c0-0.2,0.1-0.2,0.3-0.2h2.7v-1h-2.7
		c-0.2,0-0.3-0.1-0.3-0.3v-2.4h3.3c0-0.8,0.1-1.1-0.3-1.1h-3.8V38.2z M46,33.9c0,1.4,0.4,3.2,1.5,4.1c0.6,0.4,1.3,0.6,2.1,0.3
		c0.4-0.2,1.4-0.9,1.4-1.3v-3.2h-2.4c0,1.4-0.3,1.1,1.7,1.1v1.3c0,1.2-3.5,2.2-3.5-1.7c0-1.1,0-2.8,0.8-3.6c0.6-0.5,1.6-0.6,2.2,0.2
		c0.2,0.2,0.3,0.9,0.4,1.2c0.4,0,0.4-0.2,0.7-0.3c0-0.7-0.3-1.4-0.6-1.8C49.2,28.4,46,29.1,46,33.9z M37.5,37.1
		c-0.7,0-0.9,0.1-0.9-0.3v-6.3c1.4,0,2-0.2,2.5,0.8c0.6,1,0.5,3.9,0,5C38.7,36.9,38.3,37.1,37.5,37.1z M35.7,38.2
		c1.9,0,3.2,0.3,4-1.4c0.8-1.8,1.1-7.4-1.9-7.4h-2.1V38.2z M62.3,33.4c0,1.3,0,1.9,0.5,3.2c0.2,0.6,0.6,1.2,1.2,1.5
		c1.7,1,3.4-0.8,3.4-1.3v-3H65v1.1h1.6v1.4c0,0.8-3.5,2.5-3.5-2.5c0-4.1,2.5-3.7,3.1-2.8c0.2,0.4,0.2,0.9,0.4,1.3
		c0.3-0.1,0.4-0.2,0.7-0.3c-0.2-1-0.5-2.7-2.2-2.7C63.1,29.3,62.3,31.7,62.3,33.4z M33,33.3h-1.8v-2.8h1.6c0.8,0,1.2,0.6,1.2,1.3
		C33.9,32.5,33.6,33.3,33,33.3z M30.4,38.2h0.8v-3.9c1.7,0,1.4-0.1,2.6,2.7c0.2,0.3,0.3,0.8,0.5,1.1h0.9c-0.1-0.3-0.3-0.8-0.4-1
		c-0.2-0.6-0.8-2.1-1.2-2.6l-0.3-0.4c1.8-0.2,2.2-4.7-0.4-4.7h-2.5V38.2z"/>
	<g>
		<polygon class="st1" points="26.5,24.7 29.7,24.7 29.7,23.6 26.5,23.6 26.5,21 29.9,21 29.9,19.9 25.6,19.9 25.6,28.7 30,28.7 
			30,27.6 26.5,27.6 		"/>
		<path class="st1" d="M20.2,29.5V38c0,0.3,0.9,0.3,0.9,0v-3.3c1.6,0,2.8,0.3,3.3-1.6c0-0.1,0.2-0.9,0.2-1.1c0-0.1-0.1-0.8-0.2-0.9
			C23.9,29.1,22.6,29.5,20.2,29.5z M22.6,33.6h-1.4v-3c1.9,0,2.5-0.3,2.5,1.7C23.7,33,23.3,33.6,22.6,33.6z"/>
		<path class="st1" d="M33,43.7c0,1,0.2,4-0.2,4.6c-0.1,0-0.2,0.2-0.3,0.2c-0.7,0.3-1.4-0.2-1.4-1v-3.8h-0.5v3.6
			c0,1.3,0.6,1.9,1.3,2h0.5c0.4-0.1,0.8-0.3,1-0.7c0.5-0.8,0.3-3.7,0.3-4.9H33z"/>
		<path class="st1" d="M27,43.7v5.5h0.6V47c1.2,0,2.4,0.2,2.4-1.7C29.9,43.4,28.5,43.7,27,43.7z M28.6,46.3h-1.1v-1.9
			c1.2,0,1.8-0.2,1.8,1C29.3,45.9,29.1,46.3,28.6,46.3z"/>
		<path class="st1" d="M22.4,47.9c-0.1-0.3-0.2-0.4-0.3-0.6c-0.2-0.2-0.3-0.3-0.5-0.6c1.5-0.1,1.3-2.9,0.1-2.9h-2.1v5.5h0.5v-2.5
			c1.4,0,1.1,0.2,1.9,1.7c0.2,0.3,0.2,0.5,0.4,0.8h0.6c-0.1-0.3-0.2-0.4-0.3-0.7C22.6,48.3,22.5,48.1,22.4,47.9z M20.1,46.1v-1.8
			c0.6,0,1.4-0.1,1.8,0.2c0.3,0.3,0.3,0.9,0.1,1.3c-0.1,0.2-0.3,0.3-0.5,0.3H20.1z"/>
		<polygon class="st1" points="24,46.7 26,46.7 26,46.1 24,46.1 24,44.4 26.2,44.4 26.2,43.7 23.4,43.7 23.4,49.2 26.3,49.2 
			26.3,48.6 24,48.6 		"/>
		<path class="st1" d="M29.4,37.1h-3.3v-2.7c0-0.2,0.1-0.2,0.3-0.2h2.7v-1h-2.7c-0.2,0-0.3-0.1-0.3-0.3v-2.4h3.3
			c0-0.8,0.1-1.1-0.3-1.1h-3.8v8.8h4.1V37.1z"/>
		<path class="st1" d="M21,26.2c0-1.2,0.6-1,0.8-1.8H22c0.1,0.3,1.7,3.8,2,4.3h1.1c-0.4-0.8-2.4-4.9-2.5-5.3
			c0.3-0.5,2.3-3.3,2.4-3.6h-1.1c-0.3,0.6-1.6,2.4-2.1,3.2c-0.2,0.2-0.2,0.3-0.3,0.5L21,24.1v-4.2h-0.9v8.8H21
			C21,27.9,21,27.1,21,26.2z"/>
		<rect x="65.5" y="19.9" class="st1" width="0.8" height="8.8"/>
		<path class="st1" d="M68.5,26.1h2.4c0.1,0.5,0.2,0.9,0.3,1.3c0.1,0.3,0.3,1,0.3,1.3h1c-0.2-0.3-1.6-5.9-1.9-6.7l-0.4-1.7
			c-0.1-0.3-0.1-0.5-0.3-0.5h-0.5c-0.3,0-0.3,0.4-0.4,0.9c-0.1,0.3-0.2,0.8-0.3,1.1c-0.2,0.9-1.6,6.4-1.7,6.8h0.9
			C67.9,28.5,68.5,26.3,68.5,26.1z M69.6,21.1c0.1,0.2,0.9,3.8,0.9,3.9h-1.8C68.9,24.2,69.6,21.9,69.6,21.1z"/>
		<path class="st1" d="M57.1,29.5v8.8h0.8v-6.6c0.1,0.2,0.6,1.4,0.7,1.7l1.7,4.2c0.3,0.8,0.1,0.7,1.1,0.7v-8.8h-0.8v6.5
			c-0.2-0.2-0.6-1.3-0.7-1.6L58.5,31C57.7,29.2,58.2,29.5,57.1,29.5z"/>
		<polygon class="st1" points="58.5,27.6 54.9,27.6 54.9,24.7 58.2,24.7 58.2,23.6 54.9,23.6 54.9,21 58.4,21 58.4,19.9 54.1,19.9 
			54.1,28.7 58.5,28.7 		"/>
		<polygon class="st1" points="42.2,27.6 38.6,27.6 38.6,24.7 41.9,24.7 41.9,23.6 38.6,23.6 38.6,21 42.1,21 42.1,19.9 37.8,19.9 
			37.8,28.7 42.2,28.7 		"/>
		<path class="st1" d="M31.9,21.9c0,0.4,0.6,2.9,0.7,3.5c0.3,1.1,0.5,2.3,0.8,3.4h0.8c0-0.1,1.3-6,1.5-6.6l0.1-0.2v6.7h0.9v-8.8
			h-1.2c0,0.3-0.1,0.6-0.2,0.9l-1.2,5.4c0,0.2,0,0.2-0.1,0.5l-0.2,0.5c0-0.3-0.1-0.6-0.2-0.9l-1.4-6.3H31v8.8h0.9L31.9,21.9z"/>
		<path class="st1" d="M51.4,38.2h0.9c0-0.6,0.5-2,0.6-2.6h2.2c0.2,0.9,0.4,1.7,0.6,2.6h0.8c0-0.3-0.4-1.7-0.5-2.2
			c-0.6-2.2-1.2-4.4-1.7-6.6h-0.9c0,0.3-0.4,1.8-0.5,2.2L51.4,38.2z M53.5,32.7c0.2-0.6,0.4-1.3,0.4-1.9c0,0.1,0,0,0.1,0.2
			c0.1,0.3,0.1,0.5,0.2,0.8l0.7,2.9h-1.7C53.3,33.9,53.4,33.4,53.5,32.7z"/>
		<polygon class="st1" points="50.6,28.7 51.4,28.7 51.4,21 53.3,21 53.3,19.9 48.7,19.9 48.7,21 50.6,21 		"/>
		<path class="st1" d="M44,22l1.5,3.4c0.3,0.6,0.5,1.1,0.7,1.7c0.2,0.3,0.3,0.6,0.4,0.9c0.4,0.8,0,0.8,1.2,0.8v-8.8H47v6.6
			c-0.2-0.2-0.6-1.3-0.8-1.6c-0.5-1-0.9-2.2-1.5-3.3c-0.1-0.3-0.6-1.4-0.7-1.7h-0.9v8.8H44V22z"/>
		<path class="st1" d="M52.8,47.9c-0.3-0.3-0.3-0.6-0.5-1c-0.2-0.5-1.3-2.7-1.4-3.1h-0.6v5.5h0.6v-4.1c0.2,0.3,0.3,0.7,0.5,1
			l1.3,2.7c0.2,0.5,0.1,0.4,0.8,0.4v-5.5h-0.5V47.9z"/>
		<path class="st1" d="M66.5,46.9c0-0.2,0-0.3,0.2-0.3h1.9v-0.6h-2.1v-1.7h2.3v-0.6H66v5.5h2.8v-0.6h-2.1
			C66.3,48.6,66.5,48,66.5,46.9z"/>
		<path class="st1" d="M67.4,36.7v-3H65v1.1h1.6v1.4c0,0.8-3.5,2.5-3.5-2.5c0-4.1,2.5-3.7,3.1-2.8c0.2,0.4,0.2,0.9,0.4,1.3
			c0.3-0.1,0.4-0.2,0.7-0.3c-0.2-1-0.5-2.7-2.2-2.7c-2.1,0-2.8,2.4-2.8,4.1c0,1.3,0,1.9,0.5,3.2c0.2,0.6,0.6,1.2,1.2,1.5
			C65.7,39,67.4,37.3,67.4,36.7z"/>
		<path class="st1" d="M63.6,28.7h1.1c-0.2-0.3-0.3-0.7-0.5-1.1c-0.2-0.4-0.3-0.6-0.5-1c-0.6-1.5-0.7-1.3-1.1-1.9
			c2.3-0.5,2-4.8-0.2-4.8h-3v8.8h0.9v-3.9c1.8,0,1.6-0.2,2.8,2.7C63.3,27.9,63.6,28.4,63.6,28.7z M60.4,23.8v-2.8c1.2,0,3-0.4,3,1.4
			c0,0.8-0.4,1.5-1.3,1.5H60.4z"/>
		<path class="st1" d="M70,45.2c0-0.6,0.1-0.9,0.9-0.9c0.5,0,0.8,0.5,0.8,1c0.4,0,0.5,0,0.5-0.3c0-1.3-1.5-1.9-2.4-1
			c-0.2,0.2-0.4,0.7-0.4,1.1c0,1.3,1,1.4,1.8,1.7c1,0.5,0.6,1.8-0.3,1.8c-0.7,0-1.1-0.5-1.1-1.3c-0.6,0-0.8,0.2-0.2,1.2
			c0.2,0.4,0.6,0.6,1,0.7h0.5c0.7-0.1,1.3-0.6,1.3-1.6C72.4,45.6,70,46.3,70,45.2z"/>
		<path class="st1" d="M34.8,37.2c-0.2-0.6-0.8-2.1-1.2-2.6l-0.3-0.4c1.8-0.2,2.2-4.7-0.4-4.7h-2.5v8.8h0.8v-3.9
			c1.7,0,1.4-0.1,2.6,2.7c0.2,0.3,0.3,0.8,0.5,1.1h0.9C35.1,37.9,34.9,37.5,34.8,37.2z M31.2,33.3v-2.8h1.6c0.8,0,1.2,0.6,1.2,1.3
			c0,0.7-0.3,1.4-0.9,1.4H31.2z"/>
		<path class="st1" d="M75.6,43.7c-0.2,0.7-1.4,5-1.4,5.5h0.6l0.4-1.7h1.6c0.1,0.3,0.2,0.6,0.2,0.8c0.1,0.3,0.1,0.6,0.2,0.8h0.6
			c-0.2-0.7-1.5-5-1.5-5.5H75.6z M75.2,46.9l0.6-2.5c0.1,0.4,0.5,2.3,0.6,2.5H75.2z"/>
		<path class="st1" d="M77,35.9c-0.2-0.2-0.6-1.2-0.7-1.5c-0.2-0.6-0.5-1.1-0.7-1.6c-0.2-0.3-1.3-3-1.4-3.3h-0.8V38
			c0,0.3,0.2,0.2,0.8,0.2v-6.6l0.2,0.3l1.2,2.9c0.2,0.5,0.4,1.1,0.6,1.6l0.7,1.7h0.8v-8.8H77V35.9z"/>
		<path class="st1" d="M76.9,19.9v6.6c-0.3-0.3-0.6-1.2-0.8-1.7c-0.1-0.3-0.2-0.5-0.3-0.8l-1.5-3.4c-0.3-0.6-0.2-0.8-0.6-0.8H73v8.8
			h0.9v-6.6c0.1,0.1,0,0,0.1,0.2l1.4,3.1c0.2,0.6,0.5,1.1,0.7,1.6c0.2,0.3,0.7,1.4,0.7,1.7h0.9v-8.8H76.9z"/>
		<rect x="73.1" y="43.7" class="st1" width="0.6" height="5.5"/>
		<path class="st1" d="M71,30.6c-0.1-0.4-0.3-0.8-0.3-1.2h-0.9c-0.2,1-2.1,8.2-2.1,8.8h0.8c0.1-0.5,0.5-2.2,0.5-2.6
			c2.7,0,2.2-0.3,2.5,1.2c0.1,0.4,0.3,1.1,0.3,1.4h0.9c0-0.5-0.2-0.8-0.2-1.1L71,30.6z M69.5,34.6c0-0.5,0.5-2.5,0.7-3.3
			c0-0.4-0.1-0.3,0.2-0.5c0,0.5,0.3,1.4,0.3,1.9c0.2,0.6,0.4,1.3,0.4,1.9H69.5z"/>
		<path class="st1" d="M60.5,43.9c-1.6-1-2.7,0.6-2.7,2.4v0.6c0,1.4,0.9,2.3,1.7,2.4h0.2c0.9-0.1,1.7-0.9,1.7-2.9
			C61.5,45.5,61.2,44.3,60.5,43.9z M59.8,48.6c-1.8,0-1.4-3.2-1.1-3.7c0.5-0.8,2.3-1.4,2.3,1.7C60.9,47.5,60.6,48.6,59.8,48.6z"/>
		<path class="st1" d="M64.7,48c-0.2-0.2-0.2-0.3-0.3-0.5c-0.3-0.8-1.3-2.5-1.5-3.2c-0.2-0.5-0.1-0.5-0.8-0.5v5.5h0.5v-4.1
			c0.3,0.2,1.4,3,1.7,3.5c0.1,0.2,0.2,0.3,0.3,0.6h0.5v-5.5h-0.5V48z"/>
		<path class="st1" d="M43.9,46.2c-0.1-0.2,0-0.1-0.2-0.2l0.8-1.1c0.3-0.4,0.5-0.8,0.8-1.1h-0.7l-1.8,2.6v-2.6h-0.5v5.5h0.5
			c0-1.9-0.2-1.8,0.6-2.8c0.1,0.3,1.2,2.4,1.3,2.8h0.7L44,46.4C44,46.3,44,46.2,43.9,46.2z"/>
		<path class="st1" d="M37.9,29.5h-2.1v8.8c1.9,0,3.2,0.3,4-1.4C40.6,35.1,40.8,29.5,37.9,29.5z M39,36.4c-0.3,0.6-0.8,0.8-1.6,0.8
			c-0.7,0-0.9,0.1-0.9-0.3v-6.3c1.4,0,2-0.2,2.5,0.8C39.6,32.4,39.6,35.2,39,36.4z"/>
		<rect x="41" y="43.7" class="st1" width="0.5" height="5.5"/>
		<path class="st1" d="M36.1,43.7h-1.7v5.5c1.3,0,2.9,0.3,2.9-1.6c0-0.8-0.3-0.9-0.6-1.3C37.5,45,36.8,43.7,36.1,43.7z M34.9,44.4
			h0.9c0.5,0,0.7,0.3,0.7,0.8c0,0.7-0.3,0.9-1,0.9h-0.6V44.4z M36.7,47.6c0,0.8-0.4,0.9-1.1,0.9h-0.7v-1.9
			C35.8,46.7,36.7,46.5,36.7,47.6z"/>
		<polygon class="st1" points="38.4,43.7 37.9,43.7 37.9,49.2 40.2,49.2 40.2,48.6 38.4,48.6 		"/>
		<path class="st1" d="M55.8,43.7h-1.7v5.5c1.3,0,2.2,0.2,2.8-0.8C57.6,47.1,57.5,43.7,55.8,43.7z M55.2,48.6h-0.5v-4.2
			c1.6,0,2.1,0,2.1,2.4C56.8,47.9,56.4,48.6,55.2,48.6z"/>
		<path class="st1" d="M45.2,36c-0.2-0.6-1.6-6.2-1.6-6.6h-0.9l-1.8,7.6c-0.1,0.3-0.2,0.7-0.2,1.2h0.8c0.1-0.5,0.5-2.2,0.6-2.6
			c2.7,0,2.1-0.3,2.5,1.2c0.1,0.4,0.3,1.1,0.3,1.4h0.9c0-0.5-0.1-0.8-0.2-1.1C45.4,36.8,45.3,36.4,45.2,36z M42.3,34.6
			c0-0.3,0.3-1.5,0.4-1.9l0.3-1.4c0.1-0.4-0.1-0.3,0.2-0.5c0,0.8,0.7,2.9,0.8,3.7H42.3z"/>
		<path class="st1" d="M51.1,36.9v-3.2h-2.4c0,1.4-0.3,1.1,1.7,1.1v1.3c0,1.2-3.5,2.2-3.5-1.7c0-1.1,0-2.8,0.8-3.6
			c0.6-0.5,1.6-0.6,2.2,0.2c0.2,0.2,0.3,0.9,0.4,1.2c0.4,0,0.4-0.2,0.7-0.3c0-0.7-0.3-1.4-0.6-1.8c-1.1-1.7-4.4-1.1-4.4,3.7
			c0,1.4,0.4,3.2,1.5,4.1c0.6,0.4,1.3,0.6,2.1,0.3C50,38,51.1,37.3,51.1,36.9z"/>
		<rect x="48.9" y="43.7" class="st1" width="0.5" height="5.5"/>
	</g>
	<path class="st0" d="M1.1,90.9c0.7,0,0.5,0.1,0.5-1.4c0-0.6,0-1.2,0-1.8l0.3,0.7C2,88.7,2,89,2.1,89.3l0.5,1.7h0.5
		c0.1-0.3,0.9-2.8,0.9-3.2h0.2v3.2c0.4,0,0.5,0,0.5-0.2v-4.1H4c-0.2,0.8-1,3-1,3.5c0,0,0-0.1,0-0.1c0,0.1,0-0.1-0.1-0.1
		c0-0.1,0-0.1-0.1-0.2l-0.7-2.3c-0.3-0.9,0-0.8-1-0.8V90.9z M7.1,90.9h0.5v-4.3H7.1V90.9z M15.3,90.9h0.5v-4.3h-0.5V90.9z M23,87.2
		h1.3v3.8h0.5v-3.8H26v-0.5H23V87.2z M52.9,87.2h1.3v3.8h0.6v-3.8H56v-0.5h-3.2V87.2z M34.4,89.2v1.7c0.6,0,0.6,0,0.6-0.5
		c0-1.3-0.2-1.2,0.3-2c0.4-0.6,0.8-1.3,1.2-1.9h-0.7c-0.1,0.3-0.6,1.1-0.8,1.4c-0.2,0.3-0.1,0.3-0.4,0.4c-0.1-0.3-0.8-1.5-1-1.8
		h-0.7C33.1,86.9,34.4,88.9,34.4,89.2z M45.6,90.9h0.5V89h1.8v-0.6h-1.8v-1.2h2.1v-0.5h-2.6V90.9z M64.6,87.3l0.1,0.2
		c0,0.1,0.1,0.2,0.1,0.2l0.5,1.4h-1.2C64.2,88.5,64.5,87.9,64.6,87.3z M62.9,90.9h0.6c0.1-0.2,0.4-1,0.4-1.3h1.6
		c0.2,0.4,0.3,0.9,0.5,1.3h0.6L65,86.6h-0.6L62.9,90.9z M20.6,89.8c0,0.7-1.7,0.9-1.9,0c-0.1-0.3,0.1-0.4-0.2-0.4
		c-0.6,0-0.4,0.4-0.2,0.8l0.2,0.3c0.6,0.8,2.7,0.8,2.7-0.9c0-0.4-0.3-0.7-0.6-0.9c-0.6-0.4-1.9-0.3-1.9-1s1.1-0.8,1.5-0.4
		c0.3,0.2,0.2,0.4,0.3,0.6c0.2,0,0.2-0.1,0.5-0.1c0-0.9-0.6-1.3-1.1-1.3c-0.6,0-1.2-0.1-1.6,0.7c-0.7,1.5,1.6,1.7,2,2
		C20.5,89.3,20.6,89.5,20.6,89.8z M73.7,90.9h2.9v-0.6h-2.4v-1.4h2.1v-0.5h-2.1v-1.2h2.3v-0.5h-2.8V90.9z M41.8,90.4h-0.4
		c-1.3,0-1.6-3.3,0.3-3.3C43.4,87.1,43.1,90.4,41.8,90.4z M39.7,88.7c0,0.7,0.2,1.4,0.6,1.8c1.3,1.2,3.1,0.2,3.1-1.5
		c0-0.8,0-1.3-0.6-1.9C42,86.1,39.7,86.4,39.7,88.7z M70,90.3h-1.1v-3.2c1.9,0,2.1,0,2.1,2C71,89.8,70.6,90.3,70,90.3z M68.3,90.9
		c1.9,0,3.2,0.2,3.2-2.4c0-0.8-0.5-1.9-1.3-1.9h-1.9V90.9z M29.7,88.5h-1.1v-1.3h1.5c0.3,0,0.5,0.3,0.5,0.6
		C30.6,88.3,30.2,88.5,29.7,88.5z M28,90.9h0.6c0-2.1-0.2-1.9,0.5-1.9c0.8,0,1.3,1,1.7,1.9h0.6c0-0.3-0.6-1.3-0.9-1.6
		c-0.2-0.2-0.3-0.2-0.4-0.5c1.6-0.3,1.2-2.3-0.1-2.3H28V90.9z M9.9,90.9c0.7,0,0.6,0.1,0.6-1.4c0-0.6,0-1.1,0-1.7
		c0.3,0.3,0.7,1.1,0.9,1.5c0.2,0.3,0.9,1.4,0.9,1.6c0.3,0,0.6,0.1,0.6-0.2v-4.1h-0.6v3.2c-0.2-0.2-0.4-0.6-0.5-0.8
		c-0.2-0.3-1.3-2.4-1.6-2.4H9.9V90.9z M59.7,88.5h-1.1v-1.3h1.4c0.5,0,0.6,0.3,0.6,0.7C60.4,88.3,60.1,88.5,59.7,88.5z M57.9,90.7
		c0,0.3,0.2,0.2,0.6,0.2V89c0.8,0,1,0,1.5,0.7c0.2,0.3,0.6,1,0.7,1.2h0.7c-0.2-0.7-1-1.7-1.3-2c1.5-0.3,1-2.3,0-2.3h-2.2V90.7z"/>
</g>
</svg>
