<?xml version="1.0" encoding="utf-8"?>
<!-- Generator: Adobe Illustrator 21.0.0, SVG Export Plug-In . SVG Version: 6.00 Build 0)  -->
<svg version="1.1" id="Layer_1" xmlns="http://www.w3.org/2000/svg" xmlns:xlink="http://www.w3.org/1999/xlink" x="0px" y="0px"
	 viewBox="0 0 196.3 68.6" style="enable-background:new 0 0 196.3 68.6;" xml:space="preserve">
<style type="text/css">
	.st0{fill:#76474E;}
</style>
<g>
	<path class="st0" d="M25.8,26.2v6.1v7.1v3.1h-2.1v1.2h2.1h4.3h2.1v-1.2h-2.1V29.2c0-4.6,1.8-7.3,4.5-9.8l-0.4-0.5
		c-2.6,1.6-4.8,3.6-6.2,6h-4.2v1.2L25.8,26.2L25.8,26.2z M45,42.4V26.2v-1V25h-6.4v1.2h2.1v16.3h-2.1v1.2h2.1H45h2.1v-1.2H45V42.4z
		 M53.5,26.2h-2.3V25h6.4v0.2v1v7.3c0,5.9,1.6,10.3,6.6,10.3l0,0V26.2h-2.1V25h8.6v1.2h-2.1v22.6c0,7.1-3.3,16.6-8.3,19.8l-0.4-0.5
		c2.8-2.5,4.5-9.3,4.5-13.9v-9.3l0,0c-5.6,0-10.8-3.5-10.8-13.2L53.5,26.2L53.5,26.2z M75.9,25.1v-0.2H86c-0.7-2.2-2.1-3.9-3.8-5.5
		l0.4-0.5c5,3,8.3,7.7,8.3,13.3v10.2h2.2v1.2h-2.2h-2.1h-2.1l0,0c-5.6,0-10.7-3.5-10.7-13.2v-4.3L75.9,25.1L75.9,25.1z M86.2,26.2
		h-6.3v6c0,5.9,1.5,10.2,6.6,10.3V29.2C86.6,28.1,86.5,27.1,86.2,26.2L86.2,26.2z M43,14.7c1.9,0,3.5,1.6,3.5,3.5s-1.6,3.5-3.5,3.5
		s-3.5-1.6-3.5-3.5S41,14.7,43,14.7L43,14.7z M10.5,0l0.4,0.5C8.2,3,6.4,8.8,6.4,15.7v9.2h10.9v1.2h-6.1c3.4,1.6,5.9,5.4,5.9,12.2
		v4.1h2.3v1.2h-2.3h-2H13v-7.3C13,30.4,11.4,26,6.4,26v16.3h2.1v1.2H6.4H2.1H0v-1.2h2.1V21.7C2.1,11.7,5.5,3.7,10.5,0z"/>
	<path d="M4.5,59.2H1.6v-0.3h0.8v-4.1H1.6v-0.3h0.8c0.2,0,0.3,0,0.6,0c0.2,0,0.5,0,0.7-0.1v1.1h0.1c0.2-0.4,0.5-0.6,0.8-0.8
		c0.3-0.2,0.6-0.3,1-0.3c0.5,0,0.9,0.1,1.1,0.4c0.3,0.2,0.4,0.6,0.4,1V56v2.9h0.7v0.3H5v-0.3h0.7v-3.4c0-0.3,0-0.5-0.1-0.6
		s-0.2-0.2-0.5-0.2c-0.4,0-0.7,0.2-1,0.6s-0.4,0.8-0.4,1.3v2.3h0.8L4.5,59.2L4.5,59.2z M13,54.7h-0.8v-0.3h0.7c0.2,0,0.4,0,0.6,0
		s0.5,0,0.7-0.1v4.5h0.9v0.3h-0.9c-0.2,0-0.4,0-0.6,0c-0.2,0-0.4,0-0.7,0.1v-1.1h-0.1c-0.2,0.4-0.5,0.6-0.8,0.8
		c-0.3,0.2-0.6,0.3-1,0.3c-0.5,0-0.9-0.1-1.1-0.3c-0.2-0.2-0.4-0.6-0.4-1l0,0c0-0.1,0-0.1,0-0.2v-2.9H8.7v-0.3h0.8
		c0.2,0,0.3,0,0.6,0s0.5,0,0.7-0.1v3.5c0,0.4,0,0.6,0.1,0.8c0.1,0.1,0.2,0.2,0.4,0.2c0.4,0,0.7-0.2,1-0.6s0.4-0.8,0.4-1.3v-2.3H13z
		 M17,59.2L17,59.2l-0.1-1.7h0.3c0.1,0.5,0.2,0.9,0.5,1.1c0.3,0.3,0.6,0.4,0.9,0.4s0.6-0.1,0.8-0.2c0.2-0.2,0.3-0.4,0.3-0.6
		s-0.1-0.4-0.2-0.5s-0.4-0.2-0.8-0.2c-0.7-0.1-1.2-0.3-1.4-0.5c-0.3-0.2-0.4-0.6-0.4-1.1s0.1-0.8,0.4-1.1c0.3-0.3,0.6-0.4,1.1-0.4
		c0.2,0,0.4,0,0.6,0.1s0.4,0.2,0.6,0.3l0.2-0.3H20v1.3h-0.3c-0.1-0.4-0.2-0.6-0.4-0.9c-0.2-0.2-0.5-0.3-0.8-0.3s-0.6,0.1-0.7,0.2
		c-0.2,0.1-0.3,0.3-0.3,0.6c0,0.3,0.3,0.5,0.8,0.6c0.2,0,0.4,0.1,0.6,0.1c0.5,0.1,0.8,0.3,1.1,0.5c0.2,0.3,0.3,0.6,0.3,1.1
		s-0.1,0.9-0.4,1.2c-0.3,0.3-0.7,0.4-1.2,0.4c-0.2,0-0.4,0-0.6-0.1s-0.4-0.2-0.6-0.3L17,59.2L17,59.2z M25,56.7
		c-0.6,0-1,0.1-1.3,0.3c-0.3,0.2-0.4,0.5-0.4,0.8s0.1,0.5,0.2,0.6s0.3,0.2,0.6,0.2c0.3,0,0.5-0.1,0.7-0.3c0.2-0.2,0.3-0.5,0.3-0.8
		L25,56.7L25,56.7z M25.1,58.6L25.1,58.6c-0.3,0.3-0.5,0.5-0.8,0.6s-0.6,0.1-1,0.1s-0.7-0.1-0.9-0.3c-0.2-0.2-0.3-0.5-0.3-0.9
		c0-0.5,0.2-0.9,0.7-1.2c0.5-0.3,1.1-0.5,1.8-0.5H25v-0.7c0-0.5-0.1-0.8-0.2-0.9s-0.3-0.2-0.6-0.2c-0.3,0-0.5,0-0.7,0.1
		s-0.3,0.1-0.3,0.2c0,0,0,0.1,0.1,0.2s0.1,0.2,0.1,0.4c0,0.2-0.1,0.3-0.2,0.4S23,56,22.8,56c-0.2,0-0.3,0-0.4-0.1s-0.1-0.2-0.1-0.4
		c0-0.3,0.2-0.6,0.5-0.8c0.4-0.2,0.8-0.3,1.4-0.3c0.3,0,0.7,0,0.9,0.1c0.3,0.1,0.5,0.1,0.6,0.2s0.2,0.2,0.3,0.3
		c0.1,0.1,0.1,0.4,0.1,0.8v2.7c0,0.1,0,0.1,0.1,0.2s0.1,0.1,0.2,0.1s0.1,0,0.2-0.1c0.1,0,0.1-0.1,0.2-0.2l0.1,0.2
		c-0.1,0.2-0.3,0.4-0.5,0.5c0,0.1-0.2,0.1-0.5,0.1c-0.2,0-0.4-0.1-0.6-0.2C25.3,59,25.1,58.8,25.1,58.6L25.1,58.6z M31.3,59.2h-2.9
		v-0.3h0.8v-4.1h-0.8v-0.3h0.8c0.2,0,0.3,0,0.6,0c0.2,0,0.5,0,0.7-0.1v1.1h0.1c0.2-0.4,0.5-0.6,0.8-0.8c0.3-0.2,0.6-0.3,1-0.3
		c0.5,0,0.9,0.1,1.1,0.4c0.3,0.2,0.4,0.6,0.4,1V56v2.9h0.7v0.3h-2.8v-0.3h0.7v-3.4c0-0.3,0-0.5-0.1-0.6s-0.2-0.2-0.5-0.2
		c-0.4,0-0.7,0.2-1,0.6s-0.4,0.8-0.4,1.3v2.3h0.8L31.3,59.2L31.3,59.2z M36.8,54.7H36v-0.3h0.8v-1.3h0.4c0.1,0,0.2,0,0.3,0
		s0.3-0.1,0.4-0.1v1.4h1.2v0.3h-1.2v3.5c0,0.2,0,0.4,0.1,0.5s0.2,0.1,0.4,0.1c0.1,0,0.3-0.1,0.4-0.2s0.2-0.3,0.3-0.4l0.2,0.1
		c-0.1,0.3-0.2,0.6-0.5,0.7c-0.3,0.2-0.6,0.3-1,0.3s-0.7-0.1-0.9-0.2c-0.2-0.2-0.3-0.4-0.3-0.8v-3.6H36.8z M43.8,56.7
		c-0.6,0-1,0.1-1.3,0.3c-0.3,0.2-0.4,0.5-0.4,0.8s0.1,0.5,0.2,0.6s0.3,0.2,0.6,0.2c0.3,0,0.5-0.1,0.7-0.3c0.2-0.2,0.3-0.5,0.3-0.8
		L43.8,56.7L43.8,56.7z M43.8,58.6L43.8,58.6c-0.3,0.3-0.5,0.5-0.8,0.6c-0.2,0.1-0.5,0.1-0.9,0.1s-0.7-0.1-0.9-0.3
		c-0.2-0.2-0.3-0.5-0.3-0.9c0-0.5,0.2-0.9,0.7-1.2c0.5-0.3,1.1-0.5,1.8-0.5h0.5v-0.7c0-0.5-0.1-0.8-0.2-0.9s-0.3-0.2-0.6-0.2
		s-0.5,0-0.7,0.1s-0.3,0.1-0.3,0.2c0,0,0,0.1,0.1,0.2s0.1,0.2,0.1,0.4c0,0.2-0.1,0.3-0.2,0.4S41.9,56,41.7,56c-0.2,0-0.3,0-0.4-0.1
		s-0.1-0.2-0.1-0.4c0-0.3,0.2-0.6,0.5-0.8c0.4-0.2,0.8-0.3,1.4-0.3c0.3,0,0.7,0,0.9,0.1c0.3,0.1,0.5,0.1,0.6,0.2s0.2,0.2,0.3,0.3
		c0.1,0.1,0.1,0.4,0.1,0.8v2.7c0,0.1,0,0.1,0.1,0.2s0.1,0.1,0.2,0.1s0.1,0,0.2-0.1c0.1,0,0.1-0.1,0.2-0.2l0.1,0.2
		c-0.1,0.2-0.3,0.4-0.5,0.5c0,0.1-0.3,0.1-0.5,0.1c-0.2,0-0.4-0.1-0.6-0.2C44,59,44,58.8,43.8,58.6L43.8,58.6z M47.3,59.2v-0.3h0.8
		v-4.1h-0.8v-0.3h0.8c0.1,0,0.3,0,0.6,0c0.2,0,0.5,0,0.7-0.1v1.2h0.1c0.2-0.4,0.4-0.7,0.7-0.9c0.3-0.2,0.6-0.3,0.9-0.3
		s0.5,0.1,0.6,0.2c0.2,0.1,0.2,0.3,0.2,0.6c0,0.2-0.1,0.4-0.2,0.5s-0.3,0.2-0.4,0.2c-0.2,0-0.4,0-0.5-0.1s-0.2-0.2-0.2-0.4v-0.1
		c0-0.1,0-0.1,0-0.2c0,0,0-0.1-0.1-0.1c-0.3,0-0.5,0.2-0.8,0.5c-0.3,0.4-0.4,0.8-0.4,1.2V59h1.1v0.3L47.3,59.2L47.3,59.2z
		 M56.5,56.7c-0.6,0-1,0.1-1.3,0.3c-0.3,0.2-0.4,0.5-0.4,0.8s0.1,0.5,0.2,0.6s0.3,0.2,0.6,0.2s0.5-0.1,0.7-0.3
		c0.2-0.2,0.3-0.5,0.3-0.8L56.5,56.7L56.5,56.7z M56.5,58.6L56.5,58.6c-0.3,0.3-0.5,0.5-0.8,0.6s-0.6,0.1-0.9,0.1
		c-0.4,0-0.7-0.1-0.9-0.3c-0.2-0.2-0.3-0.5-0.3-0.9c0-0.5,0.2-0.9,0.7-1.2c0.5-0.3,1.1-0.5,1.8-0.5h0.5v-0.7c0-0.5-0.1-0.8-0.2-0.9
		s-0.3-0.2-0.6-0.2s-0.5,0-0.7,0.1s-0.3,0.1-0.3,0.2c0,0,0,0.1,0.1,0.2c0.1,0.2,0.1,0.3,0.1,0.5s-0.1,0.3-0.2,0.4s-0.2,0.1-0.4,0.1
		c-0.2,0-0.3,0-0.4-0.1s-0.1-0.2-0.1-0.4c0-0.3,0.2-0.6,0.5-0.8c0.4-0.2,0.8-0.3,1.4-0.3c0.3,0,0.7,0,0.9,0.1
		c0.3,0.1,0.5,0.1,0.6,0.2s0.2,0.2,0.3,0.3c0.1,0.1,0.1,0.4,0.1,0.8v2.7c0,0.1,0,0.1,0.1,0.2s0.1,0.1,0.2,0.1s0.1,0,0.2-0.1
		c0.1,0,0.1-0.1,0.2-0.2l0.1,0.2c-0.1,0.2-0.3,0.4-0.5,0.5c-0.1,0-0.3,0-0.6,0c-0.2,0-0.4-0.1-0.6-0.2C56.7,59,56.6,58.8,56.5,58.6z
		"/>
	<path d="M108.6,27.6v-0.8h2.3v2.5c-0.4,0.3-0.7,0.6-1.1,0.8s-0.8,0.3-1.2,0.3c-0.5,0-1-0.1-1.4-0.4c-0.4-0.3-0.7-0.7-1-1.2
		c-0.2-0.5-0.4-1.1-0.4-1.8s0.1-1.4,0.4-1.9c0.2-0.5,0.6-0.9,1-1.2s0.9-0.4,1.4-0.4c0.4,0,0.7,0.1,1.1,0.2c0.3,0.1,0.5,0.4,0.7,0.6
		c0.2,0.3,0.3,0.6,0.4,1.1l-0.6,0.2c-0.1-0.4-0.2-0.7-0.3-0.8c-0.1-0.2-0.3-0.3-0.5-0.4c-0.2-0.1-0.5-0.2-0.7-0.2
		c-0.4,0-0.7,0.1-1,0.3s-0.5,0.5-0.7,0.9s-0.3,0.9-0.3,1.5c0,0.9,0.2,1.6,0.6,2s0.9,0.7,1.5,0.7c0.3,0,0.6-0.1,0.9-0.2
		c0.3-0.1,0.5-0.3,0.7-0.5v-1.2L108.6,27.6L108.6,27.6z M111.8,24.5v-0.9h0.7v0.9H111.8L111.8,24.5z M111.8,30.2v-4.8h0.7v4.8H111.8
		L111.8,30.2z M113.7,30.2V26h-0.6v-0.6h0.6v-0.5c0-0.4,0-0.7,0.1-0.9s0.2-0.3,0.4-0.4c0.2-0.1,0.4-0.2,0.6-0.2s0.4,0,0.6,0.1
		l-0.1,0.7c-0.1,0-0.3,0-0.4,0c-0.2,0-0.3,0.1-0.4,0.2c-0.1,0.1-0.1,0.3-0.1,0.6v0.4h0.8V26h-0.8v4.2L113.7,30.2L113.7,30.2z
		 M117.1,29.5c-0.1,0-0.2,0-0.3,0c-0.2,0-0.3-0.1-0.3-0.2c0-0.1-0.1-0.2-0.1-0.5V26h0.7v-0.6h-0.7v-1.7l-0.7,0.5v1.2h-0.5V26h0.5
		v2.8c0,0.5,0,0.8,0.1,1s0.2,0.3,0.3,0.4c0.1,0.1,0.3,0.1,0.6,0.1c0.1,0,0.3,0,0.5-0.1L117.1,29.5L117.1,29.5z M122.2,30.2v-6.7h0.7
		v6.7H122.2L122.2,30.2z M125.7,29.5l0.1,0.7c-0.2,0-0.4,0.1-0.5,0.1c-0.2,0-0.4,0-0.6-0.1c-0.1-0.1-0.2-0.2-0.3-0.4s-0.1-0.5-0.1-1
		V26h-0.5v-0.6h0.5v-1.2l0.7-0.5v1.7h0.7V26H125v2.8c0,0.3,0,0.4,0.1,0.5s0.2,0.2,0.3,0.2C125.3,29.5,125.5,29.5,125.7,29.5
		L125.7,29.5z M129,28.7l0.7,0.1c-0.1,0.5-0.3,0.9-0.6,1.2c-0.3,0.3-0.7,0.4-1.1,0.4c-0.6,0-1-0.2-1.4-0.6c-0.3-0.4-0.5-1-0.5-1.8
		s0.2-1.5,0.5-1.9c0.4-0.4,0.8-0.7,1.3-0.7c0.5,0,0.9,0.2,1.3,0.6c0.3,0.4,0.5,1.1,0.5,1.9v0.2h-3c0,0.5,0.2,0.9,0.4,1.2
		s0.5,0.4,0.8,0.4C128.5,29.7,128.7,29.3,129,28.7L129,28.7z M126.7,27.4h2.2c0-0.4-0.1-0.7-0.3-0.9c-0.2-0.3-0.5-0.4-0.8-0.4
		c-0.3,0-0.6,0.1-0.8,0.4C126.8,26.6,126.7,26.9,126.7,27.4L126.7,27.4z M130.5,30.2v-4.8h0.6v0.7c0.1-0.3,0.3-0.4,0.5-0.6
		c0.2-0.1,0.4-0.2,0.7-0.2c0.3,0,0.5,0.1,0.7,0.2c0.2,0.1,0.3,0.4,0.4,0.6c0.2-0.3,0.3-0.5,0.5-0.6c0.2-0.1,0.4-0.2,0.7-0.2
		c0.4,0,0.7,0.1,0.9,0.4c0.2,0.3,0.3,0.7,0.3,1.2v3.3h-0.7v-3c0-0.3,0-0.6-0.1-0.7c-0.1-0.1-0.1-0.3-0.2-0.3
		c-0.1-0.1-0.2-0.1-0.4-0.1c-0.3,0-0.5,0.1-0.7,0.3c-0.2,0.2-0.3,0.6-0.3,1.1v2.8h-0.7v-3.1c0-0.4-0.1-0.7-0.2-0.8
		c-0.1-0.2-0.3-0.2-0.5-0.2c-0.3,0-0.5,0.1-0.7,0.4c-0.2,0.2-0.3,0.7-0.3,1.4v2.5h-0.5V30.2z M141,28.1l0.7-0.1
		c0,0.4,0.1,0.7,0.2,0.9c0.1,0.2,0.3,0.4,0.6,0.5c0.2,0.1,0.5,0.2,0.8,0.2c0.4,0,0.8-0.1,1-0.3c0.2-0.2,0.4-0.5,0.4-0.8
		c0-0.2,0-0.4-0.1-0.5s-0.2-0.3-0.4-0.4c-0.2-0.1-0.6-0.2-1.1-0.4s-0.9-0.3-1.1-0.5c-0.2-0.2-0.4-0.3-0.5-0.6
		c-0.1-0.2-0.2-0.5-0.2-0.8c0-0.5,0.2-1,0.5-1.3c0.3-0.3,0.8-0.5,1.4-0.5c0.4,0,0.8,0.1,1.1,0.2c0.3,0.2,0.5,0.4,0.7,0.7
		c0.2,0.3,0.3,0.7,0.3,1.1l-0.7,0.1c0-0.4-0.2-0.8-0.4-1c-0.2-0.2-0.5-0.3-0.9-0.3s-0.7,0.1-0.9,0.3c-0.2,0.2-0.3,0.4-0.3,0.7
		s0.1,0.5,0.2,0.6c0.2,0.1,0.5,0.3,1.1,0.4c0.5,0.1,0.9,0.3,1.1,0.4c0.3,0.2,0.6,0.4,0.8,0.7c0.2,0.3,0.3,0.6,0.3,1s-0.1,0.7-0.3,1
		c-0.2,0.3-0.4,0.6-0.7,0.7c-0.3,0.2-0.7,0.2-1.1,0.2c-0.7,0-1.2-0.2-1.6-0.6C141.2,29.3,141,28.8,141,28.1L141,28.1z M146.2,32.1
		v-6.7h0.6V26c0.2-0.3,0.3-0.4,0.5-0.6c0.2-0.1,0.4-0.2,0.6-0.2c0.3,0,0.6,0.1,0.8,0.3c0.3,0.2,0.5,0.5,0.6,0.8
		c0.2,0.4,0.2,0.8,0.2,1.4c0,0.8-0.2,1.5-0.5,1.9c-0.3,0.4-0.7,0.7-1.2,0.7c-0.2,0-0.4-0.1-0.6-0.2c-0.2-0.1-0.3-0.3-0.5-0.4V32
		h-0.5V32.1z M146.7,27.9c0,0.6,0.1,1.1,0.3,1.4c0.2,0.3,0.5,0.4,0.8,0.4c0.3,0,0.5-0.2,0.8-0.5c0.2-0.3,0.3-0.8,0.3-1.4
		c0-0.6-0.1-1.1-0.3-1.4c-0.2-0.3-0.5-0.5-0.8-0.5c-0.3,0-0.5,0.2-0.7,0.5C146.8,26.8,146.7,27.2,146.7,27.9L146.7,27.9z
		 M153.2,28.7l0.7,0.1c-0.1,0.5-0.3,0.9-0.6,1.2c-0.3,0.3-0.7,0.4-1.1,0.4c-0.6,0-1-0.2-1.4-0.6c-0.3-0.4-0.5-1-0.5-1.8
		s0.2-1.5,0.5-1.9c0.4-0.4,0.8-0.7,1.3-0.7s0.9,0.2,1.3,0.6c0.3,0.4,0.5,1.1,0.5,1.9v0.2h-3c0,0.5,0.2,0.9,0.4,1.2
		c0.2,0.3,0.5,0.4,0.8,0.4C152.6,29.7,153,29.3,153.2,28.7L153.2,28.7z M151,27.4h2.2c0-0.4-0.1-0.7-0.3-0.9
		c-0.2-0.3-0.5-0.4-0.8-0.4c-0.3,0-0.6,0.1-0.8,0.4C151.1,26.6,151,26.9,151,27.4L151,27.4z M157.2,28.5l0.7,0.1
		c-0.1,0.6-0.3,1-0.6,1.3c-0.3,0.3-0.7,0.5-1.1,0.5c-0.5,0-0.9-0.2-1.3-0.6c-0.3-0.4-0.5-1.1-0.5-1.9c0-0.8,0.2-1.5,0.5-1.9
		c0.3-0.4,0.8-0.6,1.3-0.6c0.4,0,0.8,0.1,1,0.4c0.3,0.3,0.5,0.6,0.5,1.1l-0.6,0.1c-0.1-0.3-0.2-0.6-0.3-0.7
		c-0.2-0.2-0.3-0.2-0.6-0.2c-0.3,0-0.6,0.1-0.8,0.4c-0.2,0.3-0.3,0.8-0.3,1.4c0,0.7,0.1,1.1,0.3,1.4c0.2,0.3,0.5,0.4,0.8,0.4
		c0.3,0,0.5-0.1,0.7-0.3C157.2,29.2,157.2,28.9,157.2,28.5L157.2,28.5z M158.5,24.5v-0.9h0.7v0.9H158.5L158.5,24.5z M158.5,30.2
		v-4.8h0.7v4.8H158.5L158.5,30.2z M162.7,29.6c-0.2,0.2-0.5,0.4-0.7,0.5c-0.2,0.1-0.5,0.2-0.8,0.2c-0.4,0-0.7-0.1-1-0.4
		c-0.2-0.2-0.4-0.6-0.4-1c0-0.3,0.1-0.5,0.2-0.7c0.1-0.2,0.3-0.4,0.5-0.5c0.2-0.1,0.5-0.2,0.9-0.3c0.5-0.1,0.9-0.2,1.2-0.3v-0.2
		c0-0.3-0.1-0.6-0.2-0.7c-0.2-0.2-0.4-0.3-0.8-0.3c-0.3,0-0.5,0.1-0.7,0.2c-0.2,0.1-0.3,0.4-0.3,0.7l-0.7-0.1
		c0.1-0.5,0.3-0.9,0.6-1.1c0.3-0.2,0.7-0.4,1.2-0.4c0.4,0,0.7,0.1,1,0.2c0.2,0.2,0.4,0.3,0.4,0.6c0.1,0.2,0.1,0.6,0.1,1v1.1
		c0,0.8,0,1.2,0,1.4s0.1,0.4,0.2,0.6h-0.7C162.8,30.1,162.7,29.9,162.7,29.6L162.7,29.6z M162.7,27.8c-0.2,0.1-0.6,0.2-1.1,0.3
		c-0.3,0-0.5,0.1-0.6,0.2c-0.1,0.1-0.2,0.1-0.3,0.3c-0.1,0.1-0.1,0.2-0.1,0.4s0.1,0.4,0.2,0.6c0.1,0.1,0.3,0.2,0.6,0.2
		c0.2,0,0.5-0.1,0.7-0.2c0.2-0.1,0.3-0.3,0.4-0.5c0.1-0.2,0.1-0.5,0.1-0.9v-0.4C162.6,27.8,162.7,27.8,162.7,27.8z M164.5,30.2v-6.7
		h0.7v6.7H164.5L164.5,30.2z M166.2,24.5v-0.9h0.7v0.9H166.2L166.2,24.5z M166.2,30.2v-4.8h0.7v4.8H166.2L166.2,30.2z M167.6,28.8
		l0.7-0.1c0,0.3,0.1,0.6,0.3,0.8c0.2,0.2,0.4,0.2,0.7,0.2c0.3,0,0.5-0.1,0.7-0.2c0.2-0.1,0.2-0.3,0.2-0.5s-0.1-0.3-0.2-0.4
		c-0.1-0.1-0.3-0.2-0.7-0.3c-0.5-0.2-0.9-0.3-1-0.4c-0.2-0.1-0.3-0.3-0.4-0.4c-0.1-0.2-0.1-0.4-0.1-0.6c0-0.4,0.1-0.7,0.4-1
		s0.6-0.4,1.1-0.4c0.3,0,0.6,0.1,0.8,0.2c0.2,0.1,0.4,0.2,0.5,0.4s0.2,0.4,0.2,0.8l-0.7,0.1c-0.1-0.5-0.3-0.8-0.9-0.8
		c-0.3,0-0.5,0.1-0.7,0.2c-0.1,0.1-0.2,0.3-0.2,0.4c0,0.2,0.1,0.3,0.2,0.4c0.1,0.1,0.3,0.2,0.7,0.3c0.6,0.2,0.9,0.3,1.1,0.4
		c0.2,0.1,0.3,0.2,0.4,0.4c0.1,0.2,0.1,0.4,0.1,0.6c0,0.5-0.1,0.8-0.4,1.1s-0.7,0.4-1.2,0.4C168.2,30.3,167.7,29.8,167.6,28.8
		L167.6,28.8z M173.2,29.5l0.1,0.7c-0.2,0-0.4,0.1-0.5,0.1c-0.2,0-0.4,0-0.6-0.1c-0.1-0.1-0.2-0.2-0.3-0.4s-0.1-0.5-0.1-1V26h-0.6
		v-0.6h0.5v-1.2l0.7-0.5v1.7h0.7V26h-0.7v2.8c0,0.3,0,0.4,0.1,0.5s0.2,0.2,0.3,0.2S173.1,29.5,173.2,29.5L173.2,29.5z M106.1,41.3
		v-6.7h3.7v0.8h-3v2.1h2.6v0.8h-2.6v3H106.1L106.1,41.3z M113.1,41.3v-0.7c-0.2,0.3-0.3,0.5-0.5,0.6s-0.4,0.2-0.7,0.2
		s-0.6-0.1-0.8-0.3s-0.4-0.4-0.4-0.6c-0.1-0.3-0.1-0.6-0.1-1.1v-3h0.7v2.7c0,0.5,0,0.8,0.1,1c0,0.2,0.1,0.3,0.3,0.4
		c0.1,0.1,0.3,0.2,0.5,0.2c0.3,0,0.6-0.1,0.8-0.4c0.2-0.2,0.3-0.6,0.3-1.2v-2.6h0.7v4.8H113.1L113.1,41.3z M114.7,41.3v-4.8h0.6v0.7
		c0.2-0.3,0.3-0.6,0.4-0.7c0.1-0.1,0.3-0.2,0.4-0.2c0.2,0,0.5,0.1,0.7,0.3l-0.2,0.8c-0.2-0.1-0.3-0.2-0.5-0.2
		c-0.1,0-0.3,0.1-0.4,0.2c-0.1,0.1-0.2,0.2-0.2,0.4c-0.1,0.3-0.1,0.6-0.1,1v2.5H114.7L114.7,41.3z M117.3,41.3v-4.8h0.6v0.7
		c0.1-0.3,0.3-0.5,0.5-0.6s0.5-0.2,0.7-0.2s0.4,0,0.6,0.1c0.2,0.1,0.3,0.2,0.4,0.3c0.1,0.1,0.2,0.3,0.2,0.5c0.1,0.2,0.1,0.5,0.1,1v3
		h-0.7v-2.9c0-0.4,0-0.6-0.1-0.8s-0.2-0.3-0.3-0.4c-0.1-0.1-0.3-0.1-0.4-0.1c-0.3,0-0.6,0.1-0.8,0.4c-0.2,0.2-0.3,0.6-0.3,1.2v2.6
		H117.3L117.3,41.3z M121.6,35.6v-0.9h0.7v0.9H121.6L121.6,35.6z M121.6,41.3v-4.8h0.7v4.8H121.6L121.6,41.3z M123.1,39.8l0.7-0.1
		c0,0.3,0.1,0.6,0.3,0.8s0.4,0.2,0.7,0.2s0.5-0.1,0.7-0.2c0.2-0.1,0.2-0.3,0.2-0.5s-0.1-0.3-0.2-0.4c-0.1-0.1-0.3-0.2-0.7-0.3
		c-0.5-0.2-0.9-0.3-1-0.4c-0.2-0.1-0.3-0.3-0.4-0.4c-0.1-0.2-0.1-0.4-0.1-0.6c0-0.4,0.1-0.7,0.4-1c0.3-0.3,0.6-0.4,1.1-0.4
		c0.3,0,0.6,0.1,0.8,0.2c0.2,0.1,0.4,0.2,0.5,0.4s0.2,0.4,0.2,0.8l-0.7,0.1c-0.1-0.5-0.3-0.8-0.9-0.8c-0.3,0-0.5,0.1-0.6,0.2
		c-0.1,0.1-0.2,0.3-0.2,0.4c0,0.2,0.1,0.3,0.2,0.4c0.1,0.1,0.3,0.2,0.7,0.3c0.6,0.2,0.9,0.3,1.1,0.4c0.2,0.1,0.3,0.2,0.4,0.4
		c0.1,0.2,0.1,0.4,0.1,0.6c0,0.5-0.1,0.8-0.4,1.1s-0.7,0.4-1.2,0.4C123.7,41.4,123.2,40.9,123.1,39.8L123.1,39.8z M127.1,41.3v-6.7
		h0.7V37c0.2-0.2,0.3-0.4,0.5-0.5c0.2-0.1,0.4-0.2,0.7-0.2c0.4,0,0.8,0.1,1,0.4c0.2,0.3,0.4,0.8,0.4,1.5v3.1h-0.7v-3.1
		c0-0.4-0.1-0.7-0.2-0.9s-0.4-0.3-0.6-0.3c-0.3,0-0.5,0.1-0.7,0.3c-0.2,0.2-0.3,0.6-0.3,1.2v2.8H127.1L127.1,41.3z M131.3,35.6v-0.9
		h0.7v0.9H131.3L131.3,35.6z M131.3,41.3v-4.8h0.7v4.8H131.3L131.3,41.3z M133.1,41.3v-4.8h0.6v0.7c0.1-0.3,0.3-0.5,0.5-0.6
		c0.2-0.1,0.5-0.2,0.7-0.2c0.2,0,0.4,0,0.6,0.1s0.3,0.2,0.4,0.3s0.2,0.3,0.2,0.5c0.1,0.2,0.1,0.5,0.1,1v3h-0.7v-2.9
		c0-0.4,0-0.6-0.1-0.8s-0.2-0.3-0.3-0.4c-0.1-0.1-0.3-0.1-0.4-0.1c-0.3,0-0.6,0.1-0.8,0.4c-0.2,0.2-0.3,0.6-0.3,1.2v2.6H133.1
		L133.1,41.3z M137.2,41.7l0.7,0.1c0,0.3,0.1,0.4,0.3,0.6c0.2,0.1,0.4,0.2,0.6,0.2c0.3,0,0.5-0.1,0.7-0.2c0.2-0.1,0.3-0.3,0.4-0.6
		c0-0.2,0.1-0.5,0.1-1.1c-0.1,0.2-0.3,0.4-0.5,0.5c-0.2,0.1-0.4,0.2-0.6,0.2c-0.5,0-0.9-0.2-1.2-0.6c-0.4-0.5-0.5-1.1-0.5-1.8
		c0-0.5,0.1-1,0.2-1.4c0.2-0.4,0.4-0.7,0.6-0.9c0.3-0.2,0.5-0.3,0.9-0.3c0.2,0,0.4,0.1,0.6,0.2c0.2,0.1,0.4,0.3,0.5,0.5v-0.6h0.6
		v4.2c0,0.7-0.1,1.3-0.2,1.6s-0.3,0.6-0.6,0.7c-0.3,0.2-0.6,0.3-1,0.3c-0.5,0-0.9-0.1-1.2-0.4C137.3,42.6,137.2,42.2,137.2,41.7
		L137.2,41.7z M137.7,38.8c0,0.6,0.1,1.1,0.3,1.4c0.2,0.3,0.5,0.4,0.8,0.4c0.3,0,0.6-0.1,0.8-0.4c0.2-0.3,0.3-0.7,0.3-1.4
		c0-0.6-0.1-1.1-0.3-1.3c-0.2-0.3-0.5-0.4-0.8-0.4c-0.3,0-0.5,0.1-0.7,0.4C137.8,37.8,137.7,38.2,137.7,38.8L137.7,38.8z
		 M141.2,39.8l0.7-0.1c0,0.3,0.1,0.6,0.3,0.8c0.2,0.2,0.4,0.2,0.7,0.2c0.3,0,0.5-0.1,0.7-0.2c0.2-0.1,0.2-0.3,0.2-0.5
		s-0.1-0.3-0.2-0.4c-0.1-0.1-0.3-0.2-0.7-0.3c-0.5-0.2-0.9-0.3-1-0.4c-0.2-0.1-0.3-0.3-0.4-0.4c-0.1-0.2-0.1-0.4-0.1-0.6
		c0-0.4,0.1-0.7,0.4-1s0.6-0.4,1.1-0.4c0.3,0,0.6,0.1,0.8,0.2c0.2,0.1,0.4,0.2,0.5,0.4s0.2,0.4,0.2,0.8l-0.7,0.1
		c-0.1-0.5-0.3-0.8-0.9-0.8c-0.3,0-0.5,0.1-0.6,0.2c-0.1,0.1-0.2,0.3-0.2,0.4c0,0.2,0.1,0.3,0.2,0.4c0.1,0.1,0.3,0.2,0.7,0.3
		c0.6,0.2,0.9,0.3,1.1,0.4c0.2,0.1,0.3,0.2,0.4,0.4c0.1,0.2,0.1,0.4,0.1,0.6c0,0.5-0.1,0.8-0.4,1.1c-0.3,0.3-0.7,0.4-1.2,0.4
		C142,41.4,141.5,40.9,141.2,39.8L141.2,39.8z M106,52.3v-6.7h3.9v0.8h-3.2v2h3v0.9h-3v2.3h3.4v0.7H106L106,52.3z M110.6,52.3
		l1.4-2.5l-1.3-2.3h0.8l0.6,1.1c0.1,0.2,0.2,0.4,0.3,0.5c0.1-0.2,0.2-0.4,0.3-0.5l0.7-1.1h0.8l-1.4,2.3l1.5,2.5h-0.8l-0.8-1.5
		l-0.2-0.4l-1,1.9L110.6,52.3L110.6,52.3z M116.2,51.6l0.1,0.7c-0.2,0-0.4,0.1-0.5,0.1c-0.2,0-0.4,0-0.6-0.1
		c-0.1-0.1-0.2-0.2-0.3-0.4c-0.1-0.2-0.1-0.5-0.1-1v-2.8h-0.5v-0.6h0.5v-1.2l0.7-0.5v1.7h0.7v0.6h-0.7v2.8c0,0.3,0,0.4,0.1,0.5
		s0.2,0.2,0.3,0.2C116.1,51.6,116.1,51.6,116.2,51.6L116.2,51.6z M119.6,50.8l0.7,0.1c-0.1,0.5-0.3,0.9-0.6,1.2
		c-0.3,0.3-0.7,0.4-1.1,0.4c-0.6,0-1-0.2-1.4-0.6c-0.3-0.4-0.5-1-0.5-1.8s0.2-1.5,0.5-1.9c0.4-0.4,0.8-0.7,1.3-0.7s0.9,0.2,1.3,0.6
		c0.3,0.4,0.5,1.1,0.5,1.9v0.2h-3c0,0.5,0.2,0.9,0.4,1.2c0.2,0.3,0.5,0.4,0.8,0.4C119.1,51.8,119.5,51.4,119.6,50.8L119.6,50.8z
		 M117.5,49.5h2.2c0-0.4-0.1-0.7-0.3-0.9c-0.2-0.3-0.5-0.4-0.8-0.4s-0.6,0.1-0.8,0.4C117.6,48.7,117.5,49,117.5,49.5L117.5,49.5z
		 M121.2,52.3v-4.8h0.6v0.7c0.2-0.3,0.3-0.6,0.4-0.7c0.1-0.1,0.3-0.2,0.4-0.2c0.2,0,0.5,0.1,0.7,0.3l-0.2,0.8
		c-0.2-0.1-0.3-0.2-0.5-0.2c-0.1,0-0.3,0.1-0.4,0.2c-0.1,0.1-0.2,0.2-0.2,0.4c-0.1,0.3-0.1,0.6-0.1,1v2.5H121.2L121.2,52.3z
		 M123.7,46.6v-0.9h0.7v0.9H123.7L123.7,46.6z M123.7,52.3v-4.8h0.7v4.8H123.7L123.7,52.3z M125.2,49.9c0-0.8,0.2-1.5,0.5-1.9
		s0.8-0.6,1.3-0.6s1,0.2,1.3,0.6c0.4,0.4,0.5,1,0.5,1.8c0,0.9-0.2,1.5-0.5,1.9c-0.3,0.4-0.8,0.6-1.3,0.6s-1-0.2-1.3-0.6
		C125.3,51.4,125.2,50.8,125.2,49.9L125.2,49.9z M125.8,49.9c0,0.6,0.1,1.1,0.3,1.4s0.5,0.5,0.8,0.5s0.6-0.2,0.8-0.5
		s0.3-0.8,0.3-1.4s-0.1-1.1-0.3-1.4c-0.2-0.3-0.5-0.5-0.8-0.5s-0.6,0.2-0.8,0.5C126,48.8,125.8,49.3,125.8,49.9L125.8,49.9z
		 M129.7,52.3v-4.8h0.6v0.7c0.2-0.3,0.3-0.6,0.4-0.7c0.1-0.1,0.3-0.2,0.4-0.2c0.2,0,0.5,0.1,0.7,0.3l-0.2,0.8
		c-0.2-0.1-0.3-0.2-0.5-0.2c-0.1,0-0.3,0.1-0.4,0.2c-0.1,0.1-0.2,0.2-0.2,0.4c-0.1,0.3-0.1,0.6-0.1,1v2.5H129.7L129.7,52.3z
		 M139.6,51.5c-0.4,0.6-1,0.9-1.6,0.9c-0.5,0-1-0.2-1.3-0.6c-0.3-0.4-0.5-0.9-0.5-1.3c0-0.8,0.4-1.5,1.3-2c-0.2-0.3-0.4-0.6-0.5-0.8
		s-0.1-0.4-0.1-0.6c0-0.4,0.1-0.8,0.4-1.1s0.6-0.4,1-0.4s0.7,0.1,0.9,0.4c0.2,0.3,0.4,0.6,0.4,1c0,0.6-0.3,1.2-1,1.6l1,1.5
		c0.1-0.3,0.2-0.6,0.3-0.9l0.7,0.2c-0.1,0.6-0.3,1.1-0.5,1.4c0.2,0.4,0.5,0.7,0.8,1l-0.4,0.6C140.2,52.3,139.8,52,139.6,51.5
		L139.6,51.5z M138.2,48.1c0.3-0.2,0.5-0.4,0.6-0.5c0.1-0.2,0.1-0.3,0.1-0.5s-0.1-0.4-0.2-0.6c-0.1-0.1-0.3-0.2-0.4-0.2
		c-0.2,0-0.3,0.1-0.4,0.2c-0.1,0.1-0.2,0.3-0.2,0.5s0.1,0.4,0.3,0.7L138.2,48.1L138.2,48.1z M139.2,50.9L138,49
		c-0.3,0.3-0.6,0.5-0.7,0.7s-0.2,0.5-0.2,0.7c0,0.3,0.1,0.6,0.3,0.9c0.2,0.3,0.4,0.4,0.7,0.4c0.2,0,0.4-0.1,0.6-0.2
		C138.8,51.4,139,51.2,139.2,50.9L139.2,50.9z M146,52.3v-6.7h0.7v6.7H146L146,52.3z M147.8,52.3v-4.8h0.6v0.7
		c0.1-0.3,0.3-0.5,0.5-0.6c0.2-0.1,0.5-0.2,0.7-0.2c0.2,0,0.4,0,0.6,0.1c0.2,0.1,0.3,0.2,0.4,0.3c0.1,0.1,0.2,0.3,0.2,0.5
		c0.1,0.2,0.1,0.5,0.1,1v3h-0.7v-2.9c0-0.4,0-0.6-0.1-0.8c-0.1-0.2-0.2-0.3-0.3-0.4c-0.1-0.1-0.3-0.1-0.4-0.1
		c-0.3,0-0.6,0.1-0.8,0.4c-0.2,0.2-0.3,0.6-0.3,1.2v2.6H147.8L147.8,52.3z M153.7,51.6l0.1,0.7c-0.2,0-0.4,0.1-0.5,0.1
		c-0.2,0-0.4,0-0.6-0.1c-0.1-0.1-0.2-0.2-0.3-0.4c-0.1-0.2-0.1-0.5-0.1-1v-2.8h-0.5v-0.6h0.5v-1.2l0.7-0.5v1.7h0.7v0.6H153v2.8
		c0,0.3,0,0.4,0.1,0.5s0.2,0.2,0.3,0.2C153.3,51.6,153.5,51.6,153.7,51.6L153.7,51.6z M157,50.8l0.7,0.1c-0.1,0.5-0.3,0.9-0.6,1.2
		c-0.3,0.3-0.7,0.4-1.1,0.4c-0.6,0-1-0.2-1.4-0.6c-0.3-0.4-0.5-1-0.5-1.8s0.2-1.5,0.5-1.9c0.4-0.4,0.8-0.7,1.3-0.7s0.9,0.2,1.3,0.6
		c0.3,0.4,0.5,1.1,0.5,1.9v0.2h-3c0,0.5,0.2,0.9,0.4,1.2c0.2,0.3,0.5,0.4,0.8,0.4C156.3,51.8,156.7,51.4,157,50.8L157,50.8z
		 M154.7,49.5h2.2c0-0.4-0.1-0.7-0.3-0.9c-0.2-0.3-0.5-0.4-0.8-0.4c-0.3,0-0.6,0.1-0.8,0.4C154.8,48.7,154.7,49,154.7,49.5
		L154.7,49.5z M158.5,52.3v-4.8h0.6v0.7c0.2-0.3,0.3-0.6,0.4-0.7c0.1-0.1,0.3-0.2,0.4-0.2c0.2,0,0.5,0.1,0.7,0.3l-0.2,0.8
		c-0.2-0.1-0.3-0.2-0.5-0.2c-0.1,0-0.3,0.1-0.4,0.2c-0.1,0.1-0.2,0.2-0.2,0.4c-0.1,0.3-0.1,0.6-0.1,1v2.5H158.5L158.5,52.3z
		 M161.1,46.6v-0.9h0.7v0.9H161.1L161.1,46.6z M161.1,52.3v-4.8h0.7v4.8H161.1L161.1,52.3z M162.5,49.9c0-0.8,0.2-1.5,0.5-1.9
		c0.3-0.4,0.8-0.6,1.3-0.6s1,0.2,1.3,0.6c0.4,0.4,0.5,1,0.5,1.8c0,0.9-0.2,1.5-0.5,1.9c-0.3,0.4-0.8,0.6-1.3,0.6s-1-0.2-1.3-0.6
		C162.7,51.4,162.5,50.8,162.5,49.9L162.5,49.9z M163.2,49.9c0,0.6,0.1,1.1,0.3,1.4c0.2,0.3,0.5,0.5,0.8,0.5c0.3,0,0.6-0.2,0.8-0.5
		c0.2-0.3,0.3-0.8,0.3-1.4s-0.1-1.1-0.3-1.4c-0.2-0.3-0.5-0.5-0.8-0.5c-0.3,0-0.6,0.2-0.8,0.5C163.2,48.8,163.2,49.3,163.2,49.9
		L163.2,49.9z M167,52.3v-4.8h0.6v0.7c0.2-0.3,0.3-0.6,0.4-0.7c0.1-0.1,0.3-0.2,0.4-0.2c0.2,0,0.5,0.1,0.7,0.3l-0.2,0.8
		c-0.2-0.1-0.3-0.2-0.5-0.2c-0.1,0-0.3,0.1-0.4,0.2c-0.1,0.1-0.2,0.2-0.2,0.4c-0.1,0.3-0.1,0.6-0.1,1v2.5H167z"/>
	<path d="M173.8,52.3v-6.7h1.9c0.5,0,0.8,0,1.1,0.1c0.3,0.1,0.6,0.3,0.8,0.6c0.2,0.3,0.4,0.6,0.5,1.1c0.1,0.4,0.2,0.9,0.2,1.5
		c0,0.8-0.1,1.4-0.3,1.9c-0.2,0.5-0.5,0.9-0.9,1.1c-0.3,0.2-0.8,0.3-1.4,0.3h-1.9L173.8,52.3L173.8,52.3z M174.6,51.5h1.2
		c0.5,0,0.8-0.1,1.1-0.2c0.2-0.2,0.4-0.4,0.6-0.7c0.2-0.5,0.3-1,0.3-1.6c0-0.7-0.1-1.2-0.3-1.6c-0.2-0.4-0.4-0.6-0.7-0.8
		c-0.2-0.1-0.5-0.1-0.9-0.1h-1.1v5L174.6,51.5L174.6,51.5z M182,50.8l0.7,0.1c-0.1,0.5-0.3,0.9-0.6,1.2c-0.3,0.3-0.7,0.4-1.1,0.4
		c-0.6,0-1-0.2-1.4-0.6c-0.3-0.4-0.5-1-0.5-1.8s0.2-1.5,0.5-1.9c0.4-0.4,0.8-0.7,1.3-0.7s0.9,0.2,1.3,0.6c0.3,0.4,0.5,1.1,0.5,1.9
		v0.2h-3c0,0.5,0.2,0.9,0.4,1.2c0.2,0.3,0.5,0.4,0.8,0.4C181.5,51.8,181.7,51.4,182,50.8L182,50.8z M179.7,49.5h2.2
		c0-0.4-0.1-0.7-0.3-0.9c-0.2-0.3-0.5-0.4-0.8-0.4c-0.3,0-0.6,0.1-0.8,0.4C179.8,48.7,179.7,49,179.7,49.5L179.7,49.5z M183.2,50.9
		l0.7-0.1c0,0.3,0.1,0.6,0.3,0.8c0.2,0.2,0.4,0.2,0.7,0.2c0.3,0,0.5-0.1,0.7-0.2c0.2-0.1,0.2-0.3,0.2-0.5s-0.1-0.3-0.2-0.4
		c-0.1-0.1-0.3-0.2-0.7-0.3c-0.5-0.2-0.9-0.3-1-0.4c-0.2-0.1-0.3-0.3-0.4-0.4c-0.1-0.2-0.1-0.4-0.1-0.6c0-0.4,0.1-0.7,0.4-1
		s0.6-0.4,1.1-0.4c0.3,0,0.6,0.1,0.8,0.2c0.2,0.1,0.4,0.2,0.5,0.4s0.2,0.4,0.2,0.8l-0.7,0.1c-0.1-0.5-0.3-0.8-0.9-0.8
		c-0.3,0-0.5,0.1-0.7,0.2c-0.1,0.1-0.2,0.3-0.2,0.4c0,0.2,0.1,0.3,0.2,0.4c0.1,0.1,0.3,0.2,0.7,0.3c0.6,0.2,0.9,0.3,1.1,0.4
		s0.3,0.2,0.4,0.4c0.1,0.2,0.1,0.4,0.1,0.6c0,0.5-0.1,0.8-0.4,1.1c-0.3,0.3-0.7,0.4-1.2,0.4C184,52.4,183.3,51.9,183.2,50.9
		L183.2,50.9z M187.3,46.6v-0.9h0.7v0.9H187.3L187.3,46.6z M187.3,52.3v-4.8h0.7v4.8H187.3L187.3,52.3z M188.8,52.7l0.7,0.1
		c0,0.3,0.1,0.4,0.3,0.6c0.2,0.1,0.4,0.2,0.6,0.2c0.3,0,0.5-0.1,0.7-0.2c0.2-0.1,0.3-0.3,0.4-0.6c0-0.2,0.1-0.5,0.1-1.1
		c-0.1,0.2-0.3,0.4-0.5,0.5c-0.2,0.1-0.4,0.2-0.6,0.2c-0.5,0-0.9-0.2-1.2-0.6c-0.4-0.5-0.5-1.1-0.5-1.8c0-0.5,0.1-1,0.2-1.4
		c0.2-0.4,0.4-0.7,0.6-0.9c0.3-0.2,0.5-0.3,0.9-0.3c0.2,0,0.4,0.1,0.6,0.2c0.2,0.1,0.4,0.3,0.5,0.5v-0.6h0.6v4.2
		c0,0.7-0.1,1.3-0.2,1.6c-0.1,0.3-0.3,0.6-0.6,0.7c-0.3,0.2-0.6,0.3-1,0.3c-0.5,0-0.9-0.1-1.2-0.4C189.1,53.6,188.8,53.2,188.8,52.7
		L188.8,52.7z M189.5,49.8c0,0.6,0.1,1.1,0.3,1.4c0.2,0.3,0.5,0.4,0.8,0.4c0.3,0,0.6-0.1,0.8-0.4c0.2-0.3,0.3-0.7,0.3-1.4
		c0-0.6-0.1-1.1-0.3-1.3c-0.2-0.3-0.5-0.4-0.8-0.4c-0.3,0-0.5,0.1-0.7,0.4C189.6,48.8,189.5,49.3,189.5,49.8L189.5,49.8z
		 M193.2,52.3v-4.8h0.6v0.7c0.1-0.3,0.3-0.5,0.5-0.6c0.2-0.1,0.5-0.2,0.7-0.2c0.2,0,0.4,0,0.6,0.1c0.2,0.1,0.3,0.2,0.4,0.3
		c0.1,0.1,0.2,0.3,0.2,0.5c0.1,0.2,0.1,0.5,0.1,1v3h-0.7v-2.9c0-0.4,0-0.6-0.1-0.8c-0.1-0.2-0.2-0.3-0.3-0.4
		c-0.1-0.1-0.3-0.1-0.4-0.1c-0.3,0-0.6,0.1-0.8,0.4c-0.2,0.2-0.3,0.6-0.3,1.2v2.6H193.2z"/>
	<rect x="101.1" y="22.9" width="0.2" height="31.7"/>
	<path d="M96,21.8c-2,0-3.6-1.6-3.6-3.6s1.6-3.6,3.6-3.6s3.6,1.6,3.6,3.6S98,21.8,96,21.8z M96,15c-1.8,0-3.2,1.4-3.2,3.2
		s1.4,3.2,3.2,3.2s3.2-1.4,3.2-3.2S97.6,15,96,15z"/>
	<path d="M94.5,19.4v-2.2h-0.8v-0.3h1.9v0.3h-0.8v2.2H94.5L94.5,19.4z M96,19.4V17h0.5l0.6,1.7c0.1,0.2,0.1,0.3,0.1,0.4
		c0-0.1,0.1-0.2,0.1-0.4l0.6-1.7h0.4v2.4H98v-2l-0.7,2H97l-0.8-2.1v2.1H96z"/>
</g>
<image style="overflow:visible;" width="110" height="58" xlink:href="45325D4F.jpg"  transform="matrix(1 0 0 1 263.2 -198.81)">
</image>
</svg>
