<?xml version="1.0" encoding="utf-8"?>
<!-- Generator: Adobe Illustrator 21.0.0, SVG Export Plug-In . SVG Version: 6.00 Build 0)  -->
<svg version="1.1" id="Layer_1" xmlns="http://www.w3.org/2000/svg" xmlns:xlink="http://www.w3.org/1999/xlink" x="0px" y="0px"
	 viewBox="0 0 290 100" style="enable-background:new 0 0 290 100;" xml:space="preserve">
<style type="text/css">
	.st0{fill:#FFFFFF;}
</style>
<g>
	<g>
		<path class="st0" d="M74.8,72.8L74.8,72.8c-0.2-0.2-0.2-0.2-0.3-0.2c-0.1,0-0.1,0-0.2,0l0,0c-0.1,0-0.1,0-0.2,0.1
			c-0.1,0-0.2,0.1-0.2,0.2l-0.7,0.7l0.8,0.8l0.6-0.6c0.1-0.1,0.1-0.1,0.2-0.2c0-0.1,0.1-0.1,0.1-0.2l0,0c0-0.1,0-0.1,0-0.2
			s0-0.1,0-0.2C74.9,72.9,74.8,72.9,74.8,72.8z"/>
		<path class="st0" d="M67.3,78C67.3,77.9,67.2,77.9,67.3,78l-0.2-0.2c0,0-0.1,0-0.2,0l0,0h-0.1c-0.1,0-0.1,0-0.2,0.1l-0.7,0.3
			l0.5,1.1l0.7-0.3c0.1,0,0.2-0.1,0.3-0.2l0,0c0.1-0.1,0.1-0.1,0.2-0.2c0-0.1,0-0.1,0-0.2s0-0.2-0.1-0.3
			C67.3,78.1,67.3,78.1,67.3,78z"/>
		<path class="st0" d="M62.1,80.1c0-0.1,0-0.1,0-0.2s0-0.1,0-0.2s0-0.2-0.1-0.2c0-0.1-0.1-0.1-0.1-0.2l0,0c-0.1,0-0.1-0.1-0.2-0.1
			c-0.1,0-0.2,0-0.3,0l-0.9,0.2l0.2,1.1l0.8-0.1c0.1,0,0.2,0,0.2-0.1c0.1,0,0.1,0,0.2-0.1l0,0L62.1,80.1
			C62.1,80.3,62.1,80.1,62.1,80.1z"/>
		<path class="st0" d="M75.9,70.8c-0.1,0-0.1,0-0.2-0.1C75.8,70.8,75.8,70.9,75.9,70.8c0,0.2,0.1,0.3,0.2,0.4l0,0l0.6,0.9l0.6-0.8
			l-1-0.3C76.2,70.9,76,70.9,75.9,70.8z"/>
		<path class="st0" d="M53.3,79.6c0.1-0.1,0.1-0.1,0.1-0.2s0-0.1,0-0.2s0-0.1,0-0.2s0-0.1-0.1-0.2l0,0l-0.1-0.1c0,0-0.1,0-0.1-0.1
			c-0.1,0-0.1-0.1-0.2-0.1l-0.7-0.3l-0.4,1.2l0.7,0.3c0.1,0,0.2,0.1,0.3,0.1s0.2,0,0.2,0C53.2,79.8,53.3,79.8,53.3,79.6z"/>
		<path class="st0" d="M49.9,77.8c0-0.1,0-0.1,0-0.2l0,0c0-0.1-0.1-0.1-0.1-0.2c-0.1-0.1-0.1-0.1-0.2-0.2l-0.8-0.5l-0.5,1l0.8,0.4
			c0.1,0,0.2,0.1,0.2,0.1c0.1,0,0.1,0,0.2,0l0,0c0.1,0,0.1,0,0.2,0c0,0,0.1,0,0.1-0.1l0.1-0.1l0.1-0.1
			C49.9,77.8,49.9,77.8,49.9,77.8z"/>
		<path class="st0" d="M55,79.4c0-0.1,0-0.1,0-0.2C54.9,79.3,54.9,79.3,55,79.4c-0.1,0.1-0.2,0.2-0.3,0.3l0,0l-0.5,0.9l0.9,0.2
			l-0.1-1C55,79.6,55,79.5,55,79.4z"/>
		<path class="st0" d="M78.3,68.5c0-0.1-0.1-0.1-0.1-0.2c-0.1-0.1-0.1-0.1-0.2-0.2c-0.1,0-0.1-0.1-0.2-0.1s-0.1,0-0.2,0
			c-0.1,0-0.1,0-0.2,0c0,0-0.1,0-0.1,0.1l0,0l-0.1,0.1c0,0.1-0.1,0.1-0.1,0.2l0,0l-0.4,0.7l1.1,0.6l0.4-0.7c0.1-0.1,0.1-0.2,0.1-0.3
			C78.3,68.8,78.3,68.6,78.3,68.5z"/>
		<path class="st0" d="M43.8,73.4L43.8,73.4l-1,0.5l0.7,0.7l0.5-0.9c0.1-0.1,0.2-0.3,0.2-0.4s0.1-0.1,0.1-0.1
			c-0.1,0-0.1,0.1-0.2,0.1C44,73.3,43.9,73.3,43.8,73.4z"/>
		<path class="st0" d="M87.1,61.3c4.5-4.4,3.2-9.4-0.8-10.1c2.4,1.7,1.1,4.8-1.8,4.4c-1.3-0.2-2-1.9-3.6-0.8
			c-0.8,4.2-2.3,8.2-4.5,11.8c-3,5-7.6,9.3-13.4,10.6c-1.3,0.3-2.5,0.4-3.8,0.4s-2.6-0.2-3.8-0.4C49.6,75.9,45,71.6,42,66.8
			c-2.2-3.6-3.7-7.6-4.5-11.8c-1.6-1.3-2.3,0.5-3.6,0.7c-2.9,0.4-4.2-2.7-1.8-4.4c-4,0.7-5.3,5.7-0.8,10.1c1.2,0,4.7-0.2,3.7-4.1
			h0.4c0.8,3.4-0.8,4.3-4,4.7c-0.2,0.8,0.1,2.4,1.8,2.9c2.8,0.9,4.7-2.6,4.2-4.8h0.4c0.4,3.5-1.7,4.8-3,5.6
			c-0.7,0.5-0.8,0.7-0.2,1.9c3.5,7.3,8.9,12.2,14.9,14.8c6.5,2.8,12.8,2.8,19.3,0c6-2.6,11.5-7.5,15-14.8c0.6-1.2,0.5-1.4-0.2-1.9
			c-1.4-0.8-3.4-2.2-3-5.6H81c-0.5,2.2,1.4,5.7,4.2,4.8c1.7-0.5,2-2.1,1.8-2.9c-3.2-0.5-4.8-1.3-4-4.7h0.4
			C82.4,61.1,85.9,61.4,87.1,61.3z M37,67.8L37,67.8c-0.1-0.1-0.2-0.2-0.2-0.3c-0.1-0.1-0.1-0.2-0.2-0.3c-0.1-0.1-0.1-0.3-0.1-0.4
			s0-0.3,0-0.4c0-0.2,0.1-0.3,0.1-0.4c0.1-0.1,0.1-0.3,0.3-0.4c0.1-0.1,0.2-0.2,0.4-0.3c0.2-0.1,0.3-0.2,0.5-0.3
			c0.2-0.1,0.3-0.1,0.5-0.2c0.2,0,0.3-0.1,0.5-0.1s0.3,0,0.5,0c0.1,0,0.3,0.1,0.4,0.2c0.1,0.1,0.2,0.2,0.3,0.3
			c0.1,0.1,0.2,0.2,0.2,0.4c0,0.1,0.1,0.2,0.1,0.3c0,0.1,0,0.2,0,0.3c0,0.1,0,0.2,0,0.3l0,0c0,0.1-0.1,0.2-0.1,0.3l0,0
			c0,0.1-0.1,0.2-0.2,0.2c-0.1,0.1-0.2,0.2-0.3,0.2l0,0l0,0l-0.3-0.3l0,0l0,0c0.1-0.1,0.1-0.1,0.2-0.2c0.1-0.1,0.1-0.1,0.1-0.2l0,0
			c0-0.1,0.1-0.1,0.1-0.2s0-0.1,0-0.2s0-0.1,0-0.2l0,0c0-0.1,0-0.1-0.1-0.2c0-0.1-0.1-0.2-0.1-0.2c0-0.1-0.1-0.1-0.2-0.2
			c-0.1,0-0.1-0.1-0.2-0.1l0,0c-0.1,0-0.1-0.1-0.2-0.1c-0.1,0-0.1,0-0.2,0c-0.1,0-0.1,0-0.2,0c-0.1,0-0.2,0-0.4,0.1
			c-0.1,0-0.2,0.1-0.4,0.1c-0.1,0.1-0.3,0.1-0.4,0.2c-0.1,0.1-0.2,0.2-0.3,0.3C37,66,37,66.1,36.9,66.2c0,0.1-0.1,0.2-0.1,0.3l0,0
			c0,0.1,0,0.2,0,0.3c0,0.1,0,0.2,0.1,0.3l0,0c0,0.1,0.1,0.2,0.1,0.2c0.1,0.1,0.1,0.1,0.2,0.2l0,0c0.1,0.1,0.1,0.1,0.2,0.1
			c0.1,0,0.1,0.1,0.2,0.1l0.6-0.3L38,66.6l0,0l0,0l0.4-0.2l0,0l0,0l0.6,1.2l0,0l0,0l-1.2,0.6l0,0l0,0c-0.1-0.1-0.3-0.1-0.4-0.2
			C37.2,68,37.1,67.9,37,67.8z M38.7,71.1L38.7,71.1L37.5,69l0,0l0,0l3.2-1.8l0,0l0,0l1.1,2l0,0l0,0l-0.2,0.2l0,0l0,0l-0.9-1.6
			l-0.9,0.5l0.8,1.5l0,0l0,0L40.2,70l0,0l0,0l-0.8-1.5l-1,0.6l0.9,1.7l0,0l0,0L38.7,71.1L38.7,71.1z M40.8,74L40.8,74l-0.3-0.4l0,0
			l0,0l2.3-1.7l-2.8,1l0,0l0,0l-0.2-0.3l0,0l0,0l1.8-2.4l-2.3,1.7l0,0l0,0L39,71.5l0,0l0,0l3-2.2l0,0l0,0l0.4,0.5l0,0l0,0l-1.7,2.1
			l0,0c-0.1,0.1-0.1,0.2-0.2,0.3l-0.1,0.1h0.1l0,0c0.1,0,0.2-0.1,0.3-0.1l2.5-0.9l0,0l0,0l0.3,0.5l0,0l0,0L40.8,74L40.8,74z
			 M43.1,76.4L43.1,76.4L42.7,76l0,0l0,0l0.6-1l-0.9-0.9l-1,0.5l0,0l0,0L41,74.3l0,0h0.1l3.5-1.6l0,0l0,0l0.3,0.3l0,0l0,0L43.1,76.4
			L43.1,76.4z M45.2,78.3L45.2,78.3L44.8,78l0,0l0,0l1.1-1.3l-1.2-1L43.6,77l0,0l0,0l-0.3-0.3l0,0l0,0l2.4-2.8l0,0l0,0l0.3,0.3l0,0
			l0,0l-0.9,1.1l1.2,1l0.9-1.1l0,0l0,0l0.3,0.3l0,0l0,0L45.2,78.3L45.2,78.3z M49.4,78.8c-0.1,0-0.2,0-0.3,0c0,0,0,0,0,0.1l0,0
			c0,0,0,0.1,0.1,0.1l0,0c0,0.1,0,0.2,0.1,0.3c0,0.1,0,0.2,0,0.3l0,0v1.1v0.1h-0.1l-0.5-0.3l0,0l0,0v-0.9c0-0.1,0-0.2,0-0.3
			c0-0.1,0-0.2,0-0.3l0,0c0-0.1,0-0.1,0-0.2v-0.1l0,0c0,0,0-0.1-0.1-0.1c0,0,0-0.1-0.1-0.1c0,0,0,0-0.1-0.1c0,0-0.1,0-0.1-0.1
			l-0.4-0.2l-0.7,1.4l0,0l0,0l-0.5,0l0,0l0,0l1.7-3.3l0,0l0,0l1.2,0.7c0.1,0.1,0.2,0.1,0.3,0.2c0.1,0.1,0.2,0.1,0.2,0.2
			c0.1,0.1,0.1,0.1,0.1,0.2s0,0.2,0,0.3l0,0c0,0.1,0,0.2,0,0.3s-0.1,0.2-0.1,0.3c-0.1,0.1-0.1,0.2-0.2,0.3c-0.1,0.1-0.2,0.1-0.3,0.2
			l0,0C49.6,78.8,49.5,78.8,49.4,78.8z M50.1,81L50.1,81l-0.4-0.2l0,0l0,0l1.4-3.4l0,0l0,0l0.4,0.2l0,0l0,0L50.1,81L50.1,81z
			 M51.7,79.9l-0.5,1.4l0,0l0,0l-0.4-0.1l0,0l0,0l1.2-3.5l0,0l0,0l1.1,0.4c0.1,0,0.2,0.1,0.3,0.1c0.1,0,0.1,0.1,0.2,0.1l0,0
			c0.1,0,0.1,0.1,0.2,0.1c0.1,0.1,0.1,0.1,0.1,0.2l0,0c0,0.1,0.1,0.1,0.1,0.2s0,0.2,0,0.2l0,0c0,0.1,0,0.2,0,0.3
			c0,0.1,0,0.2-0.1,0.3c-0.1,0.2-0.1,0.3-0.2,0.4c-0.1,0.1-0.2,0.2-0.3,0.3l0,0c-0.1,0.1-0.3,0.1-0.4,0.1c-0.2,0-0.4,0-0.6-0.1
			L51.7,79.9z M55.8,82.6l-0.5-0.1l0,0l0,0l-0.1-1.1L54,81.1l-0.6,1l0,0l0,0L53,82h-0.1l0,0l2-3.4l0,0l0,0l0.4,0.1l0,0l0,0
			L55.8,82.6L55.8,82.6L55.8,82.6z M59,79.1l-0.3,3.7l0,0l0,0h-0.4l0,0l0,0l0.1-1.7L56.8,81l-0.1,1.7l0,0l0,0h-0.4l0,0l0,0l0.3-3.7
			l0,0l0,0H57l0,0l0,0l-0.2,1.4l1.6,0.1l0.1-1.5l0,0l0,0L59,79.1L59,79.1L59,79.1z M63.3,82.3l-0.5,0.1l0,0l0,0l-0.5-0.7
			c-0.1-0.1-0.1-0.2-0.2-0.3c-0.1-0.1-0.1-0.1-0.2-0.2l0,0c0-0.1-0.1-0.1-0.1-0.1l-0.1-0.1l0,0h-0.1l0,0h-0.1l0,0h-0.1h-0.1
			l-0.4,0.1l0.2,1.6l0,0l0,0l-0.4,0.1l0,0l0,0l-0.6-3.6l0,0l0,0l1.4-0.2c0.1,0,0.3,0,0.4,0c0.1,0,0.2,0,0.3,0s0.2,0.1,0.2,0.1
			c0.1,0.1,0.1,0.1,0.2,0.2l0,0c0.1,0.1,0.1,0.2,0.1,0.3c0,0.1,0.1,0.2,0.1,0.3c0,0.1,0,0.3,0,0.4s-0.1,0.2-0.1,0.3l0,0
			c-0.1,0.1-0.1,0.2-0.3,0.3c-0.1,0.1-0.2,0.1-0.3,0.2c0,0,0,0,0.1,0l0,0l0.1,0.1l0,0c0.1,0.1,0.1,0.1,0.2,0.2
			c0.1,0.1,0.1,0.2,0.2,0.2l0,0L63.3,82.3L63.3,82.3L63.3,82.3z M66,81.6l-2.3,0.6l0,0l0,0l-1-3.5l0,0l0,0l2.2-0.6l0,0l0,0l0.1,0.3
			l0,0l0,0l-1.8,0.5l0.3,1l1.6-0.5l0,0l0,0l0.1,0.4l0,0l0,0l-1.6,0.5l0.3,1.1l1.8-0.5l0,0l0,0L66,81.6L66,81.6L66,81.6z M67.9,78.9
			L67.9,78.9c0,0.1-0.1,0.3-0.3,0.4c-0.1,0.1-0.3,0.2-0.5,0.3L66.4,80l0.5,1.4l0,0l0,0l-0.3,0.1l0,0l0,0L65.2,78l0,0l0,0l1.1-0.4
			c0.1,0,0.2-0.1,0.3-0.1s0.1,0,0.2-0.1l0,0c0.1,0,0.2,0,0.2,0c0.1,0,0.1,0,0.2,0l0,0c0.1,0,0.1,0.1,0.2,0.1c0.1,0,0.1,0.1,0.2,0.2
			s0.1,0.1,0.2,0.2c0,0.1,0.1,0.2,0.1,0.2c0.1,0.1,0.1,0.3,0.1,0.4C67.9,78.6,67.9,78.8,67.9,78.9z M71.3,79.1l-2.1,1.1l0,0l0,0
			L67.4,77l0,0l0,0l2-1.1l0,0l0,0l0.2,0.4l0,0l0,0L68,77.3l0.5,0.9l1.5-0.8l0,0l0,0l0.2,0.4l0,0l0,0l-1.5,0.8l0.6,1l1.7-0.9l0,0l0,0
			L71.3,79.1L71.3,79.1L71.3,79.1z M73.8,77.3l-0.3,0.3l0,0l0,0l-1-1.4l-1.2,0.9l1,1.4l0,0l0,0L72,78.9l0,0l0,0L69.8,76l0,0l0,0
			l0.3-0.3l0,0l0,0l0.9,1.2l1.2-0.9l-0.9-1.2l0,0l0,0l0.3-0.3l0,0l0,0L73.8,77.3L73.8,77.3L73.8,77.3z M77.2,74l-0.4,0.4l0,0l0,0
			L76,74.3l0,0c-0.1,0-0.2-0.1-0.3-0.1s-0.2,0-0.2,0l0,0c-0.1,0-0.1,0-0.2,0s-0.1,0-0.1,0l0,0h-0.1H75c0,0,0,0-0.1,0.1l-0.1,0.1
			l-0.3,0.3l1.2,1.1l0,0l0,0l-0.3,0.3l0,0l0,0l-2.7-2.5l0,0l0,0l1-1c0.1-0.1,0.2-0.2,0.3-0.3c0.1-0.1,0.2-0.1,0.2-0.2
			c0.1,0,0.2-0.1,0.2-0.1c0.1,0,0.2,0,0.3,0l0,0c0.1,0,0.2,0.1,0.3,0.1s0.2,0.1,0.2,0.2c0.1,0.1,0.2,0.2,0.2,0.3
			c0.1,0.1,0.1,0.2,0.1,0.3c0,0.1,0,0.2,0,0.4c0,0.1-0.1,0.2-0.1,0.3c0,0,0,0,0.1,0s0.1,0,0.1,0l0,0c0.1,0,0.2,0,0.3,0
			s0.2,0,0.3,0.1l0,0L77.2,74L77.2,74L77.2,74z M79.2,71.4l-0.3,0.4l0,0l0,0l-1.1-0.4l-0.7,1l0.7,0.9l0,0l0,0l-0.3,0.4l0,0l0,0
			l-2.3-3.1l0,0l0,0l0.3-0.4l0,0l0,0L79.2,71.4L79.2,71.4L79.2,71.4z M79.6,70.8l-0.2,0.4l0,0l0,0l-3.3-1.8l0,0l0,0l0.6-1
			c0.1-0.1,0.1-0.2,0.1-0.2c0-0.1,0.1-0.1,0.1-0.2l0,0C77,68,77,68,77.1,67.9c0.1,0,0.1-0.1,0.2-0.1s0.1,0,0.2-0.1
			c0.1,0,0.2,0,0.2,0l0,0c0.1,0,0.2,0,0.3,0.1c0.1,0,0.2,0.1,0.2,0.1c0.1,0.1,0.3,0.2,0.4,0.3c0.1,0.1,0.2,0.2,0.2,0.4l0,0
			c0.1,0.1,0.1,0.3,0,0.5c0,0.2-0.1,0.3-0.2,0.5l-0.4,0.7L79.6,70.8L79.6,70.8L79.6,70.8z M81,68.1l-0.2,0.4l0,0l0,0l-3.3-1.6l0,0
			l0,0l0.2-0.4l0,0l0,0L81,68.1L81,68.1L81,68.1z M82.2,65.1L82.2,65.1L82.2,65.1L82,65.5l0,0l0,0l-1.6-0.6l-0.5,1.5l1.6,0.6l0,0
			l0,0l-0.1,0.4l0,0l0,0l-3.5-1.3l0,0l0,0l0.1-0.4l0,0l0,0l1.4,0.5l0.5-1.5l-1.4-0.5l0,0l0,0l0.1-0.4l0,0l0,0L82.2,65.1z"/>
		<path class="st0" d="M38.1,55.4C40.9,68,49.3,77.3,59.2,77.3S77.6,68,80.3,55.4c0.1-0.3,0.1-0.5,0.2-0.8c0.5-2.6,0.8-5.3,0.8-8.2
			c0-17-9.9-30.9-22.1-30.9S37.1,29.4,37.1,46.4c0,2.8,0.3,5.6,0.8,8.2C38,54.9,38,55.2,38.1,55.4z M43.2,27.6
			C46,23,50.3,19,55.6,17.7c1.2-0.3,2.4-0.4,3.6-0.4c1.2,0,2.4,0.1,3.6,0.4c5.4,1.3,9.6,5.3,12.4,9.9c3.4,5.6,5,12.3,5,18.8
			s-1.6,13.2-5,18.8c-1.3,2.1-2.9,4.1-4.8,5.8c-1.1,1-2.3,1.8-3.6,2.5c-1.3,0.7-2.6,1.2-4.1,1.6c-1.2,0.3-2.4,0.4-3.6,0.4
			c-1.2,0-2.4-0.1-3.6-0.4c-1.4-0.3-2.7-0.9-4-1.5c-1.2-0.7-2.4-1.5-3.5-2.4c-2-1.7-3.6-3.8-5-6c-3.4-5.6-5-12.3-5-18.8
			S39.8,33.2,43.2,27.6z"/>
		<path class="st0" d="M43.2,64.4c0.1,0.1,0.1,0.2,0.2,0.4l0,0l0.1,0.1c0,0,0,0.1,0.1,0.1l0,0l0,0c0,0,0,0.1,0.1,0.1l0,0
			c0.2,0.3,0.3,0.5,0.5,0.7c0,0,0,0,0,0.1c0.2,0.3,0.5,0.7,0.7,1c0,0,0,0,0,0.1c0.1,0.1,0.1,0.2,0.2,0.3c0,0,0,0.1,0.1,0.1
			c0.2,0.3,0.4,0.5,0.6,0.8l0,0l0.1,0.1l0,0l0,0l0,0l0,0c0,0,0,0.1,0.1,0.1l0,0l0,0l0,0c0.1,0.1,0.1,0.2,0.2,0.3l0.1,0.1
			c0.1,0.2,0.3,0.3,0.4,0.5l0.1,0.1l0.1,0.1l0,0l0,0c-0.3-0.3-0.6-0.7-1-1.1c0.1,0,0.2-0.1,0.3-0.1c0.5-0.1,1-0.2,1.5-0.2
			s1,0.2,1.5,0.4c0.2,0.1,0.3,0.1,0.5,0.2c0.5,0.2,1,0.2,1.5,0.2s1-0.1,1.5-0.2c0.2,0,0.3-0.1,0.5-0.2c0.6-0.2,1.2-0.4,1.7-0.4l0,0
			l0,0c0.7,0,1.3,0.2,1.9,0.4c0.4,0.1,0.8,0.2,1.1,0.3V69v1.5v0.2l0.2,0.2l0.6,0.7v0.1c-0.7,0-1.3-0.3-1.9-0.5
			c-0.6-0.2-1.1-0.5-1.8-0.5c-0.8,0-1.4,0.3-2,0.6c-0.5,0.3-1,0.6-1.7,0.5c-0.5,0-0.8-0.2-1.3-0.4c-0.3-0.1-0.6-0.3-1-0.4
			c-0.1,0-0.3-0.1-0.5-0.1c-0.1-0.1-0.1-0.1-0.2-0.2l0,0c-0.5-0.4-1-0.9-1.5-1.4l0,0l0.1,0.1l0.1,0.1c0.1,0.1,0.1,0.1,0.2,0.2
			l0.1,0.1c0.1,0.1,0.2,0.2,0.4,0.3c0.1,0,0.1,0.1,0.2,0.1c0.1,0.1,0.1,0.1,0.2,0.2c0.1,0,0.1,0.1,0.2,0.1c0.1,0.1,0.1,0.1,0.2,0.2
			l0,0l0,0l0,0l0.1,0.1l0,0l0,0l0.1,0.1c0,0,0.1,0,0.1,0.1l0,0l0,0l0.1,0.1c0.1,0.1,0.1,0.1,0.2,0.2c0.1,0,0.1,0.1,0.2,0.1
			c0.1,0.1,0.1,0.1,0.2,0.2c0.1,0,0.1,0.1,0.2,0.1c0.1,0.1,0.2,0.1,0.3,0.2c0.1,0,0.1,0.1,0.2,0.1c0.1,0.1,0.2,0.1,0.2,0.1
			c0.1,0,0.1,0.1,0.2,0.1c0.1,0.1,0.2,0.1,0.3,0.2c0.1,0,0.1,0.1,0.2,0.1c0.1,0.1,0.2,0.1,0.3,0.2c0.1,0,0.1,0.1,0.2,0.1h0.1
			c0.1,0,0.1,0.1,0.2,0.1c0.1,0,0.1,0.1,0.2,0.1c0.1,0.1,0.3,0.1,0.4,0.2c0,0,0.1,0,0.1,0.1c0.1,0,0.2,0.1,0.3,0.1s0.1,0,0.2,0.1
			c0.1,0,0.2,0.1,0.3,0.1h0.1c0.1,0.1,0.3,0.1,0.4,0.2H54c0.1,0,0.2,0.1,0.3,0.1h0.1c0.1,0,0.3,0.1,0.4,0.1c0,0,0,0,0.1,0
			s0.3,0.1,0.4,0.1h0.1c0.1,0,0.2,0.1,0.3,0.1h0.1c0.1,0,0.3,0.1,0.4,0.1l0,0h0.1c0.1,0,0.2,0,0.4,0.1h0.1c0.1,0,0.3,0,0.4,0h0.1
			c0.2,0,0.3,0,0.5,0h0.1H58l0,0l0,0c0.1,0,0.2,0,0.3,0l0,0l0,0h0.1c0.2,0,0.3,0,0.5,0l0,0l0,0l0,0l0,0c0.1,0,0.2,0,0.2,0
			c0.1,0,0.1,0,0.2,0h0.1c0.1,0,0.2,0,0.4,0l0,0l0,0h0.1c0.1,0,0.2,0,0.3,0l0,0c0.1,0,0.1,0,0.2,0h0.1h0.1l0,0c0.1,0,0.2,0,0.3,0H61
			h0.1c0.1,0,0.2,0,0.3,0l0,0h0.1h0.1c0.1,0,0.1,0,0.2,0l0,0h0.1H62l0,0l0,0h0.1l0,0h0.1l0,0h0.1h0.1c0.1,0,0.3-0.1,0.4-0.1l0,0
			c0.1,0,0.3-0.1,0.4-0.1h0.1c0.1,0,0.2-0.1,0.3-0.1h0.1c0.1-0.1,0.3-0.1,0.4-0.2h0.1c0.1,0,0.2-0.1,0.3-0.1s0.1,0,0.2-0.1
			c0.1,0,0.2-0.1,0.3-0.1c0,0,0.1,0,0.1-0.1l0,0l0,0c0,0,0.1,0,0.1-0.1l0,0l0,0c0,0,0.1,0,0.1-0.1l0,0c0,0,0.1,0,0.1-0.1l0.1-0.1
			c0.1,0,0.2-0.1,0.3-0.1l0,0c0,0,0.1,0,0.1-0.1c0,0,0,0,0.1,0l0,0c-0.1,0-0.1,0.1-0.2,0.1c0,0,0,0-0.1,0c0,0-0.1,0-0.1,0.1
			c0.7,0.2,0.6,0.3,0.4,0.3l0,0v-1.2l0,0h2.1c-0.1,0.1-0.2,0.2-0.4,0.2c0,0,0,0-0.1,0c-0.1,0.1-0.2,0.1-0.3,0.2c0,0,0,0-0.1,0
			c-0.2,0.1-0.3,0.2-0.5,0.3c0,0-0.1,0-0.1,0.1h0.1l0.1-0.1c0.1,0,0.1-0.1,0.2-0.1c0.1-0.1,0.2-0.1,0.3-0.2c0.1,0,0.1-0.1,0.2-0.1
			c0.1-0.1,0.2-0.1,0.2-0.2c0.1,0,0.1-0.1,0.2-0.1c0,0,0,0,0.1,0l0,0c0,0,0.1,0,0.1-0.1l0,0l0,0l0,0c0,0,0.1,0,0.1-0.1
			c0,0,0,0,0.1,0l0,0l0,0l0.1-0.1c0.1-0.1,0.1-0.1,0.2-0.2c0.1,0,0.1-0.1,0.2-0.1l0,0l0,0l0.1-0.1l0,0l0,0l0,0l0,0
			c0.1,0,0.1-0.1,0.2-0.1l0.1-0.1l0,0c0.1,0,0.1-0.1,0.2-0.1c0.1-0.1,0.1-0.1,0.2-0.2l0,0l0,0l0.1-0.1c0.1-0.1,0.1-0.1,0.2-0.2
			c0.1,0,0.1-0.1,0.2-0.2c0.1-0.1,0.2-0.1,0.2-0.2l0,0l0.1-0.1l0.1-0.1c0,0,0,0,0.1-0.1l0,0l0,0c-0.1,0.1-0.2,0.2-0.3,0.3l-0.1,0.1
			c-0.2,0.2-0.4,0.4-0.7,0.6l0,0c-0.1,0.1-0.2,0.2-0.3,0.3c0,0,0,0-0.1,0c-0.1,0.1-0.2,0.1-0.2,0.2V69H72c0,0,0,0-0.1,0.1
			s-0.2,0.2-0.3,0.3c-0.1,0.1-0.1,0.2-0.2,0.2c0,0,0,0-0.1,0.1S71.1,69.9,71,70l0,0l0.1-0.1l0.1-0.1l0.1-0.1c0,0,0,0,0.1-0.1
			c0,0,0,0,0.1-0.1l0.1-0.1c0-0.1,0.1-0.1,0.1-0.2l0,0c0.1-0.1,0.2-0.2,0.2-0.3l0,0l0,0l0.1-0.1l0,0l0,0l0.1-0.1l0,0l0,0l0.1-0.1
			l0,0l0,0c0,0,0,0,0.1-0.1l0,0c0,0,0,0,0.1-0.1l0,0l0.1-0.1l0,0l0,0c0.1-0.1,0.1-0.1,0.2-0.2l0,0c0.1-0.1,0.2-0.2,0.3-0.3l0,0
			c0,0,0-0.1,0.1-0.1l0.1-0.1c0-0.1,0.1-0.1,0.1-0.2l0,0c-0.1,0.1-0.1,0.2-0.2,0.3c-0.2,0.2-0.3,0.4-0.5,0.6v-2.8h1.9
			c-0.1,0.2-0.2,0.3-0.3,0.5L74.1,66c-0.2,0.3-0.4,0.6-0.6,0.9c-0.1,0.1-0.1,0.1-0.2,0.2l0,0l0,0l0.1-0.1c0,0,0,0,0-0.1
			s0.1-0.1,0.1-0.2l0,0c0.1-0.1,0.2-0.2,0.2-0.3l0,0c0.1-0.1,0.2-0.2,0.2-0.3l0,0l0,0c0,0,0-0.1,0.1-0.1c0.1-0.1,0.1-0.2,0.2-0.2
			l0,0c0.1-0.1,0.1-0.2,0.2-0.3l0,0l0,0v-0.1l0,0l0.1-0.1l0,0c0.1-0.1,0.1-0.2,0.2-0.3l0,0c0.1-0.1,0.1-0.2,0.2-0.4l0,0
			c0.2-0.3,0.3-0.6,0.5-0.9l0,0c0-0.1,0.1-0.1,0.1-0.2c0,0,0,0,0-0.1l0,0l0,0l0,0l0,0c0,0,0-0.1,0.1-0.1v-0.1l0,0
			c0.1-0.1,0.1-0.3,0.2-0.4l0,0c0.1-0.2,0.2-0.4,0.3-0.6l0,0c0,0,0-0.1,0.1-0.1l0,0l0,0c0,0,0-0.1,0.1-0.1l0,0l0,0
			c0,0,0-0.1,0.1-0.1l0,0c0.3-0.6,0.5-1.1,0.7-1.7l0,0c0.2-0.4,0.3-0.9,0.5-1.4l0,0h-1.9h-0.1h-3.3h-0.1h-3h-0.1h-3.3h-0.1h-3.2
			h-0.1h-3.1h-0.1h-0.1H59l0.1,0.1l0.1,0.1l0.1,0.1l0.4,0.4v2.4V62v0.1v0.2L59,63.2v1.6l0.4,0.5l0.1,0.1l0.1,0.1l0.2,0.3v2.4
			l-0.3,0.5l-0.1,0.1l-0.1,0.1L59,69.3v1.1l0.8,0.9v0.6V72v0.1v2l-0.4,0.4l0,0l-0.1,0.1l-0.1,0.1l-0.1,0.1v0.1V75
			c-0.1,0-0.3,0-0.4,0c-0.1,0-0.2,0-0.3,0h-0.1v-0.1v-0.4l0.1-0.1l0.7-0.7v-1.8v-0.1v-0.1v-0.2l-0.8-0.9v-1.8l0,0l0.1-0.1l0.1-0.1
			l0.6-0.9v-1.8l-0.5-0.5l-0.1-0.1l-0.1-0.1l-0.2-0.3v-2.2l0.3-0.3l0.1-0.1l0.1-0.1l0.2-0.3v-2.2l-0.8-0.9v-0.4H58H40.6
			c0.4,1.1,0.8,2.1,1.2,3.1l0,0c0,0.1,0.1,0.2,0.1,0.3l0,0c0,0,0,0.1,0.1,0.1l0,0l0,0c0,0,0,0.1,0.1,0.1l0,0
			c0.1,0.2,0.2,0.5,0.3,0.7l0,0c0.1,0.2,0.2,0.3,0.2,0.5l0,0c0.1,0.1,0.1,0.2,0.2,0.3l0,0c0.1,0.3,0.3,0.5,0.4,0.8l0,0
			C43.2,64.3,43.2,64.4,43.2,64.4L43.2,64.4z M72.4,65.1h-3v-3.2h3V65.1z M69.1,68.5h-3l0,0v-3.1l0,0h3V68.5z M65.8,65.1L65.8,65.1
			h-3.2v-3.2h3.2l0,0V65.1z M65.8,68.8L65.8,68.8V72l0,0h-3.2v-3.2H65.8z M75.9,63v-1h0.5C76.2,62.3,76.1,62.7,75.9,63z M72.6,58.5
			h3v3.2h-3V58.5z M66,58.5h3v3.2h-3l0,0V58.5z M59.9,59l-0.4-0.5h2.9v3.2h-2.3v-2.2v-0.2L59.9,59z M60,68.3l0.1-0.2V68v-2.1v-0.2
			L60,65.4l0,0h2.4v3.2h-2.6L60,68.3z M59.8,74.6L59.8,74.6l0.3-0.3V74v-1.8h2.3v2.1v0.4c-0.1,0-0.1,0-0.2,0c-0.1,0-0.1,0-0.2,0
			h-0.1c-0.1,0-0.1,0-0.2,0l0,0c-0.1,0-0.2,0-0.3,0l0,0h-0.1l0,0c-0.1,0-0.2,0-0.3,0s-0.1,0-0.2,0c-0.1,0-0.2,0-0.3,0s-0.1,0-0.2,0
			c-0.1,0-0.2,0-0.3,0c0,0,0,0-0.1,0c-0.2,0-0.4,0-0.6,0v-0.1v-0.1L59.8,74.6z M48.8,71.3C48.8,71.3,48.8,71.1,48.8,71.3
			C48.8,71.1,48.8,71.3,48.8,71.3L48.8,71.3z M42.7,63.4c0-0.1-0.1-0.2-0.1-0.3c-0.2-0.3-0.3-0.7-0.5-1.1c0.3-0.1,0.6-0.2,0.9-0.2
			c0.6-0.1,1.2-0.2,1.7-0.2c0.6,0,1.1,0.2,1.7,0.4c0.2,0.1,0.4,0.1,0.6,0.2c0.5,0.2,1,0.2,1.6,0.2c0.6,0,1.2-0.1,1.7-0.2
			c0.2-0.1,0.4-0.1,0.6-0.2c0.7-0.2,1.4-0.4,2-0.4l0,0l0,0c0.8,0,1.6,0.2,2.3,0.4s1.4,0.4,2.2,0.4h0.1c0.3,0,0.5,0,0.7,0v0.1
			L58,62.7v0.2v1.9V65l0.1,0.2v0.1c-1.3,0.2-2.1,0-2.9-0.3c-0.6-0.2-1.2-0.4-2-0.4c-0.9,0-1.7,0.3-2.4,0.6c-0.7,0.3-1.4,0.6-2.1,0.6
			c-0.5,0-1-0.2-1.5-0.4c-0.4-0.1-0.7-0.3-1.2-0.4c-0.6-0.1-1.3-0.1-2.1,0c-0.2,0-0.3,0.1-0.5,0.1l0,0c-0.1-0.2-0.2-0.4-0.3-0.6
			C43,64,42.8,63.7,42.7,63.4z"/>
		<path class="st0" d="M40.6,58.4L40.6,58.4L40.6,58.4z"/>
		<path class="st0" d="M77.8,58.4L77.8,58.4L77.8,58.4z"/>
		<path class="st0" d="M58,58.1h1.4h3.1h0.1h3.2h0.1h3.3h0.1h3h0.1h3.3h0.1h1.9l0,0l-3.5-4.2h-7.5l-1,1.8l-2.7-6h-3.2
			c0-0.5-0.1-0.9-0.1-1.3c0.2-0.4,0.3-0.9,0.3-1.2c0-0.5-0.1-0.9-0.2-1.1l0,0l0,0h-0.3h-0.1h-0.1c0-0.1,0-0.2,0-0.3
			c0-0.2,0-0.5,0-0.8l0,0l0,0c0.1-0.2,0.3-0.4,0.5-0.6c0.2-0.2,0.4-0.4,0.5-0.6c0.1-0.3,0-0.6-0.7-0.9l-0.2-0.1l0.2-0.1
			c0.4-0.1,0.7-0.3,0.8-0.4c0.1-0.1,0.2-0.2,0.2-0.3s-0.1-0.2-0.1-0.3c-0.1-0.2-0.4-0.3-0.5-0.4l-0.1-0.1l0.1-0.1
			c1.1-0.6,2-1.6,2.7-2.8s1.3-2.7,1.6-4.3c-0.1-0.1-0.1-0.2-0.2-0.3c-0.4-0.6-0.8-1.1,0-2c-1.2-0.7-0.9-1.1-0.7-1.5l0.1-0.1
			c-0.9-0.5-0.8-0.8-0.7-1.2v-0.1c-0.6-0.1-0.9-0.3-1-0.6c-0.1-0.2,0-0.5,0.1-0.7c-0.4,0-0.7-0.1-1.1-0.4c-0.6-0.4-1.1-1-1.5-1.7
			s-0.7-1.5-0.7-2.2c0-0.5,0-1,0.2-1.4c-1.7,1.1-1.5,3-1.4,4.3c0.1,0.5,0.1,1,0,1.3c-0.1,0.4-0.3,0.6-0.9,0.5c-0.3,1.1,0.3,2,1,3.1
			c1.3,2,3,4.6,0.5,9.8l0,0l0,0c-0.3,0.2-0.5,0.5-0.6,0.7c-0.1,0.1-0.1,0.3-0.1,0.4c0,0.1,0.1,0.3,0.2,0.4c0.2,0.2,0.4,0.4,0.8,0.6
			h0.1l-0.1,0.1c0,0.1-0.1,0.1-0.2,0.2c-0.2,0.2-0.6,0.4-0.7,0.7c-0.1,0.3,0,0.7,1,1.1l0,0v0.1c0,0.2,0,0.4,0,0.5s0,0.2,0,0.2h-0.1
			h-0.1h-0.3l0,0l0,0c-0.1,0.2-0.2,0.7-0.1,1.3c0.1,0.4,0.2,0.8,0.4,1.1c0.1,0.5,0,0.9,0,1.3h-2.5L53,55.8l-1.5-2.6h-6.8l-4.2,4.9
			l0,0C40.5,58.1,58,58.1,58,58.1z M63.7,33.4c0,0.1,0,0.2-0.1,0.3s-0.2,0.1-0.3,0.1s-0.2,0-0.3-0.1s-0.1-0.2-0.1-0.3s0-0.2,0.1-0.3
			s0.2-0.1,0.3-0.1s0.2,0,0.3,0.1C63.6,33.2,63.7,33.3,63.7,33.4z M63.3,31.5c0.1,0.1,0.1,0.2,0.1,0.3s0,0.2-0.1,0.3
			s-0.2,0.1-0.3,0.1s-0.2,0-0.3-0.1c-0.1-0.1-0.1-0.2-0.1-0.3s0-0.2,0.1-0.3c0.1-0.1,0.2-0.1,0.3-0.1S63.2,31.4,63.3,31.5z M62.9,30
			c0.1,0.1,0.1,0.2,0.1,0.3s0,0.2-0.1,0.3s-0.2,0.1-0.3,0.1s-0.2,0-0.3-0.1c-0.1-0.1-0.1-0.2-0.1-0.3c0-0.1,0-0.2,0.1-0.3
			c0.1-0.1,0.2-0.1,0.3-0.1S62.8,29.9,62.9,30z M61.6,28.8c0.1-0.1,0.2-0.1,0.3-0.1s0.2,0,0.3,0.1c0.1,0.1,0.1,0.2,0.1,0.3
			s0,0.2-0.1,0.3s-0.2,0.1-0.3,0.1s-0.2,0-0.3-0.1c-0.1-0.1-0.1-0.2-0.1-0.3S61.6,28.9,61.6,28.8z M60.6,27.4
			c0.1-0.1,0.2-0.1,0.3-0.1s0.2,0,0.3,0.1c0.1,0.1,0.1,0.2,0.1,0.3s0,0.2-0.1,0.3c-0.1,0.1-0.2,0.1-0.3,0.1s-0.2,0-0.3-0.1
			c-0.1-0.1-0.1-0.2-0.1-0.3S60.5,27.5,60.6,27.4z M58.7,49.6c0.1-0.4,0.1-0.8,0-1.4l0,0l0,0c-0.2-0.3-0.4-0.7-0.4-1
			c-0.1-0.5,0-0.9,0-1.1h0.3h0.1h0.1h0.5h0.1h0.1h0.3c0.1,0.2,0.2,0.5,0.2,1c0,0.4-0.1,0.8-0.3,1.2l0,0l0,0c0,0.4,0,0.9,0.1,1.4
			c0,0,0,0,0,0.1c0.1,0.9,0.1,1.8,0,2.6c-0.1,0.5-0.3,1-0.6,1.4c-0.2,0.3-0.5,0.5-0.8,0.6c-0.2,0-0.4,0-0.5-0.1s-0.2-0.2-0.3-0.3
			l0,0c-0.1-0.1-0.1-0.2,0-0.4c0-0.2,0.1-0.4,0.3-0.6c0.1-0.1,0.1-0.1,0.2-0.2c0.4-0.4,0.8-0.8,0.8-1.2l0,0l0,0
			c-0.3-0.6-0.2-1-0.1-1.6C58.7,49.9,58.7,49.7,58.7,49.6z"/>
		<path class="st0" d="M46.6,37.5l-0.1-0.1c0.1,0,0.2,0,0.3,0c0-0.1,0-0.1-0.1-0.2c0,0,0,0,0.1,0c0.2,0.2,0.4,0.4,0.5,0.7
			c0.1,0.2,0.3,0.4,0.4,0.6c-0.2,0.4-0.1,0.8,0,1.1c0-0.1,0-0.1-0.1-0.2c-0.1-0.4-0.3-0.9-0.9-1.2c-0.4-0.3-0.7-0.3-1.1-0.4
			c-0.5-0.1-1-0.3-1.5-1l0,0c0,0,0,0-0.1,0c0,0-0.1,0-0.1,0.1c0.3,1.2,0.7,2.3,1.5,3c0.6,0.6,1.4,0.8,2.4,0.7l0,0
			c0.1,0.1,0.3,0.3,0.4,0.4c0.2,0.3,0.5,0.6,0.9,0.7c0.2,0.5,0.5,0.9,0.8,1.2c0.1,0.1,0.1,0.2,0.2,0.2c-0.2,0-0.3,0-0.5,0
			c-0.3-0.2-0.4-0.5-0.6-0.7c-0.3-0.4-0.5-0.8-1.2-1c-0.2,0-0.6,0-1,0c-0.6,0-1.1,0-1.7-0.5l0,0H45V41c0.6,1.1,1.3,2,2.2,2.5
			c0.7,0.4,1.5,0.4,2.4,0c0,0,0,0,0.1,0c0.3,0,0.6,0,0.9,0.2l0.2,0.1l2.2,1.8l0,0c-0.1,0-0.2-0.1-0.4-0.1c-0.3-0.1-0.5-0.3-0.7-0.5
			c-0.4-0.3-0.7-0.6-1.4-0.6c-0.5,0-0.8,0.1-1.2,0.2c-0.5,0.2-1,0.3-1.8,0l0,0h-0.1v0.1c0.9,0.9,1.8,1.6,2.8,1.7
			c0.8,0.2,1.6,0,2.4-0.7c0.1,0,0.2,0,0.3,0.1c0.2,0.1,0.3,0.1,0.5,0.1c0.1,0,0.1,0.1,0.2,0.1c-0.3-0.1-0.6-0.1-1,0
			c-0.4,0.1-0.7,0.4-1,0.6c-0.4,0.3-0.9,0.6-1.7,0.6l0,0h-0.1v0.1c0.6,0.3,1.3,0.5,2,0.6s1.4,0.1,1.8,0c0.8-0.2,1-0.5,1.3-1.1
			c0-0.1,0.1-0.2,0.2-0.3c0.2,0,0.4,0.1,0.6,0.1c0.5,0.1,1,0.3,1.4,0.6c0.3,0.2,0.3,0.3,0.5,0c0.1-0.1,0.1-0.1-0.1-0.2
			c-0.5-0.3-1.2-0.5-1.8-0.6c-0.3-0.1-0.5-0.1-0.8-0.2v-0.3l0,0c0.4-0.8,0.3-1.6-0.1-2.3c-0.4-0.7-1-1.3-1.8-1.8
			c-0.2-0.1-0.3-0.2-0.5-0.3h-0.1v0.1l0,0c0.5,0.6,0.5,1,0.4,1.5c0,0.4-0.1,0.7,0.1,1.1c0.2,0.6,0.6,0.9,1,1.2
			c0.2,0.2,0.5,0.4,0.7,0.6l0,0c-0.4-0.1-0.7-0.3-1.1-0.5l-1.6-1.1V44c0.5-0.9,0.4-1.6,0.1-2.3s-1-1.3-1.7-1.8c0-0.1,0-0.2,0-0.3
			c-0.1-0.8-0.5-1.6-0.9-2.3c0-0.1,0.1-0.2,0.1-0.4c0.1-0.8,0-1.7-0.3-2.5c0,0,0-0.1-0.1,0l0,0c-0.2,0.6-0.6,0.9-0.9,1.2
			c-0.2,0.2-0.4,0.3-0.5,0.5c-0.4,0.6-0.3,1.2-0.1,1.8c0.1,0.2,0.2,0.4,0.2,0.7c-0.1-0.2-0.2-0.3-0.3-0.5c-0.1-0.2-0.3-0.5-0.5-0.7
			c0.1-0.3,0.1-0.6,0.1-0.9c0-0.3,0-0.5,0.1-0.7c1-0.2,1.6-0.7,1.9-1.4s0.4-1.6,0.3-2.5c0,0,0-0.1-0.1-0.1l0,0
			c-0.4,0.5-0.8,0.7-1.2,0.9c-0.2,0.1-0.4,0.2-0.6,0.4C46.9,33.4,47,34,47,34.6c0,0.2,0,0.3,0,0.5l0,0c-0.1-0.2-0.1-0.3-0.2-0.5
			c-0.2-0.3-0.3-0.7-0.4-1c0-0.2,0-0.3,0.1-0.5c0-0.1,0.1-0.2,0.1-0.3s0-0.1,0.1-0.2l0,0c0.2-0.2,0.3-0.4,0.5-0.5
			c1,0.2,1.7-0.1,2.2-0.7c0.6-0.6,0.9-1.4,1.2-2.2v-0.1c0,0,0,0-0.1,0c-0.6,0.4-1,0.4-1.4,0.4c-0.3,0-0.5,0-0.7,0.1
			c-0.7,0.3-0.9,0.8-1.1,1.4c0,0.2-0.1,0.4-0.2,0.5L47,29.9l0,0l0,0c0,0,0.1,0,0.1-0.1c0-0.1,0.1-0.2,0.1-0.3l1.2-0.5
			c0.9,0.3,1.6,0.2,2.3-0.2c0.7-0.4,1.2-1.2,1.6-1.9v-0.1c0,0,0,0-0.1,0c-0.6,0.3-1.1,0.2-1.5,0.1c-0.3,0-0.5-0.1-0.7,0
			c-0.8,0.1-1,0.6-1.3,1.2c-0.1,0.3-0.3,0.5-0.5,0.8l-0.9,0.4c0-0.1,0.1-0.2,0.1-0.2c0.1-0.2,0.2-0.4,0.3-0.6
			c0.2-0.2,0.5-0.5,0.7-0.8s0.3-0.6,0.4-0.8c0.2-0.3,0.4-0.4,0.6-0.6l0,0h0.1c0.3,0,0.5,0,0.8,0c0.8,0.6,1.5,0.6,2.2,0.4
			c0.8-0.2,1.5-0.8,2.1-1.4v-0.1l0,0c-0.7,0.1-1.1-0.1-1.4-0.3c-0.2-0.1-0.4-0.2-0.7-0.2c-0.8-0.1-1.2,0.3-1.6,0.7
			c-0.2,0.2-0.4,0.4-0.7,0.6c-0.2,0-0.3,0-0.5,0c0.2-0.2,0.3-0.4,0.5-0.6c0.1-0.1,0.2-0.2,0.3-0.3c0.3-0.3,0.6-0.6,0.9-0.8
			c0.9,0.5,1.7,0.3,2.4,0c0.7-0.4,1.3-1.1,1.8-1.7v-0.1l0,0l0,0c-0.8,0.2-1.3,0.1-1.7,0.1c-0.8-0.1-1.2-0.1-2.4,1.4
			c-0.4,0.2-0.7,0.6-1,0.9c0.1-0.3,0-0.7,0-1c0-0.6-0.1-1.1,0.4-1.8l0,0V22h-0.1c-1.1,0.7-1.9,1.5-2.3,2.4c-0.3,0.8-0.3,1.6,0.1,2.5
			c-0.1,0.2-0.2,0.5-0.3,0.7s-0.2,0.3-0.4,0.5c0-0.1,0-0.3,0-0.4c-0.1-0.5-0.2-0.8-0.4-1.1c-0.2-0.5-0.5-1-0.3-1.8l0,0v-0.1h-0.1
			c-0.8,1-1.2,2.1-1.3,3c0,0.8,0.2,1.5,0.9,2.1l0.1,2.4c-0.1,0.1-0.1,0.1-0.2,0.2c0-0.2,0-0.5-0.1-0.9c-0.2-0.4-0.4-0.7-0.6-1
			c-0.4-0.4-0.7-0.8-0.7-1.7l0,0v-0.1h-0.1c-0.5,1.2-0.7,2.3-0.5,3.3c0.2,0.8,0.6,1.4,1.5,1.9c0,0,0.1,0,0.1,0.1
			c0.1,0.3,0.2,0.6,0.4,0.9c0.1,0.2,0.2,0.5,0.3,0.7c-0.1,0.3-0.1,0.5-0.1,0.8c0,0.2,0,0.4,0,0.5c-0.1-0.2-0.1-0.4-0.1-0.6
			c0-0.5-0.1-0.9-0.5-1.4c-0.3-0.3-0.6-0.5-0.9-0.7c-0.5-0.3-0.9-0.5-1.2-1.3l0,0c0,0,0,0-0.1,0c0,0-0.1,0-0.1,0.1
			c0,0.7,0,1.3,0.1,1.9C44.3,36.1,45,37.3,46.6,37.5z M48.4,40.9c-0.1-0.1-0.2-0.3-0.4-0.4c0-0.2-0.1-0.4-0.1-0.6
			c-0.1-0.4-0.2-0.7,0-1.2l0,0c0.6-0.3,1-0.6,1.3-1.1c-0.1,0.4-0.3,0.7-0.5,0.9c-0.1,0.2-0.3,0.4-0.4,0.6c-0.3,0.7,0.1,1.2,0.4,1.7
			c0.1,0.2,0.3,0.4,0.4,0.6C48.8,41.4,48.6,41.1,48.4,40.9z M50.5,43.2c-0.1-0.1-0.2-0.2-0.3-0.3c-0.3-0.4-0.6-0.7-0.8-1.2
			c0.5-0.4,0.8-0.9,0.9-1.4c0,0.4-0.1,0.7-0.1,1c-0.1,0.2-0.1,0.5-0.1,0.7c0,0.8,0.5,1.1,1,1.5c0.2,0.2,0.4,0.3,0.6,0.5v0.2
			L50.5,43.2z M46.1,34.8c0.7,0.8,0.4,1.4,0.6,2.1l0,0c0,0-0.1,0-0.1-0.1c0,0.1,0,0.1,0.1,0.2l0,0c-0.1-0.7,0.1-1.2-0.6-1.9
			c-0.8-0.8-1.7-0.7-2.2-2c0-0.1,0-0.2,0-0.4C44.4,34.1,45.4,34,46.1,34.8z"/>
		<path class="st0" d="M64.5,24.9c-0.1,0.1-0.1,0.2-0.1,0.3l0,0l0,0l0.1,0.1c0.2,0,0.4,0,0.7,0.1c0.4,0.1,0.8,0.2,1.3,0
			c0,0.1,0.1,0.1,0.1,0.2c-0.2,0-0.3,0.1-0.3,0.3c0,0.1,0,0.2,0,0.3c0,0.1,0,0.2,0.1,0.3c0.1,0.2,0.2,0.3,0.3,0.4
			c-0.1,0.1-0.1,0.2-0.2,0.3l0,0l0,0c0,0,0,0.1,0.1,0.1c0.2,0,0.5,0.1,0.8,0.2l0,0c0.5,0.2,1,0.4,1.5,0.2c0,0,0,0,0,0.1
			c-0.2,0-0.3,0-0.4,0.1c-0.1,0.1-0.1,0.2-0.1,0.2c0,0.1,0,0.2,0,0.3c0,0.2,0.1,0.3,0.1,0.5c-0.1,0.1-0.2,0.1-0.3,0.2l0,0
			c0,0,0,0.1,0.1,0.1c0.2,0.1,0.5,0.3,0.7,0.5c0.4,0.4,1,0.9,1.8,0.8c0,0.1,0,0.2,0,0.3c-0.2-0.1-0.3,0-0.5,0.1
			c-0.1,0.1-0.1,0.1-0.2,0.2c0,0.1-0.1,0.2-0.1,0.3c0,0.2,0,0.4,0.1,0.5c-0.1,0-0.2,0.1-0.4,0.2l0,0l0,0v0.1
			c0.2,0.1,0.4,0.3,0.7,0.6c0.3,0.3,0.7,0.7,1.2,0.9c0,0,0,0.1-0.1,0.1c-0.2-0.1-0.3-0.2-0.5-0.1c-0.1,0-0.2,0.1-0.3,0.1l0,0
			c-0.1,0.1-0.1,0.1-0.2,0.2c-0.1,0.2-0.1,0.3-0.1,0.5c-0.1,0-0.3,0-0.4,0l0,0v0.1c0.2,0.2,0.3,0.5,0.4,0.8c0.1,0.4,0.3,0.9,0.6,1.3
			c0,0,0,0-0.1,0s-0.2,0-0.3,0s-0.2,0.1-0.3,0.2c-0.1,0.1-0.2,0.3-0.3,0.4c-0.1-0.1-0.3-0.1-0.4-0.1l0,0l0,0c0,0-0.1,0.1,0,0.1
			c0.1,0.2,0.1,0.6,0.1,0.9c0,0.6-0.1,1.2,0.4,1.8c0,0-0.1,0-0.1,0.1c0-0.2-0.2-0.4-0.4-0.5c-0.1,0-0.2-0.1-0.3-0.1s-0.2,0-0.3,0.1
			c-0.2,0.1-0.3,0.2-0.4,0.3c-0.1-0.1-0.2-0.2-0.4-0.3l0,0c0,0-0.1,0-0.1,0.1c0,0.3-0.1,0.6-0.3,0.9l0,0c-0.2,0.6-0.5,1.2-0.2,2
			c-0.1,0-0.3,0-0.5,0.1c0-0.3-0.2-0.4-0.4-0.5c-0.1-0.1-0.2-0.1-0.4-0.1c-0.1,0-0.3,0-0.4,0c-0.2,0.1-0.4,0.2-0.5,0.3
			c-0.1-0.1-0.2-0.3-0.4-0.4l0,0l0,0c0,0-0.1,0-0.1,0.1c0,0.3-0.2,0.6-0.4,1c-0.4,0.7-0.9,1.6-0.1,2.8c-0.4,0.1-0.9,0.3-1.5,0.4
			c-0.6,0.1-1.3,0.3-1.8,0.6C60.9,47,60.9,47,61,47.1c0.2,0.3,0.2,0.2,0.5,0c0.4-0.3,0.9-0.5,1.4-0.6c0.4-0.1,1-0.3,1.6-0.4l0.1,0.1
			l0,0l0,0c1.1,1.4,2.2,1.1,3.1,0.9c0.4-0.1,0.7-0.2,1-0.1c0,0,0,0,0.1,0v-0.1c-0.1-0.1-0.2-0.3-0.3-0.4c0.1,0,0.2-0.1,0.3-0.2
			c0.1-0.1,0.2-0.3,0.2-0.5s0-0.4,0-0.5c-0.1-0.3-0.2-0.5-0.5-0.7c0.1-0.2,0.2-0.3,0.2-0.5c0.8,0.4,1.5,0.1,2.1-0.1
			c0.3-0.1,0.6-0.2,0.9-0.2l0,0c0,0,0,0,0.1,0v-0.1c-0.1-0.1-0.2-0.2-0.3-0.3c0.1-0.1,0.2-0.1,0.2-0.2c0.1-0.1,0.1-0.3,0.2-0.5
			c0-0.2,0-0.3,0-0.5c-0.1-0.2-0.2-0.4-0.5-0.6c0.1-0.2,0.1-0.5,0.1-0.7c0.9,0.2,1.4-0.3,1.9-0.7l0,0c0.2-0.2,0.5-0.4,0.7-0.5l0,0
			l0,0v-0.1c-0.1-0.1-0.1-0.1-0.2-0.1c0-0.1,0-0.3,0-0.4c0,0,0-0.1-0.1-0.1c0-0.4-0.3-0.9-0.7-0.9c0-0.1,0-0.2-0.1-0.3l0,0
			c0.7-0.2,1.1-0.8,1.3-1.3c0.2-0.3,0.3-0.5,0.5-0.7l0,0c0,0,0-0.1-0.1-0.1s-0.2-0.1-0.4-0.1c0-0.1,0-0.2,0-0.3s-0.1-0.3-0.2-0.4
			c0,0,0,0,0-0.1s0-0.2-0.1-0.2c-0.1-0.1-0.2-0.2-0.3-0.3c-0.2-0.1-0.4-0.1-0.6-0.1l0,0l0,0l0,0c0-0.1-0.1-0.1-0.1-0.2
			c0-0.1,0-0.1-0.1-0.2c0.9-0.5,1-1.3,1-2c0-0.3,0-0.6,0.1-0.8c0,0,0,0,0-0.1l-0.1-0.1c-0.1,0-0.2,0.1-0.3,0.1c0,0,0,0-0.1,0
			c0,0,0,0-0.1,0V31c0,0,0,0,0,0.1c-0.1,0.1-0.1,0.1-0.1,0.2c0.1-0.1,0.1-0.1,0.2-0.2h0.1c0.1,0,0.1-0.1,0.2-0.1
			c-0.1,0.2-0.1,0.5-0.1,0.7c0,0.7,0,1.4-0.9,1.9l-0.1-0.1c0,0,0,0,0.1,0c0,0,0,0-0.1-0.1h0.1c0,0,0,0-0.1-0.1c0,0,0,0-0.1,0
			c-0.2-0.1-0.3-0.2-0.5-0.2c-0.2,0-0.4,0-0.5,0.1s-0.2,0.2-0.3,0.3c-0.5-0.1-0.9-0.5-1.2-0.9c-0.2-0.2-0.4-0.4-0.6-0.6
			c0.1-0.1,0.2-0.1,0.3-0.1h0.1c0.1,0,0.1,0,0.2,0c0.2,0,0.3,0,0.4,0.1c0.1,0,0.1,0.1,0.2,0.1c0.1,0,0.1,0.1,0.2,0.1s0.1,0,0.2,0.1
			l0,0c0,0,0,0,0-0.1l0,0l0,0l0,0c-0.1-0.5,0-0.9,0.1-1.2c0-0.1,0.1-0.3,0.1-0.4c0.1,0.1,0.2,0.1,0.3,0.2c0.2,0.1,0.6,0.3,1,0.9
			c0,0,0,0,0.1,0l0.1-0.1c0.1-0.1,0.1-0.1,0.2-0.2c0.1-0.1,0.2-0.3,0.3-0.4c0,0,0.1-0.1,0.1-0.2c0,0,0,0,0-0.1v-0.1c0,0,0,0,0.1,0
			c0,0,0,0,0.1,0c0-0.1-0.1-0.2-0.1-0.3c-0.1-0.1-0.2-0.2-0.3-0.3c-0.1-0.1-0.3-0.1-0.5-0.2c-0.2,0-0.4,0-0.6,0.2
			c-0.1-0.1-0.3-0.2-0.4-0.3c0.5-0.5,0.4-1.2,0.4-1.7c0-0.3-0.1-0.6,0-0.8c0,0,0,0,0-0.1L72,27.1c-0.1,0-0.2,0.1-0.3,0.1
			c0-0.1-0.1-0.2-0.1-0.2c-0.1-0.1-0.2-0.2-0.4-0.3c-0.1-0.1-0.3-0.1-0.5-0.1c-0.2,0-0.4,0.1-0.5,0.2c-0.1-0.1-0.3-0.2-0.5-0.3
			c0.4-0.8,0-1.4-0.3-2c-0.1-0.3-0.3-0.5-0.3-0.7l0,0c0,0,0,0,0-0.1H69c-0.1,0.1-0.2,0.2-0.2,0.2c-0.1-0.1-0.2-0.2-0.3-0.2
			c-0.1-0.1-0.3-0.1-0.4-0.1l0,0c-0.1,0-0.3,0-0.4,0.1l0,0c-0.2,0.1-0.3,0.2-0.4,0.4c-0.1,0-0.1,0-0.2-0.1c0.2-0.6-0.2-1.1-0.5-1.6
			c-0.2-0.2-0.3-0.4-0.3-0.6l0,0c0,0,0,0,0-0.1h-0.1c-0.1,0.1-0.1,0.1-0.2,0.2c-0.1-0.1-0.2-0.1-0.2-0.2c-0.1,0-0.3-0.1-0.4-0.1
			c-0.1,0-0.3,0-0.4,0.1c-0.1,0.1-0.2,0.2-0.3,0.4c-0.2-0.1-0.5,0-0.6,0c-0.1,0.1-0.2,0.2-0.3,0.3c-0.1,0.1-0.1,0.3-0.1,0.4
			c0,0.2,0.1,0.4,0.2,0.6c-0.1,0.1-0.2,0.2-0.2,0.3c0,0.1,0,0.2,0,0.3c0,0.1,0,0.2,0.1,0.2C64.3,24.7,64.4,24.8,64.5,24.9z
			 M66.6,22.3c0,0,0-0.1,0.1-0.1c0.1,0.2,0.2,0.3,0.3,0.5c0.3,0.4,0.6,0.9,0.4,1.5c-0.1,0-0.3,0-0.4,0.1c-0.2,0.1-0.3,0.2-0.4,0.3
			s-0.2,0.3-0.2,0.4c0,0.1,0,0.2,0,0.4c-0.4,0.2-0.8,0.1-1.2,0c-0.2-0.1-0.5-0.1-0.7-0.1c0-0.1,0.1-0.1,0.1-0.2c0,0,0-0.1,0.1-0.1
			c0.2-0.2,0.4-0.2,0.6-0.3c0,0,0,0,0.1,0s0.1,0,0.2-0.1l0,0c0,0,0,0,0-0.1l0,0l0,0c-0.3-0.3-0.4-0.6-0.5-0.9c0-0.1-0.1-0.2-0.1-0.3
			c0.1,0,0.2,0,0.3,0c0.2,0,0.5-0.1,1.1,0.1c0,0,0,0,0.1,0l0,0l0,0c0-0.1,0-0.2,0-0.3C66.5,22.8,66.5,22.6,66.6,22.3L66.6,22.3z
			 M69.4,24c0,0.2,0.2,0.4,0.3,0.6c0.3,0.5,0.6,1.1,0.2,1.9h-0.1c-0.2,0-0.3,0-0.5,0.1c-0.1,0.1-0.3,0.2-0.4,0.3
			c-0.1,0.1-0.1,0.3-0.1,0.5c-0.5,0.2-1,0-1.5-0.2l0,0C67,27.1,66.8,27,66.6,27c0.1-0.1,0.1-0.2,0.2-0.2c0,0,0,0,0.1-0.1
			c0.1,0,0.1-0.1,0.2-0.1c0.1,0,0.2-0.1,0.3-0.1s0.2,0,0.2,0c0.1,0,0.1,0,0.2,0s0.1,0,0.2,0l0,0c0,0,0,0,0-0.1l0,0l0,0l0,0
			c-0.3-0.4-0.4-0.7-0.5-1c0-0.1-0.1-0.2-0.1-0.3c0.1,0,0.2,0,0.3,0c0.3,0,0.6,0,1.2,0.3c0,0,0,0,0.1,0l0,0l0,0c0-0.1,0-0.2,0-0.3
			s0-0.1,0-0.2c0-0.1,0-0.2,0-0.3s0.1-0.2,0.1-0.3c0,0,0-0.1,0.1-0.1C69.3,24.1,69.4,24.1,69.4,24z M72.2,27.3c0,0.2,0,0.4,0,0.7
			c0.1,0.5,0.1,1.2-0.4,1.7h-0.1c-0.2,0-0.4,0-0.5,0.1c-0.2,0.1-0.3,0.2-0.4,0.3c0,0.1-0.1,0.1-0.1,0.2c-0.8,0.1-1.3-0.3-1.7-0.7
			c-0.2-0.2-0.4-0.4-0.6-0.5c0.1,0,0.1-0.1,0.2-0.1c0,0,0,0,0.1,0h0.1c0.3-0.1,0.6,0,0.8,0.1c0.1,0,0.1,0,0.2,0.1h0.1l0,0
			c0,0,0,0,0-0.1l0,0l0,0c-0.1-0.5-0.1-0.8,0-1.1c0-0.1,0-0.2,0-0.4c0.1,0.1,0.2,0.1,0.3,0.1c0.2,0.1,0.6,0.2,1.1,0.8h0.1l0,0
			c0.1-0.1,0.1-0.2,0.1-0.3c0.1-0.2,0.2-0.5,0.5-0.6c0,0,0.1,0,0.1-0.1c0,0,0,0,0.1,0C72.1,27.3,72.2,27.3,72.2,27.3z M74.4,35.6
			L74.4,35.6C74.3,35.7,74.3,35.7,74.4,35.6c-0.2,0.1-0.2,0.2-0.3,0.2c0.1,0,0.2,0,0.2,0h0.1c0.1,0,0.2,0,0.3,0
			c-0.2,0.1-0.3,0.4-0.4,0.6c-0.3,0.5-0.6,1-1.2,1.2c0-0.1,0-0.1,0-0.2c0,0,0,0,0-0.1c0,0,0,0,0.1,0c0,0,0,0,0-0.1c0,0,0,0,0-0.1
			c-0.1-0.2-0.3-0.3-0.4-0.4c-0.2-0.1-0.4-0.1-0.6-0.1s-0.4,0.1-0.5,0.2c-0.7-0.4-0.8-1-1-1.5c-0.1-0.3-0.2-0.6-0.3-0.8
			c0.1,0,0.2,0,0.3,0h0.1c0.1,0,0.1,0,0.2,0.1c0.2,0.1,0.3,0.2,0.4,0.3c0,0.1,0.1,0.1,0.1,0.2c0,0.1,0.1,0.1,0.1,0.2l0.1,0.1l0,0
			h0.1l0,0l0,0c0.2-0.5,0.4-0.8,0.6-1c0.1-0.1,0.2-0.2,0.2-0.3c0,0.1,0.1,0.2,0.2,0.3c0.2,0.2,0.4,0.5,0.5,1.2c0,0,0,0.1,0.1,0.1
			l0.1-0.1c0.1,0,0.1-0.1,0.2-0.1c0.2-0.1,0.3-0.2,0.6-0.2c0,0,0.1,0,0.2-0.1l0,0c0,0,0-0.1,0.1-0.1l0,0v0.1
			C74.5,35.4,74.5,35.5,74.4,35.6z M70.9,43.9c-0.6,0.2-1.3,0.5-2,0.1c0-0.1,0-0.1,0-0.2c0-0.2-0.1-0.4-0.3-0.6
			c-0.1-0.2-0.3-0.3-0.6-0.4c-0.1,0-0.2-0.1-0.3-0.1c-0.4-0.8-0.1-1.4,0.2-2l0,0c0.1-0.3,0.2-0.6,0.3-0.9c0.1,0.1,0.2,0.2,0.3,0.3
			c0,0,0,0.1,0.1,0.1l0.1,0.1c0.1,0.2,0.1,0.4,0.2,0.6V41c0,0.1,0,0.2,0,0.3v0.1l0,0c0,0,0,0,0.1,0l0,0l0,0l0,0
			c0.5-0.3,0.9-0.3,1.2-0.4c0.2,0,0.3,0,0.4-0.1c0,0.1,0,0.2,0,0.4c0,0.3,0,0.7-0.4,1.4v0.1l0,0l0,0c0.1,0,0.1,0,0.2,0s0.1,0,0.2,0
			c0.2,0.1,0.5,0.1,0.7,0.2c0.1,0,0.1,0.1,0.2,0.1c0,0,0.1,0,0.1,0.1c0.1,0.1,0.1,0.1,0.2,0.2C71.4,43.7,71.2,43.8,70.9,43.9z
			 M64.8,46.2L64.8,46.2L64.8,46.2c-0.1-0.2-0.2-0.2-0.2-0.3c-0.7-1.2-0.3-2,0.1-2.7c0.2-0.3,0.3-0.6,0.4-0.9
			c0.1,0.1,0.2,0.2,0.3,0.3c0,0,0,0.1,0.1,0.1c0,0,0,0.1,0.1,0.1c0.1,0.3,0.1,0.6,0.1,0.9c0,0,0,0,0,0.1l0,0l0,0c0,0.2,0,0.3,0,0.4
			c0,0,0,0.1,0.1,0.1l0,0l0,0l0,0c0.6-0.3,1-0.3,1.4-0.3l0,0c0.2,0,0.3,0,0.5,0c-0.1,0.1-0.1,0.3-0.1,0.4c0,0.3-0.1,0.8-0.6,1.5V46
			l0,0c0.1,0,0.2,0.1,0.4,0.1c0.3,0.1,0.6,0.2,0.9,0.4l0.1,0.1c0,0,0.1,0,0.1,0.1c0.1,0.1,0.2,0.2,0.2,0.3c-0.3,0-0.6,0.1-0.9,0.2
			C66.9,47.3,65.8,47.6,64.8,46.2z M74,39.7C74,39.7,73.9,39.7,74,39.7C73.9,39.7,73.9,39.7,74,39.7L74,39.7z M73.9,39.5
			C73.9,39.5,73.8,39.5,73.9,39.5C73.8,39.6,73.8,39.6,73.9,39.5c-0.1,0.1,0,0.1,0,0.2s-0.1,0.1-0.1,0.2h-0.1c0,0,0,0-0.1,0.1
			c0,0,0,0-0.1,0h-0.1c0.1,0,0.1,0,0.2,0l0,0c-0.1,0.1-0.2,0.2-0.3,0.2l0,0c-0.5,0.4-1,0.9-1.8,0.7c-0.1-0.2-0.2-0.4-0.3-0.5
			s-0.3-0.3-0.5-0.3c-0.2,0-0.3,0-0.5,0c-0.5-0.6-0.4-1.2-0.4-1.7c0-0.3,0-0.6,0-0.9c0.1,0,0.2,0.1,0.3,0.1h0.1l0.1,0.1
			c0.2,0.2,0.3,0.4,0.3,0.5v0.1c0,0.1,0.1,0.2,0.1,0.2s0,0.1,0.1,0.1l0,0h0.1l0,0l0,0l0,0c0.3-0.4,0.7-0.6,0.9-0.7
			c0.1-0.1,0.2-0.1,0.4-0.2c0,0.1,0,0.2,0.1,0.4c0.1,0.3,0.2,0.6,0.1,1.4v0.1l0,0l0,0c0.1,0,0.1,0,0.2,0c0,0,0.1,0,0.2,0
			c0.2,0,0.5-0.1,0.7,0h0.1c0,0,0,0,0.1,0C73.7,39.6,73.7,39.6,73.9,39.5C73.8,39.4,73.8,39.4,73.9,39.5c0-0.1,0-0.2,0.1-0.3
			C74,39.2,74,39.4,73.9,39.5L73.9,39.5z M73.2,38L73.2,38L73.2,38L73.2,38z"/>
		<path class="st0" d="M73,32.1C73,32.1,73.1,32.1,73,32.1C73.1,32.1,73.1,32.1,73,32.1c0.1-0.1,0.2-0.2,0.2-0.3l0,0
			C73.2,31.9,73.1,31.9,73,32.1C73.1,32,73.1,32,73,32.1z"/>
		<path class="st0" d="M73.3,36.1L73.3,36.1L73.3,36.1L73.3,36.1c0.1,0,0.2-0.1,0.3-0.1l0,0C73.5,36,73.5,36,73.3,36.1L73.3,36.1z"
			/>
	</g>
	<g>
		<path class="st0" d="M103.3,46v-9.8h3.4c1.5,0,2.7,0.4,3.5,1.2s1.2,2.1,1.2,3.7c0,1.6-0.4,2.8-1.2,3.6c-0.8,0.8-1.9,1.2-3.5,1.2
			L103.3,46L103.3,46z M105,44.5h1.6c1,0,1.8-0.3,2.2-0.8c0.4-0.5,0.7-1.4,0.7-2.5c0-1.2-0.2-2-0.7-2.5c-0.4-0.5-1.2-0.8-2.2-0.8
			H105V44.5z"/>
		<path class="st0" d="M113.1,46v-9.8h1.8V46H113.1z"/>
		<path class="st0" d="M117,46v-9.8h2l5,7.3v-7.3h1.8V46h-2l-5.1-7.3V46H117z"/>
		<path class="st0" d="M127.2,46l3.9-9.8h1.9l3.9,9.8H135l-0.9-2.4H130l-0.9,2.4H127.2z M130.6,42.1h2.9l-1.5-3.8L130.6,42.1z"/>
		<path class="st0" d="M137.9,39c0-0.9,0.3-1.7,1-2.1c0.7-0.5,1.5-0.7,2.5-0.7c0.9,0,1.8,0.2,2.6,0.7v1.7c-0.8-0.5-1.6-0.7-2.4-0.7
			c-0.5,0-1,0.1-1.4,0.3c-0.4,0.2-0.6,0.5-0.6,0.9c0,0.3,0.2,0.6,0.5,0.8s0.8,0.3,1.2,0.5c0.5,0.1,1,0.3,1.5,0.5s0.9,0.5,1.2,1
			s0.5,1.1,0.5,1.8c0,0.8-0.3,1.4-1,1.9s-1.5,0.7-2.4,0.7c-1.2,0-2.3-0.3-3.2-0.8v-1.8c0.8,0.6,1.8,0.9,2.8,0.9c1.3,0,2-0.4,2-1.1
			c0-0.3-0.1-0.6-0.4-0.8s-0.6-0.4-0.9-0.5c-0.4-0.1-0.8-0.2-1.2-0.4c-0.4-0.1-0.8-0.3-1.2-0.5s-0.7-0.4-0.9-0.8
			C138,40,137.9,39.5,137.9,39z"/>
		<path class="st0" d="M151,46v-9.8h1.8v4.2l3.7-4.1h2.4l-4,4.3l4.4,5.5H157l-3.3-4.2l-1,1.1v3.2H151V46z"/>
		<path class="st0" d="M160.8,41.9v-5.7h1.8V42c0,0.9,0.2,1.5,0.6,1.9c0.4,0.4,1,0.6,1.8,0.6s1.4-0.2,1.8-0.6s0.6-1,0.6-1.9v-5.8
			h1.8v5.7c0,1.4-0.4,2.4-1.1,3.1c-0.7,0.7-1.7,1.1-3,1.1s-2.3-0.4-3-1.1C161.1,44.3,160.8,43.3,160.8,41.9z"/>
		<path class="st0" d="M171,46v-9.8h1.8v4.2l3.7-4.1h2.4l-4,4.3l4.4,5.5h-2.2l-3.3-4.2l-1,1.1v3.2H171V46z"/>
		<path class="st0" d="M180.8,46v-9.8h2l2.8,4.1l2.8-4.1h2V46h-1.8v-7.2l-3,4.3l-3-4.3V46H180.8z"/>
		<path class="st0" d="M103.3,63.7v-9.8h3.7c1.2,0,2.1,0.3,2.7,0.9c0.6,0.6,0.9,1.4,0.9,2.4s-0.3,1.9-0.9,2.4
			c-0.7,0.6-1.6,0.8-2.8,0.8H105v3.2L103.3,63.7L103.3,63.7z M105,58.9h1.8c0.8,0,1.3-0.1,1.6-0.4c0.3-0.3,0.4-0.7,0.4-1.3
			s-0.1-1-0.4-1.2c-0.3-0.3-0.8-0.4-1.6-0.4H105V58.9z"/>
		<path class="st0" d="M112,63.7v-9.8h3.8c1.1,0,2,0.3,2.7,0.8c0.6,0.5,1,1.3,1,2.3c0,1.5-0.7,2.5-2.2,2.9l2.6,3.7h-2.1l-2.3-3.5
			h-1.6v3.5L112,63.7L112,63.7z M113.8,58.6h2c0.6,0,1.1-0.1,1.4-0.3s0.5-0.6,0.5-1.2c0-0.6-0.2-1-0.5-1.2s-0.8-0.3-1.4-0.3h-2V58.6
			z"/>
		<path class="st0" d="M120.7,58.8c0-0.8,0.1-1.5,0.3-2.1c0.2-0.6,0.4-1.1,0.7-1.5c0.3-0.4,0.6-0.7,1.1-0.9c0.4-0.2,0.8-0.4,1.2-0.5
			c0.4-0.1,0.8-0.1,1.3-0.1s0.9,0,1.3,0.1s0.8,0.2,1.2,0.5c0.4,0.2,0.8,0.5,1.1,0.9c0.3,0.4,0.5,0.8,0.7,1.5
			c0.2,0.6,0.3,1.3,0.3,2.1s-0.1,1.5-0.3,2.1c-0.2,0.6-0.4,1.1-0.7,1.5s-0.7,0.6-1.1,0.9c-0.4,0.2-0.8,0.4-1.2,0.5
			c-0.4,0.1-0.8,0.1-1.3,0.1s-0.9,0-1.3-0.1s-0.8-0.2-1.2-0.5c-0.4-0.2-0.8-0.5-1.1-0.9c-0.3-0.4-0.5-0.8-0.7-1.5
			C120.8,60.3,120.7,59.6,120.7,58.8z M122.5,58.8c0,0.7,0.1,1.3,0.2,1.8s0.4,0.8,0.6,1.1c0.3,0.2,0.6,0.4,0.9,0.5s0.7,0.1,1.1,0.1
			c0.3,0,0.6,0,0.9-0.1c0.2,0,0.5-0.1,0.8-0.3c0.3-0.1,0.5-0.3,0.6-0.6c0.2-0.3,0.3-0.6,0.4-1c0.1-0.4,0.2-0.9,0.2-1.5
			c0-0.7-0.1-1.3-0.2-1.8c-0.1-0.5-0.4-0.8-0.7-1.1c-0.3-0.2-0.6-0.4-0.9-0.5s-0.7-0.1-1.1-0.1c-0.3,0-0.6,0-0.9,0.1
			s-0.5,0.1-0.8,0.3c-0.3,0.1-0.5,0.3-0.6,0.6c-0.2,0.2-0.3,0.6-0.4,1S122.5,58.2,122.5,58.8z"/>
		<path class="st0" d="M130.4,53.9h1.9l2.8,7.6l2.8-7.6h1.9l-3.7,9.8h-1.8L130.4,53.9z"/>
		<path class="st0" d="M140.9,63.7v-9.8h1.8v9.8H140.9z"/>
		<path class="st0" d="M144.8,63.7v-9.8h2l5,7.3v-7.3h1.8v9.8h-2l-5.1-7.3v7.3H144.8z"/>
		<path class="st0" d="M155.4,56.6c0-0.9,0.3-1.7,1-2.1c0.7-0.5,1.5-0.7,2.5-0.7c0.9,0,1.8,0.2,2.6,0.7v1.7
			c-0.8-0.5-1.6-0.7-2.4-0.7c-0.5,0-1,0.1-1.4,0.3s-0.6,0.5-0.6,0.9c0,0.3,0.2,0.6,0.5,0.8s0.8,0.3,1.2,0.5c0.5,0.1,1,0.3,1.5,0.5
			s0.9,0.5,1.2,1s0.5,1.1,0.5,1.8c0,0.8-0.3,1.4-1,1.9s-1.5,0.7-2.4,0.7c-1.2,0-2.3-0.3-3.2-0.8v-1.8c0.8,0.6,1.8,0.9,2.8,0.9
			c1.3,0,2-0.4,2-1.1c0-0.3-0.1-0.6-0.4-0.8c-0.2-0.2-0.6-0.4-0.9-0.5c-0.4-0.1-0.8-0.2-1.2-0.4c-0.4-0.1-0.8-0.3-1.2-0.5
			s-0.7-0.4-0.9-0.8C155.5,57.6,155.4,57.2,155.4,56.6z"/>
		<path class="st0" d="M163.9,63.7v-9.8h1.8v9.8H163.9z"/>
		<path class="st0" d="M171.6,63.1v-1.7c0.6,0.5,1.3,0.7,2,0.7c0.5,0,1-0.1,1.2-0.3c0.3-0.2,0.4-0.7,0.4-1.3v-6.6h1.8v6.5
			c0,0.7-0.1,1.3-0.3,1.8s-0.5,0.8-0.8,1.1c-0.3,0.2-0.7,0.4-1,0.5s-0.7,0.1-1,0.1C173,63.8,172.3,63.6,171.6,63.1z"/>
		<path class="st0" d="M178.1,63.7l3.9-9.8h1.9l3.9,9.8h-1.9l-0.9-2.4h-4.1l-0.9,2.4H178.1z M181.5,59.7h2.9l-1.5-3.8L181.5,59.7z"
			/>
		<path class="st0" d="M187.5,53.9h1.8l2.2,7.4l2.4-7.4h1.5l2.3,7.1l2.2-7.1h1.8l-3.1,9.8h-1.7l-2.2-6.8l-2.2,6.8h-1.8L187.5,53.9z"
			/>
		<path class="st0" d="M201.4,63.7l3.9-9.8h1.9l3.9,9.8h-1.9l-0.9-2.4h-4.1l-0.9,2.4H201.4z M204.8,59.7h2.9l-1.5-3.8L204.8,59.7z"
			/>
		<path class="st0" d="M216.9,63.7v-9.8h3.5c0.4,0,0.9,0,1.2,0.1c0.4,0.1,0.7,0.2,1.1,0.4c0.3,0.2,0.6,0.5,0.8,0.9s0.3,0.8,0.3,1.3
			c0,0.9-0.4,1.5-1.2,1.9c1.1,0.4,1.7,1.2,1.7,2.3c0,0.3,0,0.5-0.1,0.7c0,0.2-0.1,0.5-0.3,0.8s-0.4,0.5-0.6,0.7
			c-0.3,0.2-0.6,0.4-1,0.5s-1,0.2-1.6,0.2C220.7,63.7,216.9,63.7,216.9,63.7z M218.7,57.9h1.9c1,0,1.5-0.4,1.5-1.2
			c0-0.9-0.6-1.3-1.7-1.3h-1.7V57.9z M218.7,62.1h2c1.3,0,1.9-0.5,1.9-1.4c0-0.8-0.7-1.3-2-1.3h-2v2.7H218.7z"/>
		<path class="st0" d="M225.2,63.7l3.9-9.8h1.9l3.9,9.8H233l-0.9-2.4H228l-0.9,2.4H225.2z M228.6,59.7h2.9l-1.5-3.8L228.6,59.7z"/>
		<path class="st0" d="M236.1,63.7v-9.8h3.8c1.1,0,2,0.3,2.7,0.8c0.6,0.5,1,1.3,1,2.3c0,1.5-0.7,2.5-2.2,2.9l2.6,3.7h-2.1l-2.3-3.5
			H238v3.5L236.1,63.7L236.1,63.7z M237.9,58.6h2c0.6,0,1.1-0.1,1.4-0.3c0.3-0.2,0.5-0.6,0.5-1.2c0-0.6-0.2-1-0.5-1.2
			s-0.8-0.3-1.4-0.3h-2V58.6z"/>
		<path class="st0" d="M244.8,63.7l3.9-9.8h1.9l3.9,9.8h-1.9l-0.9-2.4h-4.1l-0.9,2.4H244.8z M248.2,59.7h2.9l-1.5-3.8L248.2,59.7z"
			/>
		<path class="st0" d="M253.6,55.6v-1.8h8v1.8h-3.1v8h-1.8v-8H253.6z"/>
	</g>
</g>
</svg>
