<?xml version="1.0" encoding="utf-8"?>
<!-- Generator: Adobe Illustrator 21.0.0, SVG Export Plug-In . SVG Version: 6.00 Build 0)  -->
<svg version="1.1" id="Layer_1" xmlns="http://www.w3.org/2000/svg" xmlns:xlink="http://www.w3.org/1999/xlink" x="0px" y="0px"
	 viewBox="0 0 290 100" style="enable-background:new 0 0 290 100;" xml:space="preserve">
<style type="text/css">
	.st0{fill:#555555;stroke:#555555;stroke-width:0.5;stroke-miterlimit:10;}
	.st1{fill:#555555;}
</style>
<path class="st0" d="M84.4,50"/>
<path class="st0" d="M84.4,50"/>
<g>
	<g>
		<path class="st1" d="M10,45.2h6v7.3l6.3-7.3h8l-7.1,7.3l7.4,12.1h-7.4l-4.1-8L16,59.9v4.7h-6V45.2z"/>
		<path class="st1" d="M45.5,58.9H34.7c0.1,0.9,0.3,1.5,0.7,1.9c0.5,0.6,1.2,0.9,2,0.9c0.5,0,1-0.1,1.5-0.4c0.3-0.2,0.6-0.5,0.9-0.9
			l5.3,0.5c-0.8,1.4-1.8,2.4-2.9,3c-1.1,0.6-2.8,0.9-4.9,0.9c-1.9,0-3.3-0.3-4.4-0.8c-1.1-0.5-2-1.4-2.7-2.5c-0.7-1.1-1.1-2.5-1.1-4
			c0-2.2,0.7-4,2.1-5.3c1.4-1.4,3.3-2,5.8-2c2,0,3.6,0.3,4.8,0.9c1.2,0.6,2.1,1.5,2.7,2.6c0.6,1.2,0.9,2.7,0.9,4.5V58.9z M40,56.3
			c-0.1-1-0.4-1.8-0.8-2.2s-1.1-0.7-1.8-0.7c-0.9,0-1.5,0.3-2.1,1c-0.3,0.4-0.5,1.1-0.6,1.9H40z"/>
		<path class="st1" d="M46.8,45.2h5.4v19.4h-5.4V45.2z"/>
		<path class="st1" d="M54.5,45.2h5.4v3.7h-5.4V45.2z M54.5,50.5h5.4v14.1h-5.4V50.5z"/>
		<path class="st1" d="M61.9,50.5h5v2.3c0.7-0.9,1.5-1.6,2.3-2c0.8-0.4,1.7-0.6,2.8-0.6c1.5,0,2.7,0.4,3.5,1.3
			c0.8,0.9,1.3,2.3,1.3,4.1v8.9h-5.4v-7.7c0-0.9-0.2-1.5-0.5-1.9c-0.3-0.4-0.8-0.5-1.4-0.5c-0.7,0-1.2,0.2-1.6,0.7
			c-0.4,0.5-0.6,1.4-0.6,2.7v6.7h-5.4V50.5z"/>
		<path class="st1" d="M88.4,50.5h5v13.3l0,0.6c0,0.9-0.2,1.7-0.6,2.5c-0.4,0.8-0.9,1.4-1.5,1.9c-0.6,0.5-1.4,0.9-2.4,1.1
			c-1,0.2-2.1,0.3-3.3,0.3C83,70.3,81,69.9,80,69s-1.6-2-1.6-3.4c0-0.2,0-0.4,0-0.7l5.2,0.6c0.1,0.5,0.3,0.8,0.6,1
			c0.4,0.3,0.9,0.4,1.5,0.4c0.8,0,1.4-0.2,1.7-0.6c0.4-0.4,0.6-1.1,0.6-2.2V62c-0.5,0.6-1.1,1.1-1.6,1.4c-0.8,0.4-1.7,0.7-2.7,0.7
			c-1.9,0-3.4-0.8-4.6-2.5c-0.8-1.2-1.2-2.7-1.2-4.6c0-2.2,0.5-3.9,1.6-5c1.1-1.1,2.4-1.7,4.2-1.7c1.1,0,2,0.2,2.7,0.6
			c0.7,0.4,1.4,1,2,1.8V50.5z M83.4,57.4c0,1,0.2,1.8,0.6,2.3c0.4,0.5,1,0.7,1.7,0.7c0.7,0,1.2-0.3,1.7-0.8c0.5-0.5,0.7-1.3,0.7-2.3
			c0-1-0.2-1.8-0.7-2.3c-0.5-0.5-1.1-0.8-1.7-0.8s-1.2,0.2-1.6,0.7C83.6,55.4,83.4,56.2,83.4,57.4z"/>
		<path class="st1" d="M95.7,64.6V45.2h2.6v9.6l9.6-9.6h3.5l-8.1,7.9l8.5,11.5h-3.4l-6.9-9.8l-3.2,3.1v6.7H95.7z"/>
		<path class="st1" d="M121.5,64.6v-2.1c-1.1,1.6-2.6,2.4-4.5,2.4c-0.8,0-1.6-0.2-2.3-0.5s-1.3-0.7-1.6-1.2
			c-0.3-0.5-0.6-1.1-0.7-1.8c-0.1-0.5-0.1-1.2-0.1-2.2v-8.7h2.4v7.8c0,1.2,0,2.1,0.1,2.5c0.1,0.6,0.5,1.1,1,1.5
			c0.5,0.4,1.1,0.5,1.8,0.5c0.7,0,1.4-0.2,2-0.5c0.6-0.4,1.1-0.9,1.3-1.5c0.3-0.6,0.4-1.5,0.4-2.7v-7.5h2.4v14.1H121.5z"/>
		<path class="st1" d="M126,64.6V50.5h2.1v2c0.4-0.7,1-1.2,1.8-1.7c0.7-0.4,1.6-0.6,2.5-0.6c1,0,1.9,0.2,2.6,0.6
			c0.7,0.4,1.1,1,1.4,1.8c1.1-1.6,2.6-2.5,4.3-2.5c1.4,0,2.5,0.4,3.2,1.2c0.7,0.8,1.1,2,1.1,3.6v9.6h-2.4v-8.9c0-1-0.1-1.6-0.2-2.1
			c-0.2-0.4-0.4-0.8-0.8-1c-0.4-0.3-0.9-0.4-1.4-0.4c-1,0-1.8,0.3-2.5,1c-0.7,0.7-1,1.7-1,3.2v8.2h-2.4v-9.1c0-1.1-0.2-1.9-0.6-2.4
			c-0.4-0.5-1-0.8-1.9-0.8c-0.7,0-1.3,0.2-1.9,0.5c-0.6,0.4-1,0.9-1.2,1.5c-0.3,0.7-0.4,1.7-0.4,2.9v7.3H126z"/>
		<path class="st1" d="M156.4,62.9c-0.9,0.7-1.7,1.3-2.5,1.6c-0.8,0.3-1.7,0.5-2.6,0.5c-1.5,0-2.7-0.4-3.6-1.1s-1.2-1.7-1.2-2.9
			c0-0.7,0.2-1.3,0.5-1.9c0.3-0.6,0.7-1,1.2-1.4s1.1-0.6,1.7-0.8c0.5-0.1,1.2-0.2,2.1-0.4c1.9-0.2,3.3-0.5,4.2-0.8
			c0-0.3,0-0.5,0-0.6c0-1-0.2-1.7-0.7-2.1c-0.6-0.5-1.5-0.8-2.7-0.8c-1.1,0-1.9,0.2-2.5,0.6c-0.5,0.4-0.9,1.1-1.2,2.1l-2.3-0.3
			c0.2-1,0.6-1.8,1-2.4c0.5-0.6,1.2-1.1,2.1-1.4s2-0.5,3.2-0.5c1.2,0,2.2,0.1,2.9,0.4c0.7,0.3,1.3,0.6,1.7,1.1
			c0.4,0.4,0.6,1,0.7,1.6c0.1,0.4,0.1,1.1,0.1,2.2v3.2c0,2.2,0.1,3.6,0.2,4.2c0.1,0.6,0.3,1.1,0.6,1.7h-2.5
			C156.6,64.1,156.4,63.5,156.4,62.9z M156.2,57.5c-0.9,0.4-2.2,0.7-3.9,0.9c-1,0.1-1.7,0.3-2.1,0.5c-0.4,0.2-0.7,0.4-0.9,0.8
			c-0.2,0.3-0.3,0.7-0.3,1.1c0,0.6,0.2,1.2,0.7,1.6c0.5,0.4,1.2,0.6,2.1,0.6c0.9,0,1.7-0.2,2.4-0.6c0.7-0.4,1.2-1,1.6-1.6
			c0.3-0.5,0.4-1.3,0.4-2.4V57.5z"/>
		<path class="st1" d="M160.9,64.6V50.5h2.1v2c1-1.5,2.5-2.3,4.5-2.3c0.8,0,1.6,0.2,2.3,0.5c0.7,0.3,1.2,0.7,1.6,1.2
			c0.4,0.5,0.6,1.1,0.7,1.8c0.1,0.4,0.1,1.2,0.1,2.3v8.6h-2.4V56c0-1-0.1-1.7-0.3-2.2c-0.2-0.5-0.5-0.9-1-1.2
			c-0.5-0.3-1-0.4-1.7-0.4c-1,0-1.9,0.3-2.6,1c-0.7,0.6-1.1,1.9-1.1,3.7v7.7H160.9z"/>
		<path class="st1" d="M174.2,65.8l2.3,0.3c0.1,0.7,0.4,1.2,0.8,1.6c0.6,0.4,1.4,0.7,2.4,0.7c1.1,0,2-0.2,2.6-0.7
			c0.6-0.4,1-1.1,1.2-1.9c0.1-0.5,0.2-1.5,0.2-3.1c-1,1.2-2.3,1.8-3.9,1.8c-1.9,0-3.4-0.7-4.5-2.1c-1.1-1.4-1.6-3.1-1.6-5
			c0-1.3,0.2-2.6,0.7-3.7c0.5-1.1,1.2-2,2.1-2.6c0.9-0.6,2-0.9,3.2-0.9c1.7,0,3,0.7,4.1,2v-1.7h2.2v12.1c0,2.2-0.2,3.7-0.7,4.7
			c-0.4,0.9-1.2,1.6-2.1,2.2s-2.2,0.8-3.6,0.8c-1.7,0-3-0.4-4.1-1.1C174.7,68.4,174.2,67.3,174.2,65.8z M176.2,57.3
			c0,1.8,0.4,3.2,1.1,4s1.6,1.3,2.8,1.3c1.1,0,2-0.4,2.8-1.3c0.7-0.8,1.1-2.2,1.1-4c0-1.7-0.4-3-1.1-3.9c-0.8-0.9-1.7-1.3-2.8-1.3
			c-1.1,0-2,0.4-2.7,1.3C176.5,54.3,176.2,55.6,176.2,57.3z"/>
	</g>
	<path class="st1" d="M10,34.4c0,0,127.3-0.4,176.1-3.9c0,0.2,0-9.4,0-9.4S83.4,33.9,10,33.3V34.4z"/>
	<g>
		<path class="st1" d="M10.4,78.8v-3.8h1.2l0.7,2.6l0.7-2.6h1.2v3.8h-0.7v-3l-0.8,3h-0.7l-0.8-3v3H10.4z"/>
		<path class="st1" d="M19.1,78.8v-3.8H22v0.7h-2.1v0.9h1.9v0.6h-1.9v1h2.1v0.6H19.1z"/>
		<path class="st1" d="M27,78.8v-3.8h1.2l0.7,2.6l0.7-2.6h1.2v3.8H30v-3l-0.8,3h-0.7l-0.8-3v3H27z"/>
		<path class="st1" d="M35.8,74.9h1.5c0.3,0,0.5,0,0.7,0s0.3,0.1,0.4,0.2c0.1,0.1,0.2,0.2,0.3,0.3c0.1,0.1,0.1,0.3,0.1,0.4
			c0,0.2,0,0.3-0.1,0.5c-0.1,0.2-0.2,0.3-0.4,0.3c0.2,0.1,0.4,0.2,0.5,0.3s0.2,0.4,0.2,0.6c0,0.2,0,0.3-0.1,0.5
			c-0.1,0.2-0.2,0.3-0.3,0.4c-0.1,0.1-0.3,0.2-0.5,0.2c-0.1,0-0.4,0-0.9,0h-1.3V74.9z M36.6,75.6v0.9h0.5c0.3,0,0.5,0,0.6,0
			c0.1,0,0.2-0.1,0.3-0.1s0.1-0.2,0.1-0.3c0-0.1,0-0.2-0.1-0.3c-0.1-0.1-0.2-0.1-0.3-0.1c-0.1,0-0.3,0-0.7,0H36.6z M36.6,77.1v1h0.7
			c0.3,0,0.5,0,0.5,0c0.1,0,0.2-0.1,0.3-0.2s0.1-0.2,0.1-0.3c0-0.1,0-0.2-0.1-0.3c-0.1-0.1-0.1-0.1-0.2-0.2c-0.1,0-0.3-0.1-0.7-0.1
			H36.6z"/>
		<path class="st1" d="M44,78.8v-3.8h2.8v0.7h-2.1v0.9h1.9v0.6h-1.9v1h2.1v0.6H44z"/>
		<path class="st1" d="M51.8,78.8v-3.8h1.6c0.4,0,0.7,0,0.9,0.1c0.2,0.1,0.3,0.2,0.4,0.4c0.1,0.2,0.2,0.4,0.2,0.6
			c0,0.3-0.1,0.5-0.3,0.7c-0.2,0.2-0.4,0.3-0.8,0.4c0.2,0.1,0.3,0.2,0.4,0.3c0.1,0.1,0.3,0.3,0.4,0.6l0.5,0.7h-0.9l-0.6-0.8
			c-0.2-0.3-0.3-0.5-0.4-0.6s-0.2-0.1-0.2-0.2s-0.2,0-0.4,0h-0.2v1.6H51.8z M52.6,76.6h0.6c0.4,0,0.6,0,0.7,0c0.1,0,0.2-0.1,0.2-0.2
			c0.1-0.1,0.1-0.2,0.1-0.3c0-0.1,0-0.2-0.1-0.3c-0.1-0.1-0.2-0.1-0.3-0.2c-0.1,0-0.3,0-0.6,0h-0.6V76.6z"/>
		<path class="st1" d="M66.7,78.8v-3.2h-1.1v-0.7h3.1v0.7h-1.1v3.2H66.7z"/>
		<path class="st1" d="M73.4,74.9h1.5c0.3,0,0.5,0,0.7,0c0.1,0,0.3,0.1,0.4,0.2c0.1,0.1,0.2,0.2,0.3,0.3c0.1,0.1,0.1,0.3,0.1,0.4
			c0,0.2,0,0.3-0.1,0.5s-0.2,0.3-0.4,0.3c0.2,0.1,0.4,0.2,0.5,0.3s0.2,0.4,0.2,0.6c0,0.2,0,0.3-0.1,0.5c-0.1,0.2-0.2,0.3-0.3,0.4
			c-0.1,0.1-0.3,0.2-0.5,0.2c-0.1,0-0.4,0-0.9,0h-1.3V74.9z M74.2,75.6v0.9h0.5c0.3,0,0.5,0,0.6,0c0.1,0,0.2-0.1,0.3-0.1
			c0.1-0.1,0.1-0.2,0.1-0.3c0-0.1,0-0.2-0.1-0.3c-0.1-0.1-0.2-0.1-0.3-0.1c-0.1,0-0.3,0-0.7,0H74.2z M74.2,77.1v1h0.7
			c0.3,0,0.5,0,0.5,0c0.1,0,0.2-0.1,0.3-0.2c0.1-0.1,0.1-0.2,0.1-0.3c0-0.1,0-0.2-0.1-0.3c-0.1-0.1-0.1-0.1-0.2-0.2
			c-0.1,0-0.3-0.1-0.7-0.1H74.2z"/>
		<path class="st1" d="M81.6,78.8V75h0.8v3.2h1.9v0.6H81.6z"/>
		<path class="st1" d="M94.8,78.8v-3.8h2.8v0.7h-2.1v0.9h1.9v0.6h-1.9v1h2.1v0.6H94.8z"/>
		<path class="st1" d="M102.7,78.8v-3.8h0.8l1.6,2.6v-2.6h0.7v3.8H105l-1.5-2.5v2.5H102.7z"/>
		<path class="st1" d="M111.7,78.8v-3.2h-1.1v-0.7h3.1v0.7h-1.1v3.2H111.7z"/>
		<path class="st1" d="M118.4,78.8v-3.8h1.6c0.4,0,0.7,0,0.9,0.1c0.2,0.1,0.3,0.2,0.4,0.4c0.1,0.2,0.2,0.4,0.2,0.6
			c0,0.3-0.1,0.5-0.3,0.7c-0.2,0.2-0.4,0.3-0.8,0.4c0.2,0.1,0.3,0.2,0.4,0.3c0.1,0.1,0.3,0.3,0.4,0.6l0.5,0.7H121l-0.6-0.8
			c-0.2-0.3-0.3-0.5-0.4-0.6s-0.2-0.1-0.2-0.2c-0.1,0-0.2,0-0.4,0h-0.2v1.6H118.4z M119.2,76.6h0.6c0.4,0,0.6,0,0.7,0
			c0.1,0,0.2-0.1,0.2-0.2c0.1-0.1,0.1-0.2,0.1-0.3c0-0.1,0-0.2-0.1-0.3c-0.1-0.1-0.2-0.1-0.3-0.2c-0.1,0-0.3,0-0.6,0h-0.6V76.6z"/>
		<path class="st1" d="M126.6,78.8v-3.8h2.8v0.7h-2.1v0.9h1.9v0.6h-1.9v1h2.1v0.6H126.6z"/>
		<path class="st1" d="M134.5,78.8v-3.8h1.2c0.5,0,0.8,0,0.9,0.1c0.2,0.1,0.4,0.2,0.6,0.4s0.2,0.4,0.2,0.7c0,0.2,0,0.4-0.1,0.6
			c-0.1,0.2-0.2,0.3-0.3,0.4c-0.1,0.1-0.3,0.2-0.4,0.2c-0.2,0-0.5,0.1-0.8,0.1h-0.5v1.4H134.5z M135.3,75.6v1.1h0.4
			c0.3,0,0.5,0,0.6-0.1c0.1,0,0.2-0.1,0.2-0.2c0.1-0.1,0.1-0.2,0.1-0.3c0-0.1,0-0.3-0.1-0.3c-0.1-0.1-0.2-0.1-0.3-0.2
			c-0.1,0-0.3,0-0.6,0H135.3z"/>
		<path class="st1" d="M142.4,78.8v-3.8h1.6c0.4,0,0.7,0,0.9,0.1c0.2,0.1,0.3,0.2,0.4,0.4c0.1,0.2,0.2,0.4,0.2,0.6
			c0,0.3-0.1,0.5-0.3,0.7c-0.2,0.2-0.4,0.3-0.8,0.4c0.2,0.1,0.3,0.2,0.4,0.3c0.1,0.1,0.3,0.3,0.4,0.6l0.5,0.7h-0.9l-0.6-0.8
			c-0.2-0.3-0.3-0.5-0.4-0.6s-0.2-0.1-0.2-0.2c-0.1,0-0.2,0-0.4,0h-0.2v1.6H142.4z M143.1,76.6h0.6c0.4,0,0.6,0,0.7,0
			c0.1,0,0.2-0.1,0.2-0.2c0.1-0.1,0.1-0.2,0.1-0.3c0-0.1,0-0.2-0.1-0.3c-0.1-0.1-0.2-0.1-0.3-0.2c-0.1,0-0.3,0-0.6,0h-0.6V76.6z"/>
		<path class="st1" d="M150.5,78.8v-3.8h2.9v0.7h-2.1v0.9h1.9v0.6h-1.9v1h2.1v0.6H150.5z"/>
		<path class="st1" d="M158.4,78.8v-3.8h0.8l1.6,2.6v-2.6h0.7v3.8h-0.8l-1.5-2.5v2.5H158.4z"/>
		<path class="st1" d="M166.6,78.8v-3.8h2.8v0.7h-2.1v0.9h1.9v0.6h-1.9v1h2.1v0.6H166.6z"/>
		<path class="st1" d="M174.5,74.9h0.8V77c0,0.3,0,0.5,0,0.6c0,0.2,0.1,0.3,0.2,0.4s0.3,0.1,0.5,0.1c0.2,0,0.4,0,0.5-0.1
			c0.1-0.1,0.2-0.2,0.2-0.3s0-0.3,0-0.7v-2.1h0.8v2c0,0.5,0,0.8-0.1,1c0,0.2-0.1,0.4-0.2,0.5c-0.1,0.1-0.3,0.2-0.5,0.3
			c-0.2,0.1-0.4,0.1-0.7,0.1c-0.4,0-0.6,0-0.8-0.1c-0.2-0.1-0.3-0.2-0.4-0.3c-0.1-0.1-0.2-0.3-0.2-0.4c-0.1-0.2-0.1-0.5-0.1-1V74.9z
			"/>
		<path class="st1" d="M182.6,78.8v-3.8h1.6c0.4,0,0.7,0,0.9,0.1c0.2,0.1,0.3,0.2,0.4,0.4c0.1,0.2,0.2,0.4,0.2,0.6
			c0,0.3-0.1,0.5-0.3,0.7c-0.2,0.2-0.4,0.3-0.8,0.4c0.2,0.1,0.3,0.2,0.4,0.3c0.1,0.1,0.3,0.3,0.4,0.6l0.5,0.7h-0.9l-0.6-0.8
			c-0.2-0.3-0.3-0.5-0.4-0.6s-0.2-0.1-0.2-0.2c-0.1,0-0.2,0-0.4,0h-0.2v1.6H182.6z M183.4,76.6h0.6c0.4,0,0.6,0,0.7,0
			c0.1,0,0.2-0.1,0.2-0.2c0.1-0.1,0.1-0.2,0.1-0.3c0-0.1,0-0.2-0.1-0.3c-0.1-0.1-0.2-0.1-0.3-0.2c-0.1,0-0.3,0-0.6,0h-0.6V76.6z"/>
	</g>
</g>
</svg>
