<?xml version="1.0" encoding="utf-8"?>
<!-- Generator: Adobe Illustrator 21.0.0, SVG Export Plug-In . SVG Version: 6.00 Build 0)  -->
<svg version="1.1" id="Layer_1" xmlns="http://www.w3.org/2000/svg" xmlns:xlink="http://www.w3.org/1999/xlink" x="0px" y="0px"
	 viewBox="0 0 391.5 110.7" style="enable-background:new 0 0 391.5 110.7;" xml:space="preserve">
<style type="text/css">
	.st0{fill:none;}
	.st1{fill:#41478F;}
	.st2{fill:#ED1C24;}
</style>
<path class="st0" d="M18.8,34.6c0.5-0.1,0.7-0.2,1-0.6c0.6-1,0.5-2.8,0.5-5.9c-1.9,1.2-2.6,2.4-2.7,6.5H18.8z"/>
<path class="st0" d="M18,29.1c-2.9,1.4-3.3,2.3-3.5,5.5h1.9C16.4,32.1,16.4,30.8,18,29.1z"/>
<path class="st0" d="M18.3,44.4c0.6,1.7,0.1,3.6,0.3,5.4c0.1,0.6,0.2,1.2,0.5,1.7c0.2,0.3,0.5,0.8,1,1.2c0.6,0.4,1.4,0.7,1.7,0.8
	c2.5,1.1,5.3,1.1,5.8,2.6h2.5c0-1.4-1-2.3-1.9-2.8c-0.4-0.2-1.1-0.4-1.8-0.6c-0.8-0.2-1.6-0.4-1.9-0.5c-1-0.3-1.9-0.9-2.2-1.7
	c-0.4-0.9-0.6-4.5,0.7-6.3c1.3-1.5,3.1-2.3,4-4c0.5-1.5,0.6-3,0.4-4.3h-3.5c-2.2,0-3,1-3,1.6c-0.1-0.6-0.8-1.6-2.9-1.6h-3.6
	c-0.2,1.8,0,3.3,0.5,4.3C16.3,43.1,17.3,42.5,18.3,44.4z M23.2,37.7c0.3-0.1,1.7-0.1,2.3,0c0,0.4-0.2,0.9-0.6,1.2
	c-0.6,0.3-1.6,0.3-2.5,0.2C22.3,38.6,22.7,37.8,23.2,37.7z M18.5,37.7c0.6,0.1,0.9,0.9,0.8,1.3c-0.9,0.1-1.9,0.1-2.5-0.2
	c-0.3-0.2-0.6-0.8-0.6-1.2C16.8,37.6,18.1,37.6,18.5,37.7z"/>
<path class="st0" d="M15.1,46.5l0.8,0.5l1.5-1.6c0-0.7-0.5-1.2-0.9-1.4L15.1,46.5z"/>
<path class="st0" d="M8.7,33.4V32c-0.1-0.7-0.9-0.7-1,0v1.3C7.9,34.1,8.5,34,8.7,33.4z"/>
<polygon class="st0" points="20.9,36 21.8,35.1 20.8,34.3 20,35.1 "/>
<path class="st0" d="M36,35.5l1.3-1c0.4-0.4,0-1-0.5-0.7l-1.4,1.1C35,35.3,35.5,35.9,36,35.5z"/>
<path class="st0" d="M70.5,102.1c-0.7,0-1.2,0.2-1.7,0.7s-0.7,1.1-0.8,2h4.8v-0.1c0-0.8-0.3-1.5-0.7-1.9
	C71.7,102.4,71.2,102.1,70.5,102.1z"/>
<path class="st0" d="M32.3,35.8c0.9,0.7,1.8,2.2,2.9,2.8c0.5,0.1,1.8-0.2,2.1-0.6c-0.5-0.1-1-0.1-0.9-0.8c-0.6,0.4-1.2-0.4-1-1
	c-0.4,0.2-1.4-0.3-1-1.1c-0.6,0.4-1-0.3-0.9-0.9c0.2-0.9,1.5-1.1,1.1-2.2c-0.9,0.6-1.6,1.4-2.5,2.2C31.9,34.7,32,35.3,32.3,35.8z"/>
<path class="st0" d="M23,34.7h1.2c-0.1-4.2-0.8-5.4-2.7-6.6c0,3.1-0.1,4.9,0.5,6C22.3,34.4,22.6,34.6,23,34.7z"/>
<path class="st0" d="M35,34.4l1.3-1c0.4-0.4,0-1-0.5-0.7l-1.4,1.1C34,34.2,34.5,34.8,35,34.4z"/>
<path class="st0" d="M33,32l-1.3-1.8c2-1.5,4.3-1.1,5.2-0.5c-0.3-3.1-2.6-4.4-3.9-4.8c0.2,1.8-0.2,3.3-1.8,4.6l-1.5-1.7l-0.6,0.5
	l3.3,4.2L33,32z"/>
<path class="st0" d="M33.4,43.1c1.7-0.7,3.7-2.2,2.7-2.9c-1.2-0.5-3.1-1.9-4.4-3.4c-0.9-1-2-1-3.2-1c0.2,1.9,0.1,3.7-0.7,5.1
	C30.1,41.6,31.4,42.1,33.4,43.1z"/>
<path class="st0" d="M25.3,34.6h1.9c-0.1-3.2-0.4-4.1-3.4-5.5C25.3,30.8,25.4,32.1,25.3,34.6z"/>
<path class="st0" d="M10.2,33.4V32c-0.1-0.7-0.9-0.7-1,0v1.3C9.4,34.1,10,34,10.2,33.4z"/>
<rect x="7.6" y="54.6" class="st0" width="1.4" height="0.9"/>
<path class="st0" d="M3.9,72.1c4.2,1.7,8.5-3.7,12.4-0.1c0-0.4,0.2-0.6,0.5-0.7c-0.8-0.6-0.6-1.6-0.1-2.1c-0.6-0.4-0.6-1.5,0-1.9
	c-0.5-0.5-0.6-1.3,0-1.9c-0.3-0.1-0.5-0.3-0.5-0.6c-1.9,1.2-4.7,0.6-6.3-0.4v2.1c-1.5-0.4-2.8-1.7-3.1-3.2C1.8,61.4,0.1,70,3.9,72.1
	z"/>
<path class="st0" d="M8.8,56.4H6.7c-1.1,0-0.7,1.2,0.1,1.1h2.1C9.6,57.6,9.8,56.3,8.8,56.4z"/>
<path class="st0" d="M30,75.7c-4,0-8.2-0.3-9.2,1.8c-1-2.1-5.1-1.8-9.2-1.8c-3.5,0-7.2,0.7-8.8-0.6c0.2,2.3,1.6,3,3.7,3.1
	c2.9,0.1,7.5,0,9.9,0.2c2.5,0.3,3.4,0.7,4.4,1.9c1-1.2,1.8-1.6,4.3-1.9c2.4-0.2,6.9-0.1,9.9-0.2c2.2-0.1,3.6-0.8,3.8-3.1
	C37.2,76.4,33.5,75.7,30,75.7z"/>
<path class="st0" d="M43.4,102.1c-0.7,0-1.2,0.2-1.7,0.7s-0.7,1.1-0.8,2h4.8v-0.1c0-0.8-0.3-1.5-0.7-1.9
	C44.6,102.4,44.1,102.1,43.4,102.1z"/>
<path class="st0" d="M8.8,58H6.7c-1.1,0-0.7,1.2,0.1,1.1h2.1C9.6,59.3,9.8,57.9,8.8,58z"/>
<path class="st0" d="M15.5,102.1c-0.8,0-1.5,0.3-1.9,1c-0.4,0.7-0.8,1.6-0.8,2.7c0,1.1,0.2,1.9,0.7,2.5c0.5,0.6,1.1,1,2,1
	c0.8,0,1.5-0.3,2-1c0.5-0.6,0.7-1.6,0.7-2.7c0-1-0.2-1.9-0.7-2.5C17,102.5,16.3,102.1,15.5,102.1z"/>
<path class="st0" d="M13.9,40.9c-1-1.7-0.6-3.5-0.8-5c-1.2,0-2,0-3.5,0.8s-3,2.7-4.5,3.4c-0.9,0.5,2,3,3.2,3
	C9.7,41.9,11.6,41.6,13.9,40.9z"/>
<path class="st0" d="M5.8,33.5V32H5.7c-0.2-0.6-0.6-0.5-0.7,0.1c-0.1,0.6-0.2,0.6-0.1,1.3C5.1,33.9,5.6,34,5.8,33.5z"/>
<path class="st0" d="M6.6,37.7c1-0.9,3.3-2.9,4.8-2.9l-0.1-2.7c-0.6,0.4-0.7,0.9-0.8,1.7c-0.1,0.3-0.4,0.6-0.7,0.7
	c-0.5,0-0.7-0.2-0.9-0.6c-0.1,0.5-0.4,0.6-0.7,0.6c-0.5,0-0.6-0.1-0.7-0.5c-0.1,0.4-0.5,0.4-0.8,0.6c-0.6,0-0.6-0.2-0.7-0.6
	c-0.2,0.4-0.3,0.4-0.7,0.6c-0.2,0-0.3,0.1-0.6-0.3C4.8,35.2,5.3,37,6.6,37.7z"/>
<path class="st0" d="M5.6,59.3c-0.5-0.1-0.8-1.4,0-1.7c-0.5-0.3-0.7-1-0.1-1.7c0.3-0.5,0.8-0.3,1.2-0.4v-1.7h3
	c0.1-1.2-0.2-3.7,1-5.3l-0.1,5.7c0.3-0.4,1.2-0.7,1.7-0.5l-0.1,5c1.9-2.2,4.4-4.4,7-5.5c-1.2-1-1.6-2.1-1.7-6.8L16,47.9l-2-1.2
	l1.9-3.5c-0.5-0.3-0.8-0.5-1.4-1.2c-2.2,0.3-3.7,0.8-5.6,1.9c-3.2,2.2-5.2,5.7-5.5,9c0,2.9,0.2,5.6,1.9,7.7
	C5.2,60.2,4.9,59.4,5.6,59.3z M13.5,50.4c0.4,0,0.8,0.4,0.8,0.8c0,0.4-0.4,0.8-0.8,0.8c-0.5,0-0.8-0.4-0.8-0.8
	C12.7,50.8,13.1,50.4,13.5,50.4z"/>
<path class="st0" d="M8.8,59.6H6.7c-1.1,0-0.7,1.2,0.1,1.1h2.1C9.6,60.8,9.8,59.5,8.8,59.6z"/>
<path class="st0" d="M9,65.3v-1.9H7.9C8,64.4,8.1,64.6,9,65.3z"/>
<path class="st0" d="M8.7,61.2H6.6c-1.1,0-0.7,1.2,0.1,1.1h2.1C9.5,62.5,9.8,61.1,8.7,61.2z"/>
<path class="st0" d="M7.2,33.4V32c-0.1-0.7-0.9-0.7-1,0v1.3C6.4,34.1,7,34,7.2,33.4z"/>
<path class="st0" d="M22.7,63.2c0.9-0.6,2.5-0.2,3.2,0.8c1.1,1.1,2.9,0.6,3.8,0c-1.5-0.8-3.3-2.5-3.6-4.6c0-0.6,0.3-1.1,0.6-1.5
	l-0.2-1.5c-0.1-0.5-1.2-0.9-2.2-1.3c-0.9-0.3-1.9-0.5-1.9-0.5c-3.1,1.5-6.7,3.2-8.4,6.2c-0.5,0.7-0.7,2.7-0.8,3.5
	c0.8,0.2,1.5,0.3,2.4-0.4c1.2-1,2.4-1.2,3.2-0.7c1.1,0.2,1.7,1.7,1.9,2.7C21.1,64.5,21.3,64.2,22.7,63.2z M20.8,60.8
	c-0.4,0-0.8-0.4-0.8-0.8s0.4-0.8,0.8-0.8c0.4,0,0.8,0.4,0.8,0.8S21.2,60.8,20.8,60.8z"/>
<path class="st0" d="M16,57.4c1.5-1.3,3.3-2.2,5.1-3.2L20,53.7c-1.1,0.4-2.1,0.9-3.1,1.4c-2.3,1.3-6,4.9-6.1,8.6
	c0.4,0.3,0.7,0.5,1.1,0.5C12.2,62.8,13.8,59,16,57.4z"/>
<path class="st0" d="M11.3,55.2c-0.3,0-0.4,0.2-0.6,0.4c-0.7,0.5-0.2,1.5-0.9,2.1c0.5,0.3,0.5,1.3,0,1.6c0.6,0.4,0.4,1.2-0.2,1.6
	c0.4,0.1,0.7,0.6,0.3,1.3C12.3,59.7,11.1,57.5,11.3,55.2z"/>
<path class="st0" d="M37,36.5l1.3-1c0.4-0.5,0-1-0.5-0.7l-1.4,1.1C36,36.3,36.5,36.9,37,36.5z"/>
<path class="st0" d="M29.2,59.5c-0.1,0.4,0.3,0.8,0.8,0.8c0.4,0,0.8-0.4,0.8-0.8s-0.4-0.8-0.8-0.8S29.2,59.1,29.2,59.5z"/>
<path class="st0" d="M33.4,59.5c0,0.4,0.4,0.8,0.8,0.8c0.4,0,0.8-0.4,0.8-0.8s-0.4-0.8-0.8-0.8C33.8,58.7,33.4,59.1,33.4,59.5z"/>
<path class="st0" d="M31.3,59.5c0,0.4,0.3,0.8,0.8,0.8c0.4,0,0.8-0.4,0.8-0.8s-0.4-0.8-0.8-0.8C31.7,58.7,31.3,59.1,31.3,59.5z"/>
<path class="st0" d="M17.6,69.5c-0.4,0-0.8,0.4-0.8,0.8c0,0.4,0.4,0.8,0.8,0.8c0.4,0,0.8-0.4,0.8-0.8C18.4,69.9,18,69.5,17.6,69.5z"
	/>
<path class="st0" d="M27,59.5c0,0.4,0.3,0.8,0.8,0.8c0.4,0,0.8-0.4,0.8-0.8s-0.4-0.8-0.8-0.8C27.4,58.7,27,59.1,27,59.5z"/>
<path class="st0" d="M17.6,67.6c-0.4,0-0.8,0.4-0.8,0.8c0,0.4,0.4,0.8,0.8,0.8c0.4,0,0.8-0.4,0.8-0.8C18.4,68,18,67.6,17.6,67.6z"/>
<path class="st0" d="M17.7,71.5c-0.4,0-0.7,0.3-0.7,0.7c0,0.4,0.3,0.7,0.7,0.7c0.4,0,0.7-0.3,0.7-0.7C18.4,71.8,18.1,71.5,17.7,71.5
	z"/>
<path class="st0" d="M17.6,63.7c-0.4,0-0.8,0.4-0.8,0.8s0.4,0.8,0.8,0.8c0.4,0,0.8-0.4,0.8-0.8S18,63.7,17.6,63.7z"/>
<path class="st0" d="M18.7,65.6c0.5,0.5,0.4,1.3-0.1,1.8c0.5,0.5,0.5,1.5,0,1.9c0.5,0.4,0.6,1.3,0,1.9c0.3,0.3,0.4,0.6,0.4,1
	c1-1.2,1-3.3,1-4c0-0.4,0-2.7-1.1-3.8C19,64.8,19,65.2,18.7,65.6z"/>
<path class="st0" d="M17.6,65.5c-0.4,0-0.8,0.4-0.8,0.8c0,0.5,0.4,0.8,0.8,0.8c0.4,0,0.8-0.4,0.8-0.8C18.4,65.9,18,65.5,17.6,65.5z"
	/>
<path class="st0" d="M27.7,57.2c0,0.2,0.1,0.6,0.3,0.7c0.4,0,0.7,0.2,1,0.6c0.4-0.8,1.4-0.7,2-0.1c0.4-0.6,1.8-0.5,2.1,0
	c0.3-0.6,0.7-0.6,1.3-0.5c0.1-0.2,0.2-0.6,0.1-0.7H27.7z"/>
<path class="st0" d="M22.7,69.3c-0.5-0.4-0.5-1.5,0-1.9c-0.4-0.6-0.6-1.3,0-1.8c-0.4-0.4-0.4-0.8-0.3-1.2c-1.1,1.1-1,3.4-1,3.8
	c0,0.7,0.1,2.7,1.1,4c0-0.4,0-0.7,0.3-1C22.2,70.6,22.2,69.8,22.7,69.3z"/>
<path class="st0" d="M25,44c0.3,1.2,1.2,2.5,1.6,3.5c0.8-1.1,1.5-3.6,1.5-5L27,42.2L25,44z"/>
<path class="st0" d="M26.9,51.9c1.7,0.3,3.5,1.5,3.9,3.5l0.2-6.7c1,1.2,0.8,4.6,0.8,7.3h4.1c-0.2,0.5,0,1.6-0.6,2.1
	c1,0.7,0.4,2.3-0.3,2.6c-0.6,0.4-1.4,0.2-1.8-0.2c-0.3,0.4-1.1,0.7-2.1,0c-0.7,0.6-1.4,0.6-2-0.1c-0.2,0.4-0.7,0.3-1,0.4
	c0.6,1.6,3,3.1,5,2.3c4.1-1.6,5-5.1,4.8-9.8c-0.2-3.8-2.1-7.9-6.8-10.2C31.1,45.9,28.4,50.9,26.9,51.9z"/>
<path class="st0" d="M23.3,45.6c0.4,1.2,2.3,3.7,3.9,3.8c-1-1.5-1.9-3.1-2.8-4.8C23.9,44.6,23.2,45.3,23.3,45.6z"/>
<path class="st0" d="M23.6,50.9c0.6-0.4,1.4-0.9,1.9-1.6c-0.8-0.5-1.8-1.5-2.6-2.9C22.9,46.9,22.1,50.1,23.6,50.9z"/>
<path class="st0" d="M27.6,50c-0.5-0.1-1.1-0.2-1.5-0.4c-0.3,0.6-1,1.3-1.8,1.7c0.5,0.3,0.8,0.3,1.4,0.5
	C26.2,51.3,27.4,50.4,27.6,50z"/>
<path class="st0" d="M30.2,42.9l-1.1-0.3c-0.1,2-1,4.2-2,5.5c0.2,0.5,0.6,1.1,0.9,1.4C28.6,48.4,30.5,45.3,30.2,42.9z"/>
<path class="st0" d="M23.9,67.5c-0.4,0-0.8,0.4-0.8,0.8c0,0.5,0.3,0.8,0.8,0.8c0.4,0,0.8-0.4,0.8-0.8C24.7,67.9,24.3,67.5,23.9,67.5
	z"/>
<path class="st0" d="M23.9,69.5c-0.4,0-0.8,0.4-0.8,0.8c0,0.4,0.3,0.8,0.8,0.8c0.4,0,0.8-0.4,0.8-0.8C24.7,69.9,24.3,69.5,23.9,69.5
	z"/>
<path class="st0" d="M31.9,64.3c-2.6,1.9-5.4,1.9-6.4,0.6c-0.1,0.4-0.3,0.5-0.5,0.6c0.5,0.4,0.5,1.3,0,1.8c0.6,0.5,0.5,1.6,0,2
	c0.6,0.5,0.5,1.3-0.1,1.9c0.2,0.1,0.5,0.4,0.4,0.6c3.7-2.4,7,1.2,10.6,0.7c5.2-1.1,4.7-9.3-0.1-9.9C35.1,63.4,33.7,64.2,31.9,64.3z"
	/>
<path class="st0" d="M23.9,71.4c-0.4,0-0.7,0.3-0.7,0.7c-0.1,0.4,0.3,0.7,0.7,0.7c0.4,0,0.7-0.3,0.7-0.7
	C24.6,71.7,24.3,71.4,23.9,71.4z"/>
<path class="st0" d="M23.9,65.6c-0.4,0-0.8,0.4-0.8,0.8c0,0.4,0.3,0.8,0.8,0.8c0.4,0,0.8-0.4,0.8-0.8C24.7,66,24.3,65.6,23.9,65.6z"
	/>
<path class="st0" d="M23.9,63.7c-0.4,0-0.8,0.4-0.8,0.8s0.3,0.8,0.8,0.8c0.4,0,0.8-0.4,0.8-0.8S24.3,63.7,23.9,63.7z"/>
<path class="st0" d="M37.9,37.6c0.5-0.3,0.8-0.5,1.1-1c0.4-0.7,0.1-1-0.4-0.7L37.3,37C37,37.3,37.4,37.8,37.9,37.6z"/>
<path class="st0" d="M128.3,102.1c-0.8,0-1.5,0.3-1.9,1c-0.4,0.7-0.8,1.6-0.8,2.7c0,1.1,0.2,1.9,0.7,2.5c0.5,0.6,1.1,1,2,1
	c0.8,0,1.5-0.3,2-1c0.5-0.6,0.7-1.6,0.7-2.7c0-1-0.2-1.9-0.7-2.5C129.8,102.5,129.1,102.1,128.3,102.1z"/>
<path class="st0" d="M93.6,102.1c-0.8,0-1.5,0.3-1.9,1c-0.4,0.7-0.8,1.6-0.8,2.7c0,1.1,0.2,1.9,0.7,2.5c0.5,0.6,1.1,1,2,1
	c0.8,0,1.5-0.3,2-1c0.5-0.6,0.7-1.6,0.7-2.7c0-1-0.2-1.9-0.7-2.5C95.1,102.5,94.4,102.1,93.6,102.1z"/>
<path class="st0" d="M164.9,102.6c0.5-0.4,0.7-0.9,0.7-1.5c0-0.7-0.2-1.2-0.6-1.5c-0.4-0.3-1-0.5-1.9-0.5h-2.5v4.1h2.5
	C163.8,103.2,164.4,103,164.9,102.6z"/>
<path class="st0" d="M287.7,102.1c-0.8,0-1.4,0.3-1.9,0.9s-0.7,1.6-0.7,2.8c0,1.1,0.2,1.9,0.7,2.5c0.5,0.6,1.1,0.9,1.8,0.9
	c1,0,1.8-0.5,2.3-1.4v-4.4C289.4,102.5,288.7,102.1,287.7,102.1z"/>
<path class="st0" d="M263.7,107.6c0,0.5,0.2,0.9,0.5,1.2s0.7,0.5,1.3,0.5c0.5,0,1-0.1,1.5-0.4c0.5-0.3,0.8-0.6,1-1v-2h-1.3
	C264.7,105.9,263.7,106.5,263.7,107.6z"/>
<path class="st0" d="M83.3,41.4c-0.9-0.5-2.3-0.7-4.2-0.7h-0.7L77,47.8h1.1c2.2,0,3.8-0.3,4.9-1s1.6-1.7,1.6-3.1
	C84.6,42.7,84.2,41.9,83.3,41.4z"/>
<path class="st0" d="M245.9,41.6c-0.9-0.5-2.3-0.7-4.3-0.7h-0.7l-1.4,7.3h1.1c2.3,0,3.9-0.4,5-1c1.1-0.7,1.6-1.8,1.6-3.2
	C247.2,42.9,246.8,42.1,245.9,41.6z"/>
<path class="st0" d="M163.5,104.5h-2.9v4.6h2.8c0.8,0,1.4-0.2,1.9-0.6s0.7-1,0.7-1.7C166,105.3,165.2,104.5,163.5,104.5z"/>
<path class="st0" d="M348.7,107.6c0,0.5,0.2,0.9,0.5,1.2s0.8,0.5,1.3,0.5s1-0.1,1.5-0.4c0.5-0.3,0.8-0.6,1-1v-2h-1.3
	C349.7,105.9,348.7,106.5,348.7,107.6z"/>
<path class="st0" d="M232.6,102.1c-0.7,0-1.2,0.2-1.7,0.7s-0.7,1.1-0.8,2h4.8v-0.1c0-0.8-0.3-1.5-0.7-1.9
	C233.8,102.4,233.3,102.1,232.6,102.1z"/>
<path class="st0" d="M198.5,102.1c-0.7,0-1.2,0.2-1.7,0.7s-0.7,1.1-0.8,2h4.8v-0.1c0-0.8-0.3-1.5-0.7-1.9
	C199.7,102.4,199.2,102.1,198.5,102.1z"/>
<path class="st0" d="M374,102.1c-0.8,0-1.5,0.3-1.9,1c-0.4,0.7-0.8,1.6-0.8,2.7c0,1.1,0.2,1.9,0.7,2.5c0.5,0.6,1.1,1,2,1
	c0.8,0,1.5-0.3,2-1c0.5-0.6,0.7-1.6,0.7-2.7c0-1-0.2-1.9-0.7-2.5C375.5,102.5,374.8,102.1,374,102.1z"/>
<path class="st0" d="M321.6,102.1c-0.7,0-1.2,0.2-1.7,0.7s-0.7,1.1-0.8,2h4.8v-0.1c0-0.8-0.3-1.5-0.7-1.9
	C322.8,102.4,322.2,102.1,321.6,102.1z"/>
<path class="st0" d="M174.5,102.1c-0.7,0-1.2,0.2-1.7,0.7s-0.7,1.1-0.8,2h4.8v-0.1c0-0.8-0.3-1.5-0.7-1.9
	C175.7,102.4,175.2,102.1,174.5,102.1z"/>
<path class="st1" d="M382.4,50.2c3-0.3,5.3-1.2,6.8-2.8c1.6-1.6,2.4-3.7,2.4-6.3c0-3.8-1.5-6.7-4.6-8.7c-3.1-2-7.6-3-13.5-3h-14.7
	l-7.9,42.7h21.2c5.8,0,10.3-1.2,13.6-3.5c3.3-2.4,5-5.6,5-9.7c0-2.3-0.7-4.3-2.2-5.8C387,51.5,385,50.6,382.4,50.2z M374,60.9
	c-1,0.5-2.8,0.8-5.4,0.8h-1.1l1.1-6.5h2.4c1.6,0,2.7,0.2,3.4,0.7c0.7,0.4,1.1,1.2,1.1,2.2C375.5,59.4,375,60.4,374,60.9z
	 M375.7,44.5c-1,0.5-2.4,0.7-4.4,0.7h-0.8l1.1-5.4h2c1.1,0,2,0.3,2.6,0.7c0.6,0.4,0.9,1,0.9,1.8C377.1,43.3,376.6,44,375.7,44.5z"/>
<polygon class="st1" points="337.3,72.1 342.8,42.3 351.6,42.3 354,29.3 320.5,29.3 318,42.3 327.1,42.3 321.6,72.1 "/>
<polygon class="st1" points="300.2,29.8 299.9,29.8 292.1,72.1 307.8,72.1 315.7,29.4 300.3,29.4 "/>
<polygon class="st1" points="269,29.8 261.1,72.5 276.8,72.5 284.7,29.8 284.5,29.8 "/>
<path class="st1" d="M258.1,33.3c-3.2-2.3-7.9-3.5-14.2-3.5h-16.5l-7.9,42.7h15.6l2.4-13.1h6.1c6.1,0,10.8-1.3,14.2-4.1
	c3.3-2.7,5-6.6,5-11.6C262.8,39.1,261.2,35.6,258.1,33.3z M245.6,47.2c-1.1,0.6-2.7,1-5,1h-1.1l1.4-7.3h0.7c2,0,3.4,0.2,4.3,0.7
	s1.3,1.3,1.3,2.4C247.2,45.4,246.7,46.5,245.6,47.2z"/>
<polygon class="st1" points="173.3,59.4 160.2,59.4 165.7,29.8 149.9,29.8 142,72.5 142,72.6 170.8,72.6 "/>
<path class="st1" d="M189.3,72.5l2.3-5.7h10.3l0.3,5.7h15.2l-5.6-42.7h-16.9l-22.3,42.7H189.3z M198.8,49.6c0.3-0.9,0.6-1.8,1-2.9
	c0.4-1,0.7-2.2,1.1-3.3c0,0.4,0,0.8,0,1.2c0,0.4,0,1,0,1.8c0,1.2,0,2.7,0.1,4.6c0.1,0.5,0.1,0.9,0.1,1.1l0.2,4.6h-5.5L198.8,49.6z"
	/>
<polygon class="st2" points="300.3,29.4 302.8,15 302.7,15 302.7,14.8 287.1,14.8 284.5,29.8 284.7,29.8 299.9,29.8 300,29.4 "/>
<polygon class="st2" points="300.3,29.4 300,29.4 299.9,29.8 300.2,29.8 "/>
<polygon class="st2" points="302.8,15 318.4,15 321,0 305.3,0 302.7,14.8 302.8,14.8 "/>
<polygon class="st2" points="302.8,15 302.8,14.8 302.7,14.8 302.7,15 "/>
<path class="st1" d="M5.3,26.7c0.4,0,0.8-0.4,0.8-0.8c0-0.4-0.4-0.8-0.8-0.8c-0.4,0-0.8,0.4-0.8,0.8C4.4,26.3,4.8,26.7,5.3,26.7z"/>
<path class="st1" d="M20.8,59.2c-0.4,0-0.8,0.4-0.8,0.8s0.4,0.8,0.8,0.8c0.4,0,0.8-0.4,0.8-0.8S21.2,59.2,20.8,59.2z"/>
<path class="st1" d="M7.2,25.4C7.6,25.4,8,25,8,24.6c0-0.4-0.4-0.8-0.8-0.8c-0.4,0-0.8,0.4-0.8,0.8C6.4,25,6.8,25.4,7.2,25.4z"/>
<path class="st1" d="M4.1,28.5c0.4,0,0.8-0.4,0.8-0.8c0-0.4-0.4-0.8-0.8-0.8c-0.4,0-0.8,0.4-0.8,0.8C3.2,28.2,3.6,28.5,4.1,28.5z"/>
<path class="st1" d="M4.2,29.1c-0.4,0-0.8,0.4-0.8,0.8c0,0.4,0.3,0.8,0.8,0.8c0.4,0,0.8-0.4,0.8-0.8C5,29.5,4.6,29.1,4.2,29.1z"/>
<path class="st1" d="M13.5,52c0.4,0,0.8-0.4,0.8-0.8c0-0.4-0.4-0.8-0.8-0.8s-0.8,0.4-0.8,0.8C12.7,51.6,13,52,13.5,52z"/>
<path class="st1" d="M7.3,73.7c2.6-0.2,5.6-3,8.3-1c0.7,0.7,2.2,1.6,3.4,0.7c1-0.8,1.3-1.2,1.8-2.4c0.5,1.2,0.8,1.7,1.9,2.5
	c1.2,0.8,2.4-0.3,3.3-0.8c2.6-1.1,4.7,0.3,7.3,0.8c2.5,0.5,5.6,0.2,6.8-2.7c0.4-1.2,0.7-2.2,0.7-3.1c0-3-2.1-5.2-4.2-5.8
	c1.8-1.4,2.3-4.9,2.3-6.8c-0.1-5.3-1.8-8.4-4.5-11c1.3-0.5,2.5-2,3.2-3.8l-1.2-0.6c2.1-0.5,2.9-1.8,3.5-3.4c0.1-0.7,0-1.2-0.7-1.1
	c0.2-0.6-0.3-1-0.9-1c0.1-0.4-0.2-1.2-1.2-0.9c0.5-0.7-0.5-1.6-1.4-1.2c0.1-0.6-0.3-0.9-0.6-1.4l-1.3,0.8l-0.7-1
	c1.6-0.5,3.2-0.5,4.5,0.7c0.4-1.9-0.2-4.1-1.4-5.3c-1.2-1.3-2.8-2.3-4.7-2.3c0.5,0.5,0.4,0.9,0.4,1.3c0.3,1.1-0.1,2.6-0.7,3.3
	l-1.5-1.6L28,28.1l3.9,4.9c-0.9,0.8-1.2,1-1,1.9l-2.4-0.2c-0.1-2.8-0.5-4.5-4.5-6.6c-0.9-0.5-2-0.7-3-1.3c-1.1,0.7-2.1,0.9-3.1,1.3
	c-3.6,1.7-4.4,4-4.5,6.7h-0.7c0-0.9,0-1.8,0-2.7c0-0.6,0.2-0.8,0.3-1.1c-0.6-0.1-1.8,0.1-2.1,0.9c-0.1-1.5-1.4-1.3-1.6-0.7
	c-0.4-0.6-1.2-0.7-1.6-0.1c-0.3-0.6-1.1-0.6-1.6,0C5.9,30.7,5.3,30.9,5,31c-0.4,0.4-0.7,0.8-0.8,1.4c-0.5,2.3,0.3,4.5,1.9,6
	c0,0.1-0.2,0.6-2,1.7c1,2.2,2.3,3.2,3.4,3.7c-5,5.1-5.6,8.6-4.7,14.1c0.3,2,1.3,3.4,2.1,4.4c-2.8,0.1-4.2,2.9-4.2,5.7
	C0.7,71.2,2.4,74.3,7.3,73.7z M17.7,72.9c-0.4,0-0.7-0.3-0.7-0.7c0-0.4,0.3-0.7,0.7-0.7c0.4,0,0.7,0.3,0.7,0.7
	C18.4,72.6,18.1,72.9,17.7,72.9z M17.6,71.1c-0.4,0-0.8-0.4-0.8-0.8c0-0.4,0.4-0.8,0.8-0.8c0.4,0,0.8,0.4,0.8,0.8
	C18.4,70.7,18,71.1,17.6,71.1z M17.6,69.2c-0.4,0-0.8-0.4-0.8-0.8c0-0.4,0.4-0.8,0.8-0.8c0.4,0,0.8,0.4,0.8,0.8
	C18.4,68.8,18,69.2,17.6,69.2z M17.6,67.1c-0.4,0-0.8-0.3-0.8-0.8c0-0.4,0.4-0.8,0.8-0.8c0.4,0,0.8,0.4,0.8,0.8
	C18.4,66.7,18,67.1,17.6,67.1z M17.6,65.3c-0.4,0-0.8-0.4-0.8-0.8s0.4-0.8,0.8-0.8c0.4,0,0.8,0.4,0.8,0.8S18,65.3,17.6,65.3z
	 M19,72.2c0-0.4-0.1-0.7-0.4-1c0.6-0.6,0.5-1.5,0-1.9c0.5-0.4,0.5-1.4,0-1.9c0.5-0.5,0.6-1.3,0.1-1.8c0.3-0.4,0.3-0.8,0.2-1.2
	c1.1,1.1,1.1,3.4,1.1,3.8C20,68.9,20,71,19,72.2z M20.7,65.9c-0.2-1-0.8-2.5-1.9-2.7c-0.8-0.5-2-0.3-3.2,0.7
	c-0.9,0.7-1.6,0.6-2.4,0.4c0.1-0.8,0.3-2.8,0.8-3.5c1.7-3,5.3-4.7,8.4-6.2c0,0,1,0.2,1.9,0.5c1,0.4,2.1,0.8,2.2,1.3l0.2,1.5
	c-0.3,0.4-0.6,0.9-0.6,1.5c0.3,2.1,2.1,3.8,3.6,4.6c-0.9,0.6-2.7,1.1-3.8,0c-0.7-1-2.3-1.4-3.2-0.8C21.3,64.2,21.1,64.5,20.7,65.9z
	 M9.6,60.9c0.6-0.4,0.8-1.2,0.2-1.6c0.5-0.3,0.5-1.3,0-1.6c0.7-0.6,0.2-1.6,0.9-2.1c0.2-0.2,0.3-0.4,0.6-0.4c-0.2,2.3,1,4.5-1.4,7
	C10.3,61.5,10,61,9.6,60.9z M16.9,55.1c1-0.5,2-1,3.1-1.4l1.1,0.5c-1.8,1-3.6,1.9-5.1,3.2c-2.2,1.6-3.8,5.4-4.1,6.8
	c-0.4,0-0.7-0.2-1.1-0.5C10.9,60,14.6,56.4,16.9,55.1z M34.4,57.9c-0.6-0.1-1-0.1-1.3,0.5c-0.3-0.5-1.7-0.6-2.1,0
	c-0.6-0.6-1.6-0.7-2,0.1c-0.3-0.4-0.6-0.6-1-0.6c-0.2-0.1-0.3-0.5-0.3-0.7h6.8C34.6,57.3,34.5,57.7,34.4,57.9z M35,59.5
	c0,0.4-0.4,0.8-0.8,0.8c-0.4,0-0.8-0.4-0.8-0.8s0.4-0.8,0.8-0.8C34.6,58.7,35,59.1,35,59.5z M32.9,59.5c0,0.4-0.4,0.8-0.8,0.8
	c-0.5,0-0.8-0.4-0.8-0.8s0.4-0.8,0.8-0.8C32.5,58.7,32.9,59.1,32.9,59.5z M30.8,59.5c0,0.4-0.4,0.8-0.8,0.8c-0.5,0-0.9-0.4-0.8-0.8
	c0-0.4,0.4-0.8,0.8-0.8S30.8,59.1,30.8,59.5z M27.8,58.7c0.4,0,0.8,0.4,0.8,0.8s-0.4,0.8-0.8,0.8c-0.5,0-0.8-0.4-0.8-0.8
	S27.4,58.7,27.8,58.7z M22.5,72.2c-1-1.3-1.1-3.3-1.1-4c0-0.4-0.1-2.7,1-3.8c-0.1,0.4-0.1,0.8,0.3,1.2c-0.6,0.5-0.4,1.2,0,1.8
	c-0.5,0.4-0.5,1.5,0,1.9c-0.5,0.5-0.5,1.3,0.1,1.9C22.5,71.5,22.5,71.8,22.5,72.2z M23.9,72.8c-0.4,0-0.8-0.3-0.7-0.7
	c0-0.4,0.3-0.7,0.7-0.7c0.4,0,0.7,0.3,0.7,0.7C24.6,72.5,24.3,72.8,23.9,72.8z M23.9,71.1c-0.5,0-0.8-0.4-0.8-0.8
	c0-0.4,0.4-0.8,0.8-0.8c0.4,0,0.8,0.4,0.8,0.8C24.7,70.7,24.3,71.1,23.9,71.1z M23.9,69.1c-0.5,0-0.8-0.3-0.8-0.8
	c0-0.4,0.4-0.8,0.8-0.8c0.4,0,0.8,0.4,0.8,0.8C24.7,68.7,24.3,69.1,23.9,69.1z M23.9,67.2c-0.5,0-0.8-0.4-0.8-0.8
	c0-0.4,0.4-0.8,0.8-0.8c0.4,0,0.8,0.4,0.8,0.8C24.7,66.8,24.3,67.2,23.9,67.2z M23.9,65.3c-0.5,0-0.8-0.4-0.8-0.8s0.4-0.8,0.8-0.8
	c0.4,0,0.8,0.4,0.8,0.8S24.3,65.3,23.9,65.3z M35.9,72.5c-3.6,0.5-6.9-3.1-10.6-0.7c0.1-0.2-0.2-0.5-0.4-0.6
	c0.6-0.6,0.7-1.4,0.1-1.9c0.5-0.4,0.6-1.5,0-2c0.5-0.5,0.5-1.4,0-1.8c0.2-0.1,0.4-0.2,0.5-0.6c1,1.3,3.8,1.3,6.4-0.6
	c1.8-0.1,3.2-0.9,3.9-1.7C40.6,63.2,41.1,71.4,35.9,72.5z M37.9,53.3c0.2,4.7-0.7,8.2-4.8,9.8c-2,0.8-4.4-0.7-5-2.3
	c0.3-0.1,0.8,0,1-0.4c0.6,0.7,1.3,0.7,2,0.1c1,0.7,1.8,0.4,2.1,0c0.4,0.4,1.2,0.6,1.8,0.2c0.7-0.3,1.3-1.9,0.3-2.6
	c0.6-0.5,0.4-1.6,0.6-2.1h-4.1c0-2.7,0.2-6.1-0.8-7.3l-0.2,6.7c-0.4-2-2.2-3.2-3.9-3.5c1.5-1,4.2-6,4.2-8.8
	C35.8,45.4,37.7,49.5,37.9,53.3z M26.6,47.5c-0.4-1-1.3-2.3-1.6-3.5l2-1.8l1.1,0.3C28.1,43.9,27.4,46.4,26.6,47.5z M29.1,42.6
	l1.1,0.3c0.3,2.4-1.6,5.5-2.2,6.6c-0.3-0.3-0.7-0.9-0.9-1.4C28.1,46.8,29,44.6,29.1,42.6z M27.2,49.4c-1.6-0.1-3.5-2.6-3.9-3.8
	c-0.1-0.3,0.6-1,1.1-1C25.3,46.3,26.2,47.9,27.2,49.4z M25.5,49.3c-0.5,0.7-1.3,1.2-1.9,1.6c-1.5-0.8-0.7-4-0.7-4.5
	C23.7,47.8,24.7,48.8,25.5,49.3z M26.1,49.6c0.4,0.2,1,0.3,1.5,0.4c-0.2,0.4-1.4,1.3-1.9,1.8c-0.6-0.2-0.9-0.2-1.4-0.5
	C25.1,50.9,25.8,50.2,26.1,49.6z M39,36.6c-0.3,0.5-0.6,0.7-1.1,1c-0.5,0.2-0.9-0.3-0.6-0.6l1.3-1.1C39.1,35.6,39.4,35.9,39,36.6z
	 M38.3,35.5l-1.3,1c-0.5,0.4-1-0.2-0.6-0.6l1.4-1.1C38.3,34.5,38.7,35,38.3,35.5z M37.3,34.5l-1.3,1c-0.5,0.4-1-0.2-0.6-0.6l1.4-1.1
	C37.3,33.5,37.7,34.1,37.3,34.5z M35.8,32.7c0.5-0.3,0.9,0.3,0.5,0.7l-1.3,1c-0.5,0.4-1-0.2-0.6-0.6L35.8,32.7z M34.6,32
	c0.4,1.1-0.9,1.3-1.1,2.2c-0.1,0.6,0.3,1.3,0.9,0.9c-0.4,0.8,0.6,1.3,1,1.1c-0.2,0.6,0.4,1.4,1,1c-0.1,0.7,0.4,0.7,0.9,0.8
	c-0.3,0.4-1.6,0.7-2.1,0.6c-1.1-0.6-2-2.1-2.9-2.8c-0.3-0.5-0.4-1.1-0.2-1.6C33,33.4,33.7,32.6,34.6,32z M29.1,28.3l0.6-0.5l1.5,1.7
	c1.6-1.3,2-2.8,1.8-4.6c1.3,0.4,3.6,1.7,3.9,4.8c-0.9-0.6-3.2-1-5.2,0.5L33,32l-0.6,0.5L29.1,28.3z M28.5,35.8c1.2,0,2.3,0,3.2,1
	c1.3,1.5,3.2,2.9,4.4,3.4c1,0.7-1,2.2-2.7,2.9c-2-1-3.3-1.5-5.6-2.2C28.6,39.5,28.7,37.7,28.5,35.8z M27.2,34.6h-1.9
	c0.1-2.5,0-3.8-1.5-5.5C26.8,30.5,27.1,31.4,27.2,34.6z M21.5,28.1c1.9,1.2,2.6,2.4,2.7,6.6H23c-0.4-0.1-0.7-0.3-1-0.6
	C21.4,33,21.5,31.2,21.5,28.1z M21.8,35.1L20.9,36L20,35.1l0.8-0.8L21.8,35.1z M20.3,28.1c0,3.1,0.1,4.9-0.5,5.9
	c-0.3,0.4-0.5,0.5-1,0.6h-1.2C17.7,30.5,18.4,29.3,20.3,28.1z M18,29.1c-1.6,1.7-1.6,3-1.6,5.5h-1.9C14.7,31.4,15.1,30.5,18,29.1z
	 M14.4,35.9H18c2.1,0,2.8,1,2.9,1.6c0-0.6,0.8-1.6,3-1.6h3.5c0.2,1.3,0.1,2.8-0.4,4.3c-0.9,1.7-2.7,2.5-4,4
	c-1.3,1.8-1.1,5.4-0.7,6.3c0.3,0.8,1.2,1.4,2.2,1.7c0.3,0.1,1.1,0.3,1.9,0.5c0.7,0.2,1.4,0.4,1.8,0.6c0.9,0.5,1.9,1.4,1.9,2.8h-2.5
	c-0.5-1.5-3.3-1.5-5.8-2.6c-0.3-0.1-1.1-0.4-1.7-0.8c-0.5-0.4-0.8-0.9-1-1.2c-0.3-0.5-0.4-1.1-0.5-1.7c-0.2-1.8,0.3-3.7-0.3-5.4
	c-1-1.9-2-1.3-3.4-4.2C14.4,39.2,14.2,37.7,14.4,35.9z M17.4,45.4L15.9,47l-0.8-0.5l1.4-2.5C16.9,44.2,17.4,44.7,17.4,45.4z M9.2,32
	c0.1-0.7,0.9-0.7,1,0v1.4c-0.2,0.6-0.8,0.7-1-0.1V32z M7.7,32c0.1-0.7,0.9-0.7,1,0v1.4c-0.2,0.6-0.8,0.7-1-0.1V32z M6.2,32
	c0.1-0.7,0.9-0.7,1,0v1.4c-0.2,0.6-0.8,0.7-1-0.1V32z M5,32.1c0.1-0.6,0.5-0.7,0.7-0.1h0.1v1.5c-0.2,0.5-0.7,0.4-0.9-0.1
	C4.8,32.7,4.9,32.7,5,32.1z M4.7,34.3c0.3,0.4,0.4,0.3,0.6,0.3C5.7,34.4,5.8,34.4,6,34c0.1,0.4,0.1,0.6,0.7,0.6
	C7,34.4,7.4,34.4,7.5,34c0.1,0.4,0.2,0.5,0.7,0.5c0.3,0,0.6-0.1,0.7-0.6c0.2,0.4,0.4,0.6,0.9,0.6c0.3-0.1,0.6-0.4,0.7-0.7
	c0.1-0.8,0.2-1.3,0.8-1.7l0.1,2.7c-1.5,0-3.8,2-4.8,2.9C5.3,37,4.8,35.2,4.7,34.3z M5.1,40.1c1.5-0.7,3-2.6,4.5-3.4s2.3-0.8,3.5-0.8
	c0.2,1.5-0.2,3.3,0.8,5c-2.3,0.7-4.2,1-5.6,2.2C7.1,43.1,4.2,40.6,5.1,40.1z M3.4,52.9c0.3-3.3,2.3-6.8,5.5-9
	c1.9-1.1,3.4-1.6,5.6-1.9c0.6,0.7,0.9,0.9,1.4,1.2L14,46.7l2,1.2l1.5-1.5c0.1,4.7,0.5,5.8,1.7,6.8c-2.6,1.1-5.1,3.3-7,5.5l0.1-5
	c-0.5-0.2-1.4,0.1-1.7,0.5l0.1-5.7c-1.2,1.6-0.9,4.1-1,5.3h-3v1.7c-0.4,0.1-0.9-0.1-1.2,0.4c-0.6,0.7-0.4,1.4,0.1,1.7
	c-0.8,0.3-0.5,1.6,0,1.7c-0.7,0.1-0.4,0.9-0.3,1.3C3.6,58.5,3.4,55.8,3.4,52.9z M8.8,62.3H6.7c-0.8,0.1-1.2-1.1-0.1-1.1h2.1
	C9.8,61.1,9.5,62.5,8.8,62.3z M9,63.4v1.9c-0.9-0.7-1-0.9-1.1-1.9H9z M8.9,60.7H6.8c-0.8,0.1-1.2-1.1-0.1-1.1h2.1
	C9.8,59.5,9.6,60.8,8.9,60.7z M8.9,59.1H6.8C6,59.2,5.6,58,6.7,58h2.1C9.8,57.9,9.6,59.3,8.9,59.1z M8.9,57.5H6.8
	c-0.8,0.1-1.2-1.1-0.1-1.1h2.1C9.8,56.3,9.6,57.6,8.9,57.5z M7.6,55.5v-0.9H9v0.9H7.6z M6.8,63.3c0.3,1.5,1.6,2.8,3.1,3.2v-2.1
	c1.6,1,4.4,1.6,6.3,0.4c0,0.3,0.2,0.5,0.5,0.6c-0.6,0.6-0.5,1.4,0,1.9c-0.6,0.4-0.6,1.5,0,1.9c-0.5,0.5-0.7,1.5,0.1,2.1
	c-0.3,0.1-0.5,0.3-0.5,0.7c-3.9-3.6-8.2,1.8-12.4,0.1C0.1,70,1.8,61.4,6.8,63.3z"/>
<path class="st1" d="M11.8,27.6c0,0.4,0.4,0.8,0.8,0.8c0.4,0,0.8-0.4,0.8-0.8c0-0.4-0.4-0.8-0.8-0.8C12.2,26.8,11.8,27.2,11.8,27.6z
	"/>
<path class="st1" d="M29.1,74.6c-3,0-7-0.5-8.3,1.2c-1.4-1.7-5.3-1.2-8.3-1.2c-4.1,0-8.2,1.5-10.9-1.4c0.6,2.6,0.2,5.3,4.6,6.4
	c3,0.8,13.2-1.5,14.6,2.4c1.4-4,11.5-2,14.7-2.4c4.3-0.6,4.1-4,4.3-6.4C36.7,76.1,33.2,74.6,29.1,74.6z M35,78.2
	c-3,0.1-7.5,0-9.9,0.2c-2.5,0.3-3.3,0.7-4.3,1.9c-1-1.2-1.9-1.6-4.4-1.9c-2.4-0.2-7-0.1-9.9-0.2c-2.1-0.1-3.5-0.8-3.7-3.1
	c1.6,1.3,5.3,0.6,8.8,0.6c4.1,0,8.2-0.3,9.2,1.8c1-2.1,5.2-1.8,9.2-1.8c3.5,0,7.2,0.7,8.8-0.6C38.6,77.4,37.2,78.1,35,78.2z"/>
<path class="st1" d="M24.9,38.9c0.4-0.3,0.6-0.8,0.6-1.2c-0.6-0.1-2-0.1-2.3,0c-0.5,0.1-0.9,0.9-0.8,1.4
	C23.3,39.2,24.3,39.2,24.9,38.9z"/>
<path class="st1" d="M9.6,25.5c0.4,0,0.8-0.4,0.8-0.8c0-0.4-0.4-0.8-0.8-0.8c-0.4,0-0.8,0.4-0.8,0.8C8.8,25.1,9.2,25.5,9.6,25.5z"/>
<path class="st1" d="M12.7,28.9c-0.4,0-0.8,0.4-0.8,0.8c0,0.4,0.4,0.8,0.8,0.8c0.4,0,0.8-0.4,0.8-0.8C13.5,29.3,13.1,28.9,12.7,28.9
	z"/>
<path class="st1" d="M16.8,38.8c0.6,0.3,1.6,0.3,2.5,0.2c0.1-0.4-0.2-1.2-0.8-1.3c-0.4-0.1-1.7-0.1-2.3-0.1
	C16.2,38,16.5,38.6,16.8,38.8z"/>
<path class="st1" d="M11.5,26.4c0.4,0,0.8-0.4,0.8-0.8c0-0.4-0.4-0.8-0.8-0.8s-0.8,0.4-0.8,0.8C10.7,26.1,11.1,26.4,11.5,26.4z"/>
<path class="st1" d="M49,14.2C47.8,41,47.9,62.4,49,89C50,62.6,50.9,40.2,49,14.2z"/>
<polygon class="st1" points="104.8,71.8 120.1,71.8 125.5,42.8 134.1,42.8 136.4,30.1 103.7,30.1 101.3,42.8 110.2,42.8 "/>
<path class="st1" d="M95,33.2c-3-2.3-7.7-3.4-13.8-3.4h-16l-7.7,41.6h14.9L75,58.6h5.9c5.9,0,10.5-1.3,13.8-4
	c3.3-2.7,4.9-6.4,4.9-11.3C99.6,38.8,98.1,35.4,95,33.2z M83,46.8c-1.1,0.7-2.7,1-4.9,1H77l1.4-7.1h0.7c1.9,0,3.3,0.2,4.2,0.7
	c0.9,0.5,1.3,1.3,1.3,2.3C84.6,45.1,84.1,46.1,83,46.8z"/>
<circle class="st1" cx="133.6" cy="68.3" r="3.4"/>
<polygon points="0,99.1 4.1,99.1 4.1,110.5 5.8,110.5 5.8,99.1 9.9,99.1 9.9,97.7 0,97.7 "/>
<path d="M15.3,100.9c-0.8,0-1.6,0.2-2.2,0.6c-0.6,0.4-1.2,1-1.5,1.7c-0.3,0.7-0.5,1.6-0.5,2.5H11v0.1c0,1.5,0.4,2.7,1.2,3.6
	c0.8,0.9,1.8,1.3,3.1,1.3c0.9,0,1.7-0.2,2.3-0.6c0.6-0.4,1.1-1,1.5-1.7c0.3-0.7,0.5-1.6,0.5-2.5v-0.1c0-1.5-0.4-2.7-1.2-3.6
	C17.6,101.3,16.6,100.9,15.3,100.9z M17.5,108.3c-0.5,0.7-1.2,1-2,1c-0.9,0-1.5-0.4-2-1c-0.5-0.6-0.7-1.4-0.7-2.5
	c0-1.1,0.4-2,0.8-2.7c0.4-0.7,1.1-1,1.9-1s1.5,0.4,2,1c0.5,0.6,0.7,1.5,0.7,2.5C18.2,106.7,18,107.7,17.5,108.3z"/>
<path d="M35.2,104.4c-0.6-0.4-1.4-0.7-2.5-1c-1.1-0.3-1.8-0.7-2.3-1s-0.7-0.8-0.7-1.3c0-0.6,0.2-1.1,0.7-1.5
	c0.4-0.4,1.1-0.6,1.9-0.6c0.9,0,1.6,0.3,2.1,0.7s0.7,1,0.7,1.8h1.7c0-0.7-0.2-1.4-0.6-2c-0.4-0.6-0.9-1.1-1.6-1.4
	c-0.7-0.3-1.5-0.5-2.4-0.5c-1.2,0-2.3,0.3-3.1,1c-0.8,0.7-1.2,1.5-1.2,2.5c0,0.8,0.3,1.6,1,2.2c0.7,0.6,1.8,1.1,3.2,1.5
	c1.2,0.3,2,0.7,2.4,1.1c0.5,0.4,0.7,0.9,0.7,1.5c0,0.6-0.3,1.2-0.7,1.5s-1.1,0.5-2,0.5c-1,0-1.7-0.3-2.3-0.7c-0.6-0.4-0.9-1-0.9-1.8
	h-1.7c0,0.7,0.1,1.4,0.6,2c0.5,0.6,1,1.1,1.8,1.4c0.8,0.3,1.6,0.5,2.5,0.5c1.3,0,2.4-0.3,3.2-0.9c0.8-0.6,1.2-1.5,1.2-2.5
	c0-0.7-0.1-1.2-0.4-1.7S35.8,104.8,35.2,104.4z"/>
<path d="M43.4,100.9c-0.8,0-1.5,0.2-2.1,0.6c-0.6,0.4-1.2,1-1.5,1.7c-0.3,0.7-0.5,1.6-0.5,2.5v0.3c0,1.4,0.4,2.5,1.2,3.4
	c0.8,0.9,1.8,1.3,3.1,1.3c1.6,0,2.8-0.6,3.6-1.7l-1-0.8c-0.3,0.4-0.6,0.6-1,0.9c-0.4,0.3-0.9,0.4-1.5,0.4c-0.8,0-1.5-0.3-2-0.9
	c-0.5-0.6-0.8-1.4-0.8-2.3h6.4v-0.7c0-1.5-0.3-2.7-1-3.5S44.6,100.9,43.4,100.9z M45.7,104.8h-4.8c0.1-0.9,0.3-1.5,0.8-2
	s1-0.7,1.7-0.7c0.7,0,1.2,0.3,1.6,0.7C45.4,103.2,45.7,103.9,45.7,104.8L45.7,104.8z"/>
<path d="M51.7,102.1V101h-1.6v9.5h1.6v-6.8c0.4-0.9,1.1-1.4,2.2-1.4c0.3,0,0.6,0.1,0.8,0.1v-1.5c-0.1-0.1-0.4-0.1-0.7-0.1
	C53,100.8,52.2,101.3,51.7,102.1z"/>
<polygon points="60.4,108.3 58,101 56.5,101 59.9,110.5 61.1,110.5 64.5,101 62.8,101 "/>
<path d="M70.5,100.9c-0.8,0-1.5,0.2-2.1,0.6c-0.6,0.4-1.2,1-1.5,1.7c-0.3,0.7-0.5,1.6-0.5,2.5v0.3c0,1.4,0.4,2.5,1.2,3.4
	c0.8,0.9,1.8,1.3,3.1,1.3c1.6,0,2.8-0.6,3.6-1.7l-1-0.8c-0.3,0.4-0.6,0.6-1,0.9c-0.4,0.3-0.9,0.4-1.5,0.4c-0.8,0-1.5-0.3-2-0.9
	c-0.5-0.6-0.8-1.4-0.8-2.3h6.4v-0.7c0-1.5-0.3-2.7-1-3.5S71.7,100.9,70.5,100.9z M72.8,104.8H68c0.1-0.9,0.3-1.5,0.8-2
	s1-0.7,1.7-0.7s1.2,0.3,1.6,0.7C72.5,103.2,72.8,103.9,72.8,104.8L72.8,104.8z"/>
<path d="M84.2,97.6c-0.5,0.6-0.8,1.4-0.8,2.4v1h-1.5v1.2h1.5v8.3v0.1H85v-8.3h2V101h-2v-1c0-0.6,0.1-1.1,0.4-1.4
	c0.3-0.3,0.7-0.5,1.2-0.5c0.3,0,0.6,0,0.9,0.1l0.1-1.3c-0.4-0.1-0.7-0.1-1.1-0.1C85.5,96.8,84.7,97,84.2,97.6z"/>
<path d="M93.5,100.9c-0.8,0-1.5,0.2-2.2,0.6c-0.6,0.4-1.1,1-1.5,1.7c-0.3,0.7-0.5,1.6-0.5,2.5h-0.1v0.1c0,1.5,0.4,2.7,1.2,3.6
	c0.8,0.9,1.8,1.3,3.1,1.3c0.9,0,1.6-0.2,2.3-0.6c0.6-0.4,1.1-1,1.5-1.7c0.3-0.7,0.5-1.6,0.5-2.5v-0.1c0-1.5-0.4-2.7-1.2-3.6
	C95.8,101.3,94.8,100.9,93.5,100.9z M95.6,108.3c-0.5,0.7-1.2,1-2,1c-0.9,0-1.5-0.4-2-1c-0.5-0.6-0.7-1.4-0.7-2.5
	c0-1.1,0.4-2,0.8-2.7c0.4-0.7,1.1-1,1.9-1c0.8,0,1.5,0.4,2,1c0.5,0.6,0.7,1.5,0.7,2.5C96.3,106.7,96.1,107.7,95.6,108.3z"/>
<path d="M102.5,102.1V101h-1.6v9.5h1.6v-6.8c0.4-0.9,1.1-1.4,2.2-1.4c0.3,0,0.6,0.1,0.8,0.1v-1.5c-0.1-0.1-0.4-0.1-0.7-0.1
	C103.8,100.8,103,101.3,102.5,102.1z"/>
<polygon points="117.4,104.1 114,97.7 112.1,97.7 116.5,105.7 116.5,110.5 118.2,110.5 118.2,105.7 122.6,97.7 120.7,97.7 "/>
<path d="M128.1,100.9c-0.8,0-1.5,0.2-2.2,0.6c-0.6,0.4-1.1,1-1.5,1.7c-0.3,0.7-0.5,1.6-0.5,2.5h-0.1v0.1c0,1.5,0.4,2.7,1.2,3.6
	c0.8,0.9,1.8,1.3,3.1,1.3c0.9,0,1.6-0.2,2.3-0.6c0.6-0.4,1.1-1,1.5-1.7c0.3-0.7,0.5-1.6,0.5-2.5v-0.1c0-1.5-0.4-2.7-1.2-3.6
	S129.4,100.9,128.1,100.9z M130.3,108.3c-0.5,0.7-1.2,1-2,1c-0.9,0-1.5-0.4-2-1c-0.5-0.6-0.7-1.4-0.7-2.5c0-1.1,0.4-2,0.8-2.7
	c0.4-0.7,1.1-1,1.9-1s1.5,0.4,2,1c0.5,0.6,0.7,1.5,0.7,2.5C131,106.7,130.8,107.7,130.3,108.3z"/>
<path d="M141.4,107.9c-0.4,0.9-1.3,1.4-2.5,1.4c-1.2,0-1.8-0.8-1.8-2.2V101h-1.6v6.2c0,1.1,0.3,2,0.8,2.6c0.5,0.6,1.3,0.9,2.3,0.9
	c1.2,0,2.2-0.4,2.8-1.1l0.1,0.9h1.5V101h-1.6V107.9z"/>
<path d="M147.9,102.1V101h-1.6v9.5h1.6v-6.8c0.4-0.9,1.1-1.4,2.2-1.4c0.3,0,0.6,0.1,0.8,0.1v-1.5c-0.1-0.1-0.4-0.1-0.7-0.1
	C149.2,100.8,148.4,101.3,147.9,102.1z"/>
<path d="M165.3,103.8c0.6-0.3,1.1-0.6,1.4-1.1s0.5-1,0.5-1.6c0-1.1-0.3-1.9-1-2.5c-0.7-0.6-1.7-0.9-3.1-0.9h-4.2v12.8h4.3
	c1.4,0,2.5-0.4,3.2-1s1.1-1.6,1.1-2.7c0-0.7-0.2-1.4-0.6-1.9C166.5,104.4,166,104,165.3,103.8z M160.6,99.1h2.5
	c0.9,0,1.5,0.2,1.9,0.5c0.4,0.3,0.6,0.8,0.6,1.5c0,0.6-0.2,1.1-0.7,1.5c-0.5,0.4-1.1,0.6-1.8,0.6h-2.5V99.1z M165.3,108.5
	c-0.5,0.4-1.1,0.6-1.9,0.6h-2.8v-4.6h2.9c1.7,0,2.5,0.8,2.5,2.3C166,107.5,165.8,108.1,165.3,108.5z"/>
<path d="M174.5,100.9c-0.8,0-1.5,0.2-2.1,0.6c-0.6,0.4-1.1,1-1.5,1.7c-0.3,0.7-0.5,1.6-0.5,2.5v0.3c0,1.4,0.4,2.5,1.2,3.4
	c0.8,0.9,1.8,1.3,3.1,1.3c1.6,0,2.8-0.6,3.6-1.7l-1-0.8c-0.3,0.4-0.6,0.6-1,0.9c-0.4,0.3-0.9,0.4-1.5,0.4c-0.8,0-1.5-0.3-2-0.9
	c-0.5-0.6-0.8-1.4-0.8-2.3h6.4v-0.7c0-1.5-0.3-2.7-1-3.5C176.7,101.3,175.7,100.9,174.5,100.9z M176.8,104.8H172
	c0.1-0.9,0.3-1.5,0.8-2s1-0.7,1.7-0.7s1.2,0.3,1.6,0.7C176.5,103.2,176.8,103.9,176.8,104.8L176.8,104.8z"/>
<path d="M183.4,98.7h-1.6v2.3h-1.7v1.3h1.7v5.9c0,0.8,0.3,1.4,0.6,1.9c0.3,0.5,0.9,0.7,1.6,0.7c0.4,0,0.8-0.1,1.2-0.2v-1.3
	c-0.4,0.1-0.6,0.1-0.8,0.1c-0.4,0-0.7-0.1-0.8-0.3c-0.1-0.2-0.2-0.5-0.2-0.9v-5.9h1.8V101h-1.8V98.7z"/>
<path d="M190.2,98.7h-1.6v2.3h-1.7v1.3h1.7v5.9c0,0.8,0.3,1.4,0.6,1.9s0.9,0.7,1.6,0.7c0.4,0,0.8-0.1,1.2-0.2v-1.3
	c-0.4,0.1-0.6,0.1-0.8,0.1c-0.4,0-0.7-0.1-0.8-0.3c-0.1-0.2-0.2-0.5-0.2-0.9v-5.9h1.8V101h-1.8V98.7z"/>
<path d="M198.5,100.9c-0.8,0-1.5,0.2-2.1,0.6c-0.6,0.4-1.1,1-1.5,1.7c-0.3,0.7-0.5,1.6-0.5,2.5v0.3c0,1.4,0.4,2.5,1.2,3.4
	c0.8,0.9,1.8,1.3,3.1,1.3c1.6,0,2.8-0.6,3.6-1.7l-1-0.8c-0.3,0.4-0.6,0.6-1,0.9c-0.4,0.3-0.9,0.4-1.5,0.4c-0.8,0-1.5-0.3-2-0.9
	c-0.5-0.6-0.8-1.4-0.8-2.3h6.4v-0.7c0-1.5-0.3-2.7-1-3.5C200.7,101.3,199.7,100.9,198.5,100.9z M200.8,104.8H196
	c0.1-0.9,0.3-1.5,0.8-2s1-0.7,1.7-0.7s1.2,0.3,1.6,0.7C200.5,103.2,200.8,103.9,200.8,104.8L200.8,104.8z"/>
<path d="M206.8,102.1V101h-1.6v9.5h1.6v-6.8c0.4-0.9,1.1-1.4,2.2-1.4c0.3,0,0.6,0.1,0.8,0.1v-1.5c-0.1-0.1-0.4-0.1-0.7-0.1
	C208.1,100.8,207.3,101.3,206.8,102.1z"/>
<path d="M222.2,100.9c-0.7,0-1.3,0.1-1.8,0.4s-0.9,0.6-1.2,1.1c-0.5-1-1.4-1.5-2.7-1.5c-1.2,0-2.1,0.4-2.8,1.2V101h-1.6v9.6h1.6
	v-6.9c0.4-0.9,1.1-1.4,2.2-1.4c1.3,0,2,0.7,2,2.1v6.2h1.6v-6.3c0.1-0.7,0.3-1.1,0.7-1.5c0.4-0.3,0.9-0.5,1.5-0.5
	c0.8,0,1.3,0.2,1.6,0.5c0.3,0.3,0.5,0.8,0.5,1.5v6.3h1.6v-6.4C225.3,102,224.3,100.9,222.2,100.9z"/>
<path d="M232.6,100.9c-0.8,0-1.5,0.2-2.1,0.6c-0.6,0.4-1.1,1-1.5,1.7c-0.3,0.7-0.5,1.6-0.5,2.5v0.3c0,1.4,0.4,2.5,1.2,3.4
	c0.8,0.9,1.8,1.3,3.1,1.3c1.6,0,2.8-0.6,3.6-1.7l-1-0.8c-0.3,0.4-0.6,0.6-1,0.9c-0.4,0.3-0.9,0.4-1.5,0.4c-0.8,0-1.5-0.3-2-0.9
	c-0.5-0.6-0.8-1.4-0.8-2.3h6.4v-0.7c0-1.5-0.3-2.7-1-3.5S233.8,100.9,232.6,100.9z M234.9,104.8h-4.8c0.1-0.9,0.3-1.5,0.8-2
	s1-0.7,1.7-0.7c0.7,0,1.2,0.3,1.6,0.7C234.6,103.2,234.9,103.9,234.9,104.8L234.9,104.8z"/>
<path d="M243.8,100.8c-1.1,0-2.1,0.5-2.8,1.4l-0.1-1.2h-1.5v9.5h1.6v-6.8c0.2-0.4,0.5-0.8,0.9-1.1c0.4-0.3,0.9-0.4,1.4-0.4
	c0.6,0,1.1,0.2,1.4,0.5s0.5,0.8,0.5,1.5v6.3h1.6v-6.3C246.8,101.9,245.8,100.8,243.8,100.8z"/>
<path d="M252.4,98.7h-1.7v2.3H249v1.3h1.8v5.9c0,0.8,0.3,1.4,0.6,1.9c0.3,0.5,0.9,0.7,1.6,0.7c0.4,0,0.8-0.1,1.2-0.2v-1.3
	c-0.4,0.1-0.6,0.1-0.8,0.1c-0.4,0-0.7-0.1-0.8-0.3c-0.1-0.2-0.2-0.5-0.2-0.9v-5.9h1.8V101h-1.8V98.7z"/>
<path d="M269.7,103.8c-0.1-1-0.4-1.8-1-2.3c-0.6-0.5-1.5-0.8-2.6-0.8c-0.7,0-1.3,0.1-1.9,0.4c-0.6,0.3-1.1,0.6-1.4,1.1
	s-0.5,0.9-0.5,1.4h1.6c0-0.5,0.2-0.8,0.6-1.1c0.4-0.3,0.9-0.4,1.5-0.4c0.7,0,1.2,0.2,1.5,0.5c0.3,0.4,0.5,0.8,0.5,1.4v0.8h-1.6
	c-1.4,0-2.4,0.3-3.2,0.8c-0.7,0.5-1.1,1.3-1.1,2.3c0,0.8,0.3,1.5,0.9,2s1.4,0.8,2.3,0.8c1,0,1.9-0.4,2.7-1.2c0,0.5,0.1,0.8,0.2,1
	v-0.1h1.8v-0.1c-0.2-0.5-0.3-1.2-0.3-2.1V103.8z M268,107.9c-0.2,0.4-0.5,0.7-1,1c-0.5,0.3-1,0.4-1.5,0.4c-0.6,0-1-0.2-1.3-0.5
	s-0.5-0.7-0.5-1.2c0-1.1,1-1.7,3-1.7h1.3V107.9z"/>
<path d="M277.4,100.8c-1.1,0-2.1,0.5-2.8,1.4l-0.1-1.2H273v9.5h1.6v-6.8c0.2-0.4,0.5-0.8,0.9-1.1c0.4-0.3,0.9-0.4,1.4-0.4
	c0.6,0,1.1,0.2,1.4,0.5s0.5,0.8,0.5,1.5v6.3h1.6v-6.3C280.4,101.9,279.4,100.8,277.4,100.8z"/>
<path d="M289.7,102c-0.6-0.7-1.5-1.1-2.6-1.1c-1.1,0-2,0.4-2.7,1.3c-0.7,0.9-1,2-1,3.5h0.1v0.1c0,1.4,0.3,2.6,1,3.5s1.6,1.4,2.7,1.4
	c1.1,0,2-0.4,2.7-1.2l0.1,1h1.3V97h-1.6V102z M289.9,107.8c-0.5,0.9-1.3,1.4-2.3,1.4c-0.7,0-1.3-0.3-1.8-0.9
	c-0.5-0.6-0.7-1.4-0.7-2.5c0-1.2,0.2-2.2,0.7-2.8s1.1-0.9,1.9-0.9c1,0,1.7,0.4,2.2,1.3V107.8z"/>
<path d="M302.4,98.7h-1.6v2.3h-1.7v1.3h1.7v5.9c0,0.8,0.3,1.4,0.6,1.9c0.3,0.5,0.9,0.7,1.6,0.7c0.4,0,0.8-0.1,1.2-0.2v-1.3
	c-0.4,0.1-0.6,0.1-0.8,0.1c-0.4,0-0.7-0.1-0.8-0.3c-0.1-0.2-0.2-0.5-0.2-0.9v-5.9h1.8V101h-1.8V98.7z"/>
<path d="M311.4,100.8c-1.1,0-2.1,0.4-2.8,1.3V97H307v13.5h1.6v-6.8c0.2-0.4,0.5-0.8,0.9-1.1c0.4-0.3,0.9-0.4,1.4-0.4
	c0.6,0,1.1,0.2,1.4,0.5s0.5,0.8,0.5,1.5v6.3h1.6v-6.3C314.4,101.9,313.4,100.8,311.4,100.8z"/>
<path d="M321.6,100.9c-0.8,0-1.5,0.2-2.1,0.6c-0.6,0.4-1.1,1-1.5,1.7c-0.3,0.7-0.5,1.6-0.5,2.5v0.3c0,1.4,0.4,2.5,1.2,3.4
	c0.8,0.9,1.8,1.3,3.1,1.3c1.6,0,2.8-0.6,3.5-1.7l-1-0.8c-0.3,0.4-0.6,0.6-1,0.9c-0.4,0.3-0.9,0.4-1.5,0.4c-0.8,0-1.5-0.3-2-0.9
	c-0.5-0.6-0.8-1.4-0.8-2.3h6.5v-0.7c0-1.5-0.3-2.7-1-3.5C323.8,101.3,322.8,100.9,321.6,100.9z M323.9,104.8h-4.8
	c0.1-0.9,0.3-1.5,0.8-2s1-0.7,1.7-0.7c0.6,0,1.2,0.3,1.6,0.7C323.6,103.2,323.9,103.9,323.9,104.8L323.9,104.8z"/>
<polygon points="342.1,107.6 335.6,97.7 333.9,97.7 333.9,110.5 335.6,110.5 335.6,100.6 342,110.5 343.7,110.5 343.8,110.5 
	343.8,97.7 342.1,97.7 "/>
<path d="M354.7,103.8c-0.1-1-0.4-1.8-1-2.3c-0.6-0.5-1.5-0.8-2.6-0.8c-0.7,0-1.3,0.1-1.9,0.4c-0.6,0.3-1.1,0.6-1.4,1.1
	s-0.5,0.9-0.5,1.4h1.6c0-0.5,0.2-0.8,0.6-1.1c0.4-0.3,0.9-0.4,1.5-0.4c0.7,0,1.2,0.2,1.5,0.5c0.3,0.4,0.5,0.8,0.5,1.4v0.8h-1.6
	c-1.4,0-2.4,0.3-3.2,0.8c-0.7,0.5-1.1,1.3-1.1,2.3c0,0.8,0.3,1.5,0.9,2s1.4,0.8,2.3,0.8c1,0,1.9-0.4,2.7-1.2c0,0.5,0.1,0.8,0.2,1
	v-0.1h1.8v-0.1c-0.2-0.5-0.3-1.2-0.3-2.1V103.8z M353,107.9c-0.2,0.4-0.5,0.7-1,1c-0.5,0.3-1,0.4-1.5,0.4s-1-0.2-1.3-0.5
	s-0.5-0.7-0.5-1.2c0-1.1,1-1.7,3-1.7h1.3V107.9z"/>
<path d="M360.2,98.7h-1.6v2.3h-1.7v1.3h1.7v5.9c0,0.8,0.3,1.4,0.6,1.9c0.3,0.5,0.9,0.7,1.6,0.7c0.4,0,0.8-0.1,1.2-0.2v-1.3
	c-0.4,0.1-0.6,0.1-0.8,0.1c-0.4,0-0.7-0.1-0.8-0.3c-0.1-0.2-0.2-0.5-0.2-0.9v-5.9h1.8V101h-1.8V98.7z"/>
<rect x="365" y="101" width="1.6" height="9.5"/>
<path d="M365.7,97.5c-0.3,0-0.6,0.1-0.7,0.3c-0.1,0.2-0.2,0.4-0.2,0.7c0,0.2,0.1,0.5,0.2,0.7c0.1,0.2,0.4,0.3,0.7,0.3
	c0.3,0,0.6-0.1,0.7-0.3c0.1-0.2,0.2-0.4,0.2-0.7s-0.1-0.5-0.2-0.7C366.3,97.6,366,97.5,365.7,97.5z"/>
<path d="M373.9,100.9c-0.8,0-1.5,0.2-2.2,0.6c-0.6,0.4-1.1,1-1.5,1.7c-0.3,0.7-0.5,1.6-0.5,2.5h-0.1v0.1c0,1.5,0.4,2.7,1.2,3.6
	c0.8,0.9,1.8,1.3,3.1,1.3c0.9,0,1.6-0.2,2.3-0.6c0.6-0.4,1.1-1,1.5-1.7c0.3-0.7,0.5-1.6,0.5-2.5v-0.1c0-1.5-0.4-2.7-1.2-3.6
	C376.2,101.3,375.2,100.9,373.9,100.9z M376,108.3c-0.5,0.7-1.2,1-2,1c-0.9,0-1.5-0.4-2-1c-0.5-0.6-0.7-1.4-0.7-2.5
	c0-1.1,0.4-2,0.8-2.7c0.4-0.7,1.1-1,1.9-1s1.5,0.4,2,1c0.5,0.6,0.7,1.5,0.7,2.5C376.7,106.7,376.5,107.7,376,108.3z"/>
<path d="M385.7,100.8c-1.1,0-2.1,0.5-2.8,1.4l-0.1-1.2h-1.5v9.5h1.6v-6.8c0.2-0.4,0.5-0.8,0.9-1.1c0.4-0.3,0.9-0.4,1.4-0.4
	c0.6,0,1.1,0.2,1.4,0.5s0.5,0.8,0.5,1.5v6.3h1.6v-6.3C388.7,101.9,387.7,100.8,385.7,100.8z"/>
</svg>
