<?xml version="1.0" encoding="utf-8"?>
<!-- Generator: Adobe Illustrator 21.0.0, SVG Export Plug-In . SVG Version: 6.00 Build 0)  -->
<svg version="1.1" id="Layer_1" xmlns="http://www.w3.org/2000/svg" xmlns:xlink="http://www.w3.org/1999/xlink" x="0px" y="0px"
	 viewBox="0 0 74.4 33.2" style="enable-background:new 0 0 74.4 33.2;" xml:space="preserve">
<style type="text/css">
	.st0{fill:#0084FF;}
	.st1{fill:#EC1C24;}
</style>
<g>
	<g>
		<path class="st0" d="M67.6,0.5c-2.4,0-4.5,1.3-5.7,3.2L54,16.2L53.6,6.1c-0.1-4.1-3.2-5.6-5.9-5.6c-2.3,0-4.2,1.2-5.3,3.1
			L23.9,32.7h8.2L47.4,9.2c0,0,0.5,20.1,0.5,20.9c0,1.6,1.4,2.5,2.7,2.5h0.1c1,0,2-0.6,2.4-1.5l0,0L67,9.2v23.5h7.2V7.3
			C74.1,2.9,71.1,0.5,67.6,0.5z"/>
		<polygon class="st1" points="29.4,14.4 29.4,0.5 36.9,0.5 		"/>
		<path class="st0" d="M13.5,0.5L2,18.8c0,0-2.9,3.7-1.4,6.5C2,28,6,27.8,6,27.8h10.6v4.8H24V0.5H13.5z M16.5,21.4H7.1l9.3-14.5
			L16.5,21.4L16.5,21.4z"/>
	</g>
</g>
</svg>
