<?xml version="1.0" encoding="utf-8"?>
<!-- Generator: Adobe Illustrator 21.0.0, SVG Export Plug-In . SVG Version: 6.00 Build 0)  -->
<svg version="1.1" id="Layer_1" xmlns="http://www.w3.org/2000/svg" xmlns:xlink="http://www.w3.org/1999/xlink" x="0px" y="0px"
	 viewBox="0 0 260 80" style="enable-background:new 0 0 260 80;" xml:space="preserve">
<style type="text/css">
	.st0{fill:#0084FF;}
</style>
<g>
	<path d="M71.7,47.8c-0.2,0-0.4-0.1-0.5-0.2c-0.1-0.1-0.2-0.3-0.2-0.5V27.5c0-0.2,0.1-0.4,0.2-0.5s0.3-0.2,0.5-0.2h4
		c0.2,0,0.4,0.1,0.5,0.2s0.2,0.3,0.2,0.5v15.7h9.1c0.2,0,0.4,0.1,0.5,0.2c0.1,0.2,0.2,0.3,0.2,0.6v3c0,0.2-0.1,0.4-0.2,0.5
		s-0.3,0.2-0.5,0.2L71.7,47.8L71.7,47.8z"/>
	<path d="M89.6,47.8c-0.2,0-0.4-0.1-0.5-0.2c-0.2-0.1-0.2-0.3-0.2-0.5V27.5c0-0.2,0.1-0.4,0.2-0.5s0.3-0.2,0.5-0.2h3.2
		c0.3,0,0.6,0.1,0.8,0.3c0.2,0.2,0.3,0.3,0.3,0.4l5.3,9.4l5.3-9.4c0.1-0.1,0.2-0.2,0.3-0.4c0.1-0.2,0.4-0.3,0.7-0.3h3.2
		c0.2,0,0.4,0.1,0.6,0.2c0.1,0.1,0.2,0.3,0.2,0.5V47c0,0.2-0.1,0.4-0.2,0.5s-0.3,0.2-0.6,0.2h-3.6c-0.2,0-0.4-0.1-0.6-0.2
		s-0.2-0.3-0.2-0.5V35.8l-3.4,6.3c-0.1,0.2-0.2,0.3-0.4,0.5c-0.2,0.1-0.4,0.2-0.7,0.2h-1.6c-0.3,0-0.5-0.1-0.7-0.2
		c-0.2-0.1-0.3-0.3-0.4-0.5L94,35.8V47c0,0.2-0.1,0.4-0.2,0.5s-0.3,0.2-0.5,0.2L89.6,47.8L89.6,47.8z"/>
	<path d="M121.5,48.1c-2,0-3.7-0.3-5-0.9c-1.3-0.6-2.3-1.3-3-2.2s-1-1.9-1.1-2.9c0-0.2,0.1-0.3,0.2-0.4c0.1-0.1,0.3-0.2,0.5-0.2h3.8
		c0.3,0,0.5,0,0.6,0.1s0.3,0.2,0.4,0.4c0.2,0.3,0.4,0.6,0.7,0.9c0.3,0.3,0.7,0.5,1.2,0.7s1.1,0.3,1.7,0.3c1.2,0,2-0.2,2.6-0.5
		c0.6-0.4,0.9-0.8,0.9-1.5c0-0.5-0.2-0.8-0.5-1.1s-0.8-0.5-1.5-0.8c-0.7-0.2-1.7-0.5-2.8-0.7c-1.5-0.3-2.8-0.7-3.9-1.2
		s-1.9-1.2-2.4-2c-0.6-0.8-0.8-1.9-0.8-3.1c0-1.2,0.3-2.3,1-3.3s1.7-1.7,2.9-2.3c1.2-0.5,2.7-0.8,4.4-0.8c1.4,0,2.6,0.2,3.6,0.5
		c1,0.4,1.9,0.8,2.7,1.4c0.7,0.6,1.3,1.2,1.6,1.9c0.4,0.7,0.6,1.3,0.6,2c0,0.2-0.1,0.3-0.2,0.4c-0.1,0.1-0.3,0.2-0.5,0.2h-4
		c-0.2,0-0.4,0-0.6-0.1s-0.3-0.2-0.4-0.4c-0.1-0.4-0.4-0.8-0.9-1.2c-0.5-0.3-1.2-0.5-2-0.5c-0.9,0-1.6,0.2-2.1,0.5s-0.7,0.8-0.7,1.4
		c0,0.4,0.1,0.8,0.4,1c0.3,0.3,0.7,0.6,1.3,0.8c0.6,0.2,1.5,0.4,2.6,0.7c1.8,0.3,3.3,0.8,4.4,1.3s1.9,1.2,2.5,2s0.8,1.8,0.8,3
		c0,1.4-0.4,2.5-1.2,3.5s-1.8,1.7-3.2,2.3S123.3,48.1,121.5,48.1z"/>
	<path d="M134,53.5c-0.2,0-0.4-0.1-0.5-0.2c-0.1-0.1-0.2-0.3-0.2-0.5V32.9c0-0.2,0.1-0.4,0.2-0.5c0.1-0.1,0.3-0.2,0.5-0.2h3.4
		c0.2,0,0.4,0.1,0.5,0.2c0.1,0.1,0.2,0.3,0.2,0.5V34c0.5-0.6,1.1-1.1,1.9-1.5c0.8-0.4,1.7-0.6,2.8-0.6c1,0,1.9,0.2,2.6,0.5
		c0.8,0.3,1.4,0.8,2,1.4c0.5,0.6,1,1.3,1.3,2.2s0.5,1.9,0.5,3c0,0.4,0,0.8,0,1.1s0,0.7,0,1.1c0,1.1-0.2,2.1-0.5,2.9
		c-0.3,0.9-0.7,1.6-1.3,2.2c-0.5,0.6-1.2,1.1-2,1.4c-0.8,0.3-1.7,0.5-2.7,0.5s-1.8-0.2-2.6-0.5c-0.7-0.3-1.3-0.8-1.8-1.5v6.7
		c0,0.2-0.1,0.4-0.2,0.5c-0.1,0.1-0.3,0.2-0.5,0.2H134V53.5z M141.2,44.1c0.7,0,1.2-0.1,1.6-0.4c0.4-0.3,0.7-0.7,0.8-1.1
		s0.3-1,0.3-1.6s0-1.2,0-1.9c0-0.6-0.1-1.1-0.3-1.6s-0.4-0.9-0.8-1.1c-0.4-0.3-0.9-0.4-1.6-0.4c-0.6,0-1.2,0.1-1.6,0.4
		c-0.4,0.3-0.7,0.7-0.9,1.1c-0.2,0.5-0.3,1-0.3,1.5c0,0.4,0,0.8,0,1.1s0,0.7,0,1.1c0,0.5,0.1,1,0.3,1.4s0.5,0.8,0.9,1
		C140,43.9,140.6,44.1,141.2,44.1z"/>
	<path d="M152.9,47.8c-0.2,0-0.4-0.1-0.5-0.2c-0.1-0.1-0.2-0.3-0.2-0.5V32.9c0-0.2,0.1-0.4,0.2-0.5c0.1-0.1,0.3-0.2,0.5-0.2h3.5
		c0.2,0,0.4,0.1,0.6,0.2s0.2,0.3,0.2,0.5v1.2c0.5-0.6,1.2-1.1,1.9-1.4c0.8-0.3,1.6-0.5,2.5-0.5h1.3c0.2,0,0.4,0.1,0.5,0.2
		c0.1,0.1,0.2,0.3,0.2,0.5V36c0,0.2-0.1,0.4-0.2,0.5c-0.1,0.1-0.3,0.2-0.5,0.2H160c-0.8,0-1.5,0.2-1.9,0.7s-0.7,1.1-0.7,1.9V47
		c0,0.2-0.1,0.4-0.2,0.5s-0.3,0.2-0.6,0.2L152.9,47.8L152.9,47.8z"/>
	<path d="M173.1,48.1c-1.7,0-3.1-0.3-4.2-0.8c-1.1-0.5-2-1.3-2.6-2.3s-1-2.2-1-3.6c0-0.4,0-0.9,0-1.4s0-1,0-1.3
		c0.1-1.4,0.4-2.6,1.1-3.6c0.6-1,1.5-1.8,2.7-2.3c1.1-0.5,2.5-0.8,4.2-0.8c1.6,0,3,0.3,4.2,0.8c1.1,0.5,2,1.3,2.7,2.3
		c0.6,1,1,2.2,1.1,3.6c0,0.4,0,0.8,0,1.3s0,1,0,1.4c-0.1,1.4-0.4,2.6-1,3.6s-1.5,1.8-2.6,2.3C176.2,47.8,174.8,48.1,173.1,48.1z
		 M173.1,44.4c0.9,0,1.6-0.3,2-0.8s0.6-1.4,0.7-2.4c0-0.3,0-0.7,0-1.2s0-0.9,0-1.2c-0.1-1.1-0.3-1.9-0.7-2.4s-1.1-0.8-2-0.8
		s-1.5,0.3-1.9,0.8c-0.4,0.6-0.7,1.4-0.7,2.4c0,0.3,0,0.7,0,1.2s0,0.9,0,1.2c0,1.1,0.3,1.9,0.7,2.4S172.2,44.4,173.1,44.4z"/>
	<path class="st0" d="M184.5,47.8c-0.2,0-0.4-0.1-0.5-0.2c-0.1-0.1-0.2-0.3-0.2-0.5v-3.8c0-0.2,0.1-0.4,0.2-0.5
		c0.1-0.1,0.3-0.2,0.5-0.2h3.8c0.2,0,0.4,0.1,0.5,0.2c0.1,0.1,0.2,0.3,0.2,0.5V47c0,0.2-0.1,0.4-0.2,0.5s-0.3,0.2-0.5,0.2
		L184.5,47.8L184.5,47.8z"/>
</g>
</svg>
