<?xml version="1.0" encoding="utf-8"?>
<!-- Generator: Adobe Illustrator 21.0.0, SVG Export Plug-In . SVG Version: 6.00 Build 0)  -->
<svg version="1.1" id="Layer_1" xmlns="http://www.w3.org/2000/svg" xmlns:xlink="http://www.w3.org/1999/xlink" x="0px" y="0px"
	 viewBox="0 0 120 74.9" style="enable-background:new 0 0 120 74.9;" xml:space="preserve">
<style type="text/css">
	.st0{fill:#A3BA3F;}
</style>
<g>
	<g>
		<polygon points="11,60.6 11,51.5 6.6,60.6 5.8,60.6 1.3,51.5 1.3,60.6 0,60.6 0,48.8 1.4,48.8 6.2,58.5 10.9,48.8 12.3,48.8 
			12.3,60.6 		"/>
		<polygon points="11.2,49.1 11.1,49.1 6.2,59.1 1.2,49.1 0.4,49.1 0.3,49.1 0.3,60.3 0.9,60.3 1,60.3 1,50.2 6,60.3 6.3,60.3 
			6.4,60.3 11.3,50.2 11.3,60.3 11.5,60.3 11.9,60.3 12,60.3 12,49.1 		"/>
		<path d="M48.9,60.8c-1.6,0-3.2-0.6-4.3-1.7c-1.1-1.1-1.8-2.7-1.8-4.4c0-1.7,0.6-3.2,1.8-4.4c1.1-1.1,2.7-1.7,4.3-1.7
			c1.6,0,3.2,0.6,4.3,1.7c1.2,1.1,1.8,2.7,1.8,4.4c0,1.7-0.6,3.2-1.8,4.4C52.1,60.2,50.6,60.8,48.9,60.8z M48.9,49.9
			c-2.7,0-4.8,2.1-4.8,4.8c0,2.7,2.1,4.8,4.8,4.8c2.7,0,4.8-2.1,4.8-4.8C53.7,52,51.6,49.9,48.9,49.9z"/>
		<path d="M53,50.6c-1.1-1-2.5-1.6-4.1-1.6c-1.6,0-3.1,0.6-4.1,1.6c-1,1-1.7,2.5-1.7,4.1c0,1.7,0.6,3.1,1.7,4.2c1,1,2.5,1.6,4.1,1.6
			c1.6,0,3-0.6,4.1-1.6c1.1-1,1.7-2.5,1.7-4.2C54.7,53,54.1,51.6,53,50.6 M48.9,59.8c-2.8,0-5.1-2.2-5.1-5.1c0-2.9,2.3-5.1,5.1-5.1
			c2.8,0,5.1,2.2,5.1,5.1C54,57.7,51.7,59.8,48.9,59.8z"/>
		<polygon points="67,60.6 60,51 60,60.6 58.7,60.6 58.7,48.8 60,48.8 66.9,58.3 66.9,48.8 68.2,48.8 68.2,60.6 		"/>
		<polygon points="67.3,49.1 67.2,49.1 67.2,59.2 59.9,49.1 59.1,49.1 59,49.1 59,60.3 59.6,60.3 59.7,60.3 59.7,50.1 67.1,60.3 
			67.2,60.3 67.8,60.3 67.9,60.3 67.9,49.1 		"/>
		<path d="M80.9,60.6V48.8h3c1.3,0,2.2,0.1,3,0.7c0.8,0.6,1.3,1.7,1.3,2.8c0,1.1-0.5,2.2-1.3,2.8l-0.1,0.1h0
			c-0.8,0.6-1.7,0.7-2.9,0.7h-1.7v4.7C82.2,60.6,80.9,60.6,80.9,60.6z M83.8,54.6c1.2,0,1.7-0.1,2.2-0.5c0.4-0.3,0.7-1,0.7-1.7
			c0-0.7-0.3-1.4-0.7-1.7l0,0c-0.5-0.4-1.1-0.5-2.2-0.5h-1.7v4.5H83.8z"/>
		<path d="M86.6,49.8c-0.8-0.6-1.5-0.7-2.8-0.7h-2.7v11.2h0.6h0.1v-4.7h2c1.3,0,2.1-0.1,2.8-0.7h0c0.7-0.5,1.2-1.5,1.2-2.6
			C87.8,51.3,87.3,50.3,86.6,49.8 M83.8,54.9h-2v-5.1h2c1.2,0,1.8,0.1,2.4,0.6h0c0.5,0.3,0.8,1.2,0.8,2c0,0.8-0.4,1.6-0.8,2
			C85.6,54.8,85.1,54.9,83.8,54.9z"/>
		<rect x="92.4" y="48.8" width="1.3" height="11.8"/>
		<polygon points="92.9,49.1 92.7,49.1 92.7,49.3 92.7,60.3 93.3,60.3 93.4,60.3 93.4,49.1 		"/>
		<polygon points="106.9,60.6 99.9,51 99.9,60.6 98.6,60.6 98.6,48.8 99.9,48.8 106.8,58.3 106.8,48.8 108.1,48.8 108.1,60.6 		"/>
		<polygon points="107.2,49.1 107.1,49.1 107.1,59.2 99.8,49.1 99,49.1 98.9,49.1 98.9,60.3 99.5,60.3 99.6,60.3 99.6,50.1 
			107,60.3 107.1,60.3 107.6,60.3 107.8,60.3 107.8,49.1 		"/>
		<polygon points="113.1,60.6 113.1,48.8 120,48.8 120,50.1 114.5,50.1 114.5,54 120,54 120,55.3 114.5,55.3 114.5,59.3 120,59.3 
			120,60.6 		"/>
		<polygon points="113.4,49.1 113.4,60.3 113.6,60.3 119.7,60.3 119.7,59.8 119.7,59.6 114.2,59.6 114.2,55 119.7,55 119.7,54.5 
			119.7,54.3 114.2,54.3 114.2,49.8 119.7,49.8 119.7,49.3 119.7,49.1 		"/>
		<path d="M25.7,60.9l-1.1-2.7h-5.7l-1.1,2.7h-1.4l4.7-11.8h1.1l4.7,11.8L25.7,60.9L25.7,60.9z M24.1,56.9l-0.1-0.2l-0.2-0.4
			l-2.1-5.3l-2.1,5.3l-0.2,0.4l-0.1,0.1H24.1z"/>
		<path d="M22.1,49.4L22.1,49.4h-0.6h-0.1l-4.5,11.2h0.6h0.1l1.1-2.7h6.1l1.1,2.7h0.5h0.2L22.1,49.4z M24.6,57.2H19l0.2-0.6l0.2-0.4
			l2.4-6l2.4,6l0.2,0.4L24.6,57.2z"/>
		<path d="M35,61c-0.7,0-1.4-0.2-2-0.4l0,0c-0.7-0.3-1.3-0.8-1.7-1.3c-0.3-0.4-0.5-0.9-0.5-1.4l-0.1-0.6l1.3-0.1l0.1,0.6
			c0,0.3,0.1,0.5,0.3,0.8l0.1,0.1c0.2,0.2,0.4,0.4,0.7,0.6c1,0.6,2.6,0.7,3.6,0.2c0.5-0.2,0.9-0.6,1.2-1c0.2-0.3,0.2-0.6,0.2-0.9
			c0-0.2,0-0.3,0-0.5c-0.1-0.3-0.2-0.5-0.4-0.7l0,0h0l0,0c-0.2-0.2-0.5-0.3-0.8-0.4c-0.5-0.1-1.1-0.2-1.7-0.2
			c-0.4,0-0.7-0.1-1.1-0.1c-0.8-0.1-1.4-0.3-1.9-0.6l0,0l0,0c-0.3-0.2-0.6-0.5-0.8-0.8c-0.3-0.4-0.4-0.9-0.4-1.5l0-0.3
			c0-0.7,0.2-1.4,0.6-1.9c0.4-0.5,1-0.9,1.6-1.2c0.6-0.2,1.3-0.4,2-0.4c0.9,0,1.8,0.2,2.5,0.7c0.7,0.4,1.2,1.1,1.4,1.9l0,0l0.1,0.3
			l0.1,0.6l-1.3,0.3l-0.1-0.7c-0.1-0.4-0.2-0.7-0.5-0.9C36.8,50.3,35.9,50,35,50l0,0c-0.5,0-1,0.1-1.4,0.3c-0.5,0.2-0.8,0.4-1.1,0.8
			c-0.3,0.3-0.4,0.7-0.4,1.1c0,0.1,0,0.1,0,0.2c0,0.4,0.1,0.7,0.3,0.9l0,0.1c0.1,0.2,0.3,0.3,0.5,0.4c0.5,0.3,1.3,0.4,2.1,0.4
			c0.5,0,1.1,0.1,1.7,0.2c0.6,0.1,1.4,0.4,2,1c0.3,0.3,0.5,0.8,0.6,1.3c0.1,0.3,0.1,0.5,0.1,0.8c0,0.6-0.1,1.1-0.4,1.6
			c-0.2,0.4-0.6,0.8-1,1.1C37.1,60.7,36,61,35,61z M33.2,60c0.6,0.2,1.2,0.4,1.8,0.4c1,0,1.9-0.3,2.6-0.8c0.4-0.3,0.7-0.6,0.9-0.9
			c0.2-0.4,0.3-0.8,0.3-1.3c0-0.2,0-0.4-0.1-0.6c-0.1-0.4-0.3-0.8-0.5-1c-0.4-0.4-0.9-0.6-1.7-0.8c-0.5-0.1-1.1-0.2-1.6-0.2
			c-0.8-0.1-1.7-0.2-2.3-0.5c-0.3-0.2-0.6-0.4-0.8-0.7l0-0.1c-0.2-0.3-0.3-0.6-0.3-1.1c0-0.1,0-0.1,0-0.2c0-0.6,0.2-1.1,0.5-1.5
			c0.3-0.4,0.8-0.7,1.3-1c0.5-0.2,1-0.3,1.6-0.3l0,0c0,0,0,0,0,0c1.1,0,2.1,0.4,2.7,1c0.3,0.3,0.5,0.7,0.6,1.2l0,0.1l0.1,0l0-0.1
			c-0.2-0.7-0.6-1.3-1.2-1.7c-0.6-0.4-1.4-0.6-2.2-0.6c-0.6,0-1.2,0.1-1.8,0.3c-0.6,0.2-1,0.6-1.4,1c-0.3,0.4-0.5,1-0.5,1.5l0,0.3
			c0,0.5,0.2,0.9,0.4,1.2c0.2,0.3,0.4,0.5,0.6,0.6l-0.1,0.1l0.1-0.1c0.4,0.2,0.9,0.4,1.6,0.5c0.3,0,0.7,0.1,1,0.1
			c0.6,0.1,1.2,0.1,1.8,0.3c0.5,0.1,0.8,0.3,1.1,0.5c0.3,0.3,0.5,0.6,0.6,1.1c0,0.2,0.1,0.4,0.1,0.6c0,0.4-0.1,0.8-0.3,1.2
			c-0.3,0.5-0.8,0.9-1.4,1.2c-1.2,0.6-3,0.5-4.2-0.2c-0.1-0.1-0.2-0.1-0.3-0.2v0.1C32.6,59.7,32.9,59.9,33.2,60z M31.3,57.7
			L31.3,57.7c0,0.5,0.2,0.8,0.4,1.2c0.1,0.2,0.3,0.4,0.5,0.6l-0.4-0.6c-0.2-0.4-0.4-0.7-0.4-1.1l0,0L31.3,57.7z"/>
		<path d="M39,56.7L39,56.7c-0.1-0.5-0.3-0.9-0.6-1.1c-0.5-0.5-1.2-0.7-1.8-0.9c-0.5-0.1-1.1-0.2-1.6-0.2c-0.8-0.1-1.6-0.2-2.2-0.5
			c-0.3-0.1-0.5-0.3-0.7-0.6v0c-0.2-0.3-0.3-0.6-0.3-1v0v0c0-0.1,0-0.1,0-0.2c0-0.5,0.1-0.9,0.4-1.3l0,0c0.3-0.4,0.7-0.7,1.2-0.9
			c0.5-0.2,1-0.3,1.5-0.3l0.1,0c0.9,0,1.9,0.3,2.5,0.9c0.3,0.3,0.5,0.7,0.5,1.1l0,0.2l0,0.1l0.6-0.1l0.1,0l0-0.3l0-0.1l0,0
			c-0.2-0.8-0.7-1.5-1.3-1.9C36.7,49.2,35.9,49,35,49c-0.6,0-1.3,0.1-1.9,0.4c-0.6,0.2-1.1,0.6-1.5,1.1c-0.4,0.5-0.6,1.1-0.6,1.7
			c0,0.1,0,0.2,0,0.3v0v0c0,0.5,0.2,1,0.4,1.3c0.2,0.3,0.4,0.5,0.7,0.7l0,0l0,0c0.5,0.3,1.1,0.5,1.8,0.6c1,0.1,2,0.2,2.8,0.4
			c0.4,0.1,0.7,0.3,1,0.5v0v0c0.3,0.2,0.4,0.5,0.5,0.9c0,0.2,0.1,0.4,0.1,0.6c0,0.4-0.1,0.8-0.3,1.1c-0.3,0.5-0.7,0.8-1.3,1.1
			C36.2,59.9,35.6,60,35,60c-0.7,0-1.5-0.2-2.1-0.6c-0.3-0.2-0.6-0.4-0.8-0.7v0c-0.2-0.3-0.3-0.6-0.4-1l0-0.1l0-0.1l0-0.1l-0.6,0.1
			l-0.1,0l0,0.4c0.1,0.5,0.2,0.9,0.5,1.3c0.4,0.5,0.9,0.9,1.6,1.2h0h0c0.6,0.3,1.3,0.4,1.9,0.4c1,0,2-0.3,2.8-0.8
			c0.4-0.3,0.7-0.6,1-1c0.2-0.4,0.4-0.9,0.4-1.4C39.1,57.2,39,56.9,39,56.7"/>
		<polygon points="41.7,74.8 41.7,72 39.5,72 39.5,74.8 38.3,74.8 38.3,68.9 39.5,68.9 39.5,70.8 41.7,70.8 41.7,68.9 43,68.9 
			43,74.8 		"/>
		<polygon points="42,71.7 39.3,71.7 39.3,74.5 38.6,74.5 38.6,69.2 39.3,69.2 39.3,71.1 42,71.1 42,69.2 42.7,69.2 42.7,74.5 
			42,74.5 		"/>
		<path d="M51.4,74.9c-1.7,0-3.1-1.4-3.1-3.1c0-1.7,1.4-3.1,3.1-3.1c1.7,0,3.1,1.4,3.1,3.1C54.6,73.5,53.2,74.9,51.4,74.9z
			 M51.4,69.9c-1,0-1.8,0.8-1.8,1.9c0,1,0.8,1.8,1.8,1.8c1,0,1.8-0.8,1.8-1.8C53.3,70.8,52.5,69.9,51.4,69.9z"/>
		<path d="M54.3,71.8c0,1.6-1.3,2.8-2.8,2.8c-1.6,0-2.8-1.3-2.8-2.8c0-1.6,1.3-2.8,2.8-2.8C53,69,54.3,70.2,54.3,71.8 M53.6,71.8
			c0-1.2-1-2.2-2.1-2.2c-1.2,0-2.1,1-2.1,2.2c0,1.2,1,2.1,2.1,2.1C52.6,73.9,53.6,73,53.6,71.8z"/>
		<polygon points="60.4,74.8 60.4,70.1 59,70.1 59,68.9 63.1,68.9 63.1,70.1 61.7,70.1 61.7,74.8 		"/>
		<polygon points="60.7,69.8 59.3,69.8 59.3,69.2 62.8,69.2 62.8,69.8 61.4,69.8 61.4,74.5 60.7,74.5 		"/>
		<polygon points="68.9,74.8 68.9,68.9 72.9,68.9 72.9,70.1 70.2,70.1 70.2,70.8 72.6,70.8 72.6,72 70.2,72 70.2,73.6 72.9,73.6 
			72.9,74.8 		"/>
		<polygon points="69.2,69.2 72.6,69.2 72.6,69.8 69.9,69.8 69.9,71.1 72.3,71.1 72.3,71.7 69.9,71.7 69.9,73.9 72.6,73.9 
			72.6,74.5 69.2,74.5 		"/>
		<polygon points="77.5,74.8 77.5,68.9 78.8,68.9 78.8,73.6 81.7,73.6 81.7,74.8 		"/>
		<polygon points="77.8,69.2 78.5,69.2 78.5,73.9 81.4,73.9 81.4,74.5 77.8,74.5 		"/>
	</g>
	<g>
		<path class="st0" d="M73.9,20.5c-0.8-0.8-1.9-1.3-3.1-1.3c-2.2,0-3.9,1.9-5.5,3.3L61.2,19l3.5-2.9c1.3,1.1,2.6,2.7,4.4,2.7
			c1,0,1.9-0.4,2.6-1.1c0.7-0.7,1.1-1.6,1.1-2.6v0c0-1-0.4-1.9-1.1-2.6c-0.7-0.7-1.6-1.1-2.6-1.1c-0.8,0-1.5,0.2-2.1,0.6
			c-0.8,0.6-1.5,1.2-2.3,1.9l-3.5-3L63,9.5l0.8,0.8c0.4,0.3,0.7,0.6,1.1,0.8c0.3,0.1,0.7,0.3,1.1,0.3c0.8,0,1.5-0.3,2-0.8
			c0.5-0.5,0.8-1.2,0.8-2c0-0.8-0.3-1.5-0.8-2c-0.5-0.5-1.2-0.8-2-0.8c-1.3,0-2.1,0.9-3,1.7l-1.9-1.7l0.8-0.7c0.5-0.5,0.8-1.2,0.8-2
			c0-0.8-0.3-1.5-0.8-2c-0.5-0.5-1.2-0.8-2-0.8h0c-0.8,0-1.5,0.3-2,0.8c-0.5,0.5-0.8,1.2-0.8,2c0,0.6,0.2,1.2,0.6,1.7
			c0.4,0.5,0.7,0.7,1.2,1.1L57,7.3c-0.9-0.8-1.7-1.7-3-1.7c-0.8,0-1.5,0.3-2,0.8c-0.5,0.5-0.8,1.2-0.8,2c0,0.8,0.3,1.5,0.8,2
			c0.5,0.5,1.2,0.8,2,0.8c0.6,0,1.3-0.2,1.8-0.6l1.3-1.2l1.8,1.5l-3.5,3c-1.3-1.1-2.6-2.6-4.4-2.6c-1,0-1.9,0.4-2.6,1.1
			c-0.7,0.7-1.1,1.6-1.1,2.6c0,1,0.4,1.9,1.1,2.6c0.7,0.7,1.6,1.1,2.6,1.1c1.8,0,3.2-1.5,4.4-2.7l3.4,2.9l-4.2,3.5
			c-1.6-1.3-3.2-3.3-5.5-3.3c-1.2,0-2.3,0.5-3.1,1.3c-0.8,0.8-1.3,1.9-1.3,3.1c0,1.2,0.5,2.3,1.3,3.1c0.8,0.8,1.9,1.3,3.1,1.3
			c2.2,0,3.8-2,5.5-3.3l4.2,3.5l-2.4,2c-1.1-1.1-2.1-2.3-3.7-2.3c-0.9,0-1.7,0.4-2.3,1c-0.6,0.6-1,1.4-1,2.3c0,0.9,0.4,1.7,1,2.3
			c0.6,0.6,1.4,1,2.3,1c0.3,0,0.7-0.1,1-0.1c0.5-0.2,0.7-0.3,1.1-0.6l5.3-4.5c1.2,1,5.4,4.8,6.5,5.2c0.3,0.1,0.6,0.1,1,0.1
			c0.9,0,1.7-0.4,2.3-1c0.6-0.6,1-1.4,1-2.3v0c0-0.9-0.4-1.7-1-2.3c-0.6-0.6-1.5-1-2.3-1c-0.6,0-1.5,0.2-1.9,0.6l-1.8,1.7l-2.5-2.1
			l4.1-3.5c1,0.8,1.9,1.6,2.9,2.4c0.7,0.5,1.6,0.8,2.6,0.8c1.2,0,2.3-0.5,3.1-1.3c0.8-0.8,1.3-1.9,1.3-3.1
			C75.2,22.4,74.7,21.3,73.9,20.5 M69.1,13c0.6,0,1.1,0.2,1.5,0.6c0.4,0.4,0.6,0.9,0.6,1.5c0,0.6-0.2,1.1-0.6,1.5
			c-0.4,0.4-0.9,0.6-1.5,0.6c-1.1,0-2.3-1.4-3.2-2.1C66.8,14.3,67.9,13,69.1,13z M66,7.2c0.3,0,0.7,0.1,0.9,0.4
			c0.2,0.2,0.4,0.5,0.4,0.9c0,0.3-0.1,0.6-0.4,0.9c-0.2,0.2-0.5,0.4-0.9,0.4c-0.5,0-1.4-0.9-1.8-1.3C64.7,8,65.3,7.2,66,7.2z
			 M54,9.7c-0.3,0-0.6-0.1-0.9-0.4c-0.2-0.2-0.4-0.5-0.4-0.9c0-0.3,0.1-0.6,0.4-0.9c0.2-0.2,0.5-0.4,0.9-0.4c0.7,0,1.3,0.8,1.8,1.2
			C55.3,8.8,54.7,9.7,54,9.7z M50.9,17.2c-0.6,0-1.1-0.2-1.5-0.6c-0.4-0.4-0.6-0.9-0.6-1.5c0-0.6,0.2-1.1,0.6-1.5
			c0.4-0.4,0.9-0.6,1.5-0.6c1.1,0,2.4,1.3,3.2,2C53.2,15.8,52.1,17.2,50.9,17.2z M49.1,26.3c-0.8,0-1.4-0.3-1.9-0.8
			c-0.5-0.5-0.8-1.2-0.8-1.9s0.3-1.4,0.8-1.9c0.5-0.5,1.2-0.8,1.9-0.8c1.4,0,3.1,1.8,4.2,2.7C52.2,24.5,50.6,26.3,49.1,26.3z
			 M52.7,32.8c-0.5,0-0.9-0.2-1.2-0.5C51.2,32,51,31.5,51,31.1s0.2-0.9,0.5-1.2c0.3-0.3,0.7-0.5,1.2-0.5c1,0,1.8,1.1,2.5,1.8
			C54.6,31.7,53.5,32.8,52.7,32.8z M67.5,29.5c0.5,0,0.9,0.2,1.2,0.5c0.3,0.3,0.5,0.7,0.5,1.2s-0.2,0.9-0.5,1.2
			c-0.3,0.3-0.7,0.5-1.2,0.5c-0.7,0-1.9-1.2-2.5-1.7C65.7,30.6,66.6,29.5,67.5,29.5z M58.6,2.9c0-0.7,0.6-1.3,1.3-1.3
			c0.7,0,1.3,0.6,1.3,1.3c0,0.7-0.7,1.2-1.2,1.7C59.4,4.1,58.6,3.6,58.6,2.9z M58.3,8.4l-0.1-0.1l1.7-1.6l1.8,1.6L60,9.9L58.3,8.4z
			 M56.7,15.1L56.6,15l3.5-3l3.4,3L60,17.9L56.7,15.1z M60,27l-4.2-3.5L60,20l4.2,3.5L60,27z M72.8,25.5c-0.5,0.5-1.2,0.8-1.9,0.8
			c-1.4,0-3.2-1.9-4.2-2.7c1-0.9,2.8-2.7,4.2-2.7c0.8,0,1.4,0.3,1.9,0.8c0.5,0.5,0.8,1.2,0.8,1.9C73.6,24.3,73.3,25,72.8,25.5z"/>
		<path class="st0" d="M63.1,36.9c0.2,0.1,0.3,0.2,0.5,0.2c0.2,0,0.4-0.1,0.6-0.3c0.1-0.2,0.2-0.3,0.2-0.5c0-0.2-0.1-0.4-0.3-0.6
			l-4.1-3.5L56,35.7l0,0c-0.2,0.2-0.2,0.4-0.2,0.6c0,0.2,0.1,0.4,0.2,0.6c0.2,0.2,0.4,0.2,0.6,0.2c0.2,0,0.4-0.1,0.5-0.2l0.1-0.1
			l0,0l2.9-2.5L63.1,36.9z"/>
	</g>
</g>
</svg>
