<?xml version="1.0" encoding="utf-8"?>
<!-- Generator: Adobe Illustrator 21.0.0, SVG Export Plug-In . SVG Version: 6.00 Build 0)  -->
<svg version="1.1" id="Layer_1" xmlns="http://www.w3.org/2000/svg" xmlns:xlink="http://www.w3.org/1999/xlink" x="0px" y="0px"
	 viewBox="0 0 290 100" style="enable-background:new 0 0 290 100;" xml:space="preserve">
<style type="text/css">
	.st0{fill:#555555;}
</style>
<g>
	<path class="st0" d="M49.4,41.7c0,0,1-0.1,1,1l0,14.7c0,1.1-1,1-1,1h-5.4c0,0-1,0.1-1-1l0-9.9l-7.2,10.1c-0.2,0.3-0.4,0.4-0.6,0.5
		c-0.2,0.1-0.5,0.2-0.8,0.2c-0.3,0-1.9,0.1-2.4,0.1c-0.5,0-2.1-0.1-2.4-0.1c-0.3,0-0.5-0.1-0.8-0.2c-0.2-0.1-0.5-0.2-0.6-0.5
		l-6.9-10v9.9c0,1.1-1,1-1,1H15c0,0-1,0.1-1-1c0,0,0-0.2,0-0.3l0-14.4c0-1.1,1-1,1-1h8.2c1.9-0.1,2.5,0.9,2.5,0.9l6.7,9.2l6.9-9.2
		c0,0,0.6-1,2.5-0.9H49.4"/>
	<path class="st0" d="M151.7,50.9l2.7-4l2.7,4H151.7z M159.5,42.4c-0.6-0.8-1.9-0.7-1.9-0.7h-5.7c0,0-1.4-0.1-1.9,0.7L140.1,57
		c0,0-0.9,1.3,1.4,1.3c0,0,3.7,0,3.8,0l0,0c1.6,0,2-0.8,2-0.8l1.8-2.7h10.7l1.8,2.7c0,0,0.2,0.3,0.7,0.5c0.1,0.1,0.2,0.1,0.3,0.1
		c0.2,0.1,0.5,0.1,0.8,0.1c0.2,0,4.7,0,4.7,0c2.2,0,1.2-1.3,1.2-1.3L159.5,42.4"/>
	<path class="st0" d="M126,47.3c-0.1,0.1-0.3,0.3-0.7,0.4c-0.3,0.1-0.8,0.3-1.4,0.4c-0.6,0.1-1.3,0.1-2.1,0.1h-3.7v-2.6h3.3
		c0.7,0,1.2,0,1.6,0c0.4,0,0.7,0,1,0.1c0.9,0.1,1.6,0.4,1.8,0.6c0.3,0.2,0.3,0.4,0.3,0.6C126.2,47,126.2,47.1,126,47.3 M134.1,46.6
		c0-5-10-4.9-10-4.9c-0.5,0-12.8,0-12.8,0s-1-0.1-1,1v14.6c0,1.1,1,1,1,1h5.7c0,0,1,0.1,1-1c0,0,0-0.2,0-0.3v-4.9h2.5
		c0.6,0,1.1,0,1.6,0.1c0.4,0.1,0.8,0.2,1.1,0.4c0.3,0.2,0.6,0.4,0.8,0.6c0.3,0.3,0.6,0.6,0.9,0.9l2.3,2.9c0.2,0.3,0.8,1.3,1.7,1.3
		h6.3c0,0,1.8-0.1,0.4-1.9l-0.7-0.9l-2.5-3c-0.3-0.4-0.6-0.7-1-1c-0.3-0.3-0.7-0.6-1.1-0.8c0,0-0.1,0-0.1,0
		C130.2,50.7,134.1,49.7,134.1,46.6"/>
	<path class="st0" d="M67.2,57.3c0,1.1-1,1-1,1h-5.7c0,0-1,0.1-1-1V42.7c0-1.1,1-1,1-1h5.7c0,0,1-0.1,1,1V57.3"/>
	<path class="st0" d="M67.1,34.2c0,2.1-1.7,3.9-3.9,3.9c-2.1,0-3.9-1.7-3.9-3.9c0-2.1,1.7-3.9,3.9-3.9C65.4,30.3,67.1,32,67.1,34.2"
		/>
	<path class="st0" d="M67.1,65.8c0,2.1-1.7,3.9-3.9,3.9c-2.1,0-3.9-1.7-3.9-3.9c0-2.1,1.7-3.9,3.9-3.9C65.4,62,67.1,63.7,67.1,65.8"
		/>
	<path class="st0" d="M88.7,58.5c-1.9,0-3.7-0.1-5.2-0.4c-1.6-0.3-3-0.7-4.1-1.2c-1.1-0.5-2-1.2-2.7-2.1c-0.6-0.9-1-1.9-1-3
		c0,0,0-9.1,0-9.2c0-1.1,1-1,1-1h5.6c0,0,1-0.1,1,1v9.2c0,0.4,0.1,0.7,0.3,0.9c0.2,0.3,0.5,0.5,0.9,0.8c0.4,0.2,1,0.4,1.7,0.6
		c0.7,0.1,1.5,0.2,2.4,0.2h0.2c0.9,0,1.7-0.1,2.4-0.2c0.7-0.1,1.3-0.3,1.7-0.6c0.4-0.2,0.7-0.5,0.9-0.8c0.2-0.3,0.3-0.6,0.3-0.9
		v-9.2c0-1.1,1-1,1-1h5.6c0,0,1-0.1,1,1c0,0.1,0,9.2,0,9.2c0,1.1-0.3,2.1-1,3c-0.6,0.9-1.6,1.5-2.7,2.1c-1.1,0.5-2.5,0.9-4.1,1.2
		c-1.5,0.3-3.3,0.4-5.2,0.4H88.7"/>
</g>
</svg>
