<svg width="16" height="24" viewBox="0 0 16 24" version="1.1" xmlns="http://www.w3.org/2000/svg" xmlns:xlink="http://www.w3.org/1999/xlink">
	<g id="Canvas" transform="translate(-1992 -1275)">
	<g id="Group">
	<g id="Shape">
	<use xlink:href="#path0_stroke" transform="translate(1993 1276)" fill="#0084FF"/>
	</g>
	<g id="Shape">
	<use xlink:href="#path1_stroke" transform="translate(2000 1281)" fill="#0084FF"/>
	</g>
	</g>
	</g>
	<defs>
	<path id="path0_stroke" d="M 9 21L 5 21L 5 23L 9 23L 9 21ZM 5 21C 2.79128 21 1 19.2087 1 17L -1 17C -1 20.3133 1.68672 23 5 23L 5 21ZM 1 17L 1 5L -1 5L -1 17L 1 17ZM 1 5C 1 2.79128 2.79128 1 5 1L 5 -1C 1.68672 -1 -1 1.68672 -1 5L 1 5ZM 5 1L 9 1L 9 -1L 5 -1L 5 1ZM 9 1C 11.2087 1 13 2.79128 13 5L 15 5C 15 1.68672 12.3133 -1 9 -1L 9 1ZM 13 5L 13 17L 15 17L 15 5L 13 5ZM 13 17C 13 19.2087 11.2087 21 9 21L 9 23C 12.3133 23 15 20.3133 15 17L 13 17Z"/>
	<path id="path1_stroke" d="M 1 0L 1 -1L -1 -1L -1 0L 1 0ZM -1 5L -1 6L 1 6L 1 5L -1 5ZM -1 0L -1 5L 1 5L 1 0L -1 0Z"/>
	</defs>
</svg>
