<?xml version="1.0" encoding="utf-8"?>
<!-- Generator: Adobe Illustrator 21.0.0, SVG Export Plug-In . SVG Version: 6.00 Build 0)  -->
<svg version="1.1" id="Layer_1" xmlns="http://www.w3.org/2000/svg" xmlns:xlink="http://www.w3.org/1999/xlink" x="0px" y="0px"
	 viewBox="0 0 260 80" style="enable-background:new 0 0 260 80;" xml:space="preserve">
<style type="text/css">
	.st0{fill:#EC1C24;}
	.st1{fill:#231F20;}
	.st2{fill:#404041;}
</style>
<path class="st0" d="M80.6,13.3c-11.4,0-20.7,9.3-20.7,20.7s9.3,20.7,20.7,20.7s20.7-9.3,20.7-20.7S92,13.3,80.6,13.3z M82,41.2
	h-2.7V29.3l-4.9,6.4h-0.1l-4.9-6.4v11.9h-2.7V24.9h2.5l5.1,6.7l5.2-6.7H82V41.2z M89.6,46h-2.7l2-4.9l-4.8-11.8H87l3.2,8.6l3.3-8.6
	h2.8L89.6,46z"/>
<path class="st1" d="M200.1,25.3h-5.9L187,46l-7.1-20.7H174l1.8,4.7c-0.9-1.5-2.1-2.7-3.7-3.6c-1.7-1-3.9-1.5-6.4-1.5
	s-4.6,0.5-6.4,1.5c-1.8,1-3.2,2.4-4.1,4.3c-0.3,0.6-0.5,1.2-0.7,1.8h-13.8v5.4h8.2v1.8c0,2-0.3,3.7-1,5.1c-0.7,1.5-1.6,2.5-2.9,3.3
	c-1.3,0.7-2.7,1.1-4.4,1.1s-3.2-0.4-4.5-1.1c-1.3-0.8-2.3-1.8-3-3.1s-1.1-2.9-1.1-4.6v-12c0-1.9,0.3-3.6,1-5
	c0.7-1.5,1.6-2.6,2.9-3.4c1.3-0.8,2.7-1.2,4.4-1.2c1.1,0,2.2,0.3,3.3,0.8s2,1.2,2.8,2.2s1.4,2.1,1.7,3.5h6.2
	c-0.5-2.4-1.4-4.5-2.7-6.3c-1.3-1.8-2.9-3.2-4.9-4.2c-1.9-1-4.1-1.5-6.4-1.5c-2.9,0-5.4,0.6-7.5,1.9c-2.2,1.2-3.8,3-5,5.3
	c-1.2,2.2-1.8,4.9-1.8,7.9v5.9c-0.2-0.8-0.4-1.5-0.7-2.3c-0.9-2.2-2.2-4-3.9-5.2c-1.7-1.2-3.8-1.8-6.2-1.8c-2.6,0-4.8,0.5-6.6,1.6
	c-1.9,1-3.2,2.6-4.2,4.6c-0.9,2-1.4,4.4-1.4,7.3v3.3c0,2.7,0.5,5.1,1.5,7s2.4,3.4,4.3,4.4s4.2,1.5,6.9,1.3c1.8,0,3.6-0.3,5.4-1.1
	h0.1c-1.5-0.7-2.5-2.2-2.5-4c0-0.3,0-0.5,0.1-0.7c-1,0.4-1.9,0.5-3,0.5c-2.3,0-4.1-0.6-5.4-1.9c-1.2-1.2-1.8-3-1.9-5.2h17.6
	c0.2,2.1,0.8,4.1,1.7,5.8c1.2,2.2,2.8,3.8,5,5c2.1,1.2,4.6,1.8,7.5,1.8s5.4-0.6,7.5-1.9c2.2-1.2,3.8-3,5-5.3c0.5-1,0.9-2,1.2-3.1
	c0.2,1.7,0.6,3.2,1.2,4.5c1,1.9,2.3,3.3,4.1,4.3s4,1.5,6.4,1.6c2.5,0,4.6-0.5,6.4-1.5c1.8-1,3.2-2.4,4.1-4.3
	c0.9-1.9,1.4-4.2,1.4-6.8v-4.8c0-1.2-0.1-2.3-0.3-3.4l7.6,20.3h4.3L200.1,25.3z M108.5,37.5c0.1-2.3,0.7-4.1,1.8-5.4
	c1.2-1.4,2.8-2.1,5-2.1c1.7,0,3.1,0.7,4.2,2c1,1.3,1.6,3.1,1.8,5.5H108.5z M172,42.2c0,2.2-0.5,4-1.6,5.2s-2.6,1.9-4.6,1.9
	s-3.5-0.7-4.6-1.9s-1.6-2.9-1.6-5.2v-4.8c0-2.2,0.5-4,1.6-5.2s2.6-1.8,4.6-1.8s3.5,0.6,4.6,1.8c1.1,1.2,1.6,2.9,1.6,5.2V42.2z"/>
<path class="st0" d="M123.4,52.2c1.1-0.1,2-0.8,2.3-1.8c0-0.1,0.1-0.2,0.1-0.3c0.1-0.2,0.1-0.5,0.1-0.7c0-1.5-1.3-2.8-2.8-2.8
	c-0.2,0-0.5,0-0.7,0.1c-0.3,0.1-0.6,0.2-0.8,0.4c-0.1,0.1-0.2,0.1-0.3,0.2c-0.6,0.5-1,1.3-1,2.1c0,1.5,1.3,2.8,2.8,2.8
	C123.2,52.2,123.3,52.2,123.4,52.2z"/>
<path class="st2" d="M65.6,61.9c0.7,0,1.2,0.3,1.5,0.7l0.8-0.5c-0.5-0.7-1.2-1.2-2.3-1.2c-1.6,0-2.9,1.1-2.9,2.9s1.3,2.9,2.9,2.9
	c1,0,1.8-0.4,2.3-1v-2.1h-2.7v0.9h1.7v0.9c-0.2,0.2-0.7,0.5-1.3,0.5c-1.1,0-1.9-0.8-1.9-2C63.7,62.7,64.5,61.9,65.6,61.9z"/>
<path class="st2" d="M72.5,60.9c-1.7,0-2.9,1.2-2.9,2.9c0,1.7,1.1,2.9,2.9,2.9c1.7,0,2.9-1.2,2.9-2.9S74.2,60.9,72.5,60.9z
	 M72.4,65.8c-1.2,0-1.9-0.8-1.9-2c0-1.1,0.8-2,1.9-2c1.2,0,1.9,0.8,1.9,2C74.3,65,73.6,65.8,72.4,65.8z"/>
<polygon class="st2" points="79.1,65.5 77.4,61 76.3,61 78.5,66.6 79.8,66.6 82,61 80.8,61 "/>
<polygon class="st2" points="83.4,66.6 83.4,66.7 87.2,66.7 87.2,65.8 84.3,65.8 84.3,64.2 87.1,64.2 87.1,63.3 84.3,63.3 
	84.3,61.9 87.2,61.9 87.2,61 83.4,61 "/>
<path class="st2" d="M93.4,62.8c0-1.1-0.7-1.8-1.8-1.8h-2.5v5.6h1v-2.1h1l1.2,2.1h1.2l-1.4-2.2C92.7,64.3,93.4,63.8,93.4,62.8z
	 M90,63.6v-1.8h1.4c0.6,0,1,0.4,1,0.9c0,0.6-0.4,0.9-1,0.9C91.4,63.6,90,63.6,90,63.6z"/>
<polygon class="st2" points="99.1,64.9 96.2,61 95.2,61 95.2,66.6 96.2,66.6 96.2,62.6 99.1,66.6 100.1,66.6 100.1,61 99.1,61 "/>
<polygon class="st2" points="105.1,64.9 103.6,61 102.2,61 102.2,66.6 103.2,66.6 103.2,62.3 104.9,66.6 105.3,66.6 107,62.3 
	107,66.6 108,66.6 108,61 106.6,61 "/>
<polygon class="st2" points="111,64.2 113.8,64.2 113.8,63.3 111,63.3 111,61.9 113.8,61.9 113.8,61 110,61 110,66.6 110,66.7 
	113.9,66.7 113.9,65.8 111,65.8 "/>
<polygon class="st2" points="119.6,64.9 116.7,61 115.7,61 115.7,66.6 116.7,66.6 116.7,62.6 119.6,66.6 120.6,66.6 120.6,61 
	119.6,61 "/>
<polygon class="st2" points="122.2,61.9 123.9,61.9 123.9,66.6 124.9,66.6 124.9,61.9 126.6,61.9 126.6,61 122.2,61 "/>
<path class="st2" d="M132.9,61l-2.2,5.6h1.1l0.4-1.1h2.6l0.4,1.1h1.1l-2.2-5.6H132.9z M132.5,64.7l1-2.7l1,2.7H132.5z"/>
<path class="st2" d="M140.3,61h-2.5v5.6v0.1h1v-2.1h1.5c1.1,0,1.8-0.8,1.8-1.8S141.5,61,140.3,61z M140.1,63.6h-1.4v-1.8h1.4
	c0.6,0,1,0.4,1,0.9C141.1,63.3,140.7,63.6,140.1,63.6z"/>
<path class="st2" d="M146.3,61h-2.5v5.6v0.1h1v-2.1h1.5c1.1,0,1.8-0.8,1.8-1.8S147.5,61,146.3,61z M146.1,63.6h-1.4v-1.8h1.4
	c0.6,0,1,0.4,1,0.9C147.1,63.3,146.7,63.6,146.1,63.6z"/>
<polygon class="st2" points="150.7,61 149.7,61 149.7,66.6 153.2,66.6 153.2,65.7 150.7,65.7 "/>
<rect x="154.8" y="61" class="st2" width="1" height="5.6"/>
<path class="st2" d="M160.5,61.8c0.6,0,1.1,0.3,1.4,0.8l0.8-0.4c-0.4-0.7-1.1-1.3-2.2-1.3c-1.6,0-2.9,1.2-2.9,2.9s1.3,2.9,2.8,2.9
	c1.2,0,1.9-0.6,2.3-1.3l-0.8-0.4c-0.3,0.4-0.8,0.8-1.4,0.8c-1.1,0-1.9-0.8-1.9-2S159.4,61.8,160.5,61.8z"/>
<path class="st2" d="M166,61l-2.2,5.6h1.1l0.4-1.1h2.6l0.4,1.1h1.1l-2.2-5.6H166z M165.6,64.7l1-2.7l1,2.7H165.6z"/>
<polygon class="st2" points="170,61.9 171.7,61.9 171.7,66.6 172.7,66.6 172.7,61.9 174.4,61.9 174.4,61 170,61 "/>
<rect x="176" y="61" class="st2" width="1" height="5.6"/>
<path class="st2" d="M181.7,60.9c-1.7,0-2.9,1.2-2.9,2.9c0,1.7,1.2,2.9,2.9,2.9s2.9-1.2,2.9-2.9S183.4,60.9,181.7,60.9z M181.6,65.8
	c-1.2,0-1.9-0.8-1.9-2c0-1.1,0.8-2,1.9-2c1.2,0,1.9,0.8,1.9,2C183.5,65,182.8,65.8,181.6,65.8z"/>
<polygon class="st2" points="190.2,64.9 187.3,61 186.3,61 186.3,66.6 187.3,66.6 187.3,62.6 190.2,66.6 191.2,66.6 191.2,61 
	190.2,61 "/>
<path class="st2" d="M194.1,62.5c0-0.4,0.3-0.7,0.9-0.7c0.6,0,1.2,0.2,1.6,0.6l0.6-0.7c-0.5-0.5-1.2-0.8-2.1-0.8c-1.2,0-2,0.7-2,1.6
	c0,2.1,3.3,1.3,3.3,2.5c0,0.4-0.3,0.8-1.1,0.8s-1.4-0.4-1.8-0.8l-0.6,0.8c0.5,0.5,1.2,0.9,2.3,0.9c1.5,0,2.2-0.8,2.2-1.7
	C197.4,62.9,194.1,63.6,194.1,62.5z"/>
</svg>
