<svg xmlns="http://www.w3.org/2000/svg" width="24" height="24" viewBox="0 0 24 24">
    <path fill="#0084ff" fill-rule="nonzero" d="M10.998 7.345L9.94 8.404a1.503 1.503 0 0 0 .004 2.124l3.529 3.53c.591.59 1.538.589 2.124.003L16.655 13a1 1 0 0 1 1.417 0l3.887 3.887a1.5 1.5 0 0 1-.002 2.126l-2.12 2.12c-1.366 1.365-3.845 1.725-5.503.732 0 0-2.656-1.117-6.845-5.305-4.188-4.189-5.346-6.894-5.346-6.894-.966-1.674-.639-4.142.723-5.504l2.12-2.12a1.5 1.5 0 0 1 2.126-.002l3.887 3.887a1 1 0 0 1 0 1.417zM4.281 5.577c-.724.724-.846 2.172-.406 3.09 0 0 .706 1.282 1.026 1.754.945 1.394 2.26 2.982 4.003 4.725 1.743 1.743 3.32 3.05 4.699 3.981.465.315 1.758 1.023 1.758 1.023.837.438 2.325.306 3.062-.43l1.77-1.77-2.829-2.829-.354.354a3.499 3.499 0 0 1-4.953-.003l-3.529-3.53a3.503 3.503 0 0 1-.003-4.952l.354-.354L6.05 3.808l-1.77 1.77z"/>
</svg>
