<?xml version="1.0" encoding="utf-8"?>
<!-- Generator: Adobe Illustrator 21.0.0, SVG Export Plug-In . SVG Version: 6.00 Build 0)  -->
<svg version="1.1" id="Layer_1" xmlns="http://www.w3.org/2000/svg" xmlns:xlink="http://www.w3.org/1999/xlink" x="0px" y="0px"
	 viewBox="0 0 198.2 39.6" style="enable-background:new 0 0 198.2 39.6;" xml:space="preserve">
<style type="text/css">
	.st0{fill:#F9CE06;}
	.st1{fill:#3A53A4;}
</style>
<g>
	<g>
		<path d="M58.3,10.9c0,3.4-2.1,5.3-5.5,5.3c-2.2,0-4-0.9-5.4-2.5l1.8-2.7c1.1,1.2,2.4,1.8,3.3,1.8c1.1,0,1.7-0.7,1.7-1.9V3.5h-5.4
			V0.2h9.5V10.9z"/>
		<path d="M64.3,13.1l-1.2,2.9H59l6.8-15.8H70l6.7,15.8h-4.3l-1.1-2.9H64.3z M67.8,4.3l-2.3,5.8H70L67.8,4.3z"/>
		<path d="M90.3,1.8L88.8,5c-1.7-1-3.8-1.6-5.1-1.6c-1,0-1.7,0.4-1.7,1.2c0,2.7,8.3,1.2,8.3,6.9c0,3.2-2.8,4.8-6.3,4.8
			c-2.6,0-5.3-1-7.2-2.5l1.6-3.1c1.6,1.4,4.1,2.4,5.7,2.4c1.3,0,2.1-0.5,2.1-1.4c0-2.8-8.3-1.1-8.3-6.7c0-2.9,2.5-4.8,6.3-4.8
			C86.4,0.1,88.7,0.8,90.3,1.8z"/>
		<path d="M96.1,13.1l-1.2,2.9h-4.1l6.8-15.8h4.1l6.7,15.8h-4.3l-1.1-2.9H96.1z M99.5,4.3l-2.3,5.8h4.6L99.5,4.3z"/>
		<path d="M122.4,3.5v12.6h-4V3.5h-4.7V0.2h13.5v3.2H122.4z"/>
		<path d="M128.9,16.1V0.3h4v15.8H128.9z"/>
		<path d="M143.2,11.6h-0.1h-3v4.4h-4V0.3h7.1c4.2,0,6.6,2,6.6,5.5c0,2.4-1,4.2-2.9,5.1l3.3,5.2h-4.6L143.2,11.6z M143.1,8.5
			c1.7,0,2.8-0.9,2.8-2.5c0-1.6-1-2.5-2.8-2.5h-3v5H143.1z"/>
		<path d="M159.7,3.5v12.6h-4V3.5h-4.7V0.2h13.5v3.2H159.7z"/>
		<path d="M168,13.1l-1.2,2.9h-4.1l6.8-15.8h4.1l6.7,15.8H176l-1.1-2.9H168z M171.5,4.3l-2.3,5.8h4.6L171.5,4.3z"/>
		<path d="M187,16.1V0.3h4v15.8H187z"/>
		<path d="M194.2,16.1V0.3h4v15.8H194.2z"/>
	</g>
</g>
<rect x="0" y="0.1" class="st0" width="39.6" height="39.6"/>
<path class="st1" d="M37.7,19.9h-1.2l0,0c-0.4,1.8-1.4,3.5-3.1,4.5c-2.1,1.3-4.5,1.5-6.6,0.6c-1.3-0.5-2.4-1.4-3.2-2.7c0,0,0,0,0,0
	L10.1,2H2v17.9h1.2l0,0c0.4-1.8,1.4-3.5,3.1-4.5c2.1-1.3,4.5-1.5,6.6-0.6c1.3,0.5,2.4,1.4,3.2,2.7c0,0,0,0,0,0l13.5,20.3h8.1V19.9z"
	/>
<g>
	<g>
		<path class="st1" d="M55.2,32.7c-0.1,0.1-0.5,1-1.3,2.7c-0.1,0.1-0.1,0.2-0.1,0.2c-1,1.9-1.7,2.9-2.2,2.9c-0.8,0-1.5-1-2.1-3
			c-0.6-2-0.9-3.7-0.9-5c0-0.5,0.1-0.9,0.3-1.2c0.2-0.3,0.5-0.4,1-0.4c0.3,0,0.5,0.1,0.7,0.3c0.2,0.2,0.3,0.4,0.3,0.7l-0.1,1.1
			c0,0.3,0,0.7,0,1c0,0.6,0.1,1.4,0.4,2.4c0.2,1,0.4,1.5,0.5,1.5c0.1,0,0.4-0.5,0.8-1.5c0.6-1.3,1.2-2.3,1.6-3h0
			c0.6-1.1,1.1-1.8,1.5-2.1c0.4,0,0.7,0.1,0.9,0.3s0.3,0.4,0.3,0.6c0,0.2,0,0.3,0,0.4c0,0.1,0,0.2,0,0.3c0,1.7,0.5,3.2,1.4,4.6
			c0.1,0.1,0.1,0,0.2-0.1c0-0.1,0.2-0.5,0.3-1.2c0.3-1.3,0.7-2.4,1.2-3.4c0.4-1,0.8-1.5,1.1-1.8s0.6-0.3,0.9-0.3
			c0.2,0,0.4,0.1,0.6,0.2s0.2,0.3,0.2,0.5c0,0.2,0,0.4-0.2,0.6c-0.7,1-1.4,2.3-1.9,4c-0.6,1.8-1,2.8-1.2,3.2
			c-0.2,0.4-0.4,0.6-0.6,0.6c-0.5,0-0.9-0.1-1.3-0.3c-0.3-0.2-0.7-0.6-1-1.1c-0.3-0.5-0.6-1.2-0.8-2C55.4,33.6,55.2,33,55.2,32.7z"
			/>
		<path class="st1" d="M68.8,35.2c-1.5,1.9-2.9,2.9-4.3,2.9c-0.5,0-0.9-0.2-1.3-0.6c-0.4-0.4-0.5-0.9-0.5-1.5c0-1.5,0.7-3.1,2-4.7
			c1.3-1.7,2.7-2.5,4-2.5c0.7,0,1.1,0.3,1.3,1c0.6,0,1,0.2,1,0.7c0,0.2-0.1,0.7-0.2,1.3c-0.2,1.2-0.3,2.1-0.3,2.8
			c0,0.7,0,1.2,0.1,1.5c0.1,0.3,0.2,0.5,0.2,0.6s0.2,0.2,0.4,0.3c0.2,0.1,0.3,0.3,0.3,0.4c0,0.3-0.1,0.5-0.4,0.7s-0.6,0.3-0.9,0.3
			C69.2,38.3,68.7,37.3,68.8,35.2z M68.3,30.5c-0.6,0-1.3,0.6-2.2,1.9c-0.9,1.3-1.4,2.3-1.4,3.2c0,0.5,0.1,0.7,0.3,0.7
			c0.7,0,1.5-0.6,2.4-1.8c1-1.2,1.5-2.2,1.5-3.1c0-0.3-0.1-0.5-0.2-0.7C68.6,30.6,68.5,30.5,68.3,30.5z"/>
		<path class="st1" d="M76.1,31.1c-0.1,0-0.2,0.6-0.5,1.9c-0.3,1.3-0.4,2-0.4,2.3c0,0.5,0,0.8,0.1,1c0.1,0.2,0.3,0.3,0.5,0.3
			c0.3,0,0.6-0.1,0.9-0.2c0.3-0.1,0.7-0.4,1.1-0.7c0.3-0.2,0.5-0.4,0.7-0.4c0.2,0,0.3,0,0.4,0.1c0.1,0.1,0.1,0.2,0.1,0.3
			c0,0.5-0.4,1.1-1.2,1.7c-0.8,0.6-1.6,0.9-2.5,0.9c-0.7,0-1.3-0.2-1.7-0.7c-0.4-0.4-0.6-1.1-0.6-1.9c0-0.8,0.3-2.3,0.8-4.5
			c-0.4,0-0.6,0.1-0.7,0.1h-0.2c-0.3,0-0.5-0.1-0.8-0.3c-0.3-0.2-0.4-0.4-0.4-0.8c0-0.5,0.3-0.7,0.8-0.7l1.8-0.1
			c0.2-0.7,0.5-1.6,0.7-2.7c0.2-0.7,0.5-1,1.1-1c0.3,0,0.5,0.1,0.7,0.3c0.2,0.2,0.3,0.4,0.3,0.6c0,0.1-0.2,1-0.7,2.6
			c1.8-0.2,2.8-0.2,2.9-0.2c0.3,0,0.5,0,0.6,0.1c0.1,0.1,0.1,0.3,0.1,0.5c0,0.5-0.4,0.8-1.3,0.9L76.1,31.1z"/>
		<path class="st1" d="M87.8,35.1c0,0.6-0.5,1.3-1.5,2.1s-2.1,1.2-3.3,1.2c-0.9,0-1.7-0.3-2.2-0.9C80.3,36.9,80,36.1,80,35
			c0-1.6,0.6-3,1.7-4.4c1.1-1.4,2.3-2.1,3.6-2.1c0.6,0,1.1,0.2,1.5,0.6c0.4,0.4,0.6,0.9,0.6,1.4c0,1-0.5,1.9-1.4,2.8
			c-0.9,0.9-2.1,1.5-3.6,1.8c-0.2,0-0.3,0.1-0.3,0.3c0,0.3,0.1,0.5,0.4,0.8c0.2,0.2,0.6,0.4,1,0.4c1.1,0,2.2-0.6,3.4-1.7
			c0.2-0.2,0.4-0.3,0.6-0.3C87.7,34.5,87.8,34.7,87.8,35.1z M82.2,33.6c0.9-0.2,1.7-0.6,2.3-1.1c0.7-0.6,1-1.1,1-1.6
			c0-0.2-0.1-0.3-0.2-0.5c-0.1-0.1-0.2-0.2-0.4-0.2c-0.5,0-1,0.4-1.6,1.1C82.8,32,82.4,32.8,82.2,33.6z"/>
		<path class="st1" d="M90.9,33.8l0.1-0.3c0.7-1.4,1.4-2.5,2.2-3.3c0.8-0.8,1.5-1.3,2.3-1.3c0.6,0,1,0.2,1.4,0.5
			c0.4,0.3,0.5,0.7,0.5,1.1c0,0.3-0.1,0.5-0.2,0.7s-0.3,0.3-0.5,0.3c-0.3,0-0.7-0.1-1-0.4c-0.2-0.2-0.4-0.3-0.5-0.3
			c-0.4,0-1.1,0.7-2.1,2c-1,1.3-1.6,2.8-1.8,4.4c-0.1,0.5-0.2,0.8-0.4,1c-0.2,0.2-0.5,0.3-0.9,0.3c-0.4,0-0.7-0.2-0.8-0.7
			c-0.2-0.4-0.2-1.2-0.2-2.2c0-0.4,0-1,0-1.7c0-0.7,0.1-1.5,0.2-2.4c0-0.2,0-0.4,0.1-0.6c0.1-0.5,0.1-0.9,0.2-1.1
			c0.1-0.2,0.2-0.4,0.4-0.6c0.2-0.2,0.5-0.3,0.8-0.3c0.3,0,0.5,0.1,0.7,0.3s0.2,0.4,0.2,0.6c0,0.3-0.1,0.8-0.4,1.6
			c-0.1,0.3-0.2,0.6-0.2,1L90.9,33.8z"/>
		<path class="st1" d="M105.9,33.7l-0.1,1.5c0,0.5-0.1,1-0.1,1.4c0,0.4,0,0.9,0.1,1.5c-0.1,0.2-0.2,0.4-0.4,0.5
			c-0.2,0.1-0.5,0.2-0.7,0.2c-0.8,0-1.2-0.5-1.2-1.5c0-0.4,0.1-1.5,0.4-3.1c0.2-1.2,0.3-2,0.3-2.6c0,0,0-0.1-0.1-0.1
			c-0.4-0.2-0.6-0.5-0.6-0.7c0-0.3,0.2-0.6,0.6-1c0.2-0.2,0.3-0.4,0.4-0.6c0-0.2,0.1-0.6,0.2-1c0.3-1.8,0.8-3.1,1.4-3.8
			c0.6-0.8,1.4-1.1,2.4-1.1c0.6,0,1.1,0.2,1.5,0.6c0.4,0.4,0.6,0.8,0.6,1.4c0,0.5-0.1,1-0.3,1.5c-0.2,0.5-0.5,0.8-0.9,0.8
			c-0.2,0-0.3-0.1-0.4-0.2c-0.1-0.1-0.2-0.2-0.2-0.4l0-0.7c0-0.9-0.2-1.3-0.5-1.3c-0.5,0-0.9,0.6-1.3,1.7c-0.4,1.1-0.6,2.1-0.6,2.9
			c0,0.1,0.1,0.1,0.2,0.1c1.2,0,2,0,2.5,0c0.5,0,0.7,0.2,0.7,0.6c0,0.4-0.3,0.6-0.9,0.8c-0.6,0.2-1.2,0.3-1.8,0.3
			c-0.4,0-0.7,0.1-0.8,0.1C106,32.3,105.9,33.1,105.9,33.7L105.9,33.7z"/>
		<path class="st1" d="M117.5,33.7c-0.4,1.3-1.1,2.4-2.1,3.3c-1.1,0.9-2.1,1.3-3.1,1.3c-0.8,0-1.5-0.3-2.1-0.9
			c-0.5-0.6-0.8-1.4-0.8-2.2c0-1.4,0.5-2.9,1.5-4.3c1-1.4,2.2-2.1,3.6-2.1c1,0,1.7,0.4,2.3,1.1c0.6,0.7,0.9,1.6,0.9,2.5
			C117.6,32.9,117.6,33.3,117.5,33.7L117.5,33.7z M113.1,31.1c-0.4,0.3-0.8,0.9-1.2,1.7c-0.4,0.8-0.6,1.5-0.6,2.3
			c0,0.5,0.1,0.8,0.3,1.2s0.4,0.5,0.7,0.5c0.7,0,1.4-0.4,2.2-1.2c0.8-0.8,1.1-1.7,1.1-2.8c0-0.6-0.1-1.1-0.4-1.4
			c-0.2-0.4-0.6-0.6-1-0.6C113.8,30.6,113.4,30.8,113.1,31.1L113.1,31.1z"/>
		<path class="st1" d="M120.9,33.8l0.1-0.3c0.7-1.4,1.4-2.5,2.2-3.3c0.8-0.8,1.5-1.3,2.3-1.3c0.6,0,1,0.2,1.4,0.5
			c0.4,0.3,0.5,0.7,0.5,1.1c0,0.3-0.1,0.5-0.2,0.7s-0.3,0.3-0.5,0.3c-0.3,0-0.7-0.1-1-0.4c-0.2-0.2-0.4-0.3-0.5-0.3
			c-0.4,0-1.1,0.7-2.1,2c-1,1.3-1.6,2.8-1.8,4.4c-0.1,0.5-0.2,0.8-0.4,1c-0.2,0.2-0.5,0.3-0.9,0.3c-0.4,0-0.7-0.2-0.8-0.7
			c-0.2-0.4-0.2-1.2-0.2-2.2c0-0.4,0-1,0-1.7c0-0.7,0.1-1.5,0.2-2.4c0-0.2,0-0.4,0.1-0.6c0.1-0.5,0.1-0.9,0.2-1.1
			c0.1-0.2,0.2-0.4,0.4-0.6c0.2-0.2,0.5-0.3,0.8-0.3c0.3,0,0.5,0.1,0.7,0.3s0.2,0.4,0.2,0.6c0,0.3-0.1,0.8-0.4,1.6
			c-0.1,0.3-0.2,0.6-0.2,1L120.9,33.8z"/>
		<path class="st1" d="M140.3,32.7c-0.1,0.1-0.5,1-1.3,2.7c-0.1,0.1-0.1,0.2-0.1,0.2c-1,1.9-1.7,2.9-2.2,2.9c-0.8,0-1.5-1-2.1-3
			c-0.6-2-0.9-3.7-0.9-5c0-0.5,0.1-0.9,0.3-1.2c0.2-0.3,0.5-0.4,1-0.4c0.3,0,0.5,0.1,0.7,0.3c0.2,0.2,0.3,0.4,0.3,0.7l-0.1,1.1
			c0,0.3,0,0.7,0,1c0,0.6,0.1,1.4,0.4,2.4c0.2,1,0.4,1.5,0.5,1.5c0.1,0,0.4-0.5,0.8-1.5c0.6-1.3,1.2-2.3,1.6-3h0
			c0.6-1.1,1.1-1.8,1.5-2.1c0.4,0,0.7,0.1,0.9,0.3s0.3,0.4,0.3,0.6c0,0.2,0,0.3,0,0.4c0,0.1,0,0.2,0,0.3c0,1.7,0.5,3.2,1.4,4.6
			c0.1,0.1,0.1,0,0.2-0.1c0-0.1,0.2-0.5,0.3-1.2c0.3-1.3,0.7-2.4,1.2-3.4c0.4-1,0.8-1.5,1.1-1.8s0.6-0.3,0.9-0.3
			c0.2,0,0.4,0.1,0.6,0.2s0.2,0.3,0.2,0.5c0,0.2,0,0.4-0.2,0.6c-0.7,1-1.4,2.3-1.9,4c-0.6,1.8-1,2.8-1.2,3.2
			c-0.2,0.4-0.4,0.6-0.6,0.6c-0.5,0-0.9-0.1-1.3-0.3c-0.3-0.2-0.7-0.6-1-1.1c-0.3-0.5-0.6-1.2-0.8-2C140.5,33.6,140.4,33,140.3,32.7
			z"/>
		<path class="st1" d="M155.8,35.1c0,0.6-0.5,1.3-1.5,2.1s-2.1,1.2-3.3,1.2c-0.9,0-1.7-0.3-2.2-0.9c-0.5-0.6-0.8-1.4-0.8-2.5
			c0-1.6,0.6-3,1.7-4.4c1.1-1.4,2.3-2.1,3.6-2.1c0.6,0,1.1,0.2,1.5,0.6c0.4,0.4,0.6,0.9,0.6,1.4c0,1-0.5,1.9-1.4,2.8
			c-0.9,0.9-2.1,1.5-3.6,1.8c-0.2,0-0.3,0.1-0.3,0.3c0,0.3,0.1,0.5,0.4,0.8c0.2,0.2,0.6,0.4,1,0.4c1.1,0,2.2-0.6,3.4-1.7
			c0.2-0.2,0.4-0.3,0.6-0.3C155.6,34.5,155.8,34.7,155.8,35.1z M150.1,33.6c0.9-0.2,1.7-0.6,2.3-1.1c0.7-0.6,1-1.1,1-1.6
			c0-0.2-0.1-0.3-0.2-0.5c-0.1-0.1-0.2-0.2-0.4-0.2c-0.5,0-1,0.4-1.6,1.1C150.7,32,150.3,32.8,150.1,33.6z"/>
		<path class="st1" d="M159.8,23.7c0.6,0,0.9,0.3,0.9,1c0,0.3,0,0.6-0.1,1c-0.1,0.4-0.3,1.2-0.7,2.6c-0.3,1-0.5,2.1-0.6,3.3
			c-0.1,1.2-0.2,2.1-0.2,2.8c0,0.7,0.1,1.6,0.2,2.5c0,0.3,0,0.4,0,0.5c0,0.3-0.1,0.6-0.4,0.9c-0.2,0.2-0.5,0.4-0.8,0.4
			c-0.4,0-0.7-0.2-0.8-0.6c-0.2-0.4-0.2-1-0.2-1.9c0-2,0.2-4.3,0.7-7c0.5-2.7,0.8-4.2,1.1-4.7C159.1,24,159.5,23.7,159.8,23.7z"/>
		<path class="st1" d="M164.3,23.7c0.6,0,0.9,0.3,0.9,1c0,0.3,0,0.6-0.1,1c-0.1,0.4-0.3,1.2-0.7,2.6c-0.3,1-0.5,2.1-0.6,3.3
			c-0.1,1.2-0.2,2.1-0.2,2.8c0,0.7,0.1,1.6,0.2,2.5c0,0.3,0,0.4,0,0.5c0,0.3-0.1,0.6-0.4,0.9c-0.2,0.2-0.5,0.4-0.8,0.4
			c-0.4,0-0.7-0.2-0.8-0.6c-0.2-0.4-0.2-1-0.2-1.9c0-2,0.2-4.3,0.7-7c0.5-2.7,0.8-4.2,1.1-4.7C163.6,24,163.9,23.7,164.3,23.7z"/>
		<path class="st1" d="M172.7,36.7c-0.3-0.5-0.5-1.4-0.6-2.8c-0.1-1.4-0.4-2.2-0.8-2.2c-0.4,0-1.1,0.7-2.1,2.2
			c-1,1.5-1.6,2.6-1.8,3.3c-0.1,0.2-0.1,0.4-0.3,0.5c-0.1,0.1-0.3,0.2-0.4,0.2c-0.9,0-1.3-0.4-1.3-1.2c0-0.3,0.1-0.9,0.3-1.8
			c0.2-1.2,0.3-2.7,0.3-4.4c0-0.3,0.1-0.5,0.3-0.8s0.5-0.5,0.7-0.5c0.3,0,0.6,0.1,0.7,0.2c0.2,0.2,0.3,0.6,0.3,1.3
			c0,0.5-0.2,1.6-0.5,3.1c1.2-2.8,2.6-4.3,4.1-4.3c1.3,0,2.1,1,2.3,3.1c0.2,2.1,0.5,3.1,0.8,3.1c0.1,0,0.3,0,0.4-0.1
			c0.2-0.1,0.4-0.1,0.5-0.1c0.3,0,0.4,0.2,0.4,0.5c0,0.3-0.2,0.6-0.6,0.9c-0.4,0.3-0.8,0.5-1.4,0.5C173.5,37.6,173,37.3,172.7,36.7
			L172.7,36.7z"/>
		<path class="st1" d="M184.1,35.1c0,0.6-0.5,1.3-1.5,2.1s-2.1,1.2-3.3,1.2c-0.9,0-1.7-0.3-2.2-0.9c-0.5-0.6-0.8-1.4-0.8-2.5
			c0-1.6,0.6-3,1.7-4.4c1.1-1.4,2.3-2.1,3.6-2.1c0.6,0,1.1,0.2,1.5,0.6c0.4,0.4,0.6,0.9,0.6,1.4c0,1-0.5,1.9-1.4,2.8
			c-0.9,0.9-2.1,1.5-3.6,1.8c-0.2,0-0.3,0.1-0.3,0.3c0,0.3,0.1,0.5,0.4,0.8c0.2,0.2,0.6,0.4,1,0.4c1.1,0,2.2-0.6,3.4-1.7
			c0.2-0.2,0.4-0.3,0.6-0.3C184,34.5,184.1,34.7,184.1,35.1z M178.5,33.6c0.9-0.2,1.7-0.6,2.3-1.1c0.7-0.6,1-1.1,1-1.6
			c0-0.2-0.1-0.3-0.2-0.5c-0.1-0.1-0.2-0.2-0.4-0.2c-0.5,0-1,0.4-1.6,1.1C179.1,32,178.7,32.8,178.5,33.6z"/>
		<path class="st1" d="M189.1,35.8c0-0.3-0.5-0.7-1.4-1.1c-1.2-0.6-1.9-1-2.2-1.4c-0.3-0.4-0.5-0.8-0.5-1.3c0-1,0.6-1.9,1.7-2.6
			c1.1-0.7,2.2-1.1,3.1-1.1c0.9,0,1.4,0.4,1.4,1.2c0,0.2-0.1,0.4-0.3,0.6s-0.4,0.3-0.6,0.3c-0.1,0-0.2,0-0.3-0.1s-0.3-0.1-0.4-0.1
			c-0.5,0-1,0.2-1.6,0.5s-0.9,0.7-0.9,1.2c0,0.2,0.1,0.4,0.3,0.6c0.2,0.2,0.6,0.5,1.3,0.8c1,0.5,1.6,0.9,1.9,1.2
			c0.3,0.4,0.5,0.8,0.5,1.2c0,0.8-0.6,1.5-1.7,2s-2.3,0.8-3.7,0.8c-1,0-1.5-0.4-1.5-1.1c0-0.3,0.1-0.5,0.3-0.7s0.5-0.3,0.7-0.3
			c0.1,0,0.3,0,0.5,0.1c0.2,0.1,0.4,0.1,0.6,0.1c0.5,0,1.1-0.1,1.7-0.3C188.5,36.3,188.9,36.1,189.1,35.8z"/>
		<path class="st1" d="M195.9,35.8c0-0.3-0.5-0.7-1.4-1.1c-1.2-0.6-1.9-1-2.2-1.4c-0.3-0.4-0.5-0.8-0.5-1.3c0-1,0.6-1.9,1.7-2.6
			c1.1-0.7,2.2-1.1,3.1-1.1c0.9,0,1.4,0.4,1.4,1.2c0,0.2-0.1,0.4-0.3,0.6s-0.4,0.3-0.6,0.3c-0.1,0-0.2,0-0.3-0.1s-0.3-0.1-0.4-0.1
			c-0.5,0-1,0.2-1.6,0.5s-0.9,0.7-0.9,1.2c0,0.2,0.1,0.4,0.3,0.6c0.2,0.2,0.6,0.5,1.3,0.8c1,0.5,1.6,0.9,1.9,1.2
			c0.3,0.4,0.5,0.8,0.5,1.2c0,0.8-0.6,1.5-1.7,2s-2.3,0.8-3.7,0.8c-1,0-1.5-0.4-1.5-1.1c0-0.3,0.1-0.5,0.3-0.7s0.5-0.3,0.7-0.3
			c0.1,0,0.3,0,0.5,0.1c0.2,0.1,0.4,0.1,0.6,0.1c0.5,0,1.1-0.1,1.7-0.3C195.3,36.3,195.7,36.1,195.9,35.8z"/>
	</g>
</g>
</svg>
