<?xml version="1.0" encoding="utf-8"?>
<!-- Generator: Adobe Illustrator 21.0.0, SVG Export Plug-In . SVG Version: 6.00 Build 0)  -->
<svg version="1.1" id="Layer_1" xmlns="http://www.w3.org/2000/svg" xmlns:xlink="http://www.w3.org/1999/xlink" x="0px" y="0px"
	 viewBox="0 0 270.4 193.1" style="enable-background:new 0 0 270.4 193.1;" xml:space="preserve">
<style type="text/css">
	.st0{fill:#58595B;}
	.st1{clip-path:url(#SVGID_2_);fill:url(#SVGID_3_);}
	.st2{fill:none;stroke:#58595B;stroke-miterlimit:10;}
	.st3{fill:#5964A1;}
	.st4{fill:none;stroke:#2A367E;stroke-width:1.417;stroke-miterlimit:10;}
	.st5{fill:#6FB6E5;}
	.st6{fill:none;stroke:#3D9CD6;stroke-width:1.701;stroke-miterlimit:10;}
	.st7{fill:#66AC6A;}
	.st8{fill:none;stroke:#2C9045;stroke-width:1.984;stroke-miterlimit:10;}
	.st9{fill:none;stroke:#FBB040;stroke-width:2.835;stroke-miterlimit:10;}
	.st10{fill:#FBB040;}
	.st11{fill:none;stroke:#EF4136;stroke-width:2.268;stroke-miterlimit:10;}
	.st12{fill:none;stroke:#DE4598;stroke-width:1.701;stroke-miterlimit:10;}
	.st13{fill:none;stroke:#A64E9C;stroke-width:1.417;stroke-miterlimit:10;}
	.st14{fill:url(#SVGID_4_);}
</style>
<g>
	<g>
		<path class="st0" d="M18.1,62.1c0,0.7-0.4,1.4-1,1.7s-1.3,0.3-1.9,0.3h-11c-0.5,0-1.1,0-1.5-0.2c-0.9-0.4-1.4-1.4-1.1-2.3
			c0-0.6,0.4-1,0.7-1.4c2.9-3.5,5.9-7.1,9-10.5c0.8-0.9,1.6-1.9,1.7-3.1c0.2-1.5-0.8-2.9-2.2-3.6c-1.7-0.9-4-0.6-5.4,0.6
			C5,44,4.5,44.6,4,44.8c-0.8,0.3-1.7,0.2-2.3-0.4c-2.5-2.5,2.8-5.3,4.6-5.8c2.1-0.5,4.3-0.2,6.2,0.7c1.6,0.8,3,2.2,3.8,3.8
			c0.8,1.5,1,3.3,0.5,5c-0.5,1.6-1.6,3-2.7,4.3c-1.9,2.3-6,7.1-6.6,7.5h7.4c0.3,0,0.6,0,0.9,0c0.4,0,0.8,0.1,1.1,0.3
			C17.7,60.7,18.1,61.4,18.1,62.1"/>
		<path class="st0" d="M28.5,64.2c-4.2,0-7.9-3-8.5-7c0-0.1,0-0.2,0-0.3c0-3,0-6,0-9.1c0-2.5,0.6-4.9,2.3-6.8
			c1.6-1.7,3.9-2.7,6.2-2.7c4.4,0,8,3.4,8.3,7.7c0.1,0.2,0.1,0.4,0.1,0.7v10.2c0,0.1,0,0.2,0,0.3C36.2,61.2,32.6,64.2,28.5,64.2
			 M32.6,46.6c0-2.3-1.8-4.2-4.1-4.2s-4.2,1.9-4.2,4.2c0,0.9-0.1,8.5-0.1,10c0.4,1.9,2.3,3.3,4.3,3.3s3.8-1.4,4.2-3.3L32.6,46.6z"/>
		<path class="st0" d="M56.1,62.1c0,0.7-0.4,1.4-1,1.7s-1.3,0.3-1.9,0.3h-11c-0.5,0-1.1,0-1.5-0.2c-0.9-0.4-1.4-1.4-1.1-2.3
			c0.2-0.5,0.5-0.9,0.9-1.3c2.9-3.5,5.9-7.1,9-10.5c0.8-0.9,1.6-1.9,1.7-3.1c0.2-1.5-0.8-2.9-2.2-3.6c-1.7-0.9-4-0.6-5.4,0.6
			c-0.4,0.4-0.9,1-1.4,1.2c-0.8,0.3-1.7,0.2-2.3-0.4c-2.5-2.5,2.8-5.3,4.6-5.8c2.1-0.5,4.3-0.2,6.2,0.7c1.6,0.8,3,2.2,3.8,3.8
			c0.8,1.5,1,3.3,0.5,5c-0.5,1.6-1.6,3-2.7,4.3c-1.9,2.3-6,7.1-6.6,7.5h7.4c0.3,0,0.6,0,0.9,0c0.4,0,0.8,0.1,1.1,0.3
			C55.7,60.7,56.2,61.4,56.1,62.1"/>
		<path class="st0" d="M66.3,40.3V62c0,1.2-1,2.1-2.1,2.1c-1.2,0-2.1-1-2.1-2.1V44.4c-0.8,0.3-1.6,0.5-2.3,0.5c-1.2,0-2.1-1-2.1-2.1
			c0-1.2,1-2.1,2.1-2.1c0.8,0,2-0.6,2.8-1.6l0,0c0,0,0-0.1,0.1-0.1c0,0,0-0.1,0.1-0.1l0.1-0.1c0,0,0,0,0.1-0.1c0,0,0,0,0.1,0
			l0.1-0.1l0.1-0.1c0,0,0.1,0,0.1-0.1h0.1c0,0,0,0,0.1,0h0.1h0.1h0.1H64h0.1h0.1H64h0.1l0,0l0,0h0.1h0.1h0.1h0.1h0.1h0.1h0.1h0.1H65
			l0.1,0.1c0,0,0,0,0.1,0l0.1,0.1l0,0l0,0l0.1,0.1c0,0,0,0,0.1,0.1l0.1,0.1c0,0,0,0.1,0.1,0.1c0,0,0,0,0.1,0c0,0,0,0.1,0.1,0.1v0.1
			l0.1,0.1v0.1v0.1l0.1,0.1c0,0,0,0,0,0.1v0.1v0.1V40v0.1v0.1C66.3,40.2,66.3,40.2,66.3,40.3L66.3,40.3z"/>
	</g>
	<g>
		<g>
			<defs>
				<path id="SVGID_1_" d="M20.3,101.2c0-7.8,6.4-14.2,14.2-14.2s14.2,6.4,14.2,14.2s-6.4,14.2-14.2,14.2
					C26.6,115.4,20.3,109.1,20.3,101.2 M17.4,74.3c-1.4-2.8-4.3-4.7-7.5-4.7c-4.6,0-8.4,3.7-8.4,8.3v77.8c0,4.7,3.7,8.4,8.4,8.4
					c4.6,0,8.3-3.8,8.3-8.4v-27c5.1,2.9,10.7,4.4,16.3,4.4c17.6,0,31.9-14.3,31.9-31.9S52.1,69.3,34.5,69.3
					C28.4,69.4,22.3,71.1,17.4,74.3 M99.4,62.6v7.3h-10V44.1c0-4.5-3.6-8.1-8.1-8.1s-8.1,3.6-8.1,8.1v25.8H47.3
					c7.6,3.1,13.8,8.9,17.4,16.2h8.4v44.1c0,4.3,3.7,8,8,8c4.5,0,8.2-3.7,8.2-8V86.1h10V130c0,4.5,3.8,8.2,8.2,8.2
					c4.6,0,8.4-3.8,8.4-8.2V86.2h8.7c4.5,0,8.2-3.6,8.2-8.2c0-4.5-3.8-8.1-8.2-8.1H116v-7.3c0-5.8,4.6-10.5,10.3-10.5
					c2.7,0,5.1,1.1,7,2.8c3.4,3,8.5,2.8,11.6-0.4c3-3.2,2.8-8.5-0.4-11.6c-5-4.6-11.5-7.2-18.2-7.2C111.6,35.7,99.4,47.7,99.4,62.6"
					/>
			</defs>
			<clipPath id="SVGID_2_">
				<use xlink:href="#SVGID_1_"  style="overflow:visible;"/>
			</clipPath>
			
				<linearGradient id="SVGID_3_" gradientUnits="userSpaceOnUse" x1="-447.4103" y1="121.6865" x2="-446.4103" y2="121.6865" gradientTransform="matrix(145.5421 0 0 145.5421 65118.5352 -17610.6641)">
				<stop  offset="0" style="stop-color:#8DC63F"/>
				<stop  offset="0.2354" style="stop-color:#6FB963"/>
				<stop  offset="0.4688" style="stop-color:#50B180"/>
				<stop  offset="0.681" style="stop-color:#2FAC91"/>
				<stop  offset="0.865" style="stop-color:#00A89A"/>
				<stop  offset="1" style="stop-color:#00A79D"/>
			</linearGradient>
			<rect x="1.5" y="35.7" class="st1" width="146.4" height="128.3"/>
		</g>
	</g>
	<g>
		<path class="st0" d="M6.9,9.4v2.7h-6V9.4h1.5V2.9H1V0.2h5.8v2.7H5.4v6.6h1.5V9.4z"/>
		<path class="st0" d="M12.1,6.3v5.8c-1.1,0-2.1,0-3.1,0V0.2h1l6,5.9V0.2c1,0,2.1,0,3.1,0v11.9H18L12.1,6.3z"/>
		<path class="st0" d="M21,2.9c0-0.9,0-1.8,0-2.7h8.8c0,0.9,0,1.8,0,2.7h-2.9v9.2c-1,0-2,0-3,0V2.9H21z"/>
		<path class="st0" d="M39.2,2.9c-1.8,0-2.7,0-4.4,0v1.7h4c0,0.9,0,1.8,0,2.7h-4c0,0.7,0,1.4,0,2.1c1.8,0,2.8,0,4.6,0
			c0,0.9,0,1.8,0,2.7c-2.8,0-4.8,0-7.6,0c0-4,0-8,0-11.9c2.8,0,4.6,0,7.4,0C39.2,1.1,39.2,2,39.2,2.9z"/>
		<path class="st0" d="M52,11.7v0.4h-3.4l-2-3.5H45v3.5c-1,0-2.1,0-3,0c0-4,0-7.9,0-11.9c1.7,0,3.5,0,5.2,0c4.7,0,5.5,5.6,2.5,7.7
			L52,11.7z M47.1,2.9c-0.7,0-1.5,0-2.2,0c0,1,0,2,0,3h2.2C48.8,5.9,48.9,2.9,47.1,2.9z"/>
		<path class="st0" d="M57,6.3v5.8c-1.1,0-2.1,0-3.1,0V0.2H55l6,5.9V0.2c1,0,2.1,0,3.1,0v11.9H63L57,6.3z"/>
		<path class="st0" d="M74,10.6h-4.7l-0.7,1.5h-3v-0.4L71,0.1h1.3l5.4,11.6v0.4h-3L74,10.6z M71.6,4.9L70.2,8H73L71.6,4.9z"/>
		<path class="st0" d="M78,2.9c0-0.9,0-1.8,0-2.7h8.8c0,0.9,0,1.8,0,2.7h-2.9v9.2c-1,0-2,0-3,0V2.9H78z"/>
		<path class="st0" d="M93.8,9.4v2.7h-6V9.4h1.5V2.9h-1.4V0.2h5.8v2.7h-1.4v6.6h1.5V9.4z"/>
		<path class="st0" d="M95,6.2c0-8.2,12.2-8.2,12.2,0C107.3,14.4,95,14.4,95,6.2z M104.1,6.2c0-4.3-6-4.3-6,0
			C98.2,10.5,104.1,10.5,104.1,6.2z"/>
		<path class="st0" d="M112.7,6.3v5.8c-1.1,0-2.1,0-3.1,0V0.2h1.1l6,5.9V0.2c1,0,2.1,0,3.1,0v11.9h-1.1L112.7,6.3z"/>
		<path class="st0" d="M129.7,10.6H125l-0.7,1.5h-3v-0.4l5.4-11.6h1.3l5.4,11.6v0.4h-3L129.7,10.6z M127.3,4.9L126,8h2.7L127.3,4.9z
			"/>
		<path class="st0" d="M138,9.4h4.3c0,1,0,1.7,0,2.7c-2.4,0-5,0-7.4,0V0.2c1,0,2,0,3.1,0C138,6.4,138,4.3,138,9.4z"/>
		<path class="st0" d="M154.4,0.1c2.5,0,5.1,1.3,5.6,4.5c-1,0-2,0-3,0c-0.4-1.2-1.3-1.8-2.6-1.8c-1.8,0-3,1.3-3,3.3
			c0,1.8,1.2,3.3,3,3.3c1.3,0,2.3-0.6,2.7-1.9c1,0,2,0,3,0c-0.4,3.4-3.1,4.7-5.6,4.7c-3,0-6.1-2-6.1-6.1
			C148.3,2.1,151.4,0.1,154.4,0.1z"/>
		<path class="st0" d="M161.7,6.2c0-8.2,12.2-8.2,12.2,0S161.7,14.4,161.7,6.2z M170.8,6.2c0-4.3-6-4.3-6,0S170.8,10.5,170.8,6.2z"
			/>
		<path class="st0" d="M179.3,6.3v5.8c-1.1,0-2.1,0-3.1,0V0.2h1.1l6,5.9V0.2c1,0,2.1,0,3.1,0v11.9h-1.1L179.3,6.3z"/>
		<path class="st0" d="M192.5,8.2v3.9c-1,0-2.1,0-3.1,0V0.2c2.4,0,5,0,7.4,0c0,1,0,1.7,0,2.7h-4.3v2.6h3.8c0,1,0,1.7,0,2.7H192.5z"
			/>
		<path class="st0" d="M206.6,2.9c-1.8,0-2.7,0-4.4,0v1.7h4c0,0.9,0,1.8,0,2.7h-4c0,0.7,0,1.4,0,2.1c1.8,0,2.8,0,4.6,0
			c0,0.9,0,1.8,0,2.7c-2.8,0-4.8,0-7.6,0c0-4,0-8,0-11.9c2.8,0,4.6,0,7.4,0C206.6,1.1,206.6,2,206.6,2.9z"/>
		<path class="st0" d="M219.4,11.7v0.4H216l-2-3.5h-1.6v3.5c-1,0-2.1,0-3,0c0-4,0-7.9,0-11.9c1.7,0,3.5,0,5.2,0
			c4.7,0,5.5,5.6,2.5,7.7L219.4,11.7z M214.6,2.9c-0.7,0-1.5,0-2.2,0c0,1,0,2,0,3h2.2C216.2,5.9,216.3,2.9,214.6,2.9z"/>
		<path class="st0" d="M228.7,2.9c-1.8,0-2.7,0-4.4,0v1.7h4c0,0.9,0,1.8,0,2.7h-4c0,0.7,0,1.4,0,2.1c1.8,0,2.8,0,4.6,0
			c0,0.9,0,1.8,0,2.7c-2.8,0-4.8,0-7.6,0c0-4,0-8,0-11.9c2.8,0,4.6,0,7.4,0C228.7,1.1,228.7,2,228.7,2.9z"/>
		<path class="st0" d="M234.6,6.3v5.8c-1.1,0-2.1,0-3.1,0V0.2h1.1l6,5.9V0.2c1,0,2.1,0,3.1,0v11.9h-1.1L234.6,6.3z"/>
		<path class="st0" d="M250.1,0.1c2.5,0,5.1,1.3,5.6,4.5c-1,0-2,0-3,0c-0.4-1.2-1.3-1.8-2.6-1.8c-1.8,0-3,1.3-3,3.3
			c0,1.8,1.2,3.3,3,3.3c1.3,0,2.3-0.6,2.7-1.9c1,0,2,0,3,0c-0.4,3.4-3.1,4.7-5.6,4.7c-3,0-6.1-2-6.1-6.1
			C244,2.1,247.1,0.1,250.1,0.1z"/>
		<path class="st0" d="M265.5,2.9c-1.8,0-2.7,0-4.4,0v1.7h4c0,0.9,0,1.8,0,2.7h-4c0,0.7,0,1.4,0,2.1c1.8,0,2.8,0,4.6,0
			c0,0.9,0,1.8,0,2.7c-2.8,0-4.8,0-7.6,0c0-4,0-8,0-11.9c2.8,0,4.6,0,7.4,0C265.5,1.1,265.5,2,265.5,2.9z"/>
	</g>
	<g>
		<path class="st0" d="M0.5,181.1c0.8-0.1,1.9-0.2,3.5-0.2s2.7,0.3,3.5,0.9c0.7,0.6,1.2,1.5,1.2,2.7c0,1.1-0.4,2.1-1.1,2.7
			c-0.9,0.8-2.2,1.2-3.7,1.2c-0.3,0-0.6,0-0.9-0.1v4.1H0.5V181.1z M3.1,186.3c0.2,0.1,0.5,0.1,0.9,0.1c1.4,0,2.2-0.7,2.2-1.9
			c0-1.1-0.7-1.7-2-1.7c-0.5,0-0.9,0.1-1.1,0.1V186.3z"/>
		<path class="st0" d="M12,189.5l-0.8,2.9H8.5L12,181h3.4l3.6,11.5h-2.8l-0.9-2.9H12V189.5z M14.9,187.5l-0.7-2.4
			c-0.2-0.7-0.4-1.5-0.6-2.2l0,0c-0.2,0.7-0.3,1.5-0.5,2.2l-0.7,2.4H14.9z"/>
		<path class="st0" d="M20.5,181h2.6v9.3h4.6v2.2h-7.2V181z"/>
		<path class="st0" d="M36,187.6h-4.2v2.7h4.7v2.1h-7.3V181h7.1v2.1h-4.5v2.4H36V187.6z"/>
		<path class="st0" d="M48,188c-0.1-1.4-0.1-3-0.1-4.7h-0.1c-0.4,1.5-0.8,3.1-1.3,4.4l-1.4,4.5h-2l-1.2-4.4c-0.4-1.3-0.8-3-1-4.5
			l0,0c-0.1,1.5-0.1,3.3-0.2,4.7l-0.2,4.4H38l0.7-11.5h3.5l1.1,3.8c0.4,1.3,0.7,2.8,1,4.1h0.1c0.3-1.3,0.7-2.8,1.1-4.1l1.2-3.8h3.4
			l0.6,11.5h-2.5L48,188z"/>
		<path class="st0" d="M52.7,181.1c0.7-0.1,2.1-0.2,3.3-0.2c1.6,0,2.5,0.2,3.4,0.6c0.8,0.4,1.4,1.2,1.4,2.2s-0.6,2-1.9,2.4l0,0
			c1.3,0.4,2.3,1.3,2.3,2.8c0,1-0.5,1.9-1.2,2.4c-0.8,0.7-2.2,1-4.5,1c-1.3,0-2.2-0.1-2.8-0.2V181.1z M55.2,185.5h0.9
			c1.4,0,2.1-0.6,2.1-1.4c0-0.9-0.7-1.3-1.8-1.3c-0.6,0-0.9,0-1.1,0.1v2.6H55.2z M55.2,190.6c0.3,0,0.6,0,1,0c1.2,0,2.2-0.4,2.2-1.6
			c0-1.2-1-1.6-2.3-1.6h-0.9V190.6z"/>
		<path class="st0" d="M65.6,189.5l-0.8,2.9h-2.7l3.5-11.5H69l3.6,11.5h-2.8l-0.9-2.9H65.6z M68.5,187.5l-0.7-2.4
			c-0.2-0.7-0.4-1.5-0.6-2.2l0,0c-0.2,0.7-0.3,1.5-0.5,2.2l-0.7,2.4H68.5z"/>
		<path class="st0" d="M74,192.4V181h3l2.4,4.2c0.7,1.2,1.4,2.6,1.9,3.9h0.1c-0.2-1.5-0.2-3.1-0.2-4.8V181h2.4v11.5h-2.7l-2.4-4.4
			c-0.7-1.2-1.4-2.7-2-4h-0.1c0.1,1.5,0.1,3.1,0.1,5v3.5H74V192.4z"/>
		<path class="st0" d="M95.3,191.9c-0.8,0.3-2.3,0.6-3.8,0.6c-2.1,0-3.6-0.5-4.7-1.5s-1.6-2.5-1.6-4.2c0-3.8,2.8-6,6.5-6
			c1.5,0,2.6,0.3,3.2,0.6l-0.5,2.1c-0.6-0.3-1.4-0.5-2.7-0.5c-2.2,0-3.8,1.2-3.8,3.7c0,2.4,1.5,3.8,3.6,3.8c0.6,0,1.1-0.1,1.3-0.2
			v-2.4H91v-2h4.3V191.9z"/>
		<path class="st0" d="M102.4,183.1h-3.1V181h8.8v2.2H105v9.3h-2.6V183.1z"/>
		<path class="st0" d="M119.5,186.6c0,3.8-2.3,6-5.6,6c-3.4,0-5.4-2.6-5.4-5.8c0-3.4,2.2-6,5.6-6
			C117.6,180.8,119.5,183.4,119.5,186.6z M111.2,186.7c0,2.2,1.1,3.8,2.8,3.8c1.8,0,2.8-1.7,2.8-3.9c0-2.1-1-3.8-2.8-3.8
			S111.2,184.5,111.2,186.7z"/>
		<path class="st0" d="M123.8,181v6.6c0,2,0.7,3,2.1,3s2.1-1,2.1-3V181h2.6v6.4c0,3.5-1.8,5.2-4.8,5.2c-2.9,0-4.6-1.6-4.6-5.3V181
			H123.8z"/>
		<path class="st0" d="M132.8,181.1c0.8-0.1,2.1-0.2,3.5-0.2c1.7,0,2.9,0.3,3.7,0.9c0.7,0.5,1.1,1.3,1.1,2.4c0,1.5-1,2.5-2,2.8v0.1
			c0.8,0.3,1.2,1.1,1.5,2.1c0.4,1.3,0.7,2.8,0.9,3.2h-2.7c-0.2-0.3-0.5-1.3-0.8-2.7s-0.8-1.8-1.9-1.8h-0.8v4.5h-2.6v-11.3H132.8z
			 M135.3,186h1c1.3,0,2.1-0.6,2.1-1.6c0-1.1-0.7-1.6-1.9-1.6c-0.6,0-1,0.1-1.2,0.1L135.3,186L135.3,186z"/>
		<path class="st0" d="M145.5,181v11.5h-2.6V181H145.5z"/>
		<path class="st0" d="M147.8,189.8c0.7,0.4,1.8,0.7,2.9,0.7c1.2,0,1.8-0.5,1.8-1.2s-0.5-1.1-1.9-1.6c-1.9-0.7-3.1-1.7-3.1-3.4
			c0-2,1.6-3.5,4.3-3.5c1.3,0,2.2,0.3,2.9,0.6l-0.6,2.1c-0.5-0.2-1.3-0.5-2.4-0.5s-1.7,0.5-1.7,1.1c0,0.7,0.6,1.1,2.1,1.6
			c2,0.7,3,1.8,3,3.4c0,1.9-1.5,3.6-4.6,3.6c-1.3,0-2.6-0.3-3.2-0.7L147.8,189.8z"/>
		<path class="st0" d="M166.6,188c-0.1-1.4-0.1-3-0.1-4.7h-0.1c-0.4,1.5-0.8,3.1-1.3,4.4l-1.4,4.5h-2l-1.2-4.4c-0.4-1.3-0.8-3-1-4.5
			l0,0c-0.1,1.5-0.1,3.3-0.2,4.7l-0.2,4.4h-2.4l0.7-11.5h3.5l1.1,3.8c0.4,1.3,0.7,2.8,1,4.1h0.1c0.3-1.3,0.7-2.8,1.1-4.1l1.2-3.8
			h3.4l0.6,11.5h-2.5L166.6,188z"/>
		<path class="st0" d="M174.7,181h7v2.1h-4.4v2.6h4.1v2.1h-4.1v4.6h-2.6V181z"/>
		<path class="st0" d="M194.1,186.6c0,3.8-2.3,6-5.6,6c-3.4,0-5.4-2.6-5.4-5.8c0-3.4,2.2-6,5.6-6
			C192.2,180.8,194.1,183.4,194.1,186.6z M185.9,186.7c0,2.2,1.1,3.8,2.8,3.8c1.8,0,2.8-1.7,2.8-3.9c0-2.1-1-3.8-2.8-3.8
			S185.9,184.5,185.9,186.7z"/>
		<path class="st0" d="M195.8,181.1c0.8-0.1,2.1-0.2,3.5-0.2c1.7,0,2.9,0.3,3.7,0.9c0.7,0.5,1.1,1.3,1.1,2.4c0,1.5-1,2.5-2,2.8v0.1
			c0.8,0.3,1.2,1.1,1.5,2.1c0.4,1.3,0.7,2.8,0.9,3.2h-2.7c-0.2-0.3-0.5-1.3-0.8-2.7s-0.8-1.8-1.9-1.8h-0.8v4.5h-2.6v-11.3H195.8z
			 M198.4,186h1c1.3,0,2.1-0.6,2.1-1.6c0-1.1-0.7-1.6-1.9-1.6c-0.6,0-1,0.1-1.2,0.1L198.4,186L198.4,186z"/>
		<path class="st0" d="M208.4,181v6.6c0,2,0.7,3,2.1,3c1.4,0,2.1-1,2.1-3V181h2.6v6.4c0,3.5-1.8,5.2-4.8,5.2c-2.9,0-4.6-1.6-4.6-5.3
			V181H208.4z"/>
		<path class="st0" d="M227.1,188c-0.1-1.4-0.1-3-0.1-4.7l0,0c-0.4,1.5-0.8,3.1-1.3,4.4l-1.4,4.5h-2l-1.2-4.4c-0.4-1.3-0.8-3-1-4.5
			l0,0c-0.1,1.5-0.1,3.3-0.2,4.7l-0.2,4.4h-2.4l0.7-11.5h3.5l1.1,3.8c0.4,1.3,0.7,2.8,1,4.1h0.1c0.3-1.3,0.7-2.8,1.1-4.1l1.2-3.8
			h3.4l0.6,11.5h-2.5L227.1,188z"/>
		<path class="st0" d="M234.8,192.4v-1.6l1.4-1.3c2.4-2.2,3.6-3.4,3.6-4.7c0-0.9-0.5-1.6-1.8-1.6c-1,0-1.8,0.5-2.4,0.9l-0.7-1.9
			c0.8-0.6,2.1-1.1,3.6-1.1c2.5,0,3.9,1.5,3.9,3.5c0,1.9-1.3,3.3-2.9,4.8l-1,0.8l0,0h4.2v2.1h-7.9V192.4z"/>
		<path class="st0" d="M252.4,186.8c0,3.4-1.4,5.8-4.2,5.8c-2.9,0-4.1-2.6-4.1-5.7c0-3.2,1.4-5.7,4.2-5.7
			C251.3,181.2,252.4,183.8,252.4,186.8z M246.7,186.9c0,2.5,0.6,3.7,1.6,3.7s1.5-1.3,1.5-3.8c0-2.4-0.5-3.7-1.6-3.7
			C247.3,183.1,246.7,184.3,246.7,186.9z"/>
		<path class="st0" d="M253.7,192.4v-1.6l1.4-1.3c2.4-2.2,3.6-3.4,3.6-4.7c0-0.9-0.5-1.6-1.8-1.6c-1,0-1.8,0.5-2.4,0.9l-0.7-1.9
			c0.8-0.6,2.1-1.1,3.6-1.1c2.5,0,3.9,1.5,3.9,3.5c0,1.9-1.3,3.3-2.9,4.8l-1,0.8l0,0h4.2v2.1h-7.9V192.4z"/>
		<path class="st0" d="M266.4,183.7L266.4,183.7l-2.1,1l-0.4-1.9l2.9-1.4h2.1v11h-2.5V183.7z"/>
	</g>
	<g>
		<path class="st2" d="M3.1,182.9c0.2-0.1,0.5-0.1,1.1-0.1c1.3,0,2,0.6,2,1.7c0,1.2-0.9,1.9-2.2,1.9c-0.4,0-0.6,0-0.9-0.1V182.9z
			 M0.5,192.4h2.6v-4.1c0.2,0,0.5,0.1,0.9,0.1c1.5,0,2.8-0.4,3.7-1.2c0.7-0.6,1.1-1.6,1.1-2.7s-0.5-2.1-1.2-2.7
			c-0.8-0.6-1.9-0.9-3.5-0.9s-2.7,0.1-3.5,0.2v11.3H0.5z"/>
		<path class="st2" d="M12.4,187.5l0.7-2.4c0.2-0.7,0.4-1.5,0.5-2.2l0,0c0.2,0.7,0.4,1.5,0.6,2.2l0.7,2.4H12.4z M15.3,189.5l0.9,2.9
			H19L15.4,181H12l-3.5,11.5h2.7l0.8-2.9h3.3V189.5z"/>
		<polygon class="st2" points="20.5,192.4 27.7,192.4 27.7,190.2 23.1,190.2 23.1,181 20.5,181 		"/>
		<polygon class="st2" points="36,185.5 31.8,185.5 31.8,183.1 36.3,183.1 36.3,181 29.2,181 29.2,192.4 36.5,192.4 36.5,190.3 
			31.8,190.3 31.8,187.6 36,187.6 		"/>
		<path class="st2" d="M48.1,192.4h2.5L50,181h-3.4l-1.2,3.8c-0.4,1.3-0.8,2.8-1.1,4.1h-0.1c-0.3-1.3-0.6-2.8-1-4.1l-1.1-3.8h-3.5
			L38,192.4h2.4l0.2-4.4c0.1-1.4,0.1-3.2,0.2-4.7l0,0c0.3,1.5,0.7,3.1,1,4.5l1.2,4.4h2l1.4-4.5c0.4-1.3,0.9-3,1.3-4.4h0.1
			c0,1.7,0.1,3.3,0.1,4.7L48.1,192.4z"/>
		<path class="st2" d="M55.2,187.4h0.9c1.3,0,2.3,0.5,2.3,1.6c0,1.2-1,1.6-2.2,1.6c-0.4,0-0.7,0-1,0V187.4z M55.2,182.8
			c0.2,0,0.5-0.1,1.1-0.1c1.2,0,1.8,0.5,1.8,1.3c0,0.9-0.7,1.4-2.1,1.4h-0.9v-2.6H55.2z M52.7,192.4c0.6,0.1,1.5,0.2,2.8,0.2
			c2.3,0,3.7-0.4,4.5-1c0.7-0.6,1.2-1.4,1.2-2.4c0-1.5-1-2.5-2.3-2.8l0,0c1.3-0.5,1.9-1.4,1.9-2.4s-0.6-1.8-1.4-2.2
			c-0.8-0.5-1.8-0.6-3.4-0.6c-1.3,0-2.7,0.1-3.3,0.2V192.4z"/>
		<path class="st2" d="M65.9,187.5l0.7-2.4c0.2-0.7,0.4-1.5,0.5-2.2l0,0c0.2,0.7,0.4,1.5,0.6,2.2l0.7,2.4H65.9z M68.8,189.5l0.9,2.9
			h2.8L68.9,181h-3.4L62,192.4h2.7l0.8-2.9H68.8z"/>
		<path class="st2" d="M76.4,192.4V189c0-1.9,0-3.5-0.1-5h0.1c0.6,1.3,1.3,2.8,2,4l2.4,4.4h2.7V181h-2.4v3.3c0,1.7,0.1,3.3,0.2,4.8
			h-0.1c-0.5-1.3-1.2-2.7-1.9-3.9L77,181h-3v11.5h2.4V192.4z"/>
		<path class="st2" d="M95.3,185.9H91v2h1.8v2.4c-0.2,0.1-0.7,0.2-1.3,0.2c-2.1,0-3.6-1.4-3.6-3.8c0-2.5,1.6-3.7,3.8-3.7
			c1.3,0,2,0.2,2.7,0.5l0.5-2.1c-0.6-0.3-1.7-0.6-3.2-0.6c-3.8,0-6.5,2.2-6.5,6c0,1.7,0.6,3.2,1.6,4.2c1.1,1,2.6,1.5,4.7,1.5
			c1.5,0,3-0.4,3.8-0.6V185.9z"/>
		<polygon class="st2" points="102.3,192.4 104.9,192.4 104.9,183.1 108,183.1 108,181 99.2,181 99.2,183.1 102.3,183.1 		"/>
		<path class="st2" d="M113.9,182.8c1.8,0,2.8,1.8,2.8,3.8c0,2.2-1,3.9-2.8,3.9c-1.7,0-2.8-1.6-2.8-3.8S112.2,182.8,113.9,182.8z
			 M114,180.8c-3.4,0-5.6,2.6-5.6,6c0,3.3,2,5.8,5.4,5.8c3.3,0,5.6-2.3,5.6-6C119.4,183.4,117.5,180.8,114,180.8z"/>
		<path class="st2" d="M121.1,181v6.4c0,3.7,1.7,5.3,4.6,5.3c3,0,4.8-1.7,4.8-5.2V181h-2.6v6.6c0,2-0.7,3-2.1,3c-1.3,0-2.1-1-2.1-3
			V181H121.1z"/>
		<path class="st2" d="M135.3,182.9c0.2,0,0.5-0.1,1.2-0.1c1.2,0,1.9,0.5,1.9,1.6c0,1-0.8,1.6-2.1,1.6h-1L135.3,182.9L135.3,182.9z
			 M132.7,192.4h2.6v-4.5h0.8c1.1,0,1.5,0.4,1.9,1.8c0.3,1.4,0.6,2.3,0.8,2.7h2.7c-0.2-0.4-0.6-1.9-0.9-3.2
			c-0.3-1.1-0.7-1.8-1.5-2.1V187c1-0.4,2-1.4,2-2.8c0-1.1-0.4-1.9-1.1-2.4c-0.8-0.6-2-0.9-3.7-0.9c-1.4,0-2.6,0.1-3.5,0.2v11.3
			H132.7z"/>
		<rect x="142.8" y="181" class="st2" width="2.6" height="11.5"/>
		<path class="st2" d="M147.2,191.9c0.6,0.4,1.9,0.7,3.2,0.7c3.1,0,4.6-1.6,4.6-3.6c0-1.6-1-2.7-3-3.4c-1.5-0.6-2.1-0.9-2.1-1.6
			c0-0.6,0.5-1.1,1.7-1.1s1.9,0.3,2.4,0.5l0.6-2.1c-0.7-0.3-1.6-0.6-2.9-0.6c-2.7,0-4.3,1.5-4.3,3.5c0,1.7,1.2,2.7,3.1,3.4
			c1.4,0.5,1.9,0.9,1.9,1.6c0,0.7-0.6,1.2-1.8,1.2c-1.1,0-2.2-0.4-2.9-0.7L147.2,191.9z"/>
		<path class="st2" d="M166.7,192.4h2.5l-0.6-11.5h-3.4l-1.2,3.8c-0.4,1.3-0.8,2.8-1.1,4.1h-0.1c-0.3-1.3-0.6-2.8-1-4.1l-1.1-3.8
			h-3.5l-0.7,11.5h2.4l0.2-4.4c0.1-1.4,0.1-3.2,0.2-4.7l0,0c0.3,1.5,0.7,3.1,1,4.5l1.2,4.4h2l1.4-4.5c0.4-1.3,0.9-3,1.3-4.4h0.1
			c0,1.7,0.1,3.3,0.1,4.7L166.7,192.4z"/>
		<polygon class="st2" points="174.6,192.4 177.2,192.4 177.2,187.8 181.3,187.8 181.3,185.7 177.2,185.7 177.2,183.1 181.6,183.1 
			181.6,181 174.6,181 		"/>
		<path class="st2" d="M188.6,182.8c1.8,0,2.8,1.8,2.8,3.8c0,2.2-1,3.9-2.8,3.9c-1.7,0-2.8-1.6-2.8-3.8S186.8,182.8,188.6,182.8z
			 M188.6,180.8c-3.4,0-5.6,2.6-5.6,6c0,3.3,2,5.8,5.4,5.8c3.3,0,5.6-2.3,5.6-6C194.1,183.4,192.2,180.8,188.6,180.8z"/>
		<path class="st2" d="M198.3,182.9c0.2,0,0.5-0.1,1.2-0.1c1.2,0,1.9,0.5,1.9,1.6c0,1-0.8,1.6-2.1,1.6h-1L198.3,182.9L198.3,182.9z
			 M195.8,192.4h2.6v-4.5h0.8c1.1,0,1.5,0.4,1.9,1.8c0.3,1.4,0.6,2.3,0.8,2.7h2.7c-0.2-0.4-0.6-1.9-0.9-3.2
			c-0.3-1.1-0.7-1.8-1.5-2.1V187c1-0.4,2-1.4,2-2.8c0-1.1-0.4-1.9-1.1-2.4c-0.8-0.6-2-0.9-3.7-0.9c-1.4,0-2.6,0.1-3.5,0.2v11.3
			H195.8z"/>
		<path class="st2" d="M205.8,181v6.4c0,3.7,1.7,5.3,4.6,5.3c3,0,4.8-1.7,4.8-5.2V181h-2.6v6.6c0,2-0.7,3-2.1,3c-1.3,0-2.1-1-2.1-3
			V181H205.8z"/>
		<path class="st2" d="M227.2,192.4h2.5l-0.6-11.5h-3.4l-1.2,3.8c-0.4,1.3-0.8,2.8-1.1,4.1h-0.1c-0.3-1.3-0.6-2.8-1-4.1l-1.1-3.8
			h-3.5l-0.7,11.5h2.4l0.2-4.4c0.1-1.4,0.1-3.2,0.2-4.7l0,0c0.3,1.5,0.7,3.1,1,4.5l1.2,4.4h2l1.4-4.5c0.4-1.3,0.9-3,1.3-4.4h0.1
			c0,1.7,0.1,3.3,0.1,4.7L227.2,192.4z"/>
		<path class="st2" d="M242.6,192.4v-2.1h-4.2l0,0l1-0.8c1.6-1.4,2.9-2.9,2.9-4.8c0-2-1.4-3.5-3.9-3.5c-1.5,0-2.8,0.5-3.6,1.1
			l0.7,1.9c0.6-0.4,1.4-0.9,2.4-0.9c1.3,0,1.8,0.7,1.8,1.6c0,1.3-1.2,2.5-3.6,4.7l-1.4,1.3v1.6h7.9V192.4z"/>
		<path class="st2" d="M248.2,183.1c1,0,1.6,1.3,1.6,3.7c0,2.5-0.5,3.8-1.5,3.8s-1.6-1.2-1.6-3.7
			C246.6,184.3,247.3,183.1,248.2,183.1z M248.3,181.2c-2.9,0-4.2,2.5-4.2,5.7c0,3.1,1.3,5.7,4.1,5.7s4.2-2.3,4.2-5.8
			C252.4,183.8,251.2,181.2,248.3,181.2z"/>
		<path class="st2" d="M261.5,192.4v-2.1h-4.2l0,0l1-0.8c1.6-1.4,2.9-2.9,2.9-4.8c0-2-1.4-3.5-3.9-3.5c-1.5,0-2.8,0.5-3.6,1.1
			l0.7,1.9c0.6-0.4,1.4-0.9,2.4-0.9c1.3,0,1.8,0.7,1.8,1.6c0,1.3-1.2,2.5-3.6,4.7l-1.4,1.3v1.6h7.9V192.4z"/>
		<polygon class="st2" points="266.4,192.4 268.9,192.4 268.9,181.4 266.7,181.4 263.8,182.7 264.2,184.7 266.3,183.7 266.4,183.7 
					"/>
		<path class="st3" d="M218.3,85.7c4.8-1.8,9.7-3.1,14.7-4s10.2-1.2,15.3-0.7c2.5,0.2,5.1,0.7,7.5,1.5c2.4,0.8,4.8,1.9,6.9,3.5
			c2,1.6,3.7,3.7,4.7,6.1s1.2,5.1,0.9,7.7l-0.9-0.1c0.3-2.5,0.1-5-0.8-7.3s-2.5-4.3-4.4-5.9c-2-1.6-4.2-2.7-6.6-3.5
			s-4.9-1.3-7.4-1.6c-5-0.5-10.2-0.3-15.2,0.5C228.1,82.7,223.1,84,218.3,85.7"/>
		<path class="st3" d="M183.1,138.5c-2.2-1.5-4-3.4-5.2-5.8c-1.2-2.3-1.7-5-1.6-7.6c0.1-2.6,0.8-5.1,1.9-7.5c1-2.4,2.3-4.6,3.8-6.7
			c3-4.2,6.7-7.8,10.7-11s8.3-6,12.8-8.4c-4.5,2.5-8.7,5.3-12.6,8.6c-3.9,3.3-7.5,6.9-10.4,11.1c-1.5,2.1-2.7,4.3-3.7,6.6
			c-1,2.3-1.6,4.8-1.7,7.3c-0.1,2.5,0.4,5,1.6,7.2c1.2,2.2,3,4,5,5.4L183.1,138.5z"/>
		<path class="st4" d="M266,106.4c-4.7,10.3-16.8,21.3-33.1,28.7c-16.4,7.4-32.8,9.2-43.6,5.8"/>
		<path class="st5" d="M211.5,70.6c5-1.9,10.1-3.5,15.4-4.7c5.2-1.1,10.6-1.8,16-1.9c5.4,0,10.8,0.6,15.9,2.7c2.5,1,4.9,2.5,6.8,4.5
			s3.4,4.5,4,7.2l-1.2,0.3c-0.5-2.5-1.8-4.9-3.5-6.7c-1.8-1.9-4-3.3-6.4-4.4c-4.8-2.1-10.2-2.9-15.5-3s-10.7,0.5-15.9,1.5
			C221.7,67.2,216.5,68.7,211.5,70.6"/>
		<path class="st5" d="M166.4,125.3c-0.8-1.1-1.5-2.3-2-3.7c-0.5-1.3-0.8-2.7-0.9-4.1c-0.3-2.8,0.2-5.5,1-8.1
			c1.7-5.2,4.9-9.8,8.4-13.8c3.6-4.1,7.7-7.6,12-10.8c4.3-3.2,8.9-6,13.7-8.5c-4.7,2.6-9.3,5.5-13.5,8.7c-4.3,3.3-8.2,6.9-11.7,11
			c-3.4,4.1-6.4,8.6-8,13.7c-0.8,2.5-1.2,5.2-0.8,7.8c0.1,1.3,0.5,2.6,1,3.7c0.5,1.2,1.1,2.3,1.9,3.3L166.4,125.3z"/>
		<path class="st6" d="M269.2,81.8c0.1,13.8-16.5,31.7-41.1,42.8c-24.8,11.2-49.4,11.7-59.5,2.2"/>
		<path class="st7" d="M202.8,51.3c9.3-3.5,19.1-6.1,29.2-6.4c5-0.2,10.1,0.2,15,1.4s9.7,3.6,13.2,7.4l-1.2,1.1
			c-3.2-3.6-7.6-6-12.3-7.3s-9.7-1.8-14.7-1.8s-9.9,0.6-14.8,1.6C212.3,48.3,207.5,49.7,202.8,51.3"/>
		<path class="st7" d="M153.8,102c-0.6-5.2,0.8-10.4,3.1-14.9s5.4-8.6,8.9-12.2c6.9-7.3,15.3-13,24.2-17.7
			c-8.7,4.9-16.9,10.8-23.6,18.2c-3.3,3.7-6.2,7.8-8.4,12.2c-2.1,4.4-3.2,9.4-2.6,14.1L153.8,102z"/>
		<path class="st8" d="M262.9,59.9c5.5,15.7-12.3,38.3-40.9,51.2c-28.7,12.9-57.5,11.3-65.5-3.4"/>
		<path class="st9" d="M254.9,48.1C259,63.7,242.3,85,215.7,97C189,109,162,107.5,153,94"/>
		<path class="st10" d="M196.3,36.9c6.4-2.4,13.1-4.3,20-5.1c3.4-0.4,6.9-0.6,10.4-0.3c3.5,0.2,6.9,0.8,10.3,2.1l-0.5,1.3
			c-3.1-1.3-6.4-2-9.8-2.3c-3.4-0.3-6.8-0.3-10.2,0C209.5,33.1,202.8,34.7,196.3,36.9"/>
		<path class="st10" d="M154,70.9c1.3-3.3,3.1-6.3,5.2-9.1c2.1-2.8,4.5-5.3,7.1-7.6c5.2-4.6,11-8.4,17.1-11.6
			c-6,3.4-11.6,7.4-16.6,12.1c-2.5,2.4-4.8,4.9-6.7,7.7c-2,2.8-3.7,5.7-4.8,8.9L154,70.9z"/>
		<path class="st11" d="M241.3,36.7c2.1,1.6,3.8,3.5,4.8,5.8c5.9,13-9.9,32.7-35.1,44.1s-50.4,10.1-56.3-2.9c-1-2.3-1.4-4.8-1.2-7.4
			"/>
		<path class="st12" d="M232.7,32.4c0.1,0.2,0.2,0.3,0.2,0.5c6.1,13.6-6.1,32.3-27.3,41.9c-21.1,9.5-43.1,6.3-49.4-7.1"/>
		
			<ellipse transform="matrix(0.9115 -0.4113 0.4113 0.9115 -2.4568 83.754)" class="st13" cx="193.4" cy="47.6" rx="30.3" ry="15.7"/>
		
			<linearGradient id="SVGID_4_" gradientUnits="userSpaceOnUse" x1="-449.4806" y1="122.3318" x2="-448.4806" y2="122.3318" gradientTransform="matrix(84.6271 -84.6271 84.6271 84.6271 27854.3125 -48261.8789)">
			<stop  offset="0" style="stop-color:#5964A1"/>
			<stop  offset="0.1362" style="stop-color:#3C9BD6"/>
			<stop  offset="0.2061" style="stop-color:#57A7BE"/>
			<stop  offset="0.2709" style="stop-color:#68B0A9"/>
			<stop  offset="0.3697" style="stop-color:#ACCD97"/>
			<stop  offset="0.4274" style="stop-color:#CEE08C"/>
			<stop  offset="0.4901" style="stop-color:#E2D48A"/>
			<stop  offset="0.5615" style="stop-color:#F5C788"/>
			<stop  offset="0.6002" style="stop-color:#F2B38D"/>
			<stop  offset="0.6792" style="stop-color:#EC8E92"/>
			<stop  offset="0.7179" style="stop-color:#EA7F92"/>
			<stop  offset="0.7603" style="stop-color:#D26D96"/>
			<stop  offset="0.8244" style="stop-color:#B2569A"/>
			<stop  offset="0.8575" style="stop-color:#A64E9C"/>
			<stop  offset="0.8731" style="stop-color:#9B609E"/>
			<stop  offset="0.9181" style="stop-color:#7883A1"/>
			<stop  offset="0.9557" style="stop-color:#5198A1"/>
			<stop  offset="0.9841" style="stop-color:#21A39E"/>
			<stop  offset="1" style="stop-color:#00A79D"/>
		</linearGradient>
		<path class="st14" d="M264.2,62.6l0.9-0.4c3.6,7.9,5.3,16.2,5.3,24.4c0,22.6-13,44.3-35,54.2c-7.9,3.6-16.2,5.3-24.4,5.3
			c-22.6,0-44.3-13-54.2-35c-3.6-7.9-5.3-16.2-5.3-24.4c0-22.6,13-44.3,35-54.2c7.9-3.6,16.2-5.3,24.4-5.3c22.6,0,44.3,13,54.2,35
			L264.2,62.6l-0.9,0.4c-9.6-21.2-30.5-33.8-52.4-33.8c-7.9,0-15.9,1.6-23.6,5.1c-21.2,9.6-33.8,30.5-33.8,52.4
			c0,7.9,1.6,15.9,5.1,23.6c9.6,21.2,30.5,33.8,52.4,33.8c7.9,0,15.9-1.6,23.6-5.1c21.2-9.6,33.8-30.5,33.8-52.4
			c0-7.9-1.6-15.9-5.1-23.6L264.2,62.6z"/>
	</g>
</g>
</svg>
