<?xml version="1.0" encoding="utf-8"?>
<!-- Generator: Adobe Illustrator 21.0.0, SVG Export Plug-In . SVG Version: 6.00 Build 0)  -->
<svg version="1.1" id="Layer_1" xmlns="http://www.w3.org/2000/svg" xmlns:xlink="http://www.w3.org/1999/xlink" x="0px" y="0px"
	 viewBox="0 0 260 80" style="enable-background:new 0 0 260 80;" xml:space="preserve">
<style type="text/css">
	.st0{fill:#0084FF;}
</style>
<g>
	<path d="M47.5,52c-0.3,0-0.6-0.1-0.7-0.3c-0.2-0.2-0.3-0.3-0.4-0.4l-1-1.3c-0.8,0.3-1.7,0.4-2.7,0.4c-1.8,0-3.4-0.3-4.8-0.9
		c-1.4-0.6-2.4-1.5-3.2-2.7s-1.2-2.7-1.2-4.5c0-0.9,0-1.7,0-2.6s0-1.7,0-2.6c0.1-1.8,0.5-3.3,1.3-4.5s1.8-2.2,3.2-2.8
		c1.4-0.6,2.9-0.9,4.7-0.9s3.4,0.3,4.8,0.9c1.4,0.6,2.4,1.5,3.2,2.8c0.8,1.2,1.2,2.7,1.2,4.5c0,0.9,0.1,1.7,0.1,2.6s0,1.7-0.1,2.6
		c-0.1,2.5-0.8,4.4-2.2,5.8l2.2,3.1c0,0,0,0.1,0.1,0.1c0,0.1,0,0.1,0,0.2c0,0.2,0,0.3-0.1,0.4c-0.1,0.1-0.3,0.2-0.4,0.2L47.5,52
		L47.5,52z M42.6,46c1.1,0,1.9-0.3,2.6-1c0.7-0.6,1-1.7,1.1-3.1c0-0.9,0.1-1.7,0.1-2.5s0-1.6-0.1-2.4c0-0.9-0.2-1.7-0.5-2.3
		s-0.7-1-1.3-1.3C44,33.1,43.3,33,42.6,33s-1.3,0.1-1.8,0.4c-0.5,0.3-1,0.7-1.3,1.3S39,36.1,39,37.1c0,0.8,0,1.6,0,2.4
		c0,0.8,0,1.6,0,2.5c0.1,1.4,0.4,2.4,1.1,3.1C40.7,45.7,41.6,46,42.6,46z"/>
	<path d="M56.2,50c-0.2,0-0.4-0.1-0.5-0.2c-0.1-0.1-0.2-0.3-0.2-0.5V29.8c0-0.2,0.1-0.4,0.2-0.5c0.1-0.1,0.3-0.2,0.5-0.2h8.2
		c2.6,0,4.6,0.6,6.1,1.8c1.5,1.2,2.2,2.9,2.2,5.1c0,1.4-0.3,2.6-1,3.6s-1.6,1.7-2.7,2.2l4.1,7.4c0.1,0.1,0.1,0.2,0.1,0.3
		c0,0.2-0.1,0.3-0.2,0.4C72.8,50,72.7,50,72.5,50h-4c-0.4,0-0.7-0.1-0.8-0.3c-0.2-0.2-0.3-0.4-0.4-0.5l-3.4-6.6h-3.1v6.7
		c0,0.2-0.1,0.4-0.2,0.5S60.3,50,60.1,50H56.2z M60.8,38.4h3.5c0.9,0,1.6-0.2,2.1-0.7s0.7-1.1,0.7-1.9c0-0.8-0.2-1.4-0.7-1.9
		s-1.2-0.7-2.1-0.7h-3.5C60.8,33.2,60.8,38.4,60.8,38.4z"/>
	<path d="M76.6,32.2c-0.2,0-0.4-0.1-0.5-0.2c-0.1-0.1-0.2-0.3-0.2-0.5v-2.7c0-0.2,0.1-0.4,0.2-0.5s0.3-0.2,0.5-0.2h3.6
		c0.2,0,0.4,0.1,0.5,0.2c0.1,0.2,0.2,0.3,0.2,0.5v2.7c0,0.2-0.1,0.4-0.2,0.5c-0.2,0.1-0.3,0.2-0.5,0.2H76.6z M76.6,50
		c-0.2,0-0.4-0.1-0.5-0.2c-0.1-0.1-0.2-0.3-0.2-0.5V35.2c0-0.2,0.1-0.4,0.2-0.5s0.3-0.2,0.5-0.2h3.5c0.2,0,0.4,0.1,0.5,0.2
		c0.1,0.1,0.2,0.3,0.2,0.5v14.1c0,0.2-0.1,0.4-0.2,0.5C80.5,50,80.3,50,80.1,50H76.6z"/>
	<path d="M85.2,50c-0.2,0-0.4-0.1-0.5-0.2c-0.1-0.1-0.2-0.3-0.2-0.5V35.2c0-0.2,0.1-0.4,0.2-0.5s0.3-0.2,0.5-0.2h3.5
		c0.2,0,0.4,0.1,0.6,0.2c0.1,0.1,0.2,0.3,0.2,0.5v1.1c0.5-0.6,1.2-1.1,2-1.6c0.8-0.4,1.8-0.6,3-0.6s2.2,0.3,3.1,0.8s1.6,1.3,2.1,2.3
		s0.8,2.2,0.8,3.7v8.4c0,0.2-0.1,0.4-0.2,0.5C100,50,99.8,50,99.6,50h-3.8c-0.2,0-0.4-0.1-0.5-0.2c-0.2-0.1-0.2-0.3-0.2-0.5v-8.2
		c0-0.9-0.2-1.7-0.7-2.2c-0.4-0.5-1.1-0.8-2-0.8c-0.8,0-1.5,0.3-2,0.8s-0.7,1.2-0.7,2.2v8.2c0,0.2-0.1,0.4-0.2,0.5S89.1,50,88.9,50
		H85.2z"/>
	<path d="M108.8,50c-0.3,0-0.5-0.1-0.7-0.2c-0.1-0.1-0.3-0.3-0.4-0.5L102,35.4c0-0.1-0.1-0.2-0.1-0.3c0-0.2,0.1-0.3,0.2-0.5
		c0.1-0.1,0.3-0.2,0.5-0.2h3.4c0.3,0,0.5,0.1,0.6,0.2c0.1,0.1,0.2,0.3,0.3,0.4l3.4,9.2l3.4-9.2c0-0.1,0.1-0.3,0.3-0.4
		c0.1-0.1,0.3-0.2,0.6-0.2h3.4c0.2,0,0.3,0.1,0.5,0.2c0.1,0.1,0.2,0.3,0.2,0.5c0,0.1,0,0.2-0.1,0.3L113,49.3
		c-0.1,0.2-0.2,0.4-0.3,0.5S112.3,50,112,50H108.8z"/>
	<path d="M121.8,32.2c-0.2,0-0.4-0.1-0.5-0.2c-0.1-0.1-0.2-0.3-0.2-0.5v-2.7c0-0.2,0.1-0.4,0.2-0.5s0.3-0.2,0.5-0.2h3.6
		c0.2,0,0.4,0.1,0.5,0.2c0.1,0.2,0.2,0.3,0.2,0.5v2.7c0,0.2-0.1,0.4-0.2,0.5c-0.2,0.1-0.3,0.2-0.5,0.2H121.8z M121.8,50
		c-0.2,0-0.4-0.1-0.5-0.2c-0.1-0.1-0.2-0.3-0.2-0.5V35.2c0-0.2,0.1-0.4,0.2-0.5s0.3-0.2,0.5-0.2h3.5c0.2,0,0.4,0.1,0.5,0.2
		c0.1,0.1,0.2,0.3,0.2,0.5v14.1c0,0.2-0.1,0.4-0.2,0.5s-0.3,0.2-0.5,0.2C125.3,50,121.8,50,121.8,50z"/>
	<path d="M137.6,50c-1.3,0-2.4-0.2-3.3-0.6c-0.9-0.4-1.6-1-2.1-1.9s-0.8-2-0.8-3.4v-5.8h-2.3c-0.2,0-0.4-0.1-0.6-0.2
		c-0.1-0.1-0.2-0.3-0.2-0.5v-2.4c0-0.2,0.1-0.4,0.2-0.5c0.1-0.1,0.3-0.2,0.6-0.2h2.3v-4.9c0-0.2,0.1-0.4,0.2-0.5
		c0.1-0.1,0.3-0.2,0.5-0.2h3.5c0.2,0,0.4,0.1,0.5,0.2s0.2,0.3,0.2,0.5v4.9h3.8c0.2,0,0.4,0.1,0.6,0.2c0.1,0.1,0.2,0.3,0.2,0.5v2.4
		c0,0.2-0.1,0.4-0.2,0.5c-0.2,0.1-0.3,0.2-0.6,0.2h-3.8v5.3c0,0.7,0.1,1.2,0.4,1.6c0.3,0.4,0.7,0.6,1.3,0.6h2.3
		c0.2,0,0.4,0.1,0.5,0.2c0.1,0.1,0.2,0.3,0.2,0.5v2.6c0,0.2-0.1,0.4-0.2,0.5c-0.1,0.1-0.3,0.2-0.5,0.2h-2.7V50z"/>
	<path d="M148.3,50.3c-1.1,0-2-0.2-2.9-0.6c-0.9-0.4-1.5-1-2-1.7s-0.8-1.5-0.8-2.4c0-1.4,0.6-2.5,1.7-3.4c1.2-0.8,2.7-1.4,4.6-1.7
		l3.8-0.6v-0.4c0-0.7-0.1-1.3-0.5-1.6c-0.3-0.4-0.9-0.6-1.6-0.6c-0.6,0-1,0.1-1.4,0.3s-0.6,0.5-0.8,0.9c-0.2,0.3-0.4,0.4-0.8,0.4
		h-3.4c-0.2,0-0.4-0.1-0.5-0.2c-0.1-0.1-0.2-0.3-0.1-0.5c0-0.4,0.1-0.8,0.4-1.2c0.3-0.5,0.7-0.9,1.2-1.4c0.6-0.5,1.3-0.8,2.2-1.1
		s1.9-0.4,3.2-0.4s2.4,0.1,3.3,0.4c0.9,0.3,1.7,0.7,2.3,1.3s1,1.2,1.3,1.9s0.4,1.5,0.4,2.4v9.1c0,0.2-0.1,0.4-0.2,0.5
		s-0.3,0.2-0.5,0.2h-3.5c-0.2,0-0.4-0.1-0.5-0.2c-0.1-0.1-0.2-0.3-0.2-0.5v-1c-0.3,0.4-0.6,0.7-1.1,1c-0.4,0.3-1,0.6-1.5,0.8
		S149.1,50.3,148.3,50.3z M149.8,46.9c0.6,0,1.1-0.1,1.6-0.4c0.5-0.2,0.8-0.6,1.1-1.2c0.3-0.5,0.4-1.2,0.4-2V43l-2.6,0.5
		c-0.9,0.2-1.6,0.4-2.1,0.7c-0.4,0.3-0.6,0.7-0.6,1.2c0,0.3,0.1,0.6,0.3,0.9c0.2,0.2,0.5,0.4,0.8,0.6
		C149,46.9,149.4,46.9,149.8,46.9z"/>
	<path d="M169.2,50c-1.3,0-2.4-0.2-3.3-0.6c-0.9-0.4-1.6-1-2.1-1.9s-0.8-2-0.8-3.4v-5.8h-2.3c-0.2,0-0.4-0.1-0.6-0.2
		c-0.1-0.1-0.2-0.3-0.2-0.5v-2.4c0-0.2,0.1-0.4,0.2-0.5c0.1-0.1,0.3-0.2,0.6-0.2h2.3v-4.9c0-0.2,0.1-0.4,0.2-0.5
		c0.1-0.1,0.3-0.2,0.5-0.2h3.5c0.2,0,0.4,0.1,0.5,0.2s0.2,0.3,0.2,0.5v4.9h3.7c0.2,0,0.4,0.1,0.6,0.2c0.1,0.1,0.2,0.3,0.2,0.5v2.4
		c0,0.2-0.1,0.4-0.2,0.5c-0.2,0.1-0.3,0.2-0.6,0.2H168v5.3c0,0.7,0.1,1.2,0.4,1.6c0.3,0.4,0.7,0.6,1.3,0.6h2.3
		c0.2,0,0.4,0.1,0.5,0.2c0.1,0.1,0.2,0.3,0.2,0.5v2.6c0,0.2-0.1,0.4-0.2,0.5S172.2,50,172,50H169.2z"/>
	<path d="M176,32.2c-0.2,0-0.4-0.1-0.5-0.2c-0.1-0.1-0.2-0.3-0.2-0.5v-2.7c0-0.2,0.1-0.4,0.2-0.5c0.1-0.1,0.3-0.2,0.5-0.2h3.6
		c0.2,0,0.4,0.1,0.5,0.2c0.1,0.2,0.2,0.3,0.2,0.5v2.7c0,0.2-0.1,0.4-0.2,0.5c-0.2,0.1-0.3,0.2-0.5,0.2H176z M176,50
		c-0.2,0-0.4-0.1-0.5-0.2c-0.1-0.1-0.2-0.3-0.2-0.5V35.2c0-0.2,0.1-0.4,0.2-0.5c0.1-0.1,0.3-0.2,0.5-0.2h3.5c0.2,0,0.4,0.1,0.5,0.2
		c0.1,0.1,0.2,0.3,0.2,0.5v14.1c0,0.2-0.1,0.4-0.2,0.5s-0.3,0.2-0.5,0.2C179.5,50,176,50,176,50z"/>
	<path d="M191.2,50.3c-1.7,0-3.1-0.3-4.2-0.8c-1.2-0.5-2-1.3-2.6-2.3s-1-2.2-1-3.6c0-0.4,0-0.9,0-1.4s0-1,0-1.3
		c0.1-1.4,0.4-2.6,1.1-3.6c0.6-1,1.5-1.8,2.7-2.3c1.1-0.5,2.5-0.8,4.2-0.8c1.6,0,3,0.3,4.2,0.8c1.1,0.5,2,1.3,2.7,2.3
		c0.6,1,1,2.2,1.1,3.6c0,0.4,0,0.8,0,1.3s0,1,0,1.4c-0.1,1.4-0.4,2.6-1,3.6s-1.5,1.8-2.6,2.3C194.3,50.1,192.9,50.3,191.2,50.3z
		 M191.2,46.7c0.9,0,1.6-0.3,2-0.8s0.6-1.4,0.7-2.4c0-0.3,0-0.7,0-1.2s0-0.9,0-1.2c-0.1-1.1-0.3-1.9-0.7-2.4s-1.1-0.8-2-0.8
		s-1.5,0.3-1.9,0.8c-0.4,0.6-0.7,1.4-0.7,2.4c0,0.3,0,0.7,0,1.2s0,0.9,0,1.2c0,1.1,0.3,1.9,0.7,2.4S190.4,46.7,191.2,46.7z"/>
	<path d="M202.9,50c-0.2,0-0.4-0.1-0.5-0.2c-0.1-0.1-0.2-0.3-0.2-0.5V35.2c0-0.2,0.1-0.4,0.2-0.5c0.1-0.1,0.3-0.2,0.5-0.2h3.5
		c0.2,0,0.4,0.1,0.6,0.2c0.1,0.1,0.2,0.3,0.2,0.5v1.1c0.5-0.6,1.2-1.1,2-1.6s1.8-0.6,3-0.6s2.2,0.3,3.1,0.8c0.9,0.5,1.6,1.3,2.1,2.3
		s0.8,2.2,0.8,3.7v8.4c0,0.2-0.1,0.4-0.2,0.5s-0.3,0.2-0.5,0.2h-3.8c-0.2,0-0.4-0.1-0.5-0.2c-0.2-0.1-0.2-0.3-0.2-0.5v-8.2
		c0-0.9-0.2-1.7-0.7-2.2s-1.1-0.8-2-0.8c-0.8,0-1.5,0.3-2,0.8s-0.7,1.2-0.7,2.2v8.2c0,0.2-0.1,0.4-0.2,0.5s-0.3,0.2-0.5,0.2
		C206.9,50,202.9,50,202.9,50z"/>
	<path class="st0" d="M222.1,50c-0.2,0-0.4-0.1-0.5-0.2c-0.1-0.1-0.2-0.3-0.2-0.5v-3.8c0-0.2,0.1-0.4,0.2-0.5
		c0.1-0.1,0.3-0.2,0.5-0.2h3.8c0.2,0,0.4,0.1,0.5,0.2c0.2,0.1,0.2,0.3,0.2,0.5v3.8c0,0.2-0.1,0.4-0.2,0.5s-0.3,0.2-0.5,0.2H222.1z"
		/>
</g>
</svg>
