<?xml version="1.0" encoding="utf-8"?>
<!-- Generator: Adobe Illustrator 21.0.0, SVG Export Plug-In . SVG Version: 6.00 Build 0)  -->
<svg version="1.1" id="Layer_1" xmlns="http://www.w3.org/2000/svg" xmlns:xlink="http://www.w3.org/1999/xlink" x="0px" y="0px"
	 viewBox="0 0 137.2 52.8" style="enable-background:new 0 0 137.2 52.8;" xml:space="preserve">
<style type="text/css">
	.st0{fill:#FFFFFF;}
	.st1{fill:#CE271C;}
	.st2{fill:#F0BB1B;}
	.st3{fill:#5E5F62;}
</style>
<g>
	<path class="st0" d="M78.1,24.1"/>
	<path class="st0" d="M78.1,24.1"/>
	<g>
		<g>
			<path class="st1" d="M8.5,47.8c0.3-0.4,0.5-1.1,0.7-2c0.2-1.1,0-1.8-0.4-2.3c-0.4-0.4-1.1-0.6-2.2-0.6H2.1L0,52.7h2.5l0.6-3.2h2
				c0.5,0,0.7,0.1,0.7,0.2c0.1,0.1,0.1,0.3,0,0.9l-0.4,2.1h2.5l0.4-2.5c0.1-0.9-0.1-1.5-0.5-1.9C8.1,48.2,8.3,48,8.5,47.8z M4,45h2
				c0.6,0,0.7,0.1,0.7,0.1s0.1,0.2,0,0.9c-0.1,0.7-0.3,1-0.4,1c-0.1,0.1-0.3,0.2-0.9,0.2h-2L4,45z"/>
			<path class="st1" d="M18.5,44.2c-0.3-0.6-0.7-1-1.2-1.2s-1.3-0.3-2.5-0.3c-0.9,0-1.7,0.1-2.2,0.3c-0.6,0.2-1,0.5-1.4,1
				c-0.3,0.5-0.6,1.1-0.8,1.9c-0.1,0.3-0.1,0.9-0.3,1.9c-0.2,1.4-0.2,2.3-0.1,3c0.1,0.8,0.6,1.3,1.2,1.6c0.5,0.2,1.4,0.4,2.7,0.4
				c1.1,0,1.9-0.1,2.5-0.3c0.6-0.2,1.1-0.7,1.5-1.2c0.3-0.5,0.5-1.1,0.6-1.9c0-0.3,0.1-0.9,0.1-1.8c0.1-0.9,0.1-1.4,0.1-1.6
				C18.8,45.2,18.7,44.7,18.5,44.2z M16.3,47.8c-0.1,1.7-0.4,2.1-0.4,2.2c-0.1,0.1-0.3,0.3-1.4,0.3s-1.4-0.1-1.6-0.1
				c-0.2-0.1-0.3-0.2-0.4-0.5c0-0.2,0-0.6,0.1-1.8c0.1-1.2,0.3-2,0.3-2.4c0.1-0.3,0.2-0.5,0.4-0.6c0.1,0,0.3-0.1,1.2-0.1
				c1.3,0,1.6,0.2,1.6,0.2c0.1,0.1,0.2,0.3,0.1,1.3L16.3,47.8z"/>
			<path class="st1" d="M26.3,47.1c-0.1,0.4-0.3,0.8-0.4,1.3l-0.1,0.2v-0.2c-0.2-0.5-0.3-1-0.4-1.3l-1.5-4.2h-3.2l-0.5,9.8h2.5
				l0.2-5.5c0,0,0-0.1,0-0.2c0,0.1,0,0.1,0.1,0.2l1.9,5.5H27l2-5.6c0-0.1,0-0.1,0.1-0.2c0,0.1,0,0.1,0,0.2l0.1,5.5h2.5l-0.4-9.8
				h-3.2L26.3,47.1z"/>
			<path class="st1" d="M35.3,42.9l-2.5,9.8h2.6l0.4-1.9h3.3l0.8,1.9h2.6l-4.3-9.8H35.3z M36.3,48.7l0.7-3.1l1.3,3.1H36.3z"/>
			<path class="st1" d="M48.5,42.9l1,5.4l0.1,0.7c-0.3-0.5-0.7-1-1-1.5l-3.1-4.6h-3.2l1.4,9.8h2.5l-0.9-5.8c0,0,0-0.2-0.1-0.6
				c0.3,0.5,0.5,0.8,0.6,1l3.6,5.4h3.5l-2.1-9.8H48.5z"/>
		</g>
	</g>
	<path class="st1" d="M51.2,35c0,0,0.5-14.9-10.1-25.8C22.6-9.8,1.7,6.6,1.7,6.6l3.8,5.8c4.2-2.7,9.2-4.3,14.6-4.3
		C35,8.1,47,20.2,47,35H51.2L51.2,35z"/>
	<path class="st2" d="M20.5,10.9c-4.9,0-9.5,1.5-13.3,4l2.4,3.5c3.1-2.1,6.9-3.3,10.9-3.3c11,0,19.8,8.9,19.8,19.8h4.3
		C44.6,21.7,33.8,10.9,20.5,10.9z"/>
	<path class="st2" d="M20.5,17.7c-6.4,0-11.9,3.4-15,8.5l16.6,5.4v0.2c0.7-0.5,1.6-0.8,2.5-0.8c2.4,0,4.4,2,4.4,4.4
		c0,1-0.3,1.8-0.8,2.6h9.4c0.2-1,0.3-1.9,0.3-2.9C37.8,25.4,30,17.7,20.5,17.7z"/>
	<path class="st2" d="M20.7,33.4L3.2,27.7L3.8,38h17.3c-0.5-0.7-0.8-1.6-0.8-2.6C20.2,34.7,20.4,34,20.7,33.4z"/>
	<circle class="st1" cx="24.6" cy="35.4" r="2.5"/>
	<g>
		<g>
			<path class="st3" d="M65.6,46.1c-1.2-1.5-1.8-3.6-1.8-6.2c0-2.6,0.6-4.7,1.8-6.3s3-2.3,5.4-2.3c1.8,0,3.5,0.6,5.1,1.9l-1.3,2
				c-1.3-0.9-2.6-1.3-3.8-1.3c-1.4,0-2.5,0.5-3.2,1.6s-1.1,2.5-1.1,4.3c0,4,1.4,6,4.3,6c1.1,0,2.1-0.3,3-0.9v-3.2h-2.3v-2.1h4.7v6.8
				c-1.8,1.4-3.7,2-5.6,2C68.5,48.4,66.7,47.6,65.6,46.1z"/>
			<path class="st3" d="M79.6,48.1V31.5h4.9c1.6,0,2.9,0.5,3.8,1.4c0.9,0.9,1.3,2.1,1.3,3.6c0,1-0.3,1.9-0.8,2.7s-1.2,1.4-2.1,1.7
				c0.3,0.3,0.7,0.7,1,1.4l2.8,5.8h-3L85.1,43c-0.3-0.6-0.5-1-0.8-1.2c-0.2-0.2-0.6-0.3-1-0.3h-1v6.7h-2.7V48.1z M82.4,39h2.1
				c1.5,0,2.3-0.8,2.3-2.5c0-1.6-0.8-2.4-2.3-2.4h-2.1V39z"/>
			<path class="st3" d="M99.5,31.5l4.9,16.6h-2.7l-3.6-13.2l-3.7,13.2h-2.9l5-16.6H99.5z"/>
			<path class="st3" d="M106.6,48.1V31.5h2.6l6.1,11v-11h2.7v16.6h-2.5l-6.2-11v11H106.6z"/>
			<path class="st3" d="M121.1,48.1V31.5h2.8v16.6H121.1z"/>
			<path class="st3" d="M130,48.1v-14h-4.1v-2.6h10.9l-0.2,2.6h-3.9v14H130z"/>
		</g>
	</g>
	<g>
		<path d="M67.4,13.9c0.5,0,0.9-0.1,1.1-0.1c0.3,0,0.6,0,1,0.1s0.7,0.2,0.9,0.4c0.4,0.2,0.7,0.6,0.9,1s0.3,0.9,0.3,1.3
			c0,0.5-0.1,1-0.3,1.4s-0.5,0.8-0.9,1.1c-0.2,0.1-0.4,0.2-0.6,0.3c0.1,0.1,0.3,0.4,0.5,0.8c0.4,0.6,0.7,1.1,1,1.5s0.6,0.8,0.9,1.2
			s0.7,0.7,1,0.9c0.4,0.2,0.7,0.4,1.1,0.4c0.1,0,0.2,0,0.3,0s0.2,0,0.3,0s0.1,0,0.1,0.1s0,0.1-0.1,0.2c-0.1,0.1-0.2,0.1-0.3,0.2
			c-0.1,0-0.3,0.1-0.4,0.1c-0.1,0-0.3,0-0.3,0c-0.5,0-0.9-0.1-1.3-0.3c-0.4-0.2-0.7-0.4-1-0.7s-0.6-0.6-0.8-1s-0.6-0.8-0.9-1.3
			s-0.6-0.9-0.8-1.1c-0.2-0.3-0.4-0.5-0.6-0.8h-0.8c-0.1,0-0.2,0-0.5,0c-0.2,0-0.4,0-0.5,0c0,1.3,0,2.4,0.1,3.4
			c0,0.3,0.1,0.6,0.2,0.8c0.1,0.2,0.3,0.3,0.6,0.4v0.1c-0.6,0-1-0.1-1.4-0.1c-0.2,0-0.5,0-0.8,0s-0.5,0-0.7,0v0.2
			c0.2-0.1,0.5-0.3,0.6-0.5c0.2-0.2,0.3-0.4,0.3-0.6c0-0.9,0-2.2,0-3.9c0-0.7,0-1.3,0-2s0-1.3-0.1-2c0-0.3-0.1-0.6-0.2-0.8
			c-0.1-0.2-0.3-0.4-0.6-0.6v-0.1c0.2,0,0.5,0,0.7,0.1c0.2,0,0.5,0,0.7,0C66.4,14,66.8,14,67.4,13.9z M66.7,16c0,0.2,0,0.4,0,0.7
			c0,0.4,0,1.2,0,2.4c0.1,0,0.4,0,0.7,0s0.4,0,0.5,0c0.9,0,1.6-0.2,1.9-0.6c0.4-0.4,0.5-1,0.5-1.9c0-0.4-0.1-0.7-0.3-1.1
			c-0.2-0.3-0.4-0.6-0.7-0.8c-0.2-0.1-0.4-0.2-0.7-0.3c-0.3,0-0.6-0.1-0.9-0.1c-0.2,0-0.4,0-0.7,0c-0.1,0-0.2,0-0.2,0
			c-0.1,0.1-0.1,0.3-0.1,0.7c0,0.1,0,0.2,0,0.3C66.7,15.6,66.7,15.8,66.7,16z"/>
		<path d="M83.4,13.7c0.7-0.1,1.4-0.1,2,0.1c0.6,0.2,1.2,0.5,1.8,0.9c0.5,0.4,1,1,1.4,1.6c0.4,0.7,0.6,1.4,0.7,2.1
			c0.1,0.7,0.1,1.4-0.1,2.1c-0.2,0.7-0.5,1.3-0.9,1.8c-0.4,0.6-1,1-1.6,1.4s-1.3,0.6-2,0.7c-0.7,0.1-1.4,0.1-2.1-0.1
			c-0.7-0.2-1.3-0.5-1.9-0.9c-0.6-0.4-1-1-1.4-1.6s-0.6-1.3-0.7-2c-0.1-0.7-0.1-1.4,0.1-2.1c0.2-0.7,0.5-1.3,0.9-1.9
			c0.4-0.6,0.9-1,1.6-1.4C81.9,14.1,82.7,13.9,83.4,13.7z M80.3,16.2c-0.3,0.4-0.5,0.9-0.6,1.4s-0.1,1.1,0,1.6
			c0.1,0.6,0.3,1.1,0.7,1.7c0.3,0.6,0.7,1.1,1.2,1.5s1,0.8,1.6,1s1.1,0.3,1.7,0.3c0.6,0,1.1-0.2,1.6-0.5s0.9-0.7,1.3-1.1
			c0.3-0.4,0.6-0.9,0.7-1.4c0.1-0.5,0.2-1.1,0.1-1.6c-0.1-0.6-0.3-1.1-0.6-1.7c-0.4-0.7-0.9-1.3-1.4-1.7c-0.5-0.5-1-0.8-1.6-1
			s-1.1-0.3-1.7-0.2c-0.6,0.1-1.1,0.2-1.6,0.5C81,15.4,80.6,15.8,80.3,16.2z"/>
		<path d="M105.6,23.1c0.1,0.3,0.2,0.6,0.4,0.8s0.4,0.4,0.7,0.5v0.1c-0.5-0.1-0.9-0.1-1.4-0.1s-1,0-1.5,0.1v-0.1
			c0-0.1,0.1-0.1,0.2-0.2c0.1-0.1,0.2-0.1,0.3-0.2c0.1-0.1,0.1-0.2,0.1-0.3c0,0,0,0,0-0.1c0,0,0,0,0-0.1l-0.9-6.5h-0.1l-3.1,7.3
			c0,0.1-0.1,0.1-0.1,0.1s-0.1-0.1-0.2-0.2c0,0-0.1-0.1-0.1-0.2c0-0.1-0.1-0.2-0.2-0.5c-0.1-0.3-0.2-0.5-0.4-0.7
			c-0.1-0.3-0.3-0.7-0.6-1.2c-0.1-0.2-0.8-1.7-2.2-4.6h-0.1l-0.8,5.9c0,0.1,0,0.1,0,0.3c0,0.3,0.1,0.5,0.2,0.6
			c0.1,0.2,0.3,0.3,0.5,0.4v0.1c-0.2,0-0.4,0-0.7-0.1c-0.3,0-0.6,0-0.8,0c-0.4,0-0.8,0-1.1,0.1l0.1-0.1c0.3-0.1,0.5-0.3,0.7-0.6
			s0.3-0.7,0.4-1.1l1-7.6c0-0.5-0.3-0.9-0.8-1.3v-0.1c0.4,0,0.8,0.1,1.3,0.1l3.8,8.3h0.2l2.9-6.8l0.6-1.5c0.2,0,0.5,0,0.8,0
			c0.2,0,0.3,0,0.4,0v0.1c-0.2,0.1-0.4,0.3-0.5,0.5c-0.1,0.3-0.2,0.5-0.2,0.8v0.1v0.1L105.6,23.1z"/>
		<path d="M119.7,23.1c0.3,0.6,0.6,1.1,1.2,1.3v0.1c-0.5-0.1-0.9-0.1-1.4-0.1s-1,0-1.5,0.1v-0.1c0-0.1,0.1-0.2,0.2-0.3
			c0.2-0.2,0.2-0.4,0.2-0.5s0-0.2,0-0.3s0-0.2-0.1-0.2l-1-2.7c-0.7-0.1-1.2-0.1-1.7-0.1c-0.6,0-1.2,0-1.8,0.1l-1.1,3
			c-0.1,0.3-0.2,0.5-0.2,0.6c0,0.2,0.1,0.3,0.2,0.5v0.1c-0.3-0.1-0.7-0.1-1-0.1c-0.4,0-0.8,0-1.1,0.1l0.1-0.1
			c0.6-0.2,1.1-0.7,1.4-1.4l3.1-7.5c0-0.1,0-0.1,0-0.2c0-0.2-0.1-0.5-0.3-0.8s-0.4-0.5-0.7-0.7v-0.1c0.2,0,0.4,0,0.7,0s0.6,0,0.8,0
			h0.3l0.6,1.5L119.7,23.1z M116.9,19.6l-1.4-3.6l0,0l-1.5,3.6v0.1c0.5,0,0.9,0,1.4,0C116,19.8,116.5,19.7,116.9,19.6L116.9,19.6z"
			/>
		<path d="M134.1,13.8c0.2,0,0.4,0.1,0.5,0.1c0.2,0,0.5,0,0.9-0.1c0.2,0,0.4,0,0.5,0v0.1c-0.2,0.1-0.4,0.3-0.5,0.6s-0.2,0.6-0.2,0.9
			c0,0.2,0,0.4,0,0.5c0,0.2,0,0.5,0,0.8c0,0.4,0,1.3,0,2.6c0,0.2,0,0.7,0,1.4s0,1.3,0,1.7c0,0.6,0,1.1,0,1.5c0,0.1,0,0.1,0,0.2
			c0,0.2,0,0.3,0,0.4c0,0.2,0,0.2-0.1,0.2s-0.2-0.1-0.4-0.4l-7.1-8.2h-0.1c0,0.4,0,0.8,0,1.4c0,0.2,0,0.5,0,0.9c0,0.3,0,0.6,0,0.8
			c0,1.2,0,2.5,0.1,3.8c0,0.3,0.1,0.5,0.2,0.7c0.1,0.2,0.3,0.4,0.6,0.5v0.2c-0.6,0-1-0.1-1.4-0.1c-0.2,0-0.3,0-0.4,0
			c-0.1,0-0.2,0-0.3,0s-0.1,0-0.2,0v-0.1c0.2-0.1,0.4-0.3,0.5-0.5s0.2-0.4,0.2-0.7c0-0.9,0-2.2,0-3.9c0-0.2,0-0.6,0-1.3
			c0-0.6,0-1,0-1.4c0-0.5,0-1,0-1.3V15c0-0.3-0.1-0.5-0.2-0.7c-0.1-0.2-0.3-0.4-0.6-0.6v-0.1c0.3,0,0.5,0,0.7,0.1c0.2,0,0.4,0,0.6,0
			l7,8.3h0.1c0-0.6,0-1.6,0-2.9c0-0.7,0-1.3,0-2s0-1.3-0.1-2c0-0.3-0.1-0.6-0.1-0.8c-0.1-0.2-0.3-0.4-0.5-0.6v-0.1
			C133.8,13.8,133.9,13.8,134.1,13.8z"/>
	</g>
	<rect x="63.5" y="27.8" class="st1" width="73.7" height="1.1"/>
</g>
</svg>
