<?xml version="1.0" encoding="utf-8"?>
<!-- Generator: Adobe Illustrator 21.0.0, SVG Export Plug-In . SVG Version: 6.00 Build 0)  -->
<svg version="1.1" id="Layer_1" xmlns="http://www.w3.org/2000/svg" xmlns:xlink="http://www.w3.org/1999/xlink" x="0px" y="0px"
	 viewBox="0 0 260 80" style="enable-background:new 0 0 260 80;" xml:space="preserve">
<style type="text/css">
	.st0{fill:#0084FF;}
</style>
<g>
	<path d="M49.6,50.8c-2,0-3.7-0.3-5-0.9c-1.3-0.6-2.3-1.3-3-2.2s-1-1.9-1.1-2.9c0-0.2,0.1-0.3,0.2-0.4c0.1-0.1,0.3-0.2,0.5-0.2H45
		c0.3,0,0.5,0,0.6,0.1s0.3,0.2,0.4,0.4c0.2,0.3,0.4,0.6,0.7,0.9c0.3,0.3,0.7,0.5,1.2,0.7s1.1,0.3,1.7,0.3c1.2,0,2-0.2,2.6-0.5
		c0.6-0.4,0.9-0.8,0.9-1.5c0-0.5-0.2-0.8-0.5-1.1s-0.8-0.5-1.5-0.8c-0.7-0.2-1.7-0.5-2.8-0.7c-1.5-0.3-2.8-0.7-3.9-1.2
		c-1.1-0.5-1.9-1.2-2.4-2c-0.6-0.8-0.8-1.9-0.8-3.1c0-1.2,0.3-2.3,1-3.3s1.7-1.7,2.9-2.3c1.2-0.5,2.7-0.8,4.4-0.8
		c1.4,0,2.6,0.2,3.6,0.5c1,0.4,1.9,0.8,2.7,1.4c0.7,0.6,1.3,1.2,1.6,1.9c0.4,0.7,0.6,1.3,0.6,2c0,0.2-0.1,0.3-0.2,0.4
		c-0.1,0.1-0.3,0.2-0.5,0.2h-4c-0.2,0-0.4,0-0.6-0.1c-0.2-0.1-0.3-0.2-0.4-0.4c-0.1-0.4-0.4-0.8-0.9-1.2c-0.5-0.3-1.2-0.5-2-0.5
		c-0.9,0-1.6,0.2-2.1,0.5s-0.7,0.8-0.7,1.4c0,0.4,0.1,0.8,0.4,1c0.3,0.3,0.7,0.6,1.3,0.8s1.5,0.4,2.6,0.7c1.8,0.3,3.3,0.8,4.4,1.3
		c1.1,0.5,1.9,1.2,2.5,2s0.8,1.8,0.8,3c0,1.4-0.4,2.5-1.2,3.5s-1.8,1.7-3.2,2.3S51.4,50.8,49.6,50.8z"/>
	<path d="M62.1,50.5c-0.2,0-0.4-0.1-0.5-0.2c-0.1-0.1-0.2-0.3-0.2-0.5V35.6c0-0.2,0.1-0.4,0.2-0.5c0.1-0.1,0.3-0.2,0.5-0.2h3.3
		c0.2,0,0.4,0.1,0.5,0.2c0.1,0.1,0.2,0.3,0.2,0.5v1c0.4-0.5,1-1,1.7-1.4s1.6-0.6,2.5-0.6c2.3-0.1,3.9,0.8,4.8,2.6
		c0.5-0.8,1.1-1.4,2-1.9s1.8-0.7,2.8-0.7s2,0.2,2.8,0.7s1.5,1.2,2,2.2s0.8,2.2,0.8,3.8v8.5c0,0.2-0.1,0.4-0.2,0.5s-0.3,0.2-0.5,0.2
		h-3.5c-0.2,0-0.4-0.1-0.6-0.2c-0.2-0.1-0.2-0.3-0.2-0.5v-8.3c0-0.7-0.1-1.3-0.3-1.7c-0.2-0.4-0.5-0.7-0.8-0.9s-0.7-0.3-1.2-0.3
		c-0.4,0-0.7,0.1-1.1,0.3s-0.6,0.5-0.8,0.9c-0.2,0.4-0.3,1-0.3,1.7v8.3c0,0.2-0.1,0.4-0.2,0.5s-0.3,0.2-0.5,0.2h-3.5
		c-0.2,0-0.4-0.1-0.5-0.2c-0.1-0.1-0.2-0.3-0.2-0.5v-8.3c0-0.7-0.1-1.3-0.3-1.7c-0.2-0.4-0.5-0.7-0.8-0.9s-0.7-0.3-1.1-0.3
		s-0.7,0.1-1.1,0.3s-0.6,0.5-0.8,0.9c-0.2,0.4-0.3,1-0.3,1.6v8.3c0,0.2-0.1,0.4-0.2,0.5c-0.2,0.1-0.3,0.2-0.5,0.2h-3.9V50.5z"/>
	<path d="M93.5,50.8c-1.1,0-2-0.2-2.9-0.6c-0.9-0.4-1.5-1-2-1.7s-0.8-1.5-0.8-2.4c0-1.4,0.6-2.5,1.7-3.4c1.2-0.8,2.7-1.4,4.6-1.7
		l3.8-0.6V40c0-0.7-0.1-1.3-0.5-1.6c-0.3-0.4-0.9-0.6-1.6-0.6c-0.6,0-1,0.1-1.4,0.3s-0.6,0.5-0.8,0.9c-0.2,0.3-0.4,0.4-0.8,0.4h-3.4
		c-0.2,0-0.4-0.1-0.5-0.2c-0.1-0.1-0.2-0.3-0.1-0.5c0-0.4,0.1-0.8,0.4-1.2c0.3-0.5,0.7-0.9,1.2-1.4c0.6-0.5,1.3-0.8,2.2-1.1
		c0.9-0.3,1.9-0.4,3.2-0.4c1.3,0,2.4,0.1,3.3,0.4c0.9,0.3,1.7,0.7,2.3,1.3s1,1.2,1.3,1.9s0.4,1.5,0.4,2.4v9.1c0,0.2-0.1,0.4-0.2,0.5
		s-0.3,0.2-0.5,0.2h-3.5c-0.2,0-0.4-0.1-0.5-0.2c-0.1-0.1-0.2-0.3-0.2-0.5v-1c-0.3,0.4-0.6,0.7-1.1,1c-0.4,0.3-1,0.6-1.5,0.8
		S94.3,50.8,93.5,50.8z M94.9,47.4c0.6,0,1.1-0.1,1.6-0.4c0.5-0.2,0.8-0.6,1.1-1.2c0.3-0.5,0.4-1.2,0.4-2v-0.4l-2.6,0.5
		c-0.9,0.2-1.6,0.4-2.1,0.7c-0.4,0.3-0.6,0.7-0.6,1.2c0,0.3,0.1,0.6,0.3,0.9c0.2,0.2,0.5,0.4,0.8,0.6C94.2,47.3,94.5,47.4,94.9,47.4
		z"/>
	<path d="M107.2,50.5c-0.2,0-0.4-0.1-0.5-0.2c-0.1-0.1-0.2-0.3-0.2-0.5V35.6c0-0.2,0.1-0.4,0.2-0.5s0.3-0.2,0.5-0.2h3.5
		c0.2,0,0.4,0.1,0.6,0.2s0.2,0.3,0.2,0.5v1.2c0.5-0.6,1.2-1.1,1.9-1.4c0.8-0.3,1.6-0.5,2.5-0.5h1.3c0.2,0,0.4,0.1,0.5,0.2
		c0.1,0.1,0.2,0.3,0.2,0.5v3.1c0,0.2-0.1,0.4-0.2,0.5s-0.3,0.2-0.5,0.2h-2.9c-0.8,0-1.5,0.2-1.9,0.7s-0.7,1.1-0.7,1.9v7.7
		c0,0.2-0.1,0.4-0.2,0.5s-0.3,0.2-0.6,0.2L107.2,50.5L107.2,50.5z"/>
	<path d="M128.1,50.5c-1.3,0-2.4-0.2-3.3-0.6c-0.9-0.4-1.6-1-2.1-1.9s-0.8-2-0.8-3.4v-5.8h-2.3c-0.2,0-0.4-0.1-0.6-0.2
		c-0.1-0.1-0.2-0.3-0.2-0.5v-2.4c0-0.2,0.1-0.4,0.2-0.5s0.3-0.2,0.6-0.2h2.3v-5c0-0.2,0.1-0.4,0.2-0.5s0.3-0.2,0.5-0.2h3.5
		c0.2,0,0.4,0.1,0.5,0.2s0.2,0.3,0.2,0.5v4.9h3.8c0.2,0,0.4,0.1,0.6,0.2c0.1,0.1,0.2,0.3,0.2,0.5V38c0,0.2-0.1,0.4-0.2,0.5
		c-0.2,0.1-0.3,0.2-0.6,0.2h-3.8V44c0,0.7,0.1,1.2,0.4,1.6c0.3,0.4,0.7,0.6,1.3,0.6h2.3c0.2,0,0.4,0.1,0.5,0.2
		c0.1,0.1,0.2,0.3,0.2,0.5v2.6c0,0.2-0.1,0.4-0.2,0.5c-0.1,0.1-0.3,0.2-0.5,0.2h-2.7V50.5z"/>
	<path d="M140.5,50.8c-1.3,0-2.4-0.1-3.3-0.4c-0.9-0.3-1.6-0.6-2.2-1.1c-0.6-0.4-1-0.9-1.3-1.3c-0.3-0.5-0.4-0.8-0.4-1.2
		c0-0.2,0-0.4,0.2-0.5s0.3-0.2,0.5-0.2h3.4c0.1,0,0.1,0,0.2,0c0,0,0.1,0.1,0.2,0.1c0.3,0.1,0.5,0.3,0.8,0.5s0.6,0.4,0.9,0.6
		c0.3,0.2,0.8,0.2,1.2,0.2c0.6,0,1-0.1,1.4-0.3s0.6-0.6,0.6-1c0-0.3-0.1-0.6-0.3-0.8s-0.5-0.4-1.1-0.6c-0.6-0.2-1.4-0.4-2.5-0.6
		c-1-0.2-2-0.6-2.7-0.9c-0.8-0.4-1.4-0.9-1.8-1.5s-0.6-1.4-0.6-2.3c0-0.8,0.3-1.6,0.8-2.3s1.3-1.3,2.3-1.8s2.2-0.7,3.7-0.7
		c1.1,0,2.1,0.1,3,0.4s1.6,0.6,2.2,1s1,0.9,1.3,1.3c0.3,0.4,0.5,0.8,0.5,1.2c0,0.2,0,0.4-0.2,0.5c-0.1,0.1-0.3,0.2-0.5,0.2h-3.1
		c-0.1,0-0.2,0-0.2,0c-0.1,0-0.1-0.1-0.2-0.1c-0.2-0.1-0.5-0.3-0.7-0.5s-0.5-0.4-0.8-0.5c-0.3-0.2-0.7-0.2-1.2-0.2s-1,0.1-1.3,0.4
		c-0.3,0.2-0.4,0.6-0.4,0.9c0,0.3,0.1,0.5,0.3,0.7s0.5,0.4,1,0.6s1.4,0.4,2.5,0.6c1.4,0.2,2.5,0.6,3.3,1.1s1.4,1.1,1.8,1.7
		c0.3,0.7,0.5,1.3,0.5,2.1c0,1-0.3,1.8-0.9,2.5c-0.6,0.7-1.4,1.3-2.5,1.7C143.5,50.6,142.2,50.8,140.5,50.8z"/>
	<path d="M158.6,50.5c-1.3,0-2.4-0.2-3.3-0.6c-0.9-0.4-1.6-1-2.1-1.9s-0.8-2-0.8-3.4v-5.8h-2.3c-0.2,0-0.4-0.1-0.6-0.2
		c-0.1-0.1-0.2-0.3-0.2-0.5v-2.4c0-0.2,0.1-0.4,0.2-0.5c0.1-0.1,0.3-0.2,0.6-0.2h2.3v-5c0-0.2,0.1-0.4,0.2-0.5
		c0.1-0.1,0.3-0.2,0.5-0.2h3.5c0.2,0,0.4,0.1,0.5,0.2s0.2,0.3,0.2,0.5v4.9h3.8c0.2,0,0.4,0.1,0.6,0.2c0.1,0.1,0.2,0.3,0.2,0.5V38
		c0,0.2-0.1,0.4-0.2,0.5c-0.2,0.1-0.3,0.2-0.6,0.2h-3.8V44c0,0.7,0.1,1.2,0.4,1.6c0.3,0.4,0.7,0.6,1.3,0.6h2.3
		c0.2,0,0.4,0.1,0.5,0.2c0.1,0.1,0.2,0.3,0.2,0.5v2.6c0,0.2-0.1,0.4-0.2,0.5c-0.1,0.1-0.3,0.2-0.5,0.2h-2.7V50.5z"/>
	<path d="M172,50.8c-1.7,0-3.1-0.3-4.2-0.8c-1.1-0.5-2-1.3-2.6-2.3s-1-2.2-1-3.6c0-0.4,0-0.9,0-1.4s0-1,0-1.3
		c0.1-1.4,0.4-2.6,1.1-3.6c0.6-1,1.5-1.8,2.7-2.3c1.1-0.5,2.5-0.8,4.2-0.8c1.6,0,3,0.3,4.2,0.8c1.1,0.5,2,1.3,2.7,2.3
		c0.6,1,1,2.2,1.1,3.6c0,0.4,0,0.8,0,1.3s0,1,0,1.4c-0.1,1.4-0.4,2.6-1,3.6s-1.5,1.8-2.6,2.3C175.2,50.5,173.7,50.8,172,50.8z
		 M172,47.1c0.9,0,1.6-0.3,2-0.8s0.6-1.4,0.7-2.4c0-0.3,0-0.7,0-1.2s0-0.9,0-1.2c-0.1-1.1-0.3-1.9-0.7-2.4s-1.1-0.8-2-0.8
		s-1.5,0.3-1.9,0.8c-0.4,0.6-0.7,1.4-0.7,2.4c0,0.3,0,0.7,0,1.2s0,0.9,0,1.2c0,1.1,0.3,1.9,0.7,2.4S171.2,47.1,172,47.1z"/>
	<path d="M183.7,50.5c-0.2,0-0.4-0.1-0.5-0.2c-0.1-0.1-0.2-0.3-0.2-0.5V35.6c0-0.2,0.1-0.4,0.2-0.5c0.1-0.1,0.3-0.2,0.5-0.2h3.5
		c0.2,0,0.4,0.1,0.6,0.2c0.1,0.1,0.2,0.3,0.2,0.5v1.2c0.5-0.6,1.2-1.1,1.9-1.4c0.8-0.3,1.6-0.5,2.5-0.5h1.3c0.2,0,0.4,0.1,0.5,0.2
		c0.1,0.1,0.2,0.3,0.2,0.5v3.1c0,0.2-0.1,0.4-0.2,0.5s-0.3,0.2-0.5,0.2h-2.9c-0.8,0-1.5,0.2-1.9,0.7c-0.5,0.5-0.7,1.1-0.7,1.9v7.7
		c0,0.2-0.1,0.4-0.2,0.5s-0.3,0.2-0.6,0.2L183.7,50.5L183.7,50.5z"/>
	<path d="M203.7,50.8c-2.4,0-4.2-0.6-5.6-1.9c-1.4-1.3-2.1-3.2-2.2-5.7c0-0.1,0-0.3,0-0.5s0-0.4,0-0.5c0.1-1.6,0.4-2.9,1.1-4.1
		c0.6-1.1,1.5-2,2.7-2.6c1.1-0.6,2.5-0.9,4-0.9c1.8,0,3.2,0.4,4.4,1c1.2,0.7,2,1.6,2.6,2.9c0.6,1.2,0.9,2.6,0.9,4.1v0.7
		c0,0.2-0.1,0.4-0.2,0.5c-0.1,0.1-0.3,0.2-0.5,0.2h-9.6v0.1v0.1c0,0.6,0.1,1.1,0.3,1.6s0.5,0.9,0.8,1.1c0.4,0.3,0.8,0.4,1.4,0.4
		c0.4,0,0.7-0.1,1-0.2c0.3-0.1,0.5-0.3,0.7-0.5s0.3-0.3,0.4-0.4c0.2-0.2,0.3-0.4,0.4-0.4c0.1,0,0.3-0.1,0.5-0.1h3.7
		c0.2,0,0.4,0.1,0.5,0.2s0.2,0.3,0.2,0.5c0,0.3-0.2,0.8-0.5,1.2c-0.3,0.5-0.8,1-1.4,1.4c-0.6,0.5-1.4,0.9-2.3,1.2
		C206,50.6,204.9,50.8,203.7,50.8z M201.1,41.1h5.1V41c0-0.7-0.1-1.2-0.3-1.7s-0.5-0.8-0.9-1.1s-0.9-0.4-1.4-0.4s-1,0.1-1.4,0.4
		c-0.4,0.3-0.7,0.6-0.9,1.1C201.2,39.8,201.1,40.4,201.1,41.1L201.1,41.1z"/>
	<path class="st0" d="M214.9,50.5c-0.2,0-0.4-0.1-0.5-0.2c-0.1-0.1-0.2-0.3-0.2-0.5V46c0-0.2,0.1-0.4,0.2-0.5
		c0.1-0.1,0.3-0.2,0.5-0.2h3.8c0.2,0,0.4,0.1,0.5,0.2c0.2,0.1,0.2,0.3,0.2,0.5v3.8c0,0.2-0.1,0.4-0.2,0.5s-0.3,0.2-0.5,0.2H214.9z"
		/>
</g>
</svg>
