<?xml version="1.0" encoding="utf-8"?>
<!-- Generator: Adobe Illustrator 21.0.0, SVG Export Plug-In . SVG Version: 6.00 Build 0)  -->
<svg version="1.1" id="Layer_1" xmlns="http://www.w3.org/2000/svg" xmlns:xlink="http://www.w3.org/1999/xlink" x="0px" y="0px"
	 viewBox="0 0 227.9 45.6" style="enable-background:new 0 0 227.9 45.6;" xml:space="preserve">
<style type="text/css">
	.st0{fill:#1B75BB;}
	.st1{fill:#F48024;}
	.st2{fill:#6B6B6B;}
</style>
<g>
	<g>
		<g>
			<path class="st0" d="M14,19.1c-1-0.5-1.9-0.9-2.6-1.2l-1.7-0.8c-0.7-0.3-1.4-0.6-1.8-0.9c-0.4-0.2-0.8-0.4-1-0.6
				C6.3,15.1,6,14.3,6,13.4c0-0.5,0.1-0.9,0.3-1.3c0.2-0.4,0.5-0.8,0.9-1.1c0.4-0.3,0.8-0.6,1.4-0.8c0.5-0.2,1.1-0.3,1.7-0.3
				c1.6,0,3.3,0.3,5.1,1l0.7,0.3l0.4-2.5l-0.4-0.2c-2-1-4.2-1.5-6.5-1.5c-2.7,0-5,0.7-6.8,2.1C1,10.6,0,12.7,0,15.3
				c0,2,0.8,3.8,2.4,5.2c1,0.9,2.7,1.8,4.9,2.7s3,1.2,3.2,1.4c1,0.7,1.5,1.5,1.5,2.7c0,1.1-0.5,1.9-1.5,2.6c-1,0.7-2.1,1.1-3.4,1.1
				c-1.4,0-2.7-0.2-3.9-0.5c-0.4-0.2-0.8-0.3-1.1-0.5c-0.4-0.1-0.7-0.3-1.1-0.5l-1-0.4v2.8l0.3,0.2c2,1.2,4.3,1.8,6.8,1.8
				c2.7,0,4.8-0.5,6.4-1.3c3-1.7,4.5-4.1,4.5-7.3C18,22.5,16.7,20.4,14,19.1z"/>
			<path class="st0" d="M55.2,8.2c-1.3-0.9-2.8-1.3-4.6-1.3c-2.8,0-5.7,1.5-8.6,4.4c-0.6-1.2-1.5-2.3-2.7-3.1
				c-1.3-0.9-2.8-1.3-4.5-1.3c-2.5,0-5.1,1.3-7.8,3.9c0-0.7,0-1.5,0-2.4V7.7h-0.7c-0.5,0-1.3,0-2.2,0c-1.6,0-3.1,0-3.1,0h-0.6v25.5
				h6.7V14.8c0.4-0.6,0.9-1.3,1.9-2.1c1.3-1,2.6-1.5,3.7-1.5c1.3,0,2.2,0.6,2.9,1.7c0.5,0.9,0.8,2.1,0.8,3.5v16.8H43v-0.6
				c0-13.8,0-17.2,0-18.1c0.4-0.6,0.9-1.2,1.9-1.9c1.3-0.9,2.5-1.4,3.6-1.4c1.3,0,2.2,0.6,2.9,1.7c0.5,0.9,0.7,2,0.7,3.5v16.8h6.6
				V17.1c0-2.3-0.3-4.3-0.7-5.6C57.5,10.2,56.5,9.1,55.2,8.2z"/>
			<path class="st0" d="M86,29.8c-0.8,0.6-1.5,0.7-2.2,0.5c-0.6-0.2-0.9-0.9-0.9-1.9V16.2c0-3.4-1.2-6-3.6-7.7
				c-1.7-1.3-3.8-1.9-6.1-1.9c-3.1,0-6.4,1.3-9.7,3.8l-0.2,0.2v3.2l1-0.8c2.3-1.8,4.5-2.8,6.4-2.8c1.3,0,2.4,0.3,3.3,0.9
				c1.4,0.9,2.1,2.3,2.2,4.3l-4.8,1.4c-2.4,0.8-4.3,1.7-5.8,2.7s-2.5,2-3.1,2.9c-0.7,1-1,2.4-1,3.9c0,2.1,0.7,3.9,2,5.2
				c1.4,1.5,3.4,2.2,5.8,2.2c1.9,0,3.7-0.5,5.4-1.6c0.9-0.6,1.6-1.2,2.2-1.8c0.3,0.7,0.7,1.3,1.3,1.8c1,1,2.2,1.4,3.6,1.4
				c2.1,0,4-0.7,5.6-2l0.4-0.3l-1.1-2L86,29.8z M74.7,28.9c-1,0.8-1.9,1.2-2.9,1.2c-1.3,0-2.3-0.5-2.9-1.5c-0.5-0.8-0.7-1.7-0.7-2.9
				c0-2.3,1-4.1,3-5.5c0.6-0.4,1.4-0.9,2.3-1.3c0.7-0.3,1.6-0.7,2.5-1v9.3C76,27.6,75.7,28.1,74.7,28.9z"/>
			<path class="st0" d="M125.3,28.8c-1,0.8-1.9,1.2-2.9,1.2c-1.8,0-4.3-0.5-4.3-5.3V10.5h7.1V7.7h-7.1V0L117,1.2
				c-1,1.1-2.2,2.3-3.6,3.7c-1.4,1.3-3,2.8-4.8,4.4l-1.2,1.1h4.3v14.5c-0.1,3.4,0.9,5.9,2.8,7.4c1.2,1,2.7,1.5,4.6,1.5
				c2.9,0,5.5-1,7.6-3l0.3-0.3l-1.1-2.2L125.3,28.8z"/>
			<path class="st0" d="M103,6.8c-2.7,0-4.9,1.1-6.4,3.2c0-0.8,0-1.5,0-1.7V7.7H90v25.5h6.7V15.6c1.2-2.8,2.7-4.1,4.8-4.1
				c1.8,0,4.3,1.6,4.3,1.6v-6L105.3,7C104.4,6.9,103.6,6.8,103,6.8z"/>
		</g>
	</g>
	<g>
		<path class="st1" d="M149.4,27.4c-1.4,1.6-3.6,2.5-6.5,2.5c-2.5,0-4.5-0.9-6.1-2.6c-1.6-1.8-2.5-4.3-2.5-7.2
			c0-3.2,0.9-5.7,2.7-7.4c1.6-1.5,3.5-2.2,5.8-2.2c2.6,0,4.7,0.7,6.3,2.2l0.5,0.5l1.5-1.9l-0.4-0.4c-2.6-2.8-6-4.2-10.3-4.2
			c-3.7,0-6.9,1.3-9.4,4c-2.6,2.6-3.9,5.8-3.9,9.6c0,3.9,1.2,7.1,3.7,9.7c2.5,2.6,5.6,3.9,9.2,3.9c4.3,0,8-1.5,11-4.5l0.4-0.4
			l-1.5-2.1L149.4,27.4z"/>
		<path class="st1" d="M224.7,10.7c-2.3-2.6-5.4-3.9-9.1-3.9c-2.7,0-5.1,0.9-7,2.8V7.7h-6.4v37.5h6.6L208.7,31
			c0.7,0.7,1.4,1.3,2.1,1.7c1.4,0.7,3.1,1.1,5,1.1c3.5,0,6.5-1.3,8.7-3.9c2.3-2.6,3.4-5.9,3.4-9.9C228,16.3,226.9,13.2,224.7,10.7z
			 M219.2,27.1c-1.3,2.4-2.9,3.5-4.9,3.5c-1.1,0-2.3-0.5-3.4-1.4c-1-0.9-1.7-1.8-2.3-2.9V14c0.5-1,1.3-1.9,2.2-2.5
			c1.1-0.8,2.2-1.2,3.1-1.2c2.1,0,3.8,1,5,2.9s1.8,4.2,1.8,6.9C220.9,22.6,220.3,25,219.2,27.1z"/>
		<path class="st1" d="M195.8,10.3c-2.5-2.4-5.8-3.6-9.7-3.6c-3.4,0-6.4,1-8.7,2.8c1.3,1.4,2.3,3.1,3,4.9c0.3-0.8,0.6-1.5,1-2.2
			c1.2-2,2.7-2.9,4.7-2.9s3.5,0.9,4.7,2.9c1.3,2,1.9,4.7,1.9,8.1c0,1.7-0.2,3.2-0.5,4.6c-0.3,1.3-0.8,2.5-1.4,3.5
			c-0.6,0.9-1.3,1.6-2.1,2.1s-1.7,0.7-2.6,0.7c-1,0-1.8-0.2-2.6-0.7s-1.5-1.2-2.1-2.1c-0.6-1-1.1-2.1-1.4-3.5
			c-0.3-1.4-0.5-2.9-0.5-4.6l0,0l0,0c0-4.1-1.3-7.4-3.9-9.9c-2.5-2.4-5.8-3.6-9.7-3.6s-7.2,1.2-9.7,3.6c-2.6,2.5-3.9,5.9-3.9,10
			s1.3,7.4,3.9,9.9c2.6,2.5,5.8,3.7,9.7,3.7c3.4,0,6.3-1,8.7-2.8c-1.3-1.4-2.3-3-3-4.8c-0.3,0.8-0.6,1.6-1,2.2
			c-0.6,0.9-1.3,1.6-2.1,2.1s-1.7,0.7-2.6,0.7c-1,0-1.8-0.2-2.6-0.7s-1.5-1.2-2.1-2.1c-0.6-1-1.1-2.1-1.4-3.5
			c-0.3-1.4-0.5-2.9-0.5-4.6c0-3.3,0.6-6.1,1.9-8.1c1.2-2,2.7-2.9,4.7-2.9s3.5,0.9,4.7,2.9c1.3,2,1.9,4.7,1.9,8.1l0,0l0,0l0,0
			c0,4.1,1.3,7.4,3.9,9.9c2.6,2.5,5.8,3.7,9.7,3.7s7.2-1.2,9.7-3.7c2.6-2.5,3.9-5.8,3.9-9.9C199.8,16.1,198.4,12.8,195.8,10.3z"/>
	</g>
</g>
<g>
	<path class="st2" d="M24.9,45.2l-0.4-1H22l-0.4,1h-1.1l2.1-5.4h1.2l2.1,5.4H24.9z M23.3,40.8l-1,2.6h2L23.3,40.8z"/>
	<path class="st2" d="M27.4,45.2v-5.4h2.4c1.1,0,1.8,0.8,1.8,1.7s-0.6,1.7-1.8,1.7h-1.4v2H27.4z M30.6,41.5c0-0.5-0.4-0.9-0.9-0.9
		h-1.3v1.7h1.3C30.2,42.4,30.6,42,30.6,41.5z"/>
	<path class="st2" d="M33.1,45.2v-5.4h1v4.6h2.4v0.8L33.1,45.2z"/>
	<path class="st2" d="M38.1,45.2v-5.4h1v5.4H38.1z"/>
	<path class="st2" d="M44.3,45.2l-1.8-2.3L42,43.5v1.7h-1v-5.4h1v2.6l2.1-2.6h1.2l-2.2,2.6l2.4,2.9L44.3,45.2L44.3,45.2z"/>
	<path class="st2" d="M50.7,45.2l-0.4-1h-2.5l-0.4,1.1h-1.1l2.1-5.4h1.2l2.1,5.4L50.7,45.2z M49,40.8l-1,2.6h2L49,40.8z"/>
	<path class="st2" d="M52.7,44.5l0.5-0.7c0.4,0.4,1,0.8,1.7,0.8c0.8,0,1.1-0.4,1.1-0.7c0-1.1-3.2-0.4-3.2-2.4c0-0.9,0.8-1.6,2-1.6
		c0.8,0,1.5,0.3,2,0.8l-0.5,0.7c-0.4-0.4-1-0.6-1.6-0.6s-0.9,0.3-0.9,0.7c0,1,3.2,0.4,3.2,2.4c0,0.9-0.6,1.7-2.1,1.7
		C53.9,45.3,53.2,45,52.7,44.5z"/>
	<path class="st2" d="M58.7,45.2v-5.4h1v5.4H58.7z"/>
	<path class="st2" d="M67.8,45.2L66,42.9l-0.5,0.6v1.7h-1v-5.4h1v2.6l2.1-2.6h1.2l-2.2,2.6l2.4,2.9L67.8,45.2L67.8,45.2z"/>
	<path class="st2" d="M69.8,42.5c0-1.6,1.2-2.8,2.8-2.8c1.6,0,2.8,1.2,2.8,2.8s-1.2,2.8-2.8,2.8C70.9,45.3,69.8,44.1,69.8,42.5z
		 M74.4,42.5c0-1.1-0.7-2-1.8-2c-1.1,0-1.8,0.8-1.8,2c0,1.1,0.7,2,1.8,2C73.7,44.5,74.4,43.6,74.4,42.5z"/>
	<path class="st2" d="M77.1,45.2v-5.4h2.4c1.1,0,1.8,0.8,1.8,1.7s-0.6,1.7-1.8,1.7H78v2H77.1z M80.3,41.5c0-0.5-0.4-0.9-0.9-0.9H78
		v1.7h1.3C79.9,42.3,80.3,42,80.3,41.5z"/>
	<path class="st2" d="M82.8,45.2v-5.4h3.7v0.8h-2.8V42h2.7v0.8h-2.7v1.5h2.8v0.8L82.8,45.2z"/>
	<path class="st2" d="M91.5,45.2l-1.2-2h-1v2h-1v-5.4h2.4c1.1,0,1.8,0.7,1.8,1.7s-0.6,1.5-1.3,1.6l1.3,2.1L91.5,45.2z M91.5,41.5
		c0-0.5-0.4-0.9-0.9-0.9h-1.3v1.7h1.3C91.2,42.4,91.5,42,91.5,41.5z"/>
	<path class="st2" d="M98.1,45.2l-0.4-1h-2.5l-0.4,1h-1.1l2.1-5.4H97l2.1,5.4H98.1z M96.5,40.7l-1,2.6h2L96.5,40.7z"/>
	<path class="st2" d="M100.2,44.5l0.5-0.7c0.4,0.4,1,0.8,1.7,0.8c0.8,0,1.1-0.4,1.1-0.7c0-1.1-3.2-0.4-3.2-2.4c0-0.9,0.8-1.6,2-1.6
		c0.8,0,1.5,0.3,2,0.8l-0.5,0.7c-0.4-0.4-1-0.6-1.6-0.6s-0.9,0.3-0.9,0.7c0,1,3.2,0.4,3.2,2.4c0,0.9-0.6,1.7-2.1,1.7
		C101.4,45.3,100.6,45,100.2,44.5z"/>
	<path class="st2" d="M106.1,45.2v-5.4h1v5.4H106.1z"/>
	<path class="st2" d="M112,45.2v-5.4h2.7c1,0,1.5,0.6,1.5,1.4c0,0.7-0.4,1.1-0.9,1.2c0.6,0.1,1.1,0.7,1.1,1.3c0,0.8-0.6,1.5-1.6,1.5
		H112z M115.2,41.3c0-0.4-0.3-0.7-0.8-0.7h-1.5V42h1.5C114.9,42,115.2,41.7,115.2,41.3z M115.3,43.6c0-0.4-0.3-0.8-0.8-0.8h-1.6v1.5
		h1.6C115,44.4,115.3,44.1,115.3,43.6z"/>
	<path class="st2" d="M118.1,45.2v-5.4h3.7v0.8H119V42h2.7v0.8H119v1.5h2.8v0.8L118.1,45.2z"/>
	<path class="st2" d="M126.7,45.2l-1.2-2h-1v2h-1v-5.4h2.4c1.1,0,1.8,0.7,1.8,1.7s-0.6,1.5-1.3,1.6l1.3,2.1L126.7,45.2z M126.8,41.5
		c0-0.5-0.4-0.9-0.9-0.9h-1.3v1.7h1.3C126.4,42.3,126.8,42,126.8,41.5z"/>
	<path class="st2" d="M129.5,45.2v-5.4h2.7c1,0,1.5,0.6,1.5,1.4c0,0.7-0.4,1.1-0.9,1.2c0.6,0.1,1.1,0.7,1.1,1.3
		c0,0.8-0.6,1.5-1.6,1.5H129.5z M132.8,41.3c0-0.4-0.3-0.7-0.8-0.7h-1.5V42h1.5C132.5,42,132.8,41.7,132.8,41.3z M132.9,43.6
		c0-0.4-0.3-0.8-0.8-0.8h-1.6v1.5h1.6C132.6,44.4,132.9,44.1,132.9,43.6z"/>
	<path class="st2" d="M139.4,45.2l-0.4-1.1h-2.5l-0.4,1.1H135l2.1-5.4h1.2l2.1,5.4H139.4z M137.8,40.7l-1,2.6h2L137.8,40.7z"/>
	<path class="st2" d="M141.5,44.4l0.5-0.7c0.4,0.4,1,0.8,1.7,0.8c0.8,0,1.1-0.4,1.1-0.7c0-1.1-3.2-0.4-3.2-2.4c0-0.9,0.8-1.6,2-1.6
		c0.8,0,1.5,0.3,2,0.8l-0.5,0.7c-0.4-0.4-1-0.6-1.6-0.6s-0.9,0.3-0.9,0.7c0,1,3.2,0.4,3.2,2.4c0,0.9-0.6,1.7-2.1,1.7
		C142.7,45.3,142,44.9,141.5,44.4z"/>
	<path class="st2" d="M147.5,45.2v-5.4h1v5.4H147.5z"/>
	<path class="st2" d="M150.1,44.4l0.5-0.7c0.4,0.4,1,0.8,1.7,0.8c0.8,0,1.1-0.4,1.1-0.7c0-1.1-3.2-0.4-3.2-2.4c0-0.9,0.8-1.6,2-1.6
		c0.8,0,1.5,0.3,2,0.8l-0.5,0.7c-0.4-0.4-1-0.6-1.6-0.6s-0.9,0.3-0.9,0.7c0,1,3.2,0.4,3.2,2.4c0,0.9-0.6,1.7-2.1,1.7
		C151.3,45.3,150.5,44.9,150.1,44.4z"/>
	<path class="st2" d="M158.7,42.5c0-1.6,1.1-2.8,2.8-2.8c1.6,0,2.8,1.2,2.8,2.8s-1.2,2.8-2.8,2.8S158.7,44.1,158.7,42.5z
		 M163.3,42.5c0-1.1-0.7-2-1.8-2s-1.8,0.8-1.8,2c0,1.1,0.7,2,1.8,2S163.3,43.6,163.3,42.5z"/>
	<path class="st2" d="M169.8,45.2l-2.8-3.9v3.9h-1v-5.4h1l2.8,3.8v-3.8h1v5.4H169.8z"/>
	<path class="st2" d="M172.6,45.2v-5.4h1v4.6h2.4v0.8L172.6,45.2z"/>
	<path class="st2" d="M177.6,45.2v-5.4h1v5.4H177.6z"/>
	<path class="st2" d="M184.3,45.2l-2.8-3.9v3.9h-1v-5.4h1l2.8,3.8v-3.8h1v5.4H184.3z"/>
	<path class="st2" d="M187.2,45.2v-5.4h3.7v0.8h-2.8V42h2.7v0.8h-2.7v1.5h2.8v0.8L187.2,45.2z"/>
</g>
</svg>
