<?xml version="1.0" encoding="utf-8"?>
<!-- Generator: Adobe Illustrator 21.0.0, SVG Export Plug-In . SVG Version: 6.00 Build 0)  -->
<svg version="1.1" id="Layer_1" xmlns="http://www.w3.org/2000/svg" xmlns:xlink="http://www.w3.org/1999/xlink" x="0px" y="0px"
	 viewBox="0 0 260 80" style="enable-background:new 0 0 260 80;" xml:space="preserve">
<style type="text/css">
	.st0{fill:#1B75BB;}
	.st1{fill:#F48024;}
	.st2{fill:#6B6B6B;}
</style>
<g>
	<g>
		<g>
			<g>
				<path class="st0" d="M30,36.3c-1-0.5-1.9-0.9-2.6-1.2l-1.7-0.8c-0.7-0.3-1.4-0.6-1.8-0.9c-0.4-0.2-0.8-0.4-1-0.6
					c-0.6-0.5-0.9-1.3-0.9-2.2c0-0.5,0.1-0.9,0.3-1.3s0.5-0.8,0.9-1.1c0.4-0.3,0.8-0.6,1.4-0.8c0.5-0.2,1.1-0.3,1.7-0.3
					c1.6,0,3.3,0.3,5.1,1l0.7,0.3l0.4-2.5l-0.4-0.2c-2-1-4.2-1.5-6.5-1.5c-2.7,0-5,0.7-6.8,2.1C17,27.8,16,29.9,16,32.5
					c0,2,0.8,3.8,2.4,5.2c1,0.9,2.7,1.8,4.9,2.7s3,1.2,3.2,1.4c1,0.7,1.5,1.5,1.5,2.7c0,1.1-0.5,1.9-1.5,2.6s-2.1,1.1-3.4,1.1
					c-1.4,0-2.7-0.2-3.9-0.5c-0.4-0.2-0.8-0.3-1.1-0.5c-0.4-0.1-0.7-0.3-1.1-0.5l-1-0.4v2.8l0.3,0.2c2,1.2,4.3,1.8,6.8,1.8
					c2.7,0,4.8-0.5,6.4-1.3c3-1.7,4.5-4.1,4.5-7.3C34,39.7,32.7,37.6,30,36.3z"/>
				<path class="st0" d="M71.2,25.4c-1.3-0.9-2.8-1.3-4.6-1.3c-2.8,0-5.7,1.5-8.6,4.4c-0.6-1.2-1.5-2.3-2.7-3.1
					c-1.3-0.9-2.8-1.3-4.5-1.3c-2.5,0-5.1,1.3-7.8,3.9c0-0.7,0-1.5,0-2.4v-0.7h-0.7c-0.5,0-1.3,0-2.2,0c-1.6,0-3.1,0-3.1,0h-0.6
					v25.5h6.7V32c0.4-0.6,0.9-1.3,1.9-2.1c1.3-1,2.6-1.5,3.7-1.5c1.3,0,2.2,0.6,2.9,1.7c0.5,0.9,0.8,2.1,0.8,3.5v16.8H59v-0.6
					c0-13.8,0-17.2,0-18.1c0.4-0.6,0.9-1.2,1.9-1.9c1.3-0.9,2.5-1.4,3.6-1.4c1.3,0,2.2,0.6,2.9,1.7c0.5,0.9,0.7,2,0.7,3.5v16.8h6.6
					V34.3c0-2.3-0.3-4.3-0.7-5.6C73.5,27.4,72.5,26.3,71.2,25.4z"/>
				<path class="st0" d="M102,47c-0.8,0.6-1.5,0.7-2.2,0.5c-0.6-0.2-0.9-0.9-0.9-1.9V33.4c0-3.4-1.2-6-3.6-7.7
					c-1.7-1.3-3.8-1.9-6.1-1.9c-3.1,0-6.4,1.3-9.7,3.8l-0.2,0.2V31l1-0.8c2.3-1.8,4.5-2.8,6.4-2.8c1.3,0,2.4,0.3,3.3,0.9
					c1.4,0.9,2.1,2.3,2.2,4.3L87.4,34c-2.4,0.8-4.3,1.7-5.8,2.7s-2.5,2-3.1,2.9c-0.7,1-1,2.4-1,3.9c0,2.1,0.7,3.9,2,5.2
					c1.4,1.5,3.4,2.2,5.8,2.2c1.9,0,3.7-0.5,5.4-1.6c0.9-0.6,1.6-1.2,2.2-1.8c0.3,0.7,0.7,1.3,1.3,1.8c1,1,2.2,1.4,3.6,1.4
					c2.1,0,4-0.7,5.6-2l0.4-0.3l-1.1-2L102,47z M90.7,46.1c-1,0.8-1.9,1.2-2.9,1.2c-1.3,0-2.3-0.5-2.9-1.5c-0.5-0.8-0.7-1.7-0.7-2.9
					c0-2.3,1-4.1,3-5.5c0.6-0.4,1.4-0.9,2.3-1.3c0.7-0.3,1.6-0.7,2.5-1v9.3C92,44.8,91.7,45.3,90.7,46.1z"/>
				<path class="st0" d="M141.3,46c-1,0.8-1.9,1.2-2.9,1.2c-1.8,0-4.3-0.5-4.3-5.3V27.7h7.1v-2.8h-7.1v-7.7l-1.1,1.2
					c-1,1.1-2.2,2.3-3.6,3.7c-1.4,1.3-3,2.8-4.8,4.4l-1.2,1.1h4.3v14.5c-0.1,3.4,0.9,5.9,2.8,7.4c1.2,1,2.7,1.5,4.6,1.5
					c2.9,0,5.5-1,7.6-3l0.3-0.3l-1.1-2.2L141.3,46z"/>
				<path class="st0" d="M119,24c-2.7,0-4.9,1.1-6.4,3.2c0-0.8,0-1.5,0-1.7v-0.6H106v25.5h6.7V32.8c1.2-2.8,2.7-4.1,4.8-4.1
					c1.8,0,4.3,1.6,4.3,1.6v-6l-0.5-0.1C120.4,24.1,119.6,24,119,24z"/>
			</g>
		</g>
		<g>
			<path class="st1" d="M165.4,44.6c-1.4,1.6-3.6,2.5-6.5,2.5c-2.5,0-4.5-0.9-6.1-2.6c-1.6-1.8-2.5-4.3-2.5-7.2
				c0-3.2,0.9-5.7,2.7-7.4c1.6-1.5,3.5-2.2,5.8-2.2c2.6,0,4.7,0.7,6.3,2.2l0.5,0.5l1.5-1.9l-0.4-0.4c-2.6-2.8-6-4.2-10.3-4.2
				c-3.7,0-6.9,1.3-9.4,4c-2.6,2.6-3.9,5.8-3.9,9.6c0,3.9,1.2,7.1,3.7,9.7c2.5,2.6,5.6,3.9,9.2,3.9c4.3,0,8-1.5,11-4.5l0.4-0.4
				l-1.5-2.1L165.4,44.6z"/>
			<path class="st1" d="M240.7,27.9c-2.3-2.6-5.4-3.9-9.1-3.9c-2.7,0-5.1,0.9-7,2.8v-1.9h-6.4v37.5h6.6l-0.1-14.2
				c0.7,0.7,1.4,1.3,2.1,1.7c1.4,0.7,3.1,1.1,5,1.1c3.5,0,6.5-1.3,8.7-3.9c2.3-2.6,3.4-5.9,3.4-9.9C244,33.5,242.9,30.4,240.7,27.9z
				 M235.2,44.3c-1.3,2.4-2.9,3.5-4.9,3.5c-1.1,0-2.3-0.5-3.4-1.4c-1-0.9-1.7-1.8-2.3-2.9V31.2c0.5-1,1.3-1.9,2.2-2.5
				c1.1-0.8,2.2-1.2,3.1-1.2c2.1,0,3.8,1,5,2.9s1.8,4.2,1.8,6.9C236.9,39.8,236.3,42.2,235.2,44.3z"/>
			<path class="st1" d="M211.8,27.5c-2.5-2.4-5.8-3.6-9.7-3.6c-3.4,0-6.4,1-8.7,2.8c1.3,1.4,2.3,3.1,3,4.9c0.3-0.8,0.6-1.5,1-2.2
				c1.2-2,2.7-2.9,4.7-2.9s3.5,0.9,4.7,2.9c1.3,2,1.9,4.7,1.9,8.1c0,1.7-0.2,3.2-0.5,4.6c-0.3,1.3-0.8,2.5-1.4,3.5
				c-0.6,0.9-1.3,1.6-2.1,2.1s-1.7,0.7-2.6,0.7c-1,0-1.8-0.2-2.6-0.7s-1.5-1.2-2.1-2.1c-0.6-1-1.1-2.1-1.4-3.5
				c-0.3-1.4-0.5-2.9-0.5-4.6l0,0l0,0c0-4.1-1.3-7.4-3.9-9.9c-2.5-2.4-5.8-3.6-9.7-3.6s-7.2,1.2-9.7,3.6c-2.6,2.5-3.9,5.9-3.9,10
				s1.3,7.4,3.9,9.9c2.6,2.5,5.8,3.7,9.7,3.7c3.4,0,6.3-1,8.7-2.8c-1.3-1.4-2.3-3-3-4.8c-0.3,0.8-0.6,1.6-1,2.2
				c-0.6,0.9-1.3,1.6-2.1,2.1s-1.7,0.7-2.6,0.7c-1,0-1.8-0.2-2.6-0.7s-1.5-1.2-2.1-2.1c-0.6-1-1.1-2.1-1.4-3.5
				c-0.3-1.4-0.5-2.9-0.5-4.6c0-3.3,0.6-6.1,1.9-8.1c1.2-2,2.7-2.9,4.7-2.9s3.5,0.9,4.7,2.9c1.3,2,1.9,4.7,1.9,8.1l0,0l0,0l0,0
				c0,4.1,1.3,7.4,3.9,9.9c2.6,2.5,5.8,3.7,9.7,3.7s7.2-1.2,9.7-3.7c2.6-2.5,3.9-5.8,3.9-9.9C215.8,33.3,214.4,30,211.8,27.5z"/>
		</g>
	</g>
	<g>
		<path class="st2" d="M40.9,62.4l-0.4-1H38l-0.4,1h-1.1l2.1-5.4h1.2l2.1,5.4H40.9z M39.3,58l-1,2.6h2L39.3,58z"/>
		<path class="st2" d="M43.4,62.4V57h2.4c1.1,0,1.8,0.8,1.8,1.7s-0.6,1.7-1.8,1.7h-1.4v2H43.4z M46.6,58.7c0-0.5-0.4-0.9-0.9-0.9
			h-1.3v1.7h1.3C46.2,59.6,46.6,59.2,46.6,58.7z"/>
		<path class="st2" d="M49.1,62.4V57h1v4.6h2.4v0.8L49.1,62.4z"/>
		<path class="st2" d="M54.1,62.4V57h1v5.4H54.1z"/>
		<path class="st2" d="M60.3,62.4l-1.8-2.3L58,60.7v1.7h-1V57h1v2.6l2.1-2.6h1.2l-2.2,2.6l2.4,2.9L60.3,62.4L60.3,62.4z"/>
		<path class="st2" d="M66.7,62.4l-0.4-1h-2.5l-0.4,1.1h-1.1l2.1-5.4h1.2l2.1,5.4L66.7,62.4z M65,58l-1,2.6h2L65,58z"/>
		<path class="st2" d="M68.7,61.7l0.5-0.7c0.4,0.4,1,0.8,1.7,0.8c0.8,0,1.1-0.4,1.1-0.7c0-1.1-3.2-0.4-3.2-2.4c0-0.9,0.8-1.6,2-1.6
			c0.8,0,1.5,0.3,2,0.8l-0.5,0.7c-0.4-0.4-1-0.6-1.6-0.6s-0.9,0.3-0.9,0.7c0,1,3.2,0.4,3.2,2.4c0,0.9-0.6,1.7-2.1,1.7
			C69.9,62.5,69.2,62.2,68.7,61.7z"/>
		<path class="st2" d="M74.7,62.4V57h1v5.4H74.7z"/>
		<path class="st2" d="M83.8,62.4L82,60.1l-0.5,0.6v1.7h-1V57h1v2.6l2.1-2.6h1.2l-2.2,2.6l2.4,2.9L83.8,62.4L83.8,62.4z"/>
		<path class="st2" d="M85.8,59.7c0-1.6,1.2-2.8,2.8-2.8c1.6,0,2.8,1.2,2.8,2.8s-1.2,2.8-2.8,2.8C86.9,62.5,85.8,61.3,85.8,59.7z
			 M90.4,59.7c0-1.1-0.7-2-1.8-2c-1.1,0-1.8,0.8-1.8,2c0,1.1,0.7,2,1.8,2C89.7,61.7,90.4,60.8,90.4,59.7z"/>
		<path class="st2" d="M93.1,62.4V57h2.4c1.1,0,1.8,0.8,1.8,1.7s-0.6,1.7-1.8,1.7H94v2H93.1z M96.3,58.7c0-0.5-0.4-0.9-0.9-0.9H94
			v1.7h1.3C95.9,59.5,96.3,59.2,96.3,58.7z"/>
		<path class="st2" d="M98.8,62.4V57h3.7v0.8h-2.8v1.4h2.7V60h-2.7v1.5h2.8v0.8L98.8,62.4z"/>
		<path class="st2" d="M107.5,62.4l-1.2-2h-1v2h-1V57h2.4c1.1,0,1.8,0.7,1.8,1.7s-0.6,1.5-1.3,1.6l1.3,2.1L107.5,62.4z M107.5,58.7
			c0-0.5-0.4-0.9-0.9-0.9h-1.3v1.7h1.3C107.2,59.6,107.5,59.2,107.5,58.7z"/>
		<path class="st2" d="M114.1,62.4l-0.4-1h-2.5l-0.4,1h-1.1l2.1-5.4h1.2l2.1,5.4H114.1z M112.5,57.9l-1,2.6h2L112.5,57.9z"/>
		<path class="st2" d="M116.2,61.7l0.5-0.7c0.4,0.4,1,0.8,1.7,0.8c0.8,0,1.1-0.4,1.1-0.7c0-1.1-3.2-0.4-3.2-2.4c0-0.9,0.8-1.6,2-1.6
			c0.8,0,1.5,0.3,2,0.8l-0.5,0.7c-0.4-0.4-1-0.6-1.6-0.6s-0.9,0.3-0.9,0.7c0,1,3.2,0.4,3.2,2.4c0,0.9-0.6,1.7-2.1,1.7
			C117.4,62.5,116.6,62.2,116.2,61.7z"/>
		<path class="st2" d="M122.1,62.4V57h1v5.4H122.1z"/>
		<path class="st2" d="M128,62.4V57h2.7c1,0,1.5,0.6,1.5,1.4c0,0.7-0.4,1.1-0.9,1.2c0.6,0.1,1.1,0.7,1.1,1.3c0,0.8-0.6,1.5-1.6,1.5
			H128z M131.2,58.5c0-0.4-0.3-0.7-0.8-0.7h-1.5v1.4h1.5C130.9,59.2,131.2,58.9,131.2,58.5z M131.3,60.8c0-0.4-0.3-0.8-0.8-0.8h-1.6
			v1.5h1.6C131,61.6,131.3,61.3,131.3,60.8z"/>
		<path class="st2" d="M134.1,62.4V57h3.7v0.8H135v1.4h2.7V60H135v1.5h2.8v0.8L134.1,62.4z"/>
		<path class="st2" d="M142.7,62.4l-1.2-2h-1v2h-1V57h2.4c1.1,0,1.8,0.7,1.8,1.7s-0.6,1.5-1.3,1.6l1.3,2.1L142.7,62.4z M142.8,58.7
			c0-0.5-0.4-0.9-0.9-0.9h-1.3v1.7h1.3C142.4,59.5,142.8,59.2,142.8,58.7z"/>
		<path class="st2" d="M145.5,62.4V57h2.7c1,0,1.5,0.6,1.5,1.4c0,0.7-0.4,1.1-0.9,1.2c0.6,0.1,1.1,0.7,1.1,1.3
			c0,0.8-0.6,1.5-1.6,1.5H145.5z M148.8,58.5c0-0.4-0.3-0.7-0.8-0.7h-1.5v1.4h1.5C148.5,59.2,148.8,58.9,148.8,58.5z M148.9,60.8
			c0-0.4-0.3-0.8-0.8-0.8h-1.6v1.5h1.6C148.6,61.6,148.9,61.3,148.9,60.8z"/>
		<path class="st2" d="M155.4,62.4l-0.4-1.1h-2.5l-0.4,1.1H151l2.1-5.4h1.2l2.1,5.4H155.4z M153.8,57.9l-1,2.6h2L153.8,57.9z"/>
		<path class="st2" d="M157.5,61.6l0.5-0.7c0.4,0.4,1,0.8,1.7,0.8c0.8,0,1.1-0.4,1.1-0.7c0-1.1-3.2-0.4-3.2-2.4c0-0.9,0.8-1.6,2-1.6
			c0.8,0,1.5,0.3,2,0.8l-0.5,0.7c-0.4-0.4-1-0.6-1.6-0.6s-0.9,0.3-0.9,0.7c0,1,3.2,0.4,3.2,2.4c0,0.9-0.6,1.7-2.1,1.7
			C158.7,62.5,158,62.1,157.5,61.6z"/>
		<path class="st2" d="M163.5,62.4V57h1v5.4H163.5z"/>
		<path class="st2" d="M166.1,61.6l0.5-0.7c0.4,0.4,1,0.8,1.7,0.8c0.8,0,1.1-0.4,1.1-0.7c0-1.1-3.2-0.4-3.2-2.4c0-0.9,0.8-1.6,2-1.6
			c0.8,0,1.5,0.3,2,0.8l-0.5,0.7c-0.4-0.4-1-0.6-1.6-0.6s-0.9,0.3-0.9,0.7c0,1,3.2,0.4,3.2,2.4c0,0.9-0.6,1.7-2.1,1.7
			C167.3,62.5,166.5,62.1,166.1,61.6z"/>
		<path class="st2" d="M174.7,59.7c0-1.6,1.1-2.8,2.8-2.8c1.6,0,2.8,1.2,2.8,2.8s-1.2,2.8-2.8,2.8S174.7,61.3,174.7,59.7z
			 M179.3,59.7c0-1.1-0.7-2-1.8-2s-1.8,0.8-1.8,2c0,1.1,0.7,2,1.8,2S179.3,60.8,179.3,59.7z"/>
		<path class="st2" d="M185.8,62.4l-2.8-3.9v3.9h-1V57h1l2.8,3.8V57h1v5.4H185.8z"/>
		<path class="st2" d="M188.6,62.4V57h1v4.6h2.4v0.8L188.6,62.4z"/>
		<path class="st2" d="M193.6,62.4V57h1v5.4H193.6z"/>
		<path class="st2" d="M200.3,62.4l-2.8-3.9v3.9h-1V57h1l2.8,3.8V57h1v5.4H200.3z"/>
		<path class="st2" d="M203.2,62.4V57h3.7v0.8h-2.8v1.4h2.7V60h-2.7v1.5h2.8v0.8L203.2,62.4z"/>
	</g>
</g>
</svg>
