<?xml version="1.0" encoding="utf-8"?>
<!-- Generator: Adobe Illustrator 21.0.0, SVG Export Plug-In . SVG Version: 6.00 Build 0)  -->
<svg version="1.1" id="Layer_1" xmlns="http://www.w3.org/2000/svg" xmlns:xlink="http://www.w3.org/1999/xlink" x="0px" y="0px"
	 viewBox="0 0 299.8 75.9" style="enable-background:new 0 0 299.8 75.9;" xml:space="preserve">
<style type="text/css">
	.st0{fill:#F58229;}
	.st1{fill:#F99D3E;}
</style>
<g>
	<path class="st0" d="M62,57.1C57.5,56.8,51.3,62,39.3,62c-8.7,0-15.6-5-17.7-7.7c-0.6-0.8,0.7-4.3,2-4.3c0.8,0,1.7,0.3,3.1,0.9
		c2.7,1.1,7.5,3.2,12.1,3.2h0.7c2.5-0.1,4.3-0.5,5.4-1.2c1.1-0.7,1.6-1.8,1.6-3.4c-0.1-1.6-0.8-2.8-2.3-3.9
		c-1.1-0.7-3.5-1.8-7.3-3.3l-1.3-0.5c-4.5-1.8-7.6-3.4-9.5-5.1c-2.7-2.3-4.1-5.3-4.3-9c0-0.8,0-1.6,0.1-2.3
		c-2.2,0.7-4.2,1.1-6.1,1.1c-4.3,0.2-7.2-1.2-9.2-2.9c-1.4-1.2-3.6-0.9-4.3,0.9c-2.3,6.1-3.1,12.9-1.9,20c2.8,16,16,28.7,32.1,30.9
		c13.7,1.8,26.1-3.6,34.1-13c0.8-1,0.8-2.4-0.1-3.4C65.8,58.2,64.3,57.3,62,57.1"/>
	<path class="st1" d="M13.9,18.8c4.5,0.3,10.7-4.9,22.7-4.9c8.7,0,15.6,5,17.7,7.7c0.6,0.8-0.7,4.3-2,4.3c-0.8,0-1.7-0.3-3.1-0.9
		c-2.7-1.1-7.5-3.2-12.1-3.2h-0.7c-2.5,0.1-4.3,0.5-5.4,1.2s-1.6,1.8-1.6,3.4c0.1,1.6,0.8,2.8,2.3,3.9c1.1,0.7,3.5,1.8,7.3,3.3
		l1.3,0.5c4.5,1.8,7.6,3.4,9.5,5.1c2.7,2.3,4.1,5.3,4.3,9c0,0.8,0,1.6-0.1,2.3c2.2-0.7,4.2-1.1,6.1-1.1c4.3-0.2,7.2,1.2,9.2,2.9
		c1.4,1.2,3.6,0.9,4.3-0.9c2.3-6.1,3.1-12.9,1.9-20c-2.8-16-16-28.7-32.1-30.9C29.5-1.5,17.1,4,9.1,13.4c-0.8,1-0.8,2.4,0.1,3.4
		C10.1,17.7,11.6,18.6,13.9,18.8"/>
	<path class="st1" d="M110.5,28.8c-0.3,0.4-0.5,0.7-0.8,0.9c-0.3,0.2-0.6,0.3-1.1,0.3s-0.9-0.1-1.4-0.3c-0.5-0.2-1-0.4-1.5-0.6
		s-1.1-0.4-1.8-0.6c-0.7-0.2-1.4-0.3-2.3-0.3c-1.2,0-2.2,0.2-2.9,0.7c-0.7,0.5-1,1.1-1,2c0,0.6,0.2,1.1,0.6,1.5s1,0.8,1.7,1.1
		s1.5,0.6,2.4,0.9c0.9,0.3,1.8,0.6,2.8,0.9c0.9,0.3,1.9,0.7,2.8,1.2s1.7,1,2.4,1.7c0.7,0.7,1.3,1.5,1.7,2.4c0.4,0.9,0.6,2.1,0.6,3.4
		c0,1.6-0.3,3.1-0.9,4.5s-1.5,2.5-2.6,3.5c-1.2,1-2.6,1.8-4.3,2.3c-1.7,0.5-3.7,0.8-5.9,0.8c-1.1,0-2.2-0.1-3.3-0.3
		c-1.1-0.2-2.2-0.5-3.2-0.9s-2-0.8-2.9-1.3s-1.6-1-2.3-1.6l2.3-3.6c0.3-0.4,0.6-0.8,1-1s0.9-0.4,1.5-0.4s1.1,0.1,1.5,0.4
		c0.5,0.3,0.9,0.5,1.5,0.8c0.5,0.3,1.1,0.6,1.8,0.8c0.7,0.3,1.6,0.4,2.7,0.4c0.8,0,1.4-0.1,1.9-0.2c0.5-0.2,0.9-0.4,1.3-0.6
		c0.3-0.3,0.5-0.6,0.7-0.9c0.1-0.3,0.2-0.7,0.2-1c0-0.7-0.2-1.2-0.7-1.6c-0.4-0.4-1-0.8-1.7-1.1s-1.5-0.6-2.4-0.8
		c-0.9-0.3-1.8-0.6-2.8-0.9c-0.9-0.3-1.9-0.7-2.8-1.2s-1.7-1.1-2.4-1.8c-0.7-0.7-1.3-1.6-1.7-2.7c-0.4-1-0.7-2.3-0.7-3.8
		c0-1.4,0.3-2.7,0.8-4c0.5-1.2,1.3-2.3,2.4-3.3c1.1-0.9,2.4-1.7,4-2.3c1.6-0.6,3.5-0.8,5.7-0.8c1.2,0,2.3,0.1,3.4,0.3
		c1.1,0.2,2.1,0.5,3.1,0.9s1.8,0.8,2.6,1.3c0.8,0.5,1.5,1.1,2.1,1.7L110.5,28.8z"/>
	<path class="st1" d="M118.7,54.3V21.6h6c1.2,0,2,0.5,2.4,1.6l0.5,1.8c0.5-0.6,1.1-1.1,1.7-1.6s1.2-0.9,1.9-1.2
		c0.7-0.3,1.4-0.6,2.2-0.8c0.8-0.2,1.7-0.3,2.6-0.3c2,0,3.6,0.5,4.9,1.5c1.3,1,2.3,2.4,2.9,4.1c0.5-1,1.2-1.9,2-2.6s1.6-1.3,2.5-1.7
		c0.9-0.4,1.9-0.8,2.9-1s2-0.3,3-0.3c1.9,0,3.5,0.3,5,0.8s2.7,1.4,3.6,2.4c1,1.1,1.7,2.4,2.2,3.9s0.8,3.3,0.8,5.2v20.7H156V33.5
		c0-3.4-1.4-5.1-4.3-5.1c-1.3,0-2.4,0.4-3.3,1.3c-0.9,0.9-1.3,2.1-1.3,3.8v20.7h-9.8V33.5c0-1.9-0.4-3.2-1.1-3.9
		c-0.7-0.8-1.8-1.1-3.2-1.1c-0.9,0-1.7,0.2-2.5,0.6s-1.5,0.9-2.2,1.6v23.6C128.3,54.3,118.7,54.3,118.7,54.3z"/>
	<path class="st1" d="M193.5,34c0-0.8-0.1-1.5-0.3-2.3c-0.2-0.7-0.5-1.4-1-2s-1-1-1.8-1.4c-0.7-0.4-1.6-0.5-2.7-0.5
		c-1.8,0-3.3,0.5-4.3,1.6c-1.1,1.1-1.7,2.6-2.1,4.6H193.5z M181.3,39.7c0.3,2.7,1.1,4.7,2.5,5.9c1.3,1.2,3.1,1.8,5.2,1.8
		c1.1,0,2.1-0.1,2.9-0.4c0.8-0.3,1.5-0.6,2.2-0.9c0.6-0.3,1.2-0.6,1.8-0.9c0.5-0.3,1.1-0.4,1.7-0.4c0.8,0,1.4,0.3,1.8,0.9l2.8,3.5
		c-1,1.2-2.1,2.1-3.3,2.8s-2.4,1.3-3.6,1.7c-1.2,0.4-2.5,0.7-3.7,0.8c-1.2,0.2-2.4,0.2-3.5,0.2c-2.3,0-4.4-0.4-6.4-1.1
		c-2-0.7-3.8-1.9-5.3-3.3c-1.5-1.5-2.7-3.3-3.6-5.5c-0.9-2.2-1.3-4.7-1.3-7.6c0-2.2,0.4-4.3,1.1-6.2c0.7-2,1.8-3.7,3.2-5.1
		c1.4-1.5,3.1-2.6,5.1-3.5s4.2-1.3,6.7-1.3c2.2,0,4.1,0.3,5.9,1c1.8,0.7,3.3,1.6,4.6,2.9s2.3,2.8,3,4.7c0.7,1.9,1.1,4,1.1,6.3
		c0,0.7,0,1.3-0.1,1.8s-0.2,0.8-0.3,1.1c-0.2,0.3-0.4,0.5-0.7,0.6s-0.6,0.2-1.1,0.2C200,39.7,181.3,39.7,181.3,39.7z"/>
	<path class="st1" d="M228.8,28.8c-0.3,0.4-0.5,0.7-0.8,0.9c-0.3,0.2-0.6,0.3-1.1,0.3s-0.9-0.1-1.4-0.3c-0.5-0.2-1-0.4-1.5-0.6
		s-1.1-0.4-1.8-0.6s-1.4-0.3-2.3-0.3c-1.2,0-2.2,0.2-2.8,0.7c-0.7,0.5-1,1.1-1,2c0,0.6,0.2,1.1,0.6,1.5c0.4,0.4,1,0.8,1.7,1.1
		s1.5,0.6,2.4,0.9c0.9,0.3,1.8,0.6,2.8,0.9c0.9,0.3,1.9,0.7,2.8,1.2c0.9,0.5,1.7,1,2.4,1.7s1.3,1.5,1.7,2.4s0.6,2.1,0.6,3.4
		c0,1.6-0.3,3.1-0.9,4.5c-0.6,1.4-1.5,2.5-2.6,3.5c-1.2,1-2.6,1.8-4.3,2.3s-3.7,0.8-5.9,0.8c-1.1,0-2.2-0.1-3.3-0.3
		s-2.2-0.5-3.2-0.9s-2-0.8-2.9-1.3s-1.6-1-2.3-1.6l2.3-3.6c0.3-0.4,0.6-0.8,1-1s0.9-0.4,1.5-0.4s1.1,0.1,1.5,0.4
		c0.5,0.3,0.9,0.5,1.5,0.8c0.5,0.3,1.1,0.6,1.8,0.8c0.7,0.3,1.6,0.4,2.7,0.4c0.8,0,1.4-0.1,1.9-0.2c0.5-0.2,0.9-0.4,1.3-0.6
		c0.3-0.3,0.5-0.6,0.7-0.9c0.1-0.3,0.2-0.7,0.2-1c0-0.7-0.2-1.2-0.7-1.6c-0.4-0.4-1-0.8-1.7-1.1s-1.5-0.6-2.4-0.8
		c-0.9-0.3-1.8-0.6-2.8-0.9c-0.9-0.3-1.9-0.7-2.8-1.2c-0.9-0.5-1.7-1.1-2.4-1.8s-1.3-1.6-1.7-2.7c-0.4-1-0.7-2.3-0.7-3.8
		c0-1.4,0.3-2.7,0.8-4c0.5-1.2,1.3-2.3,2.4-3.3c1.1-0.9,2.4-1.7,4-2.3c1.6-0.6,3.5-0.8,5.7-0.8c1.2,0,2.3,0.1,3.4,0.3
		c1.1,0.2,2.1,0.5,3.1,0.9s1.8,0.8,2.6,1.3s1.5,1.1,2.1,1.7L228.8,28.8z"/>
	<path class="st1" d="M261.1,29.4c-0.3,0.4-0.6,0.6-0.9,0.9c-0.3,0.2-0.7,0.3-1.2,0.3s-0.9-0.1-1.3-0.3c-0.4-0.2-0.8-0.5-1.3-0.8
		s-1-0.5-1.7-0.8c-0.7-0.2-1.5-0.3-2.4-0.3c-1.2,0-2.2,0.2-3.1,0.7c-0.9,0.4-1.6,1.1-2.2,1.9c-0.6,0.8-1,1.8-1.3,3
		c-0.3,1.2-0.4,2.5-0.4,4c0,3.1,0.6,5.5,1.8,7.2s2.9,2.5,5,2.5c1.1,0,2-0.1,2.7-0.4c0.7-0.3,1.2-0.6,1.7-0.9c0.5-0.3,0.9-0.7,1.3-1
		s0.9-0.4,1.5-0.4c0.8,0,1.4,0.3,1.8,0.8l2.8,3.5c-1,1.2-2.1,2.1-3.2,2.8s-2.3,1.3-3.4,1.7c-1.2,0.4-2.3,0.7-3.5,0.8
		c-1.2,0.2-2.3,0.2-3.4,0.2c-2,0-3.9-0.4-5.7-1.1s-3.4-1.9-4.8-3.3c-1.4-1.4-2.5-3.2-3.3-5.3s-1.2-4.5-1.2-7.2
		c0-2.4,0.3-4.5,1.1-6.6c0.7-2,1.7-3.8,3.1-5.3c1.4-1.5,3.1-2.7,5.1-3.5c2-0.9,4.4-1.3,7-1.3s4.8,0.4,6.7,1.2c1.9,0.8,3.7,2,5.2,3.6
		L261.1,29.4z"/>
	<path class="st1" d="M283.1,47.5c2.2,0,3.9-0.8,5-2.4c1.1-1.6,1.6-4,1.6-7.2s-0.5-5.6-1.6-7.2c-1.1-1.6-2.7-2.4-5-2.4
		s-4,0.8-5.1,2.4c-1.1,1.6-1.6,4-1.6,7.2s0.5,5.6,1.6,7.2C279.1,46.8,280.8,47.5,283.1,47.5 M283.1,21.1c2.5,0,4.7,0.4,6.8,1.2
		c2,0.8,3.8,1.9,5.2,3.3c1.5,1.4,2.6,3.2,3.4,5.3s1.2,4.4,1.2,7s-0.4,4.9-1.2,7c-0.8,2.1-1.9,3.9-3.4,5.3c-1.5,1.5-3.2,2.6-5.2,3.4
		c-2,0.8-4.3,1.2-6.8,1.2s-4.8-0.4-6.8-1.2s-3.8-1.9-5.3-3.4s-2.6-3.2-3.4-5.3s-1.2-4.4-1.2-7s0.4-4.9,1.2-7c0.8-2.1,2-3.8,3.4-5.3
		s3.2-2.6,5.3-3.3C278.4,21.5,280.6,21.1,283.1,21.1"/>
</g>
</svg>
