<?xml version="1.0" encoding="utf-8"?>
<!-- Generator: Adobe Illustrator 21.0.0, SVG Export Plug-In . SVG Version: 6.00 Build 0)  -->
<svg version="1.1" id="Layer_1" xmlns="http://www.w3.org/2000/svg" xmlns:xlink="http://www.w3.org/1999/xlink" x="0px" y="0px"
	 viewBox="0 0 290 100" style="enable-background:new 0 0 290 100;" xml:space="preserve">
<style type="text/css">
	.st0{fill:#FFFFFF;}
</style>
<g>
	<path class="st0" d="M77.6,24.3c6.5,0,12.8,0,19.2,0v0.1c-0.4,0.2-0.9,0.3-1.3,0.5c-1,0.4-2,1-2.1,2.2c0,0.6,0.1,1.2,0.3,1.7
		c0.8,1.7,1.7,3.4,2.5,5.1c0.4,0.7,0.8,1.4,1.2,2.1c1.5-1,3-2.1,4.5-3.1c7.1-4.6,14.8-8.1,22.9-10.5c4.6-1.4,9.4-2.4,14.2-3
		c5.5-0.8,11.1-1,16.7-0.8c7.2,0.3,14.2,1.4,21.1,3.4c9.3,2.7,17.9,6.7,25.3,12.9c2.2,1.8,4.1,4,6.2,6c0.1,0.1,0.2,0.3,0.4,0.5
		c-0.5,0.1-0.9,0.1-1.3-0.2c-6.5-6.3-14.4-10.3-22.9-13c-4.3-1.4-8.7-2.3-13.2-2.9c-5.5-0.8-11-1.1-16.5-0.9
		c-8.2,0.3-16.2,1.5-24,3.8c-8.8,2.6-16.9,6.2-24.1,11.8c-1.5,1.1-2.9,2.4-4.3,3.6c-0.3,0.3-0.3,0.5-0.1,0.9
		c3.9,6.8,7.6,13.7,11.6,20.5c1.4,2.4,3.4,4.5,5.9,5.9c0.1,0,0.1,0.1,0.3,0.2c-6.7,0-13.2,0-19.8,0c0,0,0,0,0-0.1
		c0.4-0.2,0.8-0.3,1.2-0.5c2-0.8,2.8-2.4,2.1-4.5c-0.4-1-0.9-2.1-1.4-3c-2.1-3.6-4.2-7.2-6.3-10.8c-0.1-0.1-0.2-0.3-0.3-0.5
		c-3.8,5.9-5.2,12.4-5.2,19.3c-4.2,0-8.3,0-12.6,0c0.8-10.9,5-20.3,12.5-28.4c-0.8-1.3-1.5-2.6-2.3-3.9c-1.8-3-3.5-6-5.3-9.1
		c-1.2-2.1-2.7-3.9-4.8-5.2C77.7,24.5,77.7,24.4,77.6,24.3z"/>
	<path class="st0" d="M148.6,62.8c-1,0-1.9,0-2.8,0c-0.2,0-0.4,0.3-0.5,0.4c-0.6,2.4-1.1,4.9-1.6,7.3c0,0.2-0.1,0.4-0.2,0.5
		c-2.4,0-4.7,0-7.1,0c0.4-1.4,0.7-2.8,1.1-4.1c0-0.2,0.4-0.3,0.6-0.3c0.7,0,0.9-0.2,1-0.9c0.5-2.6,1.1-5.1,1.7-7.7
		c0.2-1.1,0.5-2.2,0.7-3.4c-0.3,0-0.5-0.1-0.7-0.1c-2.5,0-5.1,0-7.6,0c-0.5,0-0.7,0.2-0.8,0.6c-0.4,1.7-0.8,3.3-1.1,5
		c-0.4,1.7-0.8,3.4-1.2,5.1c-0.1,0.4-0.2,0.8-0.3,1.3c0.5,0,0.9,0.1,1.3,0.1c-0.2,0.9-0.4,1.8-0.5,2.7c0,0.1-0.1,0.2-0.1,0.3
		c-0.1,0.5-0.1,1.1-0.4,1.4c-0.3,0.2-0.9,0.1-1.4,0.1c-2.3,0-4.6,0-7,0c0.1-0.6,0.2-1,0.3-1.5c0.2-0.8,0.4-1.6,0.5-2.4
		c0.1-0.5,0.4-0.7,0.9-0.6c0.6,0.1,0.8-0.2,0.9-0.8c0.3-1.6,0.7-3.3,1.1-4.9c0.5-2,1-4.1,1.5-6.2c-0.6,0-1.3,0-1.9,0
		c-0.2,0-0.4,0.3-0.4,0.5c-0.2,0.9-0.4,1.8-0.6,2.7c-1.3,0-2.6,0-3.9,0c0.1-0.7,0.2-1.3,0.4-1.9c0.3-1.6,0.7-3.2,1-4.8
		c0.2-0.9,0.2-0.9,1.2-0.9c10.2,0,20.4-0.1,30.6,0c0.8,0,1.6,0.4,2.2,0.8c0.6,0.4,0.8,1.1,0.8,1.8c0,2-0.4,4-1.3,5.8
		c-0.3,0.6-1,0.9-1.6,1.4c-0.3,0.2-0.7,0.4-1.2,0.6c0.2,0.1,0.3,0.1,0.4,0.1c1.4,0.7,1.8,1.7,1.4,3.4c-0.2,0.7-0.3,1.5-0.5,2.3
		c0.3,0,0.4,0.1,0.6,0.1c0.6,0,1.2,0,1.9,0c1.4,0,1.4,0,1.9-1.2c2-4.8,4-9.7,6-14.5c0.2-0.4,0.4-0.6,0.8-0.6c2.5,0,5.1,0.1,7.6,0
		c0.6,0,0.7,0.2,0.7,0.8c-0.1,2.9-0.2,5.7-0.3,8.6c-0.1,2-0.2,4-0.2,6c0,0.3,0,0.6,0,1c1.4,0,2.8,0,4.1,0c0.2,0,0.4-0.5,0.5-0.8
		c0.2-1.1,0.1-1.1,1.2-1.1c1.4,0,2.8,0,4.2,0c0.1,1-0.1,1.2-0.9,1.2c-1.4,0-2.7,0-4.1,0c0,0.1,0,0.1,0,0.2c1.6,0,3.1,0,4.8,0
		c-0.1,0.4-0.2,0.8-0.3,1.2c-2.3,0-4.6,0-6.9,0c0,0.1,0,0.1,0,0.2c2.3,0,4.6,0,6.9,0c-0.1,0.4-0.2,0.7-0.3,1.1c-2.3,0-4.6,0-7,0
		c0,0.1,0,0.1,0,0.2c2.3,0,4.6,0,6.8,0c0,1.2,0,1.2-1.1,1.2c-0.7,0-1.4,0-2.1,0.2c1,0,1.9,0,2.9,0c0,1,0,1-0.9,1
		c-4.5,0-8.9,0-13.4,0c-0.2,0-0.5,0-0.8,0c0.1-1.7,0.3-3.4,0.4-5.1c-1,0-1.9,0-2.8,0c-0.1,0-0.3,0.3-0.4,0.4
		c-0.6,1.4-1.1,2.8-1.6,4.2c-0.1,0.3-0.3,0.5-0.7,0.5c-4,0-8.1,0-12.1,0c-1.1,0-1.8-0.4-1.9-1.2c0-0.5,0.1-1,0.2-1.5
		C147.8,66.6,148.1,64.8,148.6,62.8z M146.3,58.8c1,0,1.9,0,2.9,0c0.2,0,0.4-0.3,0.5-0.5c0.2-0.5,0.3-1.1,0.5-1.7
		c0.2-0.6,0.3-1.3,0.5-2c-1,0-2,0-2.9,0c-0.2,0-0.4,0.2-0.4,0.3C146.9,56.3,146.6,57.5,146.3,58.8z M167.6,54.7L167.6,54.7
		c-1.1,2.5-2,5.1-3,7.7c0.9,0,1.7,0,2.5,0C167.4,59.8,167.6,57.3,167.6,54.7z"/>
	<path class="st0" d="M187.9,57.8c-3,0-6,0-9,0c0.2-1,0.4-2,0.7-3.1c-0.5,0-0.9-0.1-1.4-0.1c0.2-1,0.4-1.9,0.6-2.8
		c0-0.1,0.1-0.2,0.1-0.2c0.4-1.4,0.4-1.4,1.8-1.4c1.7,0,3.5,0,5.2,0c0.1,0.3,0.2,0.6,0.3,0.9c-2,0-3.9,0-5.9,0c0,0.1,0,0.1,0,0.2
		c1.7,0,3.4,0,5.1,0c0.9,0,1,0.1,1,1.1c-1.6,0-3.2,0-4.8,0c0,0.1,0,0.1,0,0.2c1.3,0,2.7,0,4,0c1,0,1-0.2,1.2,1.1c-2.5,0-5,0-7.4,0
		c0,0.1,0,0.1,0,0.2c2.5,0,5,0,7.5,0c0.1,0.4,0.2,0.7,0.4,1.1c-2.5,0-5,0-7.4,0c0,0.1,0,0.1,0,0.2c2.2,0,4.4,0,6.5,0
		c1,0,1,0,1.1,1.1c-1.3,0-2.7,0-4,0c0,0.1,0,0.2,0,0.2c1.1,0,2.3,0,3.4,0C187.6,56.7,187.6,56.7,187.9,57.8z"/>
	<path class="st0" d="M188.4,59.4c0.1,0.3,0.2,0.5,0.3,0.8c0-0.7,0.3-0.8,0.8-0.8c1.5,0,3.1,0,4.6,0c-0.1,0.5,0,0.9-0.7,0.9
		c-4.9,0.1-9.7,0.2-14.6,0.2c-0.1,0-0.3,0-0.5,0c0.2-0.8,0.3-1.5,0.5-2.3c0-0.1,0.3-0.3,0.5-0.3c2.8,0,5.6,0,8.3,0
		c0.8,0,0.6,0.6,0.8,1.1c-3.1,0-6.1,0-9.1,0c0,0.1,0,0.1,0,0.2C182.1,59.4,185.3,59.4,188.4,59.4z"/>
	<path class="st0" d="M209.1,67.5c0.1,0.7-0.4,0.5-0.6,0.6c-1.9,0.1-3.8,0.1-5.7,0.1c-5.5,0.1-11,0.2-16.5,0.3c-0.3,0-0.5,0-0.8,0
		c-0.1-0.3-0.2-0.7-0.3-1C193.1,67.5,201.1,67.5,209.1,67.5z"/>
	<path class="st0" d="M208.4,69.2c-0.3,0.1-0.5,0.2-0.8,0.2c-2.9,0-5.8,0.1-8.7,0.1c-4.2,0.1-8.4,0.2-12.5,0.2c-0.9,0-0.9,0-0.9-0.9
		c7.6,0,15.2,0,22.9,0C208.4,69,208.4,69.1,208.4,69.2z"/>
	<path class="st0" d="M186.1,71.1c-0.1-0.3-0.2-0.5-0.3-0.8c7.1,0,14.2,0,21.3,0c0,0.1,0,0.2,0,0.3c-0.8,0.2-1.6,0.5-2.4,0.5
		c-6.1,0-12.3,0-18.4,0C186.4,71.1,186.3,71.1,186.1,71.1z"/>
	<path class="st0" d="M183.3,61.6c0,0-0.2,0.2-0.3,0.2c-1.7,0-3.3,0-5,0c0.1-0.3,0-0.6,0.2-0.9c0.1-0.2,0.4-0.3,0.6-0.3
		c3.2,0,6.5,0,9.7,0c1.8,0,3.5,0,5.4,0c-0.1,0.4-0.2,0.6-0.2,1c-1.4,0-2.9,0-4.3,0c-1.7,0-3.5,0-5.2,0
		C183.8,61.8,183.4,61.7,183.3,61.6z"/>
	<path class="st0" d="M184.8,66.2c1.1,0,2.1,0,3.1,0c1.4,0,2.7,0,4.1,0c0.2,0,0.6-0.2,0.6,0.3c0,0,0.3,0.1,0.4,0.1
		c3.4,0,6.8,0,10.1,0c0.2,0,0.4-0.2,0.6-0.2c0.2-0.1,0.4-0.2,0.5-0.2c1.5,0,3,0,4.5,0c0.2,0,0.4,0.2,0.6,0.2
		c-0.2,0.1-0.4,0.3-0.5,0.3c-4.7,0.1-9.4,0.2-14.1,0.3c-3,0.1-6,0.2-9,0.2C184.9,67.2,184.9,67.1,184.8,66.2z"/>
	<path class="st0" d="M177.3,64.6c0.2-0.9,0.4-1.7,0.6-2.6c0.9,0,1.7,0,2.6,0c0.9,0,1.7,0,2.6,0c0,1.2,0,1.2-1,1.2
		c-0.5,0-0.9,0-1.4,0.1c0.7,0,1.4,0,2.1,0c0.1,1.1,0,1.2-1,1.2C180.3,64.6,178.8,64.6,177.3,64.6z"/>
	<path class="st0" d="M183.6,62.1c3.3,0,6.5,0,9.9,0c-0.1,0.3-0.1,0.6-0.2,0.9c-0.2,0-0.5,0.1-0.7,0.1c-2.6,0-5.2,0.1-7.8,0.1
		C183.8,63.2,183.8,63.2,183.6,62.1z"/>
	<path class="st0" d="M198.1,53.5c0-0.5,0.1-0.8,0.7-0.8c4.1,0,8.2,0,12.3,0c0.2,0,0.4,0,0.7,0c0.1,0.6-0.4,0.5-0.7,0.6
		c-1.5,0.1-3,0.1-4.5,0.1c-2.7,0-5.4,0.1-8.1,0.1C198.4,53.5,198.3,53.5,198.1,53.5z"/>
	<path class="st0" d="M211.6,54.2c0,0.6-0.4,0.5-0.7,0.5c-2.1,0-4.1,0-6.2,0c-2.1,0-4.2,0.2-6.3,0.2c-0.2,0-0.5,0-0.7,0
		c0-0.5,0-0.9,0.6-0.9c4.3,0,8.6,0.1,12.9,0.1C211.3,54.1,211.4,54.2,211.6,54.2z"/>
	<path class="st0" d="M210.3,60.1c-4.5,0.1-9,0.2-13.5,0.2c-0.1-0.6,0-0.9,0.7-0.9c4,0,8,0,12.1,0C209.8,59.5,210.1,59.4,210.3,60.1
		z"/>
	<path class="st0" d="M196.8,60.8c0.4,0,0.7,0,1,0c4,0,8,0.1,12.1,0.1c0.1,0,0.3,0,0.4,0c0.1,0,0.2,0.2,0.3,0.3
		c-0.1,0.1-0.2,0.2-0.3,0.2s-0.2,0-0.3,0c-4.1,0.1-8.1,0.1-12.2,0.2C197.3,61.6,197.1,61.3,196.8,60.8z"/>
	<path class="st0" d="M198.6,52.2c0.3-0.6,0.7-0.8,1.3-0.8c3.9,0,7.7,0,11.6,0c0.2,0,0.4,0,0.6,0c0.1,0.6-0.3,0.5-0.6,0.5
		c-2.1,0.1-4.1,0.1-6.2,0.1c-2,0-4,0.1-5.9,0.1C199.3,52.2,198.9,52.2,198.6,52.2z"/>
	<path class="st0" d="M184.1,63.5c3,0,6,0,9.1,0c0,0.3-0.1,0.6-0.1,0.9c-0.2,0-0.3,0-0.4,0c-2.5,0-5.1,0.1-7.6,0.1
		C184.1,64.5,184.1,64.4,184.1,63.5z"/>
	<path class="st0" d="M192.8,64.8c0.1,0.7-0.1,0.9-0.7,0.9c-2.2,0-4.3,0.1-6.5,0.2c-1,0-1,0-1.2-1.1
		C187.1,64.8,189.9,64.8,192.8,64.8z"/>
	<path class="st0" d="M212.4,50.5c-0.2,0.1-0.3,0.2-0.5,0.2c-3.8,0.1-7.6,0.2-11.5,0.2c0,0,0,0-0.1-0.2c0.7-0.2,1.4-0.5,2.1-0.5
		c3.2,0,6.4,0,9.5,0c0.1,0,0.2,0,0.4,0.1C212.4,50.4,212.4,50.4,212.4,50.5z"/>
	<path class="st0" d="M189.9,53.7c0.1-0.3,0.2-0.6,0.2-0.9c2.2,0,4.4,0,6.7,0c0,0.5,0,0.9-0.6,0.9c-2,0-4,0.1-6.1,0.1
		C190.3,53.8,190.1,53.7,189.9,53.7z"/>
	<path class="st0" d="M196.9,59c-0.1-0.7,0.1-0.9,0.7-0.9c1.4,0,2.7-0.2,4.1,0.1c2,0.4,4,0.1,6,0.3c0.3,0,0.6,0.1,0.8,0.3
		C204.6,58.8,200.8,58.9,196.9,59z"/>
	<path class="st0" d="M189.9,54.1c2.3,0,4.5,0,6.6,0c0,0.1,0.1,0.1,0.1,0.2c-0.2,0.1-0.3,0.4-0.5,0.4c-2,0.5-4,0.4-6.1,0.4
		c-0.1,0-0.2,0-0.4,0C189.8,54.7,189.9,54.4,189.9,54.1z"/>
	<path class="st0" d="M198.3,62.2c4,0,8,0,12,0c0,0.1,0.1,0.2,0.1,0.2c-0.2,0.1-0.4,0.3-0.6,0.3c-1.7,0-3.4,0.1-5,0.1
		c-1.8,0-3.6-0.2-5.4-0.3C199,62.5,198.7,62.4,198.3,62.2C198.3,62.3,198.3,62.3,198.3,62.2z"/>
	<path class="st0" d="M197.1,51.4c0.1,0.7-0.1,0.9-0.7,0.9c-1.9,0-3.7,0.1-5.6,0.1c-0.2,0-0.3,0-0.6,0c0.1-0.4,0.1-0.7,0.2-1
		C192.8,51.4,194.9,51.4,197.1,51.4z"/>
	<path class="st0" d="M194.8,55.4c0.1,0.9,0,0.9-0.7,1c-1.5,0-3.1,0-4.6,0c0-0.9,0.1-1,1-1c1.2,0,2.5,0,3.7,0
		C194.3,55.4,194.6,55.4,194.8,55.4z"/>
	<path class="st0" d="M194.3,58.1c0,0.7-0.1,0.9-0.8,0.9c-1.3,0-2.6,0.1-3.9,0.1c-0.2,0-0.4,0-0.6,0c-0.1-0.9,0-1,0.8-1
		C191.4,58.1,192.9,58.1,194.3,58.1z"/>
	<path class="st0" d="M194.6,56.7c0.1,0.7-0.1,1-0.7,1c-1.5,0-3,0-4.6,0c-0.1-0.8,0-0.9,0.8-0.9C191.6,56.7,193.1,56.7,194.6,56.7z"
		/>
	<path class="st0" d="M197.4,50.3c0,0.2,0,0.4,0,0.7c-2.3,0-4.5,0-6.8,0c-0.1-0.5,0.2-0.8,0.7-0.7c1.8,0,3.7,0,5.5,0
		C197.1,50.2,197.3,50.3,197.4,50.3z"/>
	<path class="st0" d="M202.8,57c-0.2,0.2-0.4,0.5-0.6,0.5c-1.7,0-3.4,0-5.1,0c-0.1-0.7,0-0.8,0.8-0.8c1.6,0,3.2,0,4.8,0
		C202.8,56.8,202.8,56.9,202.8,57z"/>
	<path class="st0" d="M203.3,55.6c-0.1,0.2-0.3,0.5-0.4,0.5c-1.8,0-3.5,0-5.4,0c-0.1-0.5,0.1-0.8,0.7-0.7c1.6,0,3.3,0,4.9,0
		C203.1,55.5,203.1,55.5,203.3,55.6z"/>
	<path class="st0" d="M211.3,55.7c-0.2,0.1-0.3,0.3-0.5,0.3c-1.5,0-3.1,0-4.9,0c0.3-0.3,0.4-0.6,0.6-0.6c1.6,0,3.1,0,4.7,0
		C211.3,55.6,211.3,55.6,211.3,55.7z"/>
	<path class="st0" d="M209.8,65.1c-0.1,0.1-0.3,0.3-0.4,0.3c-1.8,0-3.5,0-5.5,0c0.2-0.2,0.4-0.5,0.5-0.5c1.8,0,3.5,0,5.3,0
		C209.6,64.9,209.8,65,209.8,65.1z"/>
	<path class="st0" d="M210.1,63.8c-0.2,0.1-0.3,0.3-0.5,0.3c-1.7,0-3.5,0-5.4,0c0.2-0.3,0.4-0.5,0.5-0.5c1.8,0,3.5,0,5.3,0
		C209.9,63.6,210.1,63.7,210.1,63.8z"/>
	<g>
		<path class="st0" d="M155.9,77.9l-0.3-0.7c-0.2-0.4-0.3-0.7-0.5-1.1c-0.1-0.2-0.2-0.3-0.2-0.4h1.4v0.1c0,0.2,0.1,0.5,0.2,0.8
			c0.1,0.2,0.1,0.4,0.2,0.6c0.2-0.2,0.4-0.4,0.6-0.6l0.1-0.1c0.1-0.1,0.3-0.3,0.5-0.6l0.2-0.2l0.1-0.1h0.8l-0.5,0.5l-0.5,0.5
			l-0.3,0.3l-0.3,0.3l-0.4,0.5l0,0c0,0,0,0.1,0.1,0.1l0.1,0.3l0.2,0.5c0.1,0.3,0.3,0.7,0.5,1.1c0.1,0.2,0.2,0.3,0.2,0.4h-1.4V80
			c-0.1-0.3-0.2-0.5-0.3-0.9c-0.1-0.2-0.2-0.5-0.3-0.7l-0.8,0.8c-0.2,0.2-0.4,0.4-0.6,0.7l-0.1,0.1l-0.1,0.1h-0.8l0.1-0.1
			c0.1-0.1,0.3-0.2,0.4-0.4l0.2-0.1c0.2-0.1,0.3-0.3,0.5-0.5l0.4-0.3L155.9,77.9z"/>
		<path class="st0" d="M162.9,77.8c0,0.2,0,0.4-0.1,0.6c-0.1,0.2-0.1,0.5-0.3,0.7c-0.1,0.2-0.3,0.4-0.4,0.5
			c-0.2,0.2-0.4,0.3-0.6,0.4s-0.4,0.1-0.7,0.1h-0.1c-0.1,0-0.2,0-0.3-0.1c-0.1,0-0.2-0.1-0.3-0.1c-0.1-0.1-0.1-0.1-0.2-0.2
			c0,0.1-0.1,0.3-0.1,0.6c-0.1,0.3-0.1,0.6-0.1,0.8v0.3v0.1h-1c0.1-0.4,0.2-0.7,0.3-1.1c0-0.2,0.1-0.4,0.2-0.6l0.4-1.7
			c0-0.2,0.1-0.4,0.1-0.6c0-0.1,0-0.2,0.1-0.4V77v-0.2v-0.1h1c-0.1,0.1-0.1,0.3-0.2,0.6c0,0.1-0.1,0.3-0.1,0.4
			c0.1-0.1,0.1-0.2,0.2-0.4c0.1-0.1,0.2-0.2,0.3-0.3c0.1-0.1,0.3-0.2,0.4-0.3c0.2-0.1,0.3-0.1,0.5-0.1s0.4,0,0.5,0.1
			c0.1,0.1,0.2,0.2,0.3,0.4C162.9,77.4,162.9,77.6,162.9,77.8z M161.9,77.9c0-0.1,0-0.2,0-0.2c-0.1-0.2-0.2-0.3-0.4-0.3
			c-0.1,0-0.1,0-0.2,0.1c-0.1,0-0.2,0.1-0.3,0.2c-0.2,0.2-0.3,0.4-0.5,0.6c-0.2,0.3-0.3,0.5-0.3,0.8l-0.1,0.3l0.1,0.1
			c0.1,0.1,0.2,0.2,0.3,0.2c0.1,0,0.2,0,0.2,0c0.1,0,0.2,0,0.4-0.1s0.4-0.3,0.6-0.6c0.1-0.1,0.1-0.3,0.2-0.5
			C161.9,78.2,161.9,78,161.9,77.9z"/>
		<path class="st0" d="M164.1,78.1c0.1-0.2,0.1-0.5,0.2-0.9c0,0,0,0,0-0.1V77c0-0.1,0-0.2,0-0.3h1c0,0.1-0.1,0.3-0.1,0.4
			s0,0.1,0,0.1l-0.1,0.4c0.1-0.3,0.3-0.5,0.4-0.6c0.2-0.2,0.5-0.3,0.7-0.3c0.1,0,0.2,0,0.3,0.1c0,0,0.1,0,0.1,0.1l-0.5,0.7
			c-0.1,0-0.1-0.1-0.2-0.1h-0.1c-0.2,0-0.3,0.1-0.5,0.2c-0.1,0.1-0.3,0.2-0.4,0.4c0.1,0.1,0.1,0.2,0.1,0.4l-0.1,0.4
			c-0.1,0.3-0.1,0.5-0.2,0.9c0,0.1,0,0.2-0.1,0.3h-1c0.1-0.2,0.1-0.4,0.2-0.7c0-0.1,0.1-0.3,0.1-0.5L164.1,78.1z"/>
		<path class="st0" d="M167.8,78.6c0,0.1,0,0.2,0,0.3c0,0.2,0,0.4,0.1,0.5c0.1,0.1,0.1,0.1,0.2,0.2c0.1,0,0.2,0.1,0.3,0.1
			c0.2,0,0.4-0.1,0.6-0.2c0.1,0,0.2-0.1,0.2-0.1c0.1,0,0.1-0.1,0.2-0.1l0.1,0.4c-0.1,0.1-0.3,0.2-0.5,0.3c-0.2,0.1-0.5,0.1-0.7,0.1
			c-0.3,0-0.5,0-0.7-0.1s-0.4-0.2-0.5-0.3c-0.2-0.2-0.3-0.5-0.3-0.8c0-0.2,0-0.3,0.1-0.5c0.1-0.3,0.2-0.6,0.3-0.8
			c0.2-0.2,0.3-0.4,0.6-0.6c0.2-0.1,0.4-0.2,0.7-0.3c0.2-0.1,0.5-0.1,0.7-0.1s0.4,0,0.6,0.1s0.4,0.2,0.5,0.3
			c0.1,0.1,0.1,0.3,0.1,0.4s0,0.2,0,0.2c0,0.1-0.1,0.3-0.2,0.4c-0.1,0.1-0.2,0.2-0.4,0.3c-0.3,0.2-0.8,0.2-1.3,0.2L167.8,78.6z
			 M169.4,77.5c0-0.1,0-0.2-0.1-0.2c-0.1-0.1-0.2-0.1-0.4-0.1c-0.1,0-0.2,0-0.3,0.1c-0.1,0-0.2,0.1-0.3,0.2
			c-0.2,0.2-0.4,0.5-0.5,0.8h0.5c0.3,0,0.5,0,0.7-0.1s0.4-0.2,0.4-0.4S169.4,77.6,169.4,77.5z"/>
		<path class="st0" d="M170.9,79.3c0.2,0.1,0.4,0.2,0.6,0.3c0.1,0,0.2,0.1,0.4,0.1s0.3,0,0.4-0.1c0.1-0.1,0.2-0.2,0.2-0.3
			c0,0,0,0,0-0.1s-0.1-0.2-0.2-0.3c-0.1,0-0.1-0.1-0.2-0.1c-0.2-0.1-0.4-0.2-0.5-0.3c-0.2-0.1-0.3-0.3-0.3-0.5v-0.1
			c0-0.1,0-0.1,0-0.2c0.1-0.4,0.3-0.7,0.6-0.9c0.3-0.1,0.6-0.2,1-0.2c0.2,0,0.4,0,0.6,0.1c0.1,0,0.2,0.1,0.2,0.1l-0.3,0.5
			c-0.1-0.1-0.2-0.2-0.3-0.3c-0.1,0-0.2,0-0.3,0s-0.3,0-0.4,0.1c-0.1,0.1-0.2,0.1-0.2,0.3c0,0,0,0,0,0.1s0.1,0.2,0.2,0.3
			c0.1,0,0.1,0.1,0.2,0.1c0.2,0.1,0.4,0.2,0.5,0.3c0.2,0.1,0.3,0.3,0.3,0.5v0.1c0,0.1,0,0.1,0,0.2c-0.1,0.4-0.3,0.7-0.6,0.9
			c-0.3,0.2-0.6,0.2-1.1,0.2c-0.3,0-0.5-0.1-0.8-0.2c-0.1-0.1-0.2-0.1-0.3-0.2L170.9,79.3z"/>
		<path class="st0" d="M174.4,79.3c0.2,0.1,0.4,0.2,0.6,0.3c0.1,0,0.2,0.1,0.4,0.1c0.2,0,0.3,0,0.4-0.1c0.1-0.1,0.2-0.2,0.2-0.3
			c0,0,0,0,0-0.1s-0.1-0.2-0.2-0.3c-0.1,0-0.1-0.1-0.2-0.1c-0.2-0.1-0.4-0.2-0.5-0.3c-0.2-0.1-0.3-0.3-0.3-0.5v-0.1
			c0-0.1,0-0.1,0-0.2c0.1-0.4,0.3-0.7,0.6-0.9c0.3-0.1,0.6-0.2,1-0.2c0.2,0,0.4,0,0.6,0.1c0.1,0,0.2,0.1,0.2,0.1l-0.3,0.5
			c-0.1-0.1-0.2-0.2-0.3-0.3c-0.1,0-0.2,0-0.3,0c-0.1,0-0.3,0-0.4,0.1c-0.1,0.1-0.2,0.1-0.2,0.3c0,0,0,0,0,0.1s0.1,0.2,0.2,0.3
			c0.1,0,0.1,0.1,0.2,0.1c0.2,0.1,0.4,0.2,0.5,0.3c0.2,0.1,0.3,0.3,0.3,0.5v0.1c0,0.1,0,0.1,0,0.2c-0.1,0.4-0.3,0.7-0.6,0.9
			c-0.3,0.2-0.6,0.2-1.1,0.2c-0.3,0-0.5-0.1-0.8-0.2c-0.1-0.1-0.2-0.1-0.3-0.2L174.4,79.3z"/>
		<path class="st0" d="M183.6,79.9c-0.1,0.1-0.3,0.1-0.4,0.2c-0.1,0-0.3,0.1-0.5,0.1s-0.4,0.1-0.6,0.1l0,0c-0.3,0-0.6-0.1-0.9-0.2
			s-0.5-0.3-0.6-0.5c-0.2-0.3-0.3-0.6-0.3-1.1c0-0.2,0-0.4,0.1-0.6c0.1-0.5,0.3-1,0.6-1.4c0.3-0.3,0.6-0.6,1-0.8
			c0.4-0.2,0.8-0.2,1.2-0.2l0,0c0.3,0,0.7,0.1,1,0.2c0.1,0,0.2,0.1,0.3,0.2l-0.4,0.5c0,0,0,0-0.1-0.1c-0.1,0-0.1-0.1-0.2-0.1
			c-0.1,0-0.2-0.1-0.3-0.1S183.1,76,183,76c-0.2,0-0.3,0-0.5,0.1s-0.3,0.2-0.5,0.3c-0.2,0.2-0.3,0.4-0.4,0.6
			c-0.1,0.2-0.2,0.5-0.3,0.8s-0.1,0.5-0.1,0.7s0,0.4,0.1,0.6c0.1,0.2,0.2,0.3,0.3,0.4c0.1,0.1,0.3,0.1,0.5,0.1
			c0.3,0,0.6-0.1,0.9-0.2c0.1,0,0.2-0.1,0.3-0.1l0.1-0.1L183.6,79.9z"/>
		<path class="st0" d="M184.9,77.7c0.2-0.2,0.3-0.4,0.5-0.6c0.2-0.1,0.4-0.2,0.6-0.3c0.2-0.1,0.5-0.1,0.7-0.1c0.3,0,0.5,0,0.7,0.1
			s0.4,0.2,0.5,0.3c0.2,0.2,0.3,0.5,0.3,0.8c0,0.1,0,0.3-0.1,0.5c-0.1,0.6-0.4,1.1-0.9,1.4c-0.2,0.1-0.4,0.2-0.7,0.3
			c-0.2,0.1-0.5,0.1-0.7,0.1c-0.3,0-0.5,0-0.7-0.1s-0.4-0.2-0.5-0.3c-0.2-0.2-0.3-0.5-0.3-0.8c0-0.1,0-0.3,0.1-0.5
			C184.8,78.2,184.9,77.9,184.9,77.7z M185.6,79c0,0.2,0,0.3,0.1,0.5c0.1,0.1,0.1,0.2,0.2,0.2c0.1,0,0.2,0.1,0.3,0.1s0.2,0,0.4-0.1
			c0.1-0.1,0.2-0.1,0.3-0.3c0.2-0.3,0.4-0.6,0.5-1.1c0-0.1,0-0.3,0-0.4c0-0.2,0-0.3-0.1-0.5c-0.1-0.1-0.1-0.2-0.2-0.2
			c-0.1-0.1-0.2-0.1-0.3-0.1c-0.1,0-0.2,0-0.4,0.1c-0.1,0.1-0.2,0.1-0.3,0.3c-0.2,0.3-0.4,0.6-0.5,1.1
			C185.6,78.7,185.6,78.9,185.6,79z"/>
		<path class="st0" d="M192.4,79.3c0,0.1,0,0.2,0,0.3c0,0,0,0,0,0.1s0.1,0.1,0.1,0.1c0.1,0,0.2,0,0.2-0.1l-0.1,0.4h-0.1
			c-0.1,0-0.1,0.1-0.2,0.1c0,0-0.1,0-0.2,0c-0.1,0-0.2,0-0.3-0.1c-0.1,0-0.2-0.1-0.2-0.2c-0.1-0.1-0.1-0.2-0.1-0.3
			c0-0.1,0-0.1,0-0.2l0.1-0.3c-0.2,0.3-0.4,0.6-0.7,0.8c-0.3,0.2-0.5,0.3-0.9,0.3c-0.2,0-0.3,0-0.5-0.1c-0.1-0.1-0.2-0.2-0.3-0.3
			c-0.1-0.1-0.1-0.3-0.1-0.5c0-0.1,0-0.3,0.1-0.5l0.2-0.8c0.1-0.4,0.2-0.8,0.2-1v-0.1c0-0.1,0-0.2,0-0.2h1c-0.1,0.2-0.1,0.4-0.2,0.7
			c-0.1,0.2-0.1,0.4-0.1,0.5l-0.2,0.7c0,0.2-0.1,0.3-0.1,0.4c0,0.3,0.1,0.5,0.4,0.5c0.2,0,0.3-0.1,0.5-0.3c0.2-0.2,0.3-0.4,0.4-0.6
			c0.1-0.2,0.2-0.4,0.3-0.6v-0.1c0.1-0.3,0.1-0.6,0.2-0.9c0-0.1,0-0.2,0-0.3h1c-0.1,0.2-0.2,0.5-0.2,0.7c0,0.1-0.1,0.3-0.1,0.5
			L192.4,79.3z"/>
		<path class="st0" d="M194.3,78.1c0.1-0.2,0.1-0.5,0.2-0.9c0,0,0,0,0-0.1V77c0-0.1,0-0.2,0-0.3h1c0,0.1-0.1,0.3-0.1,0.4
			s0,0.1,0,0.1l-0.1,0.4c0.1-0.3,0.3-0.5,0.4-0.6c0.2-0.2,0.5-0.3,0.7-0.3c0.1,0,0.2,0,0.3,0.1c0,0,0.1,0,0.1,0.1l-0.5,0.7
			c-0.1,0-0.1-0.1-0.2-0.1h-0.1c-0.2,0-0.3,0.1-0.5,0.2c-0.1,0.1-0.3,0.2-0.4,0.4c-0.1,0.2-0.2,0.3-0.2,0.4l-0.1,0.4
			c-0.1,0.3-0.1,0.5-0.2,0.9c0,0.1,0,0.2-0.1,0.3h-1c0.1-0.2,0.1-0.4,0.2-0.7c0-0.1,0.1-0.3,0.1-0.5L194.3,78.1z"/>
		<path class="st0" d="M197.6,78.2L197.6,78.2c0-0.1,0-0.2,0.1-0.2l0.1-0.3c0.1-0.3,0.1-0.6,0.1-0.7v-0.2h1v0.1
			c-0.1,0.3-0.2,0.5-0.2,0.8c0,0.2-0.1,0.4-0.1,0.5l-0.2,1.1c0,0.1,0,0.2,0,0.3c0,0,0,0,0,0.1s0.1,0.1,0.1,0.1s0.2,0,0.2-0.1
			l-0.1,0.4c-0.2,0.1-0.4,0.1-0.6,0.1c-0.1,0-0.2,0-0.3-0.1c-0.1,0-0.2-0.1-0.2-0.2c-0.1-0.1-0.1-0.2-0.1-0.3c0-0.1,0-0.1,0-0.2
			L197.6,78.2z M198.1,75.5c0.1-0.1,0.3-0.1,0.5-0.1s0.3,0,0.4,0.1c0,0.1,0.1,0.1,0.1,0.2v0.1c0,0.1-0.1,0.2-0.2,0.3
			c-0.1,0.1-0.3,0.1-0.5,0.1s-0.3,0-0.4-0.1c-0.1-0.1-0.1-0.1-0.1-0.2v-0.1C197.9,75.7,198.1,75.6,198.1,75.5z"/>
		<path class="st0" d="M200.4,78.6c0,0.1,0,0.2,0,0.3c0,0.2,0,0.4,0.1,0.5s0.1,0.1,0.2,0.2c0.1,0,0.2,0.1,0.3,0.1
			c0.2,0,0.4-0.1,0.6-0.2c0.1,0,0.2-0.1,0.2-0.1c0.1,0,0.1-0.1,0.2-0.1l0.1,0.4c-0.1,0.1-0.3,0.2-0.5,0.3c-0.2,0.1-0.5,0.1-0.7,0.1
			c-0.3,0-0.5,0-0.7-0.1s-0.4-0.2-0.5-0.3c-0.2-0.2-0.3-0.5-0.3-0.8c0-0.2,0-0.3,0.1-0.5c0.1-0.3,0.2-0.6,0.3-0.8
			c0.2-0.2,0.3-0.4,0.6-0.6c0.2-0.1,0.4-0.2,0.7-0.3s0.5-0.1,0.7-0.1s0.4,0,0.6,0.1c0.2,0.1,0.4,0.2,0.5,0.3
			c0.1,0.1,0.1,0.3,0.1,0.4s0,0.2,0,0.2c0,0.1-0.1,0.3-0.2,0.4c-0.1,0.1-0.2,0.2-0.4,0.3c-0.3,0.2-0.8,0.2-1.3,0.2L200.4,78.6z
			 M202.1,77.5c0-0.1,0-0.2-0.1-0.2c-0.1-0.1-0.2-0.1-0.4-0.1c-0.1,0-0.2,0-0.3,0.1c-0.1,0-0.2,0.1-0.3,0.2
			c-0.2,0.2-0.4,0.5-0.5,0.8h0.5c0.3,0,0.5,0,0.7-0.1s0.4-0.2,0.4-0.4C202.1,77.6,202.1,77.6,202.1,77.5z"/>
		<path class="st0" d="M204.1,78.1c0.1-0.2,0.1-0.5,0.2-0.9c0,0,0,0,0-0.1V77c0-0.1,0-0.2,0-0.3h1c0,0.1-0.1,0.3-0.1,0.4
			s0,0.1,0,0.1l-0.1,0.4c0.1-0.3,0.3-0.5,0.4-0.6c0.2-0.2,0.5-0.3,0.7-0.3c0.1,0,0.2,0,0.3,0.1c0,0,0.1,0,0.1,0.1l-0.5,0.7
			c-0.1,0-0.1-0.1-0.2-0.1h-0.1c-0.2,0-0.3,0.1-0.5,0.2c-0.1,0.1-0.3,0.2-0.4,0.4c-0.1,0.2-0.2,0.3-0.2,0.4l-0.1,0.4
			c-0.1,0.3-0.1,0.5-0.2,0.9c0,0.1,0,0.2-0.1,0.3h-1c0.1-0.2,0.1-0.4,0.2-0.7c0-0.1,0.1-0.3,0.1-0.5L204.1,78.1z"/>
	</g>
</g>
</svg>
