<?xml version="1.0" encoding="UTF-8"?>
<!DOCTYPE svg PUBLIC "-//W3C//DTD SVG 1.1//EN" "http://www.w3.org/Graphics/SVG/1.1/DTD/svg11.dtd">
<!-- Creator: CorelDRAW 2021 (64-Bit) -->
<svg xmlns="http://www.w3.org/2000/svg" xml:space="preserve" width="512px" height="512px" version="1.1" style="shape-rendering:geometricPrecision; text-rendering:geometricPrecision; image-rendering:optimizeQuality; fill-rule:evenodd; clip-rule:evenodd"
viewBox="0 0 512 512"
 xmlns:xlink="http://www.w3.org/1999/xlink"
 xmlns:xodm="http://www.corel.com/coreldraw/odm/2003">
 <defs>
  <style type="text/css">
   <![CDATA[
    .fil0 {fill:#EA2D3F;fill-rule:nonzero}
   ]]>
  </style>
 </defs>
 <g id="Layer_x0020_1">
  <metadata id="CorelCorpID_0Corel-Layer"/>
  <path class="fil0" d="M253.85 171.28l62.95 0c5.52,0 10,4.47 10,10l0 100.89c0,20.07 -8.21,38.31 -21.42,51.53 -13.22,13.21 -31.46,21.42 -51.53,21.42 -20.08,0 -38.32,-8.21 -51.53,-21.42 -13.22,-13.22 -21.43,-31.46 -21.43,-51.53l0 -37.94c0,-20.07 8.21,-38.31 21.43,-51.53 13.21,-13.22 31.45,-21.42 51.53,-21.42zm51.99 20l-51.99 0c-14.56,0 -27.79,5.96 -37.39,15.56 -7.35,7.35 -12.57,16.82 -14.61,27.39l52 0c14.55,0 27.78,-5.96 37.39,-15.56 7.34,-7.35 12.56,-16.83 14.6,-27.39zm0.96 90.89l0 -50.82 -1.42 1.46c-13.22,13.21 -31.46,21.42 -51.53,21.42l-52.96 0 0 27.94c0,14.55 5.96,27.78 15.57,37.39 9.6,9.6 22.83,15.56 37.39,15.56 14.55,0 27.78,-5.96 37.39,-15.56 9.6,-9.61 15.56,-22.84 15.56,-37.39zm-52.95 196.13c5.52,0 10,4.48 10,10 0,5.53 -4.48,10 -10,10 -5.53,0 -10,-4.47 -10,-10 0,-5.52 4.47,-10 10,-10zm132.81 0c-2.43,-32.79 -16.74,-62.28 -38.64,-84.18 -24.09,-24.09 -57.39,-39 -94.17,-39 -36.78,0 -70.08,14.91 -94.18,39 -21.9,21.9 -36.2,51.39 -38.64,84.18l82.81 0c5.56,0 10.04,4.48 10.04,10 0,5.53 -4.48,10 -10.04,10l-93.18 0c-5.52,0 -10,-4.47 -10,-10 0,-42.3 17.15,-80.59 44.87,-108.32 27.72,-27.72 66.02,-44.86 108.32,-44.86 42.3,0 80.59,17.14 108.31,44.86 27.73,27.73 44.87,66.02 44.87,108.32 0,5.53 -4.47,10 -10,10l-93.18 0c-5.55,0 -10.04,-4.47 -10.04,-10 0,-5.52 4.49,-10 10.04,-10l82.81 0zm-87.64 -130.43c3.9,-3.9 10.23,-3.9 14.14,0 3.9,3.91 3.9,10.24 0,14.14l-52.24 52.24c-3.91,3.91 -10.24,3.91 -14.14,0l-52.24 -52.24c-3.91,-3.9 -3.91,-10.23 0,-14.14 3.9,-3.9 10.23,-3.9 14.14,0l45.17 45.17 45.17 -45.17zm-45.17 -334.17c13.23,0 25.22,5.36 33.89,14.04 8.68,8.67 14.04,20.66 14.04,33.89 0,13.24 -5.36,25.22 -14.04,33.9 -6.42,6.43 -14.67,11.04 -23.89,12.99l0 24.55c0,5.52 -4.48,10 -10,10 -5.53,0 -10,-4.48 -10,-10l0 -24.55c-9.23,-1.95 -17.47,-6.56 -23.9,-12.99 -8.67,-8.68 -14.04,-20.66 -14.04,-33.9 0,-13.23 5.37,-25.22 14.04,-33.89 8.68,-8.68 20.66,-14.04 33.9,-14.04zm19.75 28.18c-5.05,-5.06 -12.04,-8.18 -19.75,-8.18 -7.72,0 -14.71,3.12 -19.76,8.18 -5.05,5.05 -8.18,12.04 -8.18,19.75 0,7.72 3.13,14.71 8.18,19.76 5.05,5.05 12.04,8.18 19.76,8.18 7.71,0 14.7,-3.13 19.75,-8.18 5.06,-5.05 8.18,-12.04 8.18,-19.76 0,-7.71 -3.12,-14.7 -8.18,-19.75zm191.9 65.28c9.36,9.36 14.04,21.63 14.04,33.89 0,12.27 -4.68,24.54 -14.04,33.9 -9.36,9.36 -21.63,14.04 -33.9,14.04 -9.09,0 -18.18,-2.57 -26.08,-7.71l-17.36 17.36c-3.9,3.9 -10.24,3.9 -14.14,0 -3.91,-3.91 -3.91,-10.24 0,-14.14l17.36 -17.36c-5.14,-7.91 -7.72,-17 -7.72,-26.09 0,-12.26 4.69,-24.53 14.05,-33.89 9.36,-9.36 21.63,-14.05 33.89,-14.05 12.27,0 24.54,4.69 33.9,14.05zm-5.96 33.89c0,-7.15 -2.73,-14.3 -8.18,-19.75 -5.46,-5.46 -12.61,-8.18 -19.76,-8.18 -7.15,0 -14.3,2.72 -19.75,8.18 -5.46,5.45 -8.18,12.6 -8.18,19.75 0,7.15 2.72,14.3 8.18,19.76 5.45,5.45 12.6,8.18 19.75,8.18 7.15,0 14.3,-2.73 19.76,-8.18 5.45,-5.46 8.18,-12.61 8.18,-19.76zm52.46 166.5c0,13.23 -5.37,25.22 -14.04,33.89 -8.68,8.68 -20.66,14.04 -33.9,14.04 -13.23,0 -25.22,-5.36 -33.89,-14.04 -6.43,-6.43 -11.04,-14.67 -13,-23.89l-24.54 0c-5.53,0 -10,-4.48 -10,-10 0,-5.53 4.47,-10 10,-10l24.54 0c1.96,-9.23 6.57,-17.47 13,-23.9 8.67,-8.67 20.66,-14.04 33.89,-14.04 13.24,0 25.22,5.37 33.9,14.04 8.67,8.67 14.04,20.66 14.04,33.9zm-28.18 19.75c5.05,-5.05 8.18,-12.04 8.18,-19.75 0,-7.72 -3.13,-14.71 -8.18,-19.76 -5.05,-5.05 -12.04,-8.18 -19.76,-8.18 -7.71,0 -14.7,3.13 -19.75,8.18 -5.06,5.05 -8.18,12.04 -8.18,19.76 0,7.71 3.12,14.7 8.18,19.75 5.05,5.05 12.04,8.18 19.75,8.18 7.72,0 14.71,-3.12 19.76,-8.18zm-483.82 -15.45c0,-13.23 5.37,-25.22 14.04,-33.89 8.68,-8.68 20.66,-14.05 33.9,-14.05 13.23,0 25.22,5.37 33.89,14.05 6.43,6.42 11.04,14.67 13,23.89l24.54 0c5.53,0 10,4.48 10,10 0,5.52 -4.47,10 -10,10l-24.54 0c-1.96,9.23 -6.57,17.47 -13,23.9 -8.67,8.67 -20.66,14.04 -33.89,14.04 -13.24,0 -25.22,-5.37 -33.9,-14.04 -8.67,-8.68 -14.04,-20.66 -14.04,-33.9zm28.18 -19.75c-5.05,5.05 -8.18,12.04 -8.18,19.75 0,7.72 3.13,14.7 8.18,19.76 5.05,5.05 12.04,8.18 19.76,8.18 7.71,0 14.7,-3.13 19.75,-8.18 5.06,-5.06 8.18,-12.04 8.18,-19.76 0,-7.71 -3.12,-14.7 -8.18,-19.75 -5.05,-5.06 -12.04,-8.18 -19.75,-8.18 -7.72,0 -14.71,3.12 -19.76,8.18zm15.28 -181.9c9.36,-9.36 21.63,-14.04 33.89,-14.04 12.27,0 24.54,4.68 33.9,14.04 9.36,9.36 14.04,21.63 14.04,33.9 0,9.09 -2.57,18.18 -7.71,26.08l17.36 17.36c3.9,3.9 3.9,10.24 0,14.14 -3.91,3.9 -10.24,3.9 -14.14,0l-17.36 -17.36c-7.91,5.14 -17,7.71 -26.09,7.71 -12.26,0 -24.53,-4.68 -33.89,-14.04 -9.36,-9.36 -14.04,-21.63 -14.04,-33.89 0,-12.27 4.68,-24.54 14.04,-33.9zm33.89 5.96c-7.15,0 -14.3,2.73 -19.75,8.18 -5.46,5.46 -8.18,12.61 -8.18,19.76 0,7.15 2.72,14.3 8.18,19.75 5.45,5.46 12.6,8.18 19.75,8.18 7.15,0 14.31,-2.72 19.76,-8.18 5.45,-5.45 8.18,-12.6 8.18,-19.75 0,-7.15 -2.73,-14.3 -8.18,-19.76 -5.45,-5.45 -12.61,-8.18 -19.76,-8.18z"/>
 </g>
</svg>
