<?xml version="1.0" encoding="utf-8"?>
<!-- Generator: Adobe Illustrator 26.2.1, SVG Export Plug-In . SVG Version: 6.00 Build 0)  -->
<svg version="1.1" id="Layer_1" xmlns:xodm="http://www.corel.com/coreldraw/odm/2003"
	 xmlns="http://www.w3.org/2000/svg" xmlns:xlink="http://www.w3.org/1999/xlink" x="0px" y="0px" width="40px" height="40px"
	 viewBox="0 0 40 40" style="enable-background:new 0 0 40 40;" xml:space="preserve">
<style type="text/css">
	.st0{fill:#001F7E;}
	.st1{fill:#FFFFFF;}
	.st2{fill:#D00C27;}
</style>
<rect class="st0" width="40" height="40"/>
<g>
	<g>
		<polygon class="st1" points="40,0 40,8 31.5,15.5 22.5,15.5 		"/>
		<polygon class="st2" points="40,1.8 40,4.4 27.5,15.5 24.5,15.5 		"/>
	</g>
	<g>
		<polygon class="st1" points="40,32 40,40 22.5,24.5 31.5,24.5 		"/>
		<polygon class="st2" points="40,33.8 40,36.5 26.5,24.5 29.5,24.5 		"/>
	</g>
	<g>
		<polygon class="st1" points="17.5,15.5 8.5,15.5 0,8 0,0 		"/>
		<polygon class="st2" points="13.5,15.5 10.5,15.5 0,6.2 0,3.5 		"/>
	</g>
	<g>
		<polygon class="st1" points="17.5,24.5 0,40 0,32 8.5,24.5 		"/>
		<polygon class="st2" points="15.5,24.5 0,38.2 0,35.6 12.5,24.5 		"/>
	</g>
	<polygon class="st1" points="40,15.5 24.5,15.5 24.5,0 15.5,0 15.5,15.5 0,15.5 0,24.5 15.5,24.5 15.5,40 24.5,40 24.5,24.5 
		40,24.5 	"/>
	<rect x="17.5" class="st2" width="5" height="40"/>
	<rect x="17.5" transform="matrix(-1.836970e-16 1 -1 -1.836970e-16 40 3.552714e-15)" class="st2" width="5" height="40"/>
</g>
</svg>
