<?xml version="1.0" encoding="UTF-8"?>
<!DOCTYPE svg PUBLIC "-//W3C//DTD SVG 1.1//EN" "http://www.w3.org/Graphics/SVG/1.1/DTD/svg11.dtd">
<!-- Creator: CorelDRAW 2021 (64-Bit) -->
<svg xmlns="http://www.w3.org/2000/svg" xml:space="preserve" width="512px" height="512px" version="1.1" style="shape-rendering:geometricPrecision; text-rendering:geometricPrecision; image-rendering:optimizeQuality; fill-rule:evenodd; clip-rule:evenodd"
viewBox="0 0 512 512"
 xmlns:xlink="http://www.w3.org/1999/xlink"
 xmlns:xodm="http://www.corel.com/coreldraw/odm/2003">
 <defs>
  <style type="text/css">
   <![CDATA[
    .fil0 {fill:#EA2D3F;fill-rule:nonzero}
   ]]>
  </style>
 </defs>
 <g id="Layer_x0020_1">
  <metadata id="CorelCorpID_0Corel-Layer"/>
  <path class="fil0" d="M166.51 63.41c7.45,-7.45 17.26,-11.18 27.06,-11.18 1.94,0 3.88,0.15 5.81,0.44 -0.03,-0.68 -0.05,-1.37 -0.05,-2.06l0 -19.72c0,-5.52 4.48,-10 10,-10 0.3,0 0.6,0.02 0.89,0.04l110.48 0 0 -0.04c9.2,0 17.65,3.43 24.15,9.07 3.04,2.64 5.66,5.78 7.71,9.28 4.49,-1.74 9.25,-2.62 14.01,-2.62l0 -0.04c9.52,0 19.05,3.54 26.42,10.59 0.22,0.19 0.43,0.38 0.63,0.58l-0.01 0.03 0.02 0.02c7.45,7.45 11.17,17.24 11.17,27.01 0,4.34 -0.73,8.68 -2.2,12.82 7.51,1.29 14.71,4.83 20.49,10.61 7.45,7.45 11.17,17.26 11.17,27.05 0,4.76 -0.88,9.52 -2.64,14.01 7,1.34 13.71,4.64 19.21,9.91 0.22,0.18 0.43,0.38 0.64,0.58 7.45,7.45 11.17,17.26 11.17,27.06 0,6.25 -1.52,12.51 -4.57,18.16 6.61,1.6 12.87,4.96 18.01,10.1 0.21,0.21 0.41,0.43 0.59,0.65 7.06,7.37 10.59,16.9 10.59,26.41 0,9.8 -3.73,19.61 -11.17,27.05l-24.6 24.6 57.58 57.59c3.9,3.9 3.9,10.23 0,14.14 -3.9,3.9 -10.24,3.9 -14.14,0l-57.58 -57.59 -20.04 20.04c-3.91,3.91 -10.24,3.91 -14.14,0 -3.91,-3.9 -3.91,-10.23 0,-14.14l58.77 -58.77c3.55,-3.55 5.32,-8.23 5.32,-12.92 0,-4.52 -1.63,-9.02 -4.88,-12.5l-0.53 -0.51c-3.53,-3.48 -8.17,-5.22 -12.82,-5.22 -4.69,0 -9.37,1.77 -12.91,5.31l-11.96 11.96c-3.9,3.9 -10.24,3.9 -14.14,0 -3.9,-3.9 -3.9,-10.24 0,-14.14l27.31 -27.31 0.42 -0.39c3.26,-3.49 4.89,-8 4.89,-12.52 0,-4.69 -1.77,-9.37 -5.31,-12.91l-0.4 -0.43c-3.48,-3.26 -7.99,-4.89 -12.52,-4.89 -4.64,0 -9.29,1.74 -12.82,5.22l-27.4 27.4c-3.9,3.91 -10.24,3.91 -14.14,0 -3.9,-3.9 -3.9,-10.23 0,-14.14l38.9 -38.89 0.42 -0.4c3.26,-3.49 4.89,-7.99 4.89,-12.52 0,-4.68 -1.77,-9.37 -5.31,-12.91l-0.03 -0.03c-3.54,-3.52 -8.21,-5.29 -12.89,-5.29 -4.4,0 -8.78,1.54 -12.2,4.6l-39.61 39.61c-3.9,3.91 -10.23,3.91 -14.14,0 -3.9,-3.9 -3.9,-10.23 0,-14.14l49.41 -49.4 0.42 -0.4c3.26,-3.49 4.89,-8 4.89,-12.52 0,-4.7 -1.76,-9.39 -5.29,-12.93l-0.02 0.02 -0.4 -0.43c-3.49,-3.25 -7.99,-4.89 -12.52,-4.89l0 -0.04c-4.66,0 -9.34,1.79 -12.91,5.36l-67.34 67.34c6.2,7.16 9.31,16.11 9.31,25.05 0,9.8 -3.73,19.61 -11.18,27.05 -7.45,7.46 -17.26,11.18 -27.05,11.18 -0.6,0 -1.19,-0.01 -1.79,-0.04 0.03,0.59 0.05,1.19 0.05,1.78 0,9.8 -3.73,19.61 -11.18,27.05 -7.45,7.45 -17.25,11.18 -27.05,11.18 -0.6,0 -1.19,-0.01 -1.78,-0.04 0.02,0.59 0.04,1.19 0.04,1.78l-0.04 0c0,9.8 -3.71,19.59 -11.13,27.01l-0.02 0.02 0.02 0.02c-7.46,7.45 -17.26,11.18 -27.06,11.18 -0.61,0 -1.22,-0.02 -1.82,-0.04 0.02,0.59 0.04,1.18 0.04,1.78l0.04 0c0,9.8 -3.73,19.6 -11.17,27.05 -7.43,7.42 -17.24,11.14 -27.06,11.14l0 0.04c-8.94,0 -17.89,-3.11 -25.05,-9.31l-95.37 95.37c-3.9,3.9 -10.24,3.9 -14.14,0 -3.9,-3.9 -3.9,-10.24 0,-14.14l95.3 -95.3 -14.17 -14.18c-0.21,-0.21 -0.41,-0.42 -0.59,-0.64 -7.06,-7.37 -10.59,-16.9 -10.59,-26.41 0,-9.5 3.52,-19.02 10.56,-26.39 0.25,-0.3 0.52,-0.58 0.8,-0.84 5.1,-5.04 11.29,-8.35 17.82,-9.92 -3.04,-5.65 -4.56,-11.92 -4.56,-18.17 0,-9.8 3.72,-19.61 11.17,-27.06 5.6,-5.6 12.56,-9.08 19.86,-10.46 -1.77,-4.5 -2.65,-9.27 -2.65,-14.04 0,-9.8 3.73,-19.6 11.17,-27.05 5.78,-5.78 12.97,-9.31 20.48,-10.61 -1.46,-4.14 -2.19,-8.48 -2.19,-12.82 0,-9.8 3.72,-19.61 11.17,-27.05zm14.14 14.13c-3.54,3.55 -5.31,8.23 -5.31,12.92 0,4.69 1.77,9.37 5.31,12.91l63.83 63.84c3.54,3.54 8.23,5.31 12.92,5.31 4.69,0 9.37,-1.77 12.91,-5.31 3.54,-3.55 5.32,-8.23 5.32,-12.92 0,-4.69 -1.78,-9.37 -5.32,-12.91l-63.83 -63.84 0.02 -0.02c-3.54,-3.52 -8.23,-5.29 -12.93,-5.29 -4.69,0 -9.38,1.77 -12.92,5.31zm71.38 17.27l20.22 20.22 63.99 -63.99c-1.02,-2.31 -2.55,-4.36 -4.44,-6 -2.97,-2.58 -6.85,-4.15 -11.1,-4.15l0 -0.04 -101.37 0 0 9.76c0,6.69 2.71,12.74 7.09,17.11 4.37,4.38 10.42,7.09 17.11,7.09l27.75 0c5.53,0 10,4.48 10,10 0,5.52 -4.47,10 -10,10l-19.25 0zm-21.69 86.54l-53.32 -53.32c-3.54,-3.54 -8.22,-5.32 -12.91,-5.32 -4.69,0 -9.37,1.78 -12.92,5.32 -3.54,3.54 -5.31,8.22 -5.31,12.91 0,4.69 1.77,9.37 5.31,12.92l53.32 53.32c3.55,3.54 8.23,5.31 12.92,5.31 4.69,0 9.37,-1.77 12.91,-5.31 3.54,-3.55 5.32,-8.23 5.32,-12.92 0,-4.69 -1.78,-9.37 -5.32,-12.91zm-107.53 -1.77c-3.54,3.54 -5.31,8.23 -5.31,12.92 0,4.68 1.77,9.37 5.31,12.91l41.73 41.73c3.55,3.55 8.23,5.32 12.92,5.32 4.69,0 9.37,-1.77 12.91,-5.31l0.02 0.01c3.56,-3.57 5.34,-8.25 5.34,-12.93l-0.04 0c0,-4.69 -1.77,-9.37 -5.32,-12.91l-41.73 -41.74c-3.54,-3.54 -8.23,-5.31 -12.91,-5.31l0 -0.04c-4.67,0 -9.35,1.78 -12.92,5.35zm27.59 81.7l-27.06 -27.06c-3.45,-3.09 -7.83,-4.63 -12.23,-4.63 -4.66,0 -9.32,1.75 -12.85,5.25l-0.06 0.07 -0.03 -0.02c-3.52,3.54 -5.29,8.23 -5.29,12.93 0,4.52 1.63,9.03 4.89,12.51l0.42 0.4 26.39 26.39c3.54,3.54 8.22,5.31 12.91,5.31l0 0.04c4.66,0 9.35,-1.79 12.91,-5.36 3.55,-3.54 5.32,-8.22 5.32,-12.91l0.04 0c0,-4.66 -1.79,-9.35 -5.36,-12.92zm183.72 102.93c4.87,-2.59 10.93,-0.73 13.51,4.14 2.59,4.88 0.74,10.93 -4.13,13.52 -12.55,6.66 -25.76,11.65 -38.2,14.65 -10.76,2.6 -21.01,3.7 -29.89,3.14l-6.81 6.81c7.42,3.23 14.89,5.77 22.04,7.55 10.72,2.65 20.56,3.55 28.23,2.4 3.24,-0.47 6.35,0.67 8.5,2.82l51.95 51.92c3.9,3.91 3.9,10.24 0,14.14 -3.91,3.91 -10.24,3.91 -14.14,0l-48.58 -48.57c-9.12,0.58 -19.67,-0.6 -30.72,-3.34 -10.47,-2.6 -21.52,-6.63 -32.29,-11.91l-66.7 66.7c-3.9,3.91 -10.24,3.91 -14.14,0 -3.9,-3.9 -3.9,-10.23 0,-14.14l91.88 -91.88c2.16,-2.14 5.27,-3.28 8.51,-2.81 7.51,1.13 17.06,0.31 27.47,-2.21 10.74,-2.59 22.32,-6.99 33.51,-12.93zm50.24 -13.26c3.91,-3.91 3.91,-10.24 0,-14.14 -3.9,-3.91 -10.23,-3.91 -14.14,0 -3.9,3.9 -3.9,10.23 0,14.14 3.91,3.91 10.24,3.91 14.14,0z"/>
 </g>
</svg>
