<?xml version="1.0" encoding="UTF-8"?>
<!DOCTYPE svg PUBLIC "-//W3C//DTD SVG 1.1//EN" "http://www.w3.org/Graphics/SVG/1.1/DTD/svg11.dtd">
<!-- Creator: CorelDRAW 2021 (64-Bit) -->
<svg xmlns="http://www.w3.org/2000/svg" xml:space="preserve" width="512px" height="512px" version="1.1" style="shape-rendering:geometricPrecision; text-rendering:geometricPrecision; image-rendering:optimizeQuality; fill-rule:evenodd; clip-rule:evenodd"
viewBox="0 0 512 512"
 xmlns:xlink="http://www.w3.org/1999/xlink"
 xmlns:xodm="http://www.corel.com/coreldraw/odm/2003">
 <defs>
  <style type="text/css">
   <![CDATA[
    .fil0 {fill:#EA2D3F;fill-rule:nonzero}
   ]]>
  </style>
 </defs>
 <g id="Layer_x0020_1">
  <metadata id="CorelCorpID_0Corel-Layer"/>
  <path class="fil0" d="M200.9 472.59c5.57,0 10.09,4.51 10.09,10.08 0,5.57 -4.52,10.09 -10.09,10.09 -5.57,0 -10.09,-4.52 -10.09,-10.09 0,-5.57 4.52,-10.08 10.09,-10.08zm138.41 -107.84l101.13 -58.38 0.58 -0.31c2.76,-1.36 5.64,-2.4 8.61,-3.09 2.97,-0.68 6.01,-1.05 9.06,-1.05 11.1,0 21.15,4.5 28.42,11.78 7.28,7.27 11.78,17.32 11.78,28.42 0,6.34 -1.5,12.37 -4.16,17.76 -2.75,5.57 -6.75,10.4 -11.63,14.15l-166.17 116.72c-1.75,1.23 -3.76,1.82 -5.75,1.82l0 0.02 -58.02 0c-0.61,0.11 -1.23,0.17 -1.87,0.17 -5.55,0 -10.04,-4.52 -10.04,-10.09 0,-5.57 4.49,-10.08 10.04,-10.08l56.77 0 163.13 -114.58c2.36,-1.86 4.3,-4.23 5.64,-6.95 1.32,-2.66 2.06,-5.69 2.06,-8.94 0,-5.58 -2.27,-10.63 -5.92,-14.28 -3.65,-3.65 -8.7,-5.92 -14.28,-5.92 -1.65,0 -3.18,0.18 -4.6,0.51 -1.45,0.33 -2.81,0.8 -4.05,1.39l-113.55 65.55c-2.01,4.4 -4.8,8.38 -8.18,11.76 -7.28,7.28 -17.33,11.8 -28.4,11.8l-88.54 0c-5.53,0 -10,-4.47 -10,-10 0,-5.52 4.47,-10 10,-10l88.54 0c5.55,0 10.6,-2.27 14.26,-5.94 3.66,-3.66 5.94,-8.71 5.94,-14.25 0,-5.55 -2.28,-10.6 -5.94,-14.26l0.02 -0.02 -0.02 -0.02c-3.64,-3.64 -8.69,-5.9 -14.26,-5.9l-37.26 0c-9.85,0 -19.07,-2.19 -27.31,-6.39 -8.24,-4.2 -15.43,-10.38 -21.23,-18.37 -3.8,-5.23 -8.81,-9.53 -14.61,-12.49 -5.58,-2.85 -11.91,-4.45 -18.63,-4.45 -6.73,0 -13.06,1.6 -18.64,4.45 -5.81,2.96 -10.81,7.26 -14.61,12.49 -5.8,7.99 -12.99,14.17 -21.23,18.37 -7.61,3.88 -16.05,6.04 -25.06,6.35l0 120.09 49.18 0c5.57,0 10.09,4.51 10.09,10.08 0,5.57 -4.52,10.09 -10.09,10.09 -0.64,0 -1.27,-0.06 -1.88,-0.17l-47.3 0 0 9.52c0,5.53 -4.48,10 -10,10l-81.33 0c-5.52,0 -10,-4.47 -10,-10 0,-5.52 4.48,-10 10,-10l71.33 0 0 -184.89 -71.33 0c-5.52,0 -10,-4.47 -10,-10 0,-5.52 4.48,-10 10,-10l81.33 0c5.52,0 10,4.48 10,10l0 35.26c5.81,-0.28 11.2,-1.69 16,-4.14 5.43,-2.77 10.21,-6.9 14.12,-12.28 5.65,-7.78 13.1,-14.18 21.72,-18.58 8.32,-4.25 17.74,-6.64 27.7,-6.64 9.95,0 19.36,2.39 27.69,6.64 8.62,4.4 16.07,10.8 21.72,18.58 3.91,5.38 8.69,9.51 14.12,12.28 5.42,2.76 11.58,4.2 18.25,4.2l37.26 0c11.03,0 21.08,4.53 28.38,11.82l0.02 -0.02c5.48,5.48 9.4,12.54 11,20.41zm-309.3 47.36c8.28,0 15.78,3.36 21.2,8.79 5.43,5.42 8.79,12.92 8.79,21.21 0,8.25 -3.36,15.74 -8.79,21.17 -5.45,5.46 -12.95,8.83 -21.2,8.83 -8.24,0 -15.73,-3.36 -21.18,-8.79l-0.06 -0.06c-5.42,-5.45 -8.77,-12.93 -8.77,-21.15 0,-8.26 3.38,-15.76 8.83,-21.21 5.43,-5.43 12.92,-8.79 21.18,-8.79zm7.06 22.93c-1.8,-1.81 -4.3,-2.93 -7.06,-2.93 -2.79,0 -5.31,1.12 -7.12,2.93 -1.78,1.78 -2.89,4.28 -2.89,7.07 0,2.78 1.11,5.28 2.89,7.07l0.04 0.04c1.79,1.79 4.29,2.89 7.08,2.89 2.78,0 5.28,-1.1 7.06,-2.89 1.81,-1.81 2.93,-4.32 2.93,-7.11 0,-2.77 -1.12,-5.26 -2.93,-7.07zm286.04 -435.15c31.11,0 59.29,12.61 79.68,33 20.39,20.4 33.01,48.57 33.01,79.69 0,17.96 -4.23,34.96 -11.74,50.07 -7.81,15.7 -19.15,29.32 -32.97,39.79 -4.89,3.71 -8.7,8.1 -11.32,13.03 -0.17,0.4 -0.37,0.78 -0.59,1.15 -2.57,5.27 -3.91,11.23 -3.91,17.7l0 7.53 8.02 0c5.53,0 10.01,4.48 10.01,10 0,5.53 -4.48,10 -10.01,10l-8.02 0 0 30.33c0,5.53 -4.48,10 -10,10l-84.33 0c-5.52,0 -10,-4.47 -10,-10l0 -30.33 -8.02 0c-5.53,0 -10,-4.47 -10,-10 0,-5.52 4.47,-10 10,-10l8.02 0 0 -7.53c0,-6.47 -1.33,-12.43 -3.91,-17.7 -0.22,-0.37 -0.41,-0.75 -0.58,-1.15 -2.63,-4.93 -6.43,-9.32 -11.33,-13.03 -13.82,-10.47 -25.16,-24.09 -32.96,-39.79 -7.52,-15.11 -11.75,-32.11 -11.75,-50.07 0,-31.12 12.62,-59.29 33.01,-79.69 20.4,-20.39 48.57,-33 79.69,-33zm65.54 47.14c-16.77,-16.77 -39.95,-27.14 -65.54,-27.14 -25.6,0 -48.78,10.37 -65.55,27.14 -16.77,16.78 -27.15,39.95 -27.15,65.55 0,14.84 3.47,28.85 9.64,41.25 6.39,12.86 15.72,24.04 27.11,32.67 5.71,4.33 10.45,9.37 14.17,15.01l83.55 0c3.72,-5.64 8.47,-10.68 14.18,-15.01 11.38,-8.63 20.71,-19.81 27.1,-32.68 6.17,-12.39 9.64,-26.4 9.64,-41.24 0,-25.6 -10.38,-48.77 -27.15,-65.55zm-33.38 187.29c0,-4.4 0.44,-8.68 1.3,-12.81l-66.93 0c0.86,4.13 1.3,8.41 1.3,12.81l0 7.53 64.33 0 0 -7.53zm0 47.86l0 -20.33 -64.33 0 0 20.33 64.33 0zm146.73 -179.65c5.52,0 10,4.48 10,10 0,5.52 -4.48,10 -10,10l-30.22 0c-5.53,0 -10.01,-4.48 -10.01,-10 0,-5.52 4.48,-10 10.01,-10l30.22 0zm-327.66 0c5.52,0 10,4.48 10,10 0,5.52 -4.48,10 -10,10l-30.22 0c-5.53,0 -10,-4.48 -10,-10 0,-5.52 4.47,-10 10,-10l30.22 0zm298.69 -88.11c4.76,-2.76 10.87,-1.13 13.63,3.64 2.76,4.76 1.13,10.87 -3.63,13.63l-26.18 15.11c-4.77,2.76 -10.87,1.14 -13.63,-3.63 -2.76,-4.77 -1.14,-10.87 3.63,-13.63l26.18 -15.12zm-283.76 163.83c4.76,-2.76 10.87,-1.13 13.63,3.64 2.76,4.76 1.13,10.87 -3.63,13.63l-26.18 15.11c-4.77,2.76 -10.87,1.14 -13.63,-3.63 -2.76,-4.77 -1.14,-10.87 3.63,-13.63l26.18 -15.12zm293.76 15.12c4.76,2.76 6.39,8.86 3.63,13.63 -2.76,4.77 -8.87,6.39 -13.63,3.63l-26.18 -15.11c-4.77,-2.76 -6.39,-8.87 -3.63,-13.63 2.76,-4.77 8.86,-6.4 13.63,-3.64l26.18 15.12zm-283.77 -163.83c4.77,2.76 6.4,8.86 3.64,13.63 -2.76,4.77 -8.87,6.39 -13.63,3.63l-26.18 -15.11c-4.77,-2.76 -6.39,-8.86 -3.63,-13.63 2.76,-4.77 8.86,-6.39 13.63,-3.63l26.17 15.11z"/>
 </g>
</svg>
