<?xml version="1.0" encoding="UTF-8"?>
<!DOCTYPE svg PUBLIC "-//W3C//DTD SVG 1.1//EN" "http://www.w3.org/Graphics/SVG/1.1/DTD/svg11.dtd">
<!-- Creator: CorelDRAW 2021 (64-Bit) -->
<svg xmlns="http://www.w3.org/2000/svg" xml:space="preserve" width="512px" height="512px" version="1.1" style="shape-rendering:geometricPrecision; text-rendering:geometricPrecision; image-rendering:optimizeQuality; fill-rule:evenodd; clip-rule:evenodd"
viewBox="0 0 512 512"
 xmlns:xlink="http://www.w3.org/1999/xlink"
 xmlns:xodm="http://www.corel.com/coreldraw/odm/2003">
 <defs>
  <style type="text/css">
   <![CDATA[
    .fil0 {fill:#EA2D3F;fill-rule:nonzero}
   ]]>
  </style>
 </defs>
 <g id="Layer_x0020_1">
  <metadata id="CorelCorpID_0Corel-Layer"/>
  <path class="fil0" d="M4239.41 52.48l175.27 0c8.15,0 15.57,3.34 20.95,8.72l0.04 0.04c5.38,5.38 8.72,12.8 8.72,20.95 0,51.85 0,103.7 0,155.55 0,8.16 -3.34,15.58 -8.72,20.96l-0.04 0.04c-5.38,5.38 -12.8,8.72 -20.95,8.72l-25.7 0c0.17,1.68 0.26,3.35 0.26,5 0,14.45 -5.86,27.54 -15.33,37.01 -9.47,9.47 -22.56,15.33 -37.01,15.33 -14.45,0 -27.54,-5.86 -37.01,-15.33 -9.47,-9.47 -15.33,-22.56 -15.33,-37.01 0,-1.65 0.09,-3.32 0.26,-5l-45.41 0c-5.53,0 -10,-4.48 -10,-10l0 -57.89c0,-5.52 4.47,-10 10,-10 1.47,0 2.87,0.32 4.13,0.89 1.65,0.59 3.33,1.05 5.03,1.36l0.28 0.05c1.69,0.29 3.54,0.44 5.56,0.44 8.93,0 17.02,-3.62 22.87,-9.47 5.85,-5.85 9.47,-13.94 9.47,-22.87 0,-8.93 -3.62,-17.02 -9.47,-22.87 -5.85,-5.85 -13.94,-9.47 -22.87,-9.47 -2.13,0 -4.08,0.17 -5.85,0.48 -1.91,0.36 -3.8,0.89 -5.64,1.59 -5.15,1.94 -10.91,-0.66 -12.85,-5.82 -0.43,-1.16 -0.64,-2.34 -0.64,-3.51l-0.02 0 0 -57.89c0,-5.52 4.47,-10 10,-10zm184.98 29.71c0,-2.67 -1.09,-5.11 -2.84,-6.87 -1.76,-1.75 -4.2,-2.84 -6.87,-2.84l-165.27 0 0 35.41c1.68,-0.17 3.35,-0.26 5,-0.26 14.45,0 27.54,5.86 37.01,15.33 9.47,9.47 15.33,22.56 15.33,37.01 0,14.45 -5.86,27.54 -15.33,37.01 -9.47,9.47 -22.56,15.33 -37.01,15.33 -1.65,0 -3.32,-0.09 -5,-0.26l0 35.41 47.89 0 0 0.02c1.17,0 2.35,0.21 3.51,0.64 5.16,1.94 7.76,7.7 5.82,12.85 -0.7,1.84 -1.23,3.73 -1.58,5.65 -0.32,1.76 -0.49,3.71 -0.49,5.84 0,8.93 3.62,17.02 9.47,22.87 5.85,5.85 13.94,9.47 22.87,9.47 8.93,0 17.02,-3.62 22.87,-9.47 5.85,-5.85 9.47,-13.94 9.47,-22.87 0,-2.02 -0.15,-3.87 -0.44,-5.56l-0.05 -0.28c-0.31,-1.7 -0.77,-3.38 -1.36,-5.02 -0.57,-1.27 -0.89,-2.67 -0.89,-4.14 0,-5.52 4.48,-10 10,-10l38.18 0c2.67,0 5.11,-1.09 6.87,-2.84 1.75,-1.77 2.84,-4.2 2.84,-6.88 0,-51.85 0,-103.7 0,-155.55zm-277.01 267.31l57.89 0c5.52,0 10,4.47 10,10 0,1.47 -0.32,2.87 -0.89,4.13 -0.59,1.65 -1.04,3.33 -1.35,5.03l-0.06 0.28c-0.29,1.69 -0.44,3.54 -0.44,5.56 0,8.93 3.62,17.02 9.47,22.87 5.85,5.85 13.94,9.47 22.87,9.47 8.94,0 17.02,-3.62 22.87,-9.47 5.85,-5.85 9.47,-13.94 9.47,-22.87 0,-2.13 -0.17,-4.08 -0.48,-5.85 -0.36,-1.91 -0.89,-3.8 -1.59,-5.64 -1.94,-5.15 0.66,-10.91 5.82,-12.85 1.16,-0.44 2.35,-0.64 3.51,-0.64l0 -0.02 28.18 0c8.15,0 15.57,3.34 20.95,8.72l0.04 0.04c5.38,5.38 8.72,12.8 8.72,20.95l0 155.55c0,8.15 -3.34,15.58 -8.72,20.96l-0.04 0.04c-5.38,5.38 -12.8,8.72 -20.95,8.72l-175.27 0 -175.27 0c-8.15,0 -15.58,-3.34 -20.96,-8.72l-0.04 -0.04c-5.38,-5.38 -8.72,-12.81 -8.72,-20.96l0 -155.55c0,-7.54 2.87,-14.46 7.55,-19.71 -4.68,-5.26 -7.55,-12.18 -7.55,-19.72l0 -155.55c0,-8.15 3.34,-15.57 8.72,-20.96l0.04 -0.03c5.38,-5.38 12.81,-8.73 20.96,-8.73l175.27 0c5.52,0 10,4.48 10,10.01l0 45.4c1.68,-0.17 3.35,-0.25 5,-0.25 14.45,0 27.54,5.85 37.01,15.33 9.47,9.47 15.33,22.55 15.33,37.01 0,14.45 -5.86,27.53 -15.33,37.01 -9.47,9.47 -22.56,15.33 -37.01,15.33 -1.65,0 -3.32,-0.09 -5,-0.26l0 35.41zm0 194.98l165.27 0c2.68,0 5.11,-1.09 6.87,-2.85 1.75,-1.76 2.84,-4.19 2.84,-6.87l0 -155.55c0,-2.68 -1.09,-5.11 -2.84,-6.87 -1.76,-1.76 -4.19,-2.84 -6.87,-2.84l-15.7 0c0.18,1.68 0.26,3.35 0.26,5 0,14.45 -5.86,27.54 -15.33,37.01 -9.47,9.47 -22.56,15.33 -37.01,15.33 -14.45,0 -27.53,-5.86 -37.01,-15.33 -9.47,-9.47 -15.33,-22.56 -15.33,-37.01 0,-1.65 0.09,-3.32 0.26,-5l-45.41 0 0 35.4c1.68,-0.17 3.35,-0.26 5,-0.26 14.45,0 27.54,5.86 37.01,15.34 9.47,9.47 15.33,22.56 15.33,37.01 0,14.45 -5.86,27.53 -15.33,37.01 -9.47,9.47 -22.56,15.33 -37.01,15.33 -1.65,0 -3.32,-0.09 -5,-0.26l0 35.41zm-185.27 -174.98c-2.68,0 -5.11,1.08 -6.87,2.84 -1.76,1.76 -2.85,4.19 -2.85,6.87l0 155.55c0,2.68 1.09,5.11 2.85,6.87 1.76,1.76 4.19,2.85 6.87,2.85l165.27 0 0 -47.89c0,-5.53 4.48,-10 10,-10 1.47,0 2.87,0.32 4.14,0.89 1.64,0.59 3.32,1.04 5.02,1.35l0.28 0.06c1.69,0.29 3.54,0.44 5.56,0.44 8.93,0 17.02,-3.62 22.87,-9.47 5.85,-5.85 9.47,-13.94 9.47,-22.87 0,-8.94 -3.62,-17.02 -9.47,-22.87 -5.85,-5.85 -13.94,-9.47 -22.87,-9.47 -2.13,0 -4.08,0.16 -5.84,0.48 -1.92,0.36 -3.8,0.89 -5.64,1.59 -5.16,1.94 -10.91,-0.67 -12.86,-5.82 -0.43,-1.16 -0.64,-2.35 -0.64,-3.52l-0.02 0 0 -47.88 -35.41 0c0.17,1.68 0.26,3.35 0.26,5 0,14.45 -5.86,27.54 -15.33,37.01 -9.48,9.47 -22.56,15.33 -37.01,15.33 -14.46,0 -27.54,-5.86 -37.01,-15.33 -9.47,-9.47 -15.33,-22.56 -15.33,-37.01 0,-1.65 0.08,-3.32 0.25,-5l-25.69 0zm165.27 -194.98l-165.27 0c-2.68,0 -5.11,1.08 -6.87,2.84 -1.76,1.76 -2.85,4.19 -2.85,6.87l0 155.55c0,2.68 1.09,5.11 2.85,6.87 1.76,1.76 4.19,2.85 6.87,2.85l38.17 0c5.53,0 10,4.47 10,10 0,1.47 -0.32,2.87 -0.89,4.13 -0.59,1.65 -1.04,3.33 -1.35,5.03l-0.06 0.28c-0.28,1.69 -0.43,3.54 -0.43,5.56 0,8.93 3.62,17.02 9.47,22.87 5.85,5.85 13.93,9.47 22.87,9.47 8.93,0 17.02,-3.62 22.87,-9.47 5.85,-5.85 9.47,-13.94 9.47,-22.87 0,-2.13 -0.17,-4.08 -0.49,-5.85 -0.36,-1.91 -0.89,-3.8 -1.59,-5.64 -1.94,-5.15 0.67,-10.91 5.82,-12.85 1.16,-0.44 2.35,-0.64 3.52,-0.64l0 -0.02 47.89 0 0 -47.89c0,-5.52 4.48,-10 10,-10 1.47,0 2.87,0.32 4.14,0.89 1.64,0.59 3.32,1.04 5.02,1.35l0.28 0.06c1.69,0.29 3.54,0.44 5.56,0.44 8.93,0 17.02,-3.62 22.87,-9.47 5.85,-5.86 9.47,-13.94 9.47,-22.87 0,-8.94 -3.62,-17.02 -9.47,-22.87 -5.85,-5.85 -13.94,-9.47 -22.87,-9.47 -2.13,0 -4.08,0.16 -5.84,0.48 -1.92,0.36 -3.8,0.89 -5.64,1.59 -5.16,1.94 -10.91,-0.66 -12.86,-5.82 -0.43,-1.16 -0.64,-2.35 -0.64,-3.52l-0.02 0 0 -47.88z"/>
  <path class="fil0" d="M4585.31 829.13c1.84,-2.23 4.62,-3.66 7.73,-3.66 2.93,0 5.56,1.26 7.39,3.26l21.56 20.44c3.99,3.8 4.15,10.11 0.35,14.1 -3.8,3.99 -10.11,4.15 -14.1,0.35l-3.81 -3.61c4.42,39.06 19.29,74.93 41.74,104.74 27.72,36.82 67.03,64.46 112.52,77.51 5.31,1.5 8.38,7.03 6.88,12.34 -1.52,5.31 -7.04,8.39 -12.35,6.88 -49.69,-14.26 -92.66,-44.49 -123,-84.78 -25.13,-33.38 -41.57,-73.65 -45.98,-117.44l-4.89 5.15c-3.8,4 -10.12,4.15 -14.1,0.36 -4,-3.8 -4.15,-10.12 -0.36,-14.11l20.42 -21.53zm261.78 245.14c3.99,3.8 4.15,10.11 0.35,14.1 -3.8,3.99 -10.11,4.15 -14.1,0.35l-21.54 -20.41c-2.23,-1.84 -3.66,-4.62 -3.66,-7.74 0,-2.92 1.26,-5.55 3.26,-7.38l20.44 -21.56c3.8,-3.99 10.12,-4.15 14.11,-0.35 3.99,3.8 4.14,10.11 0.35,14.1l-3.61 3.81c39.05,-4.42 74.92,-19.29 104.73,-41.74 36.82,-27.72 64.46,-67.03 77.51,-112.52 1.51,-5.31 7.04,-8.39 12.34,-6.88 5.31,1.51 8.39,7.04 6.88,12.35 -14.26,49.69 -44.48,92.66 -84.78,122.99 -33.38,25.14 -73.65,41.58 -117.44,45.99l5.16 4.89zm209.85 -267.74c3.8,-3.99 10.12,-4.15 14.11,-0.35 3.99,3.8 4.14,10.11 0.35,14.1l-20.42 21.53c-1.83,2.24 -4.62,3.66 -7.73,3.66 -2.93,0 -5.56,-1.25 -7.39,-3.25l-21.56 -20.44c-3.99,-3.8 -4.14,-10.12 -0.35,-14.11 3.8,-3.99 10.11,-4.14 14.11,-0.35l3.8 3.61c-4.42,-39.05 -19.29,-74.92 -41.73,-104.73 -27.73,-36.82 -67.03,-64.46 -112.53,-77.51 -5.3,-1.51 -8.38,-7.04 -6.87,-12.34 1.51,-5.31 7.03,-8.39 12.34,-6.88 49.7,14.25 92.66,44.48 123,84.78 25.13,33.38 41.58,73.65 45.99,117.44l4.88 -5.16zm-267.74 -209.86c-3.99,-3.79 -4.14,-10.11 -0.35,-14.1 3.8,-3.99 10.11,-4.15 14.11,-0.35l21.53 20.42c2.23,1.83 3.66,4.62 3.66,7.73 0,2.93 -1.26,5.56 -3.26,7.39l-20.44 21.55c-3.8,3.99 -10.11,4.15 -14.1,0.36 -3.99,-3.8 -4.15,-10.12 -0.35,-14.11l3.6 -3.8c-39.05,4.42 -74.92,19.29 -104.73,41.73 -36.82,27.73 -64.46,67.03 -77.51,112.53 -1.51,5.3 -7.03,8.38 -12.34,6.87 -5.31,-1.51 -8.39,-7.04 -6.88,-12.34 14.26,-49.7 44.48,-92.66 84.78,-123 33.38,-25.13 73.65,-41.58 117.44,-45.99l-5.16 -4.89zm34.04 151.56l33.97 19.61 0.51 0.32 32.99 19.04c1.7,0.85 3.17,2.18 4.19,3.94 0.92,1.58 1.35,3.3 1.35,5l0.02 0 0 78.67c0,4.04 -2.4,7.52 -5.85,9.1l-33.22 19.18 0.01 0.01 -33.46 19.32c-1.6,1.08 -3.53,1.72 -5.6,1.72 -2.08,0 -4.01,-0.64 -5.61,-1.72l-33.46 -19.32 -0.51 -0.32 -33.51 -19.34c-3.2,-1.84 -4.99,-5.19 -5,-8.63l-0.04 0 0 -78.67c0,-4.04 2.4,-7.52 5.85,-9.1l33.22 -19.18 -0.01 -0.02 34.07 -19.66c3.23,-1.88 7.09,-1.73 10.09,0.05zm23.97 36.88l-29.06 -16.78 -29.07 16.78 0 -0.02 -19.12 11.04 48.19 27.82 48.19 -27.82 -18.58 -10.72 -0.55 -0.3zm29.06 50.36l0 -22.04 -48.12 27.79 0 55.62 19.06 -11 0.01 0.01 29.05 -16.77 0 -33.61zm-87.19 50.37l19.06 11 0 -55.62 -48.12 -27.79 0 55.65 28.51 16.46 0.55 0.3zm54.37 67.99c7.23,-1.54 14.25,-3.74 20.98,-6.53 6.95,-2.88 13.59,-6.4 19.85,-10.49 4.03,-2.65 9.28,-1.99 12.55,1.31l10.57 9.23 22.62 -22.62 -9.69 -11.1c-3.01,-3.44 -3.23,-8.37 -0.84,-12.02l-0.01 -0.01c4.09,-6.26 7.61,-12.9 10.49,-19.85 2.85,-6.86 5.07,-14 6.61,-21.37 0.94,-4.49 4.75,-7.64 9.11,-7.93l14.67 -1 0 -31.95 -14.67 -1c-4.72,-0.31 -8.45,-3.86 -9.19,-8.33 -1.54,-7.23 -3.73,-14.25 -6.53,-20.99 -2.88,-6.94 -6.4,-13.58 -10.49,-19.84 -2.64,-4.04 -1.98,-9.28 1.31,-12.55l9.23 -10.57 -22.62 -22.62 -11.09 9.68c-3.45,3.02 -8.38,3.24 -12.02,0.85l-0.02 0.01c-6.26,-4.09 -12.9,-7.62 -19.84,-10.5 -6.86,-2.84 -14.01,-5.07 -21.38,-6.61 -4.49,-0.93 -7.64,-4.74 -7.93,-9.1l-1 -14.67 -31.95 0 -1 14.67c-0.31,4.72 -3.86,8.45 -8.33,9.19 -7.23,1.54 -14.24,3.73 -20.97,6.52 -6.95,2.88 -13.59,6.41 -19.85,10.5 -4.04,2.65 -9.28,1.99 -12.56,-1.31l-10.57 -9.23 -22.62 22.62 9.69 11.09c3.01,3.45 3.23,8.38 0.84,12.02l0.02 0.02c-4.1,6.26 -7.62,12.9 -10.5,19.84 -2.84,6.86 -5.07,14.01 -6.61,21.38 -0.93,4.49 -4.74,7.64 -9.1,7.92l-14.68 1.01 0 31.95 14.67 1c4.72,0.31 8.45,3.85 9.19,8.33 1.54,7.23 3.74,14.25 6.53,20.98 2.88,6.95 6.4,13.59 10.49,19.84 2.65,4.04 1.99,9.28 -1.31,12.56l-9.23 10.57 22.62 22.62 11.1 -9.69c3.44,-3.01 8.37,-3.23 12.02,-0.84l0.01 -0.02c6.26,4.1 12.9,7.62 19.85,10.5 6.85,2.84 14,5.07 21.37,6.61 4.49,0.93 7.64,4.75 7.93,9.1l1 14.68 31.95 0 1 -14.67c0.31,-4.72 3.86,-8.45 8.33,-9.19zm28.64 11.91c-5.66,2.34 -11.52,4.33 -17.55,5.94l-1.09 16.1c-0.04,5.48 -4.5,9.91 -10,9.91l-50.61 0 0 -0.02c-5.22,0.01 -9.61,-4.04 -9.96,-9.31l-1.13 -16.68c-6.03,-1.61 -11.88,-3.6 -17.54,-5.94 -5.76,-2.39 -11.32,-5.14 -16.65,-8.23l-12.08 10.56c-3.91,3.91 -10.24,3.91 -14.14,0l-35.79 -35.79 0.02 -0.02c-3.68,-3.68 -3.93,-9.64 -0.45,-13.61l10.98 -12.59c-3.08,-5.32 -5.83,-10.88 -8.22,-16.64 -2.35,-5.66 -4.34,-11.52 -5.94,-17.55l-16.1 -1.09c-5.48,-0.05 -9.91,-4.51 -9.91,-10l0 -50.61 0.01 0c0,-5.22 4.05,-9.61 9.32,-9.96l16.68 -1.14c1.61,-6.02 3.6,-11.88 5.94,-17.53 2.39,-5.76 5.14,-11.32 8.23,-16.65l-10.56 -12.09c-3.91,-3.9 -3.91,-10.23 0,-14.14l35.79 -35.79 0.02 0.03c3.68,-3.69 9.63,-3.93 13.61,-0.46l12.59 11c5.33,-3.09 10.89,-5.85 16.65,-8.23 5.66,-2.35 11.51,-4.34 17.54,-5.94l1.09 -16.1c0.05,-5.49 4.51,-9.92 10,-9.92l50.61 0 0 0.02c5.22,0 9.61,4.04 9.96,9.32l1.13 16.68c6.03,1.6 11.89,3.59 17.54,5.94 5.76,2.38 11.32,5.14 16.65,8.23l12.09 -10.57c3.9,-3.9 10.23,-3.9 14.14,0l35.79 35.79 -0.03 0.03c3.69,3.67 3.93,9.63 0.46,13.61l-10.99 12.58c3.08,5.33 5.84,10.89 8.22,16.65 2.35,5.66 4.34,11.51 5.94,17.54l16.1 1.1c5.48,0.04 9.92,4.5 9.92,10l0 50.61 -0.02 0c0,5.22 -4.04,9.61 -9.32,9.96l-16.68 1.13c-1.6,6.03 -3.59,11.88 -5.94,17.54 -2.38,5.76 -5.14,11.32 -8.23,16.65l10.57 12.08c3.9,3.91 3.9,10.24 0,14.14l-35.79 35.79 -0.03 -0.02c-3.67,3.68 -9.63,3.93 -13.61,0.45l-12.58 -10.99c-5.33,3.09 -10.89,5.84 -16.65,8.23z"/>
  <g id="_2475186346048">
   <path class="fil0" d="M3604.66 -250.46c5.98,0.03 12.18,-2.37 18.4,-4.79 11.33,-4.4 22.74,-8.83 37.99,-4.5 15.22,4.33 22.05,13.44 28.91,22.57 3.73,4.97 7.47,9.96 12.63,12.98 5.06,2.97 11.66,3.99 18.29,5.01l0.32 0.06c11.9,1.83 23.86,3.77 34.85,15.1 11.04,11.37 12.41,22.67 13.77,33.99 0.75,6.19 1.5,12.39 4.43,17.54 2.94,5.18 8.12,9.34 13.31,13.51 9.49,7.61 19.03,15.28 22.92,30.71 3.85,15.31 -0.61,25.77 -5.09,36.26 -2.46,5.74 -4.92,11.5 -4.95,17.41 -0.04,5.98 2.37,12.18 4.78,18.4 4.41,11.33 8.84,22.74 4.5,37.99 -4.32,15.22 -13.43,22.05 -22.57,28.91 -4.97,3.73 -9.96,7.47 -12.98,12.63 -2.97,5.06 -3.99,11.67 -5.01,18.29l-0.05 0.33c-1.84,11.9 -3.78,23.86 -15.1,34.84 -11.38,11.04 -22.67,12.41 -34,13.77 -6.18,0.75 -12.39,1.5 -17.54,4.43 -5.17,2.94 -9.33,8.12 -13.51,13.32 -7.61,9.48 -15.27,19.02 -30.71,22.91 -15.3,3.85 -25.77,-0.61 -36.26,-5.09 -5.74,-2.45 -11.5,-4.92 -17.41,-4.95 -5.98,-0.04 -12.18,2.37 -18.4,4.79 -11.33,4.4 -22.73,8.83 -37.99,4.49 -15.22,-4.32 -22.05,-13.43 -28.91,-22.57 -3.73,-4.97 -7.47,-9.96 -12.62,-12.98 -5.07,-2.97 -11.67,-3.99 -18.3,-5.01l-0.32 -0.05c-11.9,-1.84 -23.86,-3.78 -34.85,-15.1 -11.04,-11.38 -12.4,-22.67 -13.77,-34 -0.74,-6.18 -1.49,-12.38 -4.42,-17.54 -2.95,-5.17 -8.12,-9.33 -13.32,-13.5 -9.48,-7.62 -19.03,-15.28 -22.92,-30.72 -3.85,-15.3 0.62,-25.77 5.1,-36.26 2.45,-5.74 4.91,-11.5 4.95,-17.41 0.03,-5.98 -2.37,-12.18 -4.79,-18.4 -4.4,-11.33 -8.83,-22.73 -4.5,-37.99 4.32,-15.21 13.43,-22.05 22.57,-28.9 4.97,-3.74 9.96,-7.48 12.98,-12.63 2.97,-5.07 3.99,-11.67 5.01,-18.3l0.06 -0.32c1.83,-11.9 3.77,-23.86 15.09,-34.85 11.38,-11.04 22.67,-12.4 34,-13.77 6.19,-0.74 12.39,-1.49 17.54,-4.42 5.18,-2.95 9.33,-8.12 13.51,-13.32 7.61,-9.48 15.27,-19.03 30.71,-22.91 15.31,-3.86 25.77,0.61 36.26,5.09 5.74,2.45 11.5,4.91 17.41,4.95zm25.59 13.8c-7.96,3.1 -15.9,6.18 -25.67,6.12 -10.05,-0.07 -17.61,-3.3 -25.14,-6.51 -7.4,-3.16 -14.77,-6.31 -23.61,-4.08 -8.94,2.25 -14.49,9.17 -20.01,16.04 -5.35,6.67 -10.69,13.32 -19.2,18.16 -8.72,4.95 -16.89,5.94 -25.05,6.92 -7.98,0.97 -15.94,1.93 -22.43,8.23 -6.53,6.33 -7.92,14.98 -9.25,23.59l-0.04 0.33c-1.3,8.42 -2.6,16.8 -7.59,25.32 -5.04,8.61 -11.64,13.56 -18.22,18.49 -6.42,4.82 -12.82,9.62 -15.3,18.36 -2.54,8.92 0.68,17.19 3.87,25.41 3.1,7.97 6.18,15.9 6.12,25.67 -0.07,10.05 -3.3,17.61 -6.51,25.14 -3.16,7.4 -6.31,14.77 -4.08,23.61 2.25,8.94 9.17,14.49 16.04,20.01 6.67,5.36 13.32,10.7 18.16,19.21 4.95,8.71 5.94,16.89 6.92,25.04 0.97,7.98 1.93,15.94 8.23,22.43 6.33,6.53 14.98,7.93 23.59,9.25l0.33 0.05c8.41,1.29 16.8,2.59 25.32,7.58 8.61,5.05 13.56,11.64 18.49,18.22 4.82,6.42 9.62,12.82 18.36,15.3 8.92,2.54 17.19,-0.67 25.41,-3.87 7.97,-3.09 15.9,-6.17 25.67,-6.11 10.05,0.06 17.61,3.29 25.14,6.51 7.4,3.15 14.77,6.3 23.61,4.08 8.94,-2.26 14.49,-9.17 20.01,-16.04 5.36,-6.68 10.7,-13.32 19.21,-18.17 8.71,-4.95 16.88,-5.94 25.04,-6.92 7.98,-0.96 15.94,-1.92 22.43,-8.22 6.53,-6.34 7.92,-14.98 9.25,-23.6l0.05 -0.32c1.29,-8.42 2.59,-16.81 7.58,-25.33 5.05,-8.61 11.64,-13.55 18.22,-18.49 6.42,-4.81 12.82,-9.62 15.3,-18.36 2.54,-8.92 -0.68,-17.19 -3.87,-25.41 -3.09,-7.96 -6.18,-15.9 -6.11,-25.67 0.06,-10.04 3.29,-17.6 6.51,-25.14 3.15,-7.39 6.3,-14.76 4.07,-23.61 -2.25,-8.93 -9.16,-14.49 -16.04,-20.01 -6.67,-5.35 -13.31,-10.69 -18.16,-19.2 -4.95,-8.72 -5.94,-16.89 -6.92,-25.04 -0.96,-7.99 -1.92,-15.94 -8.22,-22.44 -6.34,-6.53 -14.99,-7.92 -23.6,-9.25l-0.33 -0.04c-8.41,-1.3 -16.8,-2.6 -25.32,-7.59 -8.61,-5.04 -13.56,-11.64 -18.49,-18.22 -4.82,-6.42 -9.62,-12.82 -18.36,-15.3 -8.92,-2.53 -17.19,0.68 -25.41,3.87z"/>
   <path class="fil0" d="M3604.62 -207.08c42.09,0 80.2,17.06 107.79,44.65 27.58,27.58 44.64,65.69 44.64,107.78 0,42.09 -17.06,80.2 -44.64,107.79 -27.59,27.58 -65.7,44.64 -107.79,44.64 -42.09,0 -80.2,-17.06 -107.78,-44.64 -27.59,-27.59 -44.65,-65.7 -44.65,-107.79 0,-42.09 17.06,-80.2 44.65,-107.78 27.58,-27.59 65.69,-44.65 107.78,-44.65zm93.65 58.79c-23.97,-23.97 -57.08,-38.79 -93.65,-38.79 -36.57,0 -69.68,14.82 -93.64,38.79 -23.97,23.96 -38.79,57.07 -38.79,93.64 0,36.57 14.82,69.68 38.79,93.65 23.96,23.96 57.07,38.78 93.64,38.78 36.57,0 69.68,-14.82 93.65,-38.78 23.96,-23.97 38.78,-57.08 38.78,-93.65 0,-36.57 -14.82,-69.68 -38.78,-93.64z"/>
   <path class="fil0" d="M3608.3 -73.75c-5.53,0 -10.01,-4.47 -10.01,-10 0,-5.52 4.48,-10 10.01,-10l10.18 0 5.39 -20.12c0.37,-1.35 0.31,-2.68 -0.09,-3.85l-0.12 -0.28c-0.52,-1.25 -1.47,-2.35 -2.78,-3.1l-0.53 -0.31c-1.3,-0.76 -2.72,-1.03 -4.05,-0.86 -1.3,0.17 -2.59,0.82 -3.67,1.9l-37.8 37.8 -0.02 -0.02c-2.91,2.91 -6.16,5.11 -9.73,6.58l0 -0.01 -0.04 0.01c-3.63,1.51 -7.47,2.26 -11.51,2.26l-28.43 0c-5.52,0 -10,-4.47 -10,-10 0,-5.52 4.48,-10 10,-10l28.43 0c1.49,0 2.79,-0.23 3.9,-0.68l0 -0.01c1.17,-0.49 2.26,-1.23 3.26,-2.23l0.02 -0.02 -0.02 -0.02 37.8 -37.8c4.23,-4.23 9.59,-6.78 15.23,-7.52 5.6,-0.74 11.43,0.34 16.63,3.35l0.53 0.31c5.21,3.01 9.06,7.51 11.22,12.72l0.24 0.64c1.95,5.07 2.32,10.73 0.83,16.3l-4.01 14.96 23.92 0c2.07,0 4.14,0.22 6.18,0.62 6.33,1.27 12.36,4.49 16.83,8.95 4.91,4.9 8.05,11.29 8.05,18.41 0,1.55 -0.16,3.14 -0.48,4.75l-10.06 50.39c-1.55,7.78 -5.02,15.08 -10.31,20.37 -0.21,0.21 -0.43,0.41 -0.66,0.6 -5.12,4.86 -11.69,7.85 -19.61,7.85l-127.92 0c-5.52,0 -10,-4.47 -10,-10 0,-5.52 4.48,-10 10,-10l15.74 0c-1.12,-3.13 -1.73,-6.49 -1.73,-10l0 -30.78c0,-5.52 4.48,-10 10,-10 5.52,0 10,4.48 10,10l0 30.78c0,2.77 1.12,5.27 2.92,7.08 1.81,1.8 4.32,2.92 7.08,2.92l83.91 0c2.3,0 4.23,-0.84 5.78,-2.22l0.35 -0.37c2.39,-2.39 4.03,-6.05 4.84,-10.14l10.06 -50.38c0.06,-0.29 0.09,-0.57 0.09,-0.85 0,-1.48 -0.83,-2.99 -2.11,-4.27 -1.72,-1.71 -4.11,-2.97 -6.68,-3.48 -0.75,-0.15 -1.51,-0.23 -2.27,-0.23l-54.78 0z"/>
   <path class="fil0" d="M3682.23 110.02c0,-5.52 4.48,-10 10,-10 5.52,0 10,4.48 10,10l0 130.06c0,5.52 -4.48,10 -10,10 -2.41,0 -4.62,-0.85 -6.34,-2.27l-81.27 -56.39 -81.95 56.86c-4.52,3.13 -10.73,1.99 -13.86,-2.54 -1.2,-1.73 -1.77,-3.71 -1.77,-5.66l-0.03 0 0 -130.06c0,-5.52 4.48,-10 10,-10 5.52,0 10,4.48 10,10l0 110.99 71.77 -49.81c3.33,-2.4 7.94,-2.58 11.5,-0.12l71.95 49.93 0 -110.99z"/>
  </g>
  <path class="fil0" d="M3463.33 971.56l-60.28 0c-7.8,0 -14.9,-3.2 -20.05,-8.34l-0.02 -0.02 -0.02 0.02c-5.15,-5.15 -8.34,-12.26 -8.34,-20.09l0 -42.1c-2.78,1.58 -5.75,2.87 -8.89,3.84 -4.24,1.31 -8.68,2.02 -13.23,2.02 -12.37,0 -23.57,-5.02 -31.68,-13.13 -8.11,-8.11 -13.13,-19.31 -13.13,-31.69 0,-12.37 5.02,-23.57 13.13,-31.68 8.11,-8.11 19.31,-13.13 31.68,-13.13 4.55,0 8.99,0.71 13.23,2.02 3.14,0.97 6.11,2.26 8.89,3.84l0 -42.1c0,-7.83 3.19,-14.94 8.34,-20.09 5.15,-5.15 12.26,-8.34 20.09,-8.34l42.1 0c-1.58,-2.78 -2.88,-5.76 -3.84,-8.89 -1.31,-4.24 -2.02,-8.69 -2.02,-13.23 0,-12.37 5.02,-23.57 13.13,-31.68 8.11,-8.11 19.31,-13.13 31.68,-13.13 12.38,0 23.58,5.02 31.69,13.13 8.11,8.11 13.13,19.31 13.13,31.68 0,4.54 -0.71,8.99 -2.02,13.23 -0.97,3.13 -2.26,6.11 -3.84,8.89l42.1 0c7.83,0 14.94,3.2 20.08,8.34 0.23,0.22 0.44,0.45 0.63,0.69 4.78,5.11 7.72,11.94 7.72,19.4l0 30.28 57.2 99.07c4.08,7.07 6.63,14.44 7.63,22.07 1.01,7.64 0.46,15.4 -1.64,23.25l-31.6 117.91 0 108.49c0,5.53 -4.48,10 -10,10 -5.52,0 -10,-4.47 -10,-10l0 -109.75c0,-1.09 0.17,-2.14 0.5,-3.12l31.8 -118.69c1.44,-5.37 1.83,-10.55 1.18,-15.51 -0.65,-4.97 -2.37,-9.85 -5.13,-14.65l-39.94 -69.17 0 65.18c0,5.38 -1,10.47 -2.97,15.24 -1.99,4.81 -4.9,9.13 -8.7,12.93l-23.82 23.82c-3.16,3.16 -7.07,5.21 -11.26,6.04 -4.13,0.82 -8.49,0.42 -12.64,-1.31l-0.68 -0.3c-3.83,-1.74 -6.95,-4.43 -9.17,-7.74 -2.38,-3.56 -3.69,-7.75 -3.69,-12.2l0 -43.96c0,-5.12 -2.11,-9.78 -5.49,-13.17l-0.42 -0.44c-3.32,-3.13 -7.82,-5.05 -12.76,-5.05 -5.12,0 -9.79,2.1 -13.18,5.49l-0.43 0.41c-3.13,3.33 -5.06,7.82 -5.06,12.76l0 61.91c0,2.77 0.22,5.27 0.67,7.62 0.47,2.41 1.2,4.79 2.2,7.29l30.53 75.63c2.63,6.5 5.12,12.83 6.76,19.73 1.76,7.34 2.42,14.83 1.06,22.86l-13.53 79.79c-0.91,5.44 -6.05,9.11 -11.49,8.21 -5.43,-0.91 -9.1,-6.05 -8.2,-11.49l13.53 -79.8c0.88,-5.16 0.43,-10.08 -0.74,-14.96 -1.27,-5.31 -3.52,-11.01 -5.9,-16.91l-30.53 -75.64c-1.5,-3.71 -2.58,-7.29 -3.29,-10.96 -0.68,-3.49 -1.02,-6.97 -1.06,-10.62zm-60.28 -20l60.27 0 0 -42.66c0,-10.29 4.11,-19.7 10.77,-26.67 0.18,-0.22 0.38,-0.44 0.58,-0.64 7,-7 16.68,-11.35 27.32,-11.35 10.3,0 19.71,4.1 26.68,10.76 0.21,0.19 0.43,0.38 0.64,0.59 7,7 11.35,16.67 11.35,27.31l0 43.96c0,0.48 0.09,0.86 0.25,1.11 0.16,0.23 0.39,0.44 0.69,0.6l0.25 0.1c0.4,0.16 0.8,0.2 1.16,0.13 0.3,-0.06 0.63,-0.25 0.95,-0.57l23.82 -23.82c2.01,-2.01 3.47,-4.13 4.4,-6.37 0.94,-2.26 1.41,-4.82 1.41,-7.66l0 -135.36c0,-2.16 -0.8,-4.12 -2.11,-5.59l-0.38 -0.36c-1.53,-1.53 -3.63,-2.48 -5.94,-2.48l-45.76 0c-3.35,0 -6.52,-0.9 -9.28,-2.57 -2.74,-1.65 -5.01,-4.04 -6.59,-7.03 -1.52,-2.9 -2.21,-6.02 -2.08,-9.12l0.02 -0.29c0.19,-3.2 1.23,-6.31 3.13,-9.07 1.4,-2.05 2.51,-4.3 3.24,-6.67 0.7,-2.27 1.08,-4.74 1.08,-7.37 0,-6.85 -2.78,-13.05 -7.27,-17.54 -4.49,-4.49 -10.69,-7.27 -17.55,-7.27 -6.85,0 -13.06,2.78 -17.54,7.27 -4.49,4.49 -7.27,10.69 -7.27,17.54 0,2.63 0.38,5.11 1.08,7.37 0.73,2.37 1.83,4.62 3.24,6.67 1.89,2.76 2.94,5.89 3.13,9.11 0.18,3.19 -0.5,6.4 -2.07,9.37 -1.58,2.99 -3.84,5.38 -6.58,7.03 -2.76,1.67 -5.93,2.57 -9.28,2.57l-45.76 0c-2.31,0 -4.42,0.95 -5.95,2.48 -1.53,1.53 -2.48,3.64 -2.48,5.95l0 45.76c0,3.35 -0.9,6.52 -2.57,9.28 -1.65,2.74 -4.04,5.01 -7.03,6.58 -2.97,1.57 -6.18,2.25 -9.37,2.07 -3.22,-0.19 -6.35,-1.24 -9.11,-3.13 -2.05,-1.4 -4.3,-2.51 -6.67,-3.24 -2.27,-0.7 -4.74,-1.08 -7.37,-1.08 -6.85,0 -13.05,2.78 -17.54,7.27 -4.49,4.49 -7.27,10.69 -7.27,17.54 0,6.86 2.78,13.06 7.27,17.55 4.49,4.49 10.69,7.27 17.54,7.27 2.63,0 5.1,-0.38 7.37,-1.08 2.37,-0.74 4.62,-1.84 6.67,-3.24 2.76,-1.89 5.88,-2.94 9.11,-3.13 3.19,-0.19 6.4,0.5 9.37,2.07 2.99,1.57 5.38,3.84 7.03,6.58 1.67,2.76 2.57,5.93 2.57,9.28l0 45.76c0,2.31 0.95,4.41 2.48,5.95l-0.02 0.01c1.53,1.52 3.64,2.47 5.97,2.47zm-247.81 77.39l29.78 -29.77c-3.11,-0.85 -6.12,-2.04 -8.99,-3.55 -3.93,-2.07 -7.57,-4.72 -10.8,-7.94 -8.75,-8.75 -13.12,-20.22 -13.12,-31.69 0,-11.47 4.37,-22.94 13.12,-31.69 8.75,-8.75 20.22,-13.12 31.69,-13.12 11.47,0 22.94,4.37 31.69,13.12 3.22,3.23 5.87,6.87 7.94,10.8 1.51,2.87 2.7,5.88 3.55,8.99l29.78 -29.78c0.21,-0.22 0.44,-0.42 0.67,-0.62 5.45,-5.12 12.45,-7.68 19.43,-7.68 7.25,0 14.52,2.77 20.06,8.3l0.02 0.02 0.02 -0.02 32.35 32.36c2.36,2.36 3.96,5.24 4.75,8.4 0.76,3.1 0.68,6.37 -0.31,9.58 -1.01,3.25 -2.8,6.02 -5.18,8.14 -2.38,2.12 -5.34,3.58 -8.7,4.2 -2.37,0.44 -4.73,1.26 -6.97,2.44 -2.15,1.14 -4.16,2.6 -5.95,4.39l-0.02 0.02 0.02 0.02c-4.84,4.84 -7.27,11.2 -7.27,17.55 0,6.35 2.43,12.7 7.27,17.54 4.84,4.85 11.19,7.27 17.54,7.27 6.36,0 12.71,-2.42 17.55,-7.27 1.85,-1.84 3.32,-3.85 4.43,-5.95 1.18,-2.24 2,-4.6 2.44,-6.97l0.01 -0.04c0.61,-3.32 2.07,-6.27 4.19,-8.66 2.12,-2.38 4.9,-4.18 8.14,-5.18 3.21,-0.99 6.49,-1.07 9.59,-0.3 3.11,0.76 5.98,2.37 8.37,4.76l0.02 -0.02 32.36 32.35c0.22,0.22 0.42,0.45 0.62,0.68 5.12,5.45 7.68,12.45 7.68,19.42 0,7.26 -2.77,14.53 -8.3,20.06l-0.02 0.02 0.02 0.02 -114.63 114.64c-5.54,5.53 -12.83,8.3 -20.1,8.3 -7.28,0 -14.57,-2.77 -20.1,-8.3l-114.64 -114.64c-0.22,-0.21 -0.42,-0.44 -0.61,-0.67 -5.13,-5.45 -7.69,-12.45 -7.69,-19.43 0,-7.25 2.77,-14.52 8.3,-20.06l0.02 -0.01 -0.02 -0.03zm46.5 -18.21l-32.36 32.35 -0.02 -0.01c-1.61,1.62 -2.42,3.79 -2.42,5.97 0,2.03 0.7,4.05 2.09,5.63l114.99 114.97c1.62,1.63 3.79,2.44 5.96,2.44 2.16,0 4.33,-0.81 5.96,-2.44l114.63 -114.64 0.02 0.02c1.61,-1.63 2.42,-3.79 2.42,-5.98 0,-2.03 -0.7,-4.04 -2.09,-5.62l-30.13 -30.11c-0.85,3.1 -2.03,6.12 -3.54,8.99 -2.07,3.92 -4.73,7.57 -7.95,10.79 -8.75,8.75 -20.22,13.13 -31.69,13.13 -11.46,0 -22.93,-4.38 -31.68,-13.13 -8.75,-8.75 -13.13,-20.22 -13.13,-31.68 0,-11.47 4.38,-22.94 13.13,-31.69l0.02 0.02c3.27,-3.27 6.91,-5.92 10.77,-7.96 2.87,-1.52 5.89,-2.7 8.99,-3.55l-29.77 -29.78 0.01 -0.02c-1.62,-1.61 -3.79,-2.42 -5.97,-2.42 -2.04,0 -4.05,0.7 -5.63,2.09l-32.69 32.71c-2.36,2.36 -5.24,3.96 -8.4,4.74 -3.1,0.77 -6.37,0.69 -9.58,-0.31 -3.25,-1 -6.02,-2.79 -8.14,-5.18 -2.12,-2.38 -3.58,-5.34 -4.2,-8.69 -0.45,-2.38 -1.26,-4.73 -2.44,-6.97 -1.11,-2.1 -2.59,-4.11 -4.43,-5.96 -4.85,-4.84 -11.2,-7.26 -17.55,-7.26 -6.35,0 -12.7,2.42 -17.55,7.26 -4.84,4.85 -7.26,11.2 -7.26,17.55 0,6.35 2.42,12.7 7.26,17.55 1.85,1.84 3.86,3.32 5.96,4.42 2.24,1.19 4.59,2 6.97,2.45 3.35,0.62 6.31,2.08 8.69,4.19 2.39,2.13 4.18,4.9 5.18,8.15 1,3.2 1.08,6.48 0.31,9.58 -0.69,2.79 -2.05,5.39 -4.02,7.6 -0.23,0.28 -0.47,0.54 -0.72,0.8z"/>
  <path class="fil0" d="M-15.34 -1222.9l175.27 0c8.15,0 15.57,3.34 20.95,8.72l0.04 0.04c5.38,5.38 8.72,12.8 8.72,20.96 0,51.85 0,103.7 0,155.55 0,8.15 -3.34,15.57 -8.72,20.95l-0.04 0.04c-5.38,5.38 -12.8,8.72 -20.95,8.72l-25.7 0c0.17,1.69 0.26,3.36 0.26,5.01 0,14.44 -5.86,27.53 -15.33,37.01 -9.47,9.47 -22.56,15.33 -37.01,15.33 -14.45,0 -27.54,-5.86 -37.01,-15.33 -9.47,-9.48 -15.33,-22.57 -15.33,-37.01 0,-1.65 0.09,-3.32 0.26,-5.01l-45.41 0c-5.53,0 -10,-4.47 -10,-10l0 -57.88c0,-5.53 4.47,-10 10,-10 1.47,0 2.87,0.32 4.13,0.89 1.65,0.59 3.33,1.04 5.03,1.35l0.28 0.06c1.69,0.28 3.54,0.43 5.56,0.43 8.93,0 17.02,-3.62 22.87,-9.47 5.85,-5.85 9.47,-13.94 9.47,-22.87 0,-8.93 -3.62,-17.02 -9.47,-22.87 -5.85,-5.85 -13.94,-9.47 -22.87,-9.47 -2.13,0 -4.08,0.17 -5.84,0.49 -1.92,0.36 -3.81,0.89 -5.65,1.59 -5.15,1.94 -10.91,-0.67 -12.85,-5.82 -0.43,-1.16 -0.64,-2.35 -0.64,-3.52l-0.02 0 0 -57.89c0,-5.52 4.47,-10 10,-10zm-199.52 102.04c5.52,0 10,4.48 10,10 0,5.52 -4.48,10 -10,10 -5.52,0 -10,-4.48 -10,-10 0,-5.52 4.48,-10 10,-10zm48.74 20c-5.52,0 -10,-4.48 -10,-10 0,-5.52 4.48,-10 10,-10l48.75 0c5.52,0 10,4.48 10,10l0 45.41c1.69,-0.17 3.35,-0.26 5,-0.26 14.45,0 27.54,5.86 37.01,15.33 9.47,9.47 15.33,22.56 15.33,37.01 0,14.45 -5.86,27.54 -15.33,37.01 -9.47,9.47 -22.56,15.33 -37.01,15.33 -1.65,0 -3.31,-0.09 -5,-0.26l0 35.41 57.89 0c5.52,0 10,4.48 10,10 0,1.47 -0.32,2.88 -0.89,4.14 -0.59,1.64 -1.04,3.32 -1.35,5.02l-0.06 0.28c-0.29,1.69 -0.44,3.54 -0.44,5.56 0,8.93 3.62,17.02 9.47,22.87 5.86,5.85 13.94,9.47 22.87,9.47 8.94,0 17.02,-3.62 22.87,-9.47 5.85,-5.85 9.47,-13.94 9.47,-22.87 0,-2.13 -0.16,-4.08 -0.48,-5.84 -0.36,-1.91 -0.89,-3.8 -1.59,-5.64 -1.94,-5.16 0.66,-10.91 5.82,-12.86 1.16,-0.43 2.35,-0.64 3.52,-0.64l0 -0.02 28.17 0c8.15,0 15.57,3.34 20.96,8.72l0.03 0.04c5.38,5.38 8.73,12.8 8.73,20.96l0 155.54c0,8.16 -3.35,15.58 -8.73,20.96l-0.03 0.04c-5.39,5.38 -12.81,8.72 -20.96,8.72l-175.27 0 -175.27 0c-8.15,0 -15.57,-3.34 -20.96,-8.72l-0.03 -0.04c-5.38,-5.38 -8.73,-12.8 -8.73,-20.96l0 -155.54c0,-7.55 2.87,-14.47 7.56,-19.72 -4.69,-5.25 -7.56,-12.17 -7.56,-19.72l0 -155.54c0,-8.16 3.35,-15.58 8.73,-20.96l0.03 -0.04c5.39,-5.38 12.81,-8.72 20.96,-8.72l29.03 0c5.52,0 10,4.48 10,10 0,5.52 -4.48,10 -10,10l-29.03 0c-2.68,0 -5.11,1.09 -6.87,2.84 -1.76,1.76 -2.84,4.2 -2.84,6.88l0 155.54c0,2.68 1.08,5.12 2.84,6.88 1.76,1.75 4.19,2.84 6.87,2.84l38.18 0c5.52,0 10,4.48 10,10 0,1.47 -0.32,2.88 -0.9,4.14 -0.58,1.64 -1.04,3.32 -1.35,5.02l-0.06 0.28c-0.28,1.69 -0.43,3.54 -0.43,5.56 0,8.93 3.62,17.02 9.47,22.87 5.85,5.85 13.94,9.47 22.87,9.47 8.93,0 17.02,-3.62 22.87,-9.47 5.85,-5.85 9.47,-13.94 9.47,-22.87 0,-2.13 -0.17,-4.08 -0.49,-5.84 -0.35,-1.91 -0.89,-3.8 -1.59,-5.64 -1.94,-5.16 0.67,-10.91 5.82,-12.86 1.16,-0.43 2.35,-0.64 3.52,-0.64l0 -0.02 47.89 0 0 -47.89c0,-5.52 4.48,-10 10,-10 1.48,0 2.88,0.32 4.14,0.89 1.64,0.59 3.32,1.05 5.02,1.36l0.29 0.05c1.68,0.29 3.54,0.44 5.55,0.44 8.93,0 17.02,-3.62 22.87,-9.47 5.85,-5.85 9.47,-13.94 9.47,-22.87 0,-8.93 -3.62,-17.02 -9.47,-22.87 -5.85,-5.85 -13.94,-9.47 -22.87,-9.47 -2.13,0 -4.08,0.17 -5.84,0.49 -1.91,0.35 -3.8,0.88 -5.64,1.58 -5.16,1.94 -10.91,-0.66 -12.86,-5.82 -0.43,-1.16 -0.64,-2.34 -0.64,-3.51l-0.02 0 0 -47.89 -38.75 0zm335.76 -92.32c0,-2.68 -1.09,-5.11 -2.84,-6.88 -1.76,-1.75 -4.19,-2.84 -6.87,-2.84l-165.27 0 0 35.41c1.68,-0.17 3.35,-0.26 5,-0.26 14.45,0 27.54,5.86 37.01,15.33 9.47,9.47 15.33,22.56 15.33,37.01 0,14.45 -5.86,27.54 -15.33,37.01 -9.47,9.47 -22.56,15.33 -37.01,15.33 -1.65,0 -3.32,-0.08 -5,-0.25l0 35.4 47.89 0 0 0.02c1.17,0 2.35,0.21 3.51,0.65 5.16,1.94 7.76,7.69 5.82,12.85 -0.7,1.84 -1.23,3.73 -1.58,5.64 -0.32,1.76 -0.49,3.71 -0.49,5.85 0,8.93 3.62,17.01 9.47,22.86 5.85,5.85 13.94,9.47 22.87,9.47 8.93,0 17.02,-3.62 22.87,-9.47 5.85,-5.85 9.47,-13.93 9.47,-22.86 0,-2.02 -0.15,-3.88 -0.44,-5.56l-0.05 -0.29c-0.31,-1.7 -0.77,-3.38 -1.36,-5.02 -0.57,-1.26 -0.89,-2.66 -0.89,-4.14 0,-5.52 4.48,-10 10,-10l38.18 0c2.68,0 5.11,-1.09 6.87,-2.84 1.75,-1.76 2.84,-4.19 2.84,-6.87 0,-51.85 0,-103.7 0,-155.55zm-277.01 462.28l165.27 0c2.68,0 5.11,-1.09 6.87,-2.84 1.76,-1.76 2.84,-4.2 2.84,-6.88l0 -155.54c0,-2.68 -1.08,-5.12 -2.84,-6.88 -1.76,-1.75 -4.19,-2.84 -6.87,-2.84l-15.69 0c0.17,1.69 0.25,3.35 0.25,5 0,14.45 -5.86,27.54 -15.33,37.01 -9.47,9.47 -22.55,15.33 -37.01,15.33 -14.45,0 -27.53,-5.86 -37.01,-15.33 -9.47,-9.47 -15.33,-22.56 -15.33,-37.01 0,-1.65 0.09,-3.31 0.26,-5l-45.41 0 0 35.41c1.69,-0.17 3.35,-0.26 5,-0.26 14.45,0 27.54,5.86 37.01,15.33 9.47,9.47 15.33,22.56 15.33,37.01 0,14.45 -5.86,27.54 -15.33,37.01 -9.47,9.47 -22.56,15.33 -37.01,15.33 -1.65,0 -3.31,-0.09 -5,-0.26l0 35.41zm-185.27 -174.98c-2.68,0 -5.11,1.09 -6.87,2.84 -1.76,1.76 -2.84,4.2 -2.84,6.88l0 155.54c0,2.68 1.08,5.12 2.84,6.88 1.76,1.75 4.19,2.84 6.87,2.84l165.27 0 0 -47.89c0,-5.52 4.48,-10 10,-10 1.48,0 2.88,0.32 4.14,0.89 1.64,0.59 3.32,1.05 5.02,1.36l0.29 0.05c1.68,0.29 3.54,0.44 5.55,0.44 8.93,0 17.02,-3.62 22.87,-9.47 5.85,-5.85 9.47,-13.94 9.47,-22.87 0,-8.93 -3.62,-17.02 -9.47,-22.87 -5.85,-5.85 -13.94,-9.47 -22.87,-9.47 -2.13,0 -4.08,0.17 -5.84,0.48 -1.91,0.36 -3.8,0.89 -5.64,1.59 -5.16,1.94 -10.91,-0.66 -12.86,-5.82 -0.43,-1.16 -0.64,-2.34 -0.64,-3.51l-0.02 0 0 -47.89 -35.41 0c0.17,1.69 0.26,3.35 0.26,5 0,14.45 -5.86,27.54 -15.33,37.01 -9.48,9.47 -22.56,15.33 -37.01,15.33 -14.45,0 -27.54,-5.86 -37.01,-15.33 -9.47,-9.47 -15.33,-22.56 -15.33,-37.01 0,-1.65 0.08,-3.31 0.26,-5l-25.7 0z"/>
  <path class="fil0" d="M887.38 -840.43c1.84,-2.23 4.62,-3.66 7.74,-3.66 2.92,0 5.55,1.26 7.38,3.26l21.56 20.44c3.99,3.8 4.15,10.12 0.35,14.11 -3.79,3.99 -10.11,4.14 -14.1,0.35l-3.81 -3.61c4.43,39.05 19.29,74.92 41.74,104.73 27.72,36.82 67.03,64.46 112.52,77.51 5.31,1.51 8.39,7.04 6.88,12.34 -1.51,5.31 -7.04,8.39 -12.35,6.88 -49.69,-14.26 -92.66,-44.48 -122.99,-84.78 -25.14,-33.38 -41.58,-73.65 -45.99,-117.44l-4.89 5.16c-3.8,3.99 -10.11,4.15 -14.1,0.35 -3.99,-3.8 -4.15,-10.11 -0.36,-14.11l20.42 -21.53zm422.3 -95.66c-0.23,-0.31 -0.43,-0.64 -0.62,-0.99 -2.65,-4.84 -0.86,-10.92 3.99,-13.57 4.85,-2.64 10.92,-0.85 13.57,4l0 -0.01c14.69,26.86 24.3,56.89 27.51,88.79l4.88 -5.15c3.8,-4 10.12,-4.16 14.11,-0.36 3.99,3.8 4.15,10.11 0.35,14.11l-20.42 21.53c-1.83,2.23 -4.62,3.66 -7.73,3.66 -2.93,0 -5.56,-1.26 -7.38,-3.26l-21.57 -20.44c-3.99,-3.8 -4.14,-10.11 -0.35,-14.1 3.8,-3.99 10.12,-4.15 14.11,-0.35l3.81 3.61c-3.15,-27.78 -11.58,-53.95 -24.26,-77.47zm-11.63 -51.78c3.61,4.18 3.15,10.5 -1.03,14.11 -4.17,3.61 -10.49,3.15 -14.1,-1.03 -3.62,-4.17 -3.16,-10.49 1.02,-14.1 4.18,-3.62 10.49,-3.16 14.11,1.02zm-37.82 -35.08c4.44,3.29 5.37,9.55 2.08,13.99 -3.29,4.44 -9.56,5.37 -13.99,2.08 -0.23,-0.17 -0.45,-0.34 -0.65,-0.52 -20.25,-14.91 -43.2,-26.35 -68,-33.47 -5.3,-1.51 -8.38,-7.03 -6.87,-12.34 1.51,-5.31 7.04,-8.39 12.34,-6.88 27.17,7.8 52.32,20.36 74.5,36.74 0.2,0.12 0.4,0.26 0.59,0.4zm-111.07 427.66c3.99,3.8 4.15,10.12 0.35,14.11 -3.8,3.99 -10.11,4.14 -14.1,0.35l-21.53 -20.42c-2.24,-1.83 -3.66,-4.62 -3.66,-7.73 0,-2.93 1.25,-5.56 3.25,-7.39l20.44 -21.56c3.8,-3.99 10.12,-4.14 14.11,-0.35 3.99,3.8 4.15,10.11 0.35,14.11l-3.61 3.8c39.05,-4.42 74.92,-19.29 104.73,-41.73 36.82,-27.72 64.46,-67.04 77.51,-112.53 1.51,-5.3 7.04,-8.38 12.34,-6.87 5.31,1.51 8.39,7.03 6.88,12.34 -14.25,49.7 -44.48,92.66 -84.78,123 -33.38,25.13 -73.65,41.58 -117.44,45.99l5.16 4.88zm-57.88 -477.59c-4,-3.8 -4.15,-10.12 -0.35,-14.11 3.79,-3.99 10.11,-4.14 14.1,-0.35l21.53 20.42c2.23,1.84 3.66,4.62 3.66,7.73 0,2.93 -1.26,5.56 -3.26,7.39l-20.44 21.56c-3.8,3.99 -10.11,4.14 -14.1,0.35 -3.99,-3.8 -4.15,-10.11 -0.35,-14.1l3.61 -3.81c-39.06,4.43 -74.92,19.29 -104.74,41.74 -36.82,27.72 -64.45,67.03 -77.5,112.52 -1.51,5.31 -7.04,8.38 -12.35,6.88 -5.31,-1.52 -8.38,-7.04 -6.88,-12.35 14.26,-49.69 44.49,-92.66 84.78,-123 33.38,-25.13 73.65,-41.57 117.44,-45.98l-5.15 -4.89zm34.03 151.55l33.97 19.62 0.51 0.31 32.99 19.05c1.7,0.84 3.18,2.17 4.2,3.93 0.91,1.58 1.34,3.31 1.34,5l0.02 0.01 0 78.66c0,4.04 -2.4,7.52 -5.85,9.1l-33.22 19.18 0.01 0.01 -33.46 19.32c-1.6,1.09 -3.53,1.72 -5.6,1.72 -2.08,0 -4.01,-0.63 -5.6,-1.72l-33.46 -19.32 -0.52 -0.31 -33.51 -19.35c-3.2,-1.84 -4.99,-5.18 -5,-8.63l-0.04 0 0 -78.66c0,-4.05 2.4,-7.53 5.85,-9.11l33.23 -19.18 -0.01 -0.01 34.06 -19.67c3.23,-1.88 7.09,-1.73 10.09,0.05zm23.97 36.88l-29.06 -16.78 -29.06 16.78 -0.01 -0.02 -19.12 11.04 48.19 27.83 48.19 -27.83 -18.58 -10.72 -0.55 -0.3zm29.06 50.37l0 -22.04 -48.12 27.78 0 55.62 19.06 -11 0.01 0.02 29.05 -16.78 0 -33.6zm-87.18 50.36l19.06 11 -0.01 -55.62 -48.12 -27.78 0 55.64 28.51 16.46 0.56 0.3zm54.36 67.99c7.23,-1.54 14.25,-3.73 20.99,-6.53 6.94,-2.88 13.58,-6.4 19.84,-10.49 4.04,-2.64 9.28,-1.99 12.55,1.31l10.57 9.23 22.62 -22.62 -9.68 -11.09c-3.02,-3.45 -3.24,-8.38 -0.85,-12.02l-0.01 -0.02c4.09,-6.26 7.62,-12.9 10.5,-19.84 2.84,-6.86 5.07,-14.01 6.61,-21.38 0.93,-4.49 4.74,-7.64 9.1,-7.93l14.67 -1 0 -31.95 -14.67 -1c-4.72,-0.31 -8.45,-3.86 -9.19,-8.33 -1.54,-7.23 -3.73,-14.25 -6.53,-20.98 -2.87,-6.95 -6.4,-13.59 -10.49,-19.85 -2.64,-4.03 -1.98,-9.28 1.32,-12.55l9.22 -10.57 -22.62 -22.62 -11.09 9.69c-3.45,3.01 -8.37,3.23 -12.02,0.84l-0.02 0.02c-6.26,-4.1 -12.9,-7.62 -19.84,-10.5 -6.86,-2.85 -14.01,-5.07 -21.38,-6.61 -4.48,-0.93 -7.63,-4.75 -7.92,-9.11l-1 -14.67 -31.96 0 -0.99 14.67c-0.32,4.72 -3.86,8.46 -8.34,9.19 -7.23,1.54 -14.24,3.74 -20.97,6.53 -6.95,2.88 -13.59,6.4 -19.85,10.5 -4.04,2.64 -9.28,1.98 -12.55,-1.32l-10.58 -9.23 -22.62 22.62 9.69 11.1c3.01,3.44 3.23,8.37 0.84,12.02l0.02 0.01c-4.09,6.26 -7.62,12.9 -10.5,19.85 -2.84,6.85 -5.07,14 -6.61,21.37 -0.93,4.49 -4.74,7.64 -9.1,7.93l-14.68 1 0 31.95 14.67 1c4.72,0.31 8.45,3.86 9.19,8.33 1.54,7.23 3.74,14.25 6.53,20.98 2.88,6.95 6.4,13.59 10.5,19.85 2.64,4.03 1.98,9.28 -1.32,12.55l-9.23 10.57 22.63 22.62 11.09 -9.69c3.44,-3.01 8.37,-3.23 12.02,-0.84l0.01 -0.01c6.26,4.09 12.9,7.61 19.85,10.49 6.85,2.85 14.01,5.07 21.38,6.61 4.48,0.94 7.63,4.75 7.92,9.11l1 14.67 31.95 0 1 -14.67c0.31,-4.72 3.86,-8.45 8.33,-9.19zm28.64 11.91c-5.66,2.35 -11.51,4.34 -17.54,5.94l-1.1 16.1c-0.04,5.48 -4.5,9.92 -10,9.92l-50.61 0 0 -0.02c-5.21,0 -9.61,-4.04 -9.96,-9.32l-1.13 -16.68c-6.03,-1.6 -11.88,-3.59 -17.54,-5.94 -5.76,-2.38 -11.32,-5.14 -16.65,-8.23l-12.08 10.57c-3.91,3.9 -10.24,3.9 -14.14,0l-35.79 -35.79 0.02 -0.03c-3.68,-3.67 -3.93,-9.63 -0.45,-13.61l10.99 -12.58c-3.09,-5.33 -5.84,-10.89 -8.23,-16.65 -2.34,-5.66 -4.33,-11.52 -5.94,-17.55l-16.1 -1.09c-5.48,-0.05 -9.91,-4.5 -9.91,-10l0 -50.61 0.02 0c-0.01,-5.22 4.04,-9.61 9.32,-9.96l16.67 -1.13c1.61,-6.03 3.6,-11.88 5.94,-17.54 2.39,-5.76 5.14,-11.32 8.23,-16.65l-10.56 -12.08c-3.91,-3.91 -3.91,-10.24 0,-14.14l35.79 -35.79 0.02 0.02c3.68,-3.68 9.64,-3.93 13.61,-0.45l12.59 10.99c5.33,-3.09 10.89,-5.84 16.65,-8.23 5.66,-2.35 11.51,-4.34 17.54,-5.94l1.09 -16.1c0.05,-5.48 4.51,-9.91 10,-9.91l50.61 0 0 0.01c5.22,0 9.61,4.05 9.97,9.32l1.13 16.68c6.02,1.6 11.88,3.59 17.53,5.94 5.77,2.39 11.33,5.14 16.66,8.23l12.08 -10.56c3.9,-3.91 10.23,-3.91 14.14,0l35.79 35.79 -0.03 0.02c3.69,3.68 3.93,9.63 0.46,13.61l-10.99 12.59c3.09,5.32 5.84,10.88 8.22,16.64 2.35,5.66 4.34,11.52 5.95,17.55l16.09 1.09c5.49,0.05 9.92,4.51 9.92,10l0 50.61 -0.02 0c0,5.22 -4.04,9.61 -9.32,9.96l-16.68 1.13c-1.6,6.03 -3.59,11.89 -5.93,17.54 -2.39,5.76 -5.15,11.32 -8.23,16.65l10.56 12.09c3.9,3.9 3.9,10.23 0,14.14l-35.79 35.79 -0.03 -0.03c-3.67,3.69 -9.63,3.93 -13.61,0.46l-12.58 -10.99c-5.33,3.08 -10.89,5.84 -16.65,8.22z"/>
  <path class="fil0" d="M534.59 -1170.42c-5.52,0 -10,-4.48 -10,-10 0,-5.52 4.48,-10 10,-10l10.19 0 5.39 -20.12c0.36,-1.35 0.31,-2.69 -0.09,-3.86l-0.12 -0.27c-0.52,-1.25 -1.47,-2.35 -2.78,-3.11l-0.53 -0.3c-1.3,-0.76 -2.72,-1.04 -4.05,-0.86 -1.3,0.17 -2.59,0.81 -3.68,1.9l-37.79 37.8 -0.02 -0.02c-2.91,2.91 -6.16,5.1 -9.73,6.58l0 -0.01 -0.04 0.01c-3.63,1.5 -7.47,2.26 -11.51,2.26l-28.43 0c-5.52,0 -10,-4.48 -10,-10 0,-5.52 4.48,-10 10,-10l28.43 0c1.49,0 2.79,-0.23 3.9,-0.68l0 -0.02c1.17,-0.48 2.26,-1.23 3.26,-2.22l0.02 -0.02 -0.02 -0.02 37.79 -37.8c4.24,-4.24 9.6,-6.78 15.24,-7.52 5.6,-0.74 11.42,0.34 16.63,3.35l0.53 0.31c5.21,3.01 9.06,7.51 11.21,12.71l0.25 0.65c1.95,5.07 2.32,10.73 0.83,16.3l-4.01 14.96 23.92 0c2.07,0 4.14,0.21 6.18,0.62 6.33,1.27 12.36,4.49 16.83,8.95 4.91,4.9 8.05,11.29 8.05,18.41 0,1.55 -0.16,3.14 -0.48,4.75l-10.06 50.39c-1.55,7.77 -5.02,15.08 -10.31,20.37 -0.21,0.21 -0.43,0.41 -0.66,0.59 -5.13,4.87 -11.69,7.86 -19.61,7.86l-127.92 0c-5.52,0 -10,-4.48 -10,-10 0,-5.52 4.48,-10 10,-10l15.74 0c-1.12,-3.13 -1.73,-6.5 -1.73,-10l0 -30.78c0,-5.53 4.48,-10 10,-10 5.52,0 10,4.47 10,10l0 30.78c0,2.77 1.12,5.27 2.92,7.08 1.81,1.8 4.32,2.92 7.08,2.92l83.91 0c2.3,0 4.23,-0.84 5.78,-2.22l0.35 -0.37c2.39,-2.39 4.03,-6.05 4.84,-10.14l10.06 -50.39c0.06,-0.28 0.09,-0.56 0.09,-0.84 0,-1.49 -0.83,-2.99 -2.11,-4.27 -1.72,-1.71 -4.11,-2.97 -6.68,-3.48 -0.75,-0.15 -1.51,-0.23 -2.27,-0.23l-54.79 0zm-3.63 -176.72c5.98,0.04 12.18,-2.37 18.4,-4.78 11.33,-4.41 22.74,-8.83 37.99,-4.5 15.22,4.32 22.05,13.43 28.91,22.57 3.73,4.97 7.47,9.96 12.63,12.98 5.06,2.97 11.66,3.99 18.29,5.01l0.32 0.05c11.9,1.84 23.86,3.78 34.85,15.1 11.04,11.38 12.4,22.67 13.77,34 0.75,6.19 1.5,12.39 4.43,17.54 2.94,5.18 8.12,9.33 13.31,13.51 9.49,7.61 19.03,15.27 22.92,30.71 3.85,15.3 -0.61,25.77 -5.1,36.26 -2.45,5.74 -4.91,11.5 -4.94,17.41 -0.04,5.98 2.36,12.18 4.78,18.4 4.4,11.33 8.84,22.73 4.5,37.99 -4.32,15.22 -13.43,22.05 -22.57,28.91 -4.97,3.73 -9.96,7.47 -12.98,12.63 -2.97,5.06 -3.99,11.66 -5.01,18.29l-0.06 0.32c-1.83,11.9 -3.77,23.86 -15.09,34.85 -11.38,11.04 -22.67,12.41 -34,13.77 -6.18,0.75 -12.39,1.5 -17.54,4.43l-0.24 0.13 0 124.97c0,5.52 -4.48,10 -10,10 -2.41,0 -4.62,-0.85 -6.34,-2.27l-81.27 -56.39 -81.95 56.86c-4.53,3.13 -10.73,1.99 -13.86,-2.54 -1.2,-1.73 -1.77,-3.71 -1.77,-5.66l-0.03 0 0 -124.97 -0.36 -0.21c-5.06,-2.97 -11.66,-3.99 -18.29,-5.01l-0.32 -0.06c-11.9,-1.83 -23.86,-3.77 -34.85,-15.09 -11.04,-11.38 -12.4,-22.67 -13.77,-34 -0.75,-6.19 -1.49,-12.39 -4.43,-17.54 -2.94,-5.17 -8.12,-9.33 -13.31,-13.51 -9.48,-7.61 -19.03,-15.27 -22.92,-30.71 -3.85,-15.3 0.61,-25.77 5.1,-36.26 2.45,-5.74 4.91,-11.5 4.94,-17.41 0.04,-5.98 -2.36,-12.18 -4.78,-18.4 -4.4,-11.33 -8.83,-22.73 -4.5,-37.99 4.32,-15.22 13.43,-22.05 22.57,-28.91 4.97,-3.73 9.96,-7.47 12.98,-12.63 2.97,-5.06 3.99,-11.66 5.01,-18.29l0.06 -0.32c1.83,-11.9 3.77,-23.86 15.09,-34.85 11.38,-11.04 22.67,-12.41 34,-13.77 6.19,-0.75 12.39,-1.5 17.54,-4.43 5.17,-2.94 9.33,-8.12 13.51,-13.31 7.61,-9.49 15.27,-19.03 30.71,-22.92 15.3,-3.85 25.76,0.61 36.26,5.09 5.74,2.46 11.5,4.92 17.41,4.95zm77.57 386.79c-5.91,6.46 -12.96,12.11 -23.98,14.89 -15.3,3.85 -25.77,-0.61 -36.26,-5.1 -5.74,-2.45 -11.5,-4.91 -17.41,-4.94 -5.98,-0.04 -12.18,2.37 -18.4,4.78 -11.33,4.4 -22.73,8.84 -37.99,4.5 -9.78,-2.78 -16.09,-7.53 -21.18,-13l0 83.56 71.77 -49.81c3.33,-2.4 7.94,-2.58 11.5,-0.12l71.95 49.93 0 -84.69zm-77.61 -343.4c20.93,0 40.87,4.22 59.02,11.85l-0.02 0.03c5.1,2.14 7.49,8 5.35,13.09 -2.14,5.09 -8,7.49 -13.09,5.35 -0.24,-0.1 -0.48,-0.21 -0.71,-0.33 -15.58,-6.44 -32.65,-9.99 -50.55,-9.99 -36.57,0 -69.68,14.82 -93.65,38.79 -23.96,23.96 -38.78,57.07 -38.78,93.64 0,36.57 14.82,69.68 38.78,93.64 23.97,23.97 57.08,38.79 93.65,38.79 36.57,0 69.68,-14.82 93.65,-38.79 23.96,-23.96 38.78,-57.07 38.78,-93.64 0,-18.12 -3.64,-35.39 -10.22,-51.11 -0.12,-0.23 -0.23,-0.47 -0.34,-0.71 -2.16,-5.08 0.21,-10.95 5.3,-13.11 5.08,-2.16 10.95,0.2 13.11,5.29l0.02 -0.04c7.81,18.33 12.13,38.5 12.13,59.68 0,42.09 -17.06,80.2 -44.64,107.78 -27.59,27.59 -65.7,44.65 -107.79,44.65 -42.09,0 -80.2,-17.06 -107.79,-44.65 -27.58,-27.58 -44.64,-65.69 -44.64,-107.78 0,-42.09 17.06,-80.2 44.64,-107.79 27.59,-27.58 65.7,-44.64 107.79,-44.64zm80.78 309.79c0.29,-0.27 0.59,-0.52 0.91,-0.75 1.91,-1.56 4,-3.01 6.32,-4.33 8.71,-4.95 16.88,-5.94 25.04,-6.92 7.98,-0.96 15.94,-1.93 22.43,-8.23 6.53,-6.33 7.92,-14.97 9.25,-23.59l0.05 -0.33c1.29,-8.41 2.59,-16.8 7.58,-25.32 5.04,-8.61 11.64,-13.56 18.22,-18.49 6.42,-4.82 12.82,-9.62 15.3,-18.36 2.54,-8.92 -0.68,-17.19 -3.87,-25.41 -3.09,-7.97 -6.18,-15.9 -6.11,-25.67 0.06,-10.05 3.29,-17.61 6.51,-25.14 3.15,-7.4 6.3,-14.77 4.07,-23.61 -2.25,-8.94 -9.16,-14.49 -16.04,-20.01 -6.67,-5.36 -13.31,-10.69 -18.16,-19.21 -4.95,-8.71 -5.94,-16.88 -6.92,-25.03 -0.96,-7.99 -1.93,-15.95 -8.23,-22.44 -6.33,-6.53 -14.98,-7.92 -23.59,-9.25l-0.33 -0.05c-8.41,-1.29 -16.8,-2.59 -25.32,-7.58 -8.61,-5.04 -13.56,-11.64 -18.49,-18.22 -4.82,-6.42 -9.62,-12.82 -18.36,-15.3 -8.92,-2.54 -17.19,0.68 -25.41,3.87 -7.97,3.09 -15.9,6.18 -25.67,6.11 -10.05,-0.06 -17.61,-3.29 -25.14,-6.51 -7.4,-3.15 -14.77,-6.3 -23.61,-4.07 -8.94,2.25 -14.49,9.17 -20.01,16.04 -5.35,6.67 -10.69,13.31 -19.21,18.16 -8.71,4.95 -16.88,5.94 -25.04,6.92 -7.98,0.96 -15.94,1.93 -22.43,8.22 -6.53,6.34 -7.92,14.98 -9.25,23.6l-0.05 0.33c-1.29,8.41 -2.59,16.8 -7.58,25.32 -5.04,8.61 -11.64,13.56 -18.22,18.49 -6.42,4.82 -12.82,9.62 -15.3,18.36 -2.54,8.92 0.68,17.19 3.87,25.41 3.1,7.97 6.18,15.9 6.12,25.67 -0.07,10.05 -3.3,17.61 -6.52,25.14 -3.15,7.4 -6.3,14.77 -4.07,23.61 2.25,8.94 9.17,14.49 16.04,20.01 6.67,5.36 13.32,10.69 18.16,19.21 4.95,8.71 5.94,16.88 6.92,25.04 0.97,7.98 1.93,15.94 8.23,22.43 6.33,6.53 14.98,7.92 23.59,9.25l0.33 0.05c8.41,1.29 16.8,2.59 25.32,7.58 2,1.17 3.8,2.43 5.45,3.74 0.95,0.58 1.8,1.31 2.5,2.15 4.17,3.84 7.36,8.09 10.54,12.33 4.82,6.42 9.62,12.82 18.36,15.3 8.92,2.54 17.19,-0.68 25.41,-3.87 7.97,-3.09 15.9,-6.18 25.67,-6.11 10.05,0.06 17.61,3.29 25.14,6.51 7.4,3.15 14.77,6.3 23.61,4.07 8.94,-2.25 14.49,-9.17 20.01,-16.04 3.66,-4.56 7.32,-9.11 11.98,-13.08zm27.01 -265.15c-3.91,-3.9 -10.24,-3.9 -14.15,0 -3.9,3.91 -3.9,10.24 0,14.15 3.91,3.9 10.24,3.9 14.15,0 3.9,-3.91 3.9,-10.24 0,-14.15z"/>
  <path class="fil0" d="M316.41 288.68l-60.29 0c-7.79,0 -14.89,-3.19 -20.05,-8.34l-0.01 -0.02 -0.02 0.02c-5.15,-5.15 -8.35,-12.26 -8.35,-20.09l0 -42.1c-2.77,1.58 -5.75,2.87 -8.89,3.84 -4.23,1.31 -8.68,2.02 -13.22,2.02 -12.38,0 -23.58,-5.02 -31.69,-13.13 -8.11,-8.11 -13.13,-19.31 -13.13,-31.69 0,-12.37 5.02,-23.58 13.13,-31.69 8.11,-8.11 19.31,-13.12 31.69,-13.12 4.54,0 8.99,0.7 13.22,2.01 3.14,0.97 6.12,2.27 8.89,3.84l0 -42.1c0,-7.83 3.2,-14.94 8.35,-20.09 5.14,-5.14 12.26,-8.34 20.08,-8.34l42.1 0c-1.57,-2.78 -2.87,-5.75 -3.84,-8.89 -1.31,-4.24 -2.01,-8.68 -2.01,-13.22 0,-12.38 5.02,-23.58 13.13,-31.69 8.1,-8.11 19.31,-13.13 31.68,-13.13 12.38,0 23.58,5.02 31.69,13.13 8.11,8.11 13.13,19.31 13.13,31.69 0,4.54 -0.71,8.98 -2.02,13.22 -0.97,3.14 -2.26,6.11 -3.84,8.89l42.11 0c7.82,0 14.93,3.2 20.08,8.35 0.22,0.22 0.43,0.45 0.63,0.68 4.78,5.11 7.72,11.94 7.72,19.4l-0.01 30.28 57.21 99.09c4.08,7.06 6.63,14.43 7.63,22.06 1.01,7.64 0.46,15.4 -1.65,23.25l-31.59 117.92 0 108.5c0,5.52 -4.48,10 -10,10 -5.53,0 -10,-4.48 -10,-10l0 -109.76c0,-1.09 0.17,-2.14 0.49,-3.12l31.81 -118.69c1.44,-5.38 1.83,-10.56 1.18,-15.52 -0.66,-4.96 -2.37,-9.85 -5.14,-14.65l-39.93 -69.17 0 65.18c0,5.38 -1,10.47 -2.98,15.24 -1.99,4.81 -4.89,9.13 -8.7,12.93l-23.82 23.82c-3.16,3.17 -7.06,5.21 -11.26,6.05 -4.12,0.82 -8.49,0.41 -12.64,-1.31l-0.67 -0.31c-3.83,-1.74 -6.96,-4.42 -9.18,-7.73 -2.38,-3.57 -3.69,-7.76 -3.69,-12.21l0 -43.95c0,-5.13 -2.1,-9.79 -5.49,-13.18l-0.41 -0.44c-3.33,-3.13 -7.83,-5.05 -12.77,-5.05 -5.12,0 -9.79,2.1 -13.18,5.49l-0.43 0.41c-3.13,3.33 -5.06,7.82 -5.06,12.77l0 61.91c0,2.77 0.22,5.26 0.67,7.61 0.47,2.41 1.2,4.8 2.2,7.29l30.54 75.64c2.62,6.5 5.11,12.83 6.76,19.73 1.75,7.34 2.41,14.83 1.05,22.86l-13.53 79.8c-0.91,5.43 -6.05,9.11 -11.48,8.2 -5.44,-0.9 -9.11,-6.05 -8.21,-11.48l13.53 -79.8c0.88,-5.16 0.43,-10.09 -0.74,-14.97 -1.27,-5.32 -3.52,-11.01 -5.9,-16.91l-30.53 -75.65c-1.5,-3.7 -2.58,-7.29 -3.29,-10.96 -0.68,-3.49 -1.02,-6.97 -1.06,-10.62zm-250.78 140.79c3.9,-3.9 10.23,-3.9 14.13,0 3.9,3.9 3.9,10.23 0,14.13 -3.9,3.91 -10.23,3.91 -14.13,0 -3.91,-3.9 -3.91,-10.23 0,-14.13zm31.64 31.63c3.9,-3.9 10.23,-3.9 14.13,0l25.69 25.68c1.62,1.63 3.79,2.45 5.96,2.45 2.16,0 4.33,-0.82 5.96,-2.45l114.63 -114.64 0.03 0.02c1.61,-1.63 2.42,-3.79 2.42,-5.98 0,-2.03 -0.7,-4.04 -2.1,-5.62l-30.12 -30.11c-0.85,3.1 -2.03,6.11 -3.55,8.98 -2.07,3.93 -4.72,7.58 -7.94,10.8 -8.75,8.75 -20.23,13.13 -31.69,13.13 -11.47,0 -22.94,-4.38 -31.69,-13.13 -8.75,-8.75 -13.13,-20.22 -13.13,-31.69 0,-11.47 4.38,-22.94 13.13,-31.69l0.02 0.02c3.27,-3.27 6.91,-5.92 10.77,-7.96 2.87,-1.51 5.89,-2.7 8.99,-3.55l-29.77 -29.78 0.01 -0.02c-1.62,-1.61 -3.79,-2.42 -5.97,-2.42 -2.04,0 -4.05,0.7 -5.63,2.1l-32.69 32.7c-2.37,2.36 -5.25,3.97 -8.4,4.74 -3.1,0.77 -6.38,0.69 -9.58,-0.3 -3.25,-1.01 -6.02,-2.8 -8.15,-5.18 -2.11,-2.38 -3.57,-5.35 -4.2,-8.7 -0.44,-2.38 -1.25,-4.73 -2.44,-6.97 -1.1,-2.1 -2.58,-4.11 -4.43,-5.96 -4.84,-4.84 -11.19,-7.26 -17.54,-7.26 -6.36,0 -12.71,2.42 -17.55,7.26 -4.84,4.85 -7.27,11.2 -7.27,17.55 0,6.35 2.43,12.71 7.27,17.55 1.84,1.85 3.85,3.32 5.95,4.43 2.24,1.18 4.6,2 6.97,2.44 3.36,0.63 6.32,2.08 8.7,4.2 2.38,2.12 4.17,4.89 5.18,8.14 0.99,3.21 1.07,6.49 0.31,9.59 -0.69,2.79 -2.05,5.38 -4.03,7.6 -0.22,0.27 -0.46,0.54 -0.72,0.79l-32.35 32.36 -0.02 -0.01c-1.62,1.62 -2.43,3.79 -2.43,5.97 0,2.03 0.7,4.05 2.1,5.63l26.02 26.02c3.9,3.9 3.9,10.23 0,14.13 -3.9,3.91 -10.23,3.91 -14.13,0l-25.68 -25.68c-0.22,-0.22 -0.43,-0.44 -0.62,-0.67 -5.13,-5.46 -7.69,-12.45 -7.69,-19.43 0,-7.25 2.77,-14.52 8.3,-20.06l0.02 -0.02 -0.02 -0.02 29.78 -29.78c-3.1,-0.85 -6.12,-2.03 -8.99,-3.55 -3.92,-2.07 -7.57,-4.72 -10.79,-7.94 -8.75,-8.75 -13.13,-20.22 -13.13,-31.69 0,-11.46 4.38,-22.93 13.13,-31.69 8.75,-8.75 20.22,-13.12 31.68,-13.12 11.47,0 22.94,4.37 31.69,13.12 3.23,3.23 5.88,6.88 7.95,10.8 1.51,2.87 2.7,5.89 3.55,8.99l29.77 -29.78c0.22,-0.22 0.45,-0.42 0.68,-0.61 5.45,-5.13 12.45,-7.69 19.43,-7.69 7.25,0 14.52,2.77 20.06,8.3l0.02 0.02 0.02 -0.02 32.35 32.36c2.37,2.36 3.97,5.25 4.75,8.4 0.77,3.1 0.68,6.38 -0.31,9.58 -1.01,3.25 -2.8,6.02 -5.18,8.14 -2.38,2.12 -5.34,3.58 -8.7,4.2 -2.37,0.45 -4.73,1.26 -6.97,2.45 -2.15,1.13 -4.16,2.6 -5.95,4.39l-0.02 0.01 0.02 0.02c-4.84,4.85 -7.27,11.2 -7.27,17.55 0,6.35 2.43,12.71 7.27,17.55 4.84,4.84 11.2,7.27 17.55,7.27 6.35,0 12.7,-2.43 17.54,-7.27 1.85,-1.85 3.33,-3.86 4.43,-5.96 1.19,-2.23 2,-4.59 2.44,-6.97l0.01 -0.03c0.62,-3.33 2.07,-6.28 4.2,-8.66 2.12,-2.39 4.89,-4.18 8.14,-5.18 3.21,-1 6.49,-1.08 9.58,-0.31 3.11,0.77 5.99,2.38 8.38,4.76l0.02 -0.02 32.36 32.36c0.22,0.22 0.42,0.45 0.61,0.68 5.13,5.45 7.69,12.44 7.69,19.42 0,7.26 -2.77,14.52 -8.3,20.06l-0.02 0.02 0.02 0.02 -114.64 114.64c-5.54,5.54 -12.83,8.31 -20.1,8.31 -7.28,0 -14.57,-2.77 -20.11,-8.31l-25.67 -25.68c-3.91,-3.9 -3.91,-10.23 0,-14.14zm158.85 -192.42l60.28 0 0 -42.65c0,-10.3 4.11,-19.71 10.77,-26.68 0.18,-0.22 0.38,-0.44 0.58,-0.64 7,-7.01 16.68,-11.35 27.32,-11.35 10.3,0 19.71,4.1 26.68,10.76 0.22,0.19 0.43,0.38 0.64,0.59 7,7 11.35,16.67 11.35,27.32l0 43.95c0,0.49 0.09,0.87 0.26,1.11 0.15,0.24 0.39,0.44 0.68,0.6l0.25 0.1c0.4,0.17 0.8,0.21 1.16,0.14 0.3,-0.06 0.63,-0.26 0.95,-0.58l23.82 -23.82c2.01,-2 3.48,-4.13 4.4,-6.36 0.94,-2.27 1.41,-4.83 1.41,-7.67l0 -135.37c0,-2.15 -0.8,-4.11 -2.11,-5.59l-0.37 -0.35c-1.53,-1.53 -3.64,-2.49 -5.94,-2.49l-45.77 0c-3.35,0 -6.52,-0.9 -9.28,-2.56 -2.74,-1.65 -5.01,-4.04 -6.58,-7.04 -1.53,-2.89 -2.22,-6.01 -2.08,-9.12l0.01 -0.28c0.19,-3.2 1.24,-6.32 3.13,-9.08 1.4,-2.05 2.51,-4.3 3.24,-6.67 0.7,-2.26 1.08,-4.74 1.08,-7.36 0,-6.86 -2.78,-13.06 -7.27,-17.55 -4.49,-4.49 -10.69,-7.27 -17.55,-7.27 -6.85,0 -13.05,2.78 -17.54,7.27 -4.49,4.49 -7.27,10.69 -7.27,17.55 0,2.62 0.38,5.1 1.08,7.37 0.73,2.36 1.83,4.61 3.24,6.66 1.89,2.77 2.94,5.89 3.13,9.12 0.18,3.18 -0.5,6.39 -2.07,9.36 -1.58,3 -3.85,5.39 -6.58,7.04 -2.76,1.66 -5.93,2.56 -9.29,2.56l-45.76 0c-2.3,0 -4.41,0.96 -5.94,2.49 -1.53,1.53 -2.49,3.63 -2.48,5.94l0 45.76c0,3.36 -0.9,6.53 -2.57,9.29 -1.65,2.74 -4.04,5 -7.03,6.58 -2.98,1.57 -6.19,2.25 -9.37,2.07 -3.23,-0.19 -6.35,-1.24 -9.12,-3.13 -2.05,-1.41 -4.29,-2.51 -6.66,-3.24 -2.27,-0.7 -4.74,-1.08 -7.37,-1.08 -6.85,0 -13.06,2.78 -17.55,7.26 -4.49,4.49 -7.27,10.7 -7.27,17.55 0,6.86 2.78,13.06 7.27,17.55 4.49,4.49 10.7,7.27 17.55,7.27 2.63,0 5.1,-0.38 7.37,-1.08 2.37,-0.74 4.61,-1.84 6.66,-3.24 2.77,-1.9 5.89,-2.95 9.12,-3.13 3.19,-0.19 6.39,0.5 9.37,2.07 2.99,1.57 5.38,3.84 7.03,6.58 1.67,2.76 2.56,5.93 2.56,9.28l0.01 45.76c-0.01,2.31 0.95,4.42 2.48,5.95l-0.02 0.02c1.53,1.52 3.64,2.46 5.96,2.46z"/>
  <g id="_2475186340336">
   <path class="fil0" d="M2608.07 311.95c-3.9,3.9 -10.24,3.9 -14.14,0 -3.91,-3.91 -3.91,-10.24 0,-14.14l51.19 -51.2c0.98,-8.71 3.29,-17.29 6.95,-25.38 4.07,-9 9.77,-17.4 17.09,-24.73l71.12 -71.11c0.22,-0.22 0.45,-0.43 0.68,-0.63 5.08,-4.75 11.59,-7.12 18.07,-7.12 6.77,0 13.55,2.58 18.72,7.75l0.04 0.04c1.98,1.97 3.58,4.19 4.8,6.56 3.59,-1.71 7.49,-2.56 11.39,-2.56 6.79,0 13.59,2.59 18.75,7.75 0.24,0.24 0.46,0.48 0.66,0.73 1.68,1.81 3.05,3.79 4.13,5.89 3.6,-1.71 7.5,-2.57 11.4,-2.57 6.48,0 12.97,2.37 18.04,7.1 0.5,0.41 0.96,0.86 1.37,1.36 4.73,5.07 7.1,11.57 7.1,18.04 0,3.9 -0.86,7.8 -2.57,11.39 2.12,1.09 4.11,2.48 5.93,4.18 0.23,0.19 0.46,0.4 0.68,0.62 5.17,5.17 7.75,11.97 7.75,18.76 0,6.79 -2.58,13.59 -7.74,18.75l-51.96 51.95c2.22,0.23 4.37,1.19 6.06,2.88 3.91,3.9 3.91,10.24 0,14.14l-25.26 25.26c-9.94,9.95 -21.86,16.88 -34.56,20.8 -11.38,3.51 -23.38,4.56 -35.13,3.15l-29.76 29.77c-3.91,3.9 -10.24,3.9 -14.14,0 -3.91,-3.91 -3.91,-10.24 0,-14.14l33.3 -33.31 0.02 0.02c2.24,-2.23 5.5,-3.37 8.85,-2.75 10.28,1.9 20.96,1.3 31.01,-1.8 9.6,-2.97 18.65,-8.26 26.27,-15.88l19.79 -19.78c-2.22,-0.22 -4.37,-1.18 -6.06,-2.88 -3.91,-3.9 -3.91,-10.23 0,-14.14l57.43 -57.43c1.25,-1.25 1.88,-2.93 1.88,-4.61 0,-1.68 -0.63,-3.36 -1.88,-4.61l-0.31 -0.32c-1.21,-1.05 -2.76,-1.57 -4.31,-1.57 -1.68,0 -3.36,0.63 -4.62,1.88l-24.52 24.53c-3.91,3.91 -10.24,3.91 -14.14,0 -3.91,-3.9 -3.91,-10.23 0,-14.14l36.1 -36.1 0.02 0.01c1.24,-1.25 1.87,-2.93 1.87,-4.63 0,-1.55 -0.53,-3.09 -1.57,-4.3l-0.32 -0.31 0.01 -0.03c-1.25,-1.24 -2.93,-1.86 -4.63,-1.86 -1.55,0 -3.09,0.52 -4.3,1.57 -11.73,12.27 -24.43,24.43 -36.41,36.42 -3.91,3.9 -10.24,3.9 -14.14,0 -3.91,-3.9 -3.91,-10.24 0,-14.14l24.91 -24.91c1,-1.2 1.5,-2.71 1.5,-4.23l0.04 0c0,-1.54 -0.53,-3.07 -1.58,-4.28l-0.41 -0.4c-1.25,-1.22 -2.9,-1.83 -4.55,-1.83 -1.68,0 -3.36,0.63 -4.62,1.89l-24.53 24.53c-3.9,3.9 -10.23,3.9 -14.14,0 -3.9,-3.9 -3.9,-10.24 0,-14.14l13.38 -13.38c0.98,-1.18 1.46,-2.67 1.46,-4.19 0,-1.7 -0.62,-3.38 -1.86,-4.63 -1.26,-1.25 -2.94,-1.87 -4.64,-1.87 -1.55,0 -3.1,0.52 -4.31,1.57l-71.42 71.43c-5.61,5.62 -9.96,12 -13.03,18.8 -3.14,6.95 -4.99,14.35 -5.54,21.81 -0.03,2.52 -1,5.03 -2.92,6.96l-53.74 53.74z"/>
   <path class="fil0" d="M2845.33 198.06c-3.9,-3.9 -3.9,-10.23 0,-14.14 3.91,-3.9 10.24,-3.9 14.14,0l51.2 51.2c8.71,0.97 17.29,3.29 25.38,6.95 9,4.06 17.4,9.76 24.73,17.09l71.11 71.11c0.22,0.22 0.43,0.45 0.63,0.69 4.75,5.08 7.12,11.58 7.12,18.07 0,6.76 -2.58,13.55 -7.75,18.71l-0.03 0.04c-1.98,1.98 -4.2,3.58 -6.57,4.8 1.71,3.6 2.56,7.5 2.56,11.39 0,6.79 -2.59,13.59 -7.75,18.76 -0.24,0.23 -0.48,0.45 -0.73,0.66 -1.81,1.67 -3.79,3.05 -5.89,4.13 1.71,3.59 2.57,7.5 2.57,11.4 0,6.47 -2.36,12.97 -7.1,18.04 -0.4,0.5 -0.86,0.95 -1.36,1.36 -5.07,4.74 -11.57,7.1 -18.04,7.1 -3.9,0 -7.79,-0.85 -11.39,-2.56 -1.09,2.11 -2.48,4.11 -4.18,5.92 -0.19,0.24 -0.4,0.47 -0.62,0.69 -5.17,5.16 -11.97,7.75 -18.76,7.75 -6.79,0 -13.59,-2.58 -18.75,-7.75l-51.95 -51.95c-0.23,2.21 -1.19,4.36 -2.88,6.06 -3.9,3.9 -10.24,3.9 -14.14,0l-25.26 -25.26c-9.95,-9.95 -16.88,-21.86 -20.8,-34.56 -3.51,-11.38 -4.56,-23.38 -3.15,-35.14l-29.76 -29.76c-3.91,-3.9 -3.91,-10.24 0,-14.14 3.9,-3.9 10.23,-3.9 14.14,0l33.3 33.3 -0.02 0.03c2.23,2.24 3.37,5.5 2.75,8.84 -1.89,10.29 -1.29,20.96 1.81,31.01 2.96,9.6 8.25,18.66 15.87,26.28l19.78 19.78c0.23,-2.21 1.18,-4.36 2.88,-6.06 3.9,-3.9 10.23,-3.9 14.14,0l57.43 57.43c1.25,1.26 2.93,1.89 4.61,1.89 1.68,0 3.36,-0.63 4.62,-1.89l0.31 -0.3c1.05,-1.22 1.57,-2.76 1.57,-4.32 0,-1.68 -0.63,-3.35 -1.88,-4.61l-24.53 -24.53c-3.91,-3.9 -3.91,-10.23 0,-14.14 3.9,-3.9 10.23,-3.9 14.14,0l36.1 36.1 -0.01 0.03c1.25,1.24 2.93,1.86 4.63,1.86 1.55,0 3.09,-0.52 4.3,-1.56l0.31 -0.33 0.03 0.02c1.24,-1.26 1.86,-2.94 1.86,-4.63 0,-1.55 -0.52,-3.1 -1.56,-4.31 -12.28,-11.72 -24.44,-24.42 -36.43,-36.41 -3.9,-3.9 -3.9,-10.23 0,-14.14 3.9,-3.9 10.24,-3.9 14.14,0l24.91 24.91c1.2,1.01 2.71,1.51 4.23,1.51l0 0.04c1.54,0 3.07,-0.53 4.29,-1.59l0.39 -0.4c1.22,-1.25 1.83,-2.9 1.83,-4.56 0,-1.68 -0.63,-3.35 -1.89,-4.61l-24.53 -24.53c-3.9,-3.9 -3.9,-10.24 0,-14.14 3.9,-3.9 10.24,-3.9 14.14,0l13.38 13.38c1.18,0.97 2.67,1.46 4.19,1.46 1.7,0 3.38,-0.62 4.63,-1.87 1.25,-1.25 1.87,-2.94 1.87,-4.63 0,-1.56 -0.52,-3.1 -1.57,-4.31l-71.43 -71.42c-5.62,-5.62 -12,-9.96 -18.8,-13.03 -6.95,-3.14 -14.35,-4.99 -21.81,-5.54 -2.52,-0.03 -5.03,-1 -6.96,-2.93l-53.74 -53.74z"/>
   <path class="fil0" d="M2959.22 435.33c3.9,-3.9 10.23,-3.9 14.14,0 3.9,3.9 3.9,10.24 0,14.14l-51.2 51.19c-0.97,8.71 -3.29,17.29 -6.94,25.38 -4.07,9.01 -9.77,17.41 -17.1,24.73l-71.11 71.12c-0.22,0.22 -0.45,0.43 -0.69,0.62 -5.08,4.75 -11.58,7.13 -18.07,7.13 -6.76,0 -13.55,-2.58 -18.71,-7.75l-0.04 -0.04c-1.98,-1.98 -3.58,-4.2 -4.8,-6.56 -3.59,1.7 -7.49,2.55 -11.39,2.55 -6.79,0 -13.59,-2.58 -18.76,-7.75 -0.23,-0.23 -0.45,-0.48 -0.66,-0.73 -1.67,-1.8 -3.05,-3.79 -4.13,-5.89 -3.59,1.72 -7.5,2.58 -11.4,2.58 -6.47,0 -12.96,-2.37 -18.04,-7.1 -0.49,-0.41 -0.95,-0.87 -1.36,-1.36 -4.73,-5.08 -7.1,-11.57 -7.1,-18.05 0,-3.89 0.85,-7.79 2.56,-11.38 -2.11,-1.09 -4.11,-2.49 -5.92,-4.18 -0.24,-0.2 -0.47,-0.41 -0.69,-0.63 -5.16,-5.16 -7.75,-11.96 -7.75,-18.75 0,-6.79 2.58,-13.59 7.75,-18.76l51.95 -51.95c-2.21,-0.22 -4.36,-1.18 -6.06,-2.87 -3.9,-3.91 -3.9,-10.24 0,-14.14l25.26 -25.27c9.95,-9.94 21.86,-16.88 34.56,-20.79 11.38,-3.51 23.38,-4.56 35.14,-3.16l29.76 -29.76c3.9,-3.9 10.24,-3.9 14.14,0 3.9,3.9 3.9,10.24 0,14.14l-33.3 33.3 -0.03 -0.02c-2.23,2.24 -5.5,3.37 -8.84,2.76 -10.29,-1.9 -20.96,-1.3 -31.01,1.8 -9.6,2.96 -18.66,8.25 -26.28,15.87l-19.78 19.79c2.21,0.22 4.36,1.18 6.06,2.87 3.9,3.91 3.9,10.24 0,14.14l-57.43 57.43c-1.26,1.26 -1.89,2.94 -1.89,4.62 0,1.68 0.63,3.35 1.89,4.61l0.3 0.32c1.22,1.05 2.76,1.57 4.32,1.57 1.68,0 3.35,-0.63 4.61,-1.89l24.53 -24.53c3.9,-3.9 10.23,-3.9 14.14,0 3.9,3.91 3.9,10.24 0,14.14l-36.1 36.11 -0.02 -0.02c-1.25,1.26 -1.87,2.93 -1.87,4.63 0,1.55 0.52,3.09 1.56,4.31l0.33 0.31 -0.02 0.02c1.26,1.24 2.94,1.87 4.63,1.87 1.56,0 3.1,-0.52 4.31,-1.57 11.72,-12.27 24.43,-24.44 36.41,-36.42 3.9,-3.91 10.24,-3.91 14.14,0 3.9,3.9 3.9,10.23 0,14.14l-24.91 24.91c-1,1.2 -1.51,2.71 -1.51,4.23l-0.04 0c0,1.53 0.53,3.07 1.59,4.28l0.4 0.39c1.26,1.22 2.9,1.83 4.56,1.83 1.68,0 3.35,-0.63 4.61,-1.89l24.53 -24.52c3.9,-3.91 10.24,-3.91 14.14,0 3.9,3.9 3.9,10.23 0,14.14l-13.38 13.38c-0.97,1.17 -1.46,2.67 -1.46,4.18 0,1.7 0.62,3.38 1.87,4.64 1.26,1.24 2.94,1.87 4.63,1.87 1.56,0 3.1,-0.53 4.32,-1.57l71.41 -71.44c5.62,-5.61 9.96,-12 13.03,-18.79 3.14,-6.95 4.99,-14.35 5.54,-21.81 0.03,-2.52 1.01,-5.04 2.93,-6.96l53.74 -53.74z"/>
   <path class="fil0" d="M2721.95 549.21c3.9,3.91 3.9,10.24 0,14.14 -3.9,3.91 -10.24,3.91 -14.14,0l-51.19 -51.19c-8.71,-0.98 -17.29,-3.29 -25.38,-6.95 -9.01,-4.07 -17.41,-9.77 -24.73,-17.09l-71.12 -71.12c-0.22,-0.22 -0.43,-0.45 -0.62,-0.68 -4.75,-5.08 -7.13,-11.58 -7.13,-18.07 0,-6.77 2.58,-13.55 7.75,-18.72l0.04 -0.04c1.98,-1.98 4.21,-3.58 6.57,-4.8 -1.71,-3.6 -2.56,-7.49 -2.56,-11.39 0,-6.76 2.58,-13.55 7.75,-18.71l0.2 -0.2c1.94,-1.9 4.11,-3.45 6.42,-4.63 -1.72,-3.6 -2.58,-7.5 -2.58,-11.4 0,-6.48 2.37,-12.97 7.1,-18.04 0.41,-0.5 0.87,-0.96 1.36,-1.37 5.08,-4.73 11.57,-7.1 18.05,-7.1 3.89,0 7.79,0.86 11.38,2.57 1.09,-2.11 2.49,-4.11 4.18,-5.93 0.2,-0.23 0.41,-0.46 0.63,-0.68 5.16,-5.17 11.96,-7.75 18.75,-7.75 6.79,0 13.59,2.58 18.76,7.75l51.95 51.95c0.22,-2.22 1.18,-4.37 2.87,-6.06 3.91,-3.91 10.24,-3.91 14.15,0l25.26 25.26c9.94,9.94 16.88,21.86 20.79,34.56 3.51,11.38 4.56,23.38 3.16,35.13l29.76 29.76c3.9,3.91 3.9,10.24 0,14.15 -3.9,3.9 -10.24,3.9 -14.14,0l-33.3 -33.31 0.02 -0.02c-2.24,-2.24 -3.37,-5.5 -2.76,-8.85 1.9,-10.28 1.3,-20.96 -1.8,-31.01 -2.96,-9.6 -8.25,-18.65 -15.87,-26.27l-19.79 -19.78c-0.22,2.21 -1.18,4.36 -2.87,6.05 -3.91,3.91 -10.24,3.91 -14.14,0l-57.43 -57.42c-1.26,-1.26 -2.93,-1.89 -4.62,-1.89 -1.68,0 -3.35,0.63 -4.61,1.89l-0.32 0.3c-1.05,1.21 -1.57,2.76 -1.57,4.31 0,1.68 0.63,3.36 1.89,4.62l24.53 24.52c3.9,3.91 3.9,10.24 0,14.14 -3.91,3.91 -10.24,3.91 -14.14,0l-36.11 -36.1 0.02 -0.02c-1.26,-1.24 -2.93,-1.87 -4.63,-1.87 -1.55,0 -3.09,0.53 -4.31,1.57l-0.31 0.32 -0.02 -0.01c-1.24,1.25 -1.87,2.93 -1.87,4.63 0,1.55 0.53,3.09 1.57,4.3 12.27,11.73 24.44,24.43 36.42,36.41 3.91,3.91 3.91,10.24 0,14.14 -3.9,3.91 -10.23,3.91 -14.14,0l-24.91 -24.91c-1.2,-1 -2.71,-1.5 -4.23,-1.5l0 -0.04c-1.53,0 -3.07,0.53 -4.28,1.58l-0.66 0.66c-1.04,1.22 -1.56,2.75 -1.56,4.3 0,1.56 0.52,3.1 1.57,4.32 8.39,8.01 16.62,16.6 24.84,24.83 3.91,3.9 3.91,10.23 0,14.14 -3.9,3.9 -10.23,3.9 -14.14,0l-13.38 -13.38c-1.17,-0.98 -2.67,-1.46 -4.18,-1.46 -1.7,0 -3.38,0.62 -4.64,1.87 -1.24,1.25 -1.87,2.93 -1.87,4.63 0,1.55 0.53,3.1 1.57,4.31l71.44 71.42c5.61,5.61 12,9.96 18.79,13.03 6.96,3.14 14.35,4.99 21.81,5.54 2.53,0.03 5.04,1 6.96,2.93l53.74 53.73z"/>
  </g>
  <g id="_2475186341536">
   <path class="fil0" d="M595.47 -351.19c-3.9,3.91 -10.24,3.91 -14.14,0 -3.9,-3.9 -3.9,-10.23 0,-14.14l51.19 -51.19c0.98,-8.71 3.3,-17.29 6.95,-25.38 4.07,-9 9.77,-17.41 17.09,-24.73l71.12 -71.12c0.22,-0.22 0.45,-0.43 0.68,-0.62 5.08,-4.75 11.59,-7.13 18.07,-7.13 6.77,0 13.55,2.59 18.72,7.75l0.04 0.04c1.98,1.98 3.58,4.2 4.8,6.56 3.59,-1.7 7.49,-2.55 11.39,-2.55 6.79,0 13.59,2.58 18.76,7.75 0.23,0.23 0.45,0.48 0.66,0.73 1.67,1.8 3.05,3.79 4.12,5.89 3.6,-1.72 7.51,-2.58 11.4,-2.58 6.48,0 12.97,2.37 18.05,7.1 0.49,0.41 0.95,0.87 1.36,1.36 4.73,5.08 7.1,11.57 7.1,18.05 0,3.89 -0.86,7.79 -2.57,11.38 2.12,1.09 4.12,2.49 5.93,4.18 0.24,0.2 0.46,0.41 0.69,0.63 5.16,5.16 7.75,11.97 7.75,18.76 0,6.78 -2.59,13.58 -7.75,18.75l-51.95 51.95c2.21,0.22 4.36,1.18 6.06,2.88 3.9,3.9 3.9,10.23 0,14.14l-25.27 25.26c-9.94,9.94 -21.85,16.88 -34.55,20.79 -11.39,3.52 -23.39,4.57 -35.14,3.16l-29.76 29.76c-3.91,3.9 -10.24,3.9 -14.14,0 -3.91,-3.9 -3.91,-10.24 0,-14.14l33.3 -33.3 0.02 0.02c2.24,-2.23 5.5,-3.37 8.85,-2.76 10.28,1.9 20.96,1.3 31.01,-1.8 9.6,-2.96 18.65,-8.25 26.27,-15.87l19.79 -19.79c-2.21,-0.22 -4.37,-1.18 -6.06,-2.87 -3.9,-3.91 -3.9,-10.24 0,-14.14l57.43 -57.43c1.25,-1.26 1.89,-2.93 1.89,-4.61 0,-1.69 -0.64,-3.36 -1.89,-4.62l-0.31 -0.32c-1.21,-1.04 -2.75,-1.57 -4.31,-1.57 -1.68,0 -3.36,0.63 -4.61,1.89l-24.53 24.53c-3.9,3.9 -10.24,3.9 -14.14,0 -3.9,-3.91 -3.9,-10.24 0,-14.14l36.1 -36.11 0.02 0.02c1.24,-1.25 1.87,-2.93 1.87,-4.63 0,-1.55 -0.52,-3.09 -1.57,-4.31l-0.32 -0.31 0.01 -0.02c-1.25,-1.24 -2.93,-1.87 -4.63,-1.87 -1.55,0 -3.09,0.53 -4.3,1.57 -11.72,12.27 -24.43,24.44 -36.41,36.43 -3.9,3.9 -10.24,3.9 -14.14,0 -3.91,-3.91 -3.91,-10.24 0,-14.15l24.91 -24.9c1,-1.21 1.5,-2.72 1.5,-4.24l0.04 0c0,-1.53 -0.52,-3.06 -1.58,-4.28l-0.41 -0.39c-1.25,-1.22 -2.9,-1.83 -4.55,-1.83 -1.68,0 -3.36,0.63 -4.62,1.89l-24.52 24.53c-3.91,3.9 -10.24,3.9 -14.14,0 -3.91,-3.91 -3.91,-10.24 0,-14.14l13.38 -13.38c0.97,-1.18 1.46,-2.68 1.46,-4.19 0,-1.7 -0.63,-3.38 -1.87,-4.64 -1.26,-1.24 -2.94,-1.87 -4.64,-1.87 -1.55,0 -3.09,0.53 -4.31,1.58l-71.42 71.43c-5.61,5.61 -9.95,12 -13.02,18.79 -3.15,6.96 -4.99,14.36 -5.55,21.81 -0.02,2.53 -1,5.04 -2.92,6.96l-53.74 53.74z"/>
   <path class="fil0" d="M832.74 -465.07c-3.91,-3.9 -3.91,-10.24 0,-14.14 3.9,-3.9 10.23,-3.9 14.14,0l51.19 51.19c8.71,0.98 17.29,3.29 25.38,6.95 9,4.07 17.41,9.77 24.73,17.09l71.12 71.12c0.22,0.22 0.42,0.45 0.62,0.68 4.75,5.08 7.13,11.59 7.13,18.07 0,6.77 -2.59,13.55 -7.75,18.72l-0.04 0.04c-1.98,1.98 -4.2,3.58 -6.56,4.8 1.7,3.59 2.55,7.49 2.55,11.39 0,6.79 -2.58,13.59 -7.75,18.75 -0.24,0.24 -0.48,0.46 -0.73,0.67 -1.8,1.67 -3.79,3.04 -5.89,4.12 1.72,3.6 2.58,7.51 2.58,11.4 0,6.48 -2.37,12.97 -7.1,18.04 -0.41,0.5 -0.87,0.96 -1.37,1.37 -5.07,4.73 -11.57,7.1 -18.04,7.1 -3.89,0 -7.79,-0.86 -11.39,-2.57 -1.09,2.12 -2.48,4.11 -4.18,5.93 -0.19,0.23 -0.4,0.46 -0.62,0.69 -5.17,5.16 -11.97,7.74 -18.76,7.74 -6.79,0 -13.58,-2.58 -18.75,-7.74l-51.95 -51.95c-0.22,2.21 -1.18,4.36 -2.88,6.05 -3.9,3.91 -10.23,3.91 -14.14,0l-25.26 -25.26c-9.94,-9.94 -16.88,-21.86 -20.8,-34.55 -3.51,-11.39 -4.56,-23.39 -3.15,-35.14l-29.76 -29.76c-3.91,-3.91 -3.91,-10.24 0,-14.14 3.9,-3.91 10.23,-3.91 14.14,0l33.3 33.3 -0.02 0.02c2.23,2.24 3.37,5.5 2.76,8.85 -1.9,10.28 -1.3,20.96 1.8,31.01 2.96,9.6 8.25,18.65 15.87,26.27l19.78 19.79c0.23,-2.22 1.19,-4.37 2.88,-6.06 3.9,-3.91 10.24,-3.91 14.14,0l57.43 57.43c1.26,1.25 2.93,1.88 4.61,1.88 1.68,0 3.36,-0.63 4.62,-1.88l0.32 -0.31c1.04,-1.21 1.57,-2.75 1.57,-4.31 0,-1.68 -0.63,-3.36 -1.89,-4.61l-24.53 -24.53c-3.9,-3.91 -3.9,-10.24 0,-14.14 3.9,-3.91 10.24,-3.91 14.14,0l36.1 36.1 -0.01 0.02c1.25,1.24 2.93,1.87 4.63,1.87 1.55,0 3.09,-0.52 4.3,-1.57l0.31 -0.32 0.03 0.01c1.24,-1.25 1.86,-2.93 1.86,-4.63 0,-1.55 -0.52,-3.09 -1.56,-4.3 -12.27,-11.72 -24.44,-24.43 -36.43,-36.41 -3.9,-3.91 -3.9,-10.24 0,-14.14 3.91,-3.91 10.24,-3.91 14.14,0l24.91 24.91c1.2,1 2.71,1.5 4.24,1.5l0 0.04c1.53,0 3.06,-0.52 4.28,-1.58l0.39 -0.41c1.22,-1.25 1.83,-2.9 1.83,-4.55 0,-1.68 -0.63,-3.36 -1.89,-4.62l-24.53 -24.52c-3.9,-3.91 -3.9,-10.24 0,-14.14 3.91,-3.91 10.24,-3.91 14.14,0l13.38 13.38c1.18,0.97 2.67,1.46 4.19,1.46 1.7,0 3.38,-0.63 4.64,-1.87 1.24,-1.26 1.87,-2.94 1.87,-4.64 0,-1.55 -0.53,-3.09 -1.58,-4.31l-71.43 -71.42c-5.62,-5.61 -12,-9.95 -18.79,-13.03 -6.96,-3.14 -14.36,-4.99 -21.82,-5.54 -2.52,-0.02 -5.03,-1 -6.96,-2.92l-53.73 -53.74z"/>
   <path class="fil0" d="M946.62 -227.8c3.9,-3.91 10.24,-3.91 14.14,0 3.9,3.9 3.9,10.23 0,14.14l-51.19 51.19c-0.98,8.71 -3.3,17.29 -6.95,25.38 -4.07,9 -9.77,17.41 -17.09,24.73l-71.12 71.11c-0.22,0.23 -0.45,0.43 -0.68,0.63 -5.08,4.75 -11.59,7.13 -18.07,7.13 -6.77,0 -13.55,-2.59 -18.72,-7.75l-0.04 -0.04c-1.98,-1.98 -3.58,-4.2 -4.8,-6.56 -3.59,1.7 -7.49,2.55 -11.39,2.55 -6.79,0 -13.59,-2.58 -18.76,-7.75 -0.23,-0.24 -0.45,-0.48 -0.66,-0.73 -1.67,-1.8 -3.05,-3.79 -4.12,-5.89 -3.6,1.72 -7.51,2.57 -11.41,2.57 -6.47,0 -12.96,-2.36 -18.03,-7.09 -0.5,-0.41 -0.96,-0.87 -1.37,-1.37 -4.73,-5.07 -7.1,-11.57 -7.1,-18.04 0,-3.89 0.86,-7.79 2.56,-11.39 -2.11,-1.09 -4.1,-2.48 -5.92,-4.18 -0.24,-0.19 -0.46,-0.4 -0.69,-0.62 -5.16,-5.17 -7.75,-11.97 -7.75,-18.76 0,-6.79 2.59,-13.59 7.75,-18.75l51.95 -51.95c-2.21,-0.23 -4.36,-1.18 -6.06,-2.88 -3.9,-3.9 -3.9,-10.24 0,-14.14l25.27 -25.26c9.94,-9.95 21.85,-16.88 34.55,-20.8 11.39,-3.51 23.39,-4.56 35.14,-3.15l29.76 -29.76c3.91,-3.91 10.24,-3.91 14.14,0 3.91,3.9 3.91,10.23 0,14.14l-33.3 33.3 -0.02 -0.02c-2.24,2.23 -5.5,3.37 -8.85,2.75 -10.28,-1.89 -20.96,-1.29 -31.01,1.81 -9.6,2.96 -18.66,8.25 -26.27,15.87l-19.79 19.78c2.21,0.23 4.37,1.18 6.06,2.88 3.9,3.9 3.9,10.24 0,14.14l-57.43 57.43c-1.25,1.26 -1.89,2.93 -1.89,4.61 0,1.68 0.64,3.36 1.89,4.62l0.31 0.32c1.21,1.04 2.75,1.57 4.31,1.57 1.68,0 3.36,-0.63 4.61,-1.89l24.53 -24.53c3.9,-3.9 10.24,-3.9 14.14,0 3.9,3.9 3.9,10.24 0,14.14l-36.1 36.1 -0.02 -0.01c-1.24,1.25 -1.87,2.93 -1.87,4.63 0,1.55 0.52,3.09 1.57,4.3l0.32 0.31 -0.01 0.03c1.25,1.24 2.93,1.86 4.62,1.86 1.56,0 3.1,-0.52 4.31,-1.56 11.72,-12.28 24.43,-24.44 36.41,-36.43 3.9,-3.9 10.24,-3.9 14.14,0 3.9,3.91 3.9,10.24 0,14.14l-24.91 24.91c-1,1.2 -1.5,2.71 -1.5,4.23l-0.04 0c0,1.54 0.52,3.07 1.58,4.29l0.41 0.39c1.25,1.22 2.9,1.83 4.55,1.83 1.68,0 3.36,-0.63 4.62,-1.89l24.52 -24.53c3.91,-3.9 10.24,-3.9 14.14,0 3.91,3.91 3.91,10.24 0,14.14l-13.38 13.38c-0.97,1.18 -1.46,2.67 -1.46,4.19 0,1.7 0.63,3.38 1.87,4.63 1.26,1.25 2.94,1.87 4.64,1.87 1.55,0 3.09,-0.52 4.31,-1.57l71.42 -71.43c5.61,-5.62 9.95,-12 13.02,-18.79 3.15,-6.96 4.99,-14.36 5.55,-21.82 0.02,-2.52 1,-5.03 2.92,-6.96l53.74 -53.73z"/>
   <path class="fil0" d="M709.35 -113.92c3.91,3.9 3.91,10.23 0,14.14 -3.9,3.9 -10.23,3.9 -14.14,0l-51.19 -51.2c-8.71,-0.97 -17.29,-3.29 -25.38,-6.94 -9,-4.07 -17.41,-9.77 -24.73,-17.09l14.14 -14.14 -35.72 -35.71 35.72 35.71c5.61,5.61 12,9.95 18.79,13.02 6.96,3.15 14.36,4.99 21.82,5.54 2.52,0.03 5.03,1.01 6.96,2.93l53.73 53.74zm-179.05 -124.7l-7.51 -7.51c-0.22,-0.22 -0.42,-0.45 -0.62,-0.69 -4.75,-5.07 -7.13,-11.58 -7.13,-18.06 0,-6.77 2.59,-13.55 7.75,-18.72l0.04 -0.04c1.99,-1.98 4.21,-3.59 6.58,-4.81 -1.71,-3.59 -2.57,-7.49 -2.57,-11.38 0,-6.77 2.58,-13.55 7.75,-18.72l0.2 -0.19c1.94,-1.91 4.11,-3.45 6.42,-4.64 -1.72,-3.59 -2.58,-7.5 -2.58,-11.4 0,-6.47 2.37,-12.96 7.1,-18.04 0.41,-0.49 0.87,-0.95 1.37,-1.36 5.07,-4.73 11.57,-7.1 18.04,-7.1 3.89,0 7.79,0.85 11.39,2.56 1.09,-2.11 2.48,-4.11 4.17,-5.92 0.2,-0.24 0.41,-0.47 0.63,-0.69 5.17,-5.16 11.97,-7.75 18.76,-7.75 6.79,0 13.58,2.58 18.75,7.75l51.95 51.95c0.22,-2.21 1.18,-4.36 2.88,-6.06 3.9,-3.9 10.23,-3.9 14.14,0l25.26 25.27c9.94,9.94 16.88,21.85 20.79,34.55 3.52,11.38 4.57,23.39 3.16,35.14l29.76 29.76c3.91,3.9 3.91,10.24 0,14.14 -3.9,3.9 -10.23,3.9 -14.14,0l-33.3 -33.3 0.02 -0.03c-2.23,-2.23 -3.37,-5.49 -2.76,-8.84 1.9,-10.28 1.3,-20.96 -1.8,-31.01 -2.96,-9.6 -8.25,-18.66 -15.87,-26.27l-19.78 -19.79c-0.23,2.21 -1.19,4.37 -2.88,6.06 -3.9,3.9 -10.24,3.9 -14.14,0l-57.43 -57.43c-1.26,-1.26 -2.93,-1.89 -4.61,-1.89 -1.69,0 -3.36,0.63 -4.62,1.89l-0.32 0.31c-1.04,1.21 -1.57,2.75 -1.57,4.31 0,1.68 0.63,3.35 1.89,4.61l24.53 24.53c3.9,3.9 3.9,10.24 0,14.14 -3.9,3.9 -10.24,3.9 -14.14,0l-36.11 -36.1 0.02 -0.02c-1.25,-1.25 -2.93,-1.87 -4.63,-1.87 -1.55,0 -3.09,0.52 -4.3,1.56l-0.31 0.33 -0.03 -0.01c-1.24,1.25 -1.87,2.93 -1.87,4.62 0,1.56 0.53,3.1 1.57,4.31 12.27,11.72 24.44,24.43 36.43,36.41 3.9,3.9 3.9,10.24 0,14.14 -3.91,3.9 -10.24,3.9 -14.14,0l-24.91 -24.91c-1.2,-1 -2.71,-1.51 -4.24,-1.51l0 -0.04c-1.53,0 -3.06,0.53 -4.28,1.59l-0.66 0.66c-1.04,1.21 -1.56,2.75 -1.56,4.3 0,1.55 0.52,3.1 1.57,4.31 8.39,8.02 16.62,16.61 24.85,24.83 3.9,3.91 3.9,10.24 0,14.14 -3.91,3.91 -10.24,3.91 -14.14,0l-13.38 -13.38c-1.18,-0.97 -2.67,-1.46 -4.19,-1.46 -1.7,0 -3.38,0.63 -4.64,1.87 -1.24,1.26 -1.87,2.94 -1.87,4.64 0,1.55 0.53,3.09 1.58,4.31l7.81 7.81 -14.13 14.14zm77.75 49.47c3.9,3.9 3.9,10.23 0,14.14 -3.91,3.9 -10.23,3.9 -14.14,0 -3.9,-3.91 -3.9,-10.24 0,-14.14 3.91,-3.9 10.23,-3.9 14.14,0zm-63.61 -63.61c3.9,3.9 3.9,10.23 0,14.13 -3.91,3.91 -10.24,3.91 -14.14,0 -3.9,-3.9 -3.9,-10.23 0,-14.13 3.9,-3.91 10.23,-3.91 14.14,0zm31.8 31.8c3.91,3.91 3.91,10.24 0,14.14 -3.9,3.9 -10.23,3.9 -14.13,0 -3.91,-3.9 -3.91,-10.23 0,-14.14 3.9,-3.9 10.23,-3.9 14.13,0z"/>
  </g>
 </g>
</svg>
