<?xml version="1.0" encoding="UTF-8"?>
<!DOCTYPE svg PUBLIC "-//W3C//DTD SVG 1.1//EN" "http://www.w3.org/Graphics/SVG/1.1/DTD/svg11.dtd">
<!-- Creator: CorelDRAW 2021 (64-Bit) -->
<svg xmlns="http://www.w3.org/2000/svg" xml:space="preserve" width="512px" height="512px" version="1.1" style="shape-rendering:geometricPrecision; text-rendering:geometricPrecision; image-rendering:optimizeQuality; fill-rule:evenodd; clip-rule:evenodd"
viewBox="0 0 512 512"
 xmlns:xlink="http://www.w3.org/1999/xlink"
 xmlns:xodm="http://www.corel.com/coreldraw/odm/2003">
 <defs>
  <style type="text/css">
   <![CDATA[
    .fil0 {fill:#EA2D3F;fill-rule:nonzero}
   ]]>
  </style>
 </defs>
 <g id="Layer_x0020_1">
  <metadata id="CorelCorpID_0Corel-Layer"/>
  <path class="fil0" d="M329.01 244.6l0 48.89c0,20.28 -8.29,38.71 -21.64,52.06l-1.33 1.3 52.27 0c3.66,0 6.99,-1.5 9.42,-3.93l0.02 0.02 0.02 -0.02c2.4,-2.4 3.89,-5.73 3.89,-9.41l0 -45.96c0,-5.52 4.48,-10 10,-10l10.92 0c-0.24,-0.62 -0.53,-1.2 -0.88,-1.73 -1.01,-1.53 -2.54,-2.79 -4.46,-3.62 -7.43,-3.18 -13.74,-8.5 -18.14,-15.15 -4.3,-6.49 -6.81,-14.23 -6.81,-22.51 0,-11.28 4.61,-21.52 12.03,-28.94 7.42,-7.42 17.66,-12.03 28.94,-12.03l32.38 0c11.28,0 21.52,4.61 28.94,12.03 7.42,7.42 12.03,17.66 12.03,28.94l0 108.5c0,30.61 -12.52,58.43 -32.68,78.59 -17.94,17.94 -41.94,29.82 -68.58,32.22l0 48.15c0,5.52 -4.48,10 -10,10 -5.52,0 -10,-4.48 -10,-10l0 -57.7c0,-5.52 4.48,-10 10,-10 25.08,0 47.9,-10.27 64.44,-26.81 16.55,-16.55 26.82,-39.36 26.82,-64.45l0 -45.49 -64.95 0 0 35.96c0,9.14 -3.76,17.47 -9.81,23.53l0.02 0.02c-6.04,6.04 -14.38,9.79 -23.56,9.79l-47.71 0c-2.7,10.98 -8.59,20.71 -16.64,28.16 -7.85,7.27 -17.72,12.35 -28.65,14.3l0 92.69c0,5.52 -4.48,10 -10,10 -5.53,0 -10,-4.48 -10,-10l0 -92.69c-10.93,-1.95 -20.81,-7.03 -28.65,-14.3 -8.05,-7.45 -13.95,-17.18 -16.65,-28.16l-46.32 0c-9.18,0 -17.52,-3.75 -23.56,-9.79 -0.21,-0.21 -0.41,-0.43 -0.61,-0.66 -5.68,-6 -9.18,-14.07 -9.18,-22.89l0 -35.96 -64.95 0 0 45.49c0,5.52 -4.48,10 -10,10 -5.52,0 -10,-4.48 -10,-10l0 -108.5c0,-11.28 4.61,-21.52 12.03,-28.94 7.42,-7.42 17.66,-12.03 28.94,-12.03l32.38 0c11.28,0 21.52,4.61 28.94,12.03 7.42,7.42 12.03,17.66 12.03,28.94 0,8.28 -2.51,16.02 -6.81,22.51 -4.4,6.65 -10.71,11.97 -18.14,15.15 -1.92,0.83 -3.45,2.09 -4.46,3.62 -0.35,0.53 -0.64,1.11 -0.88,1.73l10.92 0c5.52,0 10,4.48 10,10l0 45.96c0,3.48 1.34,6.66 3.52,9.02l0.41 0.39c2.42,2.43 5.76,3.93 9.42,3.93l50.89 0 -1.33 -1.3c-13.36,-13.35 -21.65,-31.78 -21.65,-52.06l0 -48.89c0,-20.27 8.29,-38.7 21.65,-52.06 13.35,-13.35 31.78,-21.64 52.06,-21.64l63.7 0c5.52,0 10,4.48 10,10l0 63.7zm-241.65 181.13c2.76,-4.78 8.88,-6.42 13.66,-3.66l0.04 -0.07c13.44,7.82 29.02,12.3 45.59,12.3 5.52,0 10,4.48 10,10l0 57.7c0,5.52 -4.48,10 -10,10 -5.52,0 -10,-4.48 -10,-10l0 -48.15c-16.01,-1.44 -31.08,-6.32 -44.45,-13.87 -0.4,-0.17 -0.79,-0.36 -1.18,-0.58 -4.78,-2.77 -6.42,-8.88 -3.66,-13.67zm-33.4 -40.72c4.78,-2.76 10.9,-1.12 13.66,3.66 2.76,4.78 1.12,10.9 -3.66,13.66 -4.79,2.76 -10.9,1.12 -13.66,-3.66 -2.76,-4.78 -1.13,-10.9 3.66,-13.66zm255.05 -91.52l0 -54.25c-10.63,9.54 -24.67,15.36 -40,15.36l-67.41 0 0 38.89c0,14.76 6.05,28.19 15.79,37.92 8.38,8.39 19.51,14.04 31.86,15.44l12.11 0c12.35,-1.4 23.48,-7.05 31.87,-15.44 9.73,-9.73 15.78,-23.16 15.78,-37.92zm-46.61 73.36c-2.33,0.23 -4.7,0.35 -7.09,0.35 -2.4,0 -4.76,-0.12 -7.1,-0.35l-27.3 0c2.05,5.21 5.24,9.83 9.26,13.55 6.57,6.08 15.4,9.8 25.14,9.8 9.73,0 18.56,-3.72 25.13,-9.8 4.02,-3.72 7.21,-8.34 9.26,-13.55l-27.3 0zm-45.01 -160.17c-7.49,7.49 -12.79,17.15 -14.84,27.92l66.46 0c10.99,0 20.99,-4.5 28.24,-11.75 7.26,-7.26 11.76,-17.26 11.76,-28.25l0 -3.7 -53.7 0c-14.76,0 -28.19,6.05 -37.92,15.78zm195.63 70.87l43.59 0 0 -43.01c0,-5.76 -2.36,-11 -6.17,-14.8 -3.8,-3.8 -9.04,-6.17 -14.8,-6.17l-32.38 0c-5.76,0 -11,2.37 -14.8,6.17 -3.8,3.8 -6.17,9.04 -6.17,14.8 0,4.26 1.27,8.22 3.45,11.5 2.27,3.44 5.51,6.17 9.31,7.8 5.58,2.4 10.12,6.24 13.29,11.05 2.49,3.77 4.1,8.07 4.68,12.66zm-357.63 0l43.59 0c0.58,-4.59 2.19,-8.89 4.68,-12.66 3.17,-4.81 7.71,-8.65 13.29,-11.05 3.8,-1.63 7.04,-4.36 9.31,-7.8 2.18,-3.28 3.45,-7.24 3.45,-11.5 0,-5.76 -2.37,-11 -6.17,-14.8 -3.8,-3.8 -9.04,-6.17 -14.8,-6.17l-32.38 0c-5.76,0 -11,2.37 -14.8,6.17 -3.81,3.8 -6.17,9.04 -6.17,14.8l0 43.01zm346.33 -118.5c0,5.52 -4.48,10 -10,10 -5.52,0 -10,-4.48 -10,-10 0,-17.82 -7.22,-33.96 -18.89,-45.63 -11.68,-11.67 -27.81,-18.9 -45.63,-18.9 -5.52,0 -10,-4.47 -10,-10 0,-5.52 4.48,-10 10,-10 17.82,0 33.95,-7.22 45.63,-18.89 11.67,-11.68 18.89,-27.81 18.89,-45.63 0,-5.52 4.48,-10 10,-10 5.52,0 10,4.48 10,10 0,17.82 7.22,33.95 18.9,45.63 11.67,11.67 27.81,18.89 45.63,18.89 5.52,0 10,4.48 10,10 0,5.53 -4.48,10 -10,10 -17.82,0 -33.96,7.23 -45.63,18.9 -11.68,11.67 -18.9,27.81 -18.9,45.63zm-10 -39.91c3.94,-7.34 8.92,-14.02 14.76,-19.86 5.83,-5.84 12.52,-10.82 19.85,-14.76 -7.33,-3.93 -14.02,-8.92 -19.85,-14.75 -5.84,-5.84 -10.82,-12.53 -14.76,-19.86 -3.93,7.33 -8.92,14.02 -14.75,19.86 -5.84,5.83 -12.53,10.82 -19.86,14.75 7.33,3.94 14.02,8.92 19.86,14.76 5.83,5.84 10.82,12.52 14.75,19.86zm-285.24 39.91c0,5.52 -4.48,10 -10,10 -5.52,0 -10,-4.48 -10,-10 0,-10.52 -4.26,-20.04 -11.16,-26.94 -6.89,-6.88 -16.41,-11.15 -26.93,-11.15 -5.52,0 -10,-4.48 -10,-10 0,-5.52 4.48,-10 10,-10 10.52,0 20.04,-4.26 26.93,-11.15 6.89,-6.89 11.16,-16.42 11.16,-26.93 0,-5.53 4.48,-10 10,-10 5.52,0 10,4.47 10,10 0,10.51 4.26,20.04 11.15,26.93 6.89,6.89 16.42,11.15 26.93,11.15 5.53,0 10,4.48 10,10 0,5.52 -4.47,10 -10,10 -10.51,0 -20.04,4.27 -26.93,11.15 -6.89,6.9 -11.15,16.42 -11.15,26.94zm-10 -32.59c2.07,-3.05 4.42,-5.89 7.01,-8.49 2.6,-2.59 5.44,-4.94 8.48,-7.01 -3.04,-2.07 -5.88,-4.42 -8.48,-7.01 -2.59,-2.6 -4.94,-5.44 -7.01,-8.48 -2.07,3.04 -4.42,5.88 -7.02,8.48 -2.59,2.59 -5.43,4.94 -8.48,7.01 3.05,2.07 5.89,4.42 8.48,7.01 2.6,2.6 4.95,5.44 7.02,8.49z"/>
 </g>
</svg>
