<?xml version="1.0" encoding="UTF-8"?>
<!DOCTYPE svg PUBLIC "-//W3C//DTD SVG 1.1//EN" "http://www.w3.org/Graphics/SVG/1.1/DTD/svg11.dtd">
<!-- Creator: CorelDRAW 2021 (64-Bit) -->
<svg xmlns="http://www.w3.org/2000/svg" xml:space="preserve" width="512px" height="512px" version="1.1" style="shape-rendering:geometricPrecision; text-rendering:geometricPrecision; image-rendering:optimizeQuality; fill-rule:evenodd; clip-rule:evenodd"
viewBox="0 0 512 512"
 xmlns:xlink="http://www.w3.org/1999/xlink"
 xmlns:xodm="http://www.corel.com/coreldraw/odm/2003">
 <defs>
  <style type="text/css">
   <![CDATA[
    .fil0 {fill:#EA2D3F;fill-rule:nonzero}
   ]]>
  </style>
 </defs>
 <g id="Layer_x0020_1">
  <metadata id="CorelCorpID_0Corel-Layer"/>
  <g>
   <path class="fil0" d="M93.27 79.76c4.47,-15.45 13.85,-28.8 26.33,-38.24 12.33,-9.33 27.68,-14.86 44.3,-14.86 20.3,0 38.68,8.23 51.99,21.54 13.31,13.31 21.54,31.69 21.54,51.99l0 88.12c5.51,-3.03 11.84,-4.76 18.57,-4.76 6.73,0 13.06,1.73 18.57,4.76l0 -88.12c0,-20.3 8.23,-38.68 21.54,-51.99 13.31,-13.31 31.69,-21.54 51.99,-21.54 16.62,0 31.97,5.53 44.3,14.86 12.48,9.44 21.86,22.79 26.33,38.24l0.17 0.56 20.38 76.05c8.12,8.53 14.67,18.57 19.19,29.63 0.2,0.41 0.38,0.83 0.52,1.27l46.61 140.8c4.15,12.09 6.4,25.06 6.4,38.55 0,32.78 -13.29,62.46 -34.77,83.95 -21.48,21.48 -51.16,34.77 -83.94,34.77 -32.78,0 -62.46,-13.29 -83.95,-34.77 -14.42,-14.42 -25.14,-32.53 -30.64,-52.79 -6.38,4.66 -14.23,7.41 -22.7,7.41 -8.47,0 -16.32,-2.75 -22.7,-7.42 -5.5,20.27 -16.22,38.38 -30.64,52.8 -21.49,21.48 -51.17,34.77 -83.95,34.77 -32.78,0 -62.46,-13.29 -83.94,-34.77 -21.48,-21.49 -34.77,-51.17 -34.77,-83.95 0,-13.49 2.25,-26.46 6.4,-38.55l46.61 -140.8c0.14,-0.44 0.32,-0.86 0.52,-1.27 4.52,-11.06 11.07,-21.1 19.19,-29.63l20.38 -76.05 0.17 -0.56zm144.16 142.36l0 110.72c5.52,-3.05 11.85,-4.79 18.57,-4.79 6.72,0 13.05,1.74 18.57,4.79l0 -110.72c0,-5.13 -2.08,-9.77 -5.44,-13.13 -3.36,-3.36 -8,-5.44 -13.13,-5.44 -5.13,0 -9.77,2.08 -13.13,5.44 -3.36,3.36 -5.44,8 -5.44,13.13zm155.86 71.15c-5.53,0 -10,4.48 -10,10 0,5.53 4.47,10 10,10 5.52,0 10,-4.47 10,-10 0,-5.52 -4.48,-10 -10,-10zm-37.85 35.75c-9.58,9.64 -15.5,22.93 -15.5,37.6 0,14.74 5.97,28.08 15.62,37.73 9.65,9.65 22.99,15.62 37.73,15.62 14.73,0 28.07,-5.97 37.72,-15.62 9.65,-9.66 15.63,-22.99 15.63,-37.73 0,-14.7 -5.95,-28.01 -15.56,-37.66l-0.07 -0.06c-3.91,-3.91 -3.91,-10.24 0,-14.14 3.91,-3.91 10.24,-3.91 14.14,0l0.19 0.19c13.17,13.26 21.3,31.52 21.3,51.67 0,20.26 -8.21,38.6 -21.49,51.87 -13.27,13.27 -31.61,21.48 -51.86,21.48 -20.26,0 -38.6,-8.21 -51.87,-21.48 -13.27,-13.27 -21.48,-31.61 -21.48,-51.87 0,-20.15 8.13,-38.41 21.29,-51.67l0.19 -0.19c3.9,-3.91 10.24,-3.91 14.14,0 3.91,3.9 3.91,10.23 0,14.14l-0.12 0.12 0 0zm-60.87 -28.36c4.33,-6.47 9.29,-12.49 14.77,-17.98 21.49,-21.48 51.17,-34.77 83.95,-34.77 27.54,0 52.89,9.38 73.04,25.12l-26.29 -79.41c-3.79,-9.28 -9.36,-17.64 -16.29,-24.65 -0.34,-0.3 -0.67,-0.62 -0.97,-0.96 -3.21,-3.13 -6.69,-5.98 -10.42,-8.5 -12.01,-8.14 -26.57,-12.89 -42.29,-12.89 -20.85,0 -39.72,8.45 -53.39,22.11 -13.66,13.66 -22.11,32.54 -22.11,53.39l0 0 0 78.54zm0 -137.03c2.47,-3.18 5.13,-6.2 7.97,-9.04 17.29,-17.28 41.16,-27.97 67.53,-27.97 15.58,0 30.32,3.76 43.35,10.43l-13.85 -51.69c-3.23,-11.26 -10.08,-21.01 -19.2,-27.91 -8.96,-6.77 -20.14,-10.79 -32.27,-10.79 -14.78,0 -28.16,5.99 -37.85,15.68 -9.67,9.67 -15.66,23.03 -15.68,37.79l0 63.5zm98.72 104.28c-27.26,0 -51.94,11.05 -69.81,28.91 -17.86,17.86 -28.91,42.54 -28.91,69.8 0,27.26 11.05,51.94 28.91,69.81 17.86,17.86 42.55,28.91 69.81,28.91 27.26,0 51.94,-11.05 69.8,-28.91 17.86,-17.86 28.91,-42.55 28.91,-69.81 0,-27.26 -11.05,-51.94 -28.91,-69.8 -17.86,-17.86 -42.54,-28.91 -69.8,-28.91zm-98.72 -45.79l0 0 0 0zm-175.86 71.15c20.26,0 38.6,8.22 51.87,21.49 13.27,13.27 21.48,31.61 21.48,51.86 0,20.26 -8.21,38.6 -21.48,51.87 -13.27,13.27 -31.61,21.48 -51.87,21.48 -20.25,0 -38.59,-8.21 -51.86,-21.48 -13.28,-13.27 -21.49,-31.61 -21.49,-51.87 0,-20.25 8.21,-38.59 21.49,-51.86 13.27,-13.27 31.61,-21.49 51.86,-21.49zm37.73 35.63c-9.65,-9.65 -22.99,-15.63 -37.73,-15.63 -14.73,0 -28.07,5.98 -37.72,15.63 -9.65,9.65 -15.63,22.99 -15.63,37.72 0,14.74 5.98,28.07 15.63,37.73 9.65,9.65 22.99,15.62 37.72,15.62 14.74,0 28.08,-5.97 37.73,-15.62 9.65,-9.65 15.62,-22.99 15.62,-37.73 0,-14.73 -5.97,-28.07 -15.62,-37.72zm99.56 56.29c5.16,0 9.8,-2.06 13.13,-5.39l0.04 -0.04c3.34,-3.34 5.4,-7.98 5.4,-13.14 0,-5.15 -2.06,-9.79 -5.4,-13.13l-0.04 -0.04c-3.33,-3.33 -7.97,-5.4 -13.13,-5.4 -5.16,0 -9.8,2.07 -13.13,5.4l-0.04 0.04c-3.34,3.34 -5.4,7.98 -5.4,13.13 0,5.16 2.06,9.8 5.4,13.14l0.04 0.04c3.33,3.33 7.97,5.39 13.13,5.39zm-38.57 -163.07l0 0c0,-20.85 -8.45,-39.73 -22.11,-53.39 -13.67,-13.66 -32.54,-22.11 -53.39,-22.11 -15.72,0 -30.28,4.75 -42.29,12.89 -3.73,2.52 -7.21,5.37 -10.42,8.5 -0.3,0.34 -0.63,0.67 -0.97,0.96 -6.93,7.01 -12.5,15.37 -16.29,24.65l-26.29 79.41c20.15,-15.74 45.5,-25.12 73.04,-25.12 32.78,0 62.46,13.29 83.95,34.77 5.49,5.49 10.44,11.51 14.77,17.98l0 -78.54zm0 0l0 0 0 0zm0 -58.49l0 -63.5c-0.02,-14.76 -6.01,-28.12 -15.68,-37.79 -9.69,-9.69 -23.07,-15.68 -37.85,-15.68 -12.13,0 -23.31,4.02 -32.27,10.79 -9.12,6.9 -15.97,16.65 -19.2,27.91l-13.85 51.69c13.03,-6.67 27.77,-10.43 43.35,-10.43 26.37,0 50.24,10.69 67.53,27.97 2.84,2.84 5.5,5.86 7.97,9.04zm-28.91 133.19c-17.87,-17.86 -42.55,-28.91 -69.81,-28.91 -27.26,0 -51.94,11.05 -69.8,28.91 -17.86,17.86 -28.91,42.54 -28.91,69.8 0,27.26 11.05,51.95 28.91,69.81 17.86,17.86 42.54,28.91 69.8,28.91 27.26,0 51.95,-11.05 69.81,-28.91 17.86,-17.87 28.91,-42.55 28.91,-69.81 0,-27.26 -11.05,-51.94 -28.91,-69.8z"/>
  </g>
 </g>
</svg>
