<?xml version="1.0" encoding="utf-8"?>
<!-- Generator: Adobe Illustrator 26.2.1, SVG Export Plug-In . SVG Version: 6.00 Build 0)  -->
<svg version="1.1" id="Layer_1" xmlns="http://www.w3.org/2000/svg" xmlns:xlink="http://www.w3.org/1999/xlink" x="0px" y="0px"
	 width="100px" height="100px" viewBox="0 0 100 100" style="enable-background:new 0 0 100 100;" xml:space="preserve">
<style type="text/css">
	.st0{fill:#EA2D3F;}
</style>
<g id="Outline_2_">
	<path class="st0" d="M74.2,68.6l-3.4,1.9C70,69.9,69,69.3,68,68.9V65h-9v3.9c-1,0.4-2,1-2.9,1.7L56,70.5V62c0-4.1-8.5-6-16.5-6
		S23,57.9,23,62v27c0,4.1,8.5,6,16.5,6c7.6,0,15.7-1.7,16.4-5.4l0.2-0.1c0.9,0.7,1.8,1.2,2.9,1.7V95h9v-3.9c1-0.4,2-1,2.9-1.7
		l3.4,1.9l4.5-7.8l-3.4-1.9c0.2-1.1,0.2-2.2,0-3.3l3.4-1.9L74.2,68.6z M52.8,68.6l-2.2,3.8c-3.6,1.1-7.3,1.6-11,1.6
		c-8.8,0-13.3-2.2-13.5-3v-5.4c0,0,0,0,0.1,0c0.4,0.2,0.7,0.3,1.2,0.5c0.1,0,0.2,0.1,0.3,0.1c0.3,0.1,0.6,0.2,1,0.3
		c0.2,0,0.3,0.1,0.5,0.1c0.3,0.1,0.7,0.2,1,0.3c0.2,0,0.3,0.1,0.5,0.1c0.4,0.1,0.9,0.2,1.3,0.3l0.3,0c0.5,0.1,1.1,0.2,1.6,0.2
		l0.5,0.1c0.4,0,0.8,0.1,1.2,0.1c0.2,0,0.4,0,0.6,0c0.4,0,0.8,0.1,1.2,0.1l0.5,0c0.6,0,1.1,0,1.7,0c0.6,0,1.1,0,1.7,0l0.5,0
		c0.4,0,0.8,0,1.2-0.1c0.2,0,0.4,0,0.6,0c0.4,0,0.8-0.1,1.2-0.1l0.5-0.1c0.6-0.1,1.1-0.1,1.6-0.2l0.3,0c0.4-0.1,0.9-0.2,1.3-0.3
		c0.2,0,0.3-0.1,0.5-0.1c0.3-0.1,0.7-0.2,1-0.3c0.2,0,0.3-0.1,0.5-0.1c0.3-0.1,0.7-0.2,1-0.3c0.1,0,0.2-0.1,0.3-0.1
		c0.4-0.2,0.8-0.3,1.2-0.5c0,0,0,0,0.1,0v3.1L52.8,68.6z M39.5,59c0.5,0,1.1,0,1.6,0c0.2,0,0.3,0,0.5,0c0.3,0,0.6,0,1,0
		c0.3,0,0.5,0,0.7,0.1c0.2,0,0.5,0,0.7,0.1c0.3,0,0.6,0.1,0.9,0.1c0.1,0,0.3,0,0.4,0.1c0.4,0,0.7,0.1,1.1,0.1l0.1,0
		c4.2,0.7,6.4,1.9,6.6,2.5c0,0,0,0.1,0,0.1c0,0,0,0.1-0.1,0.1c0,0-0.1,0.1-0.1,0.1c0,0-0.1,0.1-0.1,0.1c0,0-0.1,0.1-0.1,0.1
		c0,0-0.1,0.1-0.2,0.1c0,0-0.1,0.1-0.2,0.1c-0.1,0-0.1,0.1-0.2,0.2c-0.1,0-0.1,0.1-0.2,0.1c-0.1,0.1-0.2,0.1-0.3,0.2l-0.2,0.1
		c-0.1,0.1-0.2,0.1-0.4,0.2c-0.1,0-0.2,0.1-0.2,0.1c-0.1,0.1-0.3,0.1-0.4,0.2c-0.1,0-0.2,0.1-0.3,0.1c-0.2,0.1-0.3,0.1-0.5,0.2
		c-0.1,0-0.2,0.1-0.4,0.1c-0.2,0-0.4,0.1-0.5,0.1c-0.1,0-0.3,0.1-0.4,0.1c-0.2,0-0.4,0.1-0.6,0.1c-0.2,0-0.3,0.1-0.5,0.1
		c-0.2,0-0.4,0.1-0.6,0.1c-0.2,0-0.4,0.1-0.6,0.1c-0.2,0-0.4,0.1-0.6,0.1c-0.2,0-0.5,0.1-0.7,0.1c-0.2,0-0.4,0-0.6,0.1
		c-0.3,0-0.5,0-0.8,0.1c-0.2,0-0.4,0-0.6,0c-0.3,0-0.7,0-1,0c-0.2,0-0.3,0-0.5,0c-0.5,0-1,0-1.6,0c-1.1,0-2.1,0-3.1-0.1
		C29.7,64.5,26.2,62.7,26,62C26.3,61.2,30.8,59,39.5,59z M26,74.6c3.2,1.6,8.5,2.4,13.5,2.4c3,0,6-0.3,8.9-0.8l-0.1,0.2l3.4,1.9
		c-0.1,0.6-0.1,1.1-0.1,1.7c0,0.3,0,0.7,0.1,1c-3.9,1.5-8,2.1-12.1,2c-8.8,0-13.3-2.2-13.5-3l0,0V74.6z M26,89v-5.4
		c3.2,1.6,8.5,2.4,13.5,2.4c3.2,0,6.4-0.3,9.6-1l2.8,4.9c-1.8,1-6,2.1-12.4,2.1C30.7,92,26.2,89.8,26,89z M72.2,77.9
		c0.3,1.4,0.3,2.8,0,4.2L72,83.2l2.7,1.5l-1.5,2.6l-2.7-1.5l-0.8,0.8c-1,1-2.3,1.7-3.6,2.1L65,88.9V92h-3v-3.1l-1.1-0.3
		c-1.3-0.4-2.6-1.1-3.6-2.1l-0.8-0.8l-2.7,1.5l-1.5-2.6l2.7-1.5l-0.3-1.1c-0.3-1.4-0.3-2.8,0-4.2l0.3-1.1l-2.7-1.5l1.5-2.6l2.7,1.5
		l0.8-0.8c1-1,2.3-1.7,3.6-2.1l1.1-0.3V68h3v3.1l1.1,0.3c1.3,0.4,2.6,1.1,3.6,2.1l0.8,0.8l2.7-1.5l1.5,2.6L72,76.8L72.2,77.9z"/>
	<path class="st0" d="M63.5,74c-3.3,0-6,2.7-6,6s2.7,6,6,6c3.3,0,6-2.7,6-6S66.8,74,63.5,74z M63.5,83c-1.7,0-3-1.3-3-3s1.3-3,3-3
		s3,1.3,3,3S65.2,83,63.5,83z"/>
	<path class="st0" d="M59,5H41v30h18V5z M56,8v18H44V8H56z M50,32h-6v-3h12v3H50z"/>
	<path class="st0" d="M51.5,30.5c0-0.4-0.2-0.8-0.4-1.1c-0.4-0.4-0.9-0.5-1.4-0.4c-0.1,0-0.2,0-0.3,0.1c-0.1,0-0.2,0.1-0.3,0.1
		c-0.1,0.1-0.2,0.1-0.2,0.2c-0.3,0.3-0.4,0.7-0.4,1.1c0,0.8,0.7,1.5,1.5,1.5C50.8,32,51.5,31.3,51.5,30.5z"/>
	<polygon class="st0" points="21.5,38 18.5,38 18.5,47 48.5,47 48.5,53 51.5,53 51.5,47 81.5,47 81.5,38 78.5,38 78.5,44 51.5,44 
		51.5,38 48.5,38 48.5,44 21.5,44 	"/>
	<path class="st0" d="M14,32h-3v3h18v-3h-3v-3h9V5H5v24h9V32z M23,32h-6v-3h6V32z M8,8h24v12H8V8z M8,26v-3h24v3H8z"/>
	<path class="st0" d="M65,35h30V5H65V35z M92,32H68V17h24V32z M68,8h24v6H68V8z"/>
	<path class="st0" d="M71.8,9.8c-0.1-0.1-0.2-0.1-0.3-0.1c-0.1,0-0.2-0.1-0.3-0.1c-0.5-0.1-1,0.1-1.3,0.4c-0.1,0.1-0.2,0.3-0.3,0.5
		c-0.2,0.6-0.1,1.2,0.3,1.6c0.1,0.1,0.3,0.2,0.5,0.3c0.4,0.2,0.8,0.2,1.1,0c0.2-0.1,0.3-0.2,0.5-0.3c0.3-0.3,0.4-0.7,0.4-1.1
		c0-0.4-0.2-0.8-0.4-1.1C72,9.9,71.9,9.8,71.8,9.8z"/>
	<path class="st0" d="M76.6,9.9c-0.6-0.6-1.5-0.6-2.1,0c-0.1,0.1-0.2,0.3-0.3,0.5C74,10.6,74,10.8,74,11c0,0.2,0,0.4,0.1,0.6
		c0.1,0.2,0.2,0.4,0.3,0.5c0.4,0.4,1.1,0.6,1.6,0.3c0.2-0.1,0.3-0.2,0.5-0.3c0.1-0.1,0.2-0.3,0.3-0.5c0.2-0.4,0.2-0.8,0-1.1
		C76.8,10.2,76.7,10.1,76.6,9.9z"/>
	<path class="st0" d="M81.1,9.9c-0.1-0.1-0.3-0.2-0.5-0.3c-0.3-0.1-0.6-0.2-0.9-0.1c-0.1,0-0.2,0-0.3,0.1c-0.1,0-0.2,0.1-0.3,0.1
		c-0.1,0.1-0.2,0.1-0.2,0.2c-0.1,0.1-0.2,0.3-0.3,0.5c-0.2,0.4-0.2,0.8,0,1.1c0.1,0.2,0.2,0.4,0.3,0.5c0.1,0.1,0.3,0.2,0.5,0.3
		c0.2,0.1,0.4,0.1,0.6,0.1c0.4,0,0.8-0.2,1.1-0.4c0.1-0.1,0.2-0.3,0.3-0.5c0.2-0.4,0.2-0.8,0-1.1C81.3,10.2,81.2,10.1,81.1,9.9z"/>
</g>
</svg>
