<?xml version="1.0" encoding="utf-8"?>
<!-- Generator: Adobe Illustrator 26.2.1, SVG Export Plug-In . SVG Version: 6.00 Build 0)  -->
<svg version="1.1" id="Layer_1" xmlns="http://www.w3.org/2000/svg" xmlns:xlink="http://www.w3.org/1999/xlink" x="0px" y="0px"
	 width="100px" height="100px" viewBox="0 0 100 100" style="enable-background:new 0 0 100 100;" xml:space="preserve">
<style type="text/css">
	.st0{fill:#EA2D3F;}
</style>
<g>
	<path class="st0" d="M34.7,54.6v-1.5c0.8,0,1.5-0.7,1.5-1.5c0-6.8-5.5-12.3-12.3-12.3c-6.8,0-12.3,5.5-12.3,12.3
		c0,0.8,0.7,1.5,1.5,1.5v1.5c0,5.9,4.8,10.7,10.7,10.7S34.7,60.5,34.7,54.6z M23.9,42.3c4.5,0,8.3,3.2,9.1,7.7h-8.4l-4.2-4.2
		c-0.4-0.4-0.9-0.5-1.4-0.4c-0.5,0.1-0.9,0.5-1.1,1L16.7,50h-1.8C15.6,45.6,19.4,42.3,23.9,42.3z M23.9,62.3c-4.2,0-7.7-3.4-7.7-7.7
		v-1.5h1.5c0.7,0,1.2-0.4,1.5-1l0.7-2.2l2.8,2.8c0.3,0.3,0.7,0.4,1.1,0.4h7.7v1.5C31.6,58.8,28.2,62.3,23.9,62.3z"/>
	<path class="st0" d="M27,65.3h-6.1C11.6,65.3,4,72.9,4,82.2v12.3C4,95.3,4.7,96,5.5,96h36.8c0.8,0,1.5-0.7,1.5-1.5V82.2
		C43.9,72.9,36.3,65.3,27,65.3z M27,68.4c0.6,0,1.1,0,1.6,0.1L23.9,75l-4.7-6.5c0.5-0.1,1.1-0.1,1.7-0.1H27z M7.1,82.2
		c0-5.7,3.6-10.9,8.9-12.9l6.4,8.8v14.8h-9.2V79.1h-3.1v13.8H7.1L7.1,82.2L7.1,82.2z M40.8,92.9h-3.1V79.1h-3.1v13.8h-9.2V78.1
		l6.4-8.8c5.4,2,8.9,7.2,8.9,12.9L40.8,92.9L40.8,92.9z"/>
	<path class="st0" d="M30.1,74.5h3.1v3.1h-3.1V74.5z"/>
	<path class="st0" d="M86.8,19.3v-1.5c0.8,0,1.5-0.7,1.5-1.5C88.3,9.5,82.8,4,76.1,4S63.8,9.5,63.8,16.3c0,0.8,0.7,1.5,1.5,1.5v1.5
		c0,5.9,4.8,10.7,10.7,10.7C82,30.1,86.8,25.3,86.8,19.3z M76.1,7.1c4.5,0,8.3,3.2,9.1,7.7h-8.4l-4.2-4.1c-0.4-0.4-0.9-0.5-1.4-0.4
		c-0.5,0.1-0.9,0.5-1.1,1l-1.2,3.5H67C67.7,10.3,71.6,7.1,76.1,7.1z M76.1,27c-4.2,0-7.7-3.4-7.7-7.7v-1.5h1.5c0.7,0,1.2-0.4,1.5-1
		l0.8-2.2l2.8,2.8c0.3,0.3,0.7,0.4,1.1,0.4h7.7v1.5C83.7,23.6,80.3,27,76.1,27z"/>
	<path class="st0" d="M79.1,30.1H73c-9.3,0-16.9,7.6-16.9,16.9v12.3c0,0.8,0.7,1.5,1.5,1.5h36.8c0.8,0,1.5-0.7,1.5-1.5V46.9
		C96,37.6,88.4,30.1,79.1,30.1z M79.1,33.1c0.6,0,1.1,0,1.7,0.1l-4.7,6.5l-4.7-6.5c0.5-0.1,1.1-0.1,1.7-0.1H79.1z M59.2,46.9
		c0-5.7,3.6-10.9,8.9-12.9l6.4,8.8v14.8h-9.2V43.9h-3.1v13.8h-3.1V46.9z M92.9,57.7h-3.1V43.9h-3.1v13.8h-9.2V42.8L84,34
		c5.4,2,8.9,7.2,8.9,12.9C92.9,46.9,92.9,57.7,92.9,57.7z"/>
	<path class="st0" d="M82.2,39.3h3.1v3.1h-3.1V39.3z"/>
	<path class="st0" d="M76.5,64.2L70,70.8l2.2,2.2l3.9-3.9v11.6c0,2.5-2.1,4.6-4.6,4.6H46.9v3.1h24.5c4.2,0,7.7-3.4,7.7-7.7V69
		l3.9,3.9l2.2-2.2l-6.5-6.5C78.1,63.7,77.1,63.7,76.5,64.2z"/>
	<path class="st0" d="M23.9,36.2c0.4,0,0.8-0.2,1.1-0.4l6.5-6.5l-2.2-2.2L25.5,31V19.3c0-2.5,2.1-4.6,4.6-4.6h27.6v-3.1H30.1
		c-4.2,0-7.7,3.4-7.7,7.7V31l-3.9-3.9l-2.2,2.2l6.5,6.5C23.1,36,23.5,36.2,23.9,36.2z"/>
</g>
</svg>
