<?xml version="1.0" encoding="utf-8"?>
<!-- Generator: Adobe Illustrator 26.2.1, SVG Export Plug-In . SVG Version: 6.00 Build 0)  -->
<svg version="1.1" id="Layer_1" xmlns="http://www.w3.org/2000/svg" xmlns:xlink="http://www.w3.org/1999/xlink" x="0px" y="0px"
	 width="100px" height="100px" viewBox="0 0 100 100" style="enable-background:new 0 0 100 100;" xml:space="preserve">
<style type="text/css">
	.st0{fill:#EA2D3F;}
</style>
<g>
	<path class="st0" d="M25.9,18.1h46.5v60h2.9V13.8c0-4-3.3-7.3-7.3-7.3H30.3c-4,0-7.3,3.3-7.3,7.3v65.3h2.9V18.1z M25.9,13.8
		c0-2.4,2-4.4,4.4-4.4H68c2.4,0,4.4,2,4.4,4.4v1.5H25.9V13.8z"/>
	<path class="st0" d="M23,82v7.3c0,4,3.3,7.3,7.3,7.3H68c4,0,7.3-3.3,7.3-7.3V82H23z M72.4,89.3c0,2.4-2,4.4-4.4,4.4H30.3
		c-2.4,0-4.4-2-4.4-4.4v-4.4h46.4V89.3z"/>
	<rect x="41.9" y="87.8" class="st0" width="14.5" height="2.9"/>
	<path class="st0" d="M49.2,32.7c-4,0-7.3,3.3-7.3,7.3c0,4,3.3,7.3,7.3,7.3c4,0,7.3-3.3,7.3-7.3C56.4,35.9,53.2,32.7,49.2,32.7z
		 M49.2,44.3c-2.4,0-4.4-2-4.4-4.4c0-2.4,2-4.4,4.4-4.4c2.4,0,4.4,2,4.4,4.4C53.5,42.3,51.6,44.3,49.2,44.3z"/>
	<path class="st0" d="M68,44v-8.2l-5.3-1.1c-0.2-0.5-0.4-1.1-0.7-1.6l-2.6,1.4c0.3,0.6,0.6,1.3,0.8,1.9l0.3,0.8l4.6,0.9v3.4
		l-4.6,0.9l-0.3,0.8c-0.2,0.6-0.5,1.3-0.8,1.9l-0.4,0.8l2.6,3.9l-2.4,2.4l-3.9-2.6l-0.8,0.4c-0.6,0.3-1.3,0.6-1.9,0.8l-0.8,0.3
		l-0.9,4.6h-3.4l-0.9-4.6L45.7,51c-0.6-0.2-1.3-0.5-1.9-0.8L43,49.8l-3.9,2.6l-3.3-3.3l-2.1,2.1l4.9,4.9l4.5-3
		c0.3,0.1,0.5,0.2,0.8,0.3l1.1,5.3h8.2l1.1-5.3c0.3-0.1,0.5-0.2,0.8-0.3l4.5,3l5.8-5.8l-3-4.5c0.1-0.3,0.2-0.5,0.3-0.8L68,44z"/>
	<path class="st0" d="M30.3,35.8V44l5.3,1.1c0.2,0.5,0.4,1.1,0.7,1.6l2.6-1.4c-0.3-0.6-0.6-1.3-0.8-1.9l-0.3-0.8l-4.6-0.9v-3.4
		l4.6-0.9l0.3-0.8c0.2-0.6,0.5-1.3,0.8-1.9l0.4-0.8l-2.6-3.9l2.4-2.4L43,30l0.8-0.4c0.6-0.3,1.3-0.6,1.9-0.8l0.8-0.3l0.9-4.6h3.4
		l0.9,4.6l0.8,0.3c0.6,0.2,1.3,0.5,1.9,0.8l0.8,0.4l3.9-2.6l3.3,3.3l2.1-2.1l-4.9-4.9l-4.5,3c-0.3-0.1-0.5-0.2-0.8-0.3L53.3,21h-8.2
		L44,26.3c-0.3,0.1-0.5,0.2-0.8,0.3l-4.5-3l-5.8,5.8l3,4.5c-0.1,0.3-0.2,0.5-0.3,0.8L30.3,35.8z"/>
	<rect x="47.7" y="61.7" class="st0" width="2.9" height="2.9"/>
	<rect x="47.7" y="67.5" class="st0" width="2.9" height="2.9"/>
	<rect x="47.7" y="73.3" class="st0" width="2.9" height="2.9"/>
</g>
</svg>
