<?xml version="1.0" encoding="utf-8"?>
<!-- Generator: Adobe Illustrator 26.2.1, SVG Export Plug-In . SVG Version: 6.00 Build 0)  -->
<svg version="1.1" id="Layer_1" xmlns="http://www.w3.org/2000/svg" xmlns:xlink="http://www.w3.org/1999/xlink" x="0px" y="0px"
	 width="100px" height="100px" viewBox="0 0 100 100" style="enable-background:new 0 0 100 100;" xml:space="preserve">
<style type="text/css">
	.st0{fill:#EA2D3F;}
</style>
<g>
	<path class="st0" d="M87.1,20.1c-2-0.7-4.2-0.6-6.1,0.3c-1.9,0.9-3.4,2.5-4.1,4.5l-1.1,3L60.4,70v0.6l0.2,6.9l0.3,10.3
		c0,0.7,0.4,1.2,1.1,1.5c0.2,0.1,0.4,0.1,0.5,0.1c0.5,0,0.9-0.2,1.2-0.5l6.9-7.7l4.6-5.1l0.1-0.2c0,0,0-0.1,0-0.1
		c0-0.1,0.1-0.1,0.1-0.2l8.4-23.2c0.3-0.8-0.1-1.8-1-2.1c-0.8-0.3-1.8,0.1-2.1,1L73,72.8l-1.2-0.4L70,71.7l14.2-39.1l3,1.1
		l-3.8,10.5c-0.2,0.5-0.1,1.2,0.3,1.6c0.4,0.4,1,0.7,1.5,0.6c0.6-0.1,1-0.5,1.2-1.1l4.4-12l1.1-3c0.7-2,0.6-4.2-0.2-6.1
		C90.8,22.3,89.1,20.8,87.1,20.1z M79.9,26c0.9-2.5,3.6-3.8,6.1-2.9c2.5,0.9,3.8,3.6,2.9,6.1l-0.5,1.5l-9-3.2L79.9,26z M64,83.7
		l-0.1-4l2.8,1L64,83.7z M68.9,78.2l-5.2-1.9l-0.1-3.4l1.3,0.5l6.4,2.3L68.9,78.2z M67,70.7l-3-1.1l14.2-39.1l2.9,1.1h0.1L67,70.7z"
		/>
	<path class="st0" d="M55.6,14.8H70c0.9,0,1.6,0.7,1.6,1.6v4.9c0,0.9,0.7,1.6,1.6,1.6s1.6-0.7,1.6-1.6v-4.9c0-2.7-2.1-4.8-4.8-4.8
		H55.6c-0.9,0-1.6,0.7-1.6,1.6S54.7,14.8,55.6,14.8z"/>
	<path class="st0" d="M73.2,84.4c-0.9,0-1.6,0.7-1.6,1.6v7.2c0,0.9-0.7,1.6-1.6,1.6H12.4c-0.9,0-1.6-0.7-1.6-1.6V16.4
		c0-0.9,0.7-1.6,1.6-1.6h12.8c0.9,0,1.6-0.7,1.6-1.6s-0.7-1.6-1.6-1.6H12.4c-2.7,0-4.8,2.1-4.8,4.8v76.8c0,2.7,2.1,4.8,4.8,4.8H70
		c2.7,0,4.8-2.1,4.8-4.8V86C74.8,85.1,74.1,84.4,73.2,84.4z"/>
	<path class="st0" d="M28.4,25.3l-5.9,5.9c-0.2,0.2-0.3,0.5-0.4,0.8l-4.8,19.2c-0.1,0.5,0,1,0.3,1.4c0.3,0.4,0.8,0.6,1.3,0.6h4.8
		c0.9,0,1.6-0.7,1.6-1.6c0-0.9-0.7-1.6-1.6-1.6h-2.8L25,33.2l3.4-3.4V50c0,1.1,0.6,2.2,1.6,2.8v8.1c0,2.3,0.4,4.6,1.3,6.7h-2.9
		c-0.9,0-1.6,0.7-1.6,1.6c0,0.9,0.7,1.6,1.6,1.6h4.7c0.1,0.1,0.1,0.2,0.2,0.3l5,7c0.3,0.4,0.8,0.7,1.3,0.7c0.5,0,1-0.2,1.3-0.7
		l5.1-7.2c2-2.9,3.1-6.3,3.2-9.7v-8.4c1-0.6,1.6-1.6,1.6-2.8V29.8l3.4,3.4L58.4,50h-2.8c-0.9,0-1.6,0.7-1.6,1.6
		c0,0.9,0.7,1.6,1.6,1.6h4.8c0.5,0,1-0.2,1.3-0.6c0.3-0.4,0.4-0.9,0.3-1.4L57.2,32c-0.1-0.3-0.2-0.5-0.4-0.8l-5.9-5.9v-0.9H54
		c0.9,0,1.6-0.7,1.6-1.6c0-0.9-0.7-1.6-1.6-1.6h-3.2v-5.1c-0.1-0.2-0.1-0.4-0.3-0.6L40.9,2.6C40.6,2.2,40.1,2,39.6,2
		c-0.5,0-1,0.2-1.3,0.6l-9.6,12.8c-0.1,0.2-0.2,0.4-0.3,0.6v0.3L28.4,25.3z M46,56.4H33.2v-3.2H46V56.4z M46,61.1
		c-0.1,2.9-1,5.7-2.6,8l-3.8,5.4L37,70.8h2.6c0.9,0,1.6-0.7,1.6-1.6c0-0.9-0.7-1.6-1.6-1.6h-4.8c-1.1-2.1-1.6-4.4-1.6-6.7v-1.3H46
		V61.1z M44.4,24.4h3.2V50h-16V18h16v3.2h-3.2c-0.9,0-1.6,0.7-1.6,1.6C42.8,23.7,43.5,24.4,44.4,24.4z M39.6,6.3l6.4,8.5H33.2
		L39.6,6.3z"/>
	<path class="st0" d="M41.2,30.8c0,0.9-0.7,1.6-1.6,1.6c-0.9,0-1.6-0.7-1.6-1.6c0-0.9,0.7-1.6,1.6-1.6c0.9,0,1.6-0.7,1.6-1.6
		c0-0.9-0.7-1.6-1.6-1.6c-2.7,0-4.8,2.1-4.8,4.8c0,2.7,2.1,4.8,4.8,4.8c2.7,0,4.8-2.1,4.8-4.8c0-0.9-0.7-1.6-1.6-1.6
		S41.2,29.9,41.2,30.8z"/>
	<path class="st0" d="M42.8,38.8h-6.4c-0.9,0-1.6,0.7-1.6,1.6c0,0.9,0.7,1.6,1.6,1.6h6.4c0.9,0,1.6-0.7,1.6-1.6
		C44.4,39.5,43.7,38.8,42.8,38.8z"/>
	<path class="st0" d="M14,70.8c0,1.8,1.4,3.2,3.2,3.2h3.2c1.8,0,3.2-1.4,3.2-3.2v-3.2c0-1.8-1.4-3.2-3.2-3.2h-3.2
		c-1.8,0-3.2,1.4-3.2,3.2C14,67.6,14,70.8,14,70.8z M17.2,67.6h3.2v3.2h-3.2V67.6z"/>
	<path class="st0" d="M58.8,22.8c0,2.7,2.2,4.8,4.8,4.8s4.8-2.1,4.8-4.8S66.3,18,63.6,18S58.8,20.1,58.8,22.8z M65.2,22.8
		c0,0.9-0.7,1.6-1.6,1.6S62,23.7,62,22.8c0-0.9,0.7-1.6,1.6-1.6S65.2,21.9,65.2,22.8z"/>
	<path class="st0" d="M15.6,24.4H22c0.9,0,1.6-0.7,1.6-1.6c0-0.9-0.7-1.6-1.6-1.6h-6.4c-0.9,0-1.6,0.7-1.6,1.6
		C14,23.7,14.7,24.4,15.6,24.4z"/>
	<path class="st0" d="M15.6,30.8h3.2c0.9,0,1.6-0.7,1.6-1.6s-0.7-1.6-1.6-1.6h-3.2c-0.9,0-1.6,0.7-1.6,1.6S14.7,30.8,15.6,30.8z"/>
	<path class="st0" d="M47.6,75.6v3.2c0,1.8,1.4,3.2,3.2,3.2H54c1.8,0,3.2-1.4,3.2-3.2v-3.2c0-1.8-1.4-3.2-3.2-3.2h-3.2
		C49,72.4,47.6,73.8,47.6,75.6z M54,78.8h-3.2v-3.2H54V78.8z"/>
	<path class="st0" d="M55.6,67.6V58c0-0.9-0.7-1.6-1.6-1.6s-1.6,0.7-1.6,1.6v9.6c0,0.9,0.7,1.6,1.6,1.6S55.6,68.5,55.6,67.6z"/>
	<path class="st0" d="M38,85.2c0.9,0,1.6-0.7,1.6-1.6S38.9,82,38,82H15.6c-0.9,0-1.6,0.7-1.6,1.6V90c0,0.9,0.7,1.6,1.6,1.6H38
		c0.9,0,1.6-0.7,1.6-1.6c0-0.9-0.7-1.6-1.6-1.6H17.2v-3.2L38,85.2L38,85.2z"/>
</g>
</svg>
