<?xml version="1.0" encoding="utf-8"?>
<!-- Generator: Adobe Illustrator 26.2.1, SVG Export Plug-In . SVG Version: 6.00 Build 0)  -->
<svg version="1.1" id="Layer_1" xmlns="http://www.w3.org/2000/svg" xmlns:xlink="http://www.w3.org/1999/xlink" x="0px" y="0px"
	 width="100px" height="100px" viewBox="0 0 100 100" style="enable-background:new 0 0 100 100;" xml:space="preserve">
<style type="text/css">
	.st0{fill:#EA2D3F;}
</style>
<g>
	<g>
		<path class="st0" d="M59.8,40.3h-2c-0.8,0-1.4,0.6-1.4,1.4V49c0,0.8,0.6,1.4,1.4,1.4h2c5.6,0,6.2-3.6,6.2-5.1
			C65.9,43.8,65.3,40.3,59.8,40.3z M59.1,47.6v-4.6c2.1,0,4,0.1,4,2.2C63.2,47.5,61.3,47.6,59.1,47.6z"/>
	</g>
</g>
<g>
	<g>
		<path class="st0" d="M42.4,53.3l-2.8-9.1c-0.4-1.3-2.3-1.3-2.7,0L34,53.3c-0.2,0.7,0.1,1.4,0.8,1.7c2.1,0.8,4.6,0.8,6.7,0
			C42.2,54.8,42.6,54.1,42.4,53.3z M37,52.8l1.1-3.6l1.1,3.6C38.6,52.9,37.8,52.9,37,52.8z"/>
	</g>
</g>
<g>
	<g>
		<path class="st0" d="M94.8,25.8h-51c-0.8,0-1.4,0.6-1.4,1.4c0,0.8,0.6,1.4,1.4,1.4h49.7L72.9,49.1c1-3.2,0.8-9-3.2-12.1
			c-2.3-1.8-5.8-2.7-10.5-2.7l-9.1,0h0c-0.8,0-1.4,0.6-1.4,1.4v13.9l-5.3-14.3c-0.2-0.5-0.7-0.9-1.3-0.9h-7.9
			c-0.6,0-1.1,0.4-1.3,0.9l-5.6,14.9c-3.4-4.5-10.7-4.7-12.6-6.8c0.2-0.2,1-0.6,2.6-0.5c1.5,0.1,3,0.2,6.1,1.7
			c0.7,0.3,1.4,0.1,1.8-0.6c3.4-5.9,3.5-5.8,3.3-6.6c-0.1-0.4-0.4-0.7-0.7-0.8c-7-3.6-17.9-4.1-22.2,2.6V28.5h31.6
			c0.8,0,1.4-0.6,1.4-1.4c0-0.8-0.6-1.4-1.4-1.4H5.2C4,25.8,3,26.8,3,28v44.9c0,0.8,0.6,1.4,1.4,1.4h33c0.8,0,1.4-0.6,1.4-1.4
			c0-0.8-0.6-1.4-1.4-1.4H5.8v-8.1c4.9,2.6,11.7,3.5,16.7,1.2c0.2,0.5,0.7,0.8,1.2,0.8H32c0.6,0,1.1-0.4,1.3-0.9l1-3
			c2.4,0.6,5.2,0.6,7.8,0l0.9,2.9c0.2,0.6,0.7,1,1.3,1h12.3l-6.1,6.1h-6.7c-0.8,0-1.4,0.6-1.4,1.4c0,0.8,0.6,1.4,1.4,1.4h7
			c0.6,0,1.2-0.2,1.6-0.6l44-44C97.7,28.2,96.8,25.8,94.8,25.8z M7.3,55.5l-1.5,3v-9.5c1.9,2.8,5.6,4.3,8.8,5.3
			c1,0.3,3.4,1.1,3.6,1.6c0,0.8-1.3,1-2.2,1c-2.3,0-3.9-0.3-6.8-2C8.5,54.6,7.6,54.8,7.3,55.5z M59.1,62.8v-6.2c1.9,0,4.3,0.1,7-0.8
			L59.1,62.8z M60.7,53.9h-2.9c-0.8,0-1.4,0.6-1.4,1.4v7.3H45.3l-1-3.2c-0.2-0.7-1-1.1-1.7-0.9c-2.9,0.9-6.1,0.9-8.7,0
			c-0.7-0.2-1.5,0.2-1.7,0.9L31,62.6h-5.3l0.2-0.6c0.2-0.6,0-1.3-0.5-1.6c-1.9-1.4-1.9,2.6-9.4,2.7c-2.9,0-5.8-0.7-8.5-2l1.6-3.1
			c2.7,1.4,4.7,1.7,7,1.6c3.6-0.1,4.8-1.9,4.9-3.7c0.1-5.6-14-3.1-13.9-12.1c0.1-6.6,9.1-9.3,18.3-5.6l-1.8,3.1
			C18,39,12,39.7,12,43.3c0,1.8,1.9,3.2,6,4.6c4.2,1.3,7.7,2.7,8.2,6.2c0.2,1.4,2.2,1.6,2.7,0.3l6.4-17.2h6l7.6,20.7
			c0.5,1.4,2.7,1.1,2.7-0.5V37.1c10.5,0,19.1-1,19.1,8.5C70.6,50.9,67,53.9,60.7,53.9z"/>
	</g>
</g>
</svg>
