<?xml version="1.0" encoding="utf-8"?>
<!-- Generator: Adobe Illustrator 26.2.1, SVG Export Plug-In . SVG Version: 6.00 Build 0)  -->
<svg version="1.1" id="Layer_1" xmlns="http://www.w3.org/2000/svg" xmlns:xlink="http://www.w3.org/1999/xlink" x="0px" y="0px"
	 width="400px" height="400px" viewBox="0 0 400 400" style="enable-background:new 0 0 400 400;" xml:space="preserve">
<style type="text/css">
	.st0{fill-rule:evenodd;clip-rule:evenodd;fill:none;stroke:#DEE3E7;stroke-width:2;stroke-miterlimit:10;}
</style>
<g>
	<polygon class="st0" points="290.9,164.8 200.1,112.3 200.1,182.1 230.6,199.7 	"/>
	<polygon class="st0" points="290.9,234.6 320.7,251.8 365.7,225.8 365.7,208.2 351.1,199.7 	"/>
</g>
<polygon class="st0" points="200.1,321.6 200.1,391.3 365.7,295.5 365.7,225.8 "/>
<polygon class="st0" points="200.1,8.1 200.1,77.9 320.7,147.6 365.7,121.5 365.7,103.9 "/>
<polygon class="st0" points="200.1,217.3 200.1,287.1 365.7,191.3 365.7,121.5 "/>
<g>
	<polygon class="st0" points="109.4,164.8 200.1,112.3 200.1,182.1 169.7,199.7 	"/>
	<polygon class="st0" points="109.4,234.6 79.6,251.8 34.6,225.8 34.6,208.2 49.2,199.7 	"/>
</g>
<polygon class="st0" points="200.1,321.6 200.1,391.3 34.6,295.5 34.6,225.8 "/>
<polygon class="st0" points="200.1,8.1 200.1,77.9 79.6,147.6 34.6,121.5 34.6,103.9 "/>
<polygon class="st0" points="200.1,217.3 200.1,287.1 34.6,191.3 34.6,121.5 "/>
</svg>
