<?xml version="1.0" encoding="utf-8"?>
<!-- Generator: Adobe Illustrator 26.2.1, SVG Export Plug-In . SVG Version: 6.00 Build 0)  -->
<svg version="1.1" id="Layer_1" xmlns="http://www.w3.org/2000/svg" xmlns:xlink="http://www.w3.org/1999/xlink" x="0px" y="0px"
	 width="239.8px" height="50px" viewBox="0 0 239.8 50" style="enable-background:new 0 0 239.8 50;" xml:space="preserve">
<style type="text/css">
	.st0{fill-rule:evenodd;clip-rule:evenodd;fill:#EE3640;}
	.st1{fill-rule:evenodd;clip-rule:evenodd;fill:#9F1C1F;}
	.st2{fill-rule:evenodd;clip-rule:evenodd;fill:#FAA521;}
	.st3{fill-rule:evenodd;clip-rule:evenodd;fill:#D96E26;}
	.st4{fill:#0B0E11;}
</style>
<g>
	<polygon class="st0" points="0,35.2 21.7,22.7 22.5,18.2 21.7,13.6 0,26.1 	"/>
	<polygon class="st1" points="43.3,35.2 21.7,22.7 21.7,13.6 43.3,26.1 	"/>
	<polygon class="st1" points="0,28.4 21.7,40.9 22.5,45.4 21.7,50 0,37.5 	"/>
	<polygon class="st0" points="43.3,28.4 21.7,40.9 21.7,50 43.3,37.5 	"/>
	<polygon class="st2" points="0,21.6 21.7,9.1 22.5,4.6 21.7,0 0,12.5 	"/>
	<polygon class="st3" points="43.3,21.6 21.7,9.1 21.7,0 43.3,12.5 	"/>
	<polygon class="st3" points="0,14.8 21.7,27.3 22.5,31.8 21.7,36.4 0,23.9 	"/>
	<polygon class="st2" points="43.3,14.8 21.7,27.3 21.7,36.4 43.3,23.9 	"/>
</g>
<g>
	<g>
		<path class="st4" d="M66,31.7v-27h5.9v27H66z"/>
		<path class="st4" d="M96.9,31.7L83.8,14.5v17.2h-5.9v-27h5.5L96,21.3V4.7h5.9v27H96.9z"/>
		<path class="st4" d="M119.8,10.2v21.5h-5.9V10.2h-8.2V4.7h22.4v5.5H119.8z"/>
		<path class="st4" d="M131.8,31.7v-27h20.3V10h-14.5v5.5h12.7v5.3h-12.7v5.7h14.7v5.3L131.8,31.7L131.8,31.7z"/>
		<path class="st4" d="M176.5,30.9c-1.9,0.8-4.1,1.3-6.6,1.3c-2.1,0-4-0.3-5.8-1c-1.7-0.7-3.2-1.7-4.5-2.9c-1.2-1.2-2.2-2.7-2.9-4.4
			c-0.7-1.7-1-3.5-1-5.6v-0.1c0-1.9,0.4-3.7,1.1-5.4c0.7-1.7,1.7-3.2,3-4.4s2.8-2.3,4.5-3s3.6-1.1,5.7-1.1c1.2,0,2.3,0.1,3.3,0.3
			s1.9,0.4,2.8,0.7c0.9,0.3,1.6,0.7,2.4,1.2c0.7,0.5,1.5,1,2.2,1.6l-3.7,4.5c-0.5-0.4-1-0.8-1.5-1.2c-0.5-0.3-1-0.6-1.6-0.8
			s-1.2-0.4-1.8-0.5s-1.3-0.2-2.1-0.2c-1.1,0-2.1,0.2-3,0.7s-1.8,1.1-2.5,1.8c-0.7,0.8-1.3,1.6-1.7,2.7c-0.4,1-0.6,2.1-0.6,3.3v-0.2
			c0,1.2,0.2,2.4,0.6,3.4c0.4,1,1,2,1.7,2.7c0.7,0.8,1.6,1.4,2.6,1.8s2.1,0.6,3.3,0.6c2.2,0,4.1-0.5,5.6-1.6v-3.9h-6v-5h11.7v11.7
			C180.1,29.1,178.4,30.1,176.5,30.9z"/>
		<path class="st4" d="M202.8,31.7l-5.8-8.6h-4.7v8.6h-5.9v-27h12.3c3.2,0,5.7,0.8,7.5,2.4s2.7,3.8,2.7,6.6v0.1c0,2.2-0.5,4-1.6,5.3
			c-1.1,1.4-2.5,2.4-4.2,3l6.6,9.6C209.7,31.7,202.8,31.7,202.8,31.7z M202.9,13.9c0-1.3-0.4-2.2-1.2-2.9c-0.8-0.6-2-1-3.4-1h-5.9
			v7.8h6c1.5,0,2.6-0.3,3.4-1C202.5,16.1,202.9,15.2,202.9,13.9L202.9,13.9z"/>
		<path class="st4" d="M233.6,31.7l-2.5-6.1h-11.4l-2.5,6.1h-6.1l11.6-27.2h5.5l11.6,27.2H233.6z M225.4,11.6l-3.6,8.8h7.2
			L225.4,11.6z"/>
	</g>
	<g>
		<path class="st4" d="M67.7,40.2c0.1,0.1,0.1,0.2,0.3,0.3c0.1,0.1,0.3,0.2,0.6,0.3c0.2,0.1,0.6,0.2,0.9,0.3
			c0.4,0.1,0.8,0.2,1.1,0.3c0.3,0.1,0.6,0.3,0.8,0.5c0.2,0.2,0.4,0.4,0.5,0.6C72,42.7,72,43,72,43.3c0,0.4-0.1,0.7-0.2,1
			s-0.3,0.5-0.6,0.7c-0.2,0.2-0.5,0.4-0.9,0.5c-0.3,0.1-0.7,0.2-1.1,0.2c-0.6,0-1.2-0.1-1.7-0.3c-0.6-0.2-1.1-0.5-1.5-0.9l0.8-1
			c0.4,0.3,0.8,0.6,1.1,0.8c0.4,0.2,0.8,0.3,1.3,0.3c0.4,0,0.8-0.1,1-0.3s0.4-0.4,0.4-0.7c0-0.1,0-0.3-0.1-0.4
			c0-0.1-0.1-0.2-0.3-0.3c-0.1-0.1-0.3-0.2-0.5-0.3s-0.5-0.2-0.9-0.3S68,42.1,67.7,42c-0.3-0.1-0.6-0.3-0.8-0.4
			c-0.2-0.2-0.4-0.4-0.5-0.6c-0.1-0.3-0.2-0.6-0.2-0.9c0-0.3,0.1-0.7,0.2-0.9c0.1-0.3,0.3-0.5,0.5-0.7s0.5-0.4,0.8-0.5
			s0.7-0.2,1.1-0.2c0.6,0,1.1,0.1,1.5,0.3c0.5,0.2,0.9,0.4,1.3,0.7l-0.7,1c-0.4-0.3-0.7-0.5-1.1-0.6S69.1,39,68.7,39
			s-0.7,0.1-0.9,0.3c-0.2,0.2-0.3,0.4-0.3,0.7C67.7,39.9,67.7,40,67.7,40.2z"/>
		<path class="st4" d="M87.2,43.2c-0.2,0.5-0.5,0.9-0.8,1.3c-0.4,0.4-0.8,0.7-1.3,0.9s-1,0.3-1.7,0.3c-0.6,0-1.2-0.1-1.7-0.3
			s-0.9-0.5-1.3-0.9s-0.6-0.8-0.8-1.3c-0.2-0.5-0.3-1-0.3-1.6s0.1-1.1,0.3-1.6c0.2-0.5,0.5-0.9,0.8-1.3c0.4-0.4,0.8-0.7,1.3-0.9
			s1-0.3,1.7-0.3c0.6,0,1.2,0.1,1.7,0.3s0.9,0.5,1.3,0.9s0.6,0.8,0.8,1.3c0.2,0.5,0.3,1,0.3,1.6S87.4,42.7,87.2,43.2z M85.9,40.6
			c-0.1-0.3-0.3-0.6-0.5-0.9c-0.2-0.3-0.5-0.5-0.8-0.6s-0.7-0.2-1.1-0.2s-0.7,0.1-1.1,0.2c-0.3,0.1-0.6,0.3-0.8,0.6
			c-0.2,0.2-0.4,0.5-0.5,0.9c-0.1,0.3-0.2,0.7-0.2,1.1s0.1,0.7,0.2,1.1c0.1,0.3,0.3,0.6,0.5,0.9c0.2,0.3,0.5,0.5,0.8,0.6
			s0.7,0.2,1.1,0.2s0.7-0.1,1.1-0.2c0.3-0.1,0.6-0.3,0.8-0.6c0.2-0.2,0.4-0.5,0.5-0.9c0.1-0.3,0.2-0.7,0.2-1.1S86,40.9,85.9,40.6z"
			/>
		<path class="st4" d="M95.2,37.7h1.4v6.6h4.1v1.2h-5.5V37.7z"/>
		<path class="st4" d="M114.5,42.1c0,0.6-0.1,1.1-0.2,1.5c-0.2,0.4-0.4,0.8-0.7,1.1c-0.3,0.3-0.6,0.5-1.1,0.7
			c-0.4,0.1-0.9,0.2-1.4,0.2s-1-0.1-1.4-0.2c-0.4-0.1-0.8-0.4-1-0.7c-0.3-0.3-0.5-0.6-0.7-1.1c-0.2-0.4-0.2-0.9-0.2-1.5v-4.5h1.4V42
			c0,0.7,0.2,1.3,0.5,1.7c0.4,0.4,0.8,0.6,1.5,0.6c0.6,0,1.1-0.2,1.4-0.5c0.4-0.4,0.5-0.9,0.5-1.6v-4.5h1.4L114.5,42.1L114.5,42.1z"
			/>
		<path class="st4" d="M123.6,40.2c0.1,0.1,0.1,0.2,0.3,0.3c0.1,0.1,0.3,0.2,0.6,0.3c0.2,0.1,0.6,0.2,0.9,0.3
			c0.4,0.1,0.8,0.2,1.1,0.3c0.3,0.1,0.6,0.3,0.8,0.5c0.2,0.2,0.4,0.4,0.5,0.6c0.1,0.2,0.2,0.5,0.2,0.9s-0.1,0.7-0.2,1
			s-0.3,0.5-0.6,0.7c-0.2,0.2-0.5,0.4-0.9,0.5c-0.3,0.1-0.7,0.2-1.1,0.2c-0.6,0-1.2-0.1-1.7-0.3c-0.6-0.2-1.1-0.5-1.5-0.9l0.8-1
			c0.4,0.3,0.8,0.6,1.2,0.8c0.4,0.2,0.8,0.3,1.3,0.3c0.4,0,0.8-0.1,1-0.3s0.4-0.4,0.4-0.7c0-0.1,0-0.3-0.1-0.4
			c0-0.1-0.1-0.2-0.3-0.3c-0.1-0.1-0.3-0.2-0.5-0.3s-0.5-0.2-0.9-0.3s-0.8-0.2-1.1-0.3c-0.3-0.1-0.6-0.3-0.8-0.4
			c-0.2-0.2-0.4-0.4-0.5-0.6c-0.1-0.3-0.2-0.6-0.2-0.9c0-0.3,0.1-0.7,0.2-0.9c0.1-0.3,0.3-0.5,0.5-0.7s0.5-0.4,0.8-0.5
			s0.7-0.2,1.1-0.2c0.6,0,1.1,0.1,1.5,0.3c0.5,0.2,0.9,0.4,1.3,0.7l-0.7,1c-0.4-0.3-0.7-0.5-1.1-0.6c-0.3-0.1-0.7-0.2-1.1-0.2
			s-0.7,0.1-0.9,0.3s-0.3,0.4-0.3,0.7C123.6,39.9,123.6,40,123.6,40.2z"/>
		<path class="st4" d="M137,37.7v7.8h-1.4v-7.8H137z"/>
		<path class="st4" d="M158.4,43.6L158.4,43.6l-2.5-3.7v5.6h-1.4v-7.8h1.5l2.4,3.7l2.4-3.7h1.5v7.8h-1.4v-5.6L158.4,43.6z"/>
		<path class="st4" d="M177.7,45.5h-1.5l-0.8-1.9h-3.7l-0.8,1.9h-1.4l3.4-7.9h1.3L177.7,45.5z M173.6,39.3l-1.3,3.1h2.7L173.6,39.3z
			"/>
		<path class="st4" d="M190.5,37.7h1.4v7.8h-1.1l-4.3-5.6v5.6h-1.4v-7.8h1.3l4.2,5.4L190.5,37.7L190.5,37.7z"/>
		<path class="st4" d="M206.7,43.2c-0.2,0.5-0.5,0.9-0.9,1.2s-0.8,0.6-1.3,0.8s-1.1,0.3-1.7,0.3h-2.9v-7.8h2.9
			c0.6,0,1.2,0.1,1.7,0.3s0.9,0.5,1.3,0.8c0.4,0.3,0.7,0.8,0.9,1.2c0.2,0.5,0.3,1,0.3,1.5S206.9,42.7,206.7,43.2z M205.4,40.6
			c-0.1-0.3-0.3-0.6-0.5-0.8s-0.5-0.4-0.9-0.6c-0.3-0.1-0.7-0.2-1.1-0.2h-1.5v5.3h1.5c0.4,0,0.8-0.1,1.1-0.2s0.6-0.3,0.9-0.5
			c0.2-0.2,0.4-0.5,0.5-0.8s0.2-0.7,0.2-1.1C205.6,41.2,205.5,40.9,205.4,40.6z"/>
		<path class="st4" d="M216.1,37.7v7.8h-1.4v-7.8H216.1z"/>
		<path class="st4" d="M229.3,45.5l-1.9-2.7h-1.7v2.7h-1.4v-7.8h3.5c0.4,0,0.9,0.1,1.2,0.2s0.7,0.3,0.9,0.5s0.4,0.5,0.6,0.8
			c0.1,0.3,0.2,0.7,0.2,1s0,0.6-0.1,0.9c-0.1,0.3-0.2,0.5-0.4,0.7s-0.4,0.4-0.6,0.5c-0.2,0.1-0.5,0.2-0.8,0.3l2.1,3h-1.6V45.5z
			 M228.8,39.3c-0.3-0.2-0.7-0.3-1.2-0.3h-2v2.6h2c0.5,0,0.9-0.1,1.2-0.4c0.3-0.2,0.4-0.6,0.4-1C229.3,39.8,229.1,39.5,228.8,39.3z"
			/>
		<path class="st4" d="M239.8,37.7v7.8h-1.4v-7.8H239.8z"/>
	</g>
</g>
</svg>
