<?xml version="1.0" encoding="utf-8"?>
<!-- Generator: Adobe Illustrator 26.2.1, SVG Export Plug-In . SVG Version: 6.00 Build 0)  -->
<svg version="1.1" id="Layer_1" xmlns="http://www.w3.org/2000/svg" xmlns:xlink="http://www.w3.org/1999/xlink" x="0px" y="0px"
	 width="50px" height="50px" viewBox="0 0 50 50" style="enable-background:new 0 0 50 50;" xml:space="preserve">
<style type="text/css">
	.st0{fill-rule:evenodd;clip-rule:evenodd;fill:#EE3640;}
	.st1{fill-rule:evenodd;clip-rule:evenodd;fill:#9F1C1F;}
	.st2{fill-rule:evenodd;clip-rule:evenodd;fill:#FAA521;}
	.st3{fill-rule:evenodd;clip-rule:evenodd;fill:#D96E26;}
</style>
<g>
	<polygon class="st0" points="3.8,35.2 25.5,22.7 26.3,18.2 25.5,13.6 3.8,26.1 	"/>
	<polygon class="st1" points="47.1,35.2 25.5,22.7 25.5,13.6 47.1,26.1 	"/>
	<polygon class="st1" points="3.8,28.4 25.5,40.9 26.3,45.4 25.5,50 3.8,37.5 	"/>
	<polygon class="st0" points="47.1,28.4 25.5,40.9 25.5,50 47.1,37.5 	"/>
	<polygon class="st2" points="3.8,21.6 25.5,9.1 26.3,4.6 25.5,0 3.8,12.5 	"/>
	<polygon class="st3" points="47.1,21.6 25.5,9.1 25.5,0 47.1,12.5 	"/>
	<polygon class="st3" points="3.8,14.8 25.5,27.3 26.3,31.8 25.5,36.4 3.8,23.9 	"/>
	<polygon class="st2" points="47.1,14.8 25.5,27.3 25.5,36.4 47.1,23.9 	"/>
</g>
</svg>
