<?xml version="1.0" encoding="utf-8"?>
<!-- Generator: Adobe Illustrator 26.2.1, SVG Export Plug-In . SVG Version: 6.00 Build 0)  -->
<svg version="1.1" id="Layer_1" xmlns="http://www.w3.org/2000/svg" xmlns:xlink="http://www.w3.org/1999/xlink" x="0px" y="0px"
	 width="300px" height="200px" viewBox="0 0 300 200" style="enable-background:new 0 0 300 200;" xml:space="preserve">
<style type="text/css">
	.st0{fill-rule:evenodd;clip-rule:evenodd;fill:#BF2048;}
	.st1{fill-rule:evenodd;clip-rule:evenodd;fill:#E63777;}
	.st2{fill-rule:evenodd;clip-rule:evenodd;fill:#942C88;}
	.st3{fill-rule:evenodd;clip-rule:evenodd;fill:#E85212;}
	.st4{fill-rule:evenodd;clip-rule:evenodd;fill:#FC901D;}
	.st5{fill-rule:evenodd;clip-rule:evenodd;fill:#FFBE33;}
	.st6{fill:#fff;}
</style>
<g>
	<polygon class="st0" points="29.1,104.3 56.4,120.2 29.1,136 	"/>
	<polygon class="st1" points="0.5,120.2 28,104.3 28,136 	"/>
	<polygon class="st2" points="29.6,103.3 57.1,87.4 57.1,119.2 	"/>
	<polygon class="st3" points="29.1,70.8 56.4,86.7 29.1,102.6 	"/>
	<polygon class="st4" points="0.5,86.7 28,70.8 28,102.6 	"/>
	<polygon class="st5" points="0,54 27.5,69.8 0,85.7 	"/>
	<path class="st6" d="M106.4,87.4h8.7v23.9h15.4v7.7h-24.1C106.4,119.1,106.4,87.4,106.4,87.4z M81.7,103.1L71.3,87.4h10l5.6,9
		l5.6-9h9.9L92,102.9l10.8,16.3h-10l-6.1-9.5l-6.1,9.5h-10L81.7,103.1z"/>
	<path class="st6" d="M151.3,113.2L151.3,113.2c-1.4-0.8-1.8-2.2-1.8-3.5c0-0.9,0.1-1.7,0.6-2.3c0.9-1.4,2.7-2.3,5.6-2.3h0.6
		c3.3,0,5.1,0.6,5.1,0.6v2.6c0,1.7-0.8,4-3.2,5.1c-1.2,0.5-2.4,0.9-3.7,0.9S152.2,113.8,151.3,113.2L151.3,113.2z M155.4,86.9
		c-4.5,0-8.6,1.8-9.3,2.4c-0.6,0.4-1.2,1.2-1.2,1.9v4.2c2.9-1,6.8-1.7,9.1-1.7c2.4,0,4.5,0.4,5.8,1.4c1.5,1.3,1.7,3.3,1.7,4.4v0.6
		v0.1h-0.1c0,0-3.5-0.4-7.2-0.4c-3.7,0-6.9,0.6-9.2,2.4c-1.9,1.5-3.5,4.5-3.5,7.4c0,3.5,1.5,6,3.3,7.4c1.8,1.4,5.2,2.2,8.2,2.2
		c3.1,0,5.2-0.5,6.5-1c1.3-0.5,1.8-1,1.8-1l0.3-0.1v1.7h7.7v-18.4c0-4.2-0.8-7.8-2.9-10.1C163.1,87.4,159.7,86.9,155.4,86.9
		L155.4,86.9z M229.2,113.2L229.2,113.2c-1.2-0.8-1.7-2.2-1.7-3.5c0-0.9,0.1-1.7,0.6-2.3c0.9-1.4,2.7-2.3,5.6-2.3h0.6
		c3.3,0,5.1,0.6,5.1,0.6v2.6c0,1.7-0.8,4-3.2,5.1c-1.2,0.5-2.4,0.9-3.7,0.9C231.4,114.3,230.2,113.8,229.2,113.2L229.2,113.2z
		 M233.3,86.9c-4.5,0-8.6,1.8-9.3,2.4c-0.6,0.4-1.2,1.2-1.2,1.9v4.2c2.9-1,6.8-1.7,9.2-1.7c2.3,0,4.4,0.4,5.6,1.4
		c1.5,1.3,1.7,3.3,1.7,4.4v0.6v0.1h-0.1c0,0-3.5-0.4-7.2-0.4c-3.7,0-6.9,0.6-9.2,2.4c-1.9,1.5-3.5,4.5-3.5,7.4c0,3.5,1.5,6,3.3,7.4
		c1.8,1.4,5.2,2.2,8.2,2.2c3.1,0,5.2-0.5,6.5-1s1.9-1,1.9-1l0.1-0.1v1.7h7.7v-18.4c0-4.2-0.8-7.8-2.9-10.1
		C241.1,87.4,237.7,86.9,233.3,86.9L233.3,86.9z M282.1,113.2L282.1,113.2c-1.3-0.8-1.7-2.2-1.7-3.5c0-0.9,0.1-1.7,0.6-2.3
		c0.9-1.4,2.7-2.3,5.6-2.3h0.6c3.3,0,5.1,0.6,5.1,0.6v2.6c0,1.7-0.8,4-3.2,5.1c-1.2,0.5-2.4,0.9-3.7,0.9
		C284.3,114.3,283.2,113.8,282.1,113.2L282.1,113.2z M286.3,86.9c-4.5,0-8.6,1.8-9.3,2.4c-0.6,0.4-1.2,1.2-1.2,1.9v4.2
		c2.9-1,6.8-1.7,9.1-1.7c2.4,0,4.5,0.4,5.8,1.4c1.5,1.3,1.7,3.3,1.7,4.4v0.6v0.1h-0.1c0,0-3.5-0.4-7.2-0.4c-3.7,0-6.9,0.6-9.2,2.4
		c-1.9,1.5-3.5,4.5-3.5,7.4c0,3.5,1.5,6,3.3,7.4s5.2,2.2,8.2,2.2c3.1,0,5.2-0.5,6.5-1s1.9-1,1.9-1l0.1-0.1v1.7h7.6v-18.4
		c0-4.2-0.6-7.8-2.9-10.1C294.1,87.4,290.7,86.9,286.3,86.9L286.3,86.9z M255.3,117.5c1.5,1.4,3.3,1.9,6.1,1.9c2.9,0,5-0.6,6.8-1.7
		v-5.5c-1.2,0.6-2.6,0.9-4.1,0.9l0,0c-1,0-1.9-0.3-2.4-0.9c-0.6-0.6-0.9-1.5-0.9-2.7V94h6.9l3.7-6.7H261v-12c-3.1,1-5.8,2.8-6.7,4
		s-1.3,2.2-1.3,4v26.9C252.8,113.8,253.8,116.1,255.3,117.5L255.3,117.5z M214.5,118.9V86.4c-0.9,0.1-4.6,1.3-6.7,3.5
		c-0.9,0.9-1.3,1.9-1.3,2.8v26.2H214.5z M203.2,118.9l-11-16.3l11-15.5h-3.8c-2.2,0.1-5.5,0.6-7.7,4c-1.2,1.7-3.7,5.8-3.8,5.8
		l-0.1,0.1l-6.3-9.9h-9.7l11.3,16l-11,15.7h9.1l6.7-9.6l6.7,9.6C194.4,118.9,203.2,118.9,203.2,118.9z"/>
</g>
</svg>
