<?xml version="1.0" encoding="utf-8"?>
<!-- Generator: Adobe Illustrator 26.2.1, SVG Export Plug-In . SVG Version: 6.00 Build 0)  -->
<svg version="1.1" id="Layer_1" xmlns="http://www.w3.org/2000/svg" xmlns:xlink="http://www.w3.org/1999/xlink" x="0px" y="0px"
	 width="300px" height="200px" viewBox="0 0 300 200" style="enable-background:new 0 0 300 200;" xml:space="preserve">
<style type="text/css">
	.st0{fill-rule:evenodd;clip-rule:evenodd;fill:#6c7074;}
</style>
<g>
	<path class="st0" d="M148.3,86.8c-1-0.6-2.5-0.6-3.5,0c-0.8,0.5-1.4,1.3-1.4,2.2l-0.1,17.4l-0.4,0.4c-0.3,0.1-0.7,0.1-1-0.1
		l-3.5-5.1l-8.6-12.6l-1.7-1.7c-2-1.4-5.4-1.5-7.5-0.3c-1.8,0.9-3.4,2.8-3.6,4.9l0,14.5l-0.5,0.5c-0.3,0.1-0.8,0.1-1-0.2l-9.9-14.7
		c-1.7-2.1-3-5.3-6-5.9c-2.4-0.4-4.7,0.3-6.2,2.3c-3.6,5.6-7,11.3-10.5,17c-0.8,1.8-2.6,3.3-2.6,5.5c0.1,1.1,1,2.2,2,2.5
		c3.8,1.4,4.5-3.3,6.3-5.2c6.3,0,13.2,0.1,19.7,0l0.6,0.1c1,1.7,2.4,3.5,4.1,4.7c2.1,1.3,5.4,1.1,7.4-0.3c1.6-1.1,2.7-2.6,2.9-4.4
		c0-4.9,0.1-9.7,0-14.6c0.1-0.6,0.8-0.8,1.3-0.6l11.4,16.4c1,1.4,2.2,2.8,3.8,3.5c1.9,0.8,4.4,0.7,6.2-0.1c1.8-1,3.5-2.9,3.6-5V88.8
		C149.5,88,149,87.3,148.3,86.8L148.3,86.8z M92.3,102.5l-0.1-0.1l6-9.8c2.3,3.2,4.6,6.6,6.7,9.9L92.3,102.5L92.3,102.5z
		 M174.8,107.4c0.8,0,1.5,0.2,2-0.5c0.3-0.3,0.2-0.8,0-1.1l-0.5-0.5l-15.9-5.2c-2.6-1.2-4.3-3.9-4.1-6.9c0.1-2.3,1.8-4.5,3.9-5.5
		c1-0.4,2.2-0.7,3.4-0.7l17.4,0c0.9,0.1,1.8,0.7,2.3,1.5c0.3,0.7,0.5,1.4,0.1,2.4c-1.1,2.1-4.4,1.8-7.6,1.8l-12,0
		c-1.1,0-1.1,0.6-1.2,1c-0.1,0.5,0.4,1,0.9,1.1l16,5.4c2.1,0.8,3.7,3,4,5.1c0.4,2.7-0.8,5.3-3.1,6.6c-1.2,0.8-2.7,1.1-4.3,1l-22.7,0
		c-1.1-0.1-2.1-1-2.4-2.1c-0.3-0.9,0.1-1.9,0.6-2.6c0.6-0.7,1.4-0.9,2.2-1l20.4,0L174.8,107.4L174.8,107.4L174.8,107.4z
		 M250.5,108.7c-0.3,1.9-1.7,3.8-3.5,4.6c-2.2,1.1-5.3,0.9-7.2-0.8c-3.2-3.8-5.6-8.1-8.4-12.1c-1.7-2.4-3.2-5-5-7.3
		c-0.4-0.5-1.2-0.2-1.3,0.5l0,13.6c0,2-0.5,2.9-1.4,4c-1.9,2.2-4.8,1.8-7.6,1.8l-23.8,0c-1.9-0.3-3.6-1.6-4.6-3.4
		c-0.9-2.2-0.5-4.9-0.6-7.5l0.1-10.2c0.3-1.7,1.5-3.3,3.1-4.1c1.6-0.8,3.6-0.7,5.5-0.7l18.3,0c0.8,0.2,1.6,0.8,2,1.5
		c0.3,0.6,0.4,1.8,0.1,2.4c-0.3,0.9-1.3,1.7-2.2,1.7l-19.4,0c-0.5,0.2-1,0.7-1.3,1.2c0,1.1-0.6,2.8,0.6,3.4l10.5,0
		c0.7,0.1,1.3,0.8,1.7,1.4c0.3,0.6,0.4,1.9,0.2,2.6c-0.2,0.8-0.9,1.3-1.6,1.7c-3.4,0.3-7.1-0.1-10.7,0.1c-1.1,0.6-0.4,2.1-0.6,3.1
		c0.3,0.6,0.8,1,1.4,1.3l22.9,0c0.7-0.1,1.3-0.7,1.7-1.3c0.2-4.8,0.1-8.8,0.1-13.8c0.3-1.9,1.7-3.8,3.5-4.6c1.7-0.9,6.1-1.7,8.3,1.3
		l11.6,17.7c0.3,0.4,0.8,0.4,1.2,0.2l0.3-0.5l0-17.2c0.1-0.8,0.5-1.6,1.3-2.1c1.5-1,3.8-0.5,4.5,1.2l0.3,1.1L250.5,108.7
		L250.5,108.7z M78.6,87.2c0.9,0.8,0.9,2,0.9,3.2l0,17.6c-0.3,2-2,3.9-3.9,4.6l-2.3,0.4l-18.5,0c-2.3-0.3-4.6-2.2-5.1-4.5
		c-0.1-2.3-0.6-4.5,0.2-6.7c0.5-0.8,1.4-1.3,2.2-1.5c1.4-0.2,2.7,0.4,3.4,1.6c0.8,1.7-0.7,4.3,1.5,5.4c6.9,0,10.9,0,14.8,0
		c1.3-0.4,1.3-1.9,1.4-2.8l0-15.2c0-0.9,0.6-1.7,1.3-2.2C75.8,86.1,77.6,86.2,78.6,87.2L78.6,87.2z"/>
</g>
</svg>
