<?xml version="1.0" encoding="utf-8"?>
<!-- Generator: Adobe Illustrator 26.2.1, SVG Export Plug-In . SVG Version: 6.00 Build 0)  -->
<svg version="1.1" id="Layer_1" xmlns="http://www.w3.org/2000/svg" xmlns:xlink="http://www.w3.org/1999/xlink" x="0px" y="0px"
	 width="300px" height="200px" viewBox="0 0 300 200" style="enable-background:new 0 0 300 200;" xml:space="preserve">
<style type="text/css">
	.st0{fill-rule:evenodd;clip-rule:evenodd;fill:#B9D54C;}
	.st1{fill-rule:evenodd;clip-rule:evenodd;fill:#158791;}
	.st2{fill:#B9D54C;}
	.st3{fill:#158791;}
</style>
<g>
	<path class="st0" d="M50.4,103.2c1.2-2.9,1.9-6.3,1.9-9.6c0-14.4-11.7-26.1-26.1-26.1S0,79.2,0,93.6C0,97,0.7,100,1.7,103
		l17.9-16.4c1.7-1.6,4-2.4,6.4-2.4c2.3,0,4.7,0.8,6.4,2.4L50.4,103.2z"/>
	<path class="st1" d="M26.1,119.8c8.5,0,16.3-4.1,21.1-10.7L27.9,91.4c-0.5-0.4-1.3-0.7-2-0.7S24.5,91,24,91.4L4.9,109
		C9.7,115.5,17.5,119.8,26.1,119.8L26.1,119.8z"/>
	<path class="st2" d="M284.3,111c2.3,0,4-0.7,5.3-2.1c1.2-1.3,1.9-3.3,1.9-5.7V97c0-2.5-0.7-4.4-1.9-5.7c-1.2-1.3-3.1-2.1-5.3-2.1
		s-4,0.7-5.3,2.1c-1.3,1.5-1.9,3.2-1.9,5.7v6.1c0,2.5,0.7,4.4,1.9,5.7C280.1,110.2,282,111,284.3,111L284.3,111z M284.3,119.1
		c-3.3,0-6.1-0.7-8.5-1.9c-2.4-1.3-4.1-3.1-5.5-5.6c-1.2-2.4-1.9-5.3-1.9-8.8v-6c0-3.5,0.7-6.3,1.9-8.7c1.2-2.4,3.1-4.3,5.5-5.5
		c2.3-1.2,5.2-1.9,8.5-1.9s6.1,0.7,8.5,1.9c2.4,1.2,4.1,3.1,5.3,5.5c1.2,2.4,1.9,5.3,1.9,8.7v6.1c0,3.5-0.7,6.3-1.9,8.7
		c-1.2,2.4-3.1,4.3-5.3,5.6C290.4,118.4,287.6,119.1,284.3,119.1L284.3,119.1z M263.2,90c-0.4-0.3-0.7-0.4-1.2-0.5
		c-0.8-0.3-1.9-0.5-2.9-0.5c-2.1,0-3.9,0.7-5.1,2c-1.2,1.2-1.9,3.1-1.9,5.3v18c0,2.4-2,4.4-4.4,4.4h-3.1c-0.7,0-1.3-0.5-1.3-1.3
		V85.6c0-2.4,2-4.4,4.4-4.4h3.2c0.7,0,1.3,0.5,1.3,1.3v3.9c0.9-1.6,2.1-2.8,3.5-3.9c1.7-1.2,3.6-1.9,5.7-1.9c1.6,0,3.1,0.3,4.4,0.8
		c0.9,0.3,1.7,0.8,2.5,1.3c0.5,0.4,0.7,1.2,0.3,1.9l-3.7,5.1C264.7,90.3,263.7,90.4,263.2,90L263.2,90z M208,66.3h4.1h12
		c3.2,0,6,0.7,8.4,2c2.4,1.3,4.3,3.2,5.6,5.6c1.3,2.4,2,5.2,2,8.4c0,3.2-0.7,6-2,8.4c-1.3,2.4-3.2,4.3-5.6,5.6c-2.4,1.3-5.2,2-8.4,2
		h-12v15.9c0,2.4-2,4.4-4.4,4.4h-2.9c-0.7,0-1.3-0.5-1.3-1.3V70.7c0-2.3,1.9-4.3,4.1-4.4l0,0H208z M212.3,74.6V90h12.3
		c1.3,0,2.5-0.3,3.7-0.9c1.1-0.7,1.9-1.6,2.4-2.8c0.5-1.2,0.9-2.5,0.9-4c0-1.6-0.3-2.9-0.9-4.1c-0.5-1.2-1.3-2.1-2.4-2.8
		c-1.1-0.7-2.3-0.9-3.7-0.9h-12.3V74.6z"/>
	<path class="st3" d="M179.1,119.1c-4.3,0-7.5-0.9-9.6-2.8c-2.1-1.9-3.2-4.8-3.2-8.7c0-3.7,1.1-6.5,3.2-8.3c2.1-1.9,5.3-2.8,9.7-2.8
		h9.7V95c0-2.1-0.7-3.7-1.9-4.9c-1.2-1.2-2.9-1.7-5.2-1.7c-1.3,0-2.8,0.3-4.3,0.7c-1.1,0.4-2,0.8-2.9,1.3c-0.4,0.3-1.1,0.3-1.6-0.1
		l-3.9-3.2c-0.3-0.3-0.4-0.5-0.4-0.9c0-0.4,0.1-0.7,0.4-0.9c1.3-1.2,2.8-2.1,4.7-2.9c2.4-0.9,5.1-1.5,7.9-1.5c3.2,0,5.9,0.5,8.1,1.6
		c2.3,1.1,4,2.7,5.2,4.8s1.7,4.5,1.7,7.5v19.6c0,2.4-2,4.4-4.4,4.4h-2.3c-0.7,0-1.3-0.5-1.3-1.3v-2c-0.4,0.5-0.8,1.1-1.3,1.5
		c-0.9,0.8-2.3,1.3-3.7,1.7C182.3,119,180.7,119.1,179.1,119.1L179.1,119.1z M188.8,103.2h-9.6c-1.7,0-2.9,0.4-3.7,1.1
		c-0.9,0.7-1.3,1.9-1.3,3.3c0,1.6,0.5,2.7,1.6,3.5c1.1,0.7,2.8,1.1,4.9,1.1c2.8,0,4.8-0.3,6.1-0.9c1.3-0.7,2-1.6,2-2.8V103.2z
		 M144.7,119.1c-2.7,0-4.9-0.5-6.9-1.9c-1.9-1.2-3.3-3.1-4.4-5.3c-0.9-2.4-1.5-5.2-1.5-8.5v-7.1c0-3.3,0.4-6.1,1.5-8.5
		c0.9-2.4,2.4-4.1,4.3-5.3c1.9-1.2,4.1-1.9,6.8-1.9c2.1,0,4,0.5,5.7,1.7c1.3,0.9,2.5,2.1,3.5,3.6v-3.5c0-0.7,0.7-1.3,1.3-1.3h2.9
		c2.4,0,4.4,2,4.4,4.4v31.7c0,3.5-0.7,6.4-1.9,8.8c-1.3,2.4-3.2,4.3-5.6,5.6c-2.4,1.3-5.3,1.9-8.8,1.9c-2.9,0-5.5-0.5-7.7-1.6
		c-1.7-0.8-3.3-1.9-4.5-3.3c-0.4-0.5-0.4-1.3,0.1-1.9l4-3.6c0.5-0.4,1.3-0.4,1.9,0c0.7,0.7,1.5,1.2,2.4,1.7c1.2,0.5,2.5,0.9,4,0.9
		c2.4,0,4.4-0.7,5.7-2c1.5-1.3,2.1-3.2,2.1-5.6v-4.5c-0.7,1.3-1.7,2.5-3.1,3.5C148.9,118.6,146.9,119.1,144.7,119.1L144.7,119.1z
		 M153.6,95.4L153.6,95.4c0-1.5-0.3-2.7-0.7-3.6c-0.5-1.1-1.2-1.9-2.1-2.3c-0.9-0.5-2.1-0.8-3.5-0.8c-2.1,0-3.7,0.7-4.9,2.1
		c-1.2,1.3-1.7,3.3-1.7,5.7v7.1c0,2.5,0.7,4.4,1.7,5.7c1.2,1.3,2.8,2,4.9,2c1.3,0,2.5-0.3,3.5-0.8c0.9-0.5,1.6-1.3,2.1-2.3
		c0.4-0.9,0.7-2.1,0.7-3.6l0,0V95.4z M125.2,90c-0.4-0.3-0.7-0.4-1.2-0.5c-0.8-0.3-1.9-0.5-2.9-0.5c-2.1,0-3.9,0.7-5.1,2
		c-1.2,1.2-1.9,3.1-1.9,5.3v18c0,2.4-2,4.4-4.4,4.4h-3.2c-0.7,0-1.3-0.5-1.3-1.3V85.6c0-2.4,2-4.4,4.4-4.4h3.2
		c0.7,0,1.3,0.5,1.3,1.3v3.9c0.9-1.6,2.1-2.8,3.5-3.9c1.7-1.2,3.6-1.9,5.7-1.9c1.6,0,3.1,0.3,4.4,0.8c0.9,0.3,1.7,0.8,2.5,1.3
		c0.5,0.4,0.7,1.2,0.3,1.9l-3.7,5.1C126.7,90.3,125.9,90.4,125.2,90L125.2,90z M72.1,100.4h14.4l-7.2-20.8L72.1,100.4z M89.3,108.7
		H69.2l-2.4,6.9c-0.7,1.9-2.3,2.9-4.1,2.9h-4.3c-0.4,0-0.8-0.3-1.1-0.5c-0.3-0.4-0.3-0.8-0.1-1.2l18.7-49.6c0.3-0.5,0.7-0.9,1.2-0.9
		h4.4c0.5,0,1.1,0.3,1.2,0.9l18.7,49.6c0.1,0.4,0.1,0.8-0.1,1.2s-0.7,0.5-1.1,0.5H96c-1.9,0-3.5-1.2-4.1-2.9L89.3,108.7z"/>
</g>
</svg>
