<?xml version="1.0" encoding="utf-8"?>
<!-- Generator: Adobe Illustrator 26.2.1, SVG Export Plug-In . SVG Version: 6.00 Build 0)  -->
<svg version="1.1" id="Layer_1" xmlns="http://www.w3.org/2000/svg" xmlns:xlink="http://www.w3.org/1999/xlink" x="0px" y="0px"
	 width="300px" height="200px" viewBox="0 0 300 200" style="enable-background:new 0 0 300 200;" xml:space="preserve">
<style type="text/css">
	.st0{fill:#6c7074;}
</style>
<g>
	<path class="st0" d="M156.4,56.6c-0.5,0.1-1,2-2.1,3.1c-0.8,0.7-1.7,0.7-2.2,1.6c-0.2,0.3-0.1,0.9-0.3,1.5
		c-0.4,1.1-1.9,1.2-1.9,2.4c0,1.3,1.2,1.6,2.3,2.5c0.8,0.8,0.9,1.3,1.9,1.6c0.9,0.3,2.2-0.7,3.3-0.3c1,0.3,1.9,0.5,2.1,1.5
		c0.2,0.9,0,2.3-1.2,2.1c-0.4,0-2.1-0.6-4.2-0.4c-2.5,0.3-5.4,1.1-5.7,3.9c-0.2,1.6,1.8,3.4,3.7,3c1.3-0.3,0.7-1.8,1.4-2.5
		c0.9-0.9,6.2,3.3,11,3.3c2,0,3.6-0.5,5.1-2.1c0.1-0.1,0.3-0.4,0.5-0.4c0.2,0,0.6,0.2,0.7,0.3c3.9,3.1,6.9,9.5,21.3,9.5
		c2,0,4.3,1,6.2,2.7c1.7,1.6,2.7,4,3.6,6.4c1.4,3.7,4,7.3,7.9,11.2c0.2,0.2,3.4,2.7,3.7,2.9c0,0,0.3,0.6,0.2,0.9
		c-0.1,2.4-0.4,9.3,4.7,9.6c1.3,0.1,0.9-0.8,0.9-1.4c0-1.2-0.2-2.4,0.4-3.6c0.9-1.7-1.8-2.5-1.8-6.2c0.1-2.7-2.2-2.3-3.4-4.4
		c-0.7-1.2-1.3-1.9-1.2-3.3c0.3-8.3-1.8-13.8-2.8-15.2c-0.8-1-1.4-1.4-0.7-1.9c4.3-2.9,5.3-5.5,5.3-5.5c2.3-5.4,4.4-10.3,7.2-12.5
		c0.6-0.4,2-1.5,2.9-2c2.7-1.3,4.1-2,4.8-2.8c1.2-1.2,2.2-3.7,1-5.2c-1.5-1.9-4-0.4-5.1,0.3c-7.9,4.7-9.1,13-11.9,17.8
		c-2.2,3.8-5.8,6.6-8.9,6.8c-2.4,0.2-5-0.3-7.5-1.4c-6.2-2.7-9.7-6.3-10.5-6.9c-1.7-1.3-14.7-14.1-25.2-14.6c0,0-1.3-2.6-1.6-2.7
		c-0.8-0.1-1.6,1.6-2.1,1.8C157.8,58.5,156.9,56.6,156.4,56.6 M110,132.9c-1,0-1.8-0.8-1.8-1.8l0-32.9H97.3v36.3
		c0,1.8,1.4,3.2,3.2,3.2h18.9c1.8,0,3.2-1.4,3.2-3.2V98.2h-10.8l0,32.9C111.8,132.1,110.9,132.9,110,132.9 M146.2,98.2h-16.4
		c-1.9,0-3.5,1.6-3.5,3.5v35.9h10.9v-33c0-1,0.8-1.8,1.8-1.8c0,0,0,0,0,0c1,0,1.8,0.8,1.8,1.8v33h10.8v-33c0-1,0.8-1.8,1.8-1.8
		c1,0,1.8,0.8,1.8,1.8v33h10.9v-35.9c0-2-1.6-3.5-3.5-3.5L146.2,98.2z M90,127.7h-11v9.9H68.3V98.2h21.9c2,0,3.5,1.6,3.5,3.6v22.4
		C93.6,126.1,92,127.7,90,127.7C90.1,127.7,90.1,127.7,90,127.7L90,127.7z M82.8,104.7c0-1-0.8-1.9-1.8-1.9c0,0,0,0,0,0h-1.8v20h1.8
		c1,0,1.8-0.8,1.8-1.9V104.7z"/>
	<path class="st0" d="M184.4,137.6v-9.9h-3.7v9.9h-10.8v-35.9c0-2,1.6-3.5,3.5-3.5h18.3c1.9,0,3.5,1.6,3.5,3.5v35.9H184.4z
		 M184.4,122.8v-18.2c0-1-0.8-1.8-1.8-1.8c-1,0-1.8,0.8-1.8,1.8v18.2H184.4z"/>
</g>
</svg>
