<?xml version="1.0" encoding="utf-8"?>
<!-- Generator: Adobe Illustrator 26.2.1, SVG Export Plug-In . SVG Version: 6.00 Build 0)  -->
<svg version="1.1" id="Layer_1" xmlns="http://www.w3.org/2000/svg" xmlns:xlink="http://www.w3.org/1999/xlink" x="0px" y="0px"
	 width="300px" height="200px" viewBox="0 0 300 200" style="enable-background:new 0 0 300 200;" xml:space="preserve">
<style type="text/css">
	.st0{fill:#6c7074;}
</style>
<path class="st0" d="M86.1,72.8c-15,0-27.2,12.2-27.2,27.2c0,15,12.2,27.2,27.2,27.2c15,0,27.2-12.2,27.2-27.2
	C113.3,85,101.1,72.8,86.1,72.8z M124.2,74.7l-4.1,20.5c-0.2,1.2-0.5,2.4-0.5,3.7c0,3.6,2.4,5.7,7.2,5.7c9.1,0,13.4-7.5,13.4-14.1
	c0-3.6-1.9-7.1-6.1-7.1c-2.5,0-4.8,1.1-6.2,2.9h-0.1l2.4-11.6H124.2z M150,75.1c-1.8,0-3.4,1.4-3.4,3.4c0,1.8,1.2,2.9,2.9,2.9
	c1.9,0,3.5-1.2,3.5-3.4C153,76.2,151.7,75.1,150,75.1z M216,75.1c-1.8,0-3.4,1.4-3.4,3.4c0,1.8,1.2,2.9,2.9,2.9
	c1.9,0,3.5-1.2,3.5-3.4C219,76.2,217.8,75.1,216,75.1z M164.4,78.2l-6.1,1.4l-0.8,4.3h-2.6l-0.8,4.5h2.6l-1.6,8.1
	c-0.3,1.5-0.4,2.6-0.4,3.8c0,2.5,1.7,4.4,5.3,4.4c1.3,0,2.8-0.2,3.5-0.5l0.7-4.7c-0.5,0.1-1.1,0.1-1.6,0.1c-1.3,0-1.7-0.7-1.7-1.7
	c0-0.7,0.2-1.7,0.3-2.6l1.4-6.9h4.3l0.9-4.5h-4.3L164.4,78.2z M83.8,83.4l4,0.8L87,88l2.6,0.5l0.7-3.9l4,0.7l-0.8,4.1
	c0.6,0.2,1.1,0.5,1.5,0.7c1.1,0.7,1.8,1.6,2.3,2.6c0.5,1,0.6,2,0.4,3.1c-0.1,0.8-0.4,1.5-0.9,2.1c-0.5,0.6-1.1,1.2-1.8,1.6
	c-0.7,0.4-1.6,0.7-2.7,0.9c1,0.5,1.8,0.9,2.3,1.4c0.8,0.6,1.3,1.4,1.6,2.4c0.3,0.9,0.4,1.9,0.2,3c-0.2,1.3-0.8,2.3-1.8,3.2
	c-0.9,0.9-2.2,1.5-3.6,1.8c-0.5,0.1-1.2,0.2-1.8,0.2l-0.8,4.2l-4-0.7l0.7-3.9c-0.1,0-0.2,0-0.3-0.1l-2.3-0.4l-0.7,3.9l-4-0.7
	l0.7-3.9l-6.1-1.1l0.6-3.2l0.9,0.2c0.6,0.1,1,0.2,1.3,0.1c0.2-0.1,0.4-0.2,0.5-0.4c0.1-0.2,0.3-0.6,0.4-1.3l2.4-13.1
	c0.1-0.7,0.2-1.1,0.1-1.4c-0.1-0.2-0.2-0.4-0.4-0.5c-0.2-0.2-0.6-0.3-1.2-0.4l-0.9-0.2l0.6-3.2l6.1,1.1L83.8,83.4L83.8,83.4z
	 M181,83.4c-7.7,0-13.2,5.6-13.2,12.9c0,5.3,3.5,8.3,8.5,8.3c2.4,0,4.5-0.4,5.8-1l0-4.6c-1,0.4-2.3,0.8-4,0.8c-2.2,0-4-1.4-4-4.2
	c0-3.8,2.6-7.4,6.9-7.4c1.2,0,2,0.2,2.7,0.5l1.4-4.6C184.2,83.7,182.7,83.4,181,83.4L181,83.4z M197.5,83.4
	c-7.2,0-12.1,5.8-12.1,12.8c0,5,3.4,8.4,8.6,8.4c7,0,12.1-5.4,12.1-12.9C206.1,87.1,203,83.4,197.5,83.4L197.5,83.4z M234.6,83.4
	c-2.7,0-5.2,1.2-7.1,3.8h-0.1l0.4-3.3h-5.3c-0.3,1.8-0.6,4-1.1,6.6l-2.6,13.7h6l1.7-9c0.8-4.5,3.1-6.9,5.1-6.9c1.5,0,2,1,2,2.4
	c0,0.7-0.1,1.6-0.2,2.3l-2.1,11.2h6l2.2-11.8c0.2-1,0.3-2.5,0.3-3.4C239.8,85.4,237.9,83.4,234.6,83.4L234.6,83.4z M145.8,83.9
	l-3.9,20.3h6l3.9-20.3H145.8z M211.7,83.9l-3.9,20.3h6l3.9-20.3H211.7z M196.7,87.9c2.4,0,3.2,2,3.2,3.9c0,3.5-1.8,8.3-5.1,8.3
	c-2.1,0-3.2-1.6-3.2-3.9C191.6,93,193.3,87.9,196.7,87.9L196.7,87.9z M131.4,88.2c1.8,0,2.6,1.5,2.6,3.5c0,3.6-2.5,8.4-5.9,8.4
	c-1.4,0-2.2-0.8-2.3-2.2c0-0.9,0.1-1.6,0.2-2.2l0.4-1.7C127.1,90.4,129.2,88.2,131.4,88.2L131.4,88.2z M84.8,91.5l-1.1,5.7l2.6,0.5
	c1.3,0.2,2.4,0.3,3.1,0.2c0.7-0.1,1.2-0.3,1.6-0.7c0.4-0.4,0.7-0.9,0.8-1.5c0.1-0.6,0.1-1.2-0.2-1.7c-0.2-0.5-0.6-0.9-1.2-1.2
	c-0.5-0.3-1.6-0.6-3.1-0.9L84.8,91.5L84.8,91.5z M83.1,100.7l-0.9,5.1c-0.1,0.7-0.2,1.2-0.2,1.3c0,0.2,0.1,0.3,0.2,0.4
	c0.1,0.1,0.5,0.2,1,0.3l1.7,0.3c1,0.2,1.8,0.2,2.5,0.2c0.7-0.1,1.3-0.3,1.9-0.8c0.6-0.5,0.9-1.2,1.1-2c0.1-0.7,0.1-1.3-0.2-1.9
	c-0.2-0.5-0.7-1-1.3-1.4c-0.6-0.4-1.6-0.7-2.9-0.9L83.1,100.7L83.1,100.7z M193.4,107.3v5.3h0c-0.4-0.7-1.4-1.1-2.6-1.1
	c-2.3,0-4.4,1.9-4.4,5.2c0,3,1.8,5,4.2,5c1.2,0,2.4-0.6,3-1.6h0l0.1,1.4h2.7c0-0.7-0.1-1.8-0.1-2.9v-11.2H193.4z M202.9,107.3v14.1
	h3v-5.8c0-0.2,0-0.5,0.1-0.7c0.2-0.5,0.7-1,1.5-1c1.1,0,1.6,0.9,1.6,2.1v5.3h3v-5.7c0-2.9-1.5-4.3-3.4-4.3c-0.6,0-1.1,0.1-1.6,0.4
	c-0.5,0.3-0.9,0.6-1.2,1h0v-5.5L202.9,107.3L202.9,107.3L202.9,107.3z M172.7,108.9l-3,0.7v2.1h-1.3v2.2h1.3v4
	c0,1.4,0.3,2.3,0.8,2.9c0.5,0.5,1.3,0.8,2.3,0.8c0.9,0,1.6-0.1,2-0.3l0-2.3c-0.2,0-0.5,0.1-0.9,0.1c-0.9,0-1.2-0.5-1.2-1.7v-3.5h2.2
	v-2.2h-2.2L172.7,108.9L172.7,108.9L172.7,108.9z M122.8,111.4c-1.8,0-3.1,0.5-3.8,0.9l0.6,2c0.6-0.4,1.7-0.7,2.7-0.7
	c1.5,0,1.8,0.7,1.8,1.2v0.1c-3.4,0-5.7,1.2-5.7,3.7c0,1.5,1.2,3,3.1,3c1.1,0,2.1-0.4,2.8-1.2h0.1l0.2,1h2.7
	c-0.1-0.5-0.1-1.4-0.1-2.4v-3.4C127.1,113.3,126,111.4,122.8,111.4z M134.5,111.4c-3.6,0-5.6,2.3-5.6,5.2c0,3.1,2,5,5.1,5
	c1.2,0,2.2-0.2,2.7-0.4l-0.4-2.2c-0.5,0.2-1,0.3-1.7,0.3c-1.5,0-2.7-0.9-2.7-2.7c0-1.6,1-2.7,2.6-2.7c0.8,0,1.3,0.1,1.7,0.3l0.5-2.2
	C136.1,111.5,135.2,111.4,134.5,111.4z M143.2,111.4c-3.6,0-5.6,2.3-5.6,5.2c0,3.1,2,5,5.2,5c1.1,0,2.2-0.2,2.7-0.4l-0.4-2.2
	c-0.5,0.2-1,0.3-1.7,0.3c-1.5,0-2.7-0.9-2.7-2.7c0-1.6,1-2.7,2.6-2.7c0.8,0,1.3,0.1,1.7,0.3l0.5-2.2
	C144.9,111.5,144,111.4,143.2,111.4z M151.3,111.4c-3.4,0-4.9,2.7-4.9,5.2c0,3,1.9,5,5.2,5c1.3,0,2.5-0.2,3.5-0.6l-0.4-2
	c-0.8,0.3-1.7,0.4-2.7,0.4c-1.4,0-2.6-0.6-2.7-1.8h6.2c0-0.2,0.1-0.7,0.1-1.2C155.6,113.9,154.4,111.4,151.3,111.4L151.3,111.4z
	 M163.4,111.4c-1.4,0-2.5,0.5-3.2,1.6h0l-0.1-1.3h-2.6c0,0.9,0.1,2,0.1,3.3v10.4h3v-4.8h0c0.4,0.6,1.4,1.1,2.5,1.1
	c2.2,0,4.4-1.7,4.4-5.2C167.4,113.3,165.5,111.4,163.4,111.4z M180.9,111.4c-3.4,0-4.9,2.7-4.9,5.2c0,3,1.9,5,5.2,5
	c1.3,0,2.5-0.2,3.5-0.6l-0.4-2c-0.8,0.3-1.6,0.4-2.7,0.4c-1.4,0-2.6-0.6-2.7-1.8h6.2c0-0.2,0.1-0.7,0.1-1.2
	C185.2,113.9,184,111.4,180.9,111.4L180.9,111.4z M218.9,111.4c-3.4,0-4.9,2.7-4.9,5.2c0,3,1.9,5,5.2,5c1.3,0,2.5-0.2,3.5-0.6
	l-0.4-2c-0.8,0.3-1.6,0.4-2.7,0.4c-1.4,0-2.6-0.6-2.7-1.8h6.3c0-0.2,0.1-0.7,0.1-1.2C223.2,113.9,222,111.4,218.9,111.4L218.9,111.4
	z M236.8,111.4c-3.4,0-4.9,2.7-4.9,5.2c0,3,1.9,5,5.2,5c1.3,0,2.5-0.2,3.5-0.6l-0.4-2c-0.8,0.3-1.6,0.4-2.7,0.4
	c-1.4,0-2.6-0.6-2.7-1.8h6.2c0-0.2,0.1-0.7,0.1-1.2C241.1,113.9,239.9,111.4,236.8,111.4L236.8,111.4z M230.4,111.4
	c-0.9,0-2.1,0.6-2.6,2h-0.1l-0.1-1.8H225c0,0.8,0.1,1.8,0.1,3.2v6.5h3v-4.9c0-0.2,0-0.5,0.1-0.7c0.2-0.9,1-1.5,2.1-1.5
	c0.3,0,0.6,0,0.8,0.1v-2.8C230.8,111.4,230.7,111.4,230.4,111.4L230.4,111.4z M151.1,113.4c1.4,0,1.7,1.2,1.7,2h-3.6
	C149.3,114.6,149.8,113.4,151.1,113.4z M180.7,113.4c1.4,0,1.7,1.2,1.7,2h-3.6C178.9,114.6,179.4,113.4,180.7,113.4z M218.7,113.4
	c1.4,0,1.7,1.2,1.7,2h-3.6C216.9,114.6,217.5,113.4,218.7,113.4z M236.6,113.4c1.4,0,1.7,1.2,1.7,2h-3.6
	C234.8,114.6,235.3,113.4,236.6,113.4z M191.6,113.7c0.9,0,1.6,0.7,1.8,1.5c0,0.2,0,0.4,0,0.5v1.3c0,0.3,0,0.5-0.1,0.7
	c-0.2,0.9-0.9,1.4-1.8,1.4c-1.2,0-2.1-1-2.1-2.7C189.5,115,190.2,113.7,191.6,113.7L191.6,113.7L191.6,113.7z M162.3,113.8
	c1.4,0,2,1.2,2,2.7c0,1.6-0.8,2.8-2.1,2.8c-0.9,0-1.6-0.6-1.8-1.4c0-0.2-0.1-0.4-0.1-0.6v-1.3c0-0.2,0-0.4,0.1-0.5
	C160.7,114.4,161.5,113.8,162.3,113.8L162.3,113.8z M124.1,116.8l0,1.1c0,0.2,0,0.4-0.1,0.5c-0.2,0.6-0.8,1.1-1.6,1.1
	c-0.7,0-1.2-0.4-1.2-1.1C121.3,117.1,122.5,116.7,124.1,116.8L124.1,116.8z"/>
</svg>
