<?xml version="1.0" encoding="utf-8"?>
<!-- Generator: Adobe Illustrator 26.2.1, SVG Export Plug-In . SVG Version: 6.00 Build 0)  -->
<svg version="1.1" id="Layer_1" xmlns="http://www.w3.org/2000/svg" xmlns:xlink="http://www.w3.org/1999/xlink" x="0px" y="0px"
	 width="300px" height="200px" viewBox="0 0 300 200" style="enable-background:new 0 0 300 200;" xml:space="preserve">
<style type="text/css">
	.st0{fill-rule:evenodd;clip-rule:evenodd;fill:#6c7074;}
</style>
<g>
	<path class="st0" d="M90.5,88.8c1.8,0.1,3.1,0.3,4.3,0.7c1.8,0.7,3.8,2.3,4.7,4c0.6,1.1,1,2.7,1,5v19.9l-10.3,0l0-19.4
		c0-2.2-0.7-4.6-3.6-4.6c-3.1,0-3.5,2.6-3.5,4.7v19.4H72.3V94c0-2.6-2.9-3.7-2.2-4.5c0.1-0.1,0.1-0.1,0.3-0.1l8.4,0
		c2.2-0.1,3.5,2.3,3.9,2.2C83.4,91.8,83.9,89,90.5,88.8L90.5,88.8z M139.5,89c3.7,0,4.3,1.2,4.3,4.3v16.3c0,3.8,6.8,3.7,6.8,0.1
		V93.4c0.1-2.2-1.9-3.1-2.3-4c0-0.1-0.1-0.4,0.3-0.4h9.2c2.6,0,3.4,2.1,3.4,4.6v13.9c0,1.3,0.1,2.6,1.1,3.6c1.7,1.8,4.1,1.2,5.3-0.2
		c0.8-0.9,0.7-2.1,0.7-3.4V93.2c0-2.5-1.9-3.2-2.2-3.8c-0.1-0.2-0.1-0.5,0.3-0.5h7.9v18.5c0,1.2-0.1,2.3-0.5,3.4
		c-1.7,4.2-6.6,6.6-11.1,7c-3.7,0.2-7.2-0.3-9.5-2.3c-0.2-0.2-0.4-0.2-0.7-0.2c-0.3,0-0.7,0.3-1.1,0.6c-0.9,0.7-2,1.2-3.1,1.6
		c-1.4,0.6-2.8,1-4.5,0.9c-3.4,0.1-7.1-1.3-9.2-4c-0.8-1-1.2-1.9-1.3-3.2c-0.1-1.5-0.1-3.5-0.1-5.1V93.4c0-2.5-2.3-3.3-2.3-4.2
		c0-0.4,0.6-0.3,1.2-0.3L139.5,89L139.5,89z M212.6,81.2c3.7,0,4.3,1.2,4.3,4.3v32.9h-10.6V85.7c0-2.5-2.3-3.3-2.3-4.2
		c0-0.4,0.6-0.3,1.2-0.3L212.6,81.2L212.6,81.2z M225.6,81.2c3.7,0,4.3,1.2,4.3,4.3v32.9h-10.6V85.7c0-2.5-2.3-3.3-2.3-4.2
		c0-0.4,0.6-0.3,1.2-0.3L225.6,81.2L225.6,81.2z"/>
	<path class="st0" d="M116.5,88.7c6.8,0,12.7,3.9,14.7,10.3c0.5,1.5,0.3,4-0.8,5.4c-0.3,0.5-1,1.2-2.7,1.2h-15l0,1.8
		c0,1.8-0.1,3,0.7,4.3c1.8,2.9,6.5,3.7,9.2,0.2c0.5-0.7,1.3-2.9,1.5-4.5h6.3c0,0,0,0.1,0,0.1c-0.1,2.5-1.2,4.6-2.8,6.3
		c-6.7,7.3-17.4,5.9-22.9-1.3c-4.9-5.9-4-14.3,1.1-19.3C108.8,90.6,112.4,88.7,116.5,88.7z M116.8,93c-1.5,0-2.6,0.7-3.3,1.5
		c-0.8,1-0.8,1.8-0.8,3v2.9h5.1c0.7,0,1.4-0.1,2-0.5c1.7-1.2,1.8-4.5,0.2-5.9C119.1,93.3,118,93.1,116.8,93z M190.5,88.7
		c6.8,0,12.7,3.9,14.7,10.3c0.5,1.5,0.3,4-0.8,5.4c-0.3,0.5-1,1.2-2.7,1.2h-15l0,1.8c0,1.8-0.1,3,0.7,4.3c1.8,2.9,6.5,3.7,9.2,0.2
		c0.5-0.7,1.3-2.9,1.5-4.5h6.3c0,0,0,0.1,0,0.1c-0.1,2.5-1.2,4.6-2.8,6.3c-6.7,7.3-17.4,5.9-22.9-1.3c-4.9-5.9-4-14.3,1.1-19.3
		C182.8,90.6,186.5,88.7,190.5,88.7L190.5,88.7z M190.8,93c-1.5,0-2.6,0.7-3.3,1.5c-0.8,1-0.8,1.8-0.8,3v2.9h5.1
		c0.7,0,1.4-0.1,2-0.5c1.7-1.2,1.8-4.5,0.2-5.9C193.1,93.3,192,93.1,190.8,93z"/>
</g>
</svg>
