<?xml version="1.0" encoding="utf-8"?>
<!-- Generator: Adobe Illustrator 26.2.1, SVG Export Plug-In . SVG Version: 6.00 Build 0)  -->
<svg version="1.1" id="Layer_1" xmlns="http://www.w3.org/2000/svg" xmlns:xlink="http://www.w3.org/1999/xlink" x="0px" y="0px"
	 width="300px" height="200px" viewBox="0 0 300 200" style="enable-background:new 0 0 300 200;" xml:space="preserve">
<style type="text/css">
	.st0{fill:#6c7074;}
</style>
<g>
	<polygon class="st0" points="119.9,113.5 141.8,118.2 122.7,106 143.3,116.7 128.2,100.4 145,115.7 133.9,94.1 146.5,114.6 
		141.8,90.7 148.7,114.4 150.1,89 151.6,114.4 158.4,90.7 153.7,114.6 166.3,94.1 155.3,115.7 172.1,100.4 157,116.7 177.5,106 
		158.4,118.2 180.3,113.5 159.1,120.5 200.7,120.5 149.3,48.8 99.3,120.5 141.1,120.5 	"/>
	<path class="st0" d="M91,134.1l-9.8,16.6h7.4l2.5-4.4h8.9l2.5,4.4h7.5l-9.8-16.6H91z M92.7,143.7l2.8-5.4l2.9,5.4H92.7z"/>
	<path class="st0" d="M146.2,134.1l-9.8,16.6h7.4l2.5-4.4h8.9l2.5,4.4h7.5l-9.8-16.6H146.2z M147.9,143.7l2.8-5.4l2.9,5.4H147.9z"/>
	<path class="st0" d="M137,142.1c-0.2-5.5-4.6-8-13.4-8h-12v16.6v0h11.8C132.1,150.8,137.2,148.4,137,142.1z M120.1,146.5h-1.9v-9.5
		h1.7c4.8,0,9.6,0.5,9.6,4.6C129.5,146.4,124.3,146.5,120.1,146.5z"/>
	<path class="st0" d="M179.1,145.2h4c-0.5,1.2-2.8,1.9-4.6,1.9c-4.5,0-6.5-2.1-6.5-4.5c0-2.9,2.4-4.9,5.9-4.9c2.3,0,4,0.7,4.6,2.1
		h8.5c-1.1-4.1-6.4-6.2-13-6.2c-8.9,0-14.4,3.6-14.4,9c0,5.8,6.3,8.5,13.3,8.5c4.3,0,6.8-1,8.3-2l0.3,1.6h5.8v-9.2h-12.3V145.2z"/>
	<polygon class="st0" points="201.9,146.9 201.9,144.3 216.2,144.3 216.2,140.4 201.9,140.4 201.9,138 218.3,138 218.3,134.1 
		195.9,134.1 195.9,150.8 218.8,150.8 218.8,146.9 	"/>
</g>
</svg>
