<?xml version="1.0" encoding="utf-8"?>
<!-- Generator: Adobe Illustrator 26.2.1, SVG Export Plug-In . SVG Version: 6.00 Build 0)  -->
<svg version="1.1" id="Layer_1" xmlns="http://www.w3.org/2000/svg" xmlns:xlink="http://www.w3.org/1999/xlink" x="0px" y="0px"
	 width="300px" height="200px" viewBox="0 0 300 200" style="enable-background:new 0 0 300 200;" xml:space="preserve">
<style type="text/css">
	.st0{fill:#6c7074;}
</style>
<g>
	<path class="st0" d="M62.4,80.8l-11.7,5.3c1.1,2.5,2.1,4.8,3.3,7c2.4-1,4.6-2,7.1-3.1c1.4,5.8,2.8,11.4,4.1,17.2
		c1-0.4,1.9-0.6,2.8-0.9c3.7-1.3,7.6-1.5,11.4-0.6c2.3,0.3,4.1,1.9,4.6,4.1c0.3,1.3,0,2.7-0.8,3.9c1.3,3.5-0.3,6.5-3.6,8.4
		c-2.8,1.5-6,2.3-9.1,2.5v-2.9c3.4-0.6,6.9-1,9.4-3.6c0.3-0.4,0.6-0.9,0.8-1.4c-2.2,0.9-4.5,1.5-6.9,2c-2.1,0.3-4.3,0.3-6.4,0.1
		c-1.3-0.1-2.4-1-2.8-2.3c-0.3-1.4,0.3-2.8,1.5-3.5c1.8-1.1,3.8-1.9,5.9-2.1c2.5-0.4,5-0.3,7.4,0.4c-0.7,1.5-2.1,2.4-3.8,2.4
		c-2.2,0-4.3,0.3-6.4,1c-0.5,0.3-1.1,0.5-1.8,0.9c1.4,0.4,2.8,0.5,4.3,0.3c2.3-0.2,4.6-0.9,6.6-2.1c0.7-0.4,1.4-1,1.9-1.6
		c0.7-0.7,0.8-1.9,0.1-2.6c-0.2-0.2-0.5-0.4-0.8-0.5c-1.7-0.7-3.5-0.9-5.3-0.8c-3.6,0.2-7.1,1.2-10.3,3c-0.3,0.1-0.6,0.3-0.9,0.4
		c-1.4-5.9-2.8-11.7-4.3-17.7c-2.1,1.1-4.3,2.1-6.4,3.3c-1.8-3.8-3.6-7.9-5.4-11.9c5.2-3.4,10.9-5.9,16.9-7.6c0.5,2,1.8,3.6,3.6,4.5
		c1.2,0.6,2.6,0.7,3.9,0.4c3-0.8,4.6-3,4.9-6.9c6.7-0.5,13.4,0.1,19.8,1.9l-2.6,12.8c-2.6-0.4-5.1-0.6-7.9-1
		c-0.3,5.4-0.5,10.7-0.8,15.9c-0.9-0.6-1.8-1.3-2.8-2c0.3-5.5,0.5-11.2,0.8-16.9c2.9,0.3,5.6,0.4,8.4,0.6c0.5-2.4,1-4.9,1.5-7.4
		c-4.5-1-9.2-1.4-13.8-1.4c-1.1,3.9-3.4,6.4-7.4,7.1C68,85.8,64.9,84.3,62.4,80.8L62.4,80.8z M248.3,93.7v2.8
		c-1.3-0.4-0.8-0.5-0.7-0.5c-3-2.9-7.8-2.9-10.7,0.1c-0.6,0.6-1,1.3-1.4,2c-1.2,2.5-1.5,5.3-0.8,7.9c0.7,4.1,4.7,6.9,8.8,6.2
		c1.6-0.3,3.1-1.1,4.2-2.3c0-0.1-0.7-0.3,0.5-0.4v2c0,2.5-1.9,4.5-4.3,4.6c-2.6,0.5-5.2-0.4-7-2.3c-0.8,1-1.3,2-1.9,2.9l0.5,0.5
		c2.6,1.9,5.8,2.7,9,2.1c5-0.6,7.5-3.4,7.5-8.4V93.7H248.3L248.3,93.7z M246.9,107.5c-1.5,1.3-3.7,1.6-5.5,0.8
		c-1.8-0.8-2.9-2.7-2.9-4.6c-0.1-0.8,0-1.6,0.1-2.4c0.2-1.9,1.6-3.5,3.5-3.9c2-0.5,4.2,0.2,5.6,1.8c0.3,0.3,0.5,0.7,0.6,1.1v2.7
		c-0.1,0.7-0.1,1.5,0,2.3C248.3,106.2,247.7,107.1,246.9,107.5L246.9,107.5z M187.6,98.7c-1.4-3.9-5.6-6-9.6-4.7
		c-0.7,0.2-1.4,0.6-2,1c-0.5,0.2-1,0.5-1.4,0.9c-0.1-0.8-0.2-1.5-0.1-2.3h-4v25.1h3.8V110h0.1c0.3,0,0.5,0.2,0.6,0.4
		c2.9,3,7.6,3.1,10.6,0.2c0.8-0.8,1.4-1.8,1.8-2.8C188.7,104.9,188.8,101.6,187.6,98.7L187.6,98.7z M184,105.2
		c-0.3,1.9-1.8,3.4-3.6,3.9c-1.9,0.4-3.9-0.3-5.3-1.8c-0.3-0.3-0.5-0.8-0.5-1.3c0-1.9-0.1-3.9,0-5.8c0-0.5,0.2-1,0.6-1.4
		c1.4-1.6,3.6-2.1,5.5-1.4c2.1,0.6,3,2.3,3.4,4.4c0.1,0.4,0.2,0.9,0.1,1.4C184.2,104,184.1,104.6,184,105.2z M128.4,102.6
		c-0.4-3.5-1.8-6.5-5-8c-4.1-1.9-8.9-0.5-11.4,3.2c-2.5,3.9-1.9,9.6,1.4,12.5c3.5,3.1,10,3.2,13.5,0.1c0-0.2,0.1-0.3,0.3-0.4
		c-0.6-0.9-1.1-1.6-1.8-2.5c-2.6,1.8-5.3,2.9-8,1.4c-1.5-0.8-2.5-2.2-2.8-3.9h13.8C128.5,104.2,128.5,103.4,128.4,102.6L128.4,102.6
		z M114.5,101.2c0.2-2.6,2.4-4.6,5-4.6c2.6-0.1,4.8,2,4.9,4.6c0,0,0,0,0,0H114.5z M149.1,102.7c-0.4-3.8-1.9-7-5.6-8.4
		c-4.6-1.8-9.9,0.5-11.7,5.2c-0.1,0.2-0.2,0.4-0.2,0.7c-1.6,5.5,1.3,10.9,6.5,12.1c2.4,0.5,5,0.2,7.3-0.8c0.9-0.5,1.8-1,2.6-1.5
		c-0.8-1-1.3-1.9-1.9-2.6c-3.4,2.6-6.4,2.5-8.3,1.4c-1.4-0.8-2.3-2.2-2.5-3.8h13.8C149.2,104.2,149.2,103.5,149.1,102.7z
		 M135.3,101.2c0.3-2.7,2.6-4.7,5.3-4.6c2.6,0,4.6,2.1,4.6,4.6c0,0,0,0,0,0H135.3L135.3,101.2z M218.1,96.5c1.2-1.3,2.9-2.3,4.6-2.6
		c1.1-0.2,2.2-0.2,3.3-0.1c2.6,0.3,4.5,2.6,4.3,5.1c0.1,4.3,0,8.5,0,12.8c0,0.1,0,0.3-0.1,0.4h-3.9v-11c0-2.9-1.5-4.3-4.5-3.8
		c-1.3,0.2-2.5,0.9-3.3,1.9c-0.3,0.3-0.4,0.7-0.4,1.1v11.7h-3.9V94h3.9L218.1,96.5L218.1,96.5z M166.2,96.3c-0.5,0.9-1,1.8-1.6,2.8
		c-1.5-1.5-3.5-2.2-5.6-2.1c-0.9,0.1-1.7,0.4-2.4,0.9c-0.7,0.3-0.9,1.2-0.6,1.8c0.2,0.3,0.5,0.6,0.8,0.7c1,0.3,2,0.6,3,0.9
		c1.4,0.4,2.8,0.8,4.1,1.3c2.5,1.2,3.6,4.2,2.4,6.7c-0.4,0.9-1.1,1.6-1.9,2.1c-3.4,2.1-9.8,1.5-12.7-1.3c-0.1-0.1-0.2-0.2-0.3-0.4
		c0.5-0.9,1.1-1.8,1.5-2.5c1.6,0.8,3.2,1.4,4.9,2c1,0.2,2,0.2,3,0c1.1,0,2-0.8,2-1.9c0-1.1-0.8-2-1.9-2c-1.3-0.4-2.6-0.6-4-1
		l-2.3-0.8c-3.9-1.6-3.5-6.4-0.9-8.4C157.1,92.8,163.3,93.3,166.2,96.3L166.2,96.3z M100.4,97.6h-2.9v-3.5h2.9v-4.9h4v4.8h3.6v3.5
		h-3.5c0,0.4-0.1,0.6-0.1,0.9v8.9c0,1,0.8,1.8,1.7,1.8c0.3,0,0.6-0.1,0.9-0.2c0.3-0.1,0.6-0.3,0.9-0.4c0.3,1,0.6,1.9,0.9,2.9
		c-1.7,1.2-3.8,1.5-5.8,0.9c-1.6-0.5-2.7-2-2.6-3.6c-0.1-3.1,0-6.4-0.1-9.5C100.4,98.6,100.4,98.1,100.4,97.6L100.4,97.6z
		 M192.2,94.2h3.9v2.5c1.5-1.7,3.5-2.8,5.8-3v3.9c-2.2-0.3-4.4,0.6-5.8,2.4v12.2h-3.9V94.2z M205.1,94.2h3.9v17.9h-3.9V94.2z
		 M209.5,89.4c0,1.4-1.1,2.5-2.5,2.5c-1.3-0.1-2.3-1.1-2.4-2.4c0-1.4,1.1-2.5,2.5-2.5C208.4,87.1,209.5,88.2,209.5,89.4z"/>
</g>
</svg>
