<?xml version="1.0" encoding="utf-8"?>
<!-- Generator: Adobe Illustrator 26.2.1, SVG Export Plug-In . SVG Version: 6.00 Build 0)  -->
<svg version="1.1" id="Layer_1" xmlns="http://www.w3.org/2000/svg" xmlns:xlink="http://www.w3.org/1999/xlink" x="0px" y="0px"
	 width="300px" height="200px" viewBox="0 0 300 200" style="enable-background:new 0 0 300 200;" xml:space="preserve">
<style type="text/css">
	.st0{fill:#6c7074;}
</style>
<g>
	<path class="st0" d="M107.7,96.5c0,0,5.9-0.4,4.8-7.6c0,0-0.5-4-4.8-4.8h-5l0,12.4H107.7z"/>
	<path class="st0" d="M108.7,101.2h-6l0,14.5h6c0,0,7.1-0.5,5.9-8.9C114.6,106.8,113.9,102.2,108.7,101.2z"/>
	<path class="st0" d="M87.1,71.3v57.3h125.9V71.3H87.1z M122.8,110.4c-0.9,10.3-11.6,10.5-11.6,10.5H94.8V79.1h14.4
		c3.4,0,6.2,1.5,6.2,1.5c6.3,2.8,5.6,9.2,5.6,9.2c0.1,5.9-6.3,9.1-6.3,9.1C124.2,101.2,122.8,110.4,122.8,110.4z M177.7,84.6h-9.9
		v36.3h-8.6V84.6h-7.6l-0.7,1.3l-9.5,15.5l-0.1,0.1v19.4h-8.6v-19.3l-5.8-9.9l-7.2-12.5h10.1l8.2,14.5h0.1l8.6-14.5l12.5,0h18.4
		V84.6z M205.2,120.9h-25.2V79.1h24.6v5.5h-0.9l-15.4,0v11.9l15.4,0v5.3l-2.3,0h-12.5c0,0-0.6,0-0.6,0V115h16.8V120.9z"/>
</g>
</svg>
