<?xml version="1.0" encoding="utf-8"?>
<!-- Generator: Adobe Illustrator 26.2.1, SVG Export Plug-In . SVG Version: 6.00 Build 0)  -->
<svg version="1.1" id="Layer_1" xmlns="http://www.w3.org/2000/svg" xmlns:xlink="http://www.w3.org/1999/xlink" x="0px" y="0px"
	 width="300px" height="200px" viewBox="0 0 300 200" style="enable-background:new 0 0 300 200;" xml:space="preserve">
<style type="text/css">
	.st0{fill:#6c7074;}
</style>
<path class="st0" d="M188.8,75.5c-0.2,0.1-0.2,4.2-0.2,19.7c0,10.8-0.1,19.8-0.2,19.9c-0.1,0.2-0.7,0.2-2.2,0.2l-2-0.1l-0.1-12.7
	c-0.1-7-0.1-12.7-0.2-12.7c0,0-2.1,0-4.6,0c-5.4,0-6.4,0.2-8.2,1.7c-0.8,0.6-2.3,2.5-2.3,2.9c0,0.1-0.2,0.5-0.3,0.8
	c-0.3,0.6-0.3,1.6-0.3,12v11.3l0.6,1.2c0.7,1.4,1.1,1.9,2.3,2.9c1.2,0.9,1.8,1.2,3.2,1.6c1.1,0.3,2.6,0.3,15.5,0.3l14.3-0.1V75.5
	l-7.6,0C192.4,75.4,188.9,75.5,188.8,75.5z M75.6,89.9L67.9,90l-0.1,16.9c0,9.3,0,17,0.1,17.3l0.1,0.4h24.5c26.4,0,25.6,0,27.6-1
	c1-0.5,2.5-1.8,3.1-2.7c0.7-1.1,1-1.9,1.2-3.4c0.2-1.4,0.2-26.5,0.1-27.2l-0.1-0.4l-7.8,0l-7.8,0.1l-0.1,12.7l-0.1,12.7h-4.2
	l-0.1-12.7L104.1,90l-7.8-0.1l-7.9,0v12.5c0,6.9-0.1,12.6-0.2,12.8c-0.1,0.2-0.7,0.2-2.2,0.2l-2.1-0.1l-0.1-12.7
	c0-9.9-0.1-12.7-0.3-12.8C83.4,89.8,79.9,89.8,75.6,89.9L75.6,89.9z M134,90.1c-2.1,0.6-4.1,2.2-5.1,4.3l-0.6,1.3v22.9l0.5,1
	c0.8,1.6,1.7,2.8,3,3.6c0.7,0.4,1.5,0.9,1.7,0.9s0.8,0.2,1.2,0.3c0.9,0.2,29.2,0.3,29.6,0.1c0.2-0.1,0.2-1.2,0.2-4.5l-0.1-4.4
	l-10-0.1c-7,0-10.1-0.1-10.2-0.2c-0.2-0.2-0.2-1.7-0.2-7.9c0-5,0.1-7.8,0.2-8.1c0.2-0.3,0.4-0.4,2.1-0.4c1,0,2,0.1,2.1,0.2
	c0.2,0.1,0.2,1.7,0.3,6.2l0.1,6.1h15.8v-7.8c0-7.1,0-7.9-0.3-8.3c-0.2-0.3-0.3-0.6-0.3-0.7c0-0.4-1.5-2.2-2.3-2.9
	c-0.9-0.7-1.6-1.1-2.8-1.4C157.5,89.8,135.1,89.8,134,90.1z M217,90.2c-2.6,0.9-4.5,2.8-5.3,5.4c-0.1,0.4-0.2,4.1-0.3,10.2l-0.1,9.5
	l-2.3,0.1l-2.3,0.1l0,4.5l0.1,4.5h6.9c7.2,0,7.5,0,9.4-0.9c1.2-0.5,2.9-2.3,3.5-3.7l0.6-1.1l0.1-9.8c0.1-8.4,0.1-9.8,0.4-9.9
	c0.2-0.1,1.3-0.2,2.4-0.2c1.3,0,2.1-0.1,2.1-0.2c0-0.1,0-1.9,0-4.1c0-2.2,0-4.1,0-4.3c0-0.4-0.1-0.4-7.1-0.4
	C218.9,89.9,217.8,90,217,90.2L217,90.2z"/>
</svg>
