<?xml version="1.0" encoding="utf-8"?>
<!-- Generator: Adobe Illustrator 26.2.1, SVG Export Plug-In . SVG Version: 6.00 Build 0)  -->
<svg version="1.1" id="Layer_1" xmlns="http://www.w3.org/2000/svg" xmlns:xlink="http://www.w3.org/1999/xlink" x="0px" y="0px"
	 width="300px" height="200px" viewBox="0 0 300 200" style="enable-background:new 0 0 300 200;" xml:space="preserve">
<style type="text/css">
	.st0{fill-rule:evenodd;clip-rule:evenodd;fill:#6c7074;}
</style>
<g>
	<path class="st0" d="M122,98V76.4h7.9c1.7,0,2.7,0.4,3.7,0.7c2.2,1.1,3.1,3.1,3.1,4.9c0,2-0.8,3.5-2.5,4.5c2.5,0.6,3.9,2.3,3.9,4.9
		c0,3-1.8,5.1-4.8,6.1c-1.1,0.4-2.3,0.5-4.1,0.5L122,98L122,98L122,98z M131.7,80.1c-0.6-0.2-1.2-0.4-2-0.4h-4.1v5.6h3.8
		c1.1,0,1.8-0.1,2.4-0.5c0.8-0.5,1.3-1.3,1.3-2.3C133.1,81.5,132.5,80.6,131.7,80.1z M132.7,89.1c-0.5-0.2-1.2-0.4-2.4-0.4h-4.8v6
		h4.4c1.4,0,2.2-0.2,2.7-0.5c1.1-0.5,1.6-1.4,1.6-2.6S133.8,89.5,132.7,89.1L132.7,89.1z M159.6,98V76.4h3.7V98H159.6z M186.5,98
		V76.4h3.7V98H186.5z M202,76.3c2.4,0,4.8,0.6,6.1,1.2l-0.1,3.6c-1.9-1-3.7-1.6-6-1.6c-2,0-3.8,0.6-3.8,2.3c0,4.4,11.1,2.6,11.1,9.9
		c0,4.1-3.3,6.6-8.4,6.6c-3.3,0-5.6-1-7.3-1.9l1.6-3c1.3,0.8,3.5,1.7,5.9,1.7c2.3,0,4.3-0.8,4.3-2.7c0-4.7-11-2.6-11-9.9
		C194.4,78.4,197.5,76.3,202,76.3L202,76.3z M226.8,98v-9.3h-10.4V98h-3.7V76.4h3.7v8.8h10.4v-8.8h3.7V98H226.8z M130.1,101.7
		c2.3,0,4.1,0.5,6,1.3l-1.1,3.1c-1.1-0.5-2.5-1.1-4.5-1.1c-4.1,0-6.6,3.5-6.6,7.6c0,4.3,2.4,7.8,6.6,7.8c2,0,3.5-0.6,4.5-1.1
		l1.1,3.1c-1.9,0.8-3.7,1.3-6,1.3c-6.5,0-10.2-4.5-10.2-11C119.9,106.8,123.6,101.7,130.1,101.7L130.1,101.7z M210.9,101.7
		c2.4,0,4.2,0.5,6,1.3l-1.1,3.1c-1.1-0.5-2.5-1.1-4.5-1.1c-4.1,0-6.6,3.5-6.6,7.6c0,4.3,2.4,7.8,6.6,7.8c2,0,3.5-0.6,4.5-1.1
		l1.1,3.1c-1.8,0.8-3.6,1.3-6,1.3c-6.5,0-10.2-4.5-10.2-11C200.7,106.8,204.4,101.7,210.9,101.7L210.9,101.7z M157.1,112.7
		c0,6.5-4.1,11.1-10.2,11.1c-6.1,0-10.2-4.5-10.2-11s4.1-11.1,10.2-11.1C153.2,101.7,157.1,106.3,157.1,112.7L157.1,112.7z
		 M153.3,112.7c0-4.7-2.7-7.6-6.3-7.6c-3.6,0-6.3,3-6.3,7.8c0,4.7,2.7,7.6,6.3,7.6C150.5,120.5,153.3,117.5,153.3,112.7z
		 M159.6,115.4V102h3.7v13.5c0,3.7,1.9,5,5,5s5-1.3,5-5V102h3.7v13.4c0,5.9-3.3,8.5-8.7,8.5C163,123.8,159.6,121.2,159.6,115.4
		L159.6,115.4z M184,107.8h-0.1c0.1,0.7,0.1,1.9,0.1,2.9v12.8h-3.7V102h4.1l9.9,14.7h0.1c-0.1-0.7-0.1-1.9-0.1-2.9V102h3.7v21.5
		h-3.2L184,107.8z M219.7,123.5V102h3.7v21.5H219.7z M226.8,123.5V102h3.7v18.2h8.5v3.3H226.8z M183.6,76.5h-17.4v3.3h6.9V98h3.7
		V79.9h6.8V76.5z M153,98c-3.1-6.6-3.9-8.4-5.3-8.4h-3.5V98h-3.7V76.5h7.3c5.6,0,7.6,2.9,7.6,6.1c0,3-1.6,4.9-3.9,5.6
		c1,0.6,2,2.6,5.6,9.8L153,98L153,98z M148.1,79.7h-3.8v6.6h3.7c2.6,0,3.8-1.3,3.8-3.3C151.9,81.2,150.8,79.7,148.1,79.7z"/>
	<path class="st0" d="M85.8,86.8c0,6.8-5.6,12.3-12.4,12.3c-6.7,0-12.3-5.5-12.3-12.3c0-6.8,5.6-12.3,12.3-12.3
		C80.2,74.5,85.8,80,85.8,86.8z M112.1,86.8c0,6.8-5.5,12.3-12.3,12.3c0,0,0,0,0,0c-6.8,0-12.3-5.5-12.3-12.3
		c0-6.8,5.5-12.3,12.3-12.3C106.5,74.5,112,80,112.1,86.8C112.1,86.8,112.1,86.8,112.1,86.8z M85.8,113.2c0,6.8-5.6,12.3-12.4,12.3
		c-6.7,0-12.3-5.5-12.3-12.3c0-6.8,5.6-12.3,12.3-12.3C80.2,100.9,85.8,106.4,85.8,113.2z M112.1,113.2c0,6.8-5.5,12.3-12.3,12.3
		c0,0,0,0,0,0c-6.8,0-12.3-5.5-12.3-12.3c0,0,0,0,0,0c0-6.8,5.5-12.3,12.3-12.3c0,0,0,0,0,0C106.5,100.9,112,106.4,112.1,113.2
		C112.1,113.2,112.1,113.2,112.1,113.2z"/>
</g>
</svg>
