<?xml version="1.0" encoding="utf-8"?>
<!-- Generator: Adobe Illustrator 26.2.1, SVG Export Plug-In . SVG Version: 6.00 Build 0)  -->
<svg version="1.1" id="Layer_1" xmlns="http://www.w3.org/2000/svg" xmlns:xlink="http://www.w3.org/1999/xlink" x="0px" y="0px"
	 width="300px" height="200px" viewBox="0 0 300 200" style="enable-background:new 0 0 300 200;" xml:space="preserve">
<style type="text/css">
	.st0{fill:#6c7074;}
</style>
<g>
	<path class="st0" d="M133.5,87.2c-2.8,0-5.8,0.8-9.4,2.7l2,5c3.2-1.8,5.8-2.6,7.7-2.6c2.2,0,3.1,0.8,3.1,1.9v0.1
		c0,0.7-0.6,1.1-2,1.3l-2.5,0.3c-6.3,0.7-8.8,3.4-8.8,7.2v0.3c0,3.6,2.9,6.4,7.1,6.4c2.7,0,5.1-1.2,6.6-3.2l0.5,2.8h5.7V96.5
		C143.4,90.4,139.9,87.2,133.5,87.2 M133,104.9c-2.1,0-3.1-0.8-3.1-2.1v-0.1c0-1.1,0.6-1.9,2.9-2.3l1-0.1c1.5-0.2,2.3-0.5,3.2-1v1.6
		C137,103.5,135.4,104.9,133,104.9"/>
	<g>
		<path class="st0" d="M62,105.7l18.2-18.3l-7.3-7.3l-7.3,7.3l3.6,3.6l-18.2,18.3l7.3,7.3l7.3-7.3L62,105.7z"/>
		<path class="st0" d="M40.2,98.4l18.2-18.3l7.3,7.3l-18.2,18.3L40.2,98.4z M65.6,109.3L83.8,91l7.3,7.3l-18.2,18.3L65.6,109.3z"/>
	</g>
	<path class="st0" d="M147.1,79.8h6.4v29.6h-6.4V79.8z M112.7,87.2c-2.9,0-5.3,1.3-6.6,3.3l-0.5-3H100v29.2h6.4v-10.1
		c1.2,1.9,3.5,3.1,6.3,3.1c5.2,0,9.4-4.6,9.4-10.9v-0.7C122.1,91.8,117.9,87.2,112.7,87.2 M115.5,98.7c0,3.3-1.7,5.7-4.6,5.7
		s-4.6-2.4-4.6-5.7v-0.4c0-3.3,1.7-5.7,4.6-5.7c2.9,0,4.6,2.4,4.6,5.7V98.7z M240.6,87.2c-6.6,0-11.2,4.6-11.2,10.9v0.7
		c0,6.3,4.6,10.9,11.2,10.9s11.2-4.6,11.2-10.9v-0.7C251.8,91.8,247.2,87.2,240.6,87.2 M245.2,98.7c0,3.3-1.7,5.7-4.6,5.7
		s-4.6-2.4-4.6-5.7v-0.4c0-3.3,1.7-5.7,4.6-5.7s4.6,2.4,4.6,5.7V98.7z M257.8,88.6v-0.1c0-0.6-0.5-1.1-1.3-1.1H255v3.4h0.7v-1.1h0.8
		l0.6,1.1h0.8l-0.7-1.3C257.5,89.3,257.8,89,257.8,88.6 M255.7,88h0.8c0.4,0,0.6,0.1,0.6,0.5v0c0,0.3-0.2,0.5-0.6,0.5h-0.8V88z"/>
	<path class="st0" d="M256.3,85.6c-2,0-3.5,1.5-3.5,3.5s1.5,3.5,3.5,3.5c2,0,3.5-1.5,3.5-3.5S258.3,85.6,256.3,85.6 M256.3,92.1
		c-1.7,0-3-1.3-3-3c0-1.8,1.3-3,3-3c1.7,0,3,1.3,3,3C259.3,90.9,258,92.1,256.3,92.1 M203.9,79.8h6.4v29.6h-6.4V79.8z M223.1,104.4
		c-1.9,0-2.6-0.9-2.6-2.9v-8.9h7.6v-5h-7.6v-5l-6.4,1v18.6c0,5.1,2.6,7.7,7.7,7.7c2.3,0,5-0.7,7.2-2l-1.8-4.6
		C225.8,104,224,104.4,223.1,104.4 M190.3,87.2c-2.8,0-5.8,0.8-9.4,2.7l2,5c3.2-1.8,5.8-2.6,7.7-2.6c2.2,0,3.1,0.8,3.1,1.9v0.1
		c0,0.7-0.6,1.1-2,1.3l-2.5,0.3c-6.3,0.7-8.8,3.4-8.8,7.2v0.3c0,3.6,2.9,6.4,7.1,6.4c2.7,0,5.1-1.2,6.6-3.2l0.5,2.8h5.7V96.5
		C200.2,90.4,196.7,87.2,190.3,87.2 M189.8,104.9c-2.1,0-3.1-0.8-3.1-2.1v-0.1c0-1.1,0.6-1.9,2.9-2.3l1-0.1c1.5-0.2,2.3-0.5,3.2-1
		v1.6C193.7,103.5,192.2,104.9,189.8,104.9 M167.6,87.2c-6.6,0-11.2,4.6-11.2,10.9v0.7c0,6.3,4.6,10.9,11.2,10.9s11.2-4.6,11.2-10.9
		v-0.7C178.9,91.8,174.2,87.2,167.6,87.2 M172.2,98.7c0,3.3-1.7,5.7-4.6,5.7s-4.6-2.4-4.6-5.7v-0.4c0-3.3,1.7-5.7,4.6-5.7
		c2.9,0,4.6,2.4,4.6,5.7V98.7z M197.9,120l-2.3-3.1h0v3.1H194v-5.3h1.7l2.3,3h0v-3h1.5v5.3L197.9,120z M203.1,117.9v0.8h3.2
		l-0.2,1.3h-4.7v-5.3h4.7v1.3h-3.1v0.7h2.4v1.2H203.1z M209.6,120v-4h-1.9v-1.4h5.2l0.2,1.4h-1.9v4H209.6z M220.8,118.4l0.8-3.7h1.6
		l-1.5,5.3h-1.9l-1-3.2h-0.2l-1,3.2h-2.1l-1.3-5.3h1.6l1,3.7l1.1-3.7h1.6l1,3.7H220.8z M224.4,117.3c0-1.7,1.2-2.8,3-2.8
		c1.9,0,3,1.1,3,2.8c0,1.7-1.2,2.8-3,2.8C225.5,120.2,224.4,119.1,224.4,117.3 M228.8,117.3c0-0.9-0.5-1.5-1.4-1.5s-1.4,0.5-1.4,1.5
		c0,0.9,0.5,1.5,1.4,1.5C228.3,118.8,228.8,118.3,228.8,117.3 M232.1,114.7h3.1c1.4,0,2.1,0.7,2.1,1.9c0,0.9-0.3,1.4-1,1.7l1.3,1.7
		h-1.8l-1-1.4h-1v1.4h-1.6L232.1,114.7z M235,117.4c0.5,0,0.7-0.3,0.7-0.7c0-0.4-0.2-0.7-0.7-0.7h-1.3v1.4L235,117.4z M243,117.2
		l2.1,2.8v0h-1.8l-1.6-2.1h-0.6v2.1h-1.6v-5.3h1.6v2h0.6l1.5-2h1.9L243,117.2z M246.4,119.7v-1.5h0c0.9,0.4,1.8,0.7,2.5,0.7
		c0.6,0,0.9-0.1,0.9-0.4s-0.2-0.3-1.3-0.5c-1.2-0.2-2.1-0.6-2.1-1.6c0-1,0.9-1.8,2.6-1.8c0.7,0,1.4,0.1,2.1,0.4v1.4l0,0
		c-0.6-0.4-1.5-0.6-2.2-0.6c-0.6,0-0.8,0.1-0.8,0.4c0,0.3,0.4,0.3,1.3,0.5c1.2,0.2,2.1,0.6,2.1,1.7c0,0.9-0.7,1.8-2.5,1.8
		C247.9,120.1,247.2,120,246.4,119.7"/>
</g>
</svg>
