<?xml version="1.0" encoding="utf-8"?>
<!-- Generator: Adobe Illustrator 26.2.1, SVG Export Plug-In . SVG Version: 6.00 Build 0)  -->
<svg version="1.1" id="Layer_1" xmlns="http://www.w3.org/2000/svg" xmlns:xlink="http://www.w3.org/1999/xlink" x="0px" y="0px"
	 width="300px" height="200px" viewBox="0 0 300 200" style="enable-background:new 0 0 300 200;" xml:space="preserve">
<style type="text/css">
	.st0{fill:#6c7074;}
</style>
<g>
	<path class="st0" d="M89.3,103.3h4.9v-4.9c-2.4-0.3-4.9,0.4-4.9,3.1V103.3L89.3,103.3z M83.1,104.8c-5.2,0.1-7.9,1.8-7.9,7.1v12.9
		h4.9v-12.9c0-2.5,0.9-2.8,2.8-2.9c1.2-0.1,1.6,0.2,2.7-0.4c1-0.5,1.4-1.8,1.4-3.6C85.8,104.9,84.7,104.8,83.1,104.8 M56.8,113.2
		h7.1c2.8,0,3.5,1,3.5,3.7c0,2.6-0.9,3.8-3.5,3.8h-7.1V113.2z M72.5,117.1c0-4.3-1.9-5.8-4.3-6.3c2.1-0.9,3.6-2.1,3.6-5.9
		c0-5.2-2.5-7.1-7.6-7.1H51.7v27.1h13.1C69.7,124.8,72.5,122.9,72.5,117.1 M56.8,109.1V102h6.4c2.8,0,3.6,1,3.6,3.5
		c0,2.6-0.8,3.6-3.6,3.6H56.8L56.8,109.1z M115.2,103.3h4.9v-4.9c-2.4-0.3-4.9,0.4-4.9,3.1V103.3z M115.1,105.1h5v19.8h-5V105.1z
		 M154.8,104.8c-2.6,0-6,1.3-8,2.2v-9.9c-2.4-0.3-5,0.4-5,3.1v24.6h5v-13.8c2.2-0.9,4.8-1.7,6.5-1.7c1.5,0,2.3,0.9,2.3,2.2v13.3h5
		v-13.4C160.5,107.1,159,104.8,154.8,104.8 M89.3,105.1h5v19.8h-5V105.1z M105.4,109h3.5c2.6,0,3.6-1.2,3.3-3.9h-6.9v-6.6
		c-2.4-0.3-4.9,0.4-4.9,3.1v3.5h-3.7v3.9h3.7v9c0,4.9,2,7.1,7.2,7.1c1.6,0,2.9-0.1,4.2-0.3l-0.1-3.9c-0.9,0.1-2.3,0.2-3.5,0.2
		c-1.9,0-2.8-0.7-2.8-2.8V109L105.4,109z M127.7,110.5c0-1.3,1-1.7,2.2-1.7c2.1,0,4,0.1,5.2,0.1c2.2,0.1,3.3-1.1,3.2-3.7
		c-1.5-0.2-4.9-0.4-7.8-0.4c-4.4,0-7.7,1.7-7.7,5.8c0,4.3,2.4,5.4,6.8,6.1c4,0.7,4.8,0.9,4.8,2.3c0,1.7-1.9,1.9-3.7,1.9
		c-2.6,0-5.4-0.2-7.2-0.3l-0.2,4.1c1.9,0.2,4.6,0.3,7.6,0.3c5.1,0,8.3-1.6,8.3-5.8c0-4.1-2.1-5.3-6.4-6.1
		C128.9,112.4,127.7,112.1,127.7,110.5 M193.8,109.2h-10.2c-0.2,3,0.7,4.2,3.3,4.2h1.8v6.8c-1.4,0.2-4.6,0.4-6,0.4
		c-4.1,0-5.6-1.6-5.6-9.6c0-7.8,1.2-9.6,7.6-9.1l4.4,0.3c2.9,0.2,4-1.4,4-3.9c-2-0.3-7.3-0.9-9.5-0.9c-9.3,0-11.8,2.7-11.8,13.7
		c0,10.7,3,13.9,10.8,13.9c2.9,0,8.4-0.6,11.3-1.2L193.8,109.2L193.8,109.2z M222,110.5c0-1.3,1-1.7,2.2-1.7c2.1,0,4,0.1,5.2,0.1
		c2.2,0.1,3.3-1.1,3.2-3.7c-1.5-0.2-4.9-0.4-7.8-0.4c-4.4,0-7.7,1.7-7.7,5.8c0,4.3,2.4,5.4,6.8,6.1c4,0.7,4.8,0.9,4.8,2.3
		c0,1.7-1.9,1.9-3.7,1.9c-2.6,0-5.4-0.2-7.2-0.3l-0.2,4.1c1.9,0.2,4.6,0.3,7.6,0.3c5.1,0,8.3-1.6,8.3-5.8c0-4.1-2.1-5.3-6.4-6.1
		C223.1,112.4,222,112.1,222,110.5 M209.4,121.2c-1.3,0.2-3.8,0.2-5.9,0.2c-2,0-2.3-1.3-2.3-2.5c0-1.8,0.9-2.3,2.9-2.7
		c1.7-0.3,3.4-0.5,5.4-0.7V121.2z M214.4,111.2c0-4.1-1.7-6.3-6.7-6.3c-3.2,0-7.3,0.4-9.2,0.6c0,2.5,0.7,3.7,2.8,3.7
		c1.5,0,4.3-0.2,5.9-0.2c1.5,0,2.2,0.5,2.2,2.2v0.7c-2.2,0.1-4.3,0.4-6.1,0.7c-4.4,0.7-6.9,1.9-6.9,6.2c0,3.9,1.9,6.2,6.1,6.2
		c4.4,0,9.2-0.3,11.9-0.6V111.2z"/>
	<path class="st0" d="M218,58.7c0,0-6.7,2.3-10.3,5.4c-2.3,1.9-3.9,4.5-4.5,7.4c2.6-1.4,5.2-2.3,5.2-2.3l24.2-7.9
		c0,0,0.9,18.4-9.9,26.5c3.1-0.6,6.8-2,10.9-4.3c16-9.1,14.7-34.6,14.7-34.6L218,58.7z"/>
	<path class="st0" d="M200.1,73.5c-2.5,2-3.9,5-3.9,8.2c0,6.1,5.4,11,12.1,11c3.3,0.1,7.4-0.9,12.5-3.8c0.7-0.4,1.3-0.8,1.9-1.2
		c-1.7,0.3-3.3,0.5-4.7,0.4c-8.4,0-15.1-6.2-15.1-13.8c0-1,0.1-2,0.3-3C202.1,72.1,201,72.8,200.1,73.5L200.1,73.5z"/>
</g>
</svg>
