<?xml version="1.0" encoding="utf-8"?>
<!-- Generator: Adobe Illustrator 26.2.1, SVG Export Plug-In . SVG Version: 6.00 Build 0)  -->
<svg version="1.1" id="Layer_1" xmlns="http://www.w3.org/2000/svg" xmlns:xlink="http://www.w3.org/1999/xlink" x="0px" y="0px"
	 width="300px" height="200px" viewBox="0 0 300 200" style="enable-background:new 0 0 300 200;" xml:space="preserve">
<style type="text/css">
	.st0{fill-rule:evenodd;clip-rule:evenodd;fill:#6c7074;}
</style>
<path class="st0" d="M235,123.3l-3.1-3.5c0,0-1.3,2.5-3.9,1.6c-2.8-1-2.2-2.8-1.6-4.6l2.5-6.6l-9.2-2l-0.7,2c-3-3.6-7.6-4.1-7.6-4.1
	c-9.5-1.2-13.1,5.9-13.1,5.9l-10.3,3.3c0,0,1.5-8.9-8.8-10c0,0-7.1-0.6-13.1,3.1l-1,2.2l-12.7,4.9c0,0,1.1-6-5.2-10.4
	c-0.7-0.5-21.9,13-25,14.6c0,0-3.6,1.7-6.6-0.8l11.4-6.4c0,0-2.4-11-13.5-8.9c0,0-7.2,1.1-8.9,7.5l-20.7,9.4c0,0,3-19.4,22.7-16.5
	c0,0-3.3-5-4.4-10.7c0-0.2,0.1-0.3,0.1-0.3s-9.5,0.8-16.1,9.1c-0.1,0.1-4.1,4.8-6.8,14l0,0.1c0,0-12.1-21,6.3-34.2
	c0.1-0.1,0-0.2,0-0.2s-4.6-6.2-4.7-12.7c0,0-13.5,3.8-15.5,19.2c-2.1,15.3,10.7,32.5,10.7,33v0l-10-0.1c0,0-1.8,4.3-4.9,6.2h96.4
	l-1.5,3.9h8.4l1.8-4l72.5,0.1l0-3.8L235,123.3z M113.5,103.4C113.5,103.4,113.5,103.4,113.5,103.4
	C113.5,103.4,113.5,103.4,113.5,103.4z M113.5,103.4C113.5,103.4,113.5,103.4,113.5,103.4L113.5,103.4z M113.5,103.4
	C113.5,103.4,113.5,103.4,113.5,103.4C113.5,103.4,113.5,103.4,113.5,103.4z M90.8,121.2l13.5-6c1.4,4.8,7,6.4,7,6.4L90.8,121.2z
	 M115.2,111.4c3.1-1,4.1,1.2,4.1,1.2l-5.8,3.3C111.7,112.7,115.1,111.4,115.2,111.4z M137.3,119.4c-1.8,0.2-1.7,1-1.7,1v1.5
	l-10.7-0.2l14.3-7.6c0,0,0,0.2,0.1,0.3C141.6,117.9,137.3,119.4,137.3,119.4z M159.9,122.1h-9.3c1.4-1.2,1.2-2.3,1.2-2.3l10.7-3.7
	L159.9,122.1z M168.2,122.4l0.9-1.8c0.3,0.9,1.8,1.7,1.8,1.7L168.2,122.4z M176.9,118.2c-2.9,0.7-4-2-4-2.1
	c-1.4-3.8,1.9-4.7,1.9-4.7v0c2.7-0.4,3.4,2,3.5,2.2C179.9,116.8,176.9,118.2,176.9,118.2z M184.2,122.6c1.7-0.7,2.3-2.6,2.3-2.6
	s10.7-3.6,10.6-3.5c-0.2,4.3,2.2,6.3,2.2,6.3L184.2,122.6z M209.1,119.2c-2.7,0.7-3.7-1.9-3.8-2c-1.3-3.6,1.8-4.5,1.8-4.5h0
	c2.5-0.3,3.2,1.8,3.3,2C211.8,117.9,209.1,119.2,209.1,119.2z M215.5,123c1.2-0.9,1.7-2.1,1.7-2.1c0,0,0,0,0,0c0,0,0,0,0,0
	c0.5,1.1,2.2,2.1,2.2,2.1H215.5z"/>
</svg>
