<?xml version="1.0" encoding="utf-8"?>
<!-- Generator: Adobe Illustrator 21.0.0, SVG Export Plug-In . SVG Version: 6.00 Build 0)  -->
<svg version="1.1" id="Layer_1" xmlns="http://www.w3.org/2000/svg" xmlns:xlink="http://www.w3.org/1999/xlink" x="0px" y="0px"
	 viewBox="0 0 225.4 246.5" style="enable-background:new 0 0 225.4 246.5;" xml:space="preserve">
<style type="text/css">
	.st0{fill:#979932;}
	.st1{fill:#65662F;}
	.st2{fill:#000;}
</style>
<path class="st0" d="M170.9,164.7c0,2.2,0,4.5,0,6.7C170.8,169.2,170.9,167,170.9,164.7c0-2.3,0-4.6,0-6.9
	C170.8,160.1,170.9,162.4,170.9,164.7z"/>
<path class="st0" d="M24.5,164.6c0-2.3,0-4.6,0-6.8C24.5,160.1,24.5,162.4,24.5,164.6c0,2.3,0,4.6,0,6.8
	C24.5,169.2,24.5,166.9,24.5,164.6z"/>
<path class="st0" d="M184.3,157c3.1,0,6.2,0,9.4,0C190.6,157,187.5,157,184.3,157s-6.2,0-9.4,0C178.1,157,181.2,157,184.3,157z"/>
<path class="st0" d="M49.7,169.6c0,3.9,0,7.8,0,11.7C49.7,177.4,49.7,173.5,49.7,169.6c0-3.9,0-7.7,0-11.6
	C49.7,161.8,49.7,165.7,49.7,169.6z"/>
<path class="st0" d="M209.7,151.7c0-3,0-6.1,0-9.1C209.8,145.7,209.7,148.7,209.7,151.7c0,3.1,0,6.1,0,9.2
	C209.8,157.8,209.7,154.8,209.7,151.7z"/>
<path class="st0" d="M61.4,137c5.2-0.4,10.5-0.8,15.8-0.8c5.8,0,11.6,0.3,17.4,0.7c3.8,0.2,7.5,0.5,11.2,1.1
	c6.8,1.1,13.5,2.3,20.2,3.7c9.9,2.2,19.5,5.2,29,8.7c0.5,0.2,0.8,0.4,0.8,1.1c0,9.4,0,18.8,0,28.3c0,0.7-0.2,0.9-0.9,0.9
	c-2.6,0-5.3,0-7.9,0c-1.8,0-1.6,0.2-1.6-1.6c0-9,0-18.1,0-27.1c0-0.8-0.2-1.1-1.1-1.1c-1.2,0.1-2.3,0.1-3.5,0
	c-0.8,0-1.1,0.2-1.1,1.1c0,4.2,0,8.3,0,12.5c0,1.2,0,1.3-1.2,1.3c-20.1,0-40.2,0-60.3,0c-1.2,0-1.2,0-1.2-1.3c0-4.2,0-8.5,0.1-12.7
	c0-0.7-0.2-1-1-1c-3.4,0.1-6.7,0.1-10.1,0.1c-0.6,0-0.8,0.3-0.8,0.9c0,1.3,0,2.5,0,3.8c0,0.7,0.2,0.9,0.9,0.9c1.4,0,2.8,0,4.1,0
	c0.8,0,1.2,0.2,1.2,1.1c0,0.8,0.1,1.7,0.1,2.5c0,2.3-0.1,4.6-0.1,6.8c0,4.1,0.1,8.2,0.1,12.3c0,1.5,0,1.5-1.4,1.5c-4.3,0-8.7,0-13,0
	c-0.7,0-1,0.2-0.9,0.9c0,1.3,0,2.5,0,3.8c0,0.7,0.2,0.9,0.9,0.9c6.4,0,12.8,0,19.2,0c0.8,0,1-0.2,1-1c-0.1-4.2-0.1-8.5-0.2-12.7
	c0-1.2,0-1.2,1.2-1.2c20.1,0,40.3,0,60.4,0c0.9,0,1.2,0.2,1.2,1.2c0,4.2,0,8.3,0,12.5c0,1.2,0,1.3,1.3,1.3c6.4,0,12.8,0,19.3,0
	c0.9,0,1.1-0.2,1.1-1.1c0-3.8,0-7.7,0-11.5c0-1.2,0-1.3,1.2-1.3c1.1,0,2.2,0,3.2,0c0.6,0,0.8-0.2,0.8-0.8c0-1.4,0-2.8,0-4.1
	c0-0.6-0.2-0.7-0.8-0.7c-1.1,0-2.2,0-3.2,0c-1.3,0-1.3,0-1.3-1.3c0-17.7,0-35.5,0-53.2c0-0.2,0-0.5,0-0.7c0-0.5-0.2-0.8-0.7-0.7
	c-1.2,0-2.5,0-3.7,0c-1.2,0-1.2,0-1.2,1.2c0,12.3,0,24.7,0,37c0,0.4,0,0.8,0,1.3c-0.5-0.2-0.8-0.3-1.1-0.5
	c-9-4.1-18.1-7.7-27.6-10.5c-10.5-3.1-21.1-5.5-32-6.5c-5-0.5-10-0.8-15-0.8c-4.6-0.1-9.3,0.2-13.9,0.5c-3.9,0.3-7.7,0.7-11.6,1.3
	c-8.2,1.2-16.2,3.2-24.1,5.7c-10,3.2-19.7,7.3-29,12.2c0.1,0,0.1,0,0.2,0C20.9,143.9,40.8,138.8,61.4,137z"/>
<path class="st0" d="M204.1,120.2c0,21.6,0,43.3,0,64.9c0,0.9,0.2,1.1,1.1,1.1c6.2,0,12.5,0,18.7,0c1.4,0,1.4,0,1.4-1.4
	c0-37.6,0-75.2,0-112.8c0-5.6,0-11.2,0-16.8c0-0.6-0.1-1.1-0.9-1c-0.8,0.1-1.2-0.3-1.5-0.9c-2.3-4.6-4.6-9.1-6.8-13.7
	c-0.3-0.6-0.4-1.3-0.4-2c0-12.1,0-24.2,0-36.3c0-0.3,0.1-0.6,0-0.8c-0.1-0.2-0.3-0.5-0.6-0.5c-0.8-0.1-0.7,0.5-0.7,1
	c0,12.1,0,24.2,0,36.4c0,0.8-0.2,1.7-0.6,2.5c-2.1,4.3-4.3,8.6-6.4,12.9c-0.5,1-1,1.6-2.2,1.4c-0.9-0.1-1.1,0.2-1.1,1.1
	C204.1,76.9,204.1,98.6,204.1,120.2C204.1,120.2,204.1,120.2,204.1,120.2z M218.8,183.4c-2.7,0-5.5,0-8.2,0c-0.6,0-0.8-0.2-0.8-0.8
	c0-6.2,0-12.4,0-18.6c0-0.6,0.3-0.8,0.9-0.8c2.8,0,5.5,0,8.3,0c0.6,0,0.8,0.2,0.8,0.8c0,3.1,0,6.2,0,9.4c0,0,0,0,0,0
	c0,3.1,0,6.2,0,9.3C219.6,183.2,219.5,183.5,218.8,183.4z M217.9,162c-2.4,0-4.7,0-7.1,0c-0.8,0-1.1-0.2-1.1-1.1
	c0.1-3.1,0-6.1,0-9.2c0-3,0-6.1,0-9.1c0-0.8,0.3-1.1,1.1-1.1c2.6,0,5.3,0,7.9,0c0.7,0,0.9,0.3,0.9,1c0,5.9,0.1,11.8,0.1,17.7
	C219.7,162,219.7,162,217.9,162z M219.6,139.7c0,0.6-0.2,0.7-0.8,0.7c-2.8,0-5.5,0-8.3,0c-0.6,0-0.8-0.2-0.8-0.8c0-0.1,0-0.3,0-0.4
	c0-5.9,0-11.8,0-17.7c0-1.3,0-1.3,1.3-1.3c2.5,0,5,0,7.5,0c0.3,0,0.6,0,1,0c0,0.5,0.1,0.9,0.1,1.2c0,4.9,0,9.7,0,14.6
	C219.7,137.2,219.6,138.4,219.6,139.7z M218.7,118.8c-2.7-0.1-5.3,0-8,0c-0.7,0-0.9-0.2-0.9-0.9c0-6.1,0-12.3,0-18.4
	c0-0.8,0.3-1,1-1c2.7,0,5.3,0,8,0c0.7,0,0.9,0.2,0.9,0.9c0,3.1,0,6.2,0,9.3c0,0,0.1,0,0.1,0c0,3,0,6.1,0,9.1
	C219.7,118.6,219.5,118.9,218.7,118.8z M209.7,96.5c0-6.3,0-12.5,0-18.8c0-0.6,0.3-0.8,0.8-0.8c2.8,0,5.6,0,8.4,0
	c0.5,0,0.7,0.2,0.7,0.7c0,6.2,0.1,12.4,0.1,18.6c0,0.3-0.1,0.6-0.1,0.9c-0.2,0-0.4,0.1-0.6,0.1c-2.8,0-5.6,0-8.4,0
	C210,97.2,209.7,97.1,209.7,96.5z M215.7,41.1c0-0.3,0-0.6,0-0.9c0.1,0,0.2-0.1,0.3-0.1c2.3,4.6,4.6,9.2,6.9,13.9
	c-0.1,0.1-0.1,0.2-0.2,0.3c-1.6,0-3.3,0-4.9,0c-2.1,0-2.1,0-2.1-2.1C215.7,48.4,215.7,44.7,215.7,41.1z M218.7,55.5
	c0.7,0,0.9,0.2,0.9,0.9c0,3,0,6,0,9.1c0,0,0.1,0,0.1,0c0,3.1,0,6.1,0,9.2c0,0.8-0.2,1.2-1.1,1.2c-2.6,0-5.2,0-7.8,0
	c-0.8,0-1.1-0.2-1.1-1c0-6,0-12,0-18.1c0-1.1,0.1-1.2,1.2-1.2C213.6,55.5,216.1,55.5,218.7,55.5z M214.1,40.1c0.1,0,0.2,0.1,0.3,0.1
	c0,0.3,0.1,0.5,0.1,0.8c0,4.1,0,8.3,0.1,12.4c0,0.5-0.1,0.8-0.7,0.8c-2,0-4.1,0-6.1,0c-0.1,0-0.2-0.1-0.5-0.2
	C209.5,49.3,211.8,44.7,214.1,40.1z"/>
<path class="st1" d="M0,190.7c0,1.1,0,2.1,0,3.2c0.4,0,0.8,0,1.1,0c6.7,0,13.4,0,20.2,0c67.4,0,134.9,0,202.3,0c0.4,0,0.8,0,1.3,0
	c0.2,0,0.5-0.3,0.5-0.5c0.1-0.9,0-1.8,0-2.7C150.2,190.7,75.1,190.7,0,190.7z"/>
<path class="st2" d="M76.6,197c-0.7-0.1-1,0.2-1.2,0.9c-1.3,4.8-2.7,9.5-4.1,14.3c-0.7,2.3-1.4,4.6-2,6.9c-0.3-0.2-0.4-0.5-0.4-0.7
	c-0.7-2.4-1.4-4.9-2.1-7.3c-1.3-4.5-2.6-8.9-3.9-13.3c-0.1-0.3-0.4-0.7-0.6-0.7c-0.9-0.1-1.9,0-2.9,0c0,9.3,0,18.4,0,27.6
	c1,0,1.9,0,3,0c0-7.3,0-14.5,0-21.7c0.2,0.2,0.3,0.4,0.4,0.6c0.8,2.9,1.6,5.8,2.3,8.8c1,3.9,2.1,7.7,3.1,11.6
	c0.1,0.5,0.3,0.8,0.9,0.8c1,0.1,1.3-0.3,1.5-1.2c1.7-6.7,3.5-13.4,5.2-20.2c0.1-0.2,0.2-0.4,0.2-0.6c0.1,0,0.2,0,0.2,0
	c0,7.3,0,14.5,0,21.8c1,0,1.8,0,2.7,0c0-9.2,0-18.4,0-27.6C78.1,197.1,77.3,197.1,76.6,197z"/>
<path class="st2" d="M220.5,200.3c-0.7-0.1-1,0.2-1.3,0.9c-1.4,4.2-2.8,8.5-4.1,12.7c-0.6,1.9-1.3,3.8-1.9,5.8c-0.1,0-0.2,0-0.3,0
	c-0.1-0.3-0.2-0.5-0.3-0.8c-1.8-5.5-3.6-10.9-5.4-16.4c-0.7-2.2-0.7-2.2-3.1-2.2c-0.8,0-1,0.3-1,1c0,7.4,0,14.9,0,22.3
	c0,0.3,0,0.6,0,1c1,0,2,0,3.1,0c0-6.3,0-12.6,0-18.9c0.3,0.3,0.4,0.6,0.5,0.9c1.7,5.8,3.5,11.5,5.2,17.3c0.2,0.6,0.4,0.9,1.1,0.8
	c0.6,0,1.1,0,1.3-0.8c0.9-3.2,1.8-6.3,2.7-9.5c0.9-3,1.7-5.9,2.6-8.9c0.1,0,0.2,0,0.2,0c0,6.4,0,12.8,0,19.1c1.1,0,2,0,2.8,0
	c0-8.1,0-16.2,0-24.3C221.9,200.4,221.2,200.4,220.5,200.3z"/>
<path class="st0" d="M0.9,186.3c1.2,0,2.5,0,3.7,0c0.8,0,1-0.2,1-1c0-3.9,0-7.8,0-11.7c0-1.2,0-1.2,1.2-1.2c4.7,0,9.4-0.1,14.1-0.1
	c0.7,0,1.1-0.3,1-1c0-1.1,0-2.2,0-3.3c-0.1-1.2-0.1-1.2-1.4-1.2c-3.2,0-6.4,0-9.6,0c0,0,0,0,0,0c-3.3,0-6.7,0-10,0
	c-0.6,0-0.9,0.1-0.9,0.8c0,5.9,0,11.9,0,17.8C0,186.2,0.3,186.4,0.9,186.3z"/>
<path class="st2" d="M12.5,197.1c-1.9,0-3.6,0-5.4,0c-1.6,9.2-3.3,18.3-4.9,27.6c1.2,0,2.2,0,3.3,0c0.3-1.8,0.6-3.6,0.9-5.4
	c0.1-0.6,0.3-0.8,0.9-0.8c1.7,0,3.5,0,5.2,0c0.6,0,0.8,0.2,0.9,0.8c0.2,1.6,0.5,3.1,0.7,4.7c0,0.3,0.3,0.7,0.5,0.7
	c0.9,0.1,1.8,0,2.9,0C15.8,215.4,14.1,206.3,12.5,197.1z M6.9,215.9c1-5.4,1.9-10.8,2.8-16.1c0.1,0,0.2,0,0.3,0
	c0.9,5.3,1.9,10.7,2.8,16.2C10.7,215.9,8.9,215.9,6.9,215.9z"/>
<path class="st2" d="M192.6,224.7c1,0,2,0,3.1,0c0-0.2,0-0.4,0-0.5c-1.5-7.7-3.1-15.4-4.6-23.1c-0.1-0.5-0.3-0.8-0.9-0.8
	c-1.2,0-2.5,0-3.7,0c-0.6,0-0.9,0.2-1,0.8c-1.3,6.3-2.6,12.6-3.9,18.9c-0.3,1.5-0.5,3-0.8,4.6c1.1,0,2.1,0,3.1,0
	c0.3-1.6,0.5-3.1,0.8-4.6c0.1-0.3,0.3-0.7,0.5-0.7c2.1-0.1,4.2,0,6.3,0C192,221.1,192.3,222.9,192.6,224.7z M185.3,216.9
	c0.9-4.8,1.9-9.5,2.8-14.2c0.1,0,0.2,0,0.3,0c0.9,4.7,1.9,9.4,2.8,14.2C189.2,216.9,187.3,216.9,185.3,216.9z"/>
<path class="st2" d="M153.2,220.2c0.2,1.5,0.5,2.9,0.8,4.4c1,0,2,0,3,0c0-0.2,0-0.2,0-0.3c-1.6-7.8-3.1-15.7-4.7-23.5
	c0-0.2-0.5-0.5-0.7-0.5c-1.2-0.1-2.5,0-3.7,0c-0.7,0-1,0.2-1.1,0.9c-1,5-2.1,10-3.1,15c-0.6,2.8-1,5.6-1.5,8.4c1.1,0,2.1,0,3.1,0
	c0.3-1.5,0.6-3,0.8-4.5c0.1-0.6,0.3-0.9,1-0.9c1.6,0,3.2,0,4.9,0C152.8,219.2,153.1,219.5,153.2,220.2z M146.7,217
	c1-4.8,1.9-9.5,2.8-14.2c0.1,0,0.2,0,0.3,0c0.9,4.7,1.9,9.4,2.8,14.3C150.5,217,148.7,217,146.7,217z"/>
<path class="st2" d="M100,200.4c-0.8,0-1.4,0-2.1,0c-0.8-0.1-1,0.3-1,1.1c0,4.3,0,8.6,0,12.9c0,2.1,0,4.1,0,6.2c0,1.3-0.7,2.1-2,2.3
	c-0.6,0.1-1.1,0.1-1.7,0c-1.9-0.2-2.5-0.9-2.5-2.8c0-6.2,0-12.4,0-18.6c0-0.8-0.2-1-1-1c-2.6,0.1-2.1-0.2-2.1,2c0,6.1,0,12.3,0,18.4
	c0,2,1,3.2,2.9,3.9c1.8,0.6,3.6,0.6,5.4,0.2c3-0.6,4-1.9,4-5c0-6.1,0-12.2,0-18.4C100,201.3,100,200.9,100,200.4z"/>
<path class="st0" d="M184.3,157c-3.1,0-6.2,0-9.4,0c-0.6,0-0.9,0.1-0.9,0.8c0,3.4,0,6.8,0,10.2c0,0.5,0,0.9,0.7,0.9
	c0.8,0,0.8-0.5,0.8-1c0-2.4,0-4.9,0-7.3c0-2.3-0.5-2.1,2.3-2.1c0.7,0,1,0.2,0.9,1c0,1.2,0,2.3,0,3.5c0,0.5,0.1,0.7,0.6,0.7
	c3.2,0,6.4,0,9.5,0c0.2,0,0.6-0.4,0.6-0.6c0.2-0.6-0.1-0.9-0.8-0.9c-2.5,0-5.1,0-7.6,0c-0.7,0-1-0.2-0.9-0.9c0-0.6,0-1.2,0-1.8
	c-0.1-0.8,0.3-1,1-1c3.6,0,7.3,0,10.9,0c0.6,0,0.9,0.2,0.9,0.9c0,2.4,0,4.7,0,7.1c0,0.5-0.3,0.7-0.8,0.7c-1,0-2,0-3.1,0
	c-0.5,0-0.8,0.2-0.7,0.7c0,1.5,0,3.1,0,4.6c0,0.6,0.3,0.7,0.8,0.7c0.9,0,1.8,0,2.7,0c0.9-0.1,1.2,0.3,1.2,1.1c0,0.2,0,0.5,0,0.7
	c0,0.7-0.3,1-1,1c-1-0.1-2-0.1-3,0c-0.2,0-0.7,0.4-0.7,0.6c0,1.6,0,3.2,0,4.9c0,0.6,0.3,0.7,0.8,0.7c0.6,0,0.7-0.2,0.7-0.8
	c0-0.5,0-1.1,0-1.6c0-2.2,0-2.1,2.1-2.4c0.8-0.1,1,0.2,1,0.9c0,1,0,2.1,0,3.1c0,0.5,0.2,0.7,0.7,0.7c0.7,0,0.8-0.4,0.8-0.9
	c0-2.2,0-4.3,0-6.5c0-5.6,0-11.3,0-16.9c0-0.7-0.2-0.9-0.9-0.9C190.6,157,187.5,157,184.3,157z M193,171.7c-0.9,0-1.7,0-2.4,0
	c-0.2,0-0.5-0.3-0.6-0.6c-0.1-0.3-0.1-0.7,0-1.1c0.1-0.5,0.1-1.3,0.3-1.3c0.8-0.2,1.6-0.1,2.5-0.1c0.1,0,0.2,0.3,0.3,0.4
	C193,169.9,193,170.8,193,171.7z"/>
<path class="st0" d="M44.8,162.9c0-0.6-0.4-0.7-0.9-0.7c-1.9,0-3.9,0-5.8,0c-2.8,0-2.8,0-2.7-2.8c0-0.7,0.3-0.9,0.9-0.9
	c3.7,0,7.4,0,11.2,0c0.7,0,0.9,0.3,0.9,0.9c0,2.3,0,4.6,0,6.8c0,0.7-0.3,0.9-0.9,0.9c-1,0-2,0-3.1,0c-0.5,0-0.8,0.2-0.8,0.7
	c0,1.5,0,3.1,0,4.6c0,0.6,0.2,0.8,0.7,0.7c0.7,0,1.4,0,2.1,0c2,0,2,0,1.8,2c0,0.2-0.4,0.6-0.6,0.7c-1.1,0.1-2.2,0.2-3.3,0.2
	c-0.6,0-0.8,0.2-0.8,0.8c0,1.5,0,3,0,4.5c0,0.6,0.1,0.9,0.8,0.9c0.7,0,0.7-0.4,0.7-0.9c0-0.5,0-1,0-1.5c0.1-2.7-0.4-2.2,2.4-2.2
	c0.6,0,0.8,0.2,0.8,0.8c0,1,0,2.1,0,3.1c0,0.6,0.3,0.8,0.8,0.7c0.7,0,0.7-0.5,0.7-0.9c0-3.9,0-7.8,0-11.7c0-3.9,0-7.7,0-11.6
	c0-0.7-0.1-1-0.9-1c-6.2,0-12.5,0-18.7,0c-0.7,0-0.9,0.2-0.9,0.9c0,3.4,0,6.7,0,10.1c0,0.5,0,0.9,0.7,0.9c0.8,0,0.8-0.5,0.8-1
	c0-2.4,0-4.8,0-7.2c0-2.4,0.1-2.5,2.5-2.2c0.5,0,0.8,0.2,0.7,0.8c0,1.2,0,2.4,0,3.6c0,0.6,0.2,0.8,0.8,0.8c3.1,0,6.1,0,9.2,0
	C44.4,163.7,44.8,163.6,44.8,162.9z M48.2,171.7c-0.9,0.1-1.6,0.1-2.4,0.1c-0.6,0-0.8-0.3-0.8-0.8c0-0.2,0-0.4,0-0.5
	c0.1-0.6,0.1-1.6,0.3-1.7c0.7-0.2,1.6-0.1,2.4-0.1c0.1,0,0.4,0.4,0.4,0.6C48.3,170,48.2,170.8,48.2,171.7z"/>
<path class="st2" d="M167.4,221.5c1.9-5.7,3.9-11.4,5.8-17.1c0.3-1,0.6-2.1,0.9-3.1c0.2-0.6-0.1-1-0.8-1c-2.9,0-5.8,0-8.7,0
	c-0.2,0-0.5,0-0.7,0.1c0,0.7,0,1.4,0,2.2c2.2,0,4.4,0,6.7,0c-0.1,0.5-0.2,0.9-0.4,1.2c-2.1,6.2-4.2,12.3-6.3,18.5
	c-0.2,0.7-0.3,1.5-0.4,2.3c3.7,0,7.2,0,10.8,0c0-0.7,0-1.4,0-2.2c-2.4,0-4.8,0-7.2,0C167.2,222,167.3,221.7,167.4,221.5z"/>
<path class="st0" d="M40,180.3c0-4.2,0-8.3,0-12.5c0-0.5,0-0.9-0.7-0.9c-0.7,0-0.7,0.4-0.7,0.9c0,3.7,0,7.5,0,11.2
	c0,1.6,0,1.6-1.6,1.7c-1.3,0.1-1.5,0-1.5-1.4c0-3.9,0-7.7,0-11.6c0-0.5,0-0.9-0.7-0.9c-0.7,0-0.8,0.4-0.8,0.9c0,2.7,0,5.5,0,8.2
	c0,1.6,0,3.1,0,4.8c-0.9,0-1.6,0-2.3,0c-0.7,0.1-0.9-0.3-0.9-1c0-1.9,0-3.9,0-5.8c0-0.6-0.2-0.8-0.8-0.8c-0.6,0-0.8,0.3-0.7,0.8
	c0,0.4,0,0.8,0,1.3c0.1,0.8-0.3,1-1,1c-0.9,0-1.8,0-2.7,0c-0.8,0-1,0.3-1,1c0,1.3,0.1,2.7,0,4c0,0.8,0.3,1,1,1
	c4.1,0,8.3,0.1,12.4,0.1C40,182.4,40,182.4,40,180.3z M27.6,180.7c-1.8,0-1.6,0.2-1.6-1.5c0-1.8-0.1-1.5,1.6-1.5
	c1.8,0,1.6-0.3,1.6,1.6C29.2,181,29.3,180.7,27.6,180.7z"/>
<path class="st2" d="M123.8,202.6c1.2,0,2.4,0.1,3.5,0c0.9-0.1,1.1,0.3,1.1,1.1c0,6.7,0,13.3,0,20c0,0.3,0,0.7,0,1.1
	c0.8,0,1.4-0.1,1.9,0c0.9,0.1,1.1-0.3,1.1-1.2c0-6.6,0-13.2,0-19.9c0-0.8,0.2-1.2,1.1-1.1c1.2,0.1,2.3,0,3.5,0c0-0.8,0-1.5,0-2.2
	c-4.1,0-8.2,0-12.3,0C123.8,201.1,123.8,201.8,123.8,202.6z"/>
<path class="st0" d="M184.8,181.2c-0.1-2.2,0-4.4,0-6.6c0,0,0,0,0,0c0-2.3,0-4.6,0-6.8c0-0.6-0.1-0.9-0.8-0.9
	c-0.7,0-0.7,0.4-0.7,0.9c0,3.6,0.1,7.3,0.1,10.9c0,2.1,0,2-2,2.1c-0.9,0-1.1-0.2-1.1-1.1c0-4,0-7.9,0-11.9c0-0.5,0-0.9-0.8-0.9
	c-0.7,0-0.7,0.4-0.7,0.9c0,3.6,0,7.1,0,10.7c0,2.3,0,2.3-2.3,2.3c-0.7,0-1-0.2-0.9-0.9c0-1.9,0-3.9,0-5.8c0-0.5-0.1-0.8-0.7-0.8
	c-0.6,0-0.8,0.3-0.7,0.8c0,0.4,0,0.7,0,1.1c0.1,0.8-0.3,1.2-1.1,1.2c-0.9,0-1.9,0-2.8,0c-0.6,0-0.8,0.2-0.8,0.8c0,1.5,0,3,0,4.5
	c0,0.5,0.2,0.7,0.7,0.7c4.5,0,9.1,0.1,13.6,0.1C184.5,182.4,184.8,182,184.8,181.2z M174.1,179.3c0,1.4,0,1.4-1.4,1.4
	c-1.8,0-1.8,0-1.8-1.7c0-1.6-0.2-1.3,1.6-1.3C174.1,177.7,174.1,177.7,174.1,179.3z"/>
<path class="st2" d="M27.7,221.2c0-6.5,0-13,0-19.5c0-0.3,0-0.6,0-0.8c-0.1-0.2-0.3-0.4-0.4-0.5c-0.9,0-1.7,0-2.6,0
	c0,8.2,0,16.2,0,24.3c3.7,0,7.3,0,10.9,0c0-0.7,0-1.4,0-2.2c-2.6,0-5.2,0-7.8,0C27.7,222,27.7,221.6,27.7,221.2z"/>
<path class="st2" d="M111.7,200.4c-0.7,0-1.4,0-2,0c-0.8-0.1-1.1,0.2-1.1,1c0,7.4,0,14.9,0,22.3c0,0.3,0,0.6,0.1,1
	c3.7,0,7.3,0,10.9,0c0-0.7,0-1.4,0-2.2c-2.6,0-5.1,0-7.8,0C111.7,215,111.7,207.8,111.7,200.4z"/>
<path class="st2" d="M145.5,233.2c-0.1-1.8-1-2.6-2.8-2.6c-0.7,0-1.4,0.1-2.2,0c-0.8-0.1-0.9,0.3-0.9,1c0,4.5,0,9,0,13.5
	c0,0.3,0,0.7,0.1,1.2c1.2,0,2.4,0.1,3.5,0c1.3-0.1,2.1-0.7,2.3-2c0.2-1,0.1-2,0.2-3c0.1-0.9-0.3-1.5-0.9-2.1
	c-0.2-0.2-0.5-0.4-0.5-0.5c0.5-0.9,1.2-1.6,1.4-2.5C145.7,235.1,145.6,234.1,145.5,233.2z M144,243.3c-0.1,1.2-0.5,1.5-1.7,1.5
	c-0.4,0-0.8,0-1.3,0c0-1.9,0-3.7,0-5.7c0.5,0,0.9,0,1.4,0c1,0,1.5,0.4,1.6,1.5C144.1,241.5,144.1,242.4,144,243.3z M144.1,235.6
	c-0.2,1.9-1,2.5-3,2c0-1.8,0-3.7,0-5.5c0.2-0.1,0.2-0.1,0.3-0.1c2.2-0.2,2.6,0.2,2.8,2.4C144.1,234.7,144.1,235.2,144.1,235.6z"/>
<path class="st2" d="M207.5,233.4c0,2.9,0,5.8,0,8.7c0,0.3,0,0.6,0,0.9c-0.3-0.3-0.3-0.5-0.4-0.8c-0.8-2.9-1.6-5.8-2.3-8.7
	c-0.3-1.2-0.4-1.3-1.8-1c0,4.5,0,9,0,13.5c0.4,0,0.8,0,1.3,0c0-3.4,0-6.8,0-10.1c0.3,0.2,0.4,0.3,0.4,0.5c0.8,2.8,1.5,5.7,2.3,8.5
	c0.4,1.3,0.4,1.3,1.7,1.1c0-4.5,0-9.1,0-13.6C207.8,232.3,207.5,232.6,207.5,233.4z"/>
<path class="st2" d="M128,232.6c-1.4-0.2-2.8-0.2-4.3-0.2c0,4.7,0,9.2,0,13.7c1.3,0,2.6,0.1,3.9,0c1.1-0.1,1.9-0.9,1.9-2
	c0-3.2,0-6.4,0-9.6C129.5,233.6,128.8,232.7,128,232.6z M128.1,242.8c0,1.9-0.2,2.1-2.1,2.1c-0.3,0-0.5,0-0.9,0c0-3.8,0-7.5,0-11.2
	c0.2,0,0.4-0.1,0.6-0.1c2.2-0.1,2.4,0.1,2.4,2.3C128.1,238.3,128.1,240.6,128.1,242.8z"/>
<path class="st2" d="M169.4,232.6c0,3.5,0,7,0,10.5c-0.1,0-0.2,0-0.2,0c-0.1-0.2-0.2-0.4-0.2-0.6c-0.8-3.1-1.7-6.2-2.4-9.3
	c-0.2-0.8-0.6-0.8-1.2-0.8c-0.8,0-0.5,0.6-0.5,1c0,4,0,8,0,12c0,0.3,0,0.5,0.1,0.8c0.4,0,0.8,0,1.2,0c0-3.5,0-6.9,0-10.3
	c0.3,0.3,0.5,0.7,0.6,1c0.7,2.7,1.5,5.4,2.2,8.1c0.3,1.3,0.3,1.3,1.8,1.1c0-0.2,0.1-0.3,0.1-0.4c0-4.2,0-8.4,0-12.6
	C170.7,232.2,170.1,232.4,169.4,232.6z"/>
<path class="st2" d="M181.7,232.6c-1.3-0.1-2.6,0-4,0c0,4.6,0,9.1,0,13.6c1.3,0,2.5,0,3.7,0c1.2-0.1,2.1-1,2.1-2.2
	c0-3.1,0-6.1,0-9.2C183.5,233.5,182.8,232.7,181.7,232.6z M182,243.7c0,0.4-0.5,1-0.8,1.1c-0.6,0.2-1.3,0-2,0
	c-0.1,0-0.1-0.3-0.1-0.4c0-3.5,0-7.1,0-10.6c2.7-0.4,3.1,0,3.1,2.5C182.1,238.8,182.1,241.2,182,243.7z"/>
<path class="st2" d="M20.7,233.5c0,0.6,0,1.2,0,1.8c0,1.1,0,2.2,0,3.3c-1.1,0-2,0-3,0c0-2.1,0-4.1,0-6.1c-1.3-0.3-1.4-0.3-1.4,1
	c0,3.8,0,7.7,0,11.5c0,1.2,0,1.3,1.5,1c0-2,0-4,0-6.1c1,0,1.9,0,3,0c0,2.1,0,4.1,0,6.2c0.6,0,1,0,1.3,0c0-4.6,0-9.1,0-13.6
	C20.9,232.2,20.7,232.7,20.7,233.5z"/>
<path class="st2" d="M46.5,236.4c0-0.6,0-1.2,0-1.8c-0.1-0.9-0.5-1.7-1.4-1.9c-1.4-0.2-2.8-0.2-4.2-0.3c0,4.8,0,9.3,0,13.8
	c0.5,0,0.9,0,1.4-0.1c0-2.1,0-4.2,0-6.2c0.8-0.4,1.2-0.1,1.4,0.7c0.5,1.5,1,3,1.5,4.4c0.4,1.2,0.4,1.2,1.9,1.1
	c-0.9-2.2-1.7-4.3-2.5-6.4C46.5,238.5,46.5,238.4,46.5,236.4z M42.5,238.6c-0.1-0.1-0.2-0.4-0.2-0.6c0-0.3,0-0.6,0-0.9s0-0.6,0-0.9
	c0-0.2,0-0.3,0-0.5c0-0.2,0-0.3,0-0.5c0.1-0.5-0.5-1.4,0.6-1.4c1.5-0.1,2,0.1,2.2,1.3c0.1,0.8,0.1,1.6,0,2.4
	C44.9,238.5,43.4,239.2,42.5,238.6z"/>
<path class="st2" d="M57.2,239.3c1-0.5,1.5-1.2,1.4-2.4c-0.1-0.8,0-1.6,0-2.4c0-0.9-0.6-1.8-1.5-1.9c-1.3-0.2-2.7-0.2-4.1-0.3
	c0,4.7,0,9.2,0,13.8c0.4,0,0.8,0,1.4,0c0-1.9,0-3.7,0-5.5c0-0.3,0.2-0.7,0.5-0.8c0.5-0.3,0.7,0.2,0.8,0.6c0.5,1.5,1,3.1,1.5,4.6
	c0.4,1.3,0.4,1.3,1.9,1c-0.8-2.1-1.7-4.3-2.5-6.4C56.9,239.5,57,239.4,57.2,239.3z M54.5,238.6c-0.1-0.1-0.2-0.4-0.2-0.6
	c0-0.6,0-1.3,0-1.9c0,0,0,0,0,0c0-0.4-0.1-0.7,0-1.1c0.1-0.5-0.5-1.3,0.6-1.4c1.5-0.1,2.1,0.1,2.2,1.3c0.1,0.9,0,1.8-0.1,2.8
	C56.9,238.5,55.1,239.1,54.5,238.6z"/>
<path class="st2" d="M156.4,233.2c-0.1-0.6-0.4-0.8-0.9-0.8c-0.3,0-0.7,0-1,0c-0.5,0-0.8,0.2-0.9,0.8c-0.5,2.9-1,5.9-1.6,8.8
	c-0.2,1.3-0.4,2.7-0.6,4.1c0.5,0,0.9,0,1.4,0c0.1-0.3,0.1-0.5,0.2-0.7c0.2-0.7,0.1-1.8,0.6-2.1c0.6-0.4,1.6-0.1,2.4-0.1
	c0.5,0,0.8,0.2,0.8,0.7c0.1,0.8,0.2,1.6,0.4,2.3c0.5,0,0.9,0,1.4,0c-0.1-0.6-0.1-1.1-0.2-1.6C157.7,240.7,157,237,156.4,233.2z
	 M153.5,241.8c0.5-2.7,0.9-5.4,1.3-8c0.1,0,0.1,0,0.2,0c0.4,2.6,0.9,5.3,1.3,8C155.4,241.8,154.6,241.8,153.5,241.8z"/>
<path class="st2" d="M218.5,233.4c1,0,1.5,0.6,1.5,1.7c0,0.4,0,0.8,0,1.2c0.5,0,0.9,0,1.4,0c0-0.7,0-1.3,0-1.8
	c-0.1-0.9-0.4-1.8-1.4-2c-1-0.2-2-0.2-3,0c-0.9,0.1-1.4,0.9-1.4,1.8c0,3.3,0,6.7,0,10c0,1.1,0.6,1.8,1.7,2c0.8,0.1,1.6,0.1,2.4,0
	c1-0.1,1.6-0.9,1.7-1.8c0.1-1.8,0-3.7,0-5.6c-0.9,0-1.7,0-2.6,0c0,0.4,0,0.7,0,1c0.4,0.3,1.2-0.1,1.2,0.8c0,1,0,2.1,0,3.1
	c-0.1,1-0.6,1.5-1.5,1.5c-1,0-1.5-0.6-1.5-1.6c0-2.8,0-5.7,0-8.5C217,234,217.5,233.4,218.5,233.4z"/>
<path class="st2" d="M196,232.5c-0.4,0-0.8,0-1.3-0.1c0,0.5-0.1,0.9-0.1,1.3c0,3.1,0,6.1,0,9.2c0,0.4,0,0.9-0.1,1.2
	c-0.2,0.4-0.5,0.8-0.9,1c-1.2,0.4-2-0.2-2-1.5c0-3.5,0-7,0-10.4c0-0.4,0-0.8-0.6-0.7c-0.4,0-0.8,0-0.8,0.6c0,3.7,0,7.5,0.1,11.2
	c0,0.5,0.3,1.2,0.8,1.5c1.2,0.9,2.5,0.9,3.8,0.3c1.1-0.5,1.3-1.5,1.3-2.6c0-3.4,0-6.8,0-10.2C196.1,233.1,196.1,232.9,196,232.5z"/>
<path class="st2" d="M6.7,231.7c0.8,0,1.3,0.3,1.4,1.2c0.1,0.7,0.1,1.4,0.2,2.1c0.4,0,0.8,0,1.4,0c-0.1-0.9,0-1.8-0.2-2.6
	c-0.3-1.5-1.5-2.3-3-2.1c-1.8,0.2-2.7,1-2.7,2.6c0,3.6,0,7.3,0,10.9c0,1.8,0.9,2.6,2.8,2.7c1.7,0.1,2.8-0.7,3.1-2.4
	c0.1-0.8,0-1.5,0-2.4c-0.4,0-0.8,0-1.3,0c-0.1,0.8-0.1,1.5-0.2,2.3c-0.1,0.6-0.4,0.9-1,1c-1.4,0.2-1.9-0.3-1.9-1.7
	c0-3.3,0-6.6,0-9.9c0-0.2,0-0.4,0-0.5C5.3,232,5.8,231.7,6.7,231.7z"/>
<path class="st1" d="M197.2,165.5c0.6,0,1,0,1.5,0c0-4.3,0-8.4,0-12.6c-4.2,0-8.4,0-12.6,0c0,0.5,0,1,0,1.6c3.7,0,7.3,0,11,0
	C197.2,158.2,197.2,161.8,197.2,165.5z"/>
<path class="st1" d="M166,165.5c0.6,0,0.7-0.3,0.7-0.8c0-3,0-6,0-9c0-0.4,0-0.8,0-1.3c3.7,0,7.3,0,10.9,0c0-0.6,0-1.1,0-1.6
	c-4.2,0-8.3,0-12.4,0c-0.1,0.2-0.1,0.3-0.1,0.3c0,3.9,0,7.8,0,11.7C165.1,165.6,165.6,165.5,166,165.5z"/>
<path class="st1" d="M186.2,184.8c-0.2,1.6-0.2,1.7,1.3,1.7c3.3,0,6.5,0,9.8,0c0.5,0,0.9,0,1.4,0c0-4.3,0-8.4,0-12.5
	c-1.6-0.2-1.6-0.2-1.6,1.2c0,2.8,0,5.6,0,8.4c0,0.4,0,0.8,0,1.2C193.4,184.8,189.8,184.8,186.2,184.8z"/>
<path class="st1" d="M22.7,154.5c2.3,0,4.6,0,6.9,0c1.1,0,2.1,0,3.2,0c0-0.6,0-1.1,0-1.6c-4.2,0-8.3,0-12.5,0c0,4.2,0,8.4,0,12.5
	c0.5,0,1,0,1.5,0c0-0.4,0-0.7,0-1.1c0-3,0-6,0-9C21.9,154.7,22,154.5,22.7,154.5z"/>
<path class="st1" d="M53.9,165.4c0-4.2,0-8.4,0-12.6c-4.2,0-8.3,0-12.4,0c-0.4,1.5-0.3,1.6,1.1,1.6c2.9,0,5.8,0,8.7,0
	c0.3,0,0.6,0,1,0.1c0,3.7,0,7.3,0,10.8C52.9,165.4,53.4,165.4,53.9,165.4z"/>
<path class="st1" d="M165.2,173.9c0,0.2-0.1,0.3-0.1,0.4c0,3.8,0,7.7,0,11.5c0,0.7,0.4,0.7,0.9,0.7c3.5,0,7,0,10.4,0
	c1.5,0,1.5,0,1.2-1.7c-3.6,0-7.2,0-10.9,0c0-3.7,0-7.3,0-10.9C166.2,173.9,165.7,173.9,165.2,173.9z"/>
<path class="st1" d="M53.8,173.9c-0.5,0-0.9,0-1.6,0c0,3.7,0,7.3,0,10.9c-3.7,0-7.3,0-10.9,0c0,0.6,0,1.1,0,1.6c4.2,0,8.3,0,12.5,0
	C53.8,182.3,53.8,178.1,53.8,173.9z"/>
<path class="st1" d="M21.4,186.5c3.4,0,6.8,0,10.2,0c1.4,0,1.4,0,1.2-1.6c-0.4,0-0.7,0-1,0c-3,0-5.9,0-8.9,0c-0.8,0-1-0.2-1-1
	c0-2.9,0-5.9,0-8.8c0-0.3,0-0.7,0-1.1c-0.6,0-1,0-1.5,0c0,0.3,0,0.6,0,0.9c0,3.5,0,7.1,0,10.6C20.3,186.3,20.6,186.5,21.4,186.5z"/>
<path class="st2" d="M80.6,246.1c1.3,0.2,1.3,0.1,1.4-1c0-0.4,0-0.7,0-1.1c0-1.6,0-3.2,0-5c1.2,0,2.2,0,3.2,0c0-0.5,0-0.9,0-1.4
	c-1.1,0-2.1,0-3.1,0c0-2,0-3.8,0-5.8c1.3,0,2.5,0,3.7,0c0-0.5,0-0.9,0-1.3c-1.7,0-3.4,0-5.1,0C80.6,235.8,80.6,241,80.6,246.1z"/>
<path class="st2" d="M101,232.5c-0.2,0-0.4,0.4-0.4,0.6c-0.1,0.5,0,1.1,0,1.6c0,3.5,0,7.1,0,10.6c0,0.3,0.2,0.8,0.4,0.8
	c1.6,0.1,3.2,0,4.8,0c0-0.5,0-0.8,0-1.2c-1.3,0-2.5,0-3.7,0c0-1.5,0-2.9,0-4.2c0-0.7,0.2-0.8,0.8-0.8c0.8,0,1.6,0,2.4,0
	c0-0.5,0-0.8,0-1.2c-1.1,0-2.1,0-3.1,0c0-1.7,0-3.3,0-5.1c1.3,0,2.4,0,3.7,0c0-0.4,0-0.7,0-1.2C104.1,232.4,102.5,232.4,101,232.5z"
	/>
<path class="st2" d="M34.3,233.6c0-0.5,0-0.8-0.1-1.1c-1.8,0-3.4,0-5.1,0c0,4.6,0,9.1,0,13.6c1.7,0,3.4,0,5.1,0c0-0.4,0-0.7,0-1.2
	c-1.3,0-2.5,0-3.7,0c0-1.7,0-3.3,0-5c1.1,0,2.1,0,3.1,0c0-0.4,0-0.8,0-1.2c-1.1,0-2.1,0-3.2,0c0-1.7,0-3.3,0-5.1
	C31.8,233.6,33,233.6,34.3,233.6z"/>
<path class="st0" d="M117,156.5c0.5,0,0.7-0.2,0.7-0.7c0-1.3,0-2.7,0-4c0-0.6-0.2-0.7-0.8-0.7c-1.3,0-2.7,0-4,0
	c-0.6,0-0.8,0.2-0.8,0.8c0,1.3,0,2.7,0,4c0,0.6,0.3,0.7,0.8,0.7c0.7,0,1.3,0,2,0c0,0,0,0,0,0C115.6,156.5,116.3,156.5,117,156.5z"/>
<path class="st0" d="M76.4,141.5c-1.3,0-2.7,0-4,0c-0.5,0-0.7,0.2-0.7,0.7c0,1.4,0,2.8,0,4.1c0,0.2,0.3,0.6,0.4,0.6
	c1.4,0.1,2.9,0.1,4.3,0.1c0.6,0,0.8-0.3,0.7-0.9c0-0.6,0-1.3,0-1.9c0,0,0,0,0,0c0-0.7,0-1.4,0-2.1C77.1,141.7,76.9,141.5,76.4,141.5
	z"/>
<path class="st0" d="M101.1,156.5c0.3,0,0.7,0,1,0c0.7,0,1.3,0,2,0c0.6,0,0.8-0.2,0.8-0.8c0-1.3,0-2.7,0-4c0-0.5-0.2-0.7-0.7-0.7
	c-1.4,0-2.8,0-4.1,0c-0.5,0-0.7,0.3-0.7,0.7c0,1.3,0,2.7,0,4c0,0.5,0.2,0.8,0.7,0.7C100.4,156.5,100.8,156.5,101.1,156.5z"/>
<path class="st0" d="M102.1,156.5c-0.3,0-0.7,0-1,0C101.4,156.5,101.7,156.5,102.1,156.5c0.7,0,1.3,0,2,0
	C103.4,156.5,102.7,156.5,102.1,156.5z"/>
<path class="st2" d="M69.3,233.5c-0.4,1.5-0.9,3-1.3,4.5c-0.1,0.3-0.2,0.6-0.4,1c-0.7-1.8-1.3-3.7-1.8-5.5c-0.3-1.2-0.3-1.2-1.7-0.9
	c0.8,2.2,1.8,4.4,2.3,6.6c0.5,2.3,0.5,4.6,0.7,7c0.3,0,0.7,0,1.2,0c0-1.6,0-3.1,0-4.6c0-0.8,0.1-1.6,0.4-2.3
	c0.5-1.7,1.2-3.3,1.7-4.9c0.2-0.6,0.4-1.2,0.6-1.9C69.6,232.3,69.6,232.3,69.3,233.5z"/>
<path class="st0" d="M170.9,157.8c0-0.6-0.1-0.8-0.8-0.8c-0.6,0-0.8,0.3-0.8,0.8c0,4.6,0,9.1,0,13.7c0,0.6,0.1,0.9,0.8,0.9
	c0.7,0,0.7-0.4,0.7-0.9c0-2.2,0-4.5,0-6.7C170.9,162.4,170.8,160.1,170.9,157.8z"/>
<path class="st0" d="M24.5,171.5c0,0.5,0,0.9,0.7,0.9c0.7,0,0.8-0.3,0.8-0.9c0-4.6,0-9.1,0-13.7c0-0.6-0.1-0.8-0.8-0.8
	c-0.6,0-0.7,0.3-0.7,0.8c0,2.3,0,4.6,0,6.8C24.5,166.9,24.5,169.2,24.5,171.5z"/>
<path class="st2" d="M113.7,232.5c-0.5,0-0.9,0-1.3,0c0,4.6,0,9.1,0,13.6c1.7,0,3.4,0,5.1,0c0-0.4,0-0.7,0-1.2c-1.3,0-2.5,0-3.8,0
	C113.7,240.7,113.7,236.6,113.7,232.5z"/>
<path class="st2" d="M41.6,212.1c3.4,0,6.7,0,10.1,0c0-0.6,0-1.1,0-1.8c-3.4,0-6.7,0-10.1,0C41.6,210.9,41.6,211.5,41.6,212.1z"/>
<path class="st2" d="M92.1,233.5c0,4,0,8,0,12c0,0.2,0,0.4,0.1,0.6c0.4,0,0.8,0,1.3,0c0-4.6,0-9.1,0-13.6
	C92.3,232.3,92.1,232.3,92.1,233.5z"/>
<path class="st1" d="M36.4,152.8c0,0.5,0,1,0,1.6c0.5,0,1,0,1.4,0c0-0.6,0-1.1,0-1.6C37.3,152.8,36.9,152.8,36.4,152.8z"/>
<path class="st1" d="M182.7,186.4c0-0.6,0-1,0-1.5c-0.5,0-1,0-1.5,0c0,0.5,0,1,0,1.6C181.8,186.5,182.2,186.4,182.7,186.4z"/>
<path class="st1" d="M198.7,168.9c-0.5,0-0.9,0-1.6,0c0.1,0.5,0,1.2,0.2,1.4c0.3,0.2,0.9,0.1,1.4,0.1
	C198.7,169.8,198.7,169.4,198.7,168.9z"/>
<path class="st1" d="M36.4,186.4c1.5,0.3,1.7,0.1,1.4-1.4c-0.5,0-0.9,0-1.4,0C36.4,185.4,36.4,185.9,36.4,186.4z"/>
<path class="st1" d="M53.9,168.9c-0.6,0-1,0-1.5,0c0,0.5,0,0.9,0,1.4c0.5,0,1,0,1.5,0C53.9,169.8,53.9,169.4,53.9,168.9z"/>
<path class="st1" d="M182.7,154.4c0-0.6,0-1.1,0-1.6c-0.6,0-1,0-1.6,0c0,0.5-0.1,1.1,0.2,1.4C181.6,154.5,182.2,154.4,182.7,154.4z"
	/>
<path class="st2" d="M42.2,235.6c0,0.2,0,0.3,0,0.5c0,0.3,0,0.6,0,0.9c0-0.3,0-0.6,0-0.9C42.2,236,42.2,235.8,42.2,235.6z"/>
</svg>
